<svg width="80" height="80" viewBox="0 0 80 80" fill="none" xmlns="http://www.w3.org/2000/svg">
<path d="M76.3246 40.0028L79.8345 30.8484C80.2195 29.8385 79.9195 28.6936 79.0745 28.0086L71.4647 21.839L69.9248 12.1547C69.7548 11.0848 68.9148 10.2498 67.8448 10.0798L58.1601 8.53995L51.9953 0.925475C51.3153 0.0805337 50.1453 -0.219446 49.1604 0.165528L40.0006 3.68028L30.8459 0.170527C29.831 -0.219446 28.696 0.090533 28.011 0.930475L21.8412 8.54495L12.1565 10.0848C11.0915 10.2548 10.2515 11.0948 10.0815 12.1597L8.54158 21.844L0.926812 28.0136C0.0868369 28.6936 -0.218154 29.8385 0.166835 30.8484L3.67673 40.0028L0.166835 49.1571C-0.223154 50.1671 0.0868369 51.312 0.926812 51.9919L8.54158 58.1565L10.0815 67.8409C10.2515 68.9108 11.0865 69.7507 12.1565 69.9207L21.8412 71.4606L28.011 79.0701C28.696 79.92 29.841 80.22 30.8509 79.83L40.0006 76.3253L49.1554 79.835C49.4454 79.945 49.7454 80 50.0504 80C50.7853 80 51.5103 79.675 51.9953 79.0701L58.1601 71.4606L67.8448 69.9207C68.9148 69.7507 69.7548 68.9108 69.9248 67.8409L71.4647 58.1565L79.0745 51.9919C79.9195 51.307 80.2195 50.1671 79.8345 49.1571L76.3246 40.0028Z" fill="#EC2B01"/>
<path d="M17.3242 26.7445H18.8602C19.0522 25.7845 19.3482 24.9165 19.7482 24.1405C20.1562 23.3565 20.6482 22.6885 21.2242 22.1365C21.8082 21.5845 22.4642 21.1605 23.1922 20.8645C23.9282 20.5685 24.7202 20.4205 25.5682 20.4205C26.6962 20.4205 27.6602 20.6405 28.4602 21.0805C29.2682 21.5125 29.9362 22.0965 30.4642 22.8325L29.2882 24.0805C29.2002 24.1765 29.1082 24.2645 29.0122 24.3445C28.9162 24.4165 28.7802 24.4525 28.6042 24.4525C28.4282 24.4525 28.2682 24.3885 28.1242 24.2605C27.9882 24.1325 27.8242 23.9925 27.6322 23.8405C27.4402 23.6805 27.1962 23.5365 26.9002 23.4085C26.6042 23.2805 26.2082 23.2165 25.7122 23.2165C24.8562 23.2165 24.1282 23.5125 23.5282 24.1045C22.9362 24.6965 22.5162 25.5765 22.2682 26.7445H28.0642V27.7405C28.0642 27.9325 27.9802 28.1165 27.8122 28.2925C27.6522 28.4605 27.4322 28.5445 27.1522 28.5445H22.0402C22.0322 28.6645 22.0282 28.7885 22.0282 28.9165C22.0282 29.0365 22.0282 29.1605 22.0282 29.2885V29.7925H26.9122V30.7885C26.9122 30.9805 26.8282 31.1645 26.6602 31.3405C26.5002 31.5085 26.2842 31.5925 26.0122 31.5925H22.2082C22.4242 32.8645 22.8242 33.8125 23.4082 34.4365C23.9922 35.0605 24.7122 35.3725 25.5682 35.3725C25.9282 35.3725 26.2362 35.3365 26.4922 35.2645C26.7562 35.1925 26.9802 35.1045 27.1642 35.0005C27.3562 34.8965 27.5162 34.7845 27.6442 34.6645C27.7722 34.5365 27.8882 34.4205 27.9922 34.3165C28.1042 34.2125 28.2082 34.1245 28.3042 34.0525C28.4082 33.9805 28.5242 33.9445 28.6522 33.9445C28.7562 33.9445 28.8402 33.9605 28.9042 33.9925C28.9762 34.0165 29.0522 34.0725 29.1322 34.1605L30.5722 35.4565C30.0202 36.3365 29.3042 37.0085 28.4242 37.4725C27.5442 37.9365 26.5322 38.1685 25.3882 38.1685C24.4442 38.1685 23.5962 38.0125 22.8442 37.7005C22.1002 37.3805 21.4522 36.9325 20.9002 36.3565C20.3482 35.7805 19.8962 35.0885 19.5442 34.2805C19.1922 33.4725 18.9402 32.5765 18.7882 31.5925H17.3242V29.7925H18.6322C18.6242 29.7045 18.6202 29.6205 18.6202 29.5405C18.6202 29.4605 18.6202 29.3765 18.6202 29.2885C18.6202 29.1605 18.6202 29.0365 18.6202 28.9165C18.6282 28.7965 18.6362 28.6725 18.6442 28.5445H17.3242V26.7445Z" fill="white"/>
<path d="M44.8661 35.5645V38.0005H35.0981V35.5645H38.5541V26.0365C38.5541 25.8285 38.5581 25.6165 38.5661 25.4005C38.5741 25.1845 38.5861 24.9645 38.6021 24.7405L36.3221 26.6365C36.1621 26.7565 36.0061 26.8325 35.8541 26.8645C35.7021 26.8965 35.5581 26.9005 35.4221 26.8765C35.2861 26.8445 35.1661 26.7965 35.0621 26.7325C34.9581 26.6605 34.8781 26.5885 34.8221 26.5165L33.7781 25.1125L39.1301 20.5765H41.8541V35.5645H44.8661Z" fill="white"/>
<path d="M61.104 29.2885C61.104 30.8085 60.94 32.1285 60.612 33.2485C60.284 34.3685 59.832 35.2965 59.256 36.0325C58.68 36.7605 57.996 37.3045 57.204 37.6645C56.42 38.0165 55.572 38.1925 54.66 38.1925C53.748 38.1925 52.9 38.0165 52.116 37.6645C51.332 37.3045 50.656 36.7605 50.088 36.0325C49.52 35.2965 49.072 34.3685 48.744 33.2485C48.424 32.1285 48.264 30.8085 48.264 29.2885C48.264 27.7685 48.424 26.4525 48.744 25.3405C49.072 24.2205 49.52 23.2965 50.088 22.5685C50.656 21.8325 51.332 21.2885 52.116 20.9365C52.9 20.5765 53.748 20.3965 54.66 20.3965C55.572 20.3965 56.42 20.5765 57.204 20.9365C57.996 21.2885 58.68 21.8325 59.256 22.5685C59.832 23.2965 60.284 24.2205 60.612 25.3405C60.94 26.4525 61.104 27.7685 61.104 29.2885ZM57.684 29.2885C57.684 28.0565 57.596 27.0405 57.42 26.2405C57.252 25.4405 57.028 24.8085 56.748 24.3445C56.468 23.8805 56.144 23.5565 55.776 23.3725C55.416 23.1885 55.044 23.0965 54.66 23.0965C54.276 23.0965 53.904 23.1885 53.544 23.3725C53.192 23.5565 52.876 23.8805 52.596 24.3445C52.324 24.8085 52.104 25.4405 51.936 26.2405C51.768 27.0405 51.684 28.0565 51.684 29.2885C51.684 30.5285 51.768 31.5485 51.936 32.3485C52.104 33.1485 52.324 33.7805 52.596 34.2445C52.876 34.7085 53.192 35.0325 53.544 35.2165C53.904 35.4005 54.276 35.4925 54.66 35.4925C55.044 35.4925 55.416 35.4005 55.776 35.2165C56.144 35.0325 56.468 34.7085 56.748 34.2445C57.028 33.7805 57.252 33.1485 57.42 32.3485C57.596 31.5485 57.684 30.5285 57.684 29.2885Z" fill="white"/>
<path d="M34.1262 54.2125C34.1262 55.4152 33.9466 56.5078 33.5872 57.4905C33.2279 58.4658 32.7219 59.3018 32.0692 59.9985C31.4166 60.6878 30.6319 61.2232 29.7152 61.6045C28.8059 61.9785 27.8012 62.1655 26.7012 62.1655C25.6012 62.1655 24.5966 61.9785 23.6872 61.6045C22.7779 61.2232 21.9969 60.6878 21.3442 59.9985C20.6916 59.3018 20.1856 58.4658 19.8262 57.4905C19.4669 56.5078 19.2872 55.4152 19.2872 54.2125C19.2872 53.0172 19.4669 51.9318 19.8262 50.9565C20.1856 49.9738 20.6916 49.1378 21.3442 48.4485C21.9969 47.7518 22.7779 47.2128 23.6872 46.8315C24.5966 46.4502 25.6012 46.2595 26.7012 46.2595C27.8012 46.2595 28.8059 46.4502 29.7152 46.8315C30.6319 47.2055 31.4166 47.7408 32.0692 48.4375C32.7219 49.1342 33.2279 49.9738 33.5872 50.9565C33.9466 51.9318 34.1262 53.0172 34.1262 54.2125ZM32.9602 54.2125C32.9602 53.1272 32.8099 52.1518 32.5092 51.2865C32.2086 50.4212 31.7832 49.6878 31.2332 49.0865C30.6832 48.4852 30.0232 48.0268 29.2532 47.7115C28.4832 47.3888 27.6326 47.2275 26.7012 47.2275C25.7772 47.2275 24.9302 47.3888 24.1602 47.7115C23.3902 48.0268 22.7266 48.4852 22.1692 49.0865C21.6192 49.6878 21.1902 50.4212 20.8822 51.2865C20.5816 52.1518 20.4312 53.1272 20.4312 54.2125C20.4312 55.3052 20.5816 56.2842 20.8822 57.1495C21.1902 58.0075 21.6192 58.7372 22.1692 59.3385C22.7266 59.9398 23.3902 60.3982 24.1602 60.7135C24.9302 61.0288 25.7772 61.1865 26.7012 61.1865C27.6326 61.1865 28.4832 61.0288 29.2532 60.7135C30.0232 60.3982 30.6832 59.9398 31.2332 59.3385C31.7832 58.7372 32.2086 58.0075 32.5092 57.1495C32.8099 56.2842 32.9602 55.3052 32.9602 54.2125Z" fill="white"/>
<path d="M38.8346 47.3705V53.9155H45.9296V54.8505H38.8346V62.0005H37.7016V46.4355H47.0296V47.3705H38.8346Z" fill="white"/>
<path d="M51.2525 47.3705V53.9155H58.3475V54.8505H51.2525V62.0005H50.1195V46.4355H59.4475V47.3705H51.2525Z" fill="white"/>
</svg>
