<svg width="140" height="20" viewBox="0 0 140 20" fill="none" xmlns="http://www.w3.org/2000/svg">
<path d="M10.247 15.3537C10.0953 15.2688 9.91029 15.2688 9.75856 15.3537L5.07079 17.9777C4.69849 18.1861 4.25301 17.8624 4.33616 17.444L5.38313 12.1748C5.41702 12.0042 5.35986 11.8283 5.23219 11.7102L1.28805 8.06281C0.974795 7.77312 1.14495 7.24943 1.56865 7.19919L6.90346 6.56666C7.07614 6.54619 7.22578 6.43747 7.29861 6.27956L9.54875 1.40133C9.72745 1.01389 10.2781 1.01389 10.4568 1.40133L12.7069 6.27956C12.7797 6.43747 12.9294 6.54619 13.102 6.56666L18.4368 7.19919C18.8605 7.24943 19.0307 7.77312 18.7174 8.06281L14.7733 11.7102C14.6457 11.8283 14.5885 12.0042 14.6224 12.1748L15.6694 17.444C15.7525 17.8624 15.307 18.1861 14.9347 17.9777L10.247 15.3537Z" fill="#FDB601"/>
<path d="M40.247 15.3537C40.0953 15.2688 39.9103 15.2688 39.7586 15.3537L35.0708 17.9777C34.6985 18.1861 34.253 17.8624 34.3362 17.444L35.3831 12.1748C35.417 12.0042 35.3599 11.8283 35.2322 11.7102L31.288 8.06281C30.9748 7.77312 31.145 7.24943 31.5686 7.19919L36.9035 6.56666C37.0761 6.54619 37.2258 6.43747 37.2986 6.27956L39.5487 1.40133C39.7275 1.01389 40.2781 1.01389 40.4568 1.40133L42.7069 6.27956C42.7797 6.43747 42.9294 6.54619 43.102 6.56666L48.4368 7.19919C48.8605 7.24943 49.0307 7.77312 48.7174 8.06281L44.7733 11.7102C44.6457 11.8283 44.5885 12.0042 44.6224 12.1748L45.6694 17.444C45.7525 17.8624 45.307 18.1861 44.9347 17.9777L40.247 15.3537Z" fill="#FDB601"/>
<path d="M70.247 15.3537C70.0953 15.2688 69.9103 15.2688 69.7586 15.3537L65.0708 17.9777C64.6985 18.1861 64.253 17.8624 64.3362 17.444L65.3831 12.1748C65.417 12.0042 65.3599 11.8283 65.2322 11.7102L61.288 8.06281C60.9748 7.77312 61.145 7.24943 61.5686 7.19919L66.9035 6.56666C67.0761 6.54619 67.2258 6.43747 67.2986 6.27956L69.5487 1.40133C69.7275 1.01389 70.2781 1.01389 70.4568 1.40133L72.7069 6.27956C72.7797 6.43747 72.9294 6.54619 73.102 6.56666L78.4368 7.19919C78.8605 7.24943 79.0307 7.77312 78.7174 8.06281L74.7733 11.7102C74.6457 11.8283 74.5885 12.0042 74.6224 12.1748L75.6694 17.444C75.7525 17.8624 75.307 18.1861 74.9347 17.9777L70.247 15.3537Z" fill="#FDB601"/>
<path d="M100.247 15.3537C100.095 15.2688 99.9103 15.2688 99.7586 15.3537L95.0708 17.9777C94.6985 18.1861 94.253 17.8624 94.3362 17.444L95.3831 12.1748C95.417 12.0042 95.3599 11.8283 95.2322 11.7102L91.288 8.06281C90.9748 7.77312 91.145 7.24943 91.5686 7.19919L96.9035 6.56666C97.0761 6.54619 97.2258 6.43747 97.2986 6.27956L99.5487 1.40133C99.7275 1.01389 100.278 1.01389 100.457 1.40133L102.707 6.27956C102.78 6.43747 102.929 6.54619 103.102 6.56666L108.437 7.19919C108.861 7.24943 109.031 7.77312 108.717 8.06281L104.773 11.7102C104.646 11.8283 104.589 12.0042 104.622 12.1748L105.669 17.444C105.753 17.8624 105.307 18.1861 104.935 17.9777L100.247 15.3537Z" fill="#FDB601"/>
<path d="M130.247 15.3537C130.095 15.2688 129.91 15.2688 129.759 15.3537L125.071 17.9777C124.698 18.1861 124.253 17.8624 124.336 17.444L125.383 12.1748C125.417 12.0042 125.36 11.8283 125.232 11.7102L121.288 8.06281C120.975 7.77312 121.145 7.24943 121.569 7.19919L126.903 6.56666C127.076 6.54619 127.226 6.43747 127.299 6.27956L129.549 1.40133C129.727 1.01389 130.278 1.01389 130.457 1.40133L132.707 6.27956C132.78 6.43747 132.929 6.54619 133.102 6.56666L138.437 7.19919C138.861 7.24943 139.031 7.77312 138.717 8.06281L134.773 11.7102C134.646 11.8283 134.589 12.0042 134.622 12.1748L135.669 17.444C135.753 17.8624 135.307 18.1861 134.935 17.9777L130.247 15.3537Z" fill="#FDB601"/>
</svg>
