<svg width="72" height="72" viewBox="0 0 72 72" fill="none" xmlns="http://www.w3.org/2000/svg">
<path d="M11.0602 50.0353C10.9944 50.0353 10.9272 50.031 10.8587 50.0212C7.66006 49.5548 4.59164 48.5416 1.74159 47.0083C1.05988 46.6409 0.80091 45.7845 1.16487 45.0949C1.53022 44.4081 2.37431 44.1466 3.06023 44.5126C5.62191 45.8933 8.38097 46.8034 11.2576 47.2217C12.0233 47.3333 12.5538 48.0498 12.4447 48.8228C12.3439 49.528 11.7447 50.0353 11.0602 50.0353Z" fill="#F0500B"/>
<path d="M60.9398 50.0339C60.2552 50.0339 59.6561 49.5265 59.5553 48.8228C59.4461 48.0498 59.9767 47.3333 60.7424 47.2217C63.6204 46.8034 66.3781 45.8933 68.9398 44.5126C69.6271 44.1466 70.4698 44.4081 70.8351 45.0949C71.1991 45.7831 70.9401 46.6409 70.2584 47.0083C67.4084 48.5416 64.3399 49.5548 61.1413 50.0212C61.0728 50.0296 61.0056 50.0339 60.9398 50.0339Z" fill="#F0500B"/>
<path d="M46.2946 37.3563C46.0315 37.3563 45.7669 37.2814 45.5317 37.1274C44.8836 36.7006 44.7002 35.8259 45.123 35.1716C47.1065 32.1008 50.4577 30.2665 54.0889 30.2665C54.863 30.2665 55.4887 30.8982 55.4887 31.6797C55.4887 32.4612 54.863 33.0928 54.0889 33.0928C51.4068 33.0928 48.9319 34.4466 47.4691 36.7148C47.2017 37.1302 46.7538 37.3563 46.2946 37.3563Z" fill="#F0500B"/>
<path d="M57.191 33.0714C52.2286 33.0714 48.0375 28.8404 48.0375 23.8322C48.0375 18.824 52.2286 14.5929 57.191 14.5929C62.152 14.5929 66.343 18.824 66.343 23.8322C66.343 28.8404 62.152 33.0714 57.191 33.0714ZM57.191 17.4193C53.7474 17.4193 50.8372 20.3558 50.8372 23.8322C50.8372 27.3086 53.7474 30.2451 57.191 30.2451C60.6346 30.2451 63.5434 27.3086 63.5434 23.8322C63.5434 20.3558 60.6346 17.4193 57.191 17.4193Z" fill="#F0500B"/>
<path d="M69.594 42.4847C68.8199 42.4847 68.1941 41.853 68.1941 41.0715C68.1941 36.6724 64.6484 33.0928 60.2907 33.0928C59.5166 33.0928 58.8909 32.4612 58.8909 31.6797C58.8909 30.8982 59.5166 30.2665 60.2907 30.2665C66.1924 30.2665 70.9938 35.1151 70.9938 41.0715C70.9938 41.8516 70.3681 42.4847 69.594 42.4847Z" fill="#F0500B"/>
<path d="M60.2907 33.0928H54.0873C53.3132 33.0928 52.6874 32.4612 52.6874 31.6797C52.6874 30.8982 53.3132 30.2665 54.0873 30.2665H60.2907C61.0648 30.2665 61.6897 30.8982 61.6897 31.6797C61.6897 32.4612 61.0634 33.0928 60.2907 33.0928Z" fill="#F0500B"/>
<path d="M69.5906 47.1731C68.8165 47.1731 68.1908 46.5414 68.1908 45.7599V41.064C68.1908 40.2825 68.8165 39.6508 69.5906 39.6508C70.3647 39.6508 70.9904 40.2825 70.9904 41.064V45.7599C70.9904 46.5414 70.3647 47.1731 69.5906 47.1731Z" fill="#F0500B"/>
<path d="M19.4604 48.2203C18.6863 48.2203 18.0606 47.5886 18.0606 46.8071C18.0606 39.1224 24.2535 32.8719 31.8643 32.8719C32.6384 32.8719 33.2641 33.5036 33.2641 34.2851C33.2641 35.0666 32.6384 35.6983 31.8643 35.6983C25.7961 35.6983 20.8603 40.6811 20.8603 46.8071C20.8603 47.5886 20.2332 48.2203 19.4604 48.2203Z" fill="#F0500B"/>
<path d="M40.1289 35.6983H31.8588C31.0847 35.6983 30.4589 35.0666 30.4589 34.2851C30.4589 33.5036 31.0847 32.8719 31.8588 32.8719H40.1289C40.903 32.8719 41.5288 33.5036 41.5288 34.2851C41.5288 35.0666 40.903 35.6983 40.1289 35.6983Z" fill="#F0500B"/>
<path d="M25.6994 37.3563C25.2417 37.3563 24.7937 37.1302 24.525 36.7148C23.0608 34.4481 20.5873 33.0928 17.9052 33.0928C17.1311 33.0928 16.5054 32.4612 16.5054 31.6797C16.5054 30.8982 17.1311 30.2665 17.9052 30.2665C21.5377 30.2665 24.8875 32.1008 26.8711 35.1716C27.2938 35.8259 27.1104 36.7006 26.4623 37.1274C26.2258 37.2814 25.9612 37.3563 25.6994 37.3563Z" fill="#F0500B"/>
<path d="M19.4604 54.4726C18.6863 54.4726 18.0606 53.8409 18.0606 53.0594V46.7977C18.0606 46.0162 18.6863 45.3846 19.4604 45.3846C20.2346 45.3846 20.8603 46.0162 20.8603 46.7977V53.0594C20.8603 53.8409 20.2332 54.4726 19.4604 54.4726Z" fill="#F0500B"/>
<path d="M35.9995 35.6987C29.6373 35.6987 24.262 30.2722 24.262 23.8494C24.262 17.4265 29.6373 12 35.9995 12C42.3618 12 47.7371 17.4265 47.7371 23.8494C47.7371 30.2722 42.3618 35.6987 35.9995 35.6987ZM35.9995 14.8263C31.1548 14.8263 27.0617 18.9584 27.0617 23.8494C27.0617 28.7403 31.1548 32.8724 35.9995 32.8724C40.8443 32.8724 44.9374 28.7403 44.9374 23.8494C44.9374 18.9584 40.8443 14.8263 35.9995 14.8263Z" fill="#F0500B"/>
<path d="M52.5352 48.2203C51.7611 48.2203 51.1353 47.5886 51.1353 46.8071C51.1353 40.6811 46.1995 35.6983 40.1313 35.6983C39.3572 35.6983 38.7315 35.0666 38.7315 34.2851C38.7315 33.5036 39.3572 32.8719 40.1313 32.8719C47.7436 32.8719 53.935 39.1238 53.935 46.8071C53.935 47.5886 53.3093 48.2203 52.5352 48.2203Z" fill="#F0500B"/>
<path d="M52.5379 54.4726C51.7638 54.4726 51.1381 53.8409 51.1381 53.0594V46.7977C51.1381 46.0162 51.7638 45.3846 52.5379 45.3846C53.312 45.3846 53.9377 46.0162 53.9377 46.7977V53.0594C53.9377 53.8409 53.312 54.4726 52.5379 54.4726Z" fill="#F0500B"/>
<path d="M36.0005 58.6667C30.0932 58.6667 24.1873 57.2168 18.8022 54.3184C18.1205 53.9495 17.8615 53.0946 18.2255 52.4049C18.5908 51.7182 19.4335 51.4567 20.1209 51.8227C30.0652 57.1772 41.9385 57.1772 51.8815 51.8227C52.5674 51.4567 53.4129 51.7182 53.7769 52.4049C54.1408 53.0932 53.8818 53.9495 53.2001 54.3184C47.8136 57.2153 41.9077 58.6667 36.0005 58.6667Z" fill="#F0500B"/>
<path d="M14.802 33.0714C9.84101 33.0714 5.64993 28.8404 5.64993 23.8322C5.64993 18.824 9.84101 14.5929 14.802 14.5929C19.763 14.5929 23.954 18.824 23.954 23.8322C23.954 28.8404 19.763 33.0714 14.802 33.0714ZM14.802 17.4193C11.3584 17.4193 8.44958 20.3558 8.44958 23.8322C8.44958 27.3086 11.3584 30.2451 14.802 30.2451C18.2456 30.2451 21.1544 27.3086 21.1544 23.8322C21.1544 20.3558 18.2456 17.4193 14.802 17.4193Z" fill="#F0500B"/>
<path d="M2.39983 42.4847C1.62572 42.4847 1 41.853 1 41.0715C1 35.1137 5.8028 30.2665 11.7031 30.2665C12.4772 30.2665 13.1029 30.8982 13.1029 31.6797C13.1029 32.4612 12.4772 33.0928 11.7031 33.0928C7.34541 33.0914 3.79965 36.671 3.79965 41.0715C3.79965 41.8516 3.17393 42.4847 2.39983 42.4847Z" fill="#F0500B"/>
<path d="M17.9085 33.0928H11.7059C10.9318 33.0928 10.306 32.4612 10.306 31.6797C10.306 30.8982 10.9318 30.2665 11.7059 30.2665H17.9085C18.6826 30.2665 19.3083 30.8982 19.3083 31.6797C19.3083 32.4612 18.6826 33.0928 17.9085 33.0928Z" fill="#F0500B"/>
<path d="M2.39983 47.1731C1.62572 47.1731 1 46.5414 1 45.7599V41.064C1 40.2825 1.62572 39.6508 2.39983 39.6508C3.17393 39.6508 3.79965 40.2825 3.79965 41.064V45.7599C3.79965 46.5414 3.17393 47.1731 2.39983 47.1731Z" fill="#F0500B"/>
</svg>
