<svg width="48" height="24" viewBox="0 0 48 24" fill="none" xmlns="http://www.w3.org/2000/svg">
<rect x="0.5" y="0.5" width="47" height="23" rx="3.5" fill="#2557D6" stroke="#D9D9D9"/>
<path d="M0.750298 11.6295H2.98382L3.48743 10.6135H4.6149L5.11719 11.6295H9.51182V10.8528L9.90411 11.6329H12.1855L12.5778 10.8412V11.6295H23.4993L23.4942 9.96183H23.7055C23.8534 9.96615 23.8967 9.97756 23.8967 10.1819V11.6295H29.5453V11.2413C30.001 11.4455 30.7096 11.6295 31.642 11.6295H34.0184L34.527 10.6136H35.6545L36.1518 11.6295H40.7312V10.6645L41.4247 11.6295H45.0944V5.25H41.4626V6.0034L40.9542 5.25H37.2276V6.0034L36.7606 5.25H31.7269C30.8844 5.25 30.1438 5.34837 29.5454 5.62248V5.25H26.0718V5.62248C25.691 5.33993 25.1723 5.25 24.5954 5.25H11.9044L11.0529 6.89766L10.1785 5.25H6.18131V6.0034L5.74213 5.25H2.33317L0.75 8.28308V11.6294H0.750179L0.750298 11.6295ZM14.8491 10.7093H13.509L13.504 7.12699L11.6085 10.7093H10.4607L8.56027 7.12382V10.7093H5.90147L5.39918 9.68907H2.67732L2.16996 10.7093H0.750119L3.09102 6.1353H5.03332L7.25658 10.466V6.1353H9.39019L11.101 9.23821L12.6725 6.1353H14.849L14.8491 10.7093ZM4.95236 8.73977L4.05767 6.9163L3.16792 8.73977H4.95236ZM20.1822 10.7092H15.8153V6.13525H20.1822V7.08773H17.1225V7.91221H20.1089V8.8498H17.1225V9.76327H20.1821L20.1822 10.7092ZM26.3361 7.36716C26.3361 8.0964 25.7542 8.4732 25.4151 8.58631C25.7011 8.67733 25.9455 8.83824 26.0618 8.97149C26.2464 9.199 26.2782 9.40219 26.2782 9.81071V10.7092H24.9596L24.9547 10.1324C24.9547 9.85721 24.9861 9.4614 24.7484 9.24134C24.5574 9.08043 24.2662 9.04554 23.7955 9.04554H22.3923V10.7093H21.085V6.13525H24.0916C24.7597 6.13525 25.252 6.14999 25.6746 6.35433C26.0881 6.55866 26.3361 6.85694 26.3361 7.36716ZM24.6838 8.0463C24.504 8.13754 24.2917 8.14056 24.037 8.14056H22.449V7.1246H24.0586C24.2864 7.1246 24.5242 7.13314 24.6786 7.20708C24.8482 7.27374 24.9531 7.41553 24.9531 7.61144C24.9531 7.8114 24.8532 7.97225 24.6838 8.0463ZM28.4327 10.7092H27.0989V6.13525H28.4327V10.7092ZM43.9166 10.7092H42.0642L39.5864 7.27619V10.7092H36.9242L36.4155 9.68902H33.6999L33.2065 10.7092H31.6765C31.0413 10.7092 30.2366 10.5917 29.7811 10.2033C29.3217 9.81498 29.0827 9.28893 29.0827 8.45716C29.0827 7.7788 29.2256 7.15865 29.7873 6.66859C30.21 6.30355 30.8718 6.13525 31.7726 6.13525H33.0382V7.11533H31.7991C31.3221 7.11533 31.0526 7.17469 30.7932 7.38627C30.5704 7.57889 30.4175 7.94294 30.4175 8.42238C30.4175 8.91239 30.5339 9.26576 30.7768 9.49655C30.978 9.67756 31.3439 9.73245 31.6879 9.73245H32.275L34.1174 6.13541H36.0761L38.2894 10.4617V6.13546H40.2798L42.5777 9.32101V6.13546H43.9166V10.7092ZM35.9706 8.73982L35.066 6.91636L34.1663 8.73982H35.9706ZM47.2477 18.0131C46.9303 18.4014 46.3115 18.5983 45.4738 18.5983H42.9493V17.6172H45.4636C45.713 17.6172 45.8875 17.5898 45.9926 17.504C46.0919 17.4272 46.148 17.3189 46.1472 17.2056C46.1472 17.0723 46.0837 16.9665 45.9875 16.903C45.8926 16.8332 45.7546 16.8015 45.5268 16.8015C44.2995 16.7666 42.7682 16.8332 42.7682 15.3854C42.7682 14.7219 43.2718 14.0234 44.6436 14.0234H47.2475V13.1132H44.8281C44.0981 13.1132 43.5676 13.2595 43.1921 13.4867V13.1131H39.6137C39.0413 13.1131 38.3696 13.2318 38.052 13.4867V13.1131H31.6618V13.4867C31.1533 13.1799 30.2952 13.1131 29.8991 13.1131H25.6841V13.4867C25.2817 13.1609 24.3871 13.1131 23.8416 13.1131H19.1243L18.0449 14.0902L17.0338 13.1131H9.98685V19.4968H16.9008L18.0131 18.5042L19.061 19.4968L23.3228 19.5V17.9983H23.7416C24.3071 18.0056 24.9741 17.9864 25.5625 17.7738V19.4966H29.0778V17.8328H29.2473C29.4638 17.8328 29.4851 17.8403 29.4851 18.021V19.4964H40.1638C40.8417 19.4964 41.5504 19.3513 41.943 19.0879V19.4964H45.3301C46.035 19.4964 46.7233 19.4138 47.2471 19.2022L47.2472 18.0129L47.2477 18.0131ZM26.0739 15.5576C26.0739 16.8285 24.9402 17.0909 23.7976 17.0909H22.1665V18.6254H19.6257L18.016 17.1108L16.3432 18.6254H11.165V14.0503H16.4227L18.031 15.55L19.6939 14.0503H23.871C24.9083 14.0503 26.0739 14.2905 26.0739 15.5576ZM15.6809 17.6631H12.4669V16.7529H15.3368V15.8194H12.4669V14.9876H15.7442L17.1741 16.3209L15.6809 17.6631ZM20.8595 18.187L18.8525 16.3233L20.8595 14.519V18.187ZM23.8278 16.1527H22.1385V14.9876H23.8429C24.3149 14.9876 24.6425 15.1485 24.6425 15.5485C24.6425 15.9442 24.3301 16.1527 23.8278 16.1527ZM32.6781 14.0503H37.0411V14.9965H33.98V15.8282H36.9664V16.7617H33.98V17.672L37.0411 17.6761V18.6254H32.678L32.6781 14.0503ZM31.0007 16.4993C31.2917 16.5891 31.5295 16.75 31.641 16.8833C31.8257 17.1067 31.8523 17.3152 31.8576 17.7184V18.6254H30.5451V18.053C30.5451 17.7778 30.5768 17.3702 30.3338 17.1575C30.1429 16.9936 29.8516 16.9544 29.3748 16.9544H27.9777V18.6255H26.6641V14.0503H29.6823C30.344 14.0503 30.826 14.0748 31.2551 14.2662C31.6676 14.4747 31.9272 14.7603 31.9272 15.2822C31.9271 16.0124 31.3447 16.3851 31.0007 16.4993ZM30.2619 15.9209C30.087 16.0077 29.8708 16.0152 29.6165 16.0152H28.0284V14.9877H29.638C29.8708 14.9877 30.1037 14.9918 30.2619 15.0703C30.4313 15.1444 30.5326 15.2862 30.5326 15.4818C30.5326 15.6775 30.4312 15.8352 30.2619 15.9209ZM42.0627 16.2123C42.3175 16.4326 42.4537 16.7107 42.4537 17.1816C42.4537 18.1658 41.7187 18.6252 40.4001 18.6252H37.854V17.6441H40.39C40.638 17.6441 40.8138 17.6168 40.9239 17.5309C41.0138 17.4602 41.0783 17.3573 41.0783 17.2326C41.0783 17.0992 41.0085 16.9934 40.9187 16.93C40.8188 16.8602 40.681 16.8285 40.4533 16.8285C39.2308 16.7936 37.6998 16.8602 37.6998 15.4125C37.6998 14.7489 38.1982 14.0503 39.5688 14.0503H42.1895V15.0241H39.7915C39.5538 15.0241 39.3993 15.0317 39.2678 15.1068C39.1246 15.1808 39.0715 15.2908 39.0715 15.4358C39.0715 15.6084 39.1931 15.7259 39.3576 15.7767C39.4954 15.8168 39.6436 15.8285 39.8662 15.8285L40.5699 15.8444C41.2795 15.8588 41.7667 15.9615 42.0627 16.2123ZM47.25 14.9876H44.8675C44.6297 14.9876 44.4715 14.9951 44.3386 15.0702C44.2006 15.1443 44.1475 15.2542 44.1475 15.3994C44.1475 15.572 44.2639 15.6894 44.4334 15.7402C44.5713 15.7803 44.7194 15.792 44.9371 15.792L45.6456 15.8079C46.3605 15.8227 46.8377 15.9255 47.1287 16.1761C47.1818 16.211 47.2135 16.2502 47.2499 16.2894V14.9876H47.25Z" fill="white"/>
</svg>
