<svg width="48" height="24" viewBox="0 0 48 24" fill="none" xmlns="http://www.w3.org/2000/svg">
<path d="M2.99996 0H45C46.6561 0 48 0.934873 48 2.08787V21.9132C48 23.0651 46.6561 24 45 24H2.99996C1.34246 24.0001 0 23.0651 0 21.9133V2.08787C0 0.934873 1.34394 0 2.99996 0Z" fill="#26A6D1"/>
<path d="M7.74005 8.34766L3 15.6444H8.6745L9.37798 14.481H10.986L11.6894 15.6444H17.9355V14.7565L18.492 15.6444H21.723L22.2795 14.7377V15.6444H35.2696L36.8491 14.5113L38.3281 15.6444L45.0001 15.6538L40.2451 12.0164L45.0001 8.34766H38.4316L36.894 9.45991L35.4616 8.34766H21.3301L20.1166 10.231L18.8747 8.34766H13.212V9.2054L12.5821 8.34766H7.74005ZM8.83803 9.38381H11.604L14.7481 14.3318V9.38381H17.7782L20.2066 12.9315L22.4447 9.38381H25.4596V14.6197H23.6251L23.6101 10.5169L20.9356 14.6197H19.2945L16.605 10.5169V14.6197H12.831L12.1155 13.4459H8.25005L7.53605 14.6187H5.51398L8.83803 9.38381ZM27.138 9.38381H34.5975L36.8791 11.0981L39.2341 9.38381H41.5156L38.0491 12.0154L41.5156 14.6166H39.1306L36.8491 12.8824L34.482 14.6166H27.138V9.38381ZM10.1836 10.2697L8.91009 12.3608H11.4557L10.1836 10.2697ZM28.9801 10.4679V11.4237H33.0496V12.4891H28.9801V13.5325H33.5446L35.6656 11.9956L33.6346 10.467H28.9801V10.4679Z" fill="white"/>
</svg>
