<svg width="40" height="40" viewBox="0 0 40 40" fill="none" xmlns="http://www.w3.org/2000/svg">
<path d="M32.9298 5H24.0647C23.789 4.9998 23.5245 5.10869 23.3289 5.30289L5.60592 23.0216C5.21785 23.4115 5 23.9392 5 24.4892C5 25.0392 5.21785 25.5669 5.60592 25.9567L14.0454 34.3942C14.4354 34.7822 14.9632 35 15.5133 35C16.0635 35 16.5913 34.7822 16.9812 34.3942L34.697 16.6827C34.8913 16.4872 35.0002 16.2227 35 15.9471V7.07692C35.0013 6.80441 34.9487 6.53433 34.8452 6.28222C34.7418 6.0301 34.5894 5.80093 34.397 5.6079C34.2046 5.41487 33.9759 5.26179 33.7241 5.15746C33.4723 5.05313 33.2023 4.99962 32.9298 5Z" stroke="#0F0F10" stroke-width="2.5" stroke-linecap="round" stroke-linejoin="round"/>
<path d="M29 13.5C28.5055 13.5 28.0222 13.3534 27.6111 13.0787C27.2 12.804 26.8795 12.4135 26.6903 11.9567C26.5011 11.4999 26.4516 10.9972 26.548 10.5123C26.6445 10.0273 26.8826 9.58187 27.2322 9.23223C27.5819 8.8826 28.0273 8.6445 28.5123 8.54804C28.9972 8.45157 29.4999 8.50108 29.9567 8.6903C30.4135 8.87952 30.804 9.19995 31.0787 9.61108C31.3534 10.0222 31.5 10.5055 31.5 11C31.5 11.663 31.2366 12.2989 30.7678 12.7678C30.2989 13.2366 29.663 13.5 29 13.5Z" fill="#0F0F10"/>
</svg>
