<svg width="40" height="40" viewBox="0 0 40 40" fill="none" xmlns="http://www.w3.org/2000/svg">
<path d="M30.4895 11.4183L26.0003 5.01384C25.6675 4.54015 25.2253 4.15159 24.7102 3.88037C24.1951 3.60914 23.622 3.46305 23.0383 3.4542L14.5189 3.3335H14.5013C10.1029 3.3335 6.7282 4.06009 4.5547 7.60613C2.53116 10.9069 1.66797 16.5296 1.66797 26.4066V27.6137H4.46052L2.66286 36.6668H5.1539L6.95156 27.6137H7.77908C9.77525 27.6313 11.6983 26.8727 13.133 25.5019C14.43 24.2762 15.3656 22.5994 15.8386 20.6529L15.8429 20.6354L17.9393 10.7145H15.4421L13.4576 20.1062C12.8532 22.5717 11.0459 25.1995 7.77908 25.1995H4.117C4.18338 16.6544 4.97118 11.5882 6.64585 8.85599C8.05141 6.56253 10.1059 5.74842 14.4928 5.74729L23.0032 5.868C23.1977 5.87093 23.3888 5.91961 23.5605 6.01002C23.7322 6.10043 23.8796 6.22997 23.9905 6.38788L29.0687 13.6318L35.8902 14.7547V16.0342L34.7526 22.0259C34.4169 23.7944 33.843 24.6852 31.4894 24.9644L21.8411 26.5947L21.7773 36.6668H24.2217L24.2727 28.6327L31.8122 27.3577C33.5203 27.1503 34.7805 26.6067 35.6642 25.6962C36.4197 24.9178 36.8795 23.9233 37.1553 22.4709L38.3346 16.2585V12.7096L30.4895 11.4183Z" fill="#F0500B"/>
</svg>
