<svg width="40" height="40" viewBox="0 0 40 40" fill="none" xmlns="http://www.w3.org/2000/svg">
<path d="M15 8.33333C15 9.21739 15.3512 10.0652 15.9763 10.6904C16.6014 11.3155 17.4493 11.6667 18.3333 11.6667C19.2174 11.6667 20.0652 11.3155 20.6904 10.6904C21.3155 10.0652 21.6667 9.21739 21.6667 8.33333C21.6667 7.44928 21.3155 6.60143 20.6904 5.97631C20.0652 5.35119 19.2174 5 18.3333 5C17.4493 5 16.6014 5.35119 15.9763 5.97631C15.3512 6.60143 15 7.44928 15 8.33333Z" stroke="#0F0F10" stroke-width="2.5" stroke-linecap="round" stroke-linejoin="round"/>
<path d="M18.333 11.6667V25.0001H24.9997L31.6664 33.3334M18.333 18.3334H26.6664M11.6664 19.1667C10.4722 19.6613 9.40941 20.4268 8.56206 21.4029C7.71471 22.3789 7.10602 23.5386 6.7841 24.7904C6.46217 26.0422 6.43585 27.3518 6.7072 28.6155C6.97855 29.8792 7.54014 31.0625 8.34758 32.0718C9.15501 33.0811 10.1862 33.8887 11.3595 34.4308C12.5328 34.973 13.8162 35.2347 15.1081 35.1955C16.4 35.1562 17.6651 34.8169 18.8034 34.2045C19.9416 33.592 20.9217 32.7232 21.6664 31.6667" stroke="#0F0F10" stroke-width="2.5" stroke-linecap="round" stroke-linejoin="round"/>
</svg>
