<svg width="80" height="80" viewBox="0 0 80 80" fill="none" xmlns="http://www.w3.org/2000/svg">
<g clip-path="url(#clip0_3400_49871)">
<path fill-rule="evenodd" clip-rule="evenodd" d="M33.0404 79.6251C33.2748 79.8594 33.6028 80 33.9309 80C34.2589 80 34.587 79.8594 34.8213 79.6251L79.5786 34.8678C79.8381 34.6331 80.0005 34.2936 80.0005 33.9309L80.0005 2C80.0005 1.34388 78.5477 0 77.8447 0H46.0691C45.9998 0 45.9336 0.00481253 45.8704 0.0141408C45.5098 0.065966 45.1898 0.25811 44.9983 0.555255L0.374925 45.1787C-0.1406 45.6473 -0.1406 46.4441 0.374925 46.9596L33.0404 79.6251ZM65.1442 14.8563C66.1284 15.8405 67.3938 16.356 68.7998 16.356C70.2057 16.356 71.4711 15.8405 72.4553 14.8563C74.4705 12.8411 74.4705 9.56049 72.4553 7.49839C71.4711 6.51421 70.2057 5.99869 68.7998 5.99869C67.3938 5.99869 66.1284 6.51421 65.1442 7.49839C63.0821 9.56049 63.0821 12.8411 65.1442 14.8563Z" fill="#EC2B01"/>
<path d="M28.6427 44.7951C28.9272 44.5139 29.1324 44.2435 29.2583 43.984C29.3843 43.7245 29.4479 43.4817 29.4492 43.2554C29.4543 43.0254 29.4065 42.8101 29.3058 42.6097C29.209 42.4055 29.0762 42.218 28.9074 42.0473C28.7312 41.8691 28.5453 41.7379 28.3497 41.6538C28.1503 41.5659 27.9412 41.5327 27.7223 41.554C27.4997 41.5716 27.2654 41.6494 27.0195 41.7876C26.7774 41.9219 26.5217 42.1222 26.2524 42.3885L24.7106 43.9126L27.0952 46.3249L28.6427 44.7951ZM21.3135 40.4763L23.6645 42.8544L24.882 41.6508C25.4054 41.1334 25.7061 40.6486 25.7841 40.1965C25.866 39.7407 25.7025 39.306 25.2938 38.8926C24.8701 38.464 24.4469 38.2787 24.0242 38.3366C23.6015 38.3945 23.1322 38.6784 22.6164 39.1883L21.3135 40.4763ZM21.4466 38.0049C21.9851 37.4725 22.4966 37.0682 22.9809 36.7919C23.4652 36.5156 23.9225 36.3523 24.3527 36.302C24.7867 36.2479 25.1937 36.2993 25.5737 36.4561C25.9537 36.6129 26.3106 36.8601 26.6443 37.1976C26.8355 37.3911 26.9908 37.605 27.1101 37.8395C27.2257 38.0703 27.2997 38.3234 27.332 38.5989C27.3644 38.8668 27.3496 39.1552 27.2874 39.4641C27.2291 39.7692 27.116 40.091 26.9481 40.4295C28.3296 39.5663 29.4984 39.6183 30.4545 40.5854C30.7995 40.9344 31.0518 41.3224 31.2115 41.7495C31.3712 42.1765 31.4309 42.6238 31.3905 43.0912C31.3463 43.5548 31.1984 44.031 30.9467 44.5198C30.695 45.0087 30.3302 45.4893 29.8523 45.9617L26.7459 49.0325L18.6133 40.8058L21.4466 38.0049Z" fill="white"/>
<path d="M28.8424 33.101L31.0977 35.3824L33.9765 32.5366L35.1407 33.7143L32.2619 36.5601L34.5622 38.8871L38.2148 35.2763L39.424 36.4995L34.2353 41.6288L26.1027 33.4021L31.2914 28.2728L32.495 29.4903L28.8424 33.101Z" fill="white"/>
<path d="M38.5076 24.0977C38.5408 24.2223 38.5496 24.3298 38.534 24.4203C38.5185 24.5031 38.4728 24.5821 38.3969 24.6571C38.3172 24.7358 38.2019 24.7936 38.0508 24.8304C37.8998 24.8597 37.7242 24.9021 37.524 24.9575C37.3238 25.0129 37.1083 25.0984 36.8776 25.214C36.647 25.3221 36.414 25.4923 36.1789 25.7248C35.9665 25.9348 35.8069 26.145 35.7001 26.3556C35.5895 26.5624 35.5242 26.7657 35.5042 26.9654C35.488 27.1614 35.5171 27.3502 35.5915 27.5316C35.6621 27.7093 35.7724 27.874 35.9224 28.0257C36.1136 28.2191 36.3261 28.3278 36.5598 28.3518C36.7972 28.372 37.0501 28.3395 37.3183 28.2543C37.5866 28.1691 37.8701 28.0501 38.1689 27.8972C38.4678 27.7443 38.7779 27.5914 39.0993 27.4387C39.417 27.2821 39.744 27.1463 40.0803 27.0314C40.4129 26.9126 40.7508 26.8485 41.094 26.8392C41.4335 26.8261 41.7745 26.8865 42.1169 27.0205C42.4631 27.1507 42.8049 27.3865 43.1424 27.7278C43.5098 28.0995 43.7903 28.5122 43.9838 28.9659C44.1773 29.412 44.2708 29.8783 44.2643 30.3648C44.2577 30.8437 44.1475 31.3277 43.9334 31.8167C43.7157 32.3019 43.3792 32.7695 42.9241 33.2195C42.6624 33.4782 42.3782 33.7066 42.0716 33.9047C41.7687 34.1066 41.4529 34.2764 41.124 34.414C40.7989 34.5479 40.4683 34.6497 40.1322 34.7195C39.7962 34.7892 39.4679 34.8212 39.1474 34.8156L38.8713 33.6374C38.8568 33.5468 38.8629 33.4544 38.8899 33.3603C38.9131 33.2624 38.9588 33.1797 39.0271 33.1122C39.1219 33.0184 39.2637 32.957 39.4524 32.9279C39.6374 32.8951 39.8526 32.8511 40.0981 32.7959C40.3435 32.7407 40.6061 32.6536 40.8859 32.5346C41.1657 32.4079 41.4478 32.204 41.7323 31.9228C42.1685 31.4916 42.4048 31.0555 42.4413 30.6145C42.474 30.1697 42.2991 29.7538 41.9167 29.3669C41.703 29.1507 41.4736 29.0287 41.2287 29.0009C40.9875 28.9694 40.7328 28.9962 40.4645 29.0814C40.1925 29.1628 39.9109 29.2837 39.6195 29.4442C39.3282 29.6047 39.0275 29.7633 38.7173 29.9199C38.4072 30.0765 38.0858 30.2142 37.7533 30.3329C37.4207 30.4517 37.081 30.5139 36.734 30.5194C36.387 30.525 36.0329 30.455 35.6717 30.3097C35.3105 30.1567 34.9443 29.8925 34.5731 29.517C34.2769 29.2174 34.047 28.8672 33.8834 28.4665C33.7235 28.0621 33.6487 27.6374 33.6588 27.1924C33.6689 26.7474 33.7752 26.2936 33.9777 25.8309C34.1803 25.3682 34.4977 24.9231 34.9301 24.4957C35.4156 24.0158 35.9382 23.6492 36.4978 23.396C37.0574 23.1427 37.6163 23.0102 38.1745 22.9983L38.5076 24.0977Z" fill="white"/>
<path d="M45.8817 16.3355L43.4012 18.7876L50.2908 25.757L48.7604 27.2699L41.8708 20.3005L39.3902 22.7527L38.1473 21.4953L44.6388 15.0781L45.8817 16.3355Z" fill="white"/>
<path d="M31.9747 57.2725C32.0079 57.3972 32.0168 57.5047 32.0011 57.5951C31.9856 57.678 31.9399 57.757 31.864 57.8319C31.7844 57.9107 31.669 57.9685 31.5179 58.0053C31.3669 58.0346 31.1913 58.077 30.9911 58.1324C30.7909 58.1878 30.5755 58.2733 30.3448 58.3889C30.1141 58.4969 29.8812 58.6672 29.646 58.8997C29.4336 59.1096 29.274 59.3199 29.1672 59.5305C29.0566 59.7373 28.9914 59.9405 28.9713 60.1403C28.9551 60.3363 28.9842 60.5251 29.0586 60.7065C29.1292 60.8842 29.2395 61.0489 29.3895 61.2006C29.5807 61.394 29.7932 61.5027 30.0269 61.5267C30.2644 61.5469 30.5172 61.5144 30.7855 61.4292C31.0537 61.344 31.3373 61.225 31.6361 61.0721C31.9349 60.9192 32.245 60.7663 32.5664 60.6136C32.8841 60.457 33.2111 60.3212 33.5474 60.2062C33.88 60.0875 34.2179 60.0234 34.5611 60.0141C34.9006 60.0009 35.2416 60.0614 35.584 60.1953C35.9302 60.3255 36.272 60.5613 36.6095 60.9027C36.9769 61.2744 37.2574 61.6871 37.4509 62.1408C37.6445 62.5869 37.7379 63.0532 37.7314 63.5396C37.7248 64.0186 37.6146 64.5025 37.4006 64.9916C37.1828 65.4768 36.8464 65.9444 36.3912 66.3943C36.1295 66.653 35.8453 66.8815 35.5387 67.0796C35.2359 67.2815 34.92 67.4513 34.5911 67.5889C34.266 67.7228 33.9354 67.8246 33.5994 67.8943C33.2633 67.9641 32.935 67.9961 32.6145 67.9905L32.3384 66.8123C32.3239 66.7217 32.3301 66.6293 32.357 66.5352C32.3802 66.4373 32.4259 66.3545 32.4942 66.2871C32.589 66.1933 32.7308 66.1319 32.9195 66.1028C33.1045 66.0699 33.3197 66.0259 33.5652 65.9708C33.8106 65.9156 34.0732 65.8285 34.353 65.7094C34.6328 65.5828 34.9149 65.3789 35.1994 65.0977C35.6356 64.6665 35.8719 64.2304 35.9084 63.7894C35.9411 63.3445 35.7663 62.9287 35.3838 62.5418C35.1701 62.3256 34.9408 62.2036 34.6958 62.1758C34.4546 62.1443 34.1999 62.1711 33.9316 62.2563C33.6596 62.3377 33.378 62.4586 33.0867 62.6191C32.7953 62.7796 32.4946 62.9381 32.1845 63.0948C31.8743 63.2514 31.553 63.3891 31.2204 63.5078C30.8878 63.6266 30.5481 63.6887 30.2011 63.6943C29.8541 63.6998 29.5 63.6299 29.1388 63.4845C28.7776 63.3316 28.4114 63.0674 28.0402 62.6919C27.744 62.3923 27.5141 62.0421 27.3505 61.6414C27.1906 61.2369 27.1158 60.8122 27.1259 60.3673C27.136 59.9223 27.2423 59.4685 27.4448 59.0058C27.6474 58.5431 27.9648 58.098 28.3972 57.6706C28.8827 57.1906 29.4053 56.8241 29.9649 56.5708C30.5245 56.3176 31.0834 56.1851 31.6416 56.1732L31.9747 57.2725Z" fill="white"/>
<path d="M35.0994 53.6324L37.3547 55.9138L40.2335 53.068L41.3977 54.2457L38.5189 57.0915L40.8192 59.4185L44.4717 55.8077L45.681 57.0309L40.4923 62.1602L32.3597 53.9335L37.5483 48.8042L38.7519 50.0217L35.0994 53.6324Z" fill="white"/>
<path d="M50.6075 49.6634L51.8561 50.9265L47.0372 55.6902L38.9046 47.4634L40.4351 45.9505L47.3191 52.9142L50.6075 49.6634Z" fill="white"/>
<path d="M56.5191 43.8195L57.7676 45.0826L52.9488 49.8463L44.8162 41.6195L46.3466 40.1066L53.2306 47.0703L56.5191 43.8195Z" fill="white"/>
<path d="M53.4674 35.4746L55.7227 37.756L58.6015 34.9102L59.7657 36.0878L56.8869 38.9337L59.1872 41.2606L62.8398 37.6499L64.049 38.8731L58.8603 44.0024L50.7277 35.7756L55.9164 30.6463L57.12 31.8638L53.4674 35.4746Z" fill="white"/>
<path d="M63.6283 30.762C63.9166 30.4771 64.1313 30.1936 64.2725 29.9116C64.4174 29.6258 64.4963 29.3528 64.5091 29.0927C64.522 28.825 64.4763 28.5701 64.3721 28.3282C64.2679 28.0862 64.1127 27.8609 63.9065 27.6523C63.494 27.2351 63.0388 27.0515 62.5407 27.1014C62.0463 27.1476 61.5166 27.45 60.9515 28.0087L59.9729 28.976L62.6725 31.7069L63.6283 30.762ZM71.8285 31.1826L70.446 32.5493C70.1843 32.808 69.8934 32.8931 69.5734 32.8045L65.2398 31.8801C65.0778 31.8452 64.9364 31.8463 64.8155 31.8833C64.6984 31.9166 64.564 32.0082 64.4123 32.1582L63.758 32.8049L66.9357 36.0194L65.4053 37.5323L57.2727 29.3056L59.7817 26.8253C60.3392 26.2741 60.8752 25.8605 61.3897 25.5844C61.9042 25.3007 62.3917 25.1376 62.852 25.095C63.3162 25.0486 63.7533 25.1115 64.1633 25.2835C64.5697 25.4518 64.9453 25.7104 65.2903 26.0594C65.564 26.3363 65.781 26.6392 65.9412 26.9682C66.1053 27.2935 66.209 27.6335 66.2522 27.9883C66.2992 28.3393 66.2839 28.7031 66.2063 29.0798C66.1325 29.4527 65.9946 29.8253 65.7926 30.1975C65.9474 30.1569 66.1059 30.1352 66.2681 30.1323C66.4265 30.1257 66.5924 30.1418 66.7656 30.1805L71.8285 31.1826Z" fill="white"/>
</g>
<defs>
<clipPath id="clip0_3400_49871">
<rect width="80" height="80" fill="white"/>
</clipPath>
</defs>
</svg>
