<svg width="18" height="18" viewBox="0 0 18 18" fill="none" xmlns="http://www.w3.org/2000/svg">
<g clip-path="url(#clip0_3630_44850)">
<path d="M11.442 17.3145C11.298 17.3146 11.1542 17.302 11.0123 17.277L3.4493 15.9428C2.78842 15.8194 2.20347 15.4389 1.82284 14.8848C1.4422 14.3306 1.29698 13.6481 1.41905 12.987L2.24405 8.29351C2.25796 8.21422 2.27751 8.13602 2.30255 8.05951C1.9552 7.80424 1.68505 7.45803 1.52189 7.05905C1.35872 6.66006 1.30886 6.22377 1.3778 5.79826L1.5743 4.69351C1.68489 4.14123 1.98654 3.64559 2.42628 3.29363C2.86602 2.94168 3.41571 2.75593 3.9788 2.76901C4.13342 2.76925 4.28774 2.7828 4.44005 2.80951L4.5743 2.83351C4.59508 2.38789 4.7168 1.95282 4.93026 1.56111C5.14372 1.1694 5.44335 0.831277 5.80655 0.572258C6.14595 0.316109 6.53862 0.139569 6.95549 0.0557029C7.37235 -0.0281633 7.80274 -0.0172082 8.2148 0.0877576C8.89047 0.2771 9.49885 0.653573 9.9698 1.17376C10.5011 0.898766 11.0885 0.749672 11.6865 0.738008C11.7863 0.738008 11.886 0.743258 11.9865 0.753008C12.4098 0.7965 12.8179 0.933943 13.1812 1.1553C13.5445 1.37667 13.8538 1.67636 14.0865 2.03251C14.3394 2.39934 14.5056 2.81876 14.5728 3.25917C14.6399 3.69958 14.6063 4.1495 14.4743 4.57501L14.5733 4.59301C15.2093 4.68687 15.7821 5.02891 16.1664 5.54424C16.5508 6.05957 16.7152 6.70619 16.6238 7.34251L16.4288 8.44801C16.3485 8.8718 16.1527 9.26514 15.8628 9.58453C15.5729 9.90392 15.2003 10.1369 14.7863 10.2578C14.784 10.3378 14.7757 10.4175 14.7615 10.4963L13.9365 15.1913C13.8384 15.7827 13.5341 16.3204 13.0776 16.709C12.621 17.0977 12.0416 17.3121 11.442 17.3145Z" fill="white"/>
<path d="M13.4088 10.2631L12.5838 14.9566C12.56 15.108 12.5066 15.2532 12.4267 15.384C12.3468 15.5147 12.2418 15.6284 12.1179 15.7185C11.994 15.8087 11.8535 15.8735 11.7045 15.9093C11.5555 15.9451 11.4009 15.9511 11.2495 15.9271L3.68425 14.5928C3.38144 14.5328 3.11477 14.3552 2.94269 14.0989C2.77061 13.8426 2.70716 13.5286 2.76625 13.2256L3.59125 8.53208C3.59858 8.49022 3.61411 8.45022 3.63695 8.41438C3.65979 8.37854 3.68949 8.34757 3.72434 8.32324C3.75919 8.29892 3.7985 8.28172 3.84001 8.27264C3.88153 8.26356 3.92443 8.26278 3.96625 8.27033L13.147 9.88883C13.1888 9.89616 13.2287 9.91167 13.2645 9.93446C13.3003 9.95725 13.3312 9.98688 13.3555 10.0216C13.3799 10.0564 13.3971 10.0956 13.4062 10.1371C13.4153 10.1785 13.4162 10.2213 13.4088 10.2631ZM15.2703 7.10858L15.0745 8.21333C15.0057 8.48349 14.8335 8.7158 14.595 8.86016C14.3565 9.00452 14.0708 9.04939 13.7995 8.98508L3.66625 7.20008C3.38837 7.16873 3.13405 7.02911 2.95841 6.8115C2.78278 6.59389 2.69999 6.31582 2.728 6.03758L2.9245 4.93133C2.99315 4.66106 3.16534 4.42864 3.40389 4.28424C3.64245 4.13985 3.92822 4.09507 4.1995 4.15958L6.50801 4.56683C6.26172 4.21647 6.08362 3.82286 5.98301 3.40658C5.90038 3.08917 5.91633 2.75412 6.02873 2.44599C6.14113 2.13786 6.34466 1.87124 6.61226 1.68158C6.78945 1.54421 6.99569 1.44915 7.21524 1.40366C7.43478 1.35816 7.66181 1.36344 7.879 1.41908C8.63761 1.71954 9.2647 2.27991 9.64826 3.00008C10.254 2.45394 11.0343 2.14104 11.8495 2.11733C12.0726 2.13958 12.2876 2.21241 12.4783 2.33029C12.6689 2.44817 12.8302 2.60799 12.9498 2.79758C13.1362 3.06767 13.2361 3.38811 13.2361 3.71633C13.2361 4.04455 13.1362 4.36499 12.9498 4.63508C12.7127 4.99146 12.4107 5.30007 12.0595 5.54483L14.3328 5.94608C14.6107 5.97724 14.865 6.11684 15.0406 6.33452C15.2161 6.5522 15.2987 6.83038 15.2703 7.10858ZM9.77426 5.14208L10.4103 5.25458C11.13 5.07792 11.7599 4.64317 12.1803 4.03283C12.2436 3.93444 12.2753 3.819 12.271 3.70206C12.2667 3.58512 12.2266 3.47231 12.1563 3.37883C12.1135 3.3055 12.0539 3.24336 11.9825 3.19747C11.911 3.15158 11.8297 3.12326 11.7453 3.11483C11.0736 3.20396 10.4506 3.51399 9.97451 3.99608L9.77426 5.14208ZM8.1745 4.86008L8.79701 4.96958L8.99951 3.82508C8.69951 3.27383 8.14076 2.51933 7.63901 2.39183L7.59476 2.38283C7.51845 2.3699 7.44026 2.37367 7.36555 2.39387C7.29084 2.41407 7.2214 2.45022 7.162 2.49983C7.06414 2.56356 6.98811 2.65571 6.94414 2.7639C6.90017 2.87209 6.89035 2.99115 6.91601 3.10508C7.1025 3.8263 7.55123 4.45207 8.1745 4.86008Z" fill="#0F0F10"/>
</g>
<defs>
<clipPath id="clip0_3630_44850">
<rect width="18" height="18" fill="white"/>
</clipPath>
</defs>
</svg>
