<svg width="24" height="24" viewBox="0 0 24 24" fill="none" xmlns="http://www.w3.org/2000/svg">
<path d="M12.0016 15.75C7.05156 15.75 7.05156 8.25 12.0016 8.25C16.8953 8.25 17.1068 15.75 12.0016 15.75ZM12.0016 9.75C9.00156 9.75 9.00156 14.25 12.0016 14.25C15.0016 14.25 15.0016 9.75 12.0016 9.75Z" fill="white"/>
<path d="M12.0008 18.75C8.28909 18.75 4.73485 16.7782 2.25085 13.3395C1.96846 12.95 1.81641 12.4811 1.81641 12C1.81641 11.5189 1.96846 11.05 2.25085 10.6605C4.73485 7.22175 8.28909 5.25 12.0008 5.25C15.7126 5.25 19.2668 7.22175 21.7508 10.6605C22.0332 11.05 22.1853 11.5189 22.1853 12C22.1853 12.4811 22.0332 12.95 21.7508 13.3395C19.2668 16.7782 15.7126 18.75 12.0008 18.75ZM3.4636 12.4605C5.6971 15.549 8.72859 17.25 12.0008 17.25C15.2731 17.25 18.3046 15.549 20.5381 12.4605C20.6353 12.3265 20.6876 12.1652 20.6876 11.9996C20.6876 11.8341 20.6353 11.6728 20.5381 11.5388C18.3046 8.451 15.2731 6.75 12.0008 6.75C8.72859 6.75 5.6971 8.451 3.4636 11.5395C3.36644 11.6735 3.31412 11.8348 3.31412 12.0004C3.31412 12.1659 3.36644 12.3265 3.4636 12.4605Z" fill="white"/>
</svg>
