<svg width="24" height="24" viewBox="0 0 24 24" fill="none" xmlns="http://www.w3.org/2000/svg">
<path d="M5.31915 17.8743C5.31915 17.8743 5.3948 17.8743 5.42317 17.8743L8.19385 17.619C8.58156 17.5812 8.9409 17.411 9.21513 17.1367L19.6738 6.67811C20.1655 6.18639 20.4397 5.5339 20.4397 4.8436C20.4397 4.15329 20.1655 3.50081 19.6738 3.00908L19.0024 2.33769C18.0189 1.35423 16.3073 1.35423 15.3239 2.33769L13.9905 3.67102L4.8747 12.7869C4.60047 13.0611 4.43026 13.4204 4.40189 13.8081L4.14657 16.5788C4.1182 16.9287 4.24113 17.2691 4.487 17.5244C4.71395 17.7514 5.00709 17.8743 5.31915 17.8743ZM17.1678 2.99017C17.4704 2.99017 17.773 3.10364 18 3.34005L18.6714 4.01145C18.8983 4.2384 19.0213 4.53154 19.0213 4.8436C19.0213 5.15565 18.8983 5.45825 18.6714 5.67575L17.8392 6.5079L15.5035 4.1722L16.3357 3.34005C16.5626 3.1131 16.8652 2.99017 17.1678 2.99017ZM5.81087 13.9405C5.81087 13.8838 5.83924 13.8365 5.87707 13.7987L14.4917 5.17457L16.8274 7.51026L8.21277 16.1249C8.21277 16.1249 8.1182 16.1911 8.07092 16.1911L5.58392 16.4181L5.81087 13.9311V13.9405ZM22.331 20.8909C22.331 21.2786 22.0095 21.6001 21.6217 21.6001H2.70922C2.32151 21.6001 2 21.2786 2 20.8909C2 20.5032 2.32151 20.1817 2.70922 20.1817H21.6217C22.0095 20.1817 22.331 20.5032 22.331 20.8909Z" fill="#6D6D6D"/>
</svg>
