<svg width="20" height="20" viewBox="0 0 20 20" fill="none" xmlns="http://www.w3.org/2000/svg">
<path d="M10.247 15.3537C10.0953 15.2688 9.91029 15.2688 9.75856 15.3537L5.07079 17.9777C4.69849 18.1861 4.25301 17.8624 4.33616 17.444L5.38313 12.1748C5.41702 12.0042 5.35986 11.8283 5.23219 11.7102L1.28805 8.06281C0.974795 7.77312 1.14495 7.24943 1.56865 7.19919L6.90346 6.56666C7.07614 6.54619 7.22578 6.43747 7.29861 6.27956L9.54875 1.40133C9.72745 1.01389 10.2781 1.01389 10.4568 1.40133L12.7069 6.27956C12.7797 6.43747 12.9294 6.54619 13.102 6.56666L18.4368 7.19919C18.8605 7.24943 19.0307 7.77312 18.7174 8.06281L14.7733 11.7102C14.6457 11.8283 14.5885 12.0042 14.6224 12.1748L15.6694 17.444C15.7525 17.8624 15.307 18.1861 14.9347 17.9777L10.247 15.3537Z" fill="#FDB601"/>
</svg>
