<svg width="61" height="60" viewBox="0 0 61 60" fill="none" xmlns="http://www.w3.org/2000/svg">
<g clip-path="url(#clip0_3141_18438)">
<mask id="mask0_3141_18438" style="mask-type:luminance" maskUnits="userSpaceOnUse" x="0" y="4" width="61" height="53">
<path d="M0.5 4.50001H60.5V56.25H0.5V4.50001Z" fill="white"/>
</mask>
<g mask="url(#mask0_3141_18438)">
<path d="M16.8694 10.7195C15.1697 10.7194 15.8923 10.6922 13.5006 10.8532C10.9734 11.0234 8.65482 12.0364 7.00728 13.6359C6.11267 14.5043 4.72283 14.8556 3.43986 14.5019L2.25802 14.1761C2.25802 14.1761 1.65439 25.0807 5.30255 26.4521H28.6292V20.8598C28.6292 15.2588 23.3634 10.7196 16.8694 10.7195Z" fill="#D77F4A"/>
<path d="M10.8626 38.6319V38.6288H7.29344C4.5782 38.6288 2.37695 40.5273 2.37695 42.8693V49.9199H28.6292V42.8693C28.6292 40.5273 26.428 38.6288 23.7127 38.6288H20.1436V38.6319H10.8626Z" fill="#3C87D0"/>
<path d="M10.8438 35.4344V38.6323C10.8438 40.8428 12.9214 42.6348 15.4843 42.6348C18.0471 42.6348 20.1248 40.8428 20.1248 38.6323V35.4344H10.8438Z" fill="#FFAF9E"/>
<path d="M10.8438 38.632C10.8438 38.8171 10.8596 38.9989 10.8877 39.1773C12.2956 39.7231 13.8593 40.0273 15.5068 40.0273C17.1354 40.0273 18.6827 39.7299 20.078 39.1956C20.1081 39.0114 20.1248 38.8234 20.1248 38.632V35.4341H10.8438V38.632Z" fill="#FFA78F"/>
<path d="M10.0361 30.4512H4.2991C2.20098 30.4512 0.5 28.9842 0.5 27.1744C0.5 25.3648 2.20098 23.8977 4.2991 23.8977H10.0361V30.4512Z" fill="#FFAF9E"/>
<path d="M20.9688 23.8977H26.7057C28.8039 23.8977 30.5049 25.3648 30.5049 27.1744C30.5049 28.9842 28.8039 30.4512 26.7057 30.4512H20.9688V23.8977Z" fill="#FFA78F"/>
<path d="M4.33594 25.3688V28.9796C4.33594 34.2407 9.33762 38.5059 15.5077 38.5059C21.6776 38.5059 26.6794 34.2407 26.6794 28.9796V25.3688C26.6794 20.1075 21.6776 15.8425 15.5077 15.8425C9.33762 15.8425 4.33594 20.1075 4.33594 25.3688Z" fill="#FFCEBF"/>
<path d="M8.96598 32.1709H7.025C6.44375 32.1709 5.97266 31.7646 5.97266 31.2634C5.97266 30.762 6.44375 30.3556 7.025 30.3556H8.96598C9.54723 30.3556 10.0183 30.762 10.0183 31.2634C10.0183 31.7646 9.54723 32.1709 8.96598 32.1709Z" fill="#FE8F83"/>
<path d="M15.8858 15.8501C15.4599 15.8605 15.0396 15.8895 14.627 15.9395C20.0451 16.5967 24.2116 20.568 24.2116 25.3698V28.9804C24.2116 33.7822 20.0451 37.7534 14.627 38.4107C15.0396 38.4607 15.4599 38.4896 15.8858 38.5C21.8809 38.3303 26.6804 34.134 26.6804 28.9804V25.3698C26.6804 20.2161 21.881 16.0198 15.8858 15.8501Z" fill="#FFAF9E"/>
<path d="M17.3366 10.7294H15.3627C15.0416 10.7448 14.6006 10.7789 13.5011 10.853C11.0577 11.0175 8.8093 11.9702 7.17383 13.4788V17.7118C7.17383 21.1281 10.3848 23.8975 14.3457 23.8975H28.6297V20.8597C28.6297 15.3935 23.6144 10.9397 17.3366 10.7294Z" fill="#D77F4A"/>
<path d="M17.3365 10.7294H15.3626C15.0921 10.7423 14.735 10.7687 13.9727 10.8209C19.6846 11.5126 24.0801 15.7424 24.0801 20.8597V23.8975H28.6296V20.8597C28.6296 15.3935 23.6144 10.9397 17.3365 10.7294Z" fill="#C86D36"/>
<path d="M23.7123 38.6288H20.1432V38.6319H19.9746C22.6242 38.6967 24.7494 40.5683 24.7494 42.8693V49.9199H28.6289V42.8693C28.6289 40.5273 26.4277 38.6288 23.7123 38.6288Z" fill="#0078C8"/>
<path d="M23.9464 32.1709H22.0055C21.4242 32.1709 20.9531 31.7646 20.9531 31.2634C20.9531 30.762 21.4242 30.3556 22.0055 30.3556H23.9464C24.5277 30.3556 24.9988 30.762 24.9988 31.2634C24.9988 31.7646 24.5277 32.1709 23.9464 32.1709Z" fill="#FE8F83"/>
<path d="M15.4855 34.6553C13.6594 34.6553 12.1738 33.3739 12.1738 31.7989C12.1738 31.3544 12.5915 30.9941 13.1069 30.9941C13.6224 30.9941 14.04 31.3544 14.04 31.7989C14.04 32.4863 14.6886 33.0456 15.4855 33.0456C16.2825 33.0456 16.9309 32.4863 16.9309 31.7989C16.9309 31.3544 17.3486 30.9941 17.8641 30.9941C18.3795 30.9941 18.7973 31.3544 18.7973 31.7989C18.7973 33.3739 17.3117 34.6553 15.4855 34.6553Z" fill="#FFA799"/>
<path d="M20.9526 29.584C20.4372 29.584 20.0195 29.2238 20.0195 28.7791V27.0003C20.0195 26.5558 20.4372 26.1956 20.9526 26.1956C21.468 26.1956 21.8857 26.5558 21.8857 27.0003V28.7791C21.8857 29.2238 21.468 29.584 20.9526 29.584Z" fill="#5A5A5A"/>
<path d="M10.0191 29.584C9.50371 29.584 9.08594 29.2238 9.08594 28.7791V27.0003C9.08594 26.5558 9.50371 26.1956 10.0191 26.1956C10.5345 26.1956 10.9523 26.5558 10.9523 27.0003V28.7791C10.9523 29.2238 10.5345 29.584 10.0191 29.584Z" fill="#5A5A5A"/>
<path d="M36.8658 39.2321H36.3832C33.7629 39.2321 31.6387 41.0643 31.6387 43.3243V50.0303H55.8364V43.3243C55.8364 41.0643 53.7121 39.2321 51.0917 39.2321H36.8658Z" fill="#F07181"/>
<path d="M51.0911 39.2321H47.2051C49.8255 39.2321 51.9498 41.0643 51.9498 43.3243V50.0303H55.8358V43.3243C55.8358 41.0643 53.7116 39.2321 51.0911 39.2321Z" fill="#EB5569"/>
<path d="M43.7225 43.542C41.44 43.542 39.5898 41.9462 39.5898 39.9776V31.3998H47.8551V39.9776C47.8551 41.9462 46.0048 43.542 43.7225 43.542Z" fill="#FFAF9E"/>
<path d="M39.5898 39.4703C40.8482 39.9596 42.2457 40.2344 43.7192 40.2344C45.1953 40.2344 46.595 39.9585 47.8551 39.4678V31.4H39.5898V39.4703Z" fill="#FFA78F"/>
<path d="M58.4355 40.3252H60.5008V35.4205C60.5008 32.5559 57.8084 30.2336 54.4872 30.2336H52.4219V35.1386C52.4219 38.003 55.1143 40.3252 58.4355 40.3252Z" fill="#5A5A5A"/>
<path d="M54.4872 30.2335H52.4219V30.3828C55.0514 30.937 57.0033 32.9815 57.0033 35.4203V40.1759C57.4625 40.2726 57.9418 40.3252 58.4355 40.3252H60.5008V35.4203C60.5008 32.5558 57.8084 30.2335 54.4872 30.2335Z" fill="#444444"/>
<path d="M28.9774 40.3252H26.9121V35.4205C26.9121 32.5559 29.6045 30.2336 32.9257 30.2336H34.991V35.1386C34.991 38.003 32.2986 40.3252 28.9774 40.3252Z" fill="#5A5A5A"/>
<path d="M38.8519 31.3994H33.7298C31.8597 31.3994 30.3438 30.0918 30.3438 28.4789C30.3438 26.8659 31.8597 25.5584 33.7298 25.5584H38.8519V31.3994Z" fill="#FFAF9E"/>
<path d="M48.5586 25.5584H53.6806C55.5508 25.5584 57.0668 26.866 57.0668 28.479C57.0668 30.0919 55.5508 31.3994 53.6806 31.3994H48.5586V25.5584Z" fill="#FFA78F"/>
<path d="M43.7189 18.3922C38.2186 18.3922 33.7598 22.1905 33.7598 26.876V27.4494V30.0876C33.7598 34.773 38.2186 38.5713 43.7189 38.5713C49.2193 38.5713 53.6781 34.773 53.6781 30.0876V26.876C53.6781 22.1905 49.2193 18.3922 43.7189 18.3922Z" fill="#FFCEBF"/>
<path d="M43.7179 18.3922C43.1933 18.3922 42.6784 18.4273 42.1758 18.4938C46.9438 19.1252 50.5929 22.6373 50.5929 26.876V30.0876C50.5929 34.3262 46.9438 37.8384 42.1758 38.4698C42.6784 38.5363 43.1933 38.5713 43.7179 38.5713C49.2182 38.5713 53.677 34.773 53.677 30.0876V26.876C53.677 22.1905 49.2182 18.3922 43.7179 18.3922Z" fill="#FFAF9E"/>
<path d="M38.1384 33.2412H36.2427C35.675 33.2412 35.2148 32.8443 35.2148 32.3547C35.2148 31.8651 35.675 31.4682 36.2427 31.4682H38.1384C38.7061 31.4682 39.1663 31.8651 39.1663 32.3547C39.1663 32.8443 38.7061 33.2412 38.1384 33.2412Z" fill="#FE8F83"/>
<path d="M51.2322 33.2412H49.3364C48.7688 33.2412 48.3086 32.8443 48.3086 32.3547C48.3086 31.8651 48.7688 31.4682 49.3364 31.4682H51.2322C51.7998 31.4682 52.26 31.8651 52.26 32.3547C52.26 32.8443 51.7998 33.2412 51.2322 33.2412Z" fill="#FE8F83"/>
<path d="M44.7614 13.4397C44.1782 13.4397 43.7055 13.8473 43.7055 14.3502C43.7054 13.8473 43.2328 13.4397 42.6496 13.4397C36.357 13.4397 31.2559 17.8394 31.2559 23.2668V25.5596H37.9045C41.1083 25.5596 43.7054 23.3196 43.7055 20.5564C43.7056 23.3196 46.3027 25.5596 49.5065 25.5596H56.1552V23.2668C56.1552 17.8394 51.054 13.4397 44.7614 13.4397Z" fill="#5A5A5A"/>
<path d="M44.7631 13.4397C44.4605 13.4397 44.1885 13.55 43.9961 13.7258C48.9696 14.7811 52.6594 18.6514 52.6594 23.2668V25.5596H56.1568V23.2668C56.1568 17.8394 51.0557 13.4397 44.7631 13.4397Z" fill="#444444"/>
<path d="M43.7377 35.4219C42.0558 35.4219 40.6875 34.2416 40.6875 32.7911C40.6875 32.3052 41.1442 31.9114 41.7075 31.9114C42.2708 31.9114 42.7275 32.3052 42.7275 32.7911C42.7275 33.2715 43.1807 33.6624 43.7377 33.6624C44.2946 33.6624 44.7478 33.2715 44.7478 32.7911C44.7478 32.3052 45.2045 31.9114 45.7678 31.9114C46.3311 31.9114 46.7878 32.3052 46.7878 32.7911C46.7878 34.2416 45.4195 35.4219 43.7377 35.4219Z" fill="#FFA799"/>
<path d="M48.4028 31.1152C47.8395 31.1152 47.3828 30.7214 47.3828 30.2355V28.6716C47.3828 28.1857 47.8395 27.7918 48.4028 27.7918H49.1823C49.7457 27.7918 50.2023 28.1857 50.2023 28.6716C50.2023 29.086 49.8701 29.4334 49.4228 29.5267V30.2355C49.4228 30.7214 48.9661 31.1152 48.4028 31.1152Z" fill="#5A5A5A"/>
<path d="M39.071 31.1152C38.5077 31.1152 38.051 30.7214 38.051 30.2355V29.5267C37.6037 29.4334 37.2715 29.086 37.2715 28.6716C37.2715 28.1857 37.7282 27.7918 38.2915 27.7918H39.071C39.6343 27.7918 40.091 28.1857 40.091 28.6716V30.2355C40.091 30.7214 39.6343 31.1152 39.071 31.1152Z" fill="#5A5A5A"/>
</g>
</g>
<defs>
<clipPath id="clip0_3141_18438">
<rect width="60" height="60" fill="white" transform="translate(0.5)"/>
</clipPath>
</defs>
</svg>
