<svg width="24" height="24" viewBox="0 0 24 24" fill="none" xmlns="http://www.w3.org/2000/svg">
<g clip-path="url(#clip0_500_2976)">
<path d="M14.7845 7.00719V7.00713C14.7845 6.45642 14.6211 5.91809 14.3151 5.46022C14.0091 5.00235 13.5742 4.6455 13.0654 4.4348C12.5566 4.22411 11.9967 4.16902 11.4566 4.2765C10.9165 4.38399 10.4204 4.64922 10.031 5.03866C9.64167 5.42811 9.37651 5.92427 9.2691 6.46441C9.16169 7.00455 9.21686 7.56441 9.42762 8.0732C9.63838 8.58199 9.99527 9.01686 10.4532 9.32281C10.9111 9.62877 11.4494 9.79207 12.0001 9.79207H12.0001C12.7384 9.79117 13.4462 9.49746 13.9682 8.97538C14.4901 8.4533 14.7837 7.74548 14.7845 7.00719ZM9.9633 7.00715C9.96337 6.60431 10.0829 6.21054 10.3067 5.87562C10.5306 5.54071 10.8487 5.2797 11.2209 5.12559C11.5931 4.97148 12.0026 4.93119 12.3977 5.00983C12.7927 5.08846 13.1556 5.28248 13.4404 5.56735C13.7253 5.85223 13.9192 6.21517 13.9978 6.61027C14.0763 7.00537 14.036 7.4149 13.8818 7.78707C13.7276 8.15924 13.4666 8.47733 13.1316 8.70113C12.7967 8.92491 12.4029 9.04436 12.0001 9.04438C11.4601 9.04375 10.9423 8.8289 10.5604 8.44696C10.1786 8.06503 9.96384 7.54723 9.9633 7.00715Z" fill="#0F0F10" stroke="#0F0F10" stroke-width="0.1"/>
<path d="M8.8699 15.3812C8.85518 15.3575 8.84042 15.3335 8.82564 15.3091L8.82563 15.3091C6.90107 12.123 5.92849 9.32897 5.94241 7.00647C5.94272 5.39993 6.58116 3.85931 7.71731 2.72351C8.85348 1.58768 10.3943 0.949728 12.0008 0.95C13.6074 0.950272 15.148 1.58875 16.2838 2.72496C17.4195 3.86111 18.0574 5.40187 18.0572 7.00835C18.0712 9.32885 17.0986 12.1226 15.174 15.3091L15.1739 15.3093C15.1593 15.3331 15.1444 15.3572 15.1295 15.3812H20.0361C20.1118 15.3813 20.1858 15.4043 20.2481 15.4472C20.3105 15.4902 20.3583 15.551 20.3854 15.6218L20.3854 15.6218L23.0252 22.5428C23.0469 22.5994 23.0545 22.6604 23.0474 22.7206C23.0402 22.7809 23.0185 22.8384 22.9841 22.8884C22.9497 22.9383 22.9037 22.9791 22.85 23.0073C22.7963 23.0354 22.7365 23.0501 22.6759 23.05M8.8699 15.3812L1.32401 23M8.8699 15.3812H3.96354H3.96352C3.8878 15.3813 3.81388 15.4043 3.75152 15.4472C3.68916 15.4902 3.6413 15.551 3.61428 15.6218L3.61427 15.6218L0.974771 22.5428C0.953056 22.5994 0.945452 22.6604 0.952616 22.7206C0.95978 22.7809 0.981496 22.8384 1.01589 22.8884C1.05028 22.9383 1.09631 22.9791 1.15001 23.0073C1.20371 23.0354 1.26346 23.0501 1.32409 23.05M8.8699 15.3812L1.32401 23M22.6759 23.05L22.676 23V23.05H22.6759ZM22.6759 23.05H1.32409M1.32409 23.05L1.32401 23M1.32409 23.05H1.32401V23M15.0706 15.3812C15.0745 15.375 15.0783 15.3688 15.0822 15.3626C15.0985 15.3363 15.1148 15.31 15.1312 15.2832C17.0537 12.1003 18.0211 9.31591 18.0072 7.00865C18.0075 5.41532 17.3748 3.88715 16.2484 2.76031C15.122 1.63347 13.5941 1.00027 12.0008 1C10.4076 0.99973 8.87945 1.63242 7.75266 2.75887C6.62586 3.88533 5.99268 5.41329 5.99241 7.00661L15.0706 15.3812ZM6.69026 7.00747L6.69026 7.00717C6.69038 6.30986 6.82784 5.6194 7.09479 4.97522C7.36174 4.33103 7.75296 3.74574 8.2461 3.25275C8.73924 2.75976 9.32465 2.36874 9.9689 2.102C10.6132 1.83526 11.3036 1.69804 12.0009 1.69816C12.6982 1.69828 13.3886 1.83574 14.0328 2.1027C14.677 2.36966 15.2622 2.76089 15.7552 3.25405C16.2482 3.74721 16.6392 4.33264 16.9059 4.97691C17.1726 5.62119 17.3099 6.3117 17.3097 7.00901L17.3097 7.00932C17.3235 9.29595 16.2608 11.8549 15.0542 14.0166C13.8765 16.1266 12.5659 17.8511 12 18.563C11.4341 17.8514 10.1234 16.1274 8.9457 14.0173C7.73916 11.8556 6.67637 9.29605 6.69026 7.00747ZM11.7147 19.3967L11.7152 19.3974C11.7503 19.4386 11.794 19.4718 11.8431 19.4945C11.8923 19.5172 11.9458 19.529 12 19.529C12.0542 19.529 12.1077 19.5172 12.1569 19.4945C12.206 19.4718 12.2497 19.4386 12.2848 19.3974L12.2853 19.3967C13.1406 18.3548 13.9339 17.2635 14.6612 16.1286H19.7783L20.1623 17.1358L10.1242 20.706L6.60101 16.128H9.33848C10.0658 17.2632 10.8593 18.3546 11.7147 19.3967ZM7.86695 22.3023L10.1041 21.5061H10.106L10.1141 21.5032L16.1174 19.3687L18.3751 22.3023H7.86695ZM1.86661 22.3021L4.22133 16.128H5.65747L9.38324 20.9694L5.63625 22.3021H1.86661ZM22.1338 22.3023H19.3194L16.8581 19.1042L20.4296 17.834L22.1338 22.3023Z" fill="#0F0F10" stroke="#0F0F10" stroke-width="0.1"/>
</g>
<defs>
<clipPath id="clip0_500_2976">
<rect width="24" height="24" fill="white"/>
</clipPath>
</defs>
</svg>
