<svg width="112" height="44" viewBox="0 0 112 44" fill="none" xmlns="http://www.w3.org/2000/svg">
<path d="M85.0531 32.6529C85.2388 32.9274 85.4851 33.1556 85.7731 33.3195L103.586 43.4795C103.849 43.6295 104.154 43.6903 104.454 43.6526C104.755 43.6149 105.035 43.4809 105.253 43.2706C105.47 43.0604 105.614 42.7851 105.662 42.4863C105.711 42.1874 105.661 41.8809 105.52 41.6129L98.5331 28.5195L91.3331 28.9995L85.0531 32.6529Z" fill="#DB310C"/>
<path d="M84.6667 22.333V31.413C84.6681 31.8558 84.8026 32.2878 85.0531 32.6529L98.5331 28.5195L110 24.9997L84.6667 22.333Z" fill="#B62B0D"/>
<path d="M12.2981 0H109.341C110.046 0 110.722 0.263393 111.221 0.732234C111.72 1.20107 112 1.83696 112 2.5V22.5C112 23.163 111.72 23.7989 111.221 24.2678C110.722 24.7366 110.046 25 109.341 25H12.2981C11.5929 24.9999 10.9166 24.7364 10.418 24.2675L0.778564 14.2675C0.280047 13.7987 0 13.1629 0 12.5C0 11.8371 0.280047 11.2013 0.778564 10.7325L10.418 0.7325C10.9166 0.263627 11.5929 0.000141593 12.2981 0Z" fill="#EC2B01"/>
</svg>
