<svg width="24" height="24" viewBox="0 0 24 24" fill="none" xmlns="http://www.w3.org/2000/svg">
<path d="M5.31915 17.8742C5.31915 17.8742 5.3948 17.8742 5.42317 17.8742L8.19385 17.6189C8.58156 17.5811 8.9409 17.4109 9.21513 17.1367L19.6738 6.67802C20.1655 6.18629 20.4397 5.53381 20.4397 4.84351C20.4397 4.1532 20.1655 3.50072 19.6738 3.00899L19.0024 2.33759C18.0189 1.35414 16.3073 1.35414 15.3239 2.33759L13.9905 3.67093L4.8747 12.7868C4.60047 13.061 4.43026 13.4203 4.40189 13.808L4.14657 16.5787C4.1182 16.9286 4.24113 17.269 4.487 17.5244C4.71395 17.7513 5.00709 17.8742 5.31915 17.8742ZM17.1678 2.99008C17.4704 2.99008 17.773 3.10355 18 3.33996L18.6714 4.01135C18.8983 4.2383 19.0213 4.53145 19.0213 4.84351C19.0213 5.15556 18.8983 5.45816 18.6714 5.67566L17.8392 6.50781L15.5035 4.17211L16.3357 3.33996C16.5626 3.11301 16.8652 2.99008 17.1678 2.99008ZM5.81087 13.9404C5.81087 13.8837 5.83924 13.8364 5.87707 13.7986L14.4917 5.17447L16.8274 7.51017L8.21277 16.1248C8.21277 16.1248 8.1182 16.191 8.07092 16.191L5.58392 16.418L5.81087 13.931V13.9404ZM22.331 20.8908C22.331 21.2785 22.0095 21.6 21.6217 21.6H2.70922C2.32151 21.6 2 21.2785 2 20.8908C2 20.5031 2.32151 20.1816 2.70922 20.1816H21.6217C22.0095 20.1816 22.331 20.5031 22.331 20.8908Z" fill="#0F0F10"/>
</svg>
