<svg width="120" height="120" viewBox="0 0 120 120" fill="none" xmlns="http://www.w3.org/2000/svg">
<g clip-path="url(#clip0_3089_29799)">
<path d="M29.0287 16.791H24.7641C25.4055 12.0418 28.0315 11.8033 29.2399 11.6933C30.4472 11.5834 31.3713 10.5714 31.3713 9.35919V2.34552C31.3713 1.70122 31.106 1.08505 30.6377 0.642312C30.1695 0.199578 29.539 -0.0298751 28.8961 0.00551555C21.4875 0.422234 12.6562 4.16286 12.6562 19.6171V31.814C12.6562 33.85 14.3126 35.5063 16.3486 35.5063H29.029C31.065 35.5063 32.7213 33.8497 32.7211 31.8137V20.4833C32.7211 18.4473 31.0648 16.791 29.0287 16.791ZM28.0338 30.8186H17.3438V19.6171C17.3438 8.83348 22.1393 5.82177 26.6838 4.97169V7.43591C23.5453 8.39122 19.9331 11.2126 19.9331 19.1347C19.9331 20.4292 20.9824 21.4785 22.2769 21.4785H28.0338V30.8186Z" fill="#F0500B"/>
<path d="M52.9899 16.791H48.725C49.3665 12.0418 51.9924 11.8033 53.2009 11.6933C54.4081 11.5834 55.3323 10.5714 55.3323 9.35919V2.34552C55.3323 1.70122 55.067 1.08505 54.5987 0.642312C54.1304 0.199578 53.4995 -0.0298751 52.857 0.00551555C45.4484 0.422234 36.6172 4.16286 36.6172 19.6171V31.814C36.6172 33.85 38.2735 35.5063 40.3095 35.5063H52.9899C55.0259 35.5063 56.6825 33.8497 56.6823 31.8135V20.4833C56.6823 18.4473 55.0259 16.791 52.9899 16.791ZM51.9948 30.8188H41.3047V19.6171C41.3047 8.83348 46.1002 5.82177 50.6448 4.97169V7.43591C47.5063 8.39122 43.8941 11.2126 43.8941 19.1347C43.8941 20.4292 44.9434 21.4785 46.2378 21.4785H51.9948V30.8188Z" fill="#F0500B"/>
<path d="M78.3438 18.25H64.8905C63.596 18.25 62.5467 19.2993 62.5467 20.5938C62.5467 21.8882 63.596 22.9375 64.8905 22.9375H78.3438C98.7284 22.9375 115.312 39.5216 115.312 59.9062C115.312 77.3043 102.973 92.5199 85.9718 96.0855C84.8864 96.3133 84.1092 97.2705 84.1092 98.3793V111.997L69.6731 97.5613C69.2337 97.1219 68.6374 96.8748 68.0159 96.8748H41.6562C21.2716 96.8748 4.6875 80.2907 4.6875 59.9062C4.6875 53.6237 6.29133 47.4201 9.32578 41.9652C9.95531 40.8341 9.5482 39.407 8.41711 38.7777C7.28578 38.1482 5.85867 38.5553 5.22961 39.6864C1.8082 45.8362 0 52.828 0 59.9062C0 82.8756 18.6867 101.562 41.6562 101.562H67.0451L84.7957 119.313C85.2441 119.761 85.8434 119.999 86.4534 119.999C86.7553 119.999 87.06 119.941 87.3499 119.821C88.2255 119.458 88.7967 118.604 88.7967 117.656V100.237C97.2771 98.0392 104.945 93.1494 110.548 86.3282C116.643 78.9086 120 69.5251 120 59.9062C120 36.937 101.313 18.2502 78.3438 18.25Z" fill="#F0500B"/>
<path d="M88.8423 47.5996H31.1562C29.8618 47.5996 28.8125 48.6489 28.8125 49.9434C28.8125 51.2378 29.8618 52.2871 31.1562 52.2871H88.842C90.1365 52.2871 91.186 51.2378 91.186 49.9434C91.186 48.6489 90.1367 47.5996 88.8423 47.5996Z" fill="#F0500B"/>
<path d="M88.8423 60.0996H31.1562C29.8618 60.0996 28.8125 61.1489 28.8125 62.4434C28.8125 63.7378 29.8618 64.7871 31.1562 64.7871H88.842C90.1365 64.7871 91.186 63.7378 91.186 62.4434C91.186 61.1489 90.1367 60.0996 88.8423 60.0996Z" fill="#F0500B"/>
<path d="M88.8423 72.5996H31.1562C29.8618 72.5996 28.8125 73.6491 28.8125 74.9434C28.8125 76.2376 29.8618 77.2871 31.1562 77.2871H88.842C90.1365 77.2871 91.186 76.2376 91.186 74.9434C91.186 73.6491 90.1367 72.5996 88.8423 72.5996Z" fill="#F0500B"/>
</g>
<defs>
<clipPath id="clip0_3089_29799">
<rect width="120" height="120" fill="white"/>
</clipPath>
</defs>
</svg>
