<svg width="132" height="20" viewBox="0 0 132 20" fill="none" xmlns="http://www.w3.org/2000/svg">
<g clip-path="url(#clip0_3127_14422)">
<rect width="132" height="20" fill="white"/>
<path d="M10.4912 14.9174C10.1877 14.7475 9.81781 14.7475 9.51434 14.9174L4.82657 17.5414L5.87355 12.2722C5.94133 11.9311 5.82701 11.5793 5.57167 11.3431L1.62752 7.69571L6.96233 7.06318C7.30769 7.02224 7.60697 6.80479 7.75264 6.48899L10.0028 1.61075L12.2529 6.48898C12.3985 6.80479 12.6978 7.02224 13.0432 7.06319L18.378 7.69572L14.4339 11.3431C14.1785 11.5793 14.0642 11.9311 14.132 12.2722L15.1789 17.5414L10.4912 14.9174Z" stroke="#FDB601"/>
<path d="M38.4912 14.9174C38.1877 14.7475 37.8178 14.7475 37.5143 14.9174L32.8266 17.5414L33.8735 12.2722C33.9413 11.9311 33.827 11.5793 33.5717 11.3431L29.6275 7.69571L34.9623 7.06318C35.3077 7.02224 35.607 6.80479 35.7526 6.48899L38.0028 1.61075L40.2529 6.48898C40.3985 6.80479 40.6978 7.02224 41.0432 7.06319L46.378 7.69572L42.4339 11.3431C42.1785 11.5793 42.0642 11.9311 42.132 12.2722L43.1789 17.5414L38.4912 14.9174Z" stroke="#FDB601"/>
<path d="M66.4912 14.9174C66.1877 14.7475 65.8178 14.7475 65.5143 14.9174L60.8266 17.5414L61.8735 12.2722C61.9413 11.9311 61.827 11.5793 61.5717 11.3431L57.6275 7.69571L62.9623 7.06318C63.3077 7.02224 63.607 6.80479 63.7526 6.48899L66.0028 1.61075L68.2529 6.48898C68.3985 6.80479 68.6978 7.02224 69.0432 7.06319L74.378 7.69572L70.4339 11.3431C70.1785 11.5793 70.0642 11.9311 70.132 12.2722L71.1789 17.5414L66.4912 14.9174Z" stroke="#FDB601"/>
<path d="M94.4912 14.9174C94.1877 14.7475 93.8178 14.7475 93.5143 14.9174L88.8266 17.5414L89.8735 12.2722C89.9413 11.9311 89.827 11.5793 89.5717 11.3431L85.6275 7.69571L90.9623 7.06318C91.3077 7.02224 91.607 6.80479 91.7526 6.48899L94.0028 1.61075L96.2529 6.48898C96.3985 6.80479 96.6978 7.02224 97.0432 7.06319L102.378 7.69572L98.4339 11.3431C98.1785 11.5793 98.0642 11.9311 98.132 12.2722L99.1789 17.5414L94.4912 14.9174Z" stroke="#FDB601"/>
<path d="M122.491 14.9174C122.188 14.7475 121.818 14.7475 121.514 14.9174L116.827 17.5414L117.874 12.2722C117.941 11.9311 117.827 11.5793 117.572 11.3431L113.628 7.69571L118.962 7.06318C119.308 7.02224 119.607 6.80479 119.753 6.48899L122.003 1.61075L124.253 6.48898C124.399 6.80479 124.698 7.02224 125.043 7.06319L130.378 7.69572L126.434 11.3431C126.179 11.5793 126.064 11.9311 126.132 12.2722L127.179 17.5414L122.491 14.9174Z" stroke="#FDB601"/>
</g>
<defs>
<clipPath id="clip0_3127_14422">
<rect width="132" height="20" fill="white"/>
</clipPath>
</defs>
</svg>
