<svg width="140" height="20" viewBox="0 0 140 20" fill="none" xmlns="http://www.w3.org/2000/svg">
<path d="M10.4912 14.9174C10.1877 14.7475 9.81781 14.7475 9.51434 14.9174L4.82657 17.5414L5.87355 12.2722C5.94133 11.9311 5.82701 11.5793 5.57167 11.3431L1.62752 7.69571L6.96233 7.06318C7.30769 7.02224 7.60697 6.80479 7.75264 6.48899L10.0028 1.61075L12.2529 6.48898C12.3985 6.80479 12.6978 7.02224 13.0432 7.06319L18.378 7.69572L14.4339 11.3431C14.1785 11.5793 14.0642 11.9311 14.132 12.2722L15.1789 17.5414L10.4912 14.9174Z" stroke="#FDB601"/>
<path d="M40.4912 14.9174C40.1877 14.7475 39.8178 14.7475 39.5143 14.9174L34.8266 17.5414L35.8735 12.2722C35.9413 11.9311 35.827 11.5793 35.5717 11.3431L31.6275 7.69571L36.9623 7.06318C37.3077 7.02224 37.607 6.80479 37.7526 6.48899L40.0028 1.61075L42.2529 6.48898C42.3985 6.80479 42.6978 7.02224 43.0432 7.06319L48.378 7.69572L44.4339 11.3431C44.1785 11.5793 44.0642 11.9311 44.132 12.2722L45.1789 17.5414L40.4912 14.9174Z" stroke="#FDB601"/>
<path d="M70.4912 14.9174C70.1877 14.7475 69.8178 14.7475 69.5143 14.9174L64.8266 17.5414L65.8735 12.2722C65.9413 11.9311 65.827 11.5793 65.5717 11.3431L61.6275 7.69571L66.9623 7.06318C67.3077 7.02224 67.607 6.80479 67.7526 6.48899L70.0028 1.61075L72.2529 6.48898C72.3985 6.80479 72.6978 7.02224 73.0432 7.06319L78.378 7.69572L74.4339 11.3431C74.1785 11.5793 74.0642 11.9311 74.132 12.2722L75.1789 17.5414L70.4912 14.9174Z" stroke="#FDB601"/>
<path d="M100.491 14.9174C100.188 14.7475 99.8178 14.7475 99.5143 14.9174L94.8266 17.5414L95.8735 12.2722C95.9413 11.9311 95.827 11.5793 95.5717 11.3431L91.6275 7.69571L96.9623 7.06318C97.3077 7.02224 97.607 6.80479 97.7526 6.48899L100.003 1.61075L102.253 6.48898C102.399 6.80479 102.698 7.02224 103.043 7.06319L108.378 7.69572L104.434 11.3431C104.179 11.5793 104.064 11.9311 104.132 12.2722L105.179 17.5414L100.491 14.9174Z" stroke="#FDB601"/>
<path d="M130.491 14.9174C130.188 14.7475 129.818 14.7475 129.514 14.9174L124.827 17.5414L125.874 12.2722C125.941 11.9311 125.827 11.5793 125.572 11.3431L121.628 7.69571L126.962 7.06318C127.308 7.02224 127.607 6.80479 127.753 6.48899L130.003 1.61075L132.253 6.48898C132.399 6.80479 132.698 7.02224 133.043 7.06319L138.378 7.69572L134.434 11.3431C134.179 11.5793 134.064 11.9311 134.132 12.2722L135.179 17.5414L130.491 14.9174Z" stroke="#FDB601"/>
</svg>
