<svg width="24" height="24" viewBox="0 0 24 24" fill="none" xmlns="http://www.w3.org/2000/svg">
<g clip-path="url(#clip0_500_2984)">
<mask id="path-1-outside-1_500_2984" maskUnits="userSpaceOnUse" x="0" y="0" width="20" height="20" fill="black">
<rect fill="white" width="20" height="20"/>
<path d="M2.15563 9.17998C1.51823 9.17998 1 9.69821 1 10.3354C1 10.9728 1.51823 11.491 2.15563 11.491C2.40551 11.491 2.63568 11.4092 2.82492 11.2739C3.00431 12.7092 3.58569 14.0427 4.47675 15.1324C3.85845 15.1543 3.36141 15.6605 3.36141 16.2839C3.36141 16.9213 3.87964 17.4395 4.51704 17.4395C5.14856 17.4395 5.66197 16.9297 5.67078 16.2998C5.99745 16.556 6.34532 16.788 6.71521 16.9894L6.05683 18.5806C5.99892 18.721 6.06543 18.8819 6.20558 18.94C6.2402 18.9541 6.27566 18.9608 6.31091 18.9608C6.41896 18.9608 6.52114 18.897 6.56499 18.7911L7.20931 17.2341C7.41367 17.3266 7.62201 17.413 7.83685 17.4882C7.86686 17.4986 7.89749 17.5035 7.9277 17.5035C8.04121 17.5035 8.14758 17.4326 8.18724 17.3193C8.23738 17.1758 8.16185 17.019 8.01834 16.9687C7.07357 16.6386 6.23601 16.1158 5.53587 15.4585L9.42721 11.567C9.60723 11.6983 9.81599 11.7917 10.043 11.8347V12.6531C10.043 12.805 10.1662 12.928 10.3181 12.928C10.47 12.928 10.5931 12.805 10.5931 12.6531V11.8382C10.826 11.7978 11.0406 11.705 11.2253 11.572L11.5647 11.9113C11.6185 11.965 11.6887 11.9918 11.759 11.9918C11.8295 11.9918 11.8998 11.965 11.9535 11.9113C12.0609 11.8038 12.0609 11.6299 11.9535 11.5225L11.608 11.1769C11.7223 11.0059 11.8023 10.8106 11.8402 10.6008H17.3496C17.3257 11.2441 17.2202 11.8775 17.0244 12.4863C16.978 12.6309 17.0576 12.7857 17.2021 12.8323C17.3465 12.8785 17.5017 12.7994 17.5481 12.6544C17.6929 12.2042 17.7892 11.7409 17.8471 11.2711C18.037 11.4081 18.2682 11.491 18.5197 11.491C19.1567 11.491 19.6751 10.9728 19.6751 10.3354C19.6751 9.69821 19.1567 9.17998 18.5197 9.17998C18.2694 9.17998 18.0391 9.26181 17.8498 9.39755C17.6836 8.05877 17.1688 6.82678 16.3962 5.79767C16.952 5.71417 17.3809 5.23812 17.3809 4.65968C17.3809 4.02228 16.8624 3.50406 16.2255 3.50406C15.6613 3.50406 15.1921 3.91066 15.0914 4.44609C14.0178 3.57749 12.7034 2.99695 11.2649 2.82008C11.3982 2.63167 11.4783 2.40319 11.4783 2.15562C11.4783 1.51823 10.9599 1 10.3227 1C9.68528 1 9.16705 1.51823 9.16705 2.15562C9.16705 2.40466 9.24803 2.63398 9.38273 2.82302C8.0431 2.99191 6.81109 3.51035 5.78261 4.28643C5.70834 3.72037 5.22808 3.28061 4.64229 3.28061C4.0051 3.28061 3.48687 3.79884 3.48687 4.43623C3.48687 5.00817 3.90523 5.48086 4.45158 5.57255C3.58213 6.64446 3.00053 7.95743 2.82136 9.39441C2.63295 9.26034 2.40384 9.17998 2.15563 9.17998ZM2.15563 10.9411C1.82182 10.9411 1.54991 10.6692 1.54991 10.3354C1.54991 10.0016 1.82182 9.72989 2.15563 9.72989C2.48944 9.72989 2.76093 10.0016 2.76093 10.3354C2.76093 10.6692 2.48944 10.9411 2.15563 10.9411ZM10.3296 11.3125C9.78556 11.3125 9.34266 10.87 9.34266 10.3257C9.34266 9.78171 9.78556 9.33881 10.3296 9.33881C10.8736 9.33881 11.3163 9.78171 11.3163 10.3257C11.3163 10.87 10.8736 11.3125 10.3296 11.3125ZM8.81876 10.6008C8.85632 10.8079 8.93479 11.0005 9.04662 11.1698L5.14982 15.0666C4.05357 13.8629 3.38532 12.2912 3.32133 10.6008H8.81876ZM11.608 9.47434L15.501 5.58136C16.5939 6.76803 17.2837 8.33068 17.3526 10.0509H11.8402C11.802 9.84088 11.7221 9.64534 11.608 9.47434ZM11.2251 9.07928C11.0436 8.94857 10.8331 8.85646 10.6047 8.81492V3.31775C12.3421 3.38363 13.9194 4.08291 15.1126 5.19196L11.2251 9.07928ZM10.0545 8.81492C9.82312 8.85688 9.61016 8.95087 9.42721 9.08431L5.54615 5.20329C6.73808 4.09047 8.31585 3.38677 10.0545 3.31796V8.81492ZM9.04662 9.48169C8.93479 9.651 8.85632 9.84381 8.81876 10.0509H3.31819C3.38679 8.33656 4.07182 6.77852 5.15843 5.59332L9.04662 9.48169ZM4.51704 16.8896C4.18323 16.8896 3.91132 16.6177 3.91132 16.2839C3.91132 15.9501 4.18323 15.6784 4.51704 15.6784C4.85084 15.6784 5.12234 15.9501 5.12234 16.2839C5.12234 16.6177 4.85084 16.8896 4.51704 16.8896ZM18.5197 9.72989C18.8535 9.72989 19.125 10.0016 19.125 10.3354C19.125 10.6692 18.8535 10.9411 18.5197 10.9411C18.1859 10.9411 17.9142 10.6692 17.9142 10.3354C17.9142 10.0016 18.1859 9.72989 18.5197 9.72989ZM16.2255 4.05396C16.5593 4.05396 16.8308 4.32587 16.8308 4.65968C16.8308 4.99348 16.5593 5.26497 16.2255 5.26497C15.8917 5.26497 15.6199 4.99348 15.6199 4.65968C15.6199 4.32587 15.8917 4.05396 16.2255 4.05396ZM10.3227 1.54991C10.6565 1.54991 10.9282 1.82182 10.9282 2.15562C10.9282 2.48943 10.6565 2.76092 10.3227 2.76092C9.98887 2.76092 9.71696 2.48943 9.71696 2.15562C9.71696 1.82182 9.98887 1.54991 10.3227 1.54991ZM4.03678 4.43623C4.03678 4.10243 4.30849 3.83052 4.64229 3.83052C4.9761 3.83052 5.2478 4.10243 5.2478 4.43623C5.2478 4.77004 4.9761 5.04174 4.64229 5.04174C4.30849 5.04174 4.03678 4.77004 4.03678 4.43623Z"/>
</mask>
<path d="M2.15563 9.17998C1.51823 9.17998 1 9.69821 1 10.3354C1 10.9728 1.51823 11.491 2.15563 11.491C2.40551 11.491 2.63568 11.4092 2.82492 11.2739C3.00431 12.7092 3.58569 14.0427 4.47675 15.1324C3.85845 15.1543 3.36141 15.6605 3.36141 16.2839C3.36141 16.9213 3.87964 17.4395 4.51704 17.4395C5.14856 17.4395 5.66197 16.9297 5.67078 16.2998C5.99745 16.556 6.34532 16.788 6.71521 16.9894L6.05683 18.5806C5.99892 18.721 6.06543 18.8819 6.20558 18.94C6.2402 18.9541 6.27566 18.9608 6.31091 18.9608C6.41896 18.9608 6.52114 18.897 6.56499 18.7911L7.20931 17.2341C7.41367 17.3266 7.62201 17.413 7.83685 17.4882C7.86686 17.4986 7.89749 17.5035 7.9277 17.5035C8.04121 17.5035 8.14758 17.4326 8.18724 17.3193C8.23738 17.1758 8.16185 17.019 8.01834 16.9687C7.07357 16.6386 6.23601 16.1158 5.53587 15.4585L9.42721 11.567C9.60723 11.6983 9.81599 11.7917 10.043 11.8347V12.6531C10.043 12.805 10.1662 12.928 10.3181 12.928C10.47 12.928 10.5931 12.805 10.5931 12.6531V11.8382C10.826 11.7978 11.0406 11.705 11.2253 11.572L11.5647 11.9113C11.6185 11.965 11.6887 11.9918 11.759 11.9918C11.8295 11.9918 11.8998 11.965 11.9535 11.9113C12.0609 11.8038 12.0609 11.6299 11.9535 11.5225L11.608 11.1769C11.7223 11.0059 11.8023 10.8106 11.8402 10.6008H17.3496C17.3257 11.2441 17.2202 11.8775 17.0244 12.4863C16.978 12.6309 17.0576 12.7857 17.2021 12.8323C17.3465 12.8785 17.5017 12.7994 17.5481 12.6544C17.6929 12.2042 17.7892 11.7409 17.8471 11.2711C18.037 11.4081 18.2682 11.491 18.5197 11.491C19.1567 11.491 19.6751 10.9728 19.6751 10.3354C19.6751 9.69821 19.1567 9.17998 18.5197 9.17998C18.2694 9.17998 18.0391 9.26181 17.8498 9.39755C17.6836 8.05877 17.1688 6.82678 16.3962 5.79767C16.952 5.71417 17.3809 5.23812 17.3809 4.65968C17.3809 4.02228 16.8624 3.50406 16.2255 3.50406C15.6613 3.50406 15.1921 3.91066 15.0914 4.44609C14.0178 3.57749 12.7034 2.99695 11.2649 2.82008C11.3982 2.63167 11.4783 2.40319 11.4783 2.15562C11.4783 1.51823 10.9599 1 10.3227 1C9.68528 1 9.16705 1.51823 9.16705 2.15562C9.16705 2.40466 9.24803 2.63398 9.38273 2.82302C8.0431 2.99191 6.81109 3.51035 5.78261 4.28643C5.70834 3.72037 5.22808 3.28061 4.64229 3.28061C4.0051 3.28061 3.48687 3.79884 3.48687 4.43623C3.48687 5.00817 3.90523 5.48086 4.45158 5.57255C3.58213 6.64446 3.00053 7.95743 2.82136 9.39441C2.63295 9.26034 2.40384 9.17998 2.15563 9.17998ZM2.15563 10.9411C1.82182 10.9411 1.54991 10.6692 1.54991 10.3354C1.54991 10.0016 1.82182 9.72989 2.15563 9.72989C2.48944 9.72989 2.76093 10.0016 2.76093 10.3354C2.76093 10.6692 2.48944 10.9411 2.15563 10.9411ZM10.3296 11.3125C9.78556 11.3125 9.34266 10.87 9.34266 10.3257C9.34266 9.78171 9.78556 9.33881 10.3296 9.33881C10.8736 9.33881 11.3163 9.78171 11.3163 10.3257C11.3163 10.87 10.8736 11.3125 10.3296 11.3125ZM8.81876 10.6008C8.85632 10.8079 8.93479 11.0005 9.04662 11.1698L5.14982 15.0666C4.05357 13.8629 3.38532 12.2912 3.32133 10.6008H8.81876ZM11.608 9.47434L15.501 5.58136C16.5939 6.76803 17.2837 8.33068 17.3526 10.0509H11.8402C11.802 9.84088 11.7221 9.64534 11.608 9.47434ZM11.2251 9.07928C11.0436 8.94857 10.8331 8.85646 10.6047 8.81492V3.31775C12.3421 3.38363 13.9194 4.08291 15.1126 5.19196L11.2251 9.07928ZM10.0545 8.81492C9.82312 8.85688 9.61016 8.95087 9.42721 9.08431L5.54615 5.20329C6.73808 4.09047 8.31585 3.38677 10.0545 3.31796V8.81492ZM9.04662 9.48169C8.93479 9.651 8.85632 9.84381 8.81876 10.0509H3.31819C3.38679 8.33656 4.07182 6.77852 5.15843 5.59332L9.04662 9.48169ZM4.51704 16.8896C4.18323 16.8896 3.91132 16.6177 3.91132 16.2839C3.91132 15.9501 4.18323 15.6784 4.51704 15.6784C4.85084 15.6784 5.12234 15.9501 5.12234 16.2839C5.12234 16.6177 4.85084 16.8896 4.51704 16.8896ZM18.5197 9.72989C18.8535 9.72989 19.125 10.0016 19.125 10.3354C19.125 10.6692 18.8535 10.9411 18.5197 10.9411C18.1859 10.9411 17.9142 10.6692 17.9142 10.3354C17.9142 10.0016 18.1859 9.72989 18.5197 9.72989ZM16.2255 4.05396C16.5593 4.05396 16.8308 4.32587 16.8308 4.65968C16.8308 4.99348 16.5593 5.26497 16.2255 5.26497C15.8917 5.26497 15.6199 4.99348 15.6199 4.65968C15.6199 4.32587 15.8917 4.05396 16.2255 4.05396ZM10.3227 1.54991C10.6565 1.54991 10.9282 1.82182 10.9282 2.15562C10.9282 2.48943 10.6565 2.76092 10.3227 2.76092C9.98887 2.76092 9.71696 2.48943 9.71696 2.15562C9.71696 1.82182 9.98887 1.54991 10.3227 1.54991ZM4.03678 4.43623C4.03678 4.10243 4.30849 3.83052 4.64229 3.83052C4.9761 3.83052 5.2478 4.10243 5.2478 4.43623C5.2478 4.77004 4.9761 5.04174 4.64229 5.04174C4.30849 5.04174 4.03678 4.77004 4.03678 4.43623Z" fill="#0F0F10"/>
<path d="M2.15563 9.17998C1.51823 9.17998 1 9.69821 1 10.3354C1 10.9728 1.51823 11.491 2.15563 11.491C2.40551 11.491 2.63568 11.4092 2.82492 11.2739C3.00431 12.7092 3.58569 14.0427 4.47675 15.1324C3.85845 15.1543 3.36141 15.6605 3.36141 16.2839C3.36141 16.9213 3.87964 17.4395 4.51704 17.4395C5.14856 17.4395 5.66197 16.9297 5.67078 16.2998C5.99745 16.556 6.34532 16.788 6.71521 16.9894L6.05683 18.5806C5.99892 18.721 6.06543 18.8819 6.20558 18.94C6.2402 18.9541 6.27566 18.9608 6.31091 18.9608C6.41896 18.9608 6.52114 18.897 6.56499 18.7911L7.20931 17.2341C7.41367 17.3266 7.62201 17.413 7.83685 17.4882C7.86686 17.4986 7.89749 17.5035 7.9277 17.5035C8.04121 17.5035 8.14758 17.4326 8.18724 17.3193C8.23738 17.1758 8.16185 17.019 8.01834 16.9687C7.07357 16.6386 6.23601 16.1158 5.53587 15.4585L9.42721 11.567C9.60723 11.6983 9.81599 11.7917 10.043 11.8347V12.6531C10.043 12.805 10.1662 12.928 10.3181 12.928C10.47 12.928 10.5931 12.805 10.5931 12.6531V11.8382C10.826 11.7978 11.0406 11.705 11.2253 11.572L11.5647 11.9113C11.6185 11.965 11.6887 11.9918 11.759 11.9918C11.8295 11.9918 11.8998 11.965 11.9535 11.9113C12.0609 11.8038 12.0609 11.6299 11.9535 11.5225L11.608 11.1769C11.7223 11.0059 11.8023 10.8106 11.8402 10.6008H17.3496C17.3257 11.2441 17.2202 11.8775 17.0244 12.4863C16.978 12.6309 17.0576 12.7857 17.2021 12.8323C17.3465 12.8785 17.5017 12.7994 17.5481 12.6544C17.6929 12.2042 17.7892 11.7409 17.8471 11.2711C18.037 11.4081 18.2682 11.491 18.5197 11.491C19.1567 11.491 19.6751 10.9728 19.6751 10.3354C19.6751 9.69821 19.1567 9.17998 18.5197 9.17998C18.2694 9.17998 18.0391 9.26181 17.8498 9.39755C17.6836 8.05877 17.1688 6.82678 16.3962 5.79767C16.952 5.71417 17.3809 5.23812 17.3809 4.65968C17.3809 4.02228 16.8624 3.50406 16.2255 3.50406C15.6613 3.50406 15.1921 3.91066 15.0914 4.44609C14.0178 3.57749 12.7034 2.99695 11.2649 2.82008C11.3982 2.63167 11.4783 2.40319 11.4783 2.15562C11.4783 1.51823 10.9599 1 10.3227 1C9.68528 1 9.16705 1.51823 9.16705 2.15562C9.16705 2.40466 9.24803 2.63398 9.38273 2.82302C8.0431 2.99191 6.81109 3.51035 5.78261 4.28643C5.70834 3.72037 5.22808 3.28061 4.64229 3.28061C4.0051 3.28061 3.48687 3.79884 3.48687 4.43623C3.48687 5.00817 3.90523 5.48086 4.45158 5.57255C3.58213 6.64446 3.00053 7.95743 2.82136 9.39441C2.63295 9.26034 2.40384 9.17998 2.15563 9.17998ZM2.15563 10.9411C1.82182 10.9411 1.54991 10.6692 1.54991 10.3354C1.54991 10.0016 1.82182 9.72989 2.15563 9.72989C2.48944 9.72989 2.76093 10.0016 2.76093 10.3354C2.76093 10.6692 2.48944 10.9411 2.15563 10.9411ZM10.3296 11.3125C9.78556 11.3125 9.34266 10.87 9.34266 10.3257C9.34266 9.78171 9.78556 9.33881 10.3296 9.33881C10.8736 9.33881 11.3163 9.78171 11.3163 10.3257C11.3163 10.87 10.8736 11.3125 10.3296 11.3125ZM8.81876 10.6008C8.85632 10.8079 8.93479 11.0005 9.04662 11.1698L5.14982 15.0666C4.05357 13.8629 3.38532 12.2912 3.32133 10.6008H8.81876ZM11.608 9.47434L15.501 5.58136C16.5939 6.76803 17.2837 8.33068 17.3526 10.0509H11.8402C11.802 9.84088 11.7221 9.64534 11.608 9.47434ZM11.2251 9.07928C11.0436 8.94857 10.8331 8.85646 10.6047 8.81492V3.31775C12.3421 3.38363 13.9194 4.08291 15.1126 5.19196L11.2251 9.07928ZM10.0545 8.81492C9.82312 8.85688 9.61016 8.95087 9.42721 9.08431L5.54615 5.20329C6.73808 4.09047 8.31585 3.38677 10.0545 3.31796V8.81492ZM9.04662 9.48169C8.93479 9.651 8.85632 9.84381 8.81876 10.0509H3.31819C3.38679 8.33656 4.07182 6.77852 5.15843 5.59332L9.04662 9.48169ZM4.51704 16.8896C4.18323 16.8896 3.91132 16.6177 3.91132 16.2839C3.91132 15.9501 4.18323 15.6784 4.51704 15.6784C4.85084 15.6784 5.12234 15.9501 5.12234 16.2839C5.12234 16.6177 4.85084 16.8896 4.51704 16.8896ZM18.5197 9.72989C18.8535 9.72989 19.125 10.0016 19.125 10.3354C19.125 10.6692 18.8535 10.9411 18.5197 10.9411C18.1859 10.9411 17.9142 10.6692 17.9142 10.3354C17.9142 10.0016 18.1859 9.72989 18.5197 9.72989ZM16.2255 4.05396C16.5593 4.05396 16.8308 4.32587 16.8308 4.65968C16.8308 4.99348 16.5593 5.26497 16.2255 5.26497C15.8917 5.26497 15.6199 4.99348 15.6199 4.65968C15.6199 4.32587 15.8917 4.05396 16.2255 4.05396ZM10.3227 1.54991C10.6565 1.54991 10.9282 1.82182 10.9282 2.15562C10.9282 2.48943 10.6565 2.76092 10.3227 2.76092C9.98887 2.76092 9.71696 2.48943 9.71696 2.15562C9.71696 1.82182 9.98887 1.54991 10.3227 1.54991ZM4.03678 4.43623C4.03678 4.10243 4.30849 3.83052 4.64229 3.83052C4.9761 3.83052 5.2478 4.10243 5.2478 4.43623C5.2478 4.77004 4.9761 5.04174 4.64229 5.04174C4.30849 5.04174 4.03678 4.77004 4.03678 4.43623Z" stroke="#0F0F10" stroke-width="0.2" mask="url(#path-1-outside-1_500_2984)"/>
<path d="M12.5046 12.8143L12.5046 12.8143L12.507 12.8133C12.513 12.8108 13.1172 12.5588 13.9131 12.5888V22.7251C13.9131 22.9046 14.0586 23.0501 14.2381 23.0501C14.4179 23.0501 14.5632 22.9046 14.5632 22.7251V12.6798C14.736 12.7217 14.9116 12.7787 15.0876 12.8583C15.4769 13.0344 15.8291 13.2961 16.1457 13.6369V22.7251C16.1457 22.9046 16.291 23.0501 16.4707 23.0501C16.6503 23.0501 16.7956 22.9046 16.7956 22.7251V14.5393C17.0126 14.9247 17.2033 15.3656 17.3659 15.8631C17.6316 16.6769 17.9791 17.3059 18.3548 17.7957V22.7251C18.3548 22.9046 18.5003 23.0501 18.6798 23.0501C18.8593 23.0501 19.0049 22.9046 19.0049 22.7251V18.4941C19.3572 18.8036 19.7084 19.0175 20.0197 19.163C20.2464 19.2689 20.4635 19.3455 20.6631 19.4013V22.7251C20.6631 22.9046 20.8084 23.0501 20.9881 23.0501C21.1677 23.0501 21.313 22.9046 21.313 22.7251V19.5272C21.5601 19.5535 21.7191 19.5453 21.7414 19.5438L22.7252 19.5436C22.9047 19.5436 23.05 19.3978 23.05 19.2186C23.05 19.0388 22.9045 18.8935 22.7252 18.8935H22.7251L21.7199 18.8946V18.8945L21.7175 18.8946L21.7162 18.8947C21.6566 18.8976 21.0034 18.9297 20.2274 18.547C19.4468 18.162 18.5366 17.3546 17.9834 15.6613C17.4231 13.9457 16.5381 12.798 15.3478 12.2627C13.8076 11.5695 12.3449 12.1757 12.2685 12.209C12.1506 12.2509 10.0177 13.0453 9.32487 15.5628L9.32487 15.5629L9.27409 15.7477L9.27407 15.7478L9.27331 15.7506C8.91749 17.0527 8.54031 18.433 7.31717 19.3882C7.29648 19.4012 7.2729 19.4171 7.25226 19.4389C6.27072 20.1751 4.75367 20.6494 2.29174 20.6005L2.29174 20.6005H2.29075H1.27506C1.09533 20.6005 0.95 20.7458 0.95 20.9256C0.95 21.1051 1.09536 21.2504 1.27506 21.2504H2.28499C2.39805 21.2527 2.50858 21.2538 2.61805 21.2538C2.63904 21.2538 2.65922 21.2533 2.67883 21.2529L2.68267 21.2528C2.68412 21.2528 2.68557 21.2527 2.68701 21.2527V22.7251C2.68701 22.9046 2.83232 23.0501 3.01207 23.0501C3.19164 23.0501 3.33692 22.9046 3.33692 22.7251V21.2359C3.92146 21.2092 4.45228 21.1509 4.93114 21.0626V22.7251C4.93114 22.9046 5.07642 23.0501 5.25599 23.0501C5.43574 23.0501 5.58105 22.9046 5.58105 22.7251V20.9155C6.19794 20.7521 6.72017 20.5353 7.16351 20.2768V22.7251C7.16351 22.9046 7.30882 23.0501 7.48857 23.0501C7.66809 23.0501 7.81363 22.9046 7.81363 22.7251V19.8283C8.60801 19.177 9.07266 18.3668 9.39588 17.5364V22.7251C9.39588 22.9046 9.54117 23.0501 9.72073 23.0501C9.90049 23.0501 10.0458 22.9046 10.0458 22.7251V15.445C10.4076 14.4064 11.0607 13.7341 11.6052 13.33V22.7251C11.6052 22.9046 11.7505 23.0501 11.9302 23.0501C12.1098 23.0501 12.2553 22.9046 12.2553 22.7251V12.9272C12.3248 12.8922 12.3828 12.8657 12.4255 12.847C12.4495 12.8365 12.4686 12.8286 12.4821 12.8231L12.4981 12.8167L12.5027 12.815L12.5041 12.8144L12.5045 12.8143L12.5046 12.8143Z" fill="#0F0F10" stroke="#0F0F10" stroke-width="0.1"/>
</g>
<defs>
<clipPath id="clip0_500_2984">
<rect width="24" height="24" fill="white"/>
</clipPath>
</defs>
</svg>
