<svg width="904" height="667" viewBox="0 0 904 667" fill="none" xmlns="http://www.w3.org/2000/svg">
<path fill-rule="evenodd" clip-rule="evenodd" d="M47.6562 321.694C47.6562 321.096 48.1405 320.612 48.7378 320.612H146.994C147.592 320.612 148.076 321.096 148.076 321.694C148.076 322.291 147.592 322.775 146.994 322.775H48.7378C48.1405 322.775 47.6562 322.291 47.6562 321.694Z" fill="#0F0F10"/>
<path fill-rule="evenodd" clip-rule="evenodd" d="M169.484 321.694C169.484 321.096 169.968 320.612 170.566 320.612H191.548C192.145 320.612 192.629 321.096 192.629 321.694C192.629 322.291 192.145 322.775 191.548 322.775H170.566C169.968 322.775 169.484 322.291 169.484 321.694Z" fill="#0F0F10"/>
<path fill-rule="evenodd" clip-rule="evenodd" d="M29.8672 294.063C29.8672 293.466 30.3513 292.981 30.9486 292.981H206.847C207.445 292.981 207.929 293.466 207.929 294.063C207.929 294.66 207.445 295.144 206.847 295.144H30.9486C30.3513 295.144 29.8672 294.66 29.8672 294.063Z" fill="#0F0F10"/>
<path fill-rule="evenodd" clip-rule="evenodd" d="M0.921875 294.063C0.921875 293.466 1.40604 292.981 2.00328 292.981H16.4744C17.0716 292.981 17.5558 293.466 17.5558 294.063C17.5558 294.66 17.0716 295.144 16.4744 295.144H2.00328C1.40604 295.144 0.921875 294.66 0.921875 294.063Z" fill="#0F0F10"/>
<path fill-rule="evenodd" clip-rule="evenodd" d="M29.8672 267.819C29.8672 267.221 30.3513 266.737 30.9486 266.737H89.3433C89.9405 266.737 90.4247 267.221 90.4247 267.819C90.4247 268.416 89.9405 268.9 89.3433 268.9H30.9486C30.3513 268.9 29.8672 268.416 29.8672 267.819Z" fill="#0F0F10"/>
<path fill-rule="evenodd" clip-rule="evenodd" d="M103.891 267.819C103.891 267.221 104.375 266.737 104.972 266.737H227.619C228.216 266.737 228.701 267.221 228.701 267.819C228.701 268.416 228.216 268.9 227.619 268.9H104.972C104.375 268.9 103.891 268.416 103.891 267.819Z" fill="#0F0F10"/>
<path fill-rule="evenodd" clip-rule="evenodd" d="M742.148 540.864C742.148 540.267 742.632 539.783 743.229 539.783H848.363C848.96 539.783 849.444 540.267 849.444 540.864C849.444 541.461 848.96 541.946 848.363 541.946H743.229C742.632 541.946 742.148 541.461 742.148 540.864Z" fill="#0F0F10"/>
<path fill-rule="evenodd" clip-rule="evenodd" d="M864.383 540.864C864.383 540.267 864.867 539.783 865.464 539.783H880.67C881.267 539.783 881.752 540.267 881.752 540.864C881.752 541.461 881.267 541.946 880.67 541.946H865.464C864.867 541.946 864.383 541.461 864.383 540.864Z" fill="#0F0F10"/>
<path fill-rule="evenodd" clip-rule="evenodd" d="M763.148 513.253C763.148 512.656 763.632 512.171 764.229 512.171H902C902.597 512.171 903.081 512.656 903.081 513.253C903.081 513.85 902.597 514.334 902 514.334H764.229C763.632 514.334 763.148 513.85 763.148 513.253Z" fill="#0F0F10"/>
<path fill-rule="evenodd" clip-rule="evenodd" d="M742.148 513.253C742.148 512.656 742.632 512.171 743.229 512.171H753.72C754.317 512.171 754.801 512.656 754.801 513.253C754.801 513.85 754.317 514.334 753.72 514.334H743.229C742.632 514.334 742.148 513.85 742.148 513.253Z" fill="#0F0F10"/>
<path fill-rule="evenodd" clip-rule="evenodd" d="M742.148 486.989C742.148 486.392 742.632 485.908 743.229 485.908H806.563C807.16 485.908 807.644 486.392 807.644 486.989C807.644 487.586 807.16 488.071 806.563 488.071H743.229C742.632 488.071 742.148 487.586 742.148 486.989Z" fill="#0F0F10"/>
<path fill-rule="evenodd" clip-rule="evenodd" d="M816.828 486.989C816.828 486.392 817.312 485.908 817.91 485.908H865.467C866.064 485.908 866.548 486.392 866.548 486.989C866.548 487.586 866.064 488.071 865.467 488.071H817.91C817.312 488.071 816.828 487.586 816.828 486.989Z" fill="#0F0F10"/>
<path fill-rule="evenodd" clip-rule="evenodd" d="M789.113 292.105C789.71 292.105 790.194 292.59 790.194 293.187V315.699C790.194 316.296 789.71 316.78 789.113 316.78C788.515 316.78 788.031 316.296 788.031 315.699V293.187C788.031 292.59 788.515 292.105 789.113 292.105Z" fill="#0F0F10"/>
<path fill-rule="evenodd" clip-rule="evenodd" d="M756.691 305.533C757.114 305.111 757.798 305.111 758.221 305.533L774.141 321.439C774.563 321.861 774.564 322.546 774.141 322.968C773.719 323.391 773.035 323.391 772.612 322.969L756.692 307.063C756.27 306.641 756.269 305.956 756.691 305.533Z" fill="#0F0F10"/>
<path fill-rule="evenodd" clip-rule="evenodd" d="M743.258 337.926C743.258 337.328 743.742 336.844 744.339 336.844H766.872C767.47 336.844 767.954 337.328 767.954 337.926C767.954 338.523 767.47 339.007 766.872 339.007H744.339C743.742 339.007 743.258 338.523 743.258 337.926Z" fill="#0F0F10"/>
<path fill-rule="evenodd" clip-rule="evenodd" d="M774.141 352.862C774.563 353.284 774.563 353.969 774.141 354.391L758.221 370.317C757.799 370.74 757.114 370.74 756.692 370.318C756.269 369.895 756.269 369.211 756.692 368.788L772.612 352.862C773.034 352.44 773.719 352.44 774.141 352.862Z" fill="#0F0F10"/>
<path fill-rule="evenodd" clip-rule="evenodd" d="M789.113 359.071C789.71 359.071 790.194 359.555 790.194 360.153V382.645C790.194 383.242 789.71 383.726 789.113 383.726C788.515 383.726 788.031 383.242 788.031 382.645V360.153C788.031 359.555 788.515 359.071 789.113 359.071Z" fill="#0F0F10"/>
<path fill-rule="evenodd" clip-rule="evenodd" d="M804.083 352.862C804.505 352.44 805.19 352.44 805.612 352.862L821.532 368.788C821.954 369.211 821.954 369.895 821.532 370.318C821.109 370.74 820.424 370.74 820.002 370.317L804.082 354.391C803.66 353.969 803.66 353.284 804.083 352.862Z" fill="#0F0F10"/>
<path fill-rule="evenodd" clip-rule="evenodd" d="M810.281 337.926C810.281 337.328 810.765 336.844 811.363 336.844H833.897C834.494 336.844 834.978 337.328 834.978 337.926C834.978 338.523 834.494 339.007 833.897 339.007H811.363C810.765 339.007 810.281 338.523 810.281 337.926Z" fill="#0F0F10"/>
<path fill-rule="evenodd" clip-rule="evenodd" d="M821.532 305.533C821.954 305.956 821.954 306.641 821.531 307.063L805.611 322.969C805.189 323.391 804.504 323.391 804.082 322.968C803.66 322.546 803.66 321.861 804.083 321.439L820.003 305.533C820.425 305.111 821.11 305.111 821.532 305.533Z" fill="#0F0F10"/>
<path fill-rule="evenodd" clip-rule="evenodd" d="M82.433 410.438C83.0302 410.438 83.5144 410.923 83.5144 411.52V427.792C83.5144 428.389 83.0302 428.873 82.433 428.873C81.8357 428.873 81.3516 428.389 81.3516 427.792V411.52C81.3516 410.923 81.8357 410.438 82.433 410.438Z" fill="#0F0F10"/>
<path fill-rule="evenodd" clip-rule="evenodd" d="M58.7851 420.217C59.2073 419.794 59.892 419.794 60.3145 420.216L71.8261 431.717C72.2486 432.139 72.2489 432.824 71.8268 433.246C71.4047 433.669 70.72 433.669 70.2974 433.247L58.7858 421.746C58.3633 421.324 58.363 420.639 58.7851 420.217Z" fill="#0F0F10"/>
<path fill-rule="evenodd" clip-rule="evenodd" d="M48.9844 443.841C48.9844 443.243 49.4685 442.759 50.0658 442.759H66.3534C66.9506 442.759 67.4348 443.243 67.4348 443.841C67.4348 444.438 66.9506 444.922 66.3534 444.922H50.0658C49.4685 444.922 48.9844 444.438 48.9844 443.841Z" fill="#0F0F10"/>
<path fill-rule="evenodd" clip-rule="evenodd" d="M71.8261 454.433C72.2486 454.855 72.2489 455.54 71.8268 455.962L60.3152 467.484C59.893 467.907 59.2083 467.907 58.7858 467.485C58.3633 467.063 58.363 466.378 58.7851 465.956L70.2967 454.434C70.7189 454.011 71.4036 454.011 71.8261 454.433Z" fill="#0F0F10"/>
<path fill-rule="evenodd" clip-rule="evenodd" d="M82.433 458.828C83.0302 458.828 83.5144 459.312 83.5144 459.909V476.182C83.5144 476.779 83.0302 477.263 82.433 477.263C81.8357 477.263 81.3516 476.779 81.3516 476.182V459.909C81.3516 459.312 81.8357 458.828 82.433 458.828Z" fill="#0F0F10"/>
<path fill-rule="evenodd" clip-rule="evenodd" d="M93.0358 454.433C93.4584 454.011 94.1431 454.011 94.5652 454.434L106.076 465.956C106.498 466.378 106.498 467.063 106.076 467.485C105.653 467.907 104.968 467.907 104.546 467.484L93.0351 455.962C92.613 455.54 92.6133 454.855 93.0358 454.433Z" fill="#0F0F10"/>
<path fill-rule="evenodd" clip-rule="evenodd" d="M97.4375 443.841C97.4375 443.243 97.9217 442.759 98.5189 442.759H114.806C115.404 442.759 115.888 443.243 115.888 443.841C115.888 444.438 115.404 444.922 114.806 444.922H98.5189C97.9217 444.922 97.4375 444.438 97.4375 443.841Z" fill="#0F0F10"/>
<path fill-rule="evenodd" clip-rule="evenodd" d="M106.076 420.216C106.498 420.639 106.498 421.324 106.076 421.746L94.5645 433.247C94.142 433.669 93.4573 433.669 93.0351 433.246C92.613 432.824 92.6133 432.139 93.0358 431.717L104.547 420.216C104.97 419.794 105.654 419.794 106.076 420.216Z" fill="#0F0F10"/>
<path fill-rule="evenodd" clip-rule="evenodd" d="M523.145 74.3418C523.742 74.3418 524.226 74.826 524.226 75.4232V91.6958C524.226 92.293 523.742 92.7772 523.145 92.7772C522.548 92.7772 522.062 92.293 522.062 91.6958V75.4232C522.062 74.826 522.548 74.3418 523.145 74.3418Z" fill="#0F0F10"/>
<path fill-rule="evenodd" clip-rule="evenodd" d="M499.504 84.1403C499.926 83.7178 500.611 83.7175 501.033 84.1396L512.544 95.6406C512.967 96.0628 512.967 96.7475 512.545 97.17C512.123 97.5925 511.438 97.5928 511.016 97.1706L499.505 85.6696C499.082 85.2475 499.082 84.5628 499.504 84.1403Z" fill="#0F0F10"/>
<path fill-rule="evenodd" clip-rule="evenodd" d="M489.719 107.765C489.719 107.168 490.203 106.684 490.8 106.684H507.088C507.685 106.684 508.17 107.168 508.17 107.765C508.17 108.362 507.685 108.846 507.088 108.846H490.8C490.203 108.846 489.719 108.362 489.719 107.765Z" fill="#0F0F10"/>
<path fill-rule="evenodd" clip-rule="evenodd" d="M512.545 118.359C512.967 118.781 512.967 119.466 512.544 119.888L501.033 131.389C500.611 131.811 499.926 131.811 499.504 131.388C499.082 130.966 499.082 130.281 499.505 129.859L511.016 118.358C511.438 117.936 512.123 117.936 512.545 118.359Z" fill="#0F0F10"/>
<path fill-rule="evenodd" clip-rule="evenodd" d="M523.145 122.751C523.742 122.751 524.226 123.236 524.226 123.833V140.106C524.226 140.703 523.742 141.187 523.145 141.187C522.548 141.187 522.062 140.703 522.062 140.106V123.833C522.062 123.236 522.548 122.751 523.145 122.751Z" fill="#0F0F10"/>
<path fill-rule="evenodd" clip-rule="evenodd" d="M533.754 118.359C534.176 117.936 534.861 117.936 535.283 118.358L546.794 129.859C547.217 130.281 547.217 130.966 546.795 131.388C546.373 131.811 545.688 131.811 545.266 131.389L533.755 119.888C533.332 119.466 533.332 118.781 533.754 118.359Z" fill="#0F0F10"/>
<path fill-rule="evenodd" clip-rule="evenodd" d="M538.156 107.765C538.156 107.168 538.64 106.684 539.238 106.684H555.526C556.123 106.684 556.607 107.168 556.607 107.765C556.607 108.362 556.123 108.846 555.526 108.846H539.238C538.64 108.846 538.156 108.362 538.156 107.765Z" fill="#0F0F10"/>
<path fill-rule="evenodd" clip-rule="evenodd" d="M546.795 84.1403C547.217 84.5628 547.217 85.2475 546.794 85.6696L535.283 97.1706C534.861 97.5928 534.176 97.5925 533.754 97.17C533.332 96.7475 533.332 96.0628 533.755 95.6406L545.266 84.1396C545.688 83.7175 546.373 83.7178 546.795 84.1403Z" fill="#0F0F10"/>
<path fill-rule="evenodd" clip-rule="evenodd" d="M205.758 157.806C205.758 157.209 206.242 156.725 206.839 156.725H573.188C573.786 156.725 574.27 157.209 574.27 157.806V224.251C574.27 224.848 573.786 225.332 573.188 225.332C572.591 225.332 572.107 224.848 572.107 224.251V158.887H207.921V228.219C207.921 228.816 207.437 229.3 206.839 229.3C206.242 229.3 205.758 228.816 205.758 228.219V157.806Z" fill="#0F0F10"/>
<path fill-rule="evenodd" clip-rule="evenodd" d="M444.074 106.684C444.671 106.684 445.155 107.168 445.155 107.765V194.837H687.001C687.598 194.837 688.082 195.321 688.082 195.918V236.029C688.082 236.626 687.598 237.11 687.001 237.11C686.403 237.11 685.919 236.626 685.919 236.029V196.999H444.074C443.476 196.999 442.992 196.515 442.992 195.918V107.765C442.992 107.168 443.476 106.684 444.074 106.684Z" fill="#0F0F10"/>
<path fill-rule="evenodd" clip-rule="evenodd" d="M206.839 229.3C202.617 229.3 199.185 232.712 199.185 236.946C199.185 241.162 202.6 244.592 206.839 244.592C211.061 244.592 214.494 241.179 214.494 236.946C214.494 232.732 211.06 229.3 206.839 229.3ZM197.023 236.946C197.023 231.513 201.427 227.137 206.839 227.137C212.252 227.137 216.656 231.535 216.656 236.946C216.656 242.378 212.251 246.755 206.839 246.755C201.404 246.755 197.023 242.355 197.023 236.946Z" fill="#0F0F10"/>
<path fill-rule="evenodd" clip-rule="evenodd" d="M434.258 99.0365C434.258 93.6182 438.654 89.2275 444.075 89.2275C449.496 89.2275 453.892 93.6183 453.892 99.0365C453.892 104.455 449.496 108.845 444.075 108.845C438.654 108.845 434.258 104.455 434.258 99.0365ZM444.075 91.3903C439.847 91.3903 436.421 94.8146 436.421 99.0365C436.421 103.259 439.847 106.682 444.075 106.682C448.303 106.682 451.729 103.259 451.729 99.0365C451.729 94.8146 448.303 91.3903 444.075 91.3903Z" fill="#0F0F10"/>
<path fill-rule="evenodd" clip-rule="evenodd" d="M687.021 238.028C682.798 238.028 679.366 241.441 679.366 245.674C679.366 249.89 682.781 253.32 687.021 253.32C691.243 253.32 694.675 249.907 694.675 245.674C694.675 241.46 691.241 238.028 687.021 238.028ZM677.203 245.674C677.203 240.241 681.609 235.865 687.021 235.865C692.434 235.865 696.838 240.263 696.838 245.674C696.838 251.106 692.432 255.483 687.021 255.483C681.586 255.483 677.203 251.083 677.203 245.674Z" fill="#0F0F10"/>
<path fill-rule="evenodd" clip-rule="evenodd" d="M150.624 498.582C151.046 499.005 151.046 499.689 150.624 500.112L129.948 520.789C129.525 521.211 128.841 521.211 128.418 520.789C127.996 520.366 127.996 519.682 128.418 519.259L149.094 498.582C149.517 498.16 150.201 498.16 150.624 498.582Z" fill="#0F0F10"/>
<path fill-rule="evenodd" clip-rule="evenodd" d="M128.418 498.582C128.841 498.16 129.525 498.16 129.948 498.582L150.624 519.259C151.046 519.682 151.046 520.366 150.624 520.789C150.201 521.211 149.517 521.211 149.094 520.789L128.418 500.112C127.996 499.689 127.996 499.005 128.418 498.582Z" fill="#0F0F10"/>
<path fill-rule="evenodd" clip-rule="evenodd" d="M160.968 198.498C161.39 198.92 161.389 199.605 160.967 200.027L140.291 220.684C139.868 221.106 139.184 221.106 138.762 220.683C138.339 220.261 138.34 219.576 138.762 219.154L159.438 198.497C159.861 198.075 160.546 198.075 160.968 198.498Z" fill="#0F0F10"/>
<path fill-rule="evenodd" clip-rule="evenodd" d="M138.762 198.498C139.184 198.075 139.868 198.075 140.291 198.497L160.967 219.154C161.389 219.576 161.39 220.261 160.968 220.683C160.546 221.106 159.861 221.106 159.438 220.684L138.762 200.027C138.34 199.605 138.339 198.92 138.762 198.498Z" fill="#0F0F10"/>
<path fill-rule="evenodd" clip-rule="evenodd" d="M831.871 432.758C832.293 433.181 832.292 433.865 831.869 434.287L811.173 454.944C810.751 455.366 810.066 455.365 809.644 454.943C809.222 454.52 809.223 453.835 809.645 453.413L830.341 432.756C830.764 432.335 831.449 432.335 831.871 432.758Z" fill="#0F0F10"/>
<path fill-rule="evenodd" clip-rule="evenodd" d="M809.644 432.758C810.066 432.335 810.751 432.335 811.173 432.756L831.869 453.413C832.292 453.835 832.293 454.52 831.871 454.943C831.449 455.365 830.764 455.366 830.341 454.944L809.645 434.287C809.223 433.865 809.222 433.181 809.644 432.758Z" fill="#0F0F10"/>
<path fill-rule="evenodd" clip-rule="evenodd" d="M155.823 91.5466C159.308 74.5215 174.329 61.6904 192.41 61.6904C208.37 61.6904 221.951 71.697 227.315 85.7535C232.006 82.2547 237.818 80.1857 244.11 80.1857C259.633 80.1857 272.223 92.7629 272.223 108.275C272.223 123.786 259.633 136.363 244.11 136.363H147.956C147.657 136.363 147.386 136.248 147.184 136.059C136.343 134.333 128.047 124.969 128.047 113.658C128.047 101.123 138.228 90.9526 150.772 90.9526C152.52 90.9526 154.205 91.1743 155.823 91.5466ZM148.604 134.102H244.11C258.386 134.102 269.962 122.535 269.962 108.275C269.962 94.0138 258.386 82.4471 244.11 82.4471C237.792 82.4471 232.006 84.7125 227.507 88.4841C227.22 88.7245 226.833 88.8074 226.473 88.7055C226.113 88.6036 225.826 88.33 225.708 87.9749C221.061 74.0244 207.929 63.9518 192.41 63.9518C175.031 63.9518 160.653 76.5736 157.826 93.1301C157.772 93.4457 157.587 93.7236 157.317 93.8949C157.046 94.0663 156.716 94.1149 156.407 94.0287C154.59 93.5211 152.713 93.214 150.772 93.214C139.475 93.214 130.308 102.374 130.308 113.658C130.308 124.03 138.062 132.593 148.102 133.908C148.288 133.932 148.459 134 148.604 134.102Z" fill="#0F0F10"/>
<path fill-rule="evenodd" clip-rule="evenodd" d="M782.007 206.114C770.831 206.114 761.378 213.348 758.05 223.38C757.937 223.719 757.664 223.982 757.319 224.079C756.975 224.177 756.604 224.098 756.329 223.868C753.109 221.171 748.964 219.552 744.431 219.552C734.207 219.552 725.897 227.819 725.897 238.047C725.897 248.276 734.208 256.563 744.431 256.563H813.758C813.878 256.494 814.013 256.447 814.157 256.429C821.343 255.498 826.869 249.383 826.869 241.983C826.869 233.915 820.313 227.383 812.255 227.383C810.852 227.383 809.503 227.591 808.222 227.954C807.927 228.037 807.61 227.991 807.35 227.827C807.09 227.663 806.913 227.396 806.862 227.094C804.846 215.186 794.492 206.114 782.007 206.114ZM756.514 221.275C760.52 211.13 770.408 203.952 782.007 203.952C795.163 203.952 806.136 213.228 808.775 225.59C809.891 225.353 811.054 225.221 812.255 225.221C821.504 225.221 829.032 232.717 829.032 241.983C829.032 250.307 822.949 257.205 814.961 258.497C814.777 258.64 814.547 258.725 814.296 258.725H744.431C733.017 258.725 723.734 249.474 723.734 238.047C723.734 226.619 733.019 217.39 744.431 217.39C748.941 217.39 753.114 218.827 756.514 221.275Z" fill="#0F0F10"/>
<path fill-rule="evenodd" clip-rule="evenodd" d="M786.67 594.728C788.957 584.361 798.196 576.61 809.253 576.61C818.96 576.61 827.257 582.594 830.7 591.054C833.544 589.064 837.004 587.887 840.747 587.887C850.427 587.887 858.255 595.732 858.299 605.379V605.384C858.299 615.056 850.446 622.901 840.767 622.901H782.189C781.952 622.901 781.733 622.825 781.555 622.697C774.796 621.582 769.656 615.736 769.656 608.687C769.656 600.829 776.04 594.453 783.903 594.453C784.845 594.453 785.774 594.55 786.67 594.728ZM782.69 620.738H840.767C849.252 620.738 856.134 613.861 856.136 605.387C856.097 596.926 849.23 590.05 840.747 590.05C836.99 590.05 833.559 591.401 830.887 593.632C830.612 593.861 830.242 593.94 829.898 593.842C829.554 593.744 829.28 593.483 829.168 593.143C826.391 584.802 818.527 578.773 809.253 578.773C798.869 578.773 790.251 586.316 788.582 596.223C788.531 596.527 788.353 596.794 788.093 596.958C787.833 597.122 787.515 597.168 787.219 597.084C786.168 596.784 785.043 596.616 783.903 596.616C777.233 596.616 771.819 602.026 771.819 608.687C771.819 614.802 776.386 619.857 782.327 620.624C782.457 620.641 782.579 620.681 782.69 620.738Z" fill="#0F0F10"/>
<path fill-rule="evenodd" clip-rule="evenodd" d="M83.2563 541.946C72.0811 541.946 62.6274 549.179 59.3001 559.211C59.1873 559.55 58.9136 559.813 58.569 559.91C58.2245 560.008 57.8539 559.929 57.5793 559.699C54.3587 557.002 50.2144 555.384 45.6804 555.384C35.4598 555.384 27.167 563.669 27.1472 573.879C27.1477 584.108 35.4587 592.394 45.6804 592.394H115.008C115.127 592.325 115.262 592.278 115.407 592.26C122.592 591.329 128.119 585.215 128.119 577.814C128.119 569.747 121.563 563.214 113.504 563.214C112.102 563.214 110.752 563.422 109.472 563.785C109.177 563.869 108.86 563.823 108.6 563.659C108.34 563.495 108.162 563.228 108.111 562.926C106.096 551.017 95.7411 541.946 83.2563 541.946ZM57.7641 557.106C61.7692 546.961 71.658 539.783 83.2563 539.783C96.4127 539.783 107.386 549.058 110.025 561.421C111.14 561.184 112.303 561.052 113.504 561.052C122.754 561.052 130.282 568.549 130.282 577.814C130.282 586.138 124.199 593.036 116.21 594.328C116.027 594.471 115.796 594.556 115.545 594.556H45.6804C34.2672 594.556 24.9844 585.305 24.9844 573.878V573.876C25.0059 562.473 34.2661 553.221 45.6804 553.221C50.1916 553.221 54.3633 554.658 57.7641 557.106Z" fill="#0F0F10"/>
<path fill-rule="evenodd" clip-rule="evenodd" d="M473.568 3.08158C472.476 3.08005 471.387 3.08399 470.302 3.09331C469.704 3.09844 469.216 2.61845 469.211 2.02123C469.206 1.42402 469.686 0.935718 470.283 0.930591C471.376 0.92121 472.472 0.917239 473.571 0.918781C474.169 0.919618 474.652 1.40446 474.651 2.0017C474.651 2.59894 474.166 3.08242 473.568 3.08158ZM475.719 2.00845C475.726 1.41124 476.215 0.932561 476.812 0.939279C477.896 0.951466 478.982 0.969038 480.072 0.992089C480.669 1.00472 481.143 1.49902 481.13 2.09612C481.117 2.69323 480.623 3.16704 480.026 3.1544C478.944 3.13151 477.864 3.11405 476.788 3.10194C476.191 3.09522 475.712 2.60565 475.719 2.00845ZM468.101 2.0363C468.112 2.63344 467.637 3.1265 467.04 3.13757C465.955 3.15768 464.875 3.18312 463.797 3.21378C463.2 3.23077 462.702 2.76058 462.685 2.16358C462.668 1.56658 463.139 1.06884 463.736 1.05186C464.82 1.02099 465.908 0.99539 466.999 0.975145C467.597 0.964067 468.09 1.43916 468.101 2.0363ZM482.235 2.125C482.253 1.52805 482.752 1.05919 483.349 1.07777C484.445 1.11188 485.543 1.15156 486.645 1.1969C487.242 1.22146 487.705 1.72513 487.681 2.32186C487.656 2.9186 487.153 3.38243 486.556 3.35787C485.462 3.31282 484.37 3.27341 483.282 3.23953C482.685 3.22094 482.216 2.72195 482.235 2.125ZM461.614 2.19934C461.637 2.79614 461.172 3.29848 460.575 3.32133C459.488 3.36296 458.404 3.40987 457.324 3.46196C456.727 3.49073 456.221 3.03045 456.192 2.43391C456.163 1.83736 456.623 1.33044 457.22 1.30167C458.307 1.24924 459.398 1.20202 460.492 1.16012C461.089 1.13726 461.591 1.60254 461.614 2.19934ZM488.752 2.37124C488.782 1.77477 489.29 1.31593 489.887 1.34637C490.967 1.40149 492.049 1.46209 493.135 1.52825C493.731 1.56459 494.184 2.07731 494.148 2.67344C494.112 3.26958 493.599 3.72338 493.003 3.68704C491.925 3.62132 490.849 3.56112 489.777 3.50636C489.18 3.47591 488.721 2.9677 488.752 2.37124ZM455.079 2.4931C455.114 3.08933 454.659 3.6008 454.063 3.63549C452.979 3.69854 451.899 3.76675 450.823 3.84003C450.227 3.8806 449.711 3.43044 449.67 2.83458C449.63 2.23872 450.08 1.72279 450.676 1.68222C451.759 1.60847 452.846 1.5398 453.937 1.47634C454.533 1.44165 455.045 1.89687 455.079 2.4931ZM495.244 2.74569C495.286 2.14994 495.803 1.70125 496.399 1.74351C497.49 1.82088 498.583 1.90391 499.68 1.99267C500.275 2.04086 500.719 2.56252 500.67 3.15781C500.622 3.7531 500.101 4.19661 499.505 4.14841C498.416 4.06023 497.33 3.97775 496.246 3.90089C495.65 3.85863 495.201 3.34143 495.244 2.74569ZM448.599 2.91281C448.645 3.50824 448.2 4.02855 447.604 4.07494C446.522 4.15928 445.443 4.2487 444.368 4.34309C443.773 4.39532 443.249 3.95537 443.196 3.36042C443.144 2.76547 443.584 2.24081 444.179 2.18857C445.261 2.09357 446.347 2.00357 447.436 1.91867C448.032 1.87228 448.552 2.31737 448.599 2.91281ZM501.766 3.25195C501.82 2.65716 502.346 2.21884 502.94 2.27294C504.014 2.3706 505.091 2.47379 506.169 2.58259C506.764 2.64252 507.197 3.17281 507.137 3.76704C507.077 4.36127 506.547 4.7944 505.952 4.73448C504.881 4.62638 503.811 4.52387 502.745 4.42685C502.15 4.37275 501.711 3.84673 501.766 3.25195ZM442.085 3.46353C442.143 4.05794 441.708 4.58691 441.114 4.64502C440.033 4.75068 438.956 4.86131 437.883 4.97681C437.29 5.04073 436.756 4.61117 436.692 4.01736C436.629 3.42355 437.058 2.89035 437.652 2.82643C438.732 2.71018 439.816 2.59883 440.904 2.49248C441.498 2.43437 442.027 2.86913 442.085 3.46353ZM508.22 3.88164C508.286 3.28803 508.82 2.86014 509.414 2.92592C510.498 3.04603 511.584 3.17184 512.673 3.30342C513.266 3.37506 513.688 3.91381 513.617 4.50674C513.545 5.09966 513.006 5.52224 512.413 5.4506C511.332 5.31988 510.252 5.19489 509.175 5.07556C508.582 5.00979 508.154 4.47525 508.22 3.88164ZM435.624 4.13757C435.694 4.73074 435.27 5.26808 434.677 5.33775C433.598 5.46444 432.524 5.59599 431.454 5.73228C430.861 5.80774 430.32 5.38862 430.244 4.79616C430.169 4.20371 430.588 3.66226 431.18 3.58681C432.257 3.44964 433.339 3.31723 434.424 3.18972C435.017 3.12004 435.555 3.54441 435.624 4.13757ZM514.734 4.64742C514.812 4.05523 515.355 3.63802 515.947 3.71555C517.015 3.85544 518.086 4.00092 519.159 4.15205C519.751 4.23535 520.163 4.7823 520.079 5.3737C519.996 5.96511 519.449 6.37701 518.858 6.29372C517.792 6.14356 516.728 5.99903 515.666 5.86005C515.074 5.78252 514.657 5.23961 514.734 4.64742ZM429.138 4.94261C429.219 5.5343 428.805 6.07982 428.213 6.16106C427.137 6.30876 426.066 6.46121 424.999 6.61828C424.408 6.70525 423.858 6.29675 423.772 5.70587C423.685 5.115 424.093 4.5655 424.684 4.47853C425.758 4.32045 426.836 4.16702 427.919 4.01836C428.511 3.93712 429.056 4.35092 429.138 4.94261ZM521.146 5.52919C521.235 4.93863 521.786 4.53207 522.376 4.62111C523.451 4.78314 524.528 4.95088 525.607 5.12439C526.196 5.2192 526.598 5.77409 526.503 6.36375C526.408 6.95342 525.853 7.35458 525.263 7.25976C524.191 7.08737 523.121 6.92072 522.054 6.75974C521.463 6.67069 521.057 6.11975 521.146 5.52919ZM422.711 5.86717C422.804 6.45718 422.4 7.01058 421.81 7.10321C420.735 7.27199 419.665 7.44541 418.599 7.62332C418.01 7.72165 417.453 7.3238 417.354 6.73471C417.256 6.14562 417.654 5.58836 418.243 5.49003C419.316 5.31098 420.393 5.13645 421.475 4.96658C422.065 4.87395 422.618 5.27716 422.711 5.86717ZM527.603 6.54616C527.703 5.95745 528.262 5.56175 528.851 5.66234C529.928 5.84635 531.007 6.03615 532.089 6.23181C532.676 6.33814 533.066 6.90076 532.96 7.48846C532.854 8.07616 532.291 8.46639 531.703 8.36005C530.629 8.16566 529.557 7.97708 528.487 7.79424C527.898 7.69366 527.502 7.13487 527.603 6.54616ZM416.256 6.92348C416.36 7.51159 415.968 8.07267 415.379 8.17668C414.311 8.36564 413.247 8.55906 412.188 8.75682C411.601 8.86645 411.036 8.47939 410.927 7.8923C410.817 7.3052 411.204 6.7404 411.791 6.63077C412.857 6.43175 413.927 6.2371 415.003 6.04693C415.591 5.94292 416.152 6.33536 416.256 6.92348ZM534.006 7.68291C534.118 7.09626 534.684 6.71144 535.271 6.8234C536.334 7.02626 537.399 7.23479 538.466 7.44908C539.052 7.56667 539.431 8.13668 539.313 8.72223C539.196 9.30778 538.626 9.68713 538.04 9.56954C536.98 9.35662 535.922 9.14942 534.866 8.94786C534.279 8.8359 533.894 8.26956 534.006 7.68291ZM409.878 8.09326C409.993 8.67929 409.612 9.24773 409.025 9.36292C407.953 9.57373 406.885 9.78892 405.823 10.0083C405.238 10.1291 404.666 9.75289 404.545 9.16799C404.424 8.58309 404.801 8.01102 405.386 7.89023C406.455 7.66942 407.529 7.45287 408.608 7.24072C409.194 7.12554 409.763 7.50723 409.878 8.09326ZM540.392 8.94427C540.515 8.35988 541.089 7.98603 541.673 8.10925C542.744 8.3351 543.818 8.56677 544.893 8.80433C545.476 8.93318 545.844 9.5104 545.715 10.0936C545.586 10.6767 545.009 11.045 544.426 10.9162C543.358 10.6801 542.291 10.4499 541.227 10.2255C540.643 10.1023 540.269 9.52866 540.392 8.94427ZM403.46 9.39759C403.586 9.98131 403.215 10.5569 402.631 10.6833C401.573 10.9125 400.519 11.1458 399.471 11.3831C398.888 11.5149 398.309 11.1496 398.177 10.5671C398.046 9.98461 398.411 9.40551 398.993 9.27365C400.048 9.03487 401.109 8.80009 402.174 8.56947C402.758 8.44311 403.333 8.81387 403.46 9.39759ZM546.788 10.336C546.922 9.75408 547.503 9.39131 548.085 9.52573C549.134 9.76804 550.185 10.016 551.238 10.2696C551.818 10.4095 552.176 10.9936 552.036 11.5742C551.896 12.1548 551.312 12.5121 550.731 12.3722C549.685 12.1202 548.641 11.8738 547.598 11.633C547.016 11.4986 546.654 10.9179 546.788 10.336ZM397.138 10.8075C397.275 11.3888 396.915 11.9713 396.334 12.1086C395.265 12.361 394.202 12.6175 393.145 12.878C392.565 13.0208 391.979 12.6664 391.836 12.0865C391.693 11.5066 392.048 10.9207 392.627 10.7779C393.692 10.5159 394.762 10.2577 395.837 10.0037C396.418 9.86639 397.001 10.2263 397.138 10.8075ZM553.089 11.8333C553.235 11.254 553.822 10.9023 554.401 11.0476C555.458 11.3127 556.516 11.5835 557.576 11.8601C558.154 12.011 558.5 12.6017 558.349 13.1796C558.198 13.7575 557.608 14.1037 557.03 13.9529C555.976 13.6779 554.925 13.4088 553.875 13.1454C553.296 13 552.944 12.4126 553.089 11.8333ZM390.768 12.3548C390.916 12.9334 390.567 13.5226 389.989 13.6708C388.943 13.9389 387.902 14.2107 386.867 14.4861C386.29 14.6397 385.698 14.2964 385.544 13.7192C385.39 13.1421 385.734 12.5497 386.311 12.3961C387.352 12.119 388.399 11.8455 389.452 11.5757C390.031 11.4275 390.62 11.7763 390.768 12.3548ZM559.435 13.4684C559.591 12.8919 560.185 12.5513 560.761 12.7076C561.293 12.8517 561.825 12.9974 562.358 13.1445C562.901 13.2945 563.443 13.4453 563.984 13.5968C564.559 13.758 564.894 14.3548 564.733 14.9299C564.572 15.505 563.975 15.8405 563.4 15.6793C562.862 15.5286 562.323 15.3785 561.782 15.2292C561.253 15.083 560.724 14.9383 560.195 14.795C559.619 14.6388 559.278 14.0448 559.435 13.4684ZM384.487 14.0059C384.646 14.5816 384.308 15.1772 383.732 15.3362C382.676 15.6277 381.627 15.9228 380.583 16.2215C380.009 16.3858 379.411 16.0535 379.246 15.4794C379.082 14.9052 379.414 14.3065 379.988 14.1421C381.038 13.8417 382.094 13.5447 383.156 13.2514C383.732 13.0924 384.328 13.4303 384.487 14.0059ZM565.872 15.2537C566.037 14.6798 566.637 14.3488 567.21 14.5143C568.281 14.8231 569.346 15.1346 570.406 15.449C570.978 15.6188 571.305 16.2207 571.135 16.7933C570.965 17.3659 570.363 17.6923 569.79 17.5225C568.736 17.2097 567.676 16.8996 566.611 16.5924C566.037 16.4269 565.706 15.8275 565.872 15.2537ZM378.202 15.7835C378.372 16.3561 378.045 16.9579 377.472 17.1275C376.441 17.433 375.416 17.7417 374.397 18.0535C373.826 18.2284 373.222 17.9072 373.047 17.3361C372.872 16.765 373.193 16.1603 373.764 15.9855C374.789 15.6717 375.82 15.3611 376.858 15.0538C377.431 14.8841 378.032 15.2108 378.202 15.7835ZM572.219 17.1195C572.393 16.5482 572.998 16.2263 573.569 16.4005C574.618 16.7204 575.662 17.0431 576.701 17.3685C577.271 17.547 577.588 18.1538 577.41 18.7237C577.231 19.2936 576.624 19.6109 576.055 19.4324C575.021 19.1086 573.982 18.7876 572.938 18.4692C572.367 18.295 572.045 17.6907 572.219 17.1195ZM371.963 17.6734C372.143 18.2428 371.828 18.8504 371.258 19.0306C370.219 19.3595 369.186 19.6914 368.161 20.0264C367.593 20.2117 366.982 19.9018 366.797 19.334C366.612 18.7663 366.922 18.1557 367.489 17.9704C368.521 17.6334 369.56 17.2994 370.606 16.9685C371.176 16.7884 371.783 17.1039 371.963 17.6734ZM578.493 19.0676C578.676 18.4991 579.285 18.1865 579.854 18.3694C580.923 18.7135 581.986 19.0604 583.044 19.4101C583.611 19.5975 583.919 20.2092 583.731 20.7763C583.544 21.3433 582.932 21.651 582.365 21.4636C581.313 21.1157 580.255 20.7705 579.191 20.4283C578.623 20.2453 578.31 19.6361 578.493 19.0676ZM365.784 19.6698C365.975 20.2359 365.67 20.8492 365.104 21.0397C364.068 21.3884 363.039 21.74 362.018 22.0943C361.453 22.2899 360.837 21.9911 360.641 21.4269C360.446 20.8626 360.745 20.2465 361.309 20.0508C362.337 19.6944 363.372 19.3407 364.414 18.9898C364.98 18.7993 365.594 19.1038 365.784 19.6698ZM584.829 21.1441C585.021 20.5785 585.635 20.2757 586.201 20.4677C587.248 20.823 588.289 21.1811 589.324 21.5419C589.888 21.7384 590.186 22.3549 589.99 22.9189C589.793 23.4828 589.177 23.7808 588.613 23.5843C587.583 23.2254 586.547 22.8692 585.506 22.5157C584.94 22.3237 584.637 21.7096 584.829 21.1441ZM359.591 21.7965C359.792 22.359 359.499 22.9778 358.936 23.1786C357.917 23.5426 356.905 23.9091 355.901 24.2779C355.34 24.4838 354.719 24.1963 354.513 23.6356C354.307 23.075 354.595 22.4536 355.155 22.2477C356.165 21.8767 357.183 21.508 358.209 21.1418C358.771 20.9409 359.39 21.2341 359.591 21.7965ZM591.033 23.2868C591.234 22.7244 591.852 22.4314 592.415 22.6324C593.461 23.0064 594.502 23.3831 595.537 23.7626C596.097 23.9682 596.385 24.5894 596.18 25.1502C595.974 25.7109 595.353 25.9988 594.792 25.7932C593.763 25.4157 592.728 25.041 591.687 24.669C591.124 24.468 590.832 23.8492 591.033 23.2868ZM353.493 24.0155C353.704 24.5742 353.422 25.1982 352.863 25.4092C351.835 25.7975 350.815 26.1881 349.803 26.5806C349.246 26.7967 348.62 26.5204 348.404 25.9637C348.188 25.4069 348.464 24.7803 349.021 24.5643C350.039 24.1694 351.065 23.7765 352.099 23.3858C352.658 23.1748 353.282 23.4567 353.493 24.0155ZM597.286 25.561C597.496 25.002 598.12 24.7193 598.679 24.9296C599.72 25.3214 600.756 25.7159 601.785 26.1132C602.343 26.3282 602.62 26.9541 602.405 27.5113C602.19 28.0686 601.564 28.346 601.007 28.131C599.983 27.736 598.953 27.3436 597.917 26.9539C597.358 26.7436 597.076 26.12 597.286 25.561ZM347.398 26.359C347.619 26.9139 347.349 27.5428 346.794 27.7639C345.787 28.1652 344.789 28.5682 343.799 28.9728C343.246 29.1988 342.615 28.9339 342.389 28.381C342.163 27.8282 342.428 27.1968 342.981 26.9708C343.976 26.5638 344.98 26.1584 345.994 25.7547C346.548 25.5336 347.177 25.8042 347.398 26.359ZM603.454 27.9209C603.673 27.3655 604.301 27.0933 604.857 27.313C605.875 27.7156 606.887 28.1208 607.893 28.5286C608.447 28.7529 608.714 29.3835 608.49 29.937C608.265 30.4905 607.635 30.7574 607.081 30.5331C606.08 30.1275 605.074 29.7246 604.061 29.3242C603.506 29.1046 603.234 28.4763 603.454 27.9209ZM341.344 28.8137C341.575 29.3644 341.316 29.9982 340.765 30.2293C339.764 30.6495 338.772 31.0711 337.789 31.4937C337.241 31.7297 336.604 31.4763 336.368 30.9276C336.132 30.379 336.386 29.7429 336.935 29.5069C337.923 29.0818 338.921 28.6577 339.929 28.2349C340.479 28.0038 341.113 28.263 341.344 28.8137ZM609.58 30.3842C609.809 29.8327 610.442 29.5713 610.993 29.8004C612.026 30.2296 613.053 30.6615 614.074 31.0961C614.624 31.33 614.879 31.9651 614.645 32.5146C614.411 33.0641 613.776 33.32 613.227 33.086C612.212 32.6539 611.191 32.2245 610.163 31.7977C609.612 31.5686 609.35 30.9358 609.58 30.3842ZM335.381 31.3576C335.622 31.9041 335.374 32.5424 334.828 32.7834C333.817 33.2288 332.817 33.6751 331.828 34.1218C331.284 34.3677 330.644 34.1258 330.398 33.5815C330.152 33.0373 330.394 32.3967 330.938 32.1508C331.933 31.7014 332.939 31.2524 333.955 30.8043C334.502 30.5634 335.14 30.8111 335.381 31.3576ZM615.694 32.9666C615.933 32.4191 616.57 32.1689 617.118 32.4076C618.126 32.8474 619.128 33.2898 620.125 33.7347C620.67 33.9783 620.914 34.6178 620.671 35.1631C620.427 35.7084 619.788 35.9531 619.243 35.7095C618.252 35.2672 617.256 34.8274 616.253 34.3901C615.706 34.1513 615.455 33.514 615.694 32.9666ZM329.422 34.0278C329.672 34.5698 329.436 35.2125 328.894 35.4633C327.903 35.922 326.923 36.381 325.954 36.8397C325.414 37.0954 324.769 36.8651 324.514 36.3253C324.258 35.7855 324.488 35.1407 325.028 34.8851C326.003 34.4236 326.989 33.9619 327.986 33.5004C328.528 33.2496 329.171 33.4858 329.422 34.0278ZM621.698 35.6273C621.946 35.0842 622.588 34.8453 623.131 35.0937C624.153 35.561 625.168 36.031 626.177 36.5035C626.718 36.7569 626.951 37.4007 626.697 37.9415C626.444 38.4824 625.8 38.7154 625.259 38.462C624.257 37.9923 623.247 37.5251 622.232 37.0605C621.688 36.8121 621.45 36.1704 621.698 35.6273ZM323.502 36.8103C323.763 37.3477 323.538 37.9945 323.001 38.2551C322.029 38.7265 321.069 39.1973 320.122 39.6672C319.587 39.9326 318.938 39.7141 318.673 39.1791C318.407 38.644 318.626 37.9951 319.161 37.7297C320.114 37.257 321.079 36.7833 322.057 36.3091C322.594 36.0485 323.241 36.2729 323.502 36.8103ZM627.741 38.4361C627.999 37.8976 628.645 37.6704 629.183 37.9288C630.179 38.4064 631.168 38.8865 632.151 39.369C632.687 39.6322 632.908 40.2802 632.645 40.8163C632.382 41.3524 631.734 41.5736 631.198 41.3104C630.221 40.8308 629.238 40.3536 628.248 39.8788C627.709 39.6205 627.482 38.9746 627.741 38.4361ZM317.663 39.686C317.933 40.2185 317.72 40.8694 317.188 41.1398C316.21 41.6361 315.247 42.131 314.298 42.6238C313.768 42.8991 313.115 42.6926 312.84 42.1626C312.565 41.6325 312.771 40.9797 313.301 40.7045C314.256 40.2086 315.225 39.7107 316.209 39.2113C316.741 38.9409 317.392 39.1534 317.663 39.686ZM633.628 41.3045C633.896 40.7709 634.546 40.5556 635.08 40.8237C636.086 41.3291 637.085 41.837 638.077 42.3474C638.608 42.6206 638.817 43.2726 638.544 43.8037C638.27 44.3348 637.618 44.5438 637.087 44.2706C636.101 43.7634 635.108 43.2586 634.109 42.7563C633.575 42.4882 633.36 41.8382 633.628 41.3045ZM311.899 42.6568C312.179 43.1842 311.978 43.8389 311.451 44.1191C310.467 44.6416 309.5 45.1613 308.55 45.6776C308.025 45.9627 307.369 45.7685 307.083 45.2437C306.798 44.7189 306.992 44.0623 307.517 43.7772C308.473 43.2576 309.447 42.7347 310.437 42.209C310.964 41.9288 311.619 42.1293 311.899 42.6568ZM639.575 44.3405C639.854 43.8121 640.508 43.6092 641.036 43.8875C642.016 44.4032 642.988 44.9213 643.954 45.4417C644.48 45.725 644.677 46.3809 644.393 46.9067C644.11 47.4325 643.454 47.6291 642.929 47.3458C641.969 46.8287 641.002 46.3138 640.028 45.8012C639.5 45.523 639.297 44.869 639.575 44.3405ZM306.17 45.7453C306.46 46.2674 306.272 46.9258 305.75 47.2158C304.771 47.7595 303.812 48.2987 302.872 48.8326C302.353 49.1277 301.693 48.946 301.398 48.4268C301.103 47.9076 301.284 47.2474 301.804 46.9523C302.749 46.4149 303.715 45.8722 304.7 45.3251C305.222 45.0351 305.88 45.2232 306.17 45.7453ZM645.363 47.4349C645.651 46.9118 646.309 46.7214 646.832 47.0097C647.813 47.5501 648.786 48.0928 649.753 48.6378C650.273 48.9311 650.457 49.5907 650.163 50.1109C649.87 50.6311 649.21 50.8151 648.69 50.5217C647.73 49.9802 646.763 49.4409 645.788 48.9039C645.265 48.6157 645.075 47.9579 645.363 47.4349ZM300.475 48.9571C300.775 49.4735 300.6 50.1354 300.084 50.4355C299.119 50.9959 298.178 51.5497 297.259 52.0958C296.746 52.401 296.082 52.2323 295.777 51.719C295.472 51.2057 295.64 50.5421 296.154 50.2368C297.078 49.6871 298.026 49.1297 298.997 48.5655C299.513 48.2654 300.175 48.4407 300.475 48.9571ZM651.177 50.6893C651.476 50.1719 652.137 49.9946 652.654 50.293C653.614 50.847 654.567 51.4031 655.513 51.9613C656.027 52.2649 656.198 52.928 655.895 53.4423C655.591 53.9566 654.928 54.1275 654.414 53.8239C653.474 53.2693 652.527 52.7168 651.573 52.1664C651.056 51.8679 650.879 51.2066 651.177 50.6893ZM294.858 52.2716C295.169 52.7818 295.007 53.4471 294.496 53.7575C293.538 54.3407 292.608 54.9135 291.707 55.4749C291.2 55.7907 290.533 55.6357 290.217 55.1288C289.901 54.6219 290.056 53.9549 290.563 53.6392C291.471 53.0738 292.407 52.497 293.372 51.9098C293.882 51.5994 294.548 51.7614 294.858 52.2716ZM656.844 54.0092C657.153 53.4978 657.818 53.3335 658.329 53.6422C659.287 54.2202 660.237 54.8004 661.18 55.3826C661.688 55.6964 661.846 56.3628 661.532 56.8709C661.218 57.3791 660.552 57.5367 660.044 57.2229C659.107 56.6445 658.163 56.0681 657.211 55.4938C656.7 55.1852 656.536 54.5205 656.844 54.0092ZM289.33 55.6876C289.651 56.1912 289.503 56.8597 289 57.1809C288.036 57.7954 287.111 58.3934 286.225 58.9731C285.725 59.3 285.055 59.1598 284.728 58.66C284.401 58.1602 284.541 57.49 285.041 57.1631C285.934 56.5789 286.866 55.9764 287.837 55.3574C288.34 55.0362 289.009 55.1841 289.33 55.6876ZM662.522 57.4891C662.841 56.9841 663.509 56.8334 664.014 57.1523C664.951 57.7442 665.88 58.3379 666.802 58.9336C667.304 59.2576 667.448 59.927 667.124 60.4287C666.8 60.9304 666.13 61.0743 665.629 60.7503C664.713 60.1586 663.789 59.5688 662.859 58.9809C662.354 58.6619 662.203 57.994 662.522 57.4891ZM283.846 59.2437C284.179 59.7396 284.047 60.4114 283.551 60.7442C282.604 61.3794 281.712 61.9869 280.875 62.5637C280.384 62.9028 279.71 62.779 279.371 62.2873C279.032 61.7956 279.156 61.1222 279.648 60.7832C280.492 60.2012 281.391 59.5886 282.346 58.9482C282.842 58.6154 283.514 58.7477 283.846 59.2437ZM668.047 61.0321C668.377 60.5338 669.047 60.3966 669.546 60.7258C670.482 61.3444 671.411 61.9648 672.332 62.587C672.827 62.9213 672.957 63.5935 672.623 64.0884C672.288 64.5833 671.616 64.7134 671.121 64.3791C670.206 63.7611 669.284 63.1449 668.354 62.5305C667.856 62.2013 667.718 61.5305 668.047 61.0321ZM278.442 62.9374C278.788 63.4242 278.674 64.0993 278.187 64.4453C277.199 65.1473 276.322 65.7832 275.558 66.3453C275.077 66.6993 274.4 66.5963 274.046 66.1153C273.692 65.6342 273.795 64.9573 274.276 64.6033C275.05 64.0343 275.936 63.3915 276.934 62.6825C277.421 62.3364 278.096 62.4506 278.442 62.9374ZM673.582 64.7439C673.921 64.2526 674.595 64.1295 675.086 64.4691C675.997 65.0981 676.899 65.7288 677.794 66.3609C678.281 66.7056 678.397 67.3804 678.053 67.8681C677.708 68.3559 677.033 68.4719 676.545 68.1272C675.657 67.4994 674.761 66.8731 673.857 66.2484C673.365 65.9088 673.242 65.2353 673.582 64.7439ZM273.195 66.7532C273.559 67.2263 273.471 67.9053 272.998 68.2698C272.591 68.5835 272.285 68.8242 272.081 68.9856C271.979 69.0664 271.903 69.1273 271.853 69.1677L271.797 69.2128L271.784 69.2236L271.781 69.226C271.318 69.6032 270.636 69.5341 270.259 69.071C269.882 68.608 269.951 67.9268 270.414 67.5496L270.416 67.5481L270.437 67.5315L270.498 67.4819C270.552 67.4386 270.632 67.3746 270.738 67.2908C270.949 67.1233 271.263 66.8766 271.678 66.5567C272.151 66.1921 272.83 66.2801 273.195 66.7532ZM678.954 68.5125C679.304 68.0284 679.98 67.9194 680.464 68.2692C681.377 68.9288 682.282 69.5898 683.178 70.2522C683.658 70.6072 683.76 71.2844 683.405 71.7646C683.05 72.2449 682.373 72.3465 681.892 71.9915C681.002 71.3338 680.104 70.6773 679.198 70.0223C678.713 69.6726 678.605 68.9966 678.954 68.5125ZM684.327 72.454C684.687 71.9776 685.365 71.8833 685.842 72.2435C686.722 72.9085 687.593 73.5747 688.457 74.2421C688.929 74.6073 689.016 75.2865 688.651 75.759C688.286 76.2315 687.607 76.3185 687.134 75.9533C686.277 75.2907 685.411 74.6291 684.538 73.9688C684.061 73.6087 683.967 72.9305 684.327 72.454ZM689.553 76.4637C689.923 75.9952 690.603 75.9156 691.071 76.286C691.951 76.9816 692.823 77.6783 693.685 78.3759C694.15 78.7514 694.222 79.4323 693.846 79.8967C693.471 80.3611 692.79 80.4331 692.325 80.0576C691.469 79.3651 690.604 78.6734 689.73 77.9827C689.262 77.6123 689.182 76.9323 689.553 76.4637ZM694.725 80.6152C695.105 80.1549 695.787 80.0904 696.247 80.471C697.093 81.1709 697.931 81.8714 698.76 82.5726C699.216 82.9582 699.273 83.6406 698.888 84.0966C698.502 84.5526 697.82 84.6096 697.363 84.224C696.54 83.5279 695.709 82.8324 694.869 82.1377C694.409 81.7571 694.344 81.0754 694.725 80.6152ZM699.791 84.8699C700.182 84.4183 700.865 84.369 701.317 84.7598C702.16 85.4894 702.994 86.2195 703.819 86.9499C704.266 87.3458 704.308 88.0292 703.912 88.4764C703.516 88.9235 702.832 88.9651 702.385 88.5692C701.566 87.8442 700.738 87.1195 699.902 86.3952C699.45 86.0044 699.401 85.3215 699.791 84.8699ZM704.74 89.2175C705.14 88.7748 705.824 88.7409 706.267 89.1418C707.097 89.8932 707.917 90.6446 708.728 91.3961C709.166 91.802 709.192 92.4862 708.786 92.9243C708.38 93.3624 707.696 93.3884 707.258 92.9825C706.453 92.2366 705.639 91.4907 704.815 90.745C704.372 90.3441 704.339 89.6602 704.74 89.2175ZM709.634 93.7191C710.045 93.2858 710.729 93.2676 711.163 93.6786C711.965 94.4393 712.757 95.1998 713.541 95.9598C713.969 96.3758 713.979 97.0604 713.564 97.489C713.148 97.9176 712.463 97.9279 712.034 97.512C711.257 96.7576 710.47 96.0029 709.674 95.2479C709.241 94.8369 709.223 94.1525 709.634 93.7191ZM714.379 98.2899C714.8 97.8661 715.485 97.8638 715.909 98.2847C716.705 99.0759 717.492 99.8665 718.268 100.656C718.687 101.082 718.681 101.767 718.256 102.186C717.83 102.604 717.145 102.599 716.726 102.173C715.956 101.389 715.175 100.604 714.385 99.8192C713.961 99.3983 713.958 98.7136 714.379 98.2899ZM719.039 102.992C719.47 102.578 720.155 102.592 720.568 103.023C721.339 103.824 722.099 104.625 722.848 105.424C723.257 105.86 723.235 106.544 722.8 106.953C722.364 107.362 721.68 107.34 721.271 106.904C720.527 106.111 719.773 105.317 719.009 104.521C718.595 104.09 718.609 103.406 719.039 102.992ZM723.597 107.813C724.037 107.41 724.721 107.44 725.125 107.88C725.873 108.698 726.611 109.513 727.338 110.327C727.736 110.772 727.698 111.455 727.253 111.854C726.808 112.252 726.124 112.213 725.726 111.768C725.004 110.961 724.272 110.152 723.53 109.341C723.126 108.901 723.157 108.217 723.597 107.813ZM728.009 112.709C728.458 112.316 729.142 112.363 729.534 112.813C730.274 113.66 731.001 114.505 731.718 115.347C732.106 115.802 732.051 116.484 731.596 116.871C731.141 117.258 730.459 117.203 730.072 116.749C729.36 115.913 728.638 115.075 727.905 114.235C727.512 113.785 727.559 113.102 728.009 112.709ZM732.313 117.724C732.773 117.343 733.454 117.406 733.836 117.865C734.553 118.728 735.258 119.588 735.952 120.445C736.328 120.909 736.256 121.59 735.792 121.966C735.328 122.342 734.647 122.27 734.271 121.806C733.583 120.956 732.883 120.103 732.172 119.247C731.791 118.788 731.854 118.106 732.313 117.724ZM736.515 122.869C736.983 122.499 737.663 122.579 738.033 123.048C738.715 123.912 739.386 124.772 740.045 125.628C740.409 126.102 740.321 126.781 739.847 127.145C739.374 127.509 738.695 127.421 738.331 126.947C737.677 126.098 737.012 125.245 736.336 124.388C735.966 123.919 736.046 123.239 736.515 122.869ZM740.569 128.095C741.047 127.737 741.725 127.834 742.083 128.312C742.751 129.204 743.407 130.091 744.05 130.972C744.403 131.455 744.297 132.131 743.815 132.483C743.332 132.835 742.656 132.73 742.303 132.247C741.666 131.373 741.015 130.494 740.352 129.609C739.994 129.131 740.091 128.454 740.569 128.095ZM744.479 133.406C744.966 133.06 745.641 133.174 745.987 133.661C746.64 134.58 747.28 135.494 747.906 136.4C748.246 136.892 748.122 137.565 747.631 137.905C747.14 138.244 746.466 138.121 746.127 137.63C745.506 136.731 744.871 135.825 744.223 134.913C743.878 134.426 743.992 133.751 744.479 133.406ZM748.244 138.804C748.74 138.471 749.412 138.603 749.745 139.099C750.382 140.046 751.004 140.986 751.611 141.916C751.938 142.416 751.797 143.086 751.297 143.413C750.797 143.739 750.127 143.599 749.8 143.098C749.198 142.176 748.581 141.245 747.95 140.305C747.617 139.809 747.749 139.137 748.244 138.804ZM751.898 144.348C752.403 144.028 753.071 144.177 753.391 144.682C753.998 145.64 754.59 146.588 755.166 147.525C755.479 148.034 755.32 148.7 754.811 149.013C754.302 149.325 753.636 149.167 753.323 148.658C752.752 147.729 752.166 146.79 751.564 145.84C751.244 145.335 751.394 144.667 751.898 144.348ZM755.395 149.976C755.908 149.671 756.572 149.839 756.877 150.352C757.457 151.325 758.02 152.285 758.567 153.231C758.865 153.749 758.688 154.41 758.171 154.708C757.653 155.007 756.992 154.83 756.693 154.312C756.152 153.375 755.594 152.423 755.02 151.459C754.714 150.946 754.882 150.282 755.395 149.976ZM758.728 155.691C759.25 155.4 759.909 155.586 760.2 156.108C760.755 157.102 761.291 158.08 761.808 159.039C762.091 159.565 761.895 160.221 761.369 160.504C760.844 160.788 760.188 160.591 759.904 160.065C759.392 159.115 758.861 158.147 758.311 157.162C758.02 156.641 758.207 155.982 758.728 155.691ZM761.889 161.485C762.419 161.21 763.072 161.416 763.347 161.946C763.88 162.969 764.389 163.969 764.878 164.945C765.145 165.479 764.928 166.129 764.394 166.396C763.86 166.663 763.21 166.447 762.943 165.913C762.46 164.947 761.956 163.957 761.429 162.944C761.153 162.414 761.359 161.761 761.889 161.485ZM764.88 167.385C765.418 167.127 766.064 167.353 766.323 167.892C766.824 168.936 767.299 169.947 767.748 170.923C767.998 171.466 767.76 172.108 767.218 172.358C766.675 172.607 766.033 172.37 765.783 171.827C765.339 170.862 764.87 169.862 764.373 168.828C764.115 168.29 764.341 167.644 764.88 167.385ZM767.696 173.423C768.243 173.183 768.881 173.432 769.121 173.979C769.59 175.05 770.024 176.068 770.424 177.031C770.653 177.582 770.392 178.215 769.841 178.444C769.289 178.674 768.656 178.412 768.427 177.861C768.032 176.911 767.604 175.905 767.14 174.847C766.9 174.3 767.149 173.663 767.696 173.423ZM770.266 179.495C770.822 179.278 771.449 179.552 771.667 180.108C772.123 181.275 772.516 182.324 772.851 183.247C773.055 183.809 772.765 184.429 772.203 184.632C771.642 184.836 771.021 184.546 770.818 183.985C770.489 183.078 770.102 182.046 769.652 180.896C769.435 180.34 769.709 179.713 770.266 179.495ZM772.565 185.671C773.133 185.486 773.743 185.797 773.928 186.365C774.096 186.88 774.218 187.275 774.3 187.543C774.34 187.677 774.37 187.779 774.391 187.848L774.414 187.928L774.421 187.955L774.422 187.957C774.584 188.532 774.249 189.13 773.674 189.292C773.099 189.454 772.502 189.118 772.34 188.544" fill="#0F0F10"/>
<path fill-rule="evenodd" clip-rule="evenodd" d="M85.826 360.284C85.9112 360.834 85.5341 361.349 84.9838 361.435C84.4866 361.512 83.992 361.599 83.5001 361.697C82.9539 361.805 82.4232 361.45 82.3147 360.904C82.2063 360.358 82.5611 359.827 83.1073 359.719C83.6271 359.615 84.1498 359.523 84.6753 359.442C85.2256 359.357 85.7408 359.734 85.826 360.284ZM81.2719 361.157C81.4255 361.693 81.1162 362.251 80.5809 362.405C79.6184 362.681 78.6667 362.997 77.7265 363.352C77.2054 363.548 76.6237 363.285 76.4273 362.764C76.2308 362.243 76.494 361.661 77.0151 361.465C78.0054 361.091 79.0087 360.758 80.0245 360.466C80.5597 360.313 81.1182 360.622 81.2719 361.157ZM75.4402 363.181C75.6764 363.686 75.459 364.286 74.9547 364.522C74.0474 364.947 73.1517 365.408 72.2679 365.904C71.7823 366.177 71.1677 366.004 70.8951 365.519C70.6225 365.033 70.7952 364.418 71.2808 364.146C72.2066 363.626 73.1463 363.142 74.0995 362.696C74.6038 362.46 75.2041 362.677 75.4402 363.181ZM69.9816 366.075C70.287 366.541 70.1571 367.166 69.6914 367.471C68.8556 368.019 68.0316 368.599 67.2199 369.21C66.7749 369.545 66.1427 369.455 65.808 369.01C65.4732 368.565 65.5626 367.933 66.0076 367.598C66.853 366.962 67.7124 366.357 68.5855 365.785C69.0512 365.479 69.6762 365.609 69.9816 366.075ZM64.9609 369.69C65.3219 370.114 65.2709 370.75 64.8469 371.111C64.0861 371.759 63.3373 372.434 62.6011 373.136C62.1979 373.52 61.5597 373.505 61.1755 373.102C60.7914 372.698 60.8068 372.06 61.2099 371.676C61.9727 370.949 62.7493 370.249 63.5395 369.576C63.9635 369.215 64.5999 369.266 64.9609 369.69ZM60.4179 373.864C60.8226 374.246 60.8405 374.884 60.458 375.289C59.7654 376.022 59.085 376.778 58.4175 377.558C58.0552 377.981 57.4187 378.03 56.9958 377.668C56.5728 377.305 56.5236 376.669 56.8859 376.246C57.5743 375.442 58.2766 374.661 58.9925 373.904C59.375 373.499 60.0132 373.481 60.4179 373.864ZM56.3237 378.491C56.7627 378.833 56.8408 379.467 56.4982 379.906C55.8764 380.702 55.2671 381.519 54.6705 382.356C54.3471 382.809 53.7174 382.914 53.2641 382.591C52.8107 382.267 52.7054 381.638 53.0289 381.184C53.6419 380.325 54.2685 379.485 54.9085 378.665C55.2511 378.226 55.8847 378.148 56.3237 378.491ZM52.6611 383.474C53.1271 383.779 53.2578 384.404 52.9529 384.87C52.4001 385.715 51.8596 386.577 51.3318 387.456C51.045 387.933 50.4255 388.087 49.9482 387.801C49.4709 387.514 49.3164 386.894 49.6032 386.417C50.144 385.517 50.6982 384.633 51.2654 383.766C51.5702 383.3 52.1951 383.169 52.6611 383.474ZM49.4086 388.738C49.8961 389.007 50.0731 389.62 49.8038 390.108C49.3158 390.992 48.8401 391.89 48.3771 392.801C48.1249 393.298 47.518 393.496 47.0215 393.244C46.525 392.992 46.3269 392.385 46.5791 391.888C47.0525 390.956 47.5391 390.037 48.0386 389.133C48.3078 388.645 48.9212 388.469 49.4086 388.738ZM46.5452 394.222C47.0499 394.458 47.2681 395.058 47.0326 395.562C46.6057 396.477 46.1911 397.405 45.7891 398.343C45.5698 398.855 44.9771 399.092 44.4653 398.873C43.9534 398.654 43.7161 398.061 43.9354 397.549C44.3457 396.591 44.769 395.644 45.2052 394.71C45.4406 394.205 46.0406 393.987 46.5452 394.222ZM44.0547 399.875C44.5731 400.078 44.8286 400.663 44.6253 401.182C44.2554 402.125 43.8979 403.079 43.5532 404.042C43.3655 404.566 42.7883 404.839 42.264 404.651C41.7397 404.464 41.4669 403.887 41.6545 403.362C42.006 402.381 42.3705 401.408 42.7479 400.446C42.9512 399.927 43.5362 399.672 44.0547 399.875ZM41.9156 405.672C42.4452 405.845 42.7348 406.413 42.5626 406.943C42.2483 407.909 41.9466 408.884 41.6578 409.866C41.5008 410.401 40.9404 410.707 40.4061 410.549C39.8718 410.392 39.566 409.832 39.7231 409.298C40.0172 408.297 40.3246 407.304 40.6449 406.319C40.8171 405.79 41.386 405.5 41.9156 405.672ZM40.1173 411.586C40.6558 411.728 40.9772 412.28 40.8352 412.818C40.5756 413.802 40.3288 414.794 40.0951 415.791C39.968 416.333 39.4255 416.67 38.8833 416.542C38.3411 416.415 38.0046 415.873 38.1317 415.331C38.3696 414.315 38.6209 413.306 38.8852 412.304C39.0272 411.765 39.5788 411.444 40.1173 411.586ZM38.6526 417.592C39.198 417.704 39.5493 418.237 39.4371 418.782C39.2317 419.781 39.0394 420.785 38.8603 421.793C38.763 422.341 38.2396 422.707 37.6913 422.609C37.143 422.512 36.7774 421.989 36.8748 421.44C37.057 420.414 37.2528 419.393 37.4618 418.376C37.574 417.831 38.1071 417.48 38.6526 417.592ZM37.5179 423.669C38.0686 423.751 38.4481 424.265 38.3656 424.816C38.2144 425.825 38.0765 426.837 37.9522 427.853C37.8846 428.406 37.3816 428.799 36.8289 428.732C36.2761 428.664 35.8829 428.161 35.9505 427.608C36.0771 426.574 36.2174 425.544 36.3713 424.517C36.4538 423.966 36.9672 423.586 37.5179 423.669ZM36.7129 429.799C37.2672 429.852 37.6739 430.344 37.6212 430.898C37.5246 431.914 37.4416 432.933 37.3725 433.953C37.3349 434.509 36.8539 434.929 36.2984 434.891C35.7428 434.853 35.3229 434.372 35.3605 433.817C35.4309 432.778 35.5153 431.741 35.6137 430.707C35.6664 430.153 36.1585 429.746 36.7129 429.799ZM36.2404 435.963C36.7968 435.986 37.2296 436.455 37.2072 437.011C37.166 438.031 37.1389 439.053 37.1259 440.074C37.1188 440.631 36.6617 441.077 36.1049 441.07C35.548 441.063 35.1024 440.606 35.1095 440.049C35.1227 439.008 35.1503 437.969 35.1922 436.93C35.2147 436.374 35.6839 435.941 36.2404 435.963ZM36.1061 442.144C36.6629 442.136 37.1212 442.58 37.1297 443.137C37.1453 444.158 37.1752 445.178 37.2197 446.198C37.244 446.755 36.8127 447.225 36.2564 447.25C35.7 447.274 35.2293 446.843 35.205 446.286C35.1597 445.247 35.1292 444.207 35.1133 443.168C35.1048 442.611 35.5493 442.153 36.1061 442.144ZM36.3186 448.323C36.874 448.283 37.357 448.7 37.3973 449.256C37.4713 450.273 37.56 451.29 37.6638 452.304C37.7204 452.858 37.3173 453.353 36.7633 453.41C36.2093 453.467 35.7143 453.064 35.6576 452.51C35.5518 451.475 35.4614 450.439 35.386 449.402C35.3457 448.846 35.7632 448.363 36.3186 448.323ZM36.8887 454.479C37.4407 454.405 37.9476 454.793 38.0209 455.345C38.1552 456.357 38.3047 457.365 38.4697 458.371C38.56 458.92 38.1876 459.439 37.6381 459.529C37.0886 459.619 36.57 459.247 36.4798 458.697C36.3114 457.671 36.1588 456.642 36.0218 455.611C35.9485 455.059 36.3366 454.552 36.8887 454.479ZM37.829 460.588C38.3754 460.481 38.9055 460.837 39.013 461.383C39.2098 462.384 39.4224 463.38 39.651 464.372C39.7761 464.915 39.4376 465.456 38.8949 465.581C38.3523 465.706 37.811 465.368 37.6859 464.825C37.4524 463.812 37.2353 462.794 37.0343 461.772C36.9268 461.226 37.2826 460.696 37.829 460.588ZM39.1539 466.626C39.6921 466.483 40.2443 466.804 40.3873 467.342C40.649 468.327 40.9271 469.307 41.2216 470.28C41.3829 470.813 41.0815 471.376 40.5485 471.537C40.0155 471.699 39.4527 471.397 39.2914 470.864C38.9901 469.868 38.7058 468.867 38.4383 467.86C38.2953 467.321 38.6157 466.769 39.1539 466.626ZM40.8778 472.562C41.4049 472.382 41.9779 472.664 42.1577 473.191C42.4866 474.155 42.8323 475.112 43.1951 476.062C43.3938 476.582 43.1331 477.165 42.6129 477.364C42.0926 477.562 41.5099 477.302 41.3112 476.781C40.9397 475.809 40.5857 474.828 40.2491 473.842C40.0693 473.315 40.3508 472.742 40.8778 472.562ZM43.0148 478.361C43.5273 478.143 44.1193 478.382 44.3371 478.895C44.7351 479.832 45.1504 480.76 45.5833 481.68C45.8204 482.184 45.6041 482.785 45.1002 483.022C44.5963 483.259 43.9956 483.043 43.7586 482.539C43.3147 481.595 42.8889 480.643 42.4811 479.684C42.2633 479.171 42.5023 478.579 43.0148 478.361ZM45.5763 483.985C46.0706 483.729 46.6792 483.922 46.9357 484.416C47.4041 485.318 47.8902 486.211 48.3943 487.094C48.6703 487.578 48.502 488.194 48.0184 488.47C47.5348 488.746 46.9189 488.578 46.6429 488.094C46.1253 487.187 45.6264 486.271 45.1458 485.345C44.8893 484.851 45.082 484.242 45.5763 483.985ZM48.5695 489.392C49.0415 489.096 49.6637 489.239 49.9593 489.711C50.4981 490.572 51.0551 491.421 51.6305 492.26C51.9455 492.72 51.8285 493.347 51.3693 493.662C50.9101 493.977 50.2825 493.86 49.9675 493.401C49.3761 492.539 48.8038 491.665 48.2502 490.781C47.9546 490.31 48.0976 489.687 48.5695 489.392ZM51.9952 494.535C52.4406 494.2 53.0727 494.291 53.4068 494.736C54.0151 495.547 54.6417 496.346 55.2869 497.133C55.6399 497.564 55.577 498.199 55.1464 498.552C54.7157 498.905 54.0804 498.842 53.7274 498.412C53.0637 497.602 52.4192 496.78 51.7937 495.946C51.4595 495.501 51.5497 494.869 51.9952 494.535ZM55.8452 499.368C56.2601 498.996 56.8975 499.031 57.269 499.446C57.9439 500.2 58.6373 500.941 59.3493 501.669C59.7386 502.068 59.7314 502.706 59.3333 503.095C58.9351 503.485 58.2968 503.477 57.9074 503.079C57.1747 502.33 56.4612 501.567 55.7667 500.792C55.3952 500.377 55.4304 499.739 55.8452 499.368ZM60.1014 503.847C60.482 503.44 61.1201 503.419 61.5266 503.8C62.264 504.49 63.0196 505.167 63.7938 505.831C64.2167 506.193 64.2658 506.829 63.9035 507.252C63.5413 507.675 62.9047 507.724 62.4818 507.362C61.6851 506.679 60.9073 505.983 60.1484 505.272C59.7419 504.891 59.7208 504.253 60.1014 503.847ZM64.735 507.933C65.0783 507.495 65.7121 507.418 66.1505 507.761C66.5524 508.076 66.959 508.387 67.3702 508.695C67.8161 509.028 67.9071 509.66 67.5735 510.106C67.2399 510.552 66.608 510.643 66.1621 510.31C65.7391 509.993 65.3207 509.673 64.9071 509.349C64.4687 509.005 64.3916 508.372 64.735 507.933Z" fill="#0F0F10"/>
<path fill-rule="evenodd" clip-rule="evenodd" d="M805.457 638.03C805.942 638.379 806.052 639.054 805.704 639.539C805.381 639.988 805.054 640.43 804.724 640.866C804.363 641.342 803.685 641.435 803.209 641.074C802.733 640.713 802.64 640.035 803.001 639.559C803.32 639.138 803.635 638.711 803.948 638.276C804.296 637.792 804.972 637.681 805.457 638.03ZM802.569 641.875C803.026 642.26 803.085 642.942 802.7 643.399C801.993 644.24 801.271 645.052 800.536 645.839C800.128 646.275 799.443 646.297 799.007 645.889C798.571 645.481 798.548 644.797 798.956 644.361C799.666 643.603 800.363 642.818 801.046 642.006C801.43 641.55 802.112 641.491 802.569 641.875ZM798.296 646.611C798.709 647.042 798.696 647.726 798.265 648.14C797.473 648.902 796.666 649.635 795.847 650.341C795.394 650.731 794.711 650.68 794.322 650.227C793.932 649.775 793.983 649.092 794.435 648.702C795.225 648.022 796.002 647.315 796.766 646.581C797.197 646.167 797.882 646.181 798.296 646.611ZM793.525 650.877C793.89 651.35 793.802 652.029 793.329 652.394C792.465 653.06 791.589 653.698 790.701 654.309C790.209 654.647 789.535 654.523 789.197 654.031C788.858 653.539 788.983 652.865 789.475 652.527C790.331 651.938 791.176 651.323 792.008 650.681C792.481 650.316 793.16 650.404 793.525 650.877ZM686.005 652.606C686.244 652.059 686.881 651.809 687.428 652.048L687.433 652.05L687.448 652.056L687.514 652.085C687.572 652.11 687.661 652.148 687.779 652.197C688.014 652.296 688.365 652.442 688.824 652.627C689.378 652.851 689.646 653.481 689.422 654.035C689.199 654.589 688.569 654.856 688.015 654.633C687.545 654.443 687.184 654.293 686.94 654.191C686.817 654.139 686.724 654.099 686.661 654.072L686.589 654.041L686.57 654.033L686.563 654.03C686.016 653.791 685.766 653.153 686.005 652.606ZM690.393 654.41C690.603 653.851 691.226 653.567 691.785 653.776C692.669 654.107 693.675 654.474 694.793 654.867C695.357 655.065 695.653 655.682 695.455 656.246C695.257 656.809 694.64 657.105 694.076 656.907C692.944 656.509 691.924 656.137 691.027 655.802C690.468 655.592 690.184 654.969 690.393 654.41ZM788.327 654.595C788.639 655.105 788.479 655.77 787.969 656.082C787.042 656.649 786.104 657.189 785.156 657.703C784.631 657.988 783.975 657.793 783.69 657.268C783.406 656.743 783.6 656.086 784.125 655.802C785.041 655.306 785.946 654.784 786.84 654.237C787.35 653.926 788.015 654.086 788.327 654.595ZM696.451 656.585C696.639 656.018 697.25 655.71 697.817 655.898C698.77 656.213 699.779 656.538 700.839 656.868C701.409 657.046 701.727 657.652 701.55 658.222C701.372 658.792 700.766 659.111 700.196 658.933C699.123 658.599 698.103 658.27 697.138 657.951C696.571 657.764 696.263 657.152 696.451 656.585ZM782.767 657.738C783.024 658.277 782.796 658.922 782.257 659.18C781.277 659.648 780.289 660.09 779.292 660.507C778.741 660.737 778.107 660.477 777.877 659.926C777.646 659.375 777.906 658.742 778.457 658.511C779.422 658.108 780.378 657.68 781.325 657.228C781.864 656.971 782.509 657.199 782.767 657.738ZM702.545 658.523C702.713 657.949 703.313 657.621 703.886 657.788C704.868 658.075 705.883 658.364 706.931 658.651C707.507 658.809 707.846 659.404 707.688 659.98C707.53 660.556 706.935 660.895 706.359 660.737C705.299 660.446 704.272 660.155 703.279 659.864C702.706 659.696 702.377 659.096 702.545 658.523ZM708.678 660.242C708.826 659.663 709.414 659.314 709.993 659.461C710.997 659.718 712.026 659.971 713.076 660.22C713.657 660.358 714.017 660.94 713.879 661.521C713.742 662.103 713.159 662.462 712.578 662.325C711.515 662.073 710.474 661.817 709.458 661.557C708.879 661.409 708.53 660.82 708.678 660.242ZM776.916 660.301C777.12 660.862 776.831 661.483 776.27 661.687C775.251 662.057 774.225 662.404 773.194 662.726C772.624 662.905 772.017 662.587 771.839 662.017C771.66 661.447 771.978 660.841 772.548 660.662C773.549 660.349 774.543 660.013 775.53 659.654C776.092 659.45 776.712 659.74 776.916 660.301ZM714.894 661.752C715.021 661.168 715.597 660.798 716.18 660.925C717.204 661.148 718.246 661.365 719.304 661.574C719.89 661.69 720.271 662.259 720.155 662.845C720.039 663.431 719.47 663.812 718.885 663.696C717.813 663.484 716.758 663.264 715.721 663.038C715.137 662.912 714.767 662.336 714.894 661.752ZM770.846 662.304C770.999 662.881 770.656 663.473 770.079 663.627C769.034 663.905 767.984 664.16 766.931 664.394C766.348 664.524 765.77 664.156 765.641 663.573C765.511 662.99 765.879 662.413 766.462 662.283C767.487 662.055 768.508 661.807 769.523 661.537C770.1 661.383 770.692 661.727 770.846 662.304ZM721.159 663.034C721.264 662.446 721.825 662.054 722.413 662.158C723.444 662.342 724.487 662.517 725.542 662.683C726.132 662.776 726.535 663.329 726.442 663.919C726.35 664.509 725.796 664.912 725.206 664.819C724.136 664.651 723.079 664.473 722.035 664.288C721.447 664.183 721.055 663.622 721.159 663.034ZM764.627 663.777C764.733 664.365 764.344 664.928 763.756 665.035C762.694 665.228 761.628 665.4 760.562 665.553C759.97 665.638 759.422 665.228 759.337 664.637C759.253 664.045 759.663 663.497 760.254 663.412C761.295 663.263 762.334 663.095 763.369 662.907C763.957 662.8 764.52 663.19 764.627 663.777ZM727.473 664.07C727.553 663.479 728.098 663.064 728.69 663.144C729.73 663.286 730.78 663.417 731.838 663.537C732.432 663.605 732.858 664.141 732.791 664.734C732.723 665.327 732.187 665.754 731.594 665.686C730.52 665.564 729.454 665.431 728.399 665.288C727.807 665.207 727.393 664.662 727.473 664.07ZM758.312 664.765C758.376 665.359 757.947 665.892 757.353 665.956C756.28 666.072 755.207 666.17 754.133 666.25C753.538 666.294 753.019 665.848 752.974 665.252C752.93 664.656 753.377 664.138 753.972 664.093C755.022 664.015 756.072 663.919 757.121 663.806C757.715 663.742 758.248 664.171 758.312 664.765ZM733.815 664.839C733.869 664.244 734.395 663.805 734.99 663.859C736.038 663.954 737.094 664.038 738.155 664.108C738.751 664.148 739.202 664.663 739.162 665.259C739.123 665.855 738.607 666.306 738.012 666.266C736.933 666.194 735.86 666.11 734.795 666.013C734.2 665.959 733.761 665.434 733.815 664.839ZM740.195 665.314C740.22 664.718 740.723 664.254 741.32 664.278C742.371 664.321 743.426 664.351 744.484 664.366C745.081 664.375 745.558 664.866 745.55 665.463C745.541 666.061 745.05 666.538 744.453 666.529C743.375 666.513 742.301 666.483 741.231 666.439C740.634 666.415 740.171 665.911 740.195 665.314ZM751.943 665.312C751.969 665.909 751.506 666.414 750.909 666.439C749.832 666.486 748.756 666.516 747.682 666.531C747.085 666.539 746.595 666.061 746.586 665.464C746.578 664.867 747.056 664.376 747.653 664.368C748.706 664.354 749.76 664.324 750.816 664.279C751.412 664.253 751.917 664.716 751.943 665.312Z" fill="#0F0F10"/>
<path fill-rule="evenodd" clip-rule="evenodd" d="M297.261 192.919C297.858 192.919 298.342 193.404 298.342 194.001V245.674C298.342 246.271 297.858 246.755 297.261 246.755C296.664 246.755 296.18 246.271 296.18 245.674V194.001C296.18 193.404 296.664 192.919 297.261 192.919Z" fill="#0F0F10"/>
<path fill-rule="evenodd" clip-rule="evenodd" d="M284.769 218.837C285.366 218.837 285.85 219.322 285.85 219.919V245.674C285.85 246.271 285.366 246.755 284.769 246.755C284.172 246.755 283.688 246.271 283.688 245.674V219.919C283.688 219.322 284.172 218.837 284.769 218.837Z" fill="#0F0F10"/>
<path fill-rule="evenodd" clip-rule="evenodd" d="M487.402 218.755C487.999 218.755 488.483 219.24 488.483 219.837V257.644C488.483 258.241 487.999 258.725 487.402 258.725C486.804 258.725 486.32 258.241 486.32 257.644V219.837C486.32 219.24 486.804 218.755 487.402 218.755Z" fill="#0F0F10"/>
<path fill-rule="evenodd" clip-rule="evenodd" d="M473.222 237.659C473.819 237.659 474.304 238.143 474.304 238.74V254.421C474.304 255.018 473.819 255.502 473.222 255.502C472.625 255.502 472.141 255.018 472.141 254.421V238.74C472.141 238.143 472.625 237.659 473.222 237.659Z" fill="#0F0F10"/>
<path fill-rule="evenodd" clip-rule="evenodd" d="M460.62 227.137C461.218 227.137 461.702 227.621 461.702 228.219V254.422C461.702 255.019 461.218 255.503 460.62 255.503C460.023 255.503 459.539 255.019 459.539 254.422V228.219C459.539 227.621 460.023 227.137 460.62 227.137Z" fill="#0F0F10"/>
<path fill-rule="evenodd" clip-rule="evenodd" d="M309.261 218.755C309.858 218.755 310.342 219.24 310.342 219.837V245.674C310.342 246.271 309.858 246.755 309.261 246.755C308.664 246.755 308.18 246.271 308.18 245.674V219.837C308.18 219.24 308.664 218.755 309.261 218.755Z" fill="#0F0F10"/>
<path fill-rule="evenodd" clip-rule="evenodd" d="M652.183 240.229C652.78 240.229 653.264 240.713 653.264 241.31V252.872C653.264 253.469 652.78 253.953 652.183 253.953C651.586 253.953 651.102 253.469 651.102 252.872V241.31C651.102 240.713 651.586 240.229 652.183 240.229Z" fill="#0F0F10"/>
<path fill-rule="evenodd" clip-rule="evenodd" d="M639.683 223.629C640.28 223.629 640.764 224.114 640.764 224.711V252.872C640.764 253.469 640.28 253.953 639.683 253.953C639.086 253.953 638.602 253.469 638.602 252.872V224.711C638.602 224.114 639.086 223.629 639.683 223.629Z" fill="#0F0F10"/>
<path fill-rule="evenodd" clip-rule="evenodd" d="M664.183 231.685C664.78 231.685 665.264 232.169 665.264 232.766V252.872C665.264 253.469 664.78 253.953 664.183 253.953C663.586 253.953 663.102 253.469 663.102 252.872V232.766C663.102 232.169 663.586 231.685 664.183 231.685Z" fill="#0F0F10"/>
<path d="M342.98 461.604H316.295V510H251.647V461.604H155V412.011L255.798 260H316.315V411.151H343V461.604H342.98ZM251.626 411.151V382.071C251.626 376.591 251.809 369.222 252.216 359.92C252.603 350.64 252.908 345.748 253.133 345.306H251.301C247.535 354.083 243.281 362.292 238.537 369.935L211.69 411.151H251.626Z" fill="#FFF1EB"/>
<path fill-rule="evenodd" clip-rule="evenodd" d="M262.962 260H326.21V409.143H353V462.247H326.19V510H258.021V462.247H161V411.138L262.962 260ZM264.687 263.32L164.271 412.165V458.927H261.291V506.68H322.919V458.927H349.729V412.463H322.939V263.32H264.687ZM258.265 344.195H263.867L262.698 346.466C262.697 346.473 262.696 346.481 262.694 346.49C262.671 346.634 262.643 346.857 262.611 347.173C262.548 347.799 262.479 348.704 262.402 349.901C262.251 352.289 262.077 355.77 261.883 360.345V360.349C261.475 369.512 261.291 376.757 261.291 382.13V412.484H216.494L245.15 369.245C249.859 361.784 254.088 353.763 257.834 345.182L258.265 344.195ZM259.095 350.379C255.723 357.674 251.99 364.565 247.894 371.051L247.884 371.067L222.636 409.164H258.021V382.13C258.021 376.69 258.206 369.391 258.614 360.201C258.614 360.2 258.614 360.2 258.614 360.199L260.249 360.274L258.614 360.203C258.614 360.202 258.614 360.202 258.614 360.201C258.792 356.039 258.952 352.761 259.095 350.379Z" fill="#0F0F10"/>
<path d="M541 385.419C541 428.45 533.694 459.964 519.081 479.978C504.469 499.992 482.115 510 452 510C422.547 510 400.359 499.544 385.416 478.65C370.472 457.758 363 426.674 363 385.419C363 342.162 370.306 310.466 384.919 290.268C399.531 270.09 421.885 260 452 260C481.329 260 503.496 270.498 518.502 291.514C533.507 312.549 541 343.837 541 385.419ZM429.233 385.419C429.233 412.929 430.971 431.82 434.469 442.135C437.946 452.447 443.804 457.595 452 457.595C460.32 457.595 466.178 452.264 469.614 441.624C473.049 430.983 474.747 412.234 474.747 385.398C474.747 358.461 473.008 339.568 469.531 328.765C466.054 317.961 460.196 312.549 452 312.549C443.804 312.549 437.946 317.757 434.469 328.193C430.992 338.629 429.233 357.704 429.233 385.419Z" fill="#FFF1EB"/>
<path fill-rule="evenodd" clip-rule="evenodd" d="M462 262.896C432.784 262.896 411.315 272.708 397.281 292.191C383.178 311.791 376 342.777 376 385.414C376 426.066 383.332 456.445 397.775 476.746C412.151 496.955 433.472 507.104 462 507.104C491.221 507.104 512.691 497.369 526.723 478.046C540.822 458.631 548 427.849 548 385.414C548 344.438 540.649 313.837 526.144 293.414C511.703 273.082 490.402 262.896 462 262.896ZM394.818 290.539C409.517 270.132 432 260 462 260C491.268 260 513.552 270.565 528.618 291.777C543.62 312.9 551 344.19 551 385.414C551 428.045 543.812 459.559 529.18 479.709C514.479 499.953 491.995 510 462 510C432.616 510 410.308 499.48 395.302 478.385C380.361 457.385 373 426.317 373 385.414C373 342.581 380.188 310.869 394.818 290.539ZM450.642 316.19C453.803 313.357 457.625 311.94 462.02 311.94C466.434 311.94 470.262 313.42 473.419 316.355C476.54 319.256 478.937 323.514 480.689 328.988C484.182 339.898 485.885 358.767 485.885 385.394C485.885 411.916 484.223 430.647 480.771 441.397C479.037 446.794 476.647 450.995 473.51 453.857C470.338 456.751 466.481 458.202 462.02 458.202C457.63 458.202 453.81 456.802 450.649 454.002C447.52 451.231 445.116 447.158 443.359 441.918C439.837 431.479 438.137 412.591 438.137 385.414C438.137 358.035 439.837 338.968 443.357 328.41C445.113 323.111 447.516 318.993 450.642 316.19ZM452.684 318.313C450.062 320.662 447.876 324.276 446.214 329.292V329.294C442.855 339.368 441.137 358.01 441.137 385.414C441.137 412.617 442.855 431.075 446.212 441.023L446.213 441.026C447.873 445.98 450.057 449.548 452.677 451.869C455.265 454.16 458.353 455.306 462.02 455.306C465.74 455.306 468.852 454.122 471.45 451.752C474.082 449.35 476.261 445.658 477.905 440.54C481.208 430.253 482.885 411.922 482.885 385.394C482.885 358.767 481.168 340.292 477.823 329.844C476.157 324.64 473.966 320.884 471.338 318.44C468.746 316.031 465.666 314.836 462.02 314.836C458.358 314.836 455.272 315.992 452.684 318.313Z" fill="#0F0F10"/>
<path d="M739 385.419C739 428.45 731.694 459.964 717.081 479.978C702.469 499.992 680.115 510 650 510C620.547 510 598.359 499.544 583.416 478.65C568.472 457.758 561 426.674 561 385.419C561 342.162 568.306 310.466 582.919 290.268C597.531 270.09 619.885 260 650 260C679.329 260 701.496 270.498 716.502 291.514C731.507 312.549 739 343.837 739 385.419ZM627.233 385.419C627.233 412.929 628.971 431.82 632.469 442.135C635.946 452.447 641.804 457.595 650 457.595C658.32 457.595 664.178 452.264 667.614 441.624C671.049 430.983 672.747 412.234 672.747 385.398C672.747 358.461 671.008 339.568 667.531 328.765C664.054 317.961 658.196 312.549 650 312.549C641.804 312.549 635.946 317.757 632.469 328.193C628.992 338.629 627.233 357.704 627.233 385.419Z" fill="#FFF1EB"/>
<path fill-rule="evenodd" clip-rule="evenodd" d="M660 262.896C630.784 262.896 609.315 272.708 595.281 292.191C581.178 311.791 574 342.777 574 385.414C574 426.066 581.332 456.445 595.775 476.746C610.151 496.955 631.472 507.104 660 507.104C689.221 507.104 710.691 497.369 724.723 478.046C738.822 458.631 746 427.849 746 385.414C746 344.438 738.649 313.837 724.144 293.414C709.703 273.082 688.402 262.896 660 262.896ZM592.818 290.539C607.517 270.132 630 260 660 260C689.268 260 711.552 270.565 726.618 291.777C741.62 312.9 749 344.19 749 385.414C749 428.045 741.812 459.559 727.18 479.709C712.479 499.953 689.995 510 660 510C630.616 510 608.308 499.48 593.302 478.385C578.361 457.385 571 426.317 571 385.414C571 342.581 578.188 310.869 592.818 290.539ZM648.642 316.19C651.803 313.357 655.625 311.94 660.02 311.94C664.434 311.94 668.262 313.42 671.419 316.355C674.54 319.256 676.937 323.514 678.689 328.988C682.182 339.898 683.885 358.767 683.885 385.394C683.885 411.916 682.223 430.647 678.771 441.397C677.037 446.794 674.647 450.995 671.51 453.857C668.338 456.751 664.481 458.202 660.02 458.202C655.63 458.202 651.81 456.802 648.649 454.002C645.52 451.231 643.116 447.158 641.359 441.918C637.837 431.479 636.137 412.591 636.137 385.414C636.137 358.035 637.837 338.968 641.357 328.41C643.113 323.111 645.516 318.993 648.642 316.19ZM650.684 318.313C648.062 320.662 645.876 324.276 644.214 329.292V329.294C640.855 339.368 639.137 358.01 639.137 385.414C639.137 412.617 640.855 431.075 644.212 441.023L644.213 441.026C645.873 445.98 648.057 449.548 650.677 451.869C653.265 454.16 656.353 455.306 660.02 455.306C663.74 455.306 666.852 454.122 669.45 451.752C672.082 449.35 674.261 445.658 675.905 440.54C679.208 430.253 680.885 411.922 680.885 385.394C680.885 358.767 679.168 340.292 675.823 329.844C674.157 324.64 671.966 320.884 669.338 318.44C666.746 316.031 663.666 314.836 660.02 314.836C656.358 314.836 653.272 315.992 650.684 318.313Z" fill="#0F0F10"/>
</svg>
