<svg width="24" height="24" viewBox="0 0 24 24" fill="none" xmlns="http://www.w3.org/2000/svg">
<path d="M18.2936 6.85091L15.6001 3.0082C15.4005 2.72399 15.1351 2.49086 14.8261 2.32812C14.517 2.16539 14.1731 2.07773 13.8229 2.07243L8.71127 2H8.70073C6.0617 2 4.03687 2.43595 2.73277 4.56358C1.51865 6.54405 1.00073 9.91766 1.00073 15.8439V16.5681H2.67626L1.59767 22H3.09229L4.17089 16.5681H4.6674C5.8651 16.5787 7.01895 16.1235 7.87977 15.301C8.65797 14.5656 9.21929 13.5596 9.50314 12.3916L9.5057 12.3811L10.7635 6.42858H9.26522L8.07451 12.0636C7.71188 13.5429 6.62751 15.1196 4.6674 15.1196H2.47015C2.50998 9.99253 2.98266 6.9528 3.98746 5.3135C4.8308 3.93742 6.06348 3.44896 8.69565 3.44828L13.8018 3.5207C13.9186 3.52246 14.0332 3.55167 14.1362 3.60592C14.2393 3.66016 14.3277 3.73788 14.3942 3.83263L17.4412 8.179L21.5341 8.85274V9.6204L20.8515 13.2155C20.6501 14.2765 20.3057 14.811 18.8936 14.9786L13.1046 15.9567L13.0663 22H14.533L14.5635 17.1795L19.0873 16.4145C20.1121 16.2901 20.8682 15.9639 21.3985 15.4176C21.8518 14.9506 22.1277 14.3539 22.2931 13.4824L23.0007 9.75502V7.62567L18.2936 6.85091Z" fill="#F0500B"/>
</svg>
