<svg width="24" height="24" viewBox="0 0 24 24" fill="none" xmlns="http://www.w3.org/2000/svg">
<path d="M19.4984 6L18.0314 7.1C17.6852 7.35964 17.2642 7.5 16.8314 7.5H13.4734C13.148 7.50013 12.8306 7.60086 12.5646 7.78839C12.2987 7.97592 12.0972 8.24109 11.9879 8.54756C11.8785 8.85404 11.8665 9.18684 11.9536 9.50038C12.0407 9.81392 12.2226 10.0929 12.4744 10.299L14.4744 11.935C15.249 12.5688 15.8528 13.3862 16.2308 14.313C16.6087 15.2397 16.7489 16.2463 16.6384 17.241L16.6184 17.421C16.5388 18.137 16.3629 18.839 16.0954 19.508L15.4984 21M2.49841 10.5L5.73641 9.96C6.0505 9.90757 6.37257 9.9309 6.67582 10.028C6.97908 10.1252 7.25476 10.2933 7.47992 10.5185C7.70509 10.7437 7.87324 11.0193 7.97038 11.3226C8.06752 11.6258 8.09084 11.9479 8.03841 12.262L7.90341 13.069C7.78622 13.773 7.8978 14.496 8.22177 15.1318C8.54574 15.7677 9.06503 16.283 9.70341 16.602C10.2127 16.8568 10.6198 17.2777 10.8576 17.7951C11.0954 18.3125 11.1497 18.8956 11.0114 19.448L10.4984 21.5M21.4984 12C21.4984 17.2467 17.2451 21.5 11.9984 21.5C6.75171 21.5 2.49841 17.2467 2.49841 12C2.49841 6.75329 6.75171 2.5 11.9984 2.5C17.2451 2.5 21.4984 6.75329 21.4984 12Z" stroke="#F0500B" stroke-width="1.5"/>
</svg>
