<svg width="24" height="24" viewBox="0 0 24 24" fill="none" xmlns="http://www.w3.org/2000/svg">
<path d="M10.25 7C9.71958 7 9.21087 6.78929 8.8358 6.41421C8.46073 6.03914 8.25001 5.53043 8.25001 5C8.25001 4.46957 8.46073 3.96086 8.8358 3.58579C9.21087 3.21071 9.71958 3 10.25 3C10.7804 3 11.2892 3.21071 11.6642 3.58579C12.0393 3.96086 12.25 4.46957 12.25 5C12.25 5.53043 12.0393 6.03914 11.6642 6.41421C11.2892 6.78929 10.7804 7 10.25 7ZM10.25 7L10.2498 15H14.2498L18.2498 20M10.2498 11H15.2498M6.99983 11.5C6.28332 11.7967 5.64566 12.2561 5.13725 12.8417C4.62884 13.4273 4.26362 14.1231 4.07047 14.8742C3.87731 15.6253 3.86152 16.411 4.02433 17.1692C4.18714 17.9275 4.5241 18.6374 5.00856 19.243C5.49302 19.8486 6.11171 20.3332 6.81571 20.6585C7.51971 20.9837 8.28972 21.1408 9.06488 21.1172C9.84004 21.0937 10.5991 20.8901 11.282 20.5226C11.965 20.1552 12.5531 19.6339 12.9998 19" stroke="#F0500B" stroke-width="1.5" stroke-linecap="round" stroke-linejoin="round"/>
</svg>
