<svg width="24" height="24" viewBox="0 0 24 24" fill="none" xmlns="http://www.w3.org/2000/svg">
<path d="M12 15.75C7.04998 15.75 7.04998 8.25 12 8.25C16.8937 8.25 17.1052 15.75 12 15.75ZM12 9.75C8.99998 9.75 8.99998 14.25 12 14.25C15 14.25 15 9.75 12 9.75Z" fill="#378F02"/>
<path d="M12 18.75C8.28824 18.75 4.73399 16.7782 2.24999 13.3395C1.96761 12.95 1.81555 12.4811 1.81555 12C1.81555 11.5189 1.96761 11.05 2.24999 10.6605C4.73399 7.22175 8.28824 5.25 12 5.25C15.7117 5.25 19.266 7.22175 21.75 10.6605C22.0324 11.05 22.1844 11.5189 22.1844 12C22.1844 12.4811 22.0324 12.95 21.75 13.3395C19.266 16.7782 15.7117 18.75 12 18.75ZM3.46274 12.4605C5.69624 15.549 8.72774 17.25 12 17.25C15.2722 17.25 18.3037 15.549 20.5372 12.4605C20.6344 12.3265 20.6867 12.1652 20.6867 11.9996C20.6867 11.8341 20.6344 11.6728 20.5372 11.5388C18.3037 8.451 15.2722 6.75 12 6.75C8.72774 6.75 5.69624 8.451 3.46274 11.5395C3.36558 11.6735 3.31327 11.8348 3.31327 12.0004C3.31327 12.1659 3.36558 12.3265 3.46274 12.4605Z" fill="#378F02"/>
</svg>
