<svg width="24" height="24" viewBox="0 0 24 24" fill="none" xmlns="http://www.w3.org/2000/svg">
<path d="M15.1757 12.4949C16.4854 11.4732 17.3394 9.84257 17.3394 8.00235C17.3394 4.91326 14.9439 2.40039 11.9992 2.40039C9.05449 2.40039 6.65905 4.91326 6.65905 8.00235C6.65905 9.84257 7.51299 11.4732 8.82277 12.4949C6.4881 13.3182 4.79998 15.631 4.79998 18.3535V19.1345C4.79998 20.0606 5.42676 20.8592 6.29057 21.0329C8.16788 21.4099 10.0885 21.6004 12 21.6004C13.9115 21.6004 15.8321 21.4091 17.7101 21.0329C18.5732 20.8592 19.2 20.0606 19.2 19.1345V18.3535C19.1985 15.631 17.5096 13.3182 15.1757 12.4949ZM8.02581 8.00235C8.02581 5.70466 9.80814 3.83495 11.9985 3.83495C14.1888 3.83495 15.9711 5.70466 15.9711 8.00235C15.9711 10.3 14.1888 12.1697 11.9985 12.1697C9.80814 12.1697 8.02581 10.3008 8.02581 8.00235ZM17.8302 19.1345C17.8302 19.3736 17.6706 19.5801 17.4511 19.6239C13.8659 20.3428 10.1303 20.3428 6.5466 19.6239C6.32628 19.5793 6.16674 19.3736 6.16674 19.1345V18.3535C6.16674 15.7346 8.19751 13.6043 10.6932 13.6043H13.3037C15.7994 13.6043 17.8302 15.7346 17.8302 18.3535V19.1345Z" fill="#F0500B"/>
<path d="M20.4612 12.2452C21.3656 11.419 21.9157 10.2289 21.9157 8.96189C21.9157 7.13405 20.8224 5.51931 19.1307 4.84849C18.7788 4.70925 18.3779 4.88234 18.2379 5.23852C18.0979 5.59393 18.2715 5.99627 18.6258 6.13628C19.788 6.59709 20.5378 7.70641 20.5378 8.96112C20.5378 10.2112 19.7589 11.3513 18.6005 11.7998C18.3067 11.9137 18.1269 12.2129 18.1644 12.5276C18.2011 12.8422 18.446 13.0907 18.7574 13.1322C20.4658 13.3592 22.0228 15.1408 22.0228 16.8694V17.4618C22.0228 17.5749 21.9432 17.6772 21.8346 17.6987C21.6992 17.7257 21.5584 17.7503 21.413 17.7757L21.1192 17.8272C20.7451 17.8957 20.4972 18.2557 20.5645 18.6319C20.625 18.9665 20.915 19.2004 21.2417 19.2004C21.283 19.2004 21.3235 19.1965 21.3656 19.1889L21.6456 19.1396C21.8032 19.1119 21.957 19.0858 22.1024 19.0565C22.8537 18.9081 23.4 18.2372 23.4 17.4618V16.8694C23.4 14.9608 22.1559 13.1168 20.4612 12.2452Z" fill="#F0500B"/>
<path d="M2.88074 17.8273L2.58694 17.7758C2.44234 17.7504 2.30079 17.7265 2.16308 17.6981C2.05749 17.6773 1.97716 17.5758 1.97716 17.4619V16.8696C1.97716 15.1411 3.53337 13.3596 5.2426 13.1327C5.554 13.0911 5.7996 12.8427 5.83556 12.5281C5.87305 12.2134 5.69248 11.9142 5.39945 11.8004C4.24032 11.3519 3.46222 10.2111 3.46222 8.96189C3.46222 7.7065 4.21201 6.59727 5.3742 6.13727C5.72844 5.9965 5.90135 5.59419 5.76211 5.2388C5.62209 4.88265 5.22042 4.7088 4.86924 4.8488C3.1776 5.51957 2.08427 7.13419 2.08427 8.96189C2.08427 10.2281 2.63514 11.4188 3.53873 12.245C1.84403 13.1158 0.599976 14.9596 0.599976 16.8696V17.4619C0.599976 18.2373 1.14626 18.9081 1.89529 19.0558C2.04219 19.0858 2.19674 19.1119 2.35435 19.1396L2.63438 19.1889C2.67646 19.1965 2.71701 19.2004 2.75832 19.2004C3.08502 19.2004 3.37499 18.9658 3.43544 18.6319C3.50353 18.2558 3.25487 17.8958 2.88074 17.8273Z" fill="#F0500B"/>
</svg>
