<svg width="16" height="16" viewBox="0 0 16 16" fill="none" xmlns="http://www.w3.org/2000/svg">
<g clip-path="url(#clip0_574_7068)">
<mask id="mask0_574_7068" style="mask-type:luminance" maskUnits="userSpaceOnUse" x="0" y="0" width="16" height="16">
<path d="M16 0H0V16H16V0Z" fill="white"/>
</mask>
<g mask="url(#mask0_574_7068)">
<path d="M8 16C12.4183 16 16 12.4183 16 8C16 3.58172 12.4183 0 8 0C3.58172 0 0 3.58172 0 8C0 12.4183 3.58172 16 8 16Z" fill="white"/>
<mask id="mask1_574_7068" style="mask-type:luminance" maskUnits="userSpaceOnUse" x="2" y="3" width="12" height="10">
<path d="M14 3H2V13H14V3Z" fill="white"/>
</mask>
<g mask="url(#mask1_574_7068)">
<path fill-rule="evenodd" clip-rule="evenodd" d="M5.80937 3.3619C3.88513 3.3619 2.34528 4.90238 2.34528 6.77619V6.78095V6.78571C2.32226 7.32619 2.48338 7.95238 2.76189 8.59762C3.0381 9.24048 3.42479 9.89286 3.8368 10.4833C4.2488 11.0714 4.68383 11.5952 5.05901 11.9833C5.24545 12.1762 5.41577 12.3357 5.55848 12.45C5.67357 12.5429 5.76103 12.6 5.82088 12.6286C5.83469 12.6214 5.85541 12.6119 5.88073 12.5976C5.93136 12.5667 5.99581 12.5214 6.06947 12.4619C6.21678 12.3429 6.39861 12.1714 6.60115 11.9595C7.00395 11.5357 7.47811 10.9524 7.91775 10.3048C7.97301 10.2238 8.07885 10.2048 8.15485 10.2619C8.2308 10.319 8.2492 10.4333 8.19398 10.5143C7.7451 11.181 7.25715 11.7786 6.84055 12.2167C6.63338 12.4357 6.44004 12.619 6.27662 12.75C6.19606 12.8167 6.1178 12.8714 6.04875 12.9119C5.982 12.9524 5.91065 12.9857 5.83929 12.9976L5.79786 13L5.76103 12.9881C5.64135 12.9524 5.49864 12.8548 5.34673 12.7333C5.19021 12.6071 5.01067 12.4381 4.81733 12.2381C4.43064 11.8357 3.9818 11.3 3.56059 10.6952C3.13937 10.0929 2.73887 9.41905 2.44885 8.74524C2.16114 8.07619 1.977 7.39286 2.00232 6.77143C2.00692 4.67619 3.72171 3 5.80937 3C7.41595 3 8.79701 3.99048 9.35402 5.4C9.39085 5.49286 9.34943 5.59762 9.26198 5.63571C9.17448 5.67381 9.07554 5.63095 9.03871 5.5381C8.53922 4.26905 7.28478 3.3619 5.80937 3.3619Z" fill="#F0500B"/>
<path d="M12.9544 9.40499C12.7311 9.40499 12.5211 9.35976 12.3462 9.26214C12.1736 9.16214 12.0429 9.02642 11.9439 8.85499C11.8473 8.68118 11.7715 8.44785 11.7715 8.22404C11.7715 7.99785 11.8173 7.78357 11.9094 7.61213C12.0038 7.43832 12.1368 7.28833 12.3002 7.19071C12.4636 7.09071 12.6827 7.04785 12.8945 7.04785C13.104 7.04785 13.3207 7.09309 13.4726 7.19071C13.6222 7.28357 13.7392 7.47404 13.8175 7.64309C13.898 7.80738 13.9324 7.97404 13.9324 8.19071C13.9324 8.24309 13.9209 8.29785 13.8864 8.33357C13.8519 8.3669 13.7807 8.40499 13.7255 8.40499H12.0889V8.03595H13.7024L13.5367 8.15261C13.5344 8.01452 13.4861 7.9169 13.4354 7.80976C13.3848 7.70023 13.3141 7.60976 13.2198 7.54785C13.1254 7.48357 13.028 7.45261 12.8945 7.45261C12.7403 7.45261 12.6176 7.4788 12.5071 7.54785C12.3989 7.6169 12.3347 7.68833 12.2772 7.80976C12.2197 7.9288 12.1672 8.07166 12.1672 8.22404C12.1672 8.37642 12.2017 8.50976 12.2684 8.6288C12.3352 8.74785 12.4296 8.84071 12.547 8.90976C12.6644 8.9788 12.8002 9.01214 12.9544 9.01214C13.0372 9.01214 13.1224 8.99785 13.2076 8.9669C13.2973 8.93357 13.3687 8.89785 13.4216 8.85499C13.4631 8.82404 13.5045 8.80976 13.5505 8.80976C13.5988 8.80738 13.6403 8.82166 13.6748 8.85023C13.7209 8.89071 13.7439 8.93595 13.7484 8.98595C13.7507 9.03595 13.7484 9.10738 13.7024 9.14309C13.6104 9.2169 13.4958 9.28833 13.3577 9.33357C13.2242 9.38118 13.0787 9.40499 12.9544 9.40499Z" fill="#060606"/>
<path d="M9.21111 9.40261C9.15129 9.40261 9.10297 9.38357 9.0615 9.34547C9.02467 9.30499 8.95801 9.20499 8.95801 9.14547L8.96624 7.30498C8.96624 7.24069 8.99608 7.15738 9.0352 7.11928C9.07663 7.08118 9.15925 7.0764 9.21911 7.0764C9.28127 7.0764 9.3409 7.08118 9.38003 7.11928C9.41686 7.15738 9.41828 7.24307 9.41828 7.30498L9.46426 9.14547C9.46426 9.20499 9.39989 9.30499 9.36077 9.34547C9.32394 9.38357 9.27327 9.40261 9.21111 9.40261ZM10.8684 9.40261C10.8085 9.40261 10.7602 9.38357 10.7187 9.34547C10.6819 9.30499 10.6152 9.20499 10.6152 9.14547V8.13118C10.6152 7.97404 10.6336 7.84547 10.5761 7.74783C10.5185 7.65021 10.4426 7.5764 10.3459 7.52878C10.2515 7.47878 10.148 7.47642 10.0237 7.47642C9.91093 7.47642 9.79392 7.50261 9.70187 7.54785C9.60978 7.59547 9.57318 7.65738 9.51796 7.73833C9.465 7.81452 9.41369 7.88118 9.41369 7.98357H9.16049C9.16049 7.80976 9.20192 7.65736 9.28247 7.52164C9.36536 7.38355 9.4672 7.24785 9.60992 7.1669C9.75263 7.08833 9.93612 7.04785 10.1157 7.04785C10.3021 7.04785 10.4971 7.10738 10.6444 7.19071C10.7917 7.27166 10.8811 7.39071 10.9662 7.54785C11.0514 7.70499 11.1215 7.90499 11.1215 8.13357V9.14785C11.1215 9.20738 11.0548 9.30738 11.0157 9.34785C10.9765 9.38357 10.9282 9.40261 10.8684 9.40261Z" fill="#060606"/>
<path fill-rule="evenodd" clip-rule="evenodd" d="M12.284 7.14726C12.4636 7.04011 12.6661 6.98535 12.8917 6.98535C13.1149 6.98535 13.3106 7.03773 13.4786 7.14249C13.6443 7.24488 13.7686 7.39011 13.8538 7.57107C13.909 7.68535 13.9482 7.81153 13.9666 7.94487L13.9689 7.95439C13.9781 8.0282 13.985 8.10439 13.985 8.18296C13.985 8.25915 13.9597 8.32582 13.9067 8.3782L13.9044 8.38058L13.9021 8.38296C13.8492 8.43296 13.7824 8.45677 13.7088 8.45677H12.2863C12.3001 8.50201 12.3186 8.54248 12.3415 8.58296C12.4014 8.68772 12.482 8.76867 12.5878 8.83058C12.6914 8.8901 12.8111 8.92106 12.9515 8.92106C13.0252 8.92106 13.0988 8.90915 13.1771 8.88058C13.2599 8.84963 13.3221 8.81629 13.3681 8.78296C13.4211 8.74248 13.4809 8.72106 13.5477 8.72106C13.6167 8.71868 13.6789 8.73772 13.7318 8.78296C13.7894 8.83534 13.8308 8.90201 13.8331 8.98058C13.8377 9.06629 13.7986 9.13534 13.7341 9.18534C13.6328 9.26629 13.5085 9.33296 13.3658 9.38058C13.2231 9.43058 13.085 9.45439 12.9515 9.45439C12.7167 9.45439 12.5027 9.40439 12.3139 9.29963C12.1298 9.19248 11.9825 9.04725 11.8743 8.86391C11.7684 8.67582 11.7178 8.46153 11.7178 8.22582C11.7178 7.98772 11.7661 7.77344 11.8651 7.58773C11.9664 7.39964 12.1068 7.25202 12.284 7.14726ZM13.4187 7.94963C13.4072 7.90677 13.3935 7.86629 13.375 7.82582C13.3313 7.73059 13.2691 7.65678 13.1886 7.60202C13.1103 7.54964 13.0136 7.52107 12.894 7.52107C12.7535 7.52107 12.6385 7.55202 12.5441 7.61154C12.452 7.67107 12.3807 7.75202 12.33 7.85915C12.3163 7.88772 12.3047 7.91868 12.2955 7.94963H13.4187ZM12.2034 7.94963C12.1942 7.9782 12.1873 8.00915 12.1827 8.0401H13.5269C13.5223 8.00915 13.5177 7.98058 13.5108 7.94963C13.497 7.89248 13.4786 7.83772 13.4556 7.78772C13.4049 7.67821 13.3313 7.59011 13.2369 7.52821C13.1426 7.4663 13.0275 7.43297 12.894 7.43297C12.7398 7.43297 12.6085 7.4663 12.498 7.53535C12.3899 7.6044 12.3093 7.69964 12.2518 7.82106C12.2311 7.86153 12.215 7.90439 12.2034 7.94963ZM12.3554 9.22344C12.5303 9.31867 12.7283 9.36868 12.9515 9.36868C13.0758 9.36868 13.2047 9.34487 13.3382 9.29963C13.4763 9.25201 13.5891 9.19248 13.6812 9.11868C13.7272 9.08296 13.7479 9.0401 13.7456 8.9901C13.7433 8.9401 13.718 8.89487 13.6719 8.85439C13.6374 8.82344 13.596 8.81153 13.5477 8.81391C13.5016 8.81391 13.4579 8.8282 13.4187 8.85915C13.3658 8.89963 13.2945 8.93772 13.2047 8.97106C13.1195 9.00201 13.0344 9.01629 12.9515 9.01629C12.7973 9.01629 12.6615 8.98296 12.5441 8.91391C12.4267 8.84487 12.3323 8.75201 12.2656 8.63296C12.2357 8.58058 12.2127 8.52344 12.1942 8.46391C12.185 8.43534 12.1804 8.40439 12.1758 8.37344H13.7088C13.7617 8.37344 13.8077 8.35677 13.8423 8.32344C13.8768 8.28772 13.8952 8.24248 13.8952 8.19248C13.8952 8.13296 13.8929 8.07582 13.886 8.02106C13.8837 7.99963 13.8814 7.97582 13.8768 7.95439C13.8584 7.83296 13.8238 7.72107 13.7732 7.61868C13.695 7.45202 13.5799 7.32107 13.4303 7.22583C13.2807 7.13059 13.0988 7.08059 12.8894 7.08059C12.6776 7.08059 12.4889 7.13059 12.3255 7.22821C12.162 7.32345 12.0331 7.45916 11.9387 7.63297C11.8467 7.80439 11.8007 8.00201 11.8007 8.2282C11.8007 8.45201 11.849 8.64963 11.9456 8.82344C12.0492 8.98772 12.185 9.12344 12.3554 9.22344Z" fill="#060606"/>
<path fill-rule="evenodd" clip-rule="evenodd" d="M9.50589 7.981V9.14528C9.50589 9.22624 9.48059 9.30005 9.42533 9.35957C9.36776 9.41671 9.29411 9.4429 9.21356 9.4429C9.133 9.4429 9.06166 9.41671 9.00414 9.36195L9.00183 9.35957L8.9995 9.35719C8.94658 9.29767 8.91895 9.22386 8.91895 9.1429V7.30245C8.91895 7.21911 8.94427 7.1453 9.00183 7.08578C9.05935 7.03102 9.13071 7.00483 9.21127 7.00483C9.29182 7.00483 9.36547 7.03102 9.42304 7.08816C9.44837 7.11435 9.46906 7.1453 9.4806 7.17626C9.51278 7.15245 9.54501 7.1334 9.57954 7.11435C9.73605 7.02626 9.91099 6.9834 10.102 6.9834C10.3 6.9834 10.4795 7.02864 10.6406 7.11911C10.804 7.20721 10.9307 7.33816 11.0227 7.50959C11.1171 7.6834 11.1631 7.89052 11.1631 8.131V9.14528C11.1631 9.22862 11.1355 9.30243 11.078 9.36195C11.0227 9.41909 10.9514 9.44528 10.8708 9.44528C10.7903 9.44528 10.7189 9.41909 10.6614 9.36433L10.6591 9.36195L10.6567 9.35719C10.6038 9.29767 10.5762 9.22386 10.5762 9.1429V8.12862C10.5762 7.981 10.5486 7.87147 10.5025 7.79052C10.4542 7.70721 10.392 7.6453 10.3115 7.60721H10.3092H10.3069C10.2263 7.56435 10.132 7.54292 10.0192 7.54292C9.91789 7.54292 9.83043 7.56435 9.75218 7.60245C9.67392 7.64292 9.61177 7.69768 9.56805 7.76195C9.52662 7.82624 9.50589 7.89528 9.50589 7.981ZM10.7212 9.29767C10.7626 9.33576 10.811 9.35481 10.8708 9.35481C10.9307 9.35481 10.979 9.33576 11.0158 9.29767C11.0572 9.25719 11.0757 9.20481 11.0757 9.14528V8.131C11.0757 7.90243 11.032 7.70959 10.9468 7.55245C10.8639 7.3953 10.7488 7.27626 10.5992 7.19768C10.4542 7.11435 10.2885 7.07387 10.102 7.07387C9.92483 7.07387 9.76367 7.11435 9.62097 7.19292C9.57954 7.21673 9.53812 7.24292 9.50129 7.27149C9.4875 7.28102 9.47366 7.29292 9.46216 7.30483C9.44607 7.31911 9.42992 7.3334 9.41613 7.34768V7.30483C9.41613 7.27864 9.41384 7.25721 9.40695 7.23578C9.3977 7.20245 9.3816 7.17626 9.35857 7.15245C9.32174 7.11435 9.27113 7.0953 9.20897 7.0953C9.14915 7.0953 9.10077 7.11435 9.05935 7.15245C9.02252 7.19054 9.00183 7.24292 9.00183 7.30483V9.14528C9.00183 9.20481 9.02022 9.25719 9.05935 9.29767C9.10077 9.33576 9.14915 9.35481 9.20897 9.35481C9.27113 9.35481 9.31944 9.33576 9.35857 9.29767C9.39539 9.25719 9.41613 9.20481 9.41613 9.14528V7.981C9.41613 7.87862 9.44377 7.79052 9.49669 7.71197C9.49899 7.70959 9.50128 7.70483 9.50358 7.70245C9.55654 7.62864 9.6279 7.56673 9.71535 7.52387C9.80739 7.47626 9.90868 7.45483 10.0215 7.45483C10.1458 7.45483 10.254 7.47864 10.3483 7.52864C10.445 7.57626 10.521 7.64768 10.5785 7.74768C10.636 7.84767 10.6637 7.97386 10.6637 8.131V9.14528C10.6637 9.20481 10.6821 9.25481 10.7212 9.29767Z" fill="#060606"/>
<path fill-rule="evenodd" clip-rule="evenodd" d="M5.68522 9.42852C7.08468 9.42852 8.21714 8.2571 8.21714 6.80948C8.21714 5.36186 7.08468 4.19043 5.68522 4.19043C4.28577 4.19043 3.15332 5.36186 3.15332 6.80948C3.15332 8.2571 4.28577 9.42852 5.68522 9.42852ZM5.68522 8.69519C6.69107 8.69519 7.50817 7.84995 7.50817 6.80948C7.50817 5.769 6.69107 4.92376 5.68522 4.92376C4.67937 4.92376 3.86225 5.769 3.86225 6.80948C3.86225 7.84995 4.67937 8.69519 5.68522 8.69519Z" fill="#060606"/>
</g>
</g>
</g>
<defs>
<clipPath id="clip0_574_7068">
<rect width="16" height="16" fill="white"/>
</clipPath>
</defs>
</svg>
