<svg width="20" height="20" viewBox="0 0 20 20" fill="none" xmlns="http://www.w3.org/2000/svg">
<path d="M11.4065 20H8.1148C7.56498 20 7.11772 19.5648 7.11772 19.0298V11.8057H5.19727C4.64745 11.8057 4.2002 11.3704 4.2002 10.8356V7.74002C4.2002 7.20505 4.64745 6.76987 5.19727 6.76987H7.11772V5.21973C7.11772 3.68271 7.61375 2.37503 8.55202 1.43829C9.49453 0.497284 10.8117 0 12.3611 0L14.8715 0.00396727C15.4204 0.00488281 15.8669 0.440063 15.8669 0.974121V3.84827C15.8669 4.38324 15.4198 4.81842 14.8701 4.81842L13.1799 4.81903C12.6644 4.81903 12.5331 4.91959 12.5051 4.95041C12.4588 5.00153 12.4037 5.14603 12.4037 5.54504V6.76971H14.7431C14.9192 6.76971 15.0898 6.81198 15.2364 6.89163C15.5527 7.0636 15.7494 7.38876 15.7494 7.74017L15.7481 10.8357C15.7481 11.3704 15.3009 11.8056 14.7511 11.8056H12.4037V19.0298C12.4037 19.5648 11.9563 20 11.4065 20ZM8.32275 18.8275H11.1986V11.2808C11.1986 10.9236 11.4973 10.6331 11.8643 10.6331H14.5431L14.5442 7.94235H11.8641C11.4972 7.94235 11.1986 7.65182 11.1986 7.29462V5.54504C11.1986 5.08698 11.2464 4.56604 11.6018 4.1745C12.0311 3.70117 12.7078 3.64655 13.1795 3.64655L14.6618 3.64594V1.17615L12.3602 1.17249C9.87012 1.17249 8.32275 2.72339 8.32275 5.21973V7.29462C8.32275 7.65167 8.02416 7.94235 7.65719 7.94235H5.40522V10.6331H7.65719C8.02416 10.6331 8.32275 10.9236 8.32275 11.2808V18.8275Z" fill="white"/>
</svg>
