<svg width="24" height="24" viewBox="0 0 24 24" fill="none" xmlns="http://www.w3.org/2000/svg">
<path d="M7.20882 21.0119C6.2334 19.8645 5.25802 18.6711 4.63728 17.2482C4.01658 15.7335 3.83922 13.9894 4.14959 12.337C4.45996 10.6847 5.16932 9.12411 6.18909 7.79305C6.10043 8.94054 6.49946 10.1339 7.25317 11.006C6.80979 8.80284 7.51919 6.41609 8.93795 4.67194C10.3567 2.9278 12.3076 1.78027 14.347 1C13.3273 2.10157 13.1943 3.84572 13.5933 5.31451C13.9923 6.78326 14.8347 8.06845 15.5885 9.3995C16.3422 10.7306 17.0516 12.1075 17.0959 13.6222C17.4949 12.8419 17.9383 12.0616 18.2043 11.1896C18.4704 10.3175 18.6034 9.3995 18.3817 8.52741C19.1798 9.5372 19.6232 10.5469 19.8448 11.8321C20.0665 13.1173 20.0222 14.4484 19.8892 15.7335C19.7118 17.1564 19.3571 18.6252 18.6034 19.8185C17.7167 21.2414 16.2979 22.2512 14.7461 22.802C11.9972 23.3069 9.29263 22.8938 7.20882 21.0119Z" fill="#E90505"/>
<path d="M10.3546 22.7056C14.5181 24.206 18.6308 19.6582 16.346 16.1418C16.346 16.0949 16.2952 16.0949 16.2952 16.0481C16.4983 17.9703 15.9905 19.3769 15.0258 20.1739C15.5336 19.0487 15.1781 17.7359 14.5688 16.6107C13.9595 15.5324 13.0964 14.5478 12.4363 13.5163C11.7762 12.438 11.2685 11.219 11.5732 10C10.3546 10.8439 9.49144 12.1098 9.136 13.4694C8.78057 14.8291 8.98368 16.3294 9.64376 17.5953C8.88215 17.0796 8.32364 16.2356 8.27285 15.3448C7.46045 16.2356 6.95274 17.4077 7.00348 18.5798C7.00353 20.4083 8.5775 22.0493 10.3546 22.7056Z" fill="#FFD15C"/>
</svg>
