<svg width="24" height="24" viewBox="0 0 24 24" fill="none" xmlns="http://www.w3.org/2000/svg">
<g clip-path="url(#clip0_500_3002)">
<path d="M23.5646 15.4837C20.6166 15.4837 18.2178 13.6497 18.2178 11.3949C18.2178 11.1545 18.0228 10.9595 17.7824 10.9595C17.5419 10.9595 17.3468 11.1545 17.3468 11.3949C17.3468 13.6498 14.948 15.4837 12.0001 15.4837C9.05199 15.4837 6.65325 13.6497 6.65325 11.3949C6.65325 11.1545 6.45847 10.9595 6.21772 10.9595C5.97705 10.9595 5.78228 11.1545 5.78228 11.3949C5.78228 13.6498 3.38362 15.4837 0.435442 15.4837C0.194772 15.4837 0 15.6787 0 15.9192C0 16.1596 0.194772 16.3547 0.435442 16.3547C2.71033 16.3547 4.69823 15.372 5.78228 13.9136V21.8463H4.76617C4.52541 21.8463 4.33064 22.0414 4.33064 22.2819C4.33064 22.5222 4.52541 22.7173 4.76617 22.7173H7.66928C7.91003 22.7173 8.10472 22.5223 8.10472 22.2819C8.10472 22.0414 7.90995 21.8463 7.66928 21.8463H6.65325V13.9136C7.73696 15.372 9.72511 16.3547 12.0001 16.3547C14.275 16.3547 16.263 15.372 17.3468 13.9136V21.8463H16.3307C16.0903 21.8463 15.8952 22.0414 15.8952 22.2819C15.8952 22.5222 16.0902 22.7173 16.3307 22.7173H19.2339C19.4743 22.7173 19.6694 22.5223 19.6694 22.2819C19.6694 22.0414 19.4743 21.8463 19.2339 21.8463H18.2177V13.9136C19.3016 15.372 21.2896 16.3547 23.5646 16.3547C23.805 16.3547 24 16.1597 24 15.9192C24 15.6788 23.8053 15.4837 23.5646 15.4837Z" fill="#0F0F10"/>
<path d="M8.80654 10.4755H15.1935C15.4339 10.4755 15.629 10.2807 15.629 10.04V1.71767C15.629 1.477 15.434 1.28223 15.1935 1.28223H8.80654C8.56578 1.28223 8.37109 1.477 8.37109 1.71767V10.0403C8.37109 10.2807 8.56612 10.4755 8.80654 10.4755ZM9.24206 2.15319H14.7582V9.60483H9.24206V2.15319Z" fill="#0F0F10"/>
</g>
<defs>
<clipPath id="clip0_500_3002">
<rect width="24" height="24" fill="white"/>
</clipPath>
</defs>
</svg>
