<svg width="40" height="40" viewBox="0 0 40 40" fill="none" xmlns="http://www.w3.org/2000/svg">
<g clip-path="url(#clip0_3501_40051)">
<path opacity="0.2" d="M25.4283 40.0001C25.1081 40.0003 24.7886 39.9724 24.4733 39.9168L7.66663 36.9518C6.19679 36.6793 4.89526 35.8344 4.04803 34.6028C3.20081 33.3711 2.87719 31.8535 3.14829 30.3834L4.98163 19.9534C5.01255 19.7772 5.05599 19.6035 5.11163 19.4334C4.34095 18.8654 3.74194 18.0957 3.38055 17.2091C3.01915 16.3225 2.90937 15.3534 3.06329 14.4084L3.49996 11.9534C3.74572 10.7262 4.41607 9.62472 5.39326 8.8426C6.37045 8.06048 7.59199 7.6477 8.84329 7.67677C9.18694 7.67652 9.52994 7.70664 9.86829 7.76677L10.1666 7.8201C10.2129 6.82965 10.4835 5.86262 10.9578 4.9919C11.4321 4.12117 12.0979 3.36947 12.905 2.79344C13.6595 2.22483 14.5322 1.83302 15.4585 1.64695C16.3848 1.46088 17.341 1.48531 18.2566 1.71844C19.7581 2.1392 21.1101 2.9758 22.1566 4.13177C23.3375 3.52184 24.6428 3.19166 25.9716 3.16677C26.1933 3.16677 26.415 3.17844 26.6383 3.2001C27.5788 3.29675 28.4858 3.60218 29.2931 4.0941C30.1005 4.58601 30.7878 5.25199 31.305 6.04344C31.8673 6.85901 32.237 7.79164 32.3863 8.77096C32.5355 9.75028 32.4604 10.7507 32.1666 11.6968L32.3866 11.7351C33.7998 11.9445 35.0726 12.705 35.9265 13.8504C36.7804 14.9957 37.146 16.4326 36.9433 17.8468L36.51 20.3034C36.3316 21.2452 35.8963 22.1193 35.2521 22.829C34.608 23.5388 33.7801 24.0566 32.86 24.3251C32.8548 24.5029 32.8365 24.6801 32.805 24.8551L30.9716 35.2884C30.7522 36.6016 30.0753 37.7949 29.0609 38.6572C28.0464 39.5194 26.7597 39.9951 25.4283 40.0001Z" fill="#1A1A1A"/>
<path d="M25.4283 38.4767C25.1082 38.4769 24.7886 38.449 24.4733 38.3933L7.66665 35.4283C6.19804 35.1543 4.89815 34.3088 4.0523 33.0773C3.20644 31.8459 2.88373 30.3291 3.15498 28.86L4.98831 18.43C5.01924 18.2538 5.06268 18.08 5.11831 17.91C4.34643 17.3427 3.74611 16.5734 3.38351 15.6868C3.02092 14.8001 2.91012 13.8306 3.06331 12.885L3.49998 10.43C3.74574 9.20274 4.41609 8.1013 5.39328 7.31918C6.37047 6.53706 7.59201 6.12428 8.84331 6.15335C9.18693 6.15389 9.52986 6.184 9.86831 6.24335L10.1666 6.29668C10.2128 5.30643 10.4833 4.3396 10.9577 3.46913C11.432 2.59866 12.0979 1.84728 12.905 1.27168C13.6592 0.702465 14.5318 0.310154 15.4582 0.123784C16.3845 -0.0625852 17.341 -0.0382403 18.2566 0.195017C19.7581 0.615778 21.1101 1.45238 22.1566 2.60835C23.3372 1.99726 24.6425 1.66594 25.9716 1.64002C26.1933 1.64002 26.415 1.65168 26.6383 1.67335C27.5788 1.77 28.4858 2.07543 29.2932 2.56734C30.1005 3.05926 30.7878 3.72524 31.305 4.51668C31.8668 5.33186 32.2362 6.26391 32.3855 7.2426C32.5347 8.2213 32.4599 9.22111 32.1666 10.1667L32.3866 10.2067C33.7999 10.4153 35.0729 11.1754 35.927 12.3205C36.781 13.4657 37.1465 14.9026 36.9433 16.3167L36.51 18.7733C36.3316 19.7151 35.8963 20.5892 35.2522 21.2989C34.608 22.0087 33.7801 22.5265 32.86 22.795C32.8549 22.9728 32.8365 23.15 32.805 23.325L30.9716 33.7583C30.7536 35.0728 30.0774 36.2676 29.0628 37.1312C28.0482 37.9948 26.7607 38.4714 25.4283 38.4767Z" fill="white"/>
<path d="M29.7983 22.8067L27.9649 33.2367C27.9122 33.5731 27.7936 33.8958 27.616 34.1864C27.4383 34.4769 27.2051 34.7296 26.9297 34.9299C26.6543 35.1302 26.3421 35.2743 26.011 35.3538C25.6798 35.4333 25.3363 35.4467 24.9999 35.3933L8.18828 32.4283C7.51536 32.295 6.92275 31.9003 6.54035 31.3308C6.15796 30.7612 6.01696 30.0633 6.14828 29.39L7.98161 18.96C7.9979 18.867 8.03241 18.7781 8.08316 18.6984C8.13391 18.6188 8.19991 18.55 8.27735 18.4959C8.35479 18.4419 8.44215 18.4036 8.53441 18.3835C8.62667 18.3633 8.72201 18.3615 8.81494 18.3783L29.2166 21.975C29.3095 21.9913 29.3982 22.0257 29.4777 22.0764C29.5572 22.127 29.626 22.1929 29.68 22.2701C29.7341 22.3474 29.7723 22.4345 29.7926 22.5266C29.8129 22.6187 29.8148 22.7138 29.7983 22.8067ZM33.9349 15.7967L33.4999 18.2517C33.347 18.852 32.9643 19.3682 32.4343 19.6891C31.9043 20.0099 31.2694 20.1096 30.6666 19.9667L8.14828 16C7.53076 15.9303 6.96559 15.6201 6.57529 15.1365C6.185 14.6529 6.00103 14.035 6.06328 13.4167L6.49994 10.9583C6.65249 10.3577 7.03514 9.84123 7.56525 9.52035C8.09537 9.19947 8.73042 9.09997 9.33328 9.24332L14.4633 10.1483C13.916 9.36974 13.5202 8.49505 13.2966 7.56999C13.113 6.86462 13.1484 6.12008 13.3982 5.43534C13.648 4.75061 14.1003 4.15812 14.6949 3.73666C15.0887 3.43139 15.547 3.22015 16.0349 3.11905C16.5228 3.01795 17.0273 3.02968 17.5099 3.15332C19.1957 3.82101 20.5893 5.06627 21.4416 6.66666C22.7877 5.45301 24.5216 4.75768 26.3333 4.70499C26.8289 4.75443 27.3068 4.91628 27.7305 5.17823C28.1542 5.44019 28.5125 5.79534 28.7783 6.21666C29.1927 6.81686 29.4146 7.52895 29.4146 8.25832C29.4146 8.98769 29.1927 9.69979 28.7783 10.3C28.2514 11.0919 27.5803 11.7777 26.7999 12.3217L31.8516 13.2133C32.4692 13.2826 33.0345 13.5928 33.4246 14.0765C33.8147 14.5603 33.9981 15.1784 33.9349 15.7967ZM21.7216 11.4267L23.1349 11.6767C24.7344 11.2841 26.1341 10.318 27.0683 8.96166C27.209 8.74302 27.2794 8.48648 27.2699 8.22661C27.2603 7.96675 27.1714 7.71606 27.0149 7.50832C26.9198 7.34538 26.7875 7.20727 26.6287 7.1053C26.47 7.00333 26.2894 6.9404 26.1016 6.92166C24.609 7.11973 23.2246 7.80867 22.1666 8.87999L21.7216 11.4267ZM18.1666 10.8L19.5499 11.0433L19.9999 8.49999C19.3333 7.27499 18.0916 5.59832 16.9766 5.31499L16.8783 5.29499C16.7087 5.26626 16.5349 5.27463 16.3689 5.31952C16.2029 5.3644 16.0486 5.44474 15.9166 5.55499C15.6991 5.69661 15.5302 5.90138 15.4325 6.14181C15.3347 6.38223 15.3129 6.6468 15.3699 6.89999C15.7844 8.50271 16.7816 9.89329 18.1666 10.8Z" fill="#F0500B"/>
</g>
<defs>
<clipPath id="clip0_3501_40051">
<rect width="40" height="40" fill="white"/>
</clipPath>
</defs>
</svg>
