<svg width="18" height="18" viewBox="0 0 18 18" fill="none" xmlns="http://www.w3.org/2000/svg">
<g clip-path="url(#clip0_3501_39839)">
<path d="M11.4428 17.3145C11.2987 17.3146 11.1549 17.302 11.013 17.277L3.45003 15.9428C2.78915 15.8194 2.20421 15.4389 1.82357 14.8848C1.44294 14.3306 1.29771 13.6481 1.41978 12.987L2.24478 8.29351C2.25869 8.21422 2.27824 8.13602 2.30328 8.05951C1.95593 7.80424 1.68579 7.45803 1.52262 7.05905C1.35945 6.66006 1.30959 6.22377 1.37853 5.79826L1.57503 4.69351C1.68562 4.14123 1.98728 3.64559 2.42701 3.29363C2.86675 2.94168 3.41644 2.75593 3.97953 2.76901C4.13416 2.76925 4.28847 2.7828 4.44078 2.80951L4.57503 2.83351C4.59582 2.38789 4.71753 1.95282 4.93099 1.56111C5.14445 1.1694 5.44408 0.831277 5.80728 0.572258C6.14669 0.316109 6.53935 0.139569 6.95622 0.0557029C7.37308 -0.0281633 7.80347 -0.0172082 8.21553 0.0877576C8.8912 0.2771 9.49959 0.653573 9.97053 1.17376C10.5018 0.898766 11.0892 0.749672 11.6873 0.738008C11.787 0.738008 11.8868 0.743258 11.9873 0.753008C12.4105 0.7965 12.8186 0.933943 13.182 1.1553C13.5453 1.37667 13.8546 1.67636 14.0873 2.03251C14.3401 2.39934 14.5063 2.81876 14.5735 3.25917C14.6407 3.69958 14.607 4.1495 14.475 4.57501L14.574 4.59301C15.21 4.68687 15.7829 5.02891 16.1672 5.54424C16.5515 6.05957 16.7159 6.70619 16.6245 7.34251L16.4295 8.44801C16.3493 8.8718 16.1534 9.26514 15.8635 9.58453C15.5736 9.90392 15.2011 10.1369 14.787 10.2578C14.7847 10.3378 14.7765 10.4175 14.7623 10.4963L13.9373 15.1913C13.8392 15.7827 13.5349 16.3204 13.0783 16.709C12.6217 17.0977 12.0423 17.3121 11.4428 17.3145Z" fill="white"/>
<path d="M13.4092 10.2631L12.5842 14.9566C12.5605 15.108 12.5071 15.2532 12.4272 15.384C12.3473 15.5147 12.2423 15.6284 12.1184 15.7185C11.9945 15.8087 11.854 15.8735 11.705 15.9093C11.5559 15.9451 11.4013 15.9511 11.25 15.9271L3.68474 14.5928C3.38193 14.5328 3.11526 14.3552 2.94318 14.0989C2.7711 13.8426 2.70765 13.5286 2.76674 13.2256L3.59174 8.53208C3.59907 8.49022 3.6146 8.45022 3.63744 8.41438C3.66028 8.37854 3.68998 8.34757 3.72482 8.32324C3.75967 8.29892 3.79899 8.28172 3.8405 8.27264C3.88202 8.26356 3.92492 8.26278 3.96674 8.27033L13.1475 9.88883C13.1893 9.89616 13.2292 9.91167 13.265 9.93446C13.3008 9.95725 13.3317 9.98688 13.356 10.0216C13.3803 10.0564 13.3976 10.0956 13.4067 10.1371C13.4158 10.1785 13.4167 10.2213 13.4092 10.2631ZM15.2707 7.10858L15.075 8.21333C15.0062 8.48349 14.834 8.7158 14.5954 8.86016C14.3569 9.00452 14.0713 9.04939 13.8 8.98508L3.66674 7.20008C3.38886 7.16873 3.13453 7.02911 2.9589 6.8115C2.78327 6.59389 2.70048 6.31582 2.72849 6.03758L2.92499 4.93133C2.99364 4.66106 3.16583 4.42864 3.40438 4.28424C3.64293 4.13985 3.92871 4.09507 4.19999 4.15958L6.50849 4.56683C6.26221 4.21647 6.0841 3.82286 5.98349 3.40658C5.90087 3.08917 5.91681 2.75412 6.02922 2.44599C6.14162 2.13786 6.34515 1.87124 6.61274 1.68158C6.78994 1.54421 6.99618 1.44915 7.21572 1.40366C7.43527 1.35816 7.6623 1.36344 7.87949 1.41908C8.6381 1.71954 9.26519 2.27991 9.64874 3.00008C10.2545 2.45394 11.0347 2.14104 11.85 2.11733C12.073 2.13958 12.2881 2.21241 12.4787 2.33029C12.6694 2.44817 12.8307 2.60799 12.9502 2.79758C13.1367 3.06767 13.2366 3.38812 13.2366 3.71633C13.2366 4.04455 13.1367 4.36499 12.9502 4.63508C12.7131 4.99146 12.4112 5.30007 12.06 5.54483L14.3332 5.94608C14.6112 5.97724 14.8655 6.11684 15.0411 6.33452C15.2166 6.5522 15.2992 6.83038 15.2707 7.10858ZM9.77474 5.14208L10.4107 5.25458C11.1305 5.07792 11.7603 4.64317 12.1807 4.03283C12.2441 3.93444 12.2758 3.819 12.2715 3.70206C12.2672 3.58512 12.2271 3.47231 12.1567 3.37883C12.1139 3.30551 12.0544 3.24336 11.983 3.19747C11.9115 3.15158 11.8302 3.12327 11.7457 3.11483C11.0741 3.20396 10.4511 3.51399 9.97499 3.99608L9.77474 5.14208ZM8.17499 4.86008L8.79749 4.96958L8.99999 3.82508C8.69999 3.27383 8.14124 2.51933 7.63949 2.39183L7.59524 2.38283C7.51894 2.3699 7.44074 2.37367 7.36604 2.39387C7.29133 2.41407 7.22189 2.45022 7.16249 2.49983C7.06463 2.56356 6.9886 2.65571 6.94463 2.7639C6.90066 2.87209 6.89084 2.99115 6.91649 3.10508C7.10299 3.8263 7.55172 4.45207 8.17499 4.86008Z" fill="#007728"/>
</g>
<defs>
<clipPath id="clip0_3501_39839">
<rect width="18" height="18" fill="white"/>
</clipPath>
</defs>
</svg>
