<svg width="24" height="24" viewBox="0 0 24 24" fill="none" xmlns="http://www.w3.org/2000/svg">
<path d="M22.2922 10.5687C21.639 9.82785 20.6163 9.36764 19.6231 9.36764H16.9957C17.587 8.48093 18.032 7.58862 18.3032 6.73894C18.717 5.44233 18.7026 4.31205 18.2613 3.47028C17.7643 2.52217 16.7571 2 15.4253 2C15.1224 2 14.8495 2.17196 14.734 2.43549C13.6971 4.80234 10.9924 8.20416 8.44413 10.4451C8.18411 9.59515 7.35079 8.97134 6.36503 8.97134H3.16374C1.97067 8.97134 1 9.8848 1 11.0075V19.9638C1 21.0865 1.97067 22 3.16374 22H6.36503C7.09488 22 7.74102 21.6578 8.13312 21.1353C8.72627 21.6724 9.51262 22 10.3743 22H18.435C19.3261 22 20.1197 21.6429 20.7299 20.9674C21.233 20.4105 21.5903 19.6581 21.7631 18.7917L22.9512 12.8357C23.1106 12.0365 22.8766 11.2315 22.2922 10.5687ZM7.03323 19.9638C7.03323 20.3106 6.73348 20.5927 6.36503 20.5927H3.16374C2.79529 20.5927 2.49549 20.3106 2.49549 19.9638V11.0076C2.49549 10.6608 2.79529 10.3787 3.16374 10.3787H6.36503C6.73348 10.3787 7.03323 10.6608 7.03323 11.0076V19.9638ZM21.4814 12.576L20.2933 18.5321C20.0946 19.5283 19.502 20.5927 18.435 20.5927H10.3742C9.35662 20.5927 8.52877 19.7266 8.52877 18.6619V12.2523C11.3474 10.0503 14.5039 6.26853 15.8974 3.44196C16.6409 3.56035 16.8452 3.94988 16.9202 4.0929C17.4055 5.01872 17.0027 7.15045 14.9715 9.64309C14.7982 9.85564 14.7683 10.1424 14.8943 10.3826C15.0202 10.6228 15.2802 10.7749 15.5649 10.7749H19.6231C20.1746 10.7749 20.7705 11.0467 21.1413 11.4673C21.3501 11.7041 21.5786 12.0887 21.4814 12.576Z" fill="#007728"/>
</svg>
