<svg width="24" height="24" viewBox="0 0 24 24" fill="none" xmlns="http://www.w3.org/2000/svg">
<path d="M14.738 9.39681C14.9302 9.35626 15.1189 9.31902 15.2989 9.28753L15.3074 9.28603H15.3098C15.4236 9.26176 16.3426 9.07101 17.4326 9.02265C19.0497 8.947 20.2446 9.21791 20.9584 9.85072L20.9584 9.85074C21.9112 10.6958 21.8249 11.7796 21.5526 12.4818C21.7936 12.7997 22.072 13.2994 22.0977 13.9324C22.1239 14.521 21.9234 15.089 21.5131 15.6149C21.5903 15.83 21.6596 16.1091 21.676 16.4323C21.676 16.4324 21.676 16.4324 21.676 16.4324L21.5762 16.4375C21.6063 17.023 21.4557 17.8553 20.5995 18.6081L14.738 9.39681ZM14.738 9.39681C14.743 9.0841 14.832 8.42305 15.2731 7.12203L15.2731 7.12195C15.879 5.32998 15.8564 3.92511 15.1467 2.97327L15.1467 2.97326C14.4027 1.97552 13.2193 1.9 12.8766 1.9C12.5264 1.9 12.2018 2.04112 11.9713 2.3018C11.7122 2.5946 11.6034 3.00315 11.5644 3.38517C11.5265 3.75592 11.553 4.11544 11.5824 4.3507C11.2972 5.09162 10.7634 6.35163 10.135 7.5533C9.81743 8.16053 9.47651 8.75129 9.13208 9.25205C8.78748 9.75307 8.4437 10.1575 8.12083 10.3999C8.08808 10.4217 8.06156 10.4475 8.04191 10.4666L8.03978 10.4687L8.03976 10.4686L8.03791 10.4705C7.66385 10.8539 7.40282 11.266 7.21993 11.6357C6.97529 11.5232 6.70346 11.4609 6.41432 11.4609H3.78982C2.74756 11.4609 1.9 12.2852 1.9 13.3007V20.097C1.9 21.117 2.75218 21.9369 3.78982 21.9369H6.41432C6.80421 21.9369 7.16915 21.8216 7.47203 21.6226L8.4446 21.7352C8.44494 21.7353 8.44528 21.7353 8.44564 21.7354C8.61349 21.7579 11.3641 22.0955 14.1904 22.0415C14.7025 22.0791 15.1853 22.1 15.6345 22.1C16.4091 22.1 17.0874 22.0412 17.6553 21.9223C18.9868 21.6473 19.918 21.093 20.3938 20.2595L20.3069 20.21L20.3938 20.2595C20.741 19.6511 20.7557 19.0475 20.7057 18.6474L14.738 9.39681ZM20.227 15.0374L20.2274 15.037C20.5904 14.6719 20.7517 14.317 20.7362 13.9829L20.7362 13.9821C20.7264 13.7294 20.6184 13.5049 20.5078 13.3396C20.4077 13.19 20.3095 13.095 20.2917 13.0782C20.0421 12.859 19.9837 12.4991 20.1717 12.2212M20.227 15.0374L20.2553 12.276M20.227 15.0374C20.0163 15.252 19.9735 15.5803 20.1332 15.8377L20.1343 15.8398L20.1401 15.8507C20.1447 15.8594 20.1512 15.8718 20.1591 15.8878C20.1748 15.9198 20.1962 15.9663 20.2182 16.0248C20.2625 16.142 20.3089 16.3052 20.3189 16.493L20.319 16.4931C20.3467 16.9977 20.1002 17.4535 19.551 17.8539L19.5502 17.8545C19.3151 18.0296 19.2172 18.3328 19.3167 18.6092M20.227 15.0374L19.3167 18.6092M20.1717 12.2212C20.172 12.2207 20.1723 12.2203 20.1726 12.2198L20.2553 12.276M20.1717 12.2212C20.1714 12.2216 20.1712 12.2219 20.171 12.2223L20.2553 12.276M20.1717 12.2212C20.1985 12.1789 20.3255 11.9675 20.3656 11.6972C20.4054 11.4294 20.3604 11.1065 20.0427 10.8243M20.2553 12.276C20.3112 12.1882 20.806 11.3685 20.109 10.7495M20.0427 10.8243L20.109 10.7495M20.0427 10.8243C19.8552 10.6583 19.5718 10.5376 19.2213 10.4574C18.8723 10.3776 18.4656 10.3399 18.0402 10.3335C17.1898 10.3205 16.2762 10.4323 15.6222 10.571M20.0427 10.8243C20.0427 10.8243 20.0427 10.8243 20.0426 10.8242L20.109 10.7495M20.109 10.7495L15.6222 10.571M15.6222 10.571C15.6227 10.5709 15.6232 10.5707 15.6237 10.5706L15.6001 10.4734L15.6208 10.5713C15.6213 10.5712 15.6217 10.5711 15.6222 10.571ZM15.6222 10.571C15.6177 10.572 15.6131 10.5731 15.6086 10.5741C15.6033 10.5753 15.598 10.5764 15.5932 10.5775C15.5832 10.5796 15.5749 10.5814 15.5677 10.5832L15.5599 10.5851L15.5598 10.5847C15.3276 10.6217 15.082 10.671 14.8228 10.7287M15.6222 10.571L15.5441 10.486C15.3075 10.5236 15.0579 10.5738 14.7955 10.6324M14.8228 10.7287C14.8247 10.7281 14.8266 10.7274 14.8285 10.7268L14.7955 10.6324M14.8228 10.7287C14.5228 10.8316 14.1075 10.8188 13.7921 10.5449C13.4721 10.2687 13.3428 9.82703 13.3775 9.20533C13.4121 8.58344 13.6115 7.76063 13.9737 6.69397C14.2083 6.00157 14.3279 5.39953 14.3363 4.90139C14.3446 4.40278 14.2416 4.01632 14.0398 3.74519L14.0398 3.74515C13.7287 3.32674 13.2242 3.23868 12.9702 3.22345C12.9606 3.25191 12.951 3.28901 12.9425 3.33509C12.9277 3.41451 12.9175 3.51207 12.9125 3.62053C12.9026 3.83721 12.9141 4.09039 12.9494 4.31726C12.9694 4.43006 12.9595 4.5444 12.9183 4.64979M14.8228 10.7287C14.821 10.7291 14.8191 10.7296 14.8173 10.73L14.7955 10.6324M14.7955 10.6324C14.5201 10.7286 14.1415 10.716 13.8576 10.4693C13.2853 9.97574 13.3456 8.85487 14.0684 6.72606C14.5417 5.32915 14.5589 4.2752 14.12 3.68549C13.75 3.18779 13.1348 3.12505 12.9067 3.12087C12.8035 3.29235 12.7776 3.86533 12.8508 4.33375L19.3167 18.6092M19.2959 19.6579C19.5822 19.1609 19.4291 18.6374 19.4133 18.5834C19.4125 18.5806 19.412 18.579 19.412 18.5788C19.326 18.3446 19.4077 18.0853 19.6099 17.9348C20.1779 17.5207 20.4489 17.0355 20.4188 16.4877L19.2959 19.6579ZM19.2959 19.6579C19.0076 20.1598 18.3665 20.5194 17.3942 20.7202L19.2959 19.6579ZM19.3167 18.6092L19.318 18.6139L19.3229 18.6311C19.3269 18.646 19.3325 18.668 19.3383 18.6961C19.3501 18.7524 19.3629 18.8326 19.367 18.9281C19.3751 19.1195 19.3476 19.3678 19.2092 19.608L19.2092 19.6081C18.9425 20.0723 18.3371 20.4234 17.374 20.6223L17.3737 20.6223C16.6083 20.7826 15.5607 20.8126 14.2654 20.7125L14.2654 20.7122H14.2577H14.2576H14.2575H14.2574H14.2573H14.2572H14.2571H14.257H14.2569H14.2568H14.2567H14.2566H14.2565H14.2564H14.2563H14.2562H14.2561H14.256H14.2559H14.2558H14.2557H14.2556H14.2555H14.2553H14.2552H14.2551H14.255H14.2549H14.2548H14.2547H14.2546H14.2545H14.2544H14.2543H14.2542H14.2541H14.254H14.2539H14.2538H14.2537H14.2536H14.2535H14.2534H14.2533H14.2532H14.2531H14.253H14.2528H14.2527H14.2526H14.2525H14.2524H14.2523H14.2522H14.2521H14.252H14.2519H14.2518H14.2517H14.2516H14.2515H14.2514H14.2513H14.2512H14.251H14.2509H14.2508H14.2507H14.2506H14.2505H14.2504H14.2503H14.2502H14.2501H14.25H14.2499H14.2498H14.2497H14.2495H14.2494H14.2493H14.2492H14.2491H14.249H14.2489H14.2488H14.2487H14.2486H14.2485H14.2484H14.2482H14.2481H14.248H14.2479H14.2478H14.2477H14.2476H14.2475H14.2474H14.2473H14.2471H14.247H14.2469H14.2468H14.2467H14.2466H14.2465H14.2464H14.2463H14.2462H14.246H14.2459H14.2458H14.2457H14.2456H14.2455H14.2454H14.2453H14.2452H14.245H14.2449H14.2448H14.2447H14.2446H14.2445H14.2444H14.2443H14.2442H14.244H14.2439H14.2438H14.2437H14.2436H14.2435H14.2434H14.2433H14.2431H14.243H14.2429H14.2428H14.2427H14.2426H14.2425H14.2424H14.2422H14.2421H14.242H14.2419H14.2418H14.2417H14.2416H14.2415H14.2413H14.2412H14.2411H14.241H14.2409H14.2408H14.2407H14.2405H14.2404H14.2403H14.2402H14.2401H14.24H14.2399H14.2397H14.2396H14.2395H14.2394H14.2393H14.2392H14.2391H14.2389H14.2388H14.2387H14.2386H14.2385H14.2384H14.2382H14.2381H14.238H14.2379H14.2378H14.2377H14.2376H14.2374H14.2373H14.2372H14.2371H14.237H14.2369H14.2367H14.2366H14.2365H14.2364H14.2363H14.2362H14.236H14.2359H14.2358H14.2357H14.2356H14.2355H14.2353H14.2352H14.2351H14.235H14.2349H14.2348H14.2346H14.2345H14.2344H14.2343H14.2342H14.2341H14.2339H14.2338H14.2337H14.2336H14.2335H14.2333H14.2332H14.2331H14.233H14.2329H14.2328H14.2326H14.2325H14.2324H14.2323H14.2322H14.232H14.2319H14.2318H14.2317H14.2316H14.2315H14.2313H14.2312H14.2311H14.231H14.2309H14.2307H14.2306H14.2305H14.2304H14.2303H14.2301H14.23H14.2299H14.2298H14.2297H14.2295H14.2294H14.2293H14.2292H14.2291H14.2289H14.2288H14.2287H14.2286H14.2285H14.2283H14.2282H14.2281H14.228H14.2279H14.2277H14.2276H14.2275H14.2274H14.2273H14.2271H14.227H14.2269H14.2268H14.2267H14.2265H14.2264H14.2263H14.2262H14.2261H14.2259H14.2258H14.2257H14.2256H14.2255H14.2253H14.2252H14.2251H14.225H14.2248H14.2247H14.2246H14.2245H14.2244H14.2242H14.2241H14.224H14.2239H14.2238H14.2236H14.2235H14.2234H14.2233H14.2231H14.223H14.2229H14.2228H14.2227H14.2225H14.2224H14.2223H14.2222H14.222H14.2219H14.2218H14.2217H14.2216H14.2214H14.2213H14.2212H14.2211H14.2209H14.2208H14.2207H14.2206H14.2205H14.2203H14.2202H14.2201H14.22H14.2198H14.2197H14.2196H14.2195H14.2193H14.2192H14.2191H14.219H14.2189H14.2187H14.2186H14.2185H14.2184H14.2182H14.2181H14.218H14.2179H14.2177H14.2176H14.2175H14.2174H14.2172H14.2171H14.217H14.2169H14.2168H14.2166H14.2165H14.2164H14.2163H14.2161H14.216H14.2159H14.2158H14.2156H14.2155H14.2154H14.2153H14.2151H14.215H14.2149H14.2148H14.2146H14.2145H14.2144H14.2143H14.2141H14.214H14.2139H14.2138H14.2136H14.2135H14.2134H14.2133H14.2132H14.213H14.2129H14.2128H14.2127H14.2125H14.2124H14.2123H14.2122H14.212H14.2119H14.2118H14.2117H14.2115H14.2114H14.2113H14.2112H14.211H14.2109H14.2108H14.2107H14.2105H14.2104H14.2103H14.2102H14.21H14.2099H14.2098H14.2097H14.2095H14.2094H14.2093H14.2092H14.209H14.2089H14.2088H14.2087H14.2085H14.2084H14.2083H14.2082H14.208H14.2079H14.2078H14.2077H14.2075H14.2074H14.2073H14.2071H14.207H14.2069H14.2068H14.2066H14.2065H14.2064H14.2063H14.2061H14.206H14.2059H14.2058H14.2056H14.2055H14.2054H14.2053H14.2051H14.205H14.2049H14.2048H14.2046H14.2045H14.2044H14.2043H14.2041H14.204H14.2039H14.2038H14.2036H14.2035H14.2034H14.2033H14.2031H14.203H14.2029H14.2027H14.2026H14.2025H14.2024H14.2022H14.2021H14.202H14.2019H14.2017H14.2016H14.2015H14.2014H14.2012H14.2011H14.201H14.2009H14.2007H14.2006H14.2005H14.2004H14.2002H14.2001H14.2H14.1999H14.1997H14.1996H14.1995H14.1993H14.1992H14.1991H14.199H14.1988H14.1987H14.1986H14.1985H14.1983H14.1982H14.1981H14.198H14.1978H14.1977H14.1976L14.1975 20.7122L14.1953 20.7122C12.8166 20.7414 11.4294 20.6685 10.3824 20.5876C9.85913 20.5471 9.42121 20.5047 9.11235 20.4722C8.95792 20.4559 8.83577 20.4422 8.75137 20.4323C8.70917 20.4274 8.67641 20.4234 8.65378 20.4207L8.62756 20.4174L8.6204 20.4165L8.61802 20.4162L8.61816 20.4153H8.60572L8.28323 20.378C8.29721 20.2861 8.30414 20.1914 8.30414 20.097V13.2965C8.30414 13.1162 8.27565 12.9405 8.22663 12.7767C8.30792 12.4932 8.51811 11.9139 8.98979 11.4179C9.48374 11.0353 9.96911 10.4334 10.4194 9.74933C10.8725 9.06097 11.2943 8.28274 11.6573 7.54608C12.3819 6.07548 12.8754 4.76401 12.9183 4.64979M12.9183 4.64979C12.9183 4.65001 12.9182 4.65023 12.9181 4.65046L12.825 4.61397L12.9186 4.64915C12.9185 4.64936 12.9184 4.64958 12.9183 4.64979ZM3.78982 20.6035H3.72181C3.45939 20.5709 3.26166 20.3525 3.26166 20.097V13.2965C3.26166 13.0161 3.49771 12.7859 3.78982 12.7859H6.41432C6.70982 12.7859 6.94248 13.0194 6.94248 13.2965V20.0928C6.94248 20.3733 6.70643 20.6035 6.41432 20.6035H3.78982Z" fill="#007728" stroke="#007728" stroke-width="0.2"/>
</svg>
