<svg width="20" height="20" viewBox="0 0 20 20" fill="none" xmlns="http://www.w3.org/2000/svg">
<path d="M12.6464 10.4121C13.7379 9.56067 14.4495 8.20182 14.4495 6.6683C14.4495 4.09406 12.4533 2 9.99937 2C7.54543 2 5.54922 4.09406 5.54922 6.6683C5.54922 8.20182 6.26084 9.56067 7.35233 10.4121C5.40677 11.0982 4 13.0255 4 15.2943V15.9451C4 16.7169 4.52232 17.3823 5.24217 17.5271C6.80658 17.8413 8.40709 18 10 18C11.5929 18 13.1934 17.8406 14.7585 17.5271C15.4777 17.3823 16 16.7169 16 15.9451V15.2943C15.9987 13.0255 14.5913 11.0982 12.6464 10.4121ZM6.68819 6.6683C6.68819 4.75356 8.17347 3.19547 9.99873 3.19547C11.824 3.19547 13.3093 4.75356 13.3093 6.6683C13.3093 8.58304 11.824 10.1411 9.99873 10.1411C8.17347 10.1411 6.68819 8.5837 6.68819 6.6683ZM14.8585 15.9451C14.8585 16.1444 14.7255 16.3164 14.5426 16.3529C11.5549 16.952 8.44191 16.952 5.45552 16.3529C5.27192 16.3157 5.13897 16.1444 5.13897 15.9451V15.2943C5.13897 13.1119 6.83128 11.3366 8.91105 11.3366H11.0864C13.1662 11.3366 14.8585 13.1119 14.8585 15.2943V15.9451Z" fill="#6D6D6D"/>
<path d="M17.0511 10.204C17.8047 9.51551 18.2631 8.52377 18.2631 7.46792C18.2631 5.94472 17.352 4.5991 15.9423 4.04008C15.649 3.92405 15.3149 4.06829 15.1982 4.36511C15.0816 4.66128 15.2263 4.99657 15.5215 5.11324C16.49 5.49725 17.1148 6.42168 17.1148 7.46728C17.1148 8.50902 16.4658 9.4591 15.5005 9.83285C15.2556 9.92773 15.1058 10.1771 15.137 10.4393C15.1676 10.7015 15.3717 10.9086 15.6312 10.9432C17.0549 11.1323 18.3524 12.617 18.3524 14.0575V14.5512C18.3524 14.6454 18.2861 14.7307 18.1955 14.7486C18.0827 14.7711 17.9654 14.7916 17.8442 14.8127L17.5994 14.8557C17.2876 14.9127 17.081 15.2128 17.1371 15.5262C17.1875 15.8051 17.4291 16 17.7014 16C17.7358 16 17.7696 15.9968 17.8047 15.9904L18.038 15.9494C18.1694 15.9263 18.2975 15.9045 18.4187 15.8801C19.0448 15.7564 19.5 15.1974 19.5 14.5512V14.0575C19.5 12.467 18.4633 10.9304 17.0511 10.204Z" fill="#6D6D6D"/>
<path d="M2.40064 14.8558L2.1558 14.8128C2.0353 14.7917 1.91735 14.7718 1.80258 14.7481C1.7146 14.7308 1.64765 14.6461 1.64765 14.5513V14.0577C1.64765 12.6173 2.9445 11.1327 4.36886 10.9436C4.62835 10.909 4.83302 10.7019 4.86298 10.4397C4.89423 10.1775 4.74376 9.92818 4.49956 9.83331C3.53362 9.45959 2.8852 8.50895 2.8852 7.46792C2.8852 6.42176 3.51003 5.4974 4.47852 5.11406C4.77372 4.99676 4.91782 4.6615 4.80178 4.36534C4.6851 4.06855 4.35037 3.92368 4.05772 4.04034C2.64802 4.59932 1.73691 5.94484 1.73691 7.46792C1.73691 8.52305 2.19597 9.51536 2.94896 10.2038C1.53671 10.9295 0.5 12.466 0.5 14.0577V14.5513C0.5 15.1974 0.955235 15.7564 1.57943 15.8795C1.70184 15.9045 1.83064 15.9263 1.96198 15.9494L2.19533 15.9904C2.2304 15.9968 2.26419 16 2.29862 16C2.57087 16 2.81252 15.8045 2.86288 15.5263C2.91963 15.2128 2.71241 14.9128 2.40064 14.8558Z" fill="#6D6D6D"/>
</svg>
