<svg width="260" height="86" fill="none" xmlns="http://www.w3.org/2000/svg"><path fill-rule="evenodd" clip-rule="evenodd" d="M35.003 10.783c-13.585 0-24.456 10.7-24.456 23.716v.067c-.163 3.754.975 8.103 2.941 12.585 1.95 4.466 4.68 8.997 7.589 13.099 2.909 4.085 5.98 7.723 8.629 10.42 1.316 1.339 2.518 2.447 3.526 3.24.813.646 1.43 1.043 1.852 1.241.098-.05.244-.116.423-.215.358-.215.813-.53 1.333-.943 1.04-.826 2.323-2.017 3.753-3.49 2.844-2.943 6.191-6.995 9.295-11.493.39-.563 1.138-.695 1.674-.298.536.397.666 1.19.276 1.753-3.169 4.63-6.614 8.782-9.555 11.825-1.462 1.521-2.827 2.795-3.981 3.704-.569.464-1.121.844-1.609 1.125-.471.281-.975.513-1.478.596l-.293.016-.26-.083c-.845-.248-1.852-.926-2.925-1.77-1.105-.876-2.372-2.05-3.737-3.44-2.73-2.794-5.9-6.515-8.873-10.716-2.974-4.184-5.801-8.865-7.849-13.545-2.031-4.648-3.331-9.394-3.152-13.71C8.158 19.913 20.265 8.27 35.003 8.27c11.343 0 21.093 6.88 25.025 16.67.26.645-.032 1.373-.65 1.638-.617.264-1.316-.034-1.576-.678-3.526-8.816-12.383-15.117-22.799-15.117Z" fill="#F0500B"/><g filter="url(#a)"><path fill-rule="evenodd" clip-rule="evenodd" d="M236.347 47.329c-.585-.083-1.121.132-1.576.496-.439.33-.715.81-.764 1.39v.032c-.048.58.147 1.092.537 1.522.715.711 1.673 1.273 2.843 1.72 1.203.413 2.503.628 3.9.628 1.414 0 2.633-.231 3.624-.694.991-.463 1.771-1.092 2.308-1.919.536-.81.812-1.736.812-2.729 0-.86-.211-1.654-.634-2.331-.438-.712-1.137-1.29-2.031-1.77-.894-.463-2.08-.844-3.526-1.141-1.008-.199-1.739-.414-2.226-.596-.472-.198-.699-.38-.797-.512a1.2 1.2 0 0 1-.146-.596c0-.165.049-.28.114-.38.065-.1.195-.215.406-.314.488-.232 1.105-.364 1.869-.364.666 0 1.251.082 1.722.231.455.133.878.397 1.3.794.374.364.845.579 1.365.678.553.1 1.089.017 1.544-.297h.033c.422-.315.698-.745.731-1.29.016-.53-.179-1.01-.52-1.406-.65-.794-1.511-1.406-2.551-1.836-1.057-.43-2.259-.645-3.575-.645a8.76 8.76 0 0 0-2.99.53 5.613 5.613 0 0 0-2.454 1.603c-.683.761-1.008 1.72-1.008 2.828 0 1.29.52 2.399 1.495 3.275.992.86 2.503 1.456 4.469 1.853 1.463.264 2.356.578 2.779.91.439.33.585.644.569.958-.017.315-.163.612-.618.893-.422.265-1.121.447-2.177.447a5.516 5.516 0 0 1-2.145-.413c-.667-.315-1.089-.612-1.333-.877-.374-.38-.829-.628-1.349-.678Z" fill="#fff"/></g><g filter="url(#b)" fill="#fff"><path d="M221.812 52.377c-.455 0-.812-.116-1.056-.347-.244-.248-.374-.612-.374-1.092V38.121c0-.463.13-.81.374-1.058s.586-.364 1.041-.364c.471 0 .828.116 1.056.38.244.232.357.248.357.728l.032 13.131c0 .463-.13.81-.373 1.059-.228.264-.585.38-1.057.38Zm-.032-9.79c0-1.142.276-2.167.829-3.06a6.444 6.444 0 0 1 2.275-2.183 6.333 6.333 0 0 1 3.136-.81c1.137 0 1.982.198 2.535.578.569.364.78.81.65 1.323-.065.265-.042.416-.205.565-.146.132-.461.279-.673.328a1.608 1.608 0 0 1-.682-.033c-1.219-.248-2.308-.264-3.283-.05-.975.216-1.738.596-2.307 1.175-.553.579-.829 1.306-.829 2.183h-1.446v-.017Z"/><path fill-rule="evenodd" clip-rule="evenodd" d="M223.876 42.587v8.368c0 .563-.146 1.092-.536 1.489-.39.413-.926.562-1.495.562-.552 0-1.072-.149-1.479-.513l-.032-.033c-.407-.397-.553-.943-.553-1.521V38.12c0-.579.163-1.108.553-1.505.39-.397.926-.562 1.495-.562.568 0 1.105.149 1.495.562.211.199.357.447.438.712.26-.199.553-.38.846-.563 1.04-.595 2.193-.876 3.428-.876 1.187 0 2.178.198 2.877.678.341.215.633.496.796.843.178.364.211.761.114 1.141a1.775 1.775 0 0 1-.537.96c-.243.215-.52.347-.845.396-.309.05-.617.034-.926-.033-1.154-.231-2.145-.248-3.006-.05-.878.183-1.528.53-1.999 1.01-.422.446-.634 1.008-.634 1.753Zm-.65.016.016 8.335c0 .463-.13.81-.373 1.059-.228.248-.585.38-1.057.38-.455 0-.812-.116-1.056-.347-.244-.248-.374-.612-.374-1.092V38.121c0-.463.13-.81.374-1.058s.586-.364 1.041-.364c.471 0 .828.116 1.056.38.179.166.308.414.357.728 0-.347.016.1 0 0L223 39c-.033.033.033-.033 0 0 .309-.265 1.51-1.441 1.884-1.656a6.333 6.333 0 0 1 3.136-.81c1.137 0 1.982.198 2.535.578.569.364.78.81.65 1.323-.065.265-.042.416-.205.565-.146.132-.461.279-.673.328a1.608 1.608 0 0 1-.682-.033c-1.219-.248-2.308-.264-3.283-.05-.975.216-1.738.596-2.307 1.175-.081.083-.146.15-.211.232-.39.512-.618 1.19-.618 1.951Z"/></g><g filter="url(#c)" fill="#fff"><path d="M212.697 52.377a1.5 1.5 0 0 1-1.056-.397c-.26-.281-.391-.646-.391-1.06l-.015-12.783c0-.447.168-.794.445-1.058a1.407 1.407 0 0 1 1.017-.397c.439 0 1.027.053 1.303.318.5.5.16.707.16 1.137l.015 12.784c0 .413-.13.777-.406 1.058-.276.265-.633.398-1.072.398Zm-6.289.148c-1.316 0-2.486-.28-3.526-.826-1.024-.58-1.853-1.407-2.47-2.498-.585-1.092-.878-2.432-.878-4.02v-7.045c0-.413.147-.76.423-1.024a1.46 1.46 0 0 1 1.056-.43c.423 0 .764.148 1.024.43.293.264.423.612.423 1.025v7.045c0 1.075.195 1.952.601 2.663a3.893 3.893 0 0 0 1.625 1.555c.682.33 1.446.48 2.307.48.813 0 1.544-.166 2.162-.48.65-.331 1.031-.803 1.527-1.307a3.29 3.29 0 0 0 .568-1.87l1.805-.015c0 1.19-.293 2.249-.878 3.208-.569.96-1.365 1.704-2.356 2.266-1.024.562-2.145.843-3.413.843Z"/><path fill-rule="evenodd" clip-rule="evenodd" d="M202.459 36.664c.406.397.601.893.601 1.472v7.046c0 .992.179 1.77.52 2.348a3.379 3.379 0 0 0 1.365 1.307c.585.28 1.268.43 2.032.43.731 0 1.348-.15 1.885-.414a3.48 3.48 0 0 0 1.3-1.108c.308-.446.455-.942.455-1.505v-8.087c0-.579.178-1.092.585-1.505.406-.38.91-.562 1.478-.562.569 0 1.089.181 1.495.578.407.397.585.927.585 1.505v12.785c0 .562-.178 1.075-.568 1.488-.407.397-.927.579-1.495.579-.569 0-1.073-.182-1.479-.562l-.033-.033a1.882 1.882 0 0 1-.39-.612c-.227.165-.455.297-.698.446-1.089.612-2.324.91-3.689.91-1.398 0-2.681-.298-3.819-.91-1.137-.628-2.031-1.554-2.681-2.729-.65-1.207-.959-2.646-.959-4.316v-7.046c0-.562.179-1.075.585-1.471.406-.414.91-.612 1.495-.612a1.78 1.78 0 0 1 1.43.578Zm.423 15.035c1.04.545 2.226.827 3.526.827 1.268 0 2.422-.298 3.413-.844.292-.165.419-.483.679-.682.097-.066.312.003.409-.08.114-.099.228-.198.341-.314v.315c0 .165.201.43.25.579.065.215-.022.314.141.48a1.5 1.5 0 0 0 1.056.397c.439 0 .796-.133 1.072-.398a1.53 1.53 0 0 0 .406-1.058l-.015-12.784c0-.447.116-.872-.16-1.137-.26-.265-.864-.318-1.303-.318-.422 0-.725.132-1.017.397-.26.264-.445.628-.445 1.058l.015 8.087a3.29 3.29 0 0 1-.568 1.869c-.017.016-.002.009-.018.025a4.127 4.127 0 0 1-1.509 1.282c-.634.33-1.349.48-2.162.48-.861 0-1.493.12-2.307-.48a3.934 3.934 0 0 1-1.642-1.556c-.406-.71-.584-1.587-.584-2.662l-.017-7.046c0-.413-.146-.76-.423-1.025a1.298 1.298 0 0 0-1.007-.43 1.46 1.46 0 0 0-1.479 1.455v7.046c0 1.587.293 2.927.878 4.019.617 1.091 1.446 1.919 2.47 2.498Z"/></g><g filter="url(#d)" fill="#fff"><path d="M186.566 49.913c.991 0 1.853-.231 2.616-.694a4.787 4.787 0 0 0 1.772-1.886c.439-.81.65-1.736.65-2.778s-.211-1.985-.65-2.779a4.664 4.664 0 0 0-1.772-1.918c-.763-.463-1.625-.695-2.616-.695-.991 0-1.852.232-2.616.695a4.7 4.7 0 0 0-1.788 1.918c-.438.81-.65 1.737-.65 2.779 0 1.041.212 1.984.65 2.778a4.83 4.83 0 0 0 1.788 1.886c.747.462 1.625.694 2.616.694Zm0 2.58c-1.544 0-2.892-.33-4.078-1.009-1.17-.694-2.113-1.62-2.796-2.811-.666-1.208-.991-2.58-.991-4.135 0-1.571.325-2.944.991-4.134a7.311 7.311 0 0 1 2.796-2.812c1.17-.695 2.534-1.026 4.078-1.026 1.511 0 2.934-.066 4.047 1.026a7.118 7.118 0 0 1 2.762 2.812c.682 1.19 1.024 2.563 1.024 4.134 0 1.555-.324 2.944-.991 4.15-.666 1.191-1.593 2.102-2.763 2.796-1.186.678-2.551 1.01-4.079 1.01Z"/><path fill-rule="evenodd" clip-rule="evenodd" d="M190.402 47.035c.39-.711.585-1.522.585-2.48 0-.96-.195-1.787-.585-2.482-.374-.727-.877-1.273-1.527-1.67-.65-.397-1.414-.595-2.308-.595-.894 0-1.641.198-2.307.595a4.077 4.077 0 0 0-1.56 1.687c-.374.695-.585 1.521-.585 2.48 0 .96.195 1.787.585 2.481.39.712.91 1.257 1.576 1.654.65.397 1.414.596 2.307.596.894 0 1.642-.199 2.308-.596a4.38 4.38 0 0 0 1.511-1.67Zm-1.22 2.184c-.763.462-1.625.694-2.616.694-.991 0-1.852-.231-2.616-.694a4.827 4.827 0 0 1-1.788-1.886c-.438-.81-.65-1.736-.65-2.778 0-1.059.212-1.985.65-2.779a4.923 4.923 0 0 1 1.788-1.918c.764-.463 1.617-.695 2.609-.695.991 0 1.86.232 2.623.695a4.664 4.664 0 0 1 1.772 1.918c.439.81.65 1.737.65 2.779 0 1.058-.211 1.984-.65 2.778a4.787 4.787 0 0 1-1.772 1.886Zm-7.002-12.14c1.283-.745 2.746-1.108 4.387-1.108 1.609 0 3.071.364 4.355 1.108a7.732 7.732 0 0 1 2.99 3.043c.748 1.29 1.105 2.778 1.105 4.432 0 1.637-.357 3.126-1.072 4.432a7.96 7.96 0 0 1-2.99 3.044c-1.284.727-2.747 1.091-4.372 1.091s-3.087-.347-4.371-1.092a8.357 8.357 0 0 1-3.022-3.026c-.715-1.306-1.073-2.795-1.073-4.432 0-1.654.358-3.143 1.073-4.433a7.668 7.668 0 0 1 2.99-3.06Zm.308 14.405c1.17.662 2.534 1.01 4.078 1.01 1.544 0 2.893-.332 4.079-1.01 1.17-.694 2.097-1.605 2.763-2.795.667-1.208.991-2.596.991-4.15 0-1.572-.342-2.945-1.024-4.136a7.226 7.226 0 0 0-2.762-2.811c-1.17-.695-2.519-1.026-4.047-1.026-1.544 0-2.892.348-4.078 1.026a7.315 7.315 0 0 0-2.796 2.812c-.666 1.19-.991 2.563-.991 4.134 0 1.555.325 2.927.991 4.135a7.796 7.796 0 0 0 2.796 2.811Z"/></g><g filter="url(#e)" fill="#fff"><path d="M163.052 32.745c-.406 0-.731-.132-.991-.38-.243-.265-.373-.596-.373-1.01 0-.413.13-.727.373-.975.26-.264.601-.397.991-.397h15.243c.406 0 .715.133.975.397.23.12.406.579.406.976s-.13.728-.406 1.009c-.244.248-.569.38-.975.38h-15.243Zm7.622 19.631c-.423 0-.763-.148-1.056-.43-.292-.28-.423-.645-.423-1.058V30h2.958v20.888c0 .413-.147.777-.423 1.058-.276.282-.634.43-1.056.43Z"/><path fill-rule="evenodd" clip-rule="evenodd" d="M163.052 29.983c-.406 0-.731.133-.991.397-.243.248-.373.579-.373.976s.13.728.373 1.009c.26.248.601.38.991.38h6.21l-.067 18.143c0 .413.147.777.423 1.058.277.282.633.43 1.056.43.422 0 .764-.148 1.056-.43.293-.28.423-.645.423-1.058L172 32.745h6.295c.406 0 .715-.132.975-.38.26-.265.406-.596.406-1.01 0-.413-.13-.727-.406-.975-.244-.264-.569-.397-.975-.397h-15.243Zm.001-.612c-.553 0-1.04.199-1.43.579-.374.38-.553.877-.553 1.422 0 .546.179 1.026.537 1.423l.032.033c.39.363.878.545 1.414.545h5.525v17.515c0 .579.195 1.091.601 1.505.406.413.91.612 1.495.612a2.04 2.04 0 0 0 1.495-.612c.406-.414.601-.926.601-1.505V33.373h5.509c.536 0 1.024-.165 1.414-.562.39-.397.585-.893.585-1.439s-.179-1.042-.585-1.422c-.374-.397-.861-.579-1.414-.579h-15.226Z"/></g><g filter="url(#f)" fill="#fff"><path d="M150.183 51.748c-.357.15-.699.166-1.024.05-.308-.132-.552-.38-.747-.744l-6.516-12.47c-.195-.364-.212-.711-.082-1.026.147-.347.407-.595.764-.744.358-.149.699-.165 1.024-.033.325.116.569.347.747.711l6.24 12.47c.195.364.26.711.195 1.059-.032.33-.243.579-.601.727Zm-3.364 7.509c-.195 0-.422-.05-.682-.165-.829-.38-1.056-.976-.683-1.803l8.678-19.747c.374-.81.975-1.026 1.787-.695.862.364 1.089.96.715 1.803l-8.71 19.714c-.211.595-.585.893-1.105.893Z"/><path fill-rule="evenodd" clip-rule="evenodd" d="M146.137 59.092c.26.115.486.165.681.165.52 0 .878-.298 1.105-.893l8.71-19.714c.374-.843.147-1.439-.715-1.803-.812-.347-1.413-.115-1.787.695l-4.561 10.382-5.221-10.432c-.178-.364-.422-.595-.747-.71-.325-.133-.666-.117-1.024.032a1.367 1.367 0 0 0-.764.744c-.13.331-.097.662.082 1.026l-.57.314c-.26-.496-.325-1.042-.114-1.555.211-.496.601-.86 1.089-1.058.487-.198.991-.231 1.479-.033.487.182.845.546 1.072 1.025l4.631 9.245 4.047-9.212c.227-.496.568-.893 1.072-1.091.504-.182 1.024-.116 1.528.1.52.214.958.561 1.153 1.074.195.513.114 1.059-.113 1.571l-8.71 19.698c-.147.363-.342.678-.634.91a1.63 1.63 0 0 1-1.04.363c-.309 0-.618-.083-.926-.215-.504-.231-.927-.579-1.122-1.091-.195-.513-.097-1.042.13-1.539l2.714-6.168-6.256-12.024.57-.314 6.398 12.244-2.84 6.46c-.357.745-.146 1.407.683 1.804Z"/></g><g filter="url(#g)" fill="#fff"><path d="M137.118 52.41c-.423 0-.764-.132-1.056-.397 0 0-.407-.645-.407-1.058v-4.383l.537-3.043 2.405 1.025v6.384c0 .413-.321.78-.597 1.062 0 0-.46.41-.882.41Zm-6.37-2.497c.975 0 1.836-.231 2.584-.695a5.028 5.028 0 0 0 1.787-1.918c.439-.827.65-1.737.65-2.745 0-1.026-.211-1.952-.65-2.746a4.928 4.928 0 0 0-1.787-1.918c-.764-.48-1.625-.712-2.584-.712-.943 0-1.82.232-2.584.712a5 5 0 0 0-1.82 1.918c-.439.81-.65 1.72-.65 2.745 0 1.01.211 1.935.65 2.746.455.81 1.392 1.22 2.156 1.7.764.463 1.289.913 2.248.913Zm-.569 2.58c-1.381 0-2.632-.347-3.737-1.025-1.105-.712-1.942-1.468-2.617-2.845-.633-1.207-.942-2.563-.942-4.069a8.15 8.15 0 0 1 1.073-4.068c.698-1.208 1.592-2.15 2.762-2.844 1.202-.712 2.535-1.059 4.014-1.059 1.478 0 2.86.347 4.03 1.058 1.238.359 2.112 1.637 2.795 2.845.699 1.207 1.04 2.563 1.04 4.068h-1.138c0 1.505-.325 2.862-.975 4.069a7.59 7.59 0 0 1-2.584 2.845c-1.105.678-2.34 1.025-3.721 1.025Z"/><path fill-rule="evenodd" clip-rule="evenodd" d="M126.409 37.112c1.3-.76 2.747-1.141 4.323-1.141 1.576 0 3.022.38 4.306 1.14a8.154 8.154 0 0 1 3.006 3.06c.699 1.191 1.073 2.514 1.122 3.97l.016 6.797a2.08 2.08 0 0 1-.601 1.505c-.39.397-.894.579-1.463.579-.569 0-1.072-.182-1.479-.563l-.032-.033a2.1 2.1 0 0 1-.536-1.075c-.26.232-.553.43-.845.629-1.203.76-2.568 1.125-4.063 1.125-1.495 0-2.844-.364-4.062-1.125-1.187-.76-2.129-1.786-2.828-3.06-.682-1.306-1.007-2.762-1.007-4.366 0-1.604.357-3.076 1.105-4.383.763-1.29 1.771-2.315 3.038-3.06Zm6.598 11.577a4.464 4.464 0 0 0 1.576-1.687c.39-.728.585-1.538.585-2.448 0-.943-.195-1.753-.585-2.448-.39-.727-.91-1.29-1.56-1.686-.65-.414-1.397-.629-2.259-.629-.845 0-1.592.215-2.275.629-.666.396-1.186.959-1.592 1.686-.374.695-.585 1.505-.585 2.448 0 .91.195 1.72.585 2.448a4.668 4.668 0 0 0 1.609 1.687c.682.397 1.43.595 2.275.595a4.056 4.056 0 0 0 2.226-.595Zm2.047-1.24c.033-.05.049-.1.082-.133.13-.248.243-.496.325-.744 0-.017.016-.017.016-.033a6.018 6.018 0 0 0 .309-1.968 6.292 6.292 0 0 0-.147-1.373 5.053 5.053 0 0 0-.52-1.389 4.928 4.928 0 0 0-1.787-1.918c-.764-.48-1.625-.712-2.584-.712-.943 0-1.82.232-2.584.712a5 5 0 0 0-1.82 1.918c-.439.81-.65 1.72-.65 2.745 0 1.01.211 1.935.65 2.746.455.81 1.392 1.22 2.156 1.7.78.463 1.305.913 2.248.913.975 0 1.836-.231 2.584-.695a5.081 5.081 0 0 0 1.722-1.77Zm-8.612 4.019c1.558.532 2.34 1.025 3.737 1.025 1.381 0 2.616-.347 3.721-1.025.423-.265.742-.62 1.1-.968.227-.215.493-.495.688-.743l-.033 1.198c0 .413.345.545.407 1.058.292.265.633.397 1.056.397.422 0 .882-.41.882-.41s.5-1 .597-1.062v-6.384c0-.215-.081-.339-.097-.554 0 0-.358-2.505-.943-3.514a7.517 7.517 0 0 0-2.795-2.845c-1.262-.141-2.503-1.058-3.981-1.058-1.479 0-2.861.347-4.063 1.059-1.17.694-2.064 1.636-2.762 2.844a8.15 8.15 0 0 0-1.073 4.069c0 1.505.309 2.86.942 4.068.585 1.19 1.512 2.134 2.617 2.845Z"/></g><g filter="url(#h)" fill="#fff"><path d="M103.481 49.747h3.672c1.593 0 3.007-.364 4.209-1.092 1.235-.744 2.439-1.865 3.138-3.155.699-1.306.827-2.666.827-4.337 0-1.686-.357-3.158-1.056-4.448a7.742 7.742 0 0 0-2.91-2.994c-1.219-.728-2.615-1.108-4.208-1.108h-3.672v17.134Zm-1.479 2.63c-.422 0-.764-.15-1.056-.43-.293-.282-.423-.646-.423-1.059v-19.4c0-.446.147-.793.423-1.058.292-.281.634-.43 1.056-.43h5.151c1.625 0 3.119.297 4.435.843a9.953 9.953 0 0 1 3.512 2.3c.991.992 1.738 2.166 2.275 3.522.536 1.356.796 2.861.796 4.498 0 1.638-.26 3.16-.796 4.532-.537 1.356-1.284 2.547-2.275 3.556a10.469 10.469 0 0 1-3.51 2.315c-1.333.53-2.812.81-4.437.81h-5.151Z"/><path fill-rule="evenodd" clip-rule="evenodd" d="M114.5 45.5c-.699 1.273-1.904 2.41-3.139 3.155-1.219.728-2.617 1.091-4.209 1.091h-3.673l.002-17.133h3.689c1.592 0 2.988.38 4.191 1.108a7.742 7.742 0 0 1 2.91 2.994c.699 1.273 1.056 2.761 1.056 4.448 0 1.654-.112 3.047-.827 4.337Zm-3.448-11.233c-1.105-.662-2.405-1.01-3.9-1.01h-3.055v15.861h3.055c1.495 0 2.795-.347 3.9-1.009a7.444 7.444 0 0 0 2.681-2.795c.65-1.19.975-2.58.975-4.134 0-1.588-.325-2.96-.975-4.135-.65-1.19-1.544-2.117-2.681-2.779Zm4.048-1.125a9.953 9.953 0 0 0-3.512-2.299c-1.332-.562-2.81-.843-4.435-.843h-5.151c-.422 0-.764.149-1.056.43.054.57-.423.628-.423 1.058v19.4c0 .413.147.777.423 1.059.292.28.634.43 1.056.43h5.151c1.625 0 3.12-.265 4.437-.81 1.348-.563 2.518-1.324 3.51-2.316.991-1.01 1.738-2.2 2.275-3.556.536-1.373.796-2.878.796-4.532 0-1.653-.26-3.142-.796-4.498a9.994 9.994 0 0 0-2.275-3.523Zm2.858 12.784c-.569 1.439-1.365 2.696-2.421 3.77-1.04 1.06-2.291 1.87-3.705 2.465-1.414.562-2.974.844-4.68.844h-5.151a2.04 2.04 0 0 1-1.495-.612 2.076 2.076 0 0 1-.602-1.505v-19.4c0-.579.195-1.108.618-1.505a2.07 2.07 0 0 1 1.479-.612h5.151c1.706 0 3.266.281 4.68.877 1.43.562 2.665 1.389 3.705 2.464 1.056 1.058 1.852 2.299 2.421 3.738.569 1.438.845 3.01.845 4.73 0 1.703-.292 3.29-.845 4.746Z"/></g><g filter="url(#i)" fill="#fff"><path d="M85.427 52.51c-1.577 0-2.958-.348-4.193-1.026-1.219-.694-2.178-1.62-2.876-2.811-.683-1.208-1.024-2.58-1.024-4.135 0-1.571.325-2.944.975-4.134.666-1.208 2.698-2.762 2.698-2.762 1.153-.695 2.486-1.025 3.981-1.025 1.479 0 2.778.28 3.85.958 1.057.645 1.838 1.605 2.39 2.78.569 1.14.893 2.43.893 3.935 0 .364-.162.712-.405.96-.244.231-.553.347-.943.347l-11.44.035v-2.384h11.39l-1.17.81c-.016-.959-.21-1.802-.568-2.547-.358-.76-.877-1.372-1.544-1.802-.666-.447-1.478-.662-2.421-.662-1.089 0-2.014.249-2.794.729-.764.48-1.333 1.14-1.74 1.984-.406.827-.601 1.736-.601 2.795 0 1.058.228 2.018.7 2.845.47.827 1.137 1.472 1.966 1.951.828.48 1.803.678 2.891.678.586 0 1.187-.1 1.788-.314.634-.232 1.138-.48 1.511-.778.293-.215.585-.314.91-.314a1.25 1.25 0 0 1 .878.281c.325.281.487.596.52.943.016.347-.146.678-.47.926-.65.513-1.447.943-2.422 1.258-.943.33-1.853.48-2.73.48Z"/><path fill-rule="evenodd" clip-rule="evenodd" d="M80.714 37.08c1.268-.744 2.698-1.125 4.29-1.125 1.577 0 2.958.364 4.144 1.092 1.17.71 2.048 1.72 2.649 2.977.39.793.666 1.67.796 2.596l.016.066c.065.513.114 1.042.114 1.588 0 .53-.179.992-.552 1.356l-.033.033c-.374.348-.845.513-1.365.513H80.731c.097.314.227.595.39.876.422.728.99 1.29 1.738 1.72.732.414 1.577.629 2.568.629.52 0 1.04-.083 1.592-.281.585-.215 1.024-.447 1.349-.678.374-.282.796-.43 1.267-.43.488-.017.927.115 1.3.43.407.364.7.827.716 1.372.032.596-.244 1.075-.7 1.423-.714.562-1.592 1.025-2.6 1.356a8.938 8.938 0 0 1-2.924.512c-1.658 0-3.169-.347-4.502-1.074a8.457 8.457 0 0 1-3.103-3.027c-.748-1.307-1.105-2.795-1.105-4.432 0-1.654.341-3.143 1.04-4.433.715-1.306 1.706-2.332 2.957-3.06Zm8.011 5.573a5.41 5.41 0 0 0-.308-.86A3.71 3.71 0 0 0 87.1 40.24c-.552-.364-1.234-.563-2.08-.563-.99 0-1.803.215-2.47.629a4.07 4.07 0 0 0-1.51 1.72 4.183 4.183 0 0 0-.244.628h7.93Zm-8.631 0c-.065.199-.143.414-.176.629h9.571c-.032-.215.06-.567.011-.782-.097-.397-.353-.641-.515-.989-.358-.76-.877-1.372-1.544-1.802-.441-.709-1.478-.662-2.421-.662-1.089 0-2.014.249-2.794.729-.764.48-1.333 1.14-1.74 1.984-.145.281-.31.579-.392.893Zm1.14 8.831c1.235.662 2.617 1.026 4.193 1.026.877 0 1.787-.165 2.73-.48.975-.33 1.771-.744 2.421-1.257.325-.248.471-.545.455-.893-.016-.347-.195-.661-.52-.942a1.165 1.165 0 0 0-.862-.315c-.325 0-.65.133-.925.348-.374.281-.862.512-1.496.744a5.292 5.292 0 0 1-1.788.314c-1.088 0-2.063-.198-2.891-.678-.83-.48-1.496-1.124-1.967-1.951a5.792 5.792 0 0 1-.504-1.175c-.064-.198-.097-.413-.13-.628h10.823c.374 0 .699-.116.943-.347.243-.248.373-.563.373-.91 0-.413-.016-.81-.065-1.19-.016-.15.033-.091 0-.24-.13-.844-.439-1.844-.796-2.556-.552-1.157-1.333-2.117-2.39-2.779-1.055-.661-2.371-.958-3.85-.958-1.495 0-2.828.347-3.981 1.025-.507 1.358-2.032 1.554-2.698 2.761-.65 1.191-.975 2.564-.975 4.135 0 1.555.341 2.927 1.023 4.135.732 1.14 1.674 2.117 2.877 2.811Z"/></g><g filter="url(#j)" fill="#fff"><path d="M59.02 52.41a1.5 1.5 0 0 1-1.057-.398 1.53 1.53 0 0 1-.406-1.058V38.17c0-.447.13-.794.406-1.059a1.5 1.5 0 0 1 1.056-.397c.439 0 .78.133 1.056.397.26.265.407.629.407 1.059v12.784c0 .413-.13.777-.407 1.058-.26.265-.617.397-1.056.397Zm11.7 0a1.5 1.5 0 0 1-1.057-.398 1.53 1.53 0 0 1-.406-1.058v-7.045c0-1.092-.195-1.985-.602-2.663-.406-.678-.924-1.19-1.607-1.521-.666-.348-1.43-.513-2.307-.513-.741.288-1.53.165-2.18.48-.65.33-1.135.744-1.525 1.306-.374.53-.569 1.158-.569 1.87l-1.805.015c0-1.207.292-2.266.86-3.208a6.397 6.397 0 0 1 2.391-2.282c1.008-.546 2.127-.811 3.395-.811 1.316 0 2.471.265 3.511.844 1.04.562 1.851 1.389 2.453 2.48.6 1.092.91 2.431.91 4.02v7.044c0 .414-.147.778-.423 1.059-.276.248-.617.38-1.04.38Z"/><path fill-rule="evenodd" clip-rule="evenodd" d="M61.1 42.867v8.087c0 .563-.178 1.075-.568 1.489-.406.397-.926.579-1.495.579-.569 0-1.072-.182-1.479-.563l-.032-.033a2.179 2.179 0 0 1-.569-1.488V38.154c0-.58.179-1.092.585-1.505.406-.38.91-.563 1.479-.563.569 0 1.088.182 1.495.58.178.181.325.396.406.611.228-.165.455-.298.699-.43 1.105-.612 2.34-.91 3.688-.91 1.398 0 2.666.315 3.803.943 1.154.612 2.047 1.522 2.698 2.712.666 1.208.99 2.647.99 4.317v7.045c0 .58-.194 1.092-.6 1.505-.39.397-.894.58-1.463.58-.569 0-1.072-.183-1.479-.563l-.016-.017-.016-.033a2.179 2.179 0 0 1-.569-1.488v-7.046c0-1.025-.195-1.786-.52-2.348-.341-.579-.78-1.009-1.349-1.273h-.032c-.569-.298-1.235-.447-2.031-.447-.715 0-1.333.149-1.885.413a3.475 3.475 0 0 0-1.3 1.109c-.293.446-.44.926-.44 1.521Zm8.58 9.146a1.5 1.5 0 0 0 1.057.397c.422 0 .764-.132 1.024-.397.292-.281.422-.645.422-1.059L71.5 44c0-1.588.373-3.002-.228-4.094-.68-1.011-1.396-1.934-2.453-2.48-1.319-.426-2.195-.844-3.511-.844-1.251 0-2.387.265-3.395.81-.292.166-.153.41-.413.608-.097.066.081.417 0 .5-.114.1-.935-.131-1.033-.032l.015-.298c0-.182-.031-.33-.08-.48a1.277 1.277 0 0 0-.327-.579c-.26-.264-.632-.396-1.07-.396-.423 0-.75.132-1.042.396-.26.265-.406.629-.406 1.059v12.784c0 .413.13.777.406 1.058a1.5 1.5 0 0 0 1.056.397c.439 0 .78-.132 1.056-.397a1.53 1.53 0 0 0 .407-1.058l-.015-8.087c0-.711.195-1.323.569-1.869-.017.017.016-.016 0 0-.036-.998.908-1.009 1.526-1.307.65-.33 1.383-.479 2.179-.479.877 0 1.641.165 2.307.513a3.72 3.72 0 0 1 1.625 1.521c.406.695.602 1.572.602 2.663v7.045c0 .414.13.761.406 1.059Z"/></g><g filter="url(#k)"><path fill-rule="evenodd" clip-rule="evenodd" d="M34.125 52.924C44.005 52.924 52 44.787 52 34.73c0-10.055-7.995-18.192-17.875-18.192-9.88 0-17.875 8.137-17.875 18.192 0 10.056 7.995 18.193 17.875 18.193Zm0-5.094c7.101 0 12.87-5.871 12.87-13.099 0-7.227-5.769-13.098-12.87-13.098-7.101 0-12.87 5.871-12.87 13.098 0 7.228 5.769 13.099 12.87 13.099Z" fill="#fff"/></g><defs><filter id="f" x="139.086" y="34.113" width="24.307" height="31.821" filterUnits="userSpaceOnUse" color-interpolation-filters="sRGB"><feFlood flood-opacity="0" result="BackgroundImageFix"/><feColorMatrix in="SourceAlpha" values="0 0 0 0 0 0 0 0 0 0 0 0 0 0 0 0 0 0 127 0" result="hardAlpha"/><feOffset dx="2" dy="2"/><feGaussianBlur stdDeviation="2"/><feComposite in2="hardAlpha" operator="out"/><feColorMatrix values="0 0 0 0 0 0 0 0 0 0 0 0 0 0 0 0 0 0 0.25 0"/><feBlend in2="BackgroundImageFix" result="effect1_dropShadow_4089_48727"/><feBlend in="SourceGraphic" in2="effect1_dropShadow_4089_48727" result="shape"/></filter><filter id="a" x="232" y="34" width="22.031" height="25.117" filterUnits="userSpaceOnUse" color-interpolation-filters="sRGB"><feFlood flood-opacity="0" result="BackgroundImageFix"/><feColorMatrix in="SourceAlpha" values="0 0 0 0 0 0 0 0 0 0 0 0 0 0 0 0 0 0 127 0" result="hardAlpha"/><feOffset dx="2" dy="2"/><feGaussianBlur stdDeviation="2"/><feComposite in2="hardAlpha" operator="out"/><feColorMatrix values="0 0 0 0 0 0 0 0 0 0 0 0 0 0 0 0 0 0 0.25 0"/><feBlend in2="BackgroundImageFix" result="effect1_dropShadow_4089_48727"/><feBlend in="SourceGraphic" in2="effect1_dropShadow_4089_48727" result="shape"/></filter><filter id="c" x="196.949" y="34.082" width="23.811" height="25.088" filterUnits="userSpaceOnUse" color-interpolation-filters="sRGB"><feFlood flood-opacity="0" result="BackgroundImageFix"/><feColorMatrix in="SourceAlpha" values="0 0 0 0 0 0 0 0 0 0 0 0 0 0 0 0 0 0 127 0" result="hardAlpha"/><feOffset dx="2" dy="2"/><feGaussianBlur stdDeviation="2"/><feComposite in2="hardAlpha" operator="out"/><feColorMatrix values="0 0 0 0 0 0 0 0 0 0 0 0 0 0 0 0 0 0 0.25 0"/><feBlend in2="BackgroundImageFix" result="effect1_dropShadow_4089_48727"/><feBlend in="SourceGraphic" in2="effect1_dropShadow_4089_48727" result="shape"/></filter><filter id="d" x="176.117" y="33.971" width="24.9" height="25.15" filterUnits="userSpaceOnUse" color-interpolation-filters="sRGB"><feFlood flood-opacity="0" result="BackgroundImageFix"/><feColorMatrix in="SourceAlpha" values="0 0 0 0 0 0 0 0 0 0 0 0 0 0 0 0 0 0 127 0" result="hardAlpha"/><feOffset dx="2" dy="2"/><feGaussianBlur stdDeviation="2"/><feComposite in2="hardAlpha" operator="out"/><feColorMatrix values="0 0 0 0 0 0 0 0 0 0 0 0 0 0 0 0 0 0 0.25 0"/><feBlend in2="BackgroundImageFix" result="effect1_dropShadow_4089_48727"/><feBlend in="SourceGraphic" in2="effect1_dropShadow_4089_48727" result="shape"/></filter><filter id="e" x="159.07" y="27.371" width="27.207" height="31.634" filterUnits="userSpaceOnUse" color-interpolation-filters="sRGB"><feFlood flood-opacity="0" result="BackgroundImageFix"/><feColorMatrix in="SourceAlpha" values="0 0 0 0 0 0 0 0 0 0 0 0 0 0 0 0 0 0 127 0" result="hardAlpha"/><feOffset dx="2" dy="2"/><feGaussianBlur stdDeviation="2"/><feComposite in2="hardAlpha" operator="out"/><feColorMatrix values="0 0 0 0 0 0 0 0 0 0 0 0 0 0 0 0 0 0 0.25 0"/><feBlend in2="BackgroundImageFix" result="effect1_dropShadow_4089_48727"/><feBlend in="SourceGraphic" in2="effect1_dropShadow_4089_48727" result="shape"/></filter><filter id="b" x="217.781" y="33.889" width="20.095" height="25.117" filterUnits="userSpaceOnUse" color-interpolation-filters="sRGB"><feFlood flood-opacity="0" result="BackgroundImageFix"/><feColorMatrix in="SourceAlpha" values="0 0 0 0 0 0 0 0 0 0 0 0 0 0 0 0 0 0 127 0" result="hardAlpha"/><feOffset dx="2" dy="2"/><feGaussianBlur stdDeviation="2"/><feComposite in2="hardAlpha" operator="out"/><feColorMatrix values="0 0 0 0 0 0 0 0 0 0 0 0 0 0 0 0 0 0 0.25 0"/><feBlend in2="BackgroundImageFix" result="effect1_dropShadow_4089_48727"/><feBlend in="SourceGraphic" in2="effect1_dropShadow_4089_48727" result="shape"/></filter><filter id="g" x="120.266" y="33.971" width="24.916" height="25.134" filterUnits="userSpaceOnUse" color-interpolation-filters="sRGB"><feFlood flood-opacity="0" result="BackgroundImageFix"/><feColorMatrix in="SourceAlpha" values="0 0 0 0 0 0 0 0 0 0 0 0 0 0 0 0 0 0 127 0" result="hardAlpha"/><feOffset dx="2" dy="2"/><feGaussianBlur stdDeviation="2"/><feComposite in2="hardAlpha" operator="out"/><feColorMatrix values="0 0 0 0 0 0 0 0 0 0 0 0 0 0 0 0 0 0 0.25 0"/><feBlend in2="BackgroundImageFix" result="effect1_dropShadow_4089_48727"/><feBlend in="SourceGraphic" in2="effect1_dropShadow_4089_48727" result="shape"/></filter><filter id="h" x="97.904" y="27.371" width="26.899" height="31.634" filterUnits="userSpaceOnUse" color-interpolation-filters="sRGB"><feFlood flood-opacity="0" result="BackgroundImageFix"/><feColorMatrix in="SourceAlpha" values="0 0 0 0 0 0 0 0 0 0 0 0 0 0 0 0 0 0 127 0" result="hardAlpha"/><feOffset dx="2" dy="2"/><feGaussianBlur stdDeviation="2"/><feComposite in2="hardAlpha" operator="out"/><feColorMatrix values="0 0 0 0 0 0 0 0 0 0 0 0 0 0 0 0 0 0 0.25 0"/><feBlend in2="BackgroundImageFix" result="effect1_dropShadow_4089_48727"/><feBlend in="SourceGraphic" in2="effect1_dropShadow_4089_48727" result="shape"/></filter><filter id="i" x="74.717" y="33.955" width="24.006" height="25.15" filterUnits="userSpaceOnUse" color-interpolation-filters="sRGB"><feFlood flood-opacity="0" result="BackgroundImageFix"/><feColorMatrix in="SourceAlpha" values="0 0 0 0 0 0 0 0 0 0 0 0 0 0 0 0 0 0 127 0" result="hardAlpha"/><feOffset dx="2" dy="2"/><feGaussianBlur stdDeviation="2"/><feComposite in2="hardAlpha" operator="out"/><feColorMatrix values="0 0 0 0 0 0 0 0 0 0 0 0 0 0 0 0 0 0 0.25 0"/><feBlend in2="BackgroundImageFix" result="effect1_dropShadow_4089_48727"/><feBlend in="SourceGraphic" in2="effect1_dropShadow_4089_48727" result="shape"/></filter><filter id="j" x="54.957" y="33.938" width="23.844" height="25.101" filterUnits="userSpaceOnUse" color-interpolation-filters="sRGB"><feFlood flood-opacity="0" result="BackgroundImageFix"/><feColorMatrix in="SourceAlpha" values="0 0 0 0 0 0 0 0 0 0 0 0 0 0 0 0 0 0 127 0" result="hardAlpha"/><feOffset dx="2" dy="2"/><feGaussianBlur stdDeviation="2"/><feComposite in2="hardAlpha" operator="out"/><feColorMatrix values="0 0 0 0 0 0 0 0 0 0 0 0 0 0 0 0 0 0 0.25 0"/><feBlend in2="BackgroundImageFix" result="effect1_dropShadow_4089_48727"/><feBlend in="SourceGraphic" in2="effect1_dropShadow_4089_48727" result="shape"/></filter><filter id="k" x="14.25" y="14.539" width="43.75" height="44.385" filterUnits="userSpaceOnUse" color-interpolation-filters="sRGB"><feFlood flood-opacity="0" result="BackgroundImageFix"/><feColorMatrix in="SourceAlpha" values="0 0 0 0 0 0 0 0 0 0 0 0 0 0 0 0 0 0 127 0" result="hardAlpha"/><feOffset dx="2" dy="2"/><feGaussianBlur stdDeviation="2"/><feComposite in2="hardAlpha" operator="out"/><feColorMatrix values="0 0 0 0 0 0 0 0 0 0 0 0 0 0 0 0 0 0 0.25 0"/><feBlend in2="BackgroundImageFix" result="effect1_dropShadow_4089_48727"/><feBlend in="SourceGraphic" in2="effect1_dropShadow_4089_48727" result="shape"/></filter></defs></svg>