<svg width="20" height="20" viewBox="0 0 20 20" fill="none" xmlns="http://www.w3.org/2000/svg">
<path fill-rule="evenodd" clip-rule="evenodd" d="M8.10552 19.0001C7.84405 19.0001 7.63184 18.7879 7.63184 18.5264V5.26323C7.63184 5.00176 7.84405 4.78955 8.10552 4.78955C8.36699 4.78955 8.5792 5.00176 8.5792 5.26323V18.5264C8.5792 18.7879 8.36699 19.0001 8.10552 19.0001Z" fill="#0F0F10"/>
<path fill-rule="evenodd" clip-rule="evenodd" d="M6.21001 19.0001C5.94854 19.0001 5.73633 18.7879 5.73633 18.5264V5.26323C5.73633 5.00176 5.94854 4.78955 6.21001 4.78955C6.47149 4.78955 6.6837 5.00176 6.6837 5.26323V18.5264C6.6837 18.7879 6.47149 19.0001 6.21001 19.0001Z" fill="#0F0F10"/>
<path fill-rule="evenodd" clip-rule="evenodd" d="M11.8946 19.0001C11.6331 19.0001 11.4209 18.7879 11.4209 18.5264V5.26323C11.4209 5.00176 11.6331 4.78955 11.8946 4.78955C12.1561 4.78955 12.3683 5.00176 12.3683 5.26323V18.5264C12.3683 18.7879 12.1561 19.0001 11.8946 19.0001Z" fill="#0F0F10"/>
<path fill-rule="evenodd" clip-rule="evenodd" d="M13.7901 19.0001C13.5286 19.0001 13.3164 18.7879 13.3164 18.5264V5.26323C13.3164 5.00176 13.5286 4.78955 13.7901 4.78955C14.0516 4.78955 14.2638 5.00176 14.2638 5.26323V18.5264C14.2638 18.7879 14.0516 19.0001 13.7901 19.0001Z" fill="#0F0F10"/>
<path fill-rule="evenodd" clip-rule="evenodd" d="M13.789 3.8419H6.21001C5.94854 3.8419 5.73633 3.62969 5.73633 3.36822C5.73633 3.10674 5.94854 2.89453 6.21001 2.89453H13.789C14.0504 2.89453 14.2626 3.10674 14.2626 3.36822C14.2626 3.62969 14.0504 3.8419 13.789 3.8419Z" fill="#0F0F10"/>
<path fill-rule="evenodd" clip-rule="evenodd" d="M10.0001 19.0001C9.73858 19.0001 9.52637 18.7879 9.52637 18.5264V5.26323C9.52637 5.00176 9.73858 4.78955 10.0001 4.78955C10.2615 4.78955 10.4737 5.00176 10.4737 5.26323V18.5264C10.4737 18.7879 10.2615 19.0001 10.0001 19.0001Z" fill="#0F0F10"/>
<path fill-rule="evenodd" clip-rule="evenodd" d="M16.6316 5.73684C15.8481 5.73684 15.2105 5.09926 15.2105 4.31579C15.2105 3.53231 15.8481 2.89474 16.6316 2.89474C16.8931 2.89474 17.1053 3.10695 17.1053 3.36842C17.1053 3.62989 16.8931 3.8421 16.6316 3.8421C16.3711 3.8421 16.1579 4.05526 16.1579 4.31579C16.1579 4.57631 16.3711 4.78947 16.6316 4.78947C17.4151 4.78947 18.0526 4.15189 18.0526 3.36842C18.0526 2.58495 17.4151 1.94737 16.6316 1.94737H3.36842C2.58495 1.94737 1.94737 2.58495 1.94737 3.36842C1.94737 4.15189 2.58495 4.78947 3.36842 4.78947C3.62895 4.78947 3.84211 4.57631 3.84211 4.31579C3.84211 4.05526 3.62895 3.8421 3.36842 3.8421C3.10695 3.8421 2.89474 3.62989 2.89474 3.36842C2.89474 3.10695 3.10695 2.89474 3.36842 2.89474C4.15189 2.89474 4.78947 3.53231 4.78947 4.31579C4.78947 5.09926 4.15189 5.73684 3.36842 5.73684C2.062 5.73684 1 4.67484 1 3.36842C1 2.062 2.062 1 3.36842 1H16.6316C17.938 1 19 2.062 19 3.36842C19 4.67484 17.938 5.73684 16.6316 5.73684Z" fill="#0F0F10"/>
</svg>
