<svg width="60" height="60" viewBox="0 0 60 60" fill="none" xmlns="http://www.w3.org/2000/svg">
<path d="M30 57C44.9117 57 57 44.9117 57 30C57 15.0883 44.9117 3 30 3C15.0883 3 3 15.0883 3 30C3 44.9117 15.0883 57 30 57Z" fill="#058D34"/>
<path d="M24.0005 41.249L36.9844 56.0627C48.4828 52.9965 57.0001 42.5202 57.0001 29.9997C57.0001 29.7441 57.0001 29.4886 57.0001 29.2331L45.0005 20.999L24.0005 41.249Z" fill="#007728"/>
<path d="M30.6271 35.2011C31.7244 36.2414 31.7244 38.0247 30.6271 39.065L28.3539 41.2198C27.2565 42.2601 25.3753 42.2601 24.2779 41.2198L14.323 31.7088C13.2257 30.6686 13.2257 28.8852 14.323 27.845L16.5962 25.6901C17.6936 24.6499 19.5748 24.6499 20.6722 25.6901L30.6271 35.2011Z" fill="white"/>
<path d="M39.3278 18.7802C40.4252 17.7399 42.3064 17.7399 43.4038 18.7802L45.677 20.935C46.7743 21.9753 46.7743 23.7586 45.677 24.7989L28.4323 41.0716C27.3349 42.1118 25.4537 42.1118 24.3563 41.0716L22.0832 38.9167C20.9858 37.8765 20.9858 36.0932 22.0832 35.0529L39.3278 18.7802Z" fill="white"/>
</svg>
