<svg width="18" height="18" viewBox="0 0 18 18" fill="none" xmlns="http://www.w3.org/2000/svg">
<path fill-rule="evenodd" clip-rule="evenodd" d="M9 2.4375C9.14918 2.4375 9.29226 2.49676 9.39775 2.60225C9.50324 2.70774 9.5625 2.85082 9.5625 3V8.4375H15C15.1492 8.4375 15.2923 8.49676 15.3977 8.60225C15.5032 8.70774 15.5625 8.85082 15.5625 9C15.5625 9.14918 15.5032 9.29226 15.3977 9.39775C15.2923 9.50324 15.1492 9.5625 15 9.5625H9.5625V15C9.5625 15.1492 9.50324 15.2923 9.39775 15.3977C9.29226 15.5032 9.14918 15.5625 9 15.5625C8.85082 15.5625 8.70774 15.5032 8.60225 15.3977C8.49676 15.2923 8.4375 15.1492 8.4375 15V9.5625H3C2.85082 9.5625 2.70774 9.50324 2.60225 9.39775C2.49676 9.29226 2.4375 9.14918 2.4375 9C2.4375 8.85082 2.49676 8.70774 2.60225 8.60225C2.70774 8.49676 2.85082 8.4375 3 8.4375H8.4375V3C8.4375 2.85082 8.49676 2.70774 8.60225 2.60225C8.70774 2.49676 8.85082 2.4375 9 2.4375Z" fill="#F0500B"/>
</svg>
