<svg width="48" height="24" viewBox="0 0 48 24" fill="none" xmlns="http://www.w3.org/2000/svg">
<rect x="0.5" y="0.5" width="47" height="23" rx="3.5" fill="#FFB3C7" stroke="#D9D9D9"/>
<path d="M42.8613 13.9239C42.711 13.9244 42.5623 13.9512 42.4238 14.0028C42.2852 14.0543 42.1594 14.1297 42.0536 14.2245C41.9479 14.3193 41.8642 14.4316 41.8074 14.5552C41.7506 14.6787 41.7218 14.811 41.7226 14.9444C41.7218 15.0778 41.7506 15.2101 41.8074 15.3336C41.8642 15.4572 41.9479 15.5695 42.0536 15.6643C42.1594 15.7591 42.2852 15.8345 42.4238 15.886C42.5623 15.9376 42.711 15.9644 42.8613 15.9649C43.4894 15.9649 44 15.5078 44 14.9444C44.0008 14.811 43.972 14.6787 43.9152 14.5552C43.8584 14.4316 43.7748 14.3193 43.669 14.2245C43.5632 14.1297 43.4375 14.0543 43.2989 14.0028C43.1603 13.9512 43.0116 13.9244 42.8613 13.9239ZM39.1142 13.1357C39.1142 12.3637 38.3782 11.7387 37.4702 11.7387C36.5623 11.7387 35.8263 12.3647 35.8263 13.1357C35.8263 13.9068 36.5633 14.5318 37.4713 14.5318C38.3792 14.5318 39.1142 13.9068 39.1142 13.1357ZM39.1206 10.4204H40.9343V15.8501H39.1206V15.503C38.5918 15.8271 37.9643 16.0005 37.3218 16C35.5561 16 34.1247 14.7177 34.1247 13.1357C34.1247 11.5538 35.5561 10.2715 37.3218 10.2715C37.9894 10.2715 38.6078 10.4545 39.1206 10.7685V10.4204ZM24.6019 11.1279V10.4213H22.7444V15.8501H24.6062V13.315C24.6062 12.4595 25.6402 12.0005 26.358 12.0005H26.3794V10.4213C25.6423 10.4213 24.9662 10.704 24.6019 11.1279ZM19.9746 13.1357C19.9746 12.3637 19.2386 11.7387 18.3306 11.7387C17.4227 11.7387 16.6867 12.3647 16.6867 13.1357C16.6867 13.9068 17.4238 14.5318 18.3317 14.5318C19.2397 14.5318 19.9746 13.9068 19.9746 13.1357ZM19.981 10.4204H21.7958V15.8501H19.981V15.503C19.4683 15.816 18.8498 16 18.1822 16C16.4165 16 14.9851 14.7177 14.9851 13.1357C14.9851 11.5538 16.4165 10.2715 18.1822 10.2715C18.8498 10.2715 19.4683 10.4545 19.981 10.7685V10.4204ZM30.9009 10.2753C30.1767 10.2753 29.491 10.4763 29.0316 11.0321V10.4213H27.2253V15.8501H29.0541V12.9973C29.0541 12.1721 29.6715 11.7672 30.416 11.7672C31.2129 11.7672 31.6722 12.194 31.6722 12.9859V15.8501H33.4838V12.3979C33.4838 11.1346 32.3622 10.2753 30.9009 10.2753ZM12.3425 15.8501H14.2417V8.0019H12.3425V15.8501ZM4 15.852H6.01138V8H4.00107L4 15.852ZM11.035 8C11.035 9.69958 10.2958 11.2816 8.9777 12.4567L11.7571 15.852H9.27359L6.25385 12.1627L7.03362 11.6391C7.66841 11.2152 8.18274 10.6654 8.5355 10.0335C8.88827 9.40161 9.0697 8.70524 9.06529 8H11.0329H11.035Z" fill="#0A0B09"/>
</svg>
