<svg width="20" height="20" viewBox="0 0 20 20" fill="none" xmlns="http://www.w3.org/2000/svg">
<path d="M5.11836 5.92284H1.71219C1.33035 5.92284 1.01973 6.2303 1.01973 6.60826V19.3147C1.01973 19.6925 1.33035 20 1.71219 20H5.11836C5.50004 20 5.81066 19.6925 5.81066 19.3147V6.60826C5.81066 6.2303 5.50004 5.92284 5.11836 5.92284ZM4.62507 18.8264H2.20532V7.09639H4.62507V18.8264Z" fill="white"/>
<path d="M3.41527 0C2.08339 0 1 1.07239 1 2.39059C1 3.70895 2.08339 4.78133 3.41527 4.78133C4.74685 4.78133 5.83039 3.70895 5.83039 2.39059C5.83039 1.07239 4.747 0 3.41527 0ZM3.41527 3.60778C2.73715 3.60778 2.18559 3.06182 2.18559 2.39059C2.18559 1.71951 2.73715 1.17355 3.41527 1.17355C4.09324 1.17355 4.6448 1.71951 4.6448 2.39059C4.6448 3.06167 4.09324 3.60778 3.41527 3.60778Z" fill="white"/>
<path d="M16.8266 7.41255C16.0124 6.73979 14.9772 6.37999 13.9129 6.39952C13.2519 6.41158 12.606 6.56935 12.0207 6.855V6.57759C12.0207 6.21611 11.7246 5.92299 11.3594 5.92299H7.89126C7.52607 5.92299 7.22995 6.21611 7.22995 6.57759V19.3454C7.22995 19.707 7.52607 20 7.89126 20H11.4278C11.7553 20 12.0207 19.7372 12.0207 19.4133V11.8008C12.0207 11.1491 12.5359 10.5977 13.1938 10.5783C13.8776 10.5583 14.4403 11.1029 14.4403 11.7753V19.4255C14.4403 19.7427 14.7002 20 15.0207 20H18.4196C18.7401 20 19 19.7427 19 19.4255V12.008C19 10.2289 18.2078 8.55376 16.8266 7.41255ZM17.8144 18.8264H15.626V11.7753C15.626 10.468 14.5514 9.40428 13.2305 9.40428C11.9097 9.40428 10.8351 10.468 10.8351 11.7753V18.8264H8.41554V7.09639H10.8351V7.9492C10.835 8.08745 10.8843 8.2263 10.9842 8.33815C11.2011 8.58076 11.5758 8.60335 11.8209 8.3885C12.405 7.87672 13.1557 7.58711 13.9348 7.57277C14.7147 7.55812 15.4716 7.82149 16.0669 8.31343C17.1776 9.23109 17.8144 10.5777 17.8144 12.008V18.8264Z" fill="white"/>
</svg>
