<svg width="16" height="16" viewBox="0 0 16 16" fill="none" xmlns="http://www.w3.org/2000/svg">
<path d="M12.3223 6.76344H11.6716V4.74354C11.6716 2.67955 10.0245 1 8.00009 1C5.97494 1 4.32816 2.67932 4.32816 4.74354V6.76344H3.67769C3.30332 6.76344 3 7.07283 3 7.45435V14.3091C3 14.6907 3.30332 15 3.67769 15H12.3223C12.6959 15 13 14.6907 13 14.3091V7.45435C13 7.07283 12.6959 6.76344 12.3223 6.76344ZM5.6834 4.74354C5.6834 3.441 6.72246 2.38169 8.00006 2.38169C9.27735 2.38169 10.3165 3.441 10.3165 4.74354V6.76344H5.6834V4.74354Z" fill="#0F0F10"/>
</svg>
