<svg width="160" height="52" viewBox="0 0 160 52" fill="none" xmlns="http://www.w3.org/2000/svg">
<g clip-path="url(#clip0_575_495)">
<path fill-rule="evenodd" clip-rule="evenodd" d="M21.5403 6.52C13.1803 6.52 6.49031 12.99 6.49031 20.86V20.88V20.9C6.39031 23.17 7.09031 25.8 8.30031 28.51C9.50031 31.21 11.1803 33.95 12.9703 36.43C14.7603 38.9 16.6503 41.1 18.2803 42.73C19.0903 43.54 19.8303 44.21 20.4503 44.69C20.9503 45.08 21.3303 45.32 21.5903 45.44C21.6503 45.41 21.7403 45.37 21.8503 45.31C22.0703 45.18 22.3503 44.99 22.6703 44.74C23.3103 44.24 24.1003 43.52 24.9803 42.63C26.7303 40.85 28.7903 38.4 30.7003 35.68C30.9403 35.34 31.4003 35.26 31.7303 35.5C32.0603 35.74 32.1403 36.22 31.9003 36.56C29.9503 39.36 27.8303 41.87 26.0203 43.71C25.1203 44.63 24.2803 45.4 23.5703 45.95C23.2203 46.23 22.8803 46.46 22.5803 46.63C22.2903 46.8 21.9803 46.94 21.6703 46.99L21.4903 47L21.3303 46.95C20.8103 46.8 20.1903 46.39 19.5303 45.88C18.8503 45.35 18.0703 44.64 17.2303 43.8C15.5503 42.11 13.6003 39.86 11.7703 37.32C9.94031 34.79 8.20031 31.96 6.94031 29.13C5.69031 26.32 4.89031 23.45 5.00031 20.84C5.02031 12.04 12.4703 5 21.5403 5C28.5203 5 34.5203 9.16 36.9403 15.08C37.1003 15.47 36.9203 15.91 36.5403 16.07C36.1603 16.23 35.7303 16.05 35.5703 15.66C33.4003 10.33 27.9503 6.52 21.5403 6.52Z" fill="#F0500B"/>
<path d="M148.315 31.9C147.495 31.9 146.717 31.74 146.017 31.5C145.327 31.25 144.799 30.98 144.419 30.6C144.239 30.42 144.1 30.03 144.12 29.8C144.16 29.56 144.22 29.25 144.42 29.1C144.65 28.92 144.999 28.87 145.219 28.9C145.449 28.92 145.648 28.93 145.818 29.1C146.018 29.32 146.377 29.51 146.817 29.7C147.257 29.88 147.775 30 148.315 30C148.995 30 149.463 29.92 149.813 29.7C150.173 29.48 150.202 29.3399 150.212 28.9899C150.222 28.6399 150.16 28.45 149.81 28.2C149.47 27.95 148.935 27.76 148.015 27.6C146.835 27.37 145.958 27.06 145.418 26.6C144.888 26.14 144.45 25.3399 144.45 24.6699C144.45 24.0799 144.569 23.69 144.919 23.3C145.269 22.91 145.94 22.49 146.49 22.3C147.04 22.1 147.61 22 148.21 22C148.98 22 149.66 22.06 150.26 22.3C150.86 22.54 151.46 22.88 151.81 23.3C151.97 23.48 152.11 23.89 152.1 24.1C152.09 24.3 151.96 24.5299 151.77 24.6699C151.58 24.7999 151.171 24.95 150.911 24.9C150.651 24.85 150.44 24.7299 150.26 24.5699C149.97 24.2899 149.653 24.0099 149.313 23.9099C148.973 23.8099 148.65 23.8 148.21 23.8C147.7 23.8 147.276 23.93 146.916 24.1C146.566 24.27 146.49 24.3399 146.49 24.6699C146.49 24.8 146.507 24.93 146.617 25.1C146.737 25.26 146.886 25.36 147.216 25.5C147.546 25.63 147.984 25.77 148.614 25.9C149.494 26.07 150.212 26.33 150.712 26.6C151.222 26.87 151.59 27.24 151.81 27.6C152.03 27.95 152.31 28.44 152.31 28.9C152.31 29.43 152.1 29.87 151.81 30.3C151.53 30.73 151.072 31.25 150.512 31.5C149.972 31.77 149.145 31.9 148.315 31.9Z" fill="#0F0F10"/>
<path d="M136.529 31.8C136.249 31.8 135.98 31.74 135.83 31.6C135.68 31.45 135.431 31.09 135.431 30.8V23C135.431 22.72 135.58 22.55 135.73 22.4C135.88 22.25 136.249 22.1 136.529 22.1C136.819 22.1 137.188 22.14 137.328 22.3C137.478 22.44 137.528 22.81 137.528 23.1V30.8C137.528 31.08 137.378 31.35 137.228 31.5C137.088 31.66 136.819 31.8 136.529 31.8ZM136.49 25.75C136.49 25.06 136.66 24.44 137 23.9C137.35 23.35 137.804 22.77 138.384 22.44C138.964 22.12 139.625 22 140.325 22C141.025 22 141.55 22.21 141.89 22.44C142.24 22.66 142.37 22.93 142.29 23.24C142.25 23.4 142.18 23.53 142.08 23.62C141.99 23.7 141.953 23.87 141.823 23.9C141.693 23.92 141.473 23.84 141.323 23.8C140.573 23.65 139.926 23.67 139.326 23.8C138.726 23.93 138.277 24.15 137.927 24.5C137.587 24.85 137.38 25.23 137.38 25.76H136.49V25.75Z" fill="#0F0F10"/>
<path d="M130.837 31.8C130.577 31.8 130.318 31.66 130.138 31.5C129.978 31.33 129.838 31.05 129.838 30.8V23.0601C129.838 22.7901 129.968 22.46 130.138 22.3C130.318 22.14 130.577 22 130.837 22C131.107 22 131.466 22.24 131.636 22.4C131.796 22.56 131.896 22.8001 131.896 23.0601L131.936 30.8C131.936 31.05 131.806 31.33 131.636 31.5C131.466 31.66 131.107 31.8 130.837 31.8ZM127.042 31.9C126.232 31.9 125.484 31.73 124.844 31.4C124.214 31.05 123.626 30.56 123.246 29.9C122.886 29.24 122.693 28.4002 122.693 27.4402V23.0601C122.693 22.8101 122.777 22.56 122.947 22.4C123.127 22.23 123.386 22.1 123.646 22.1C123.906 22.1 124.285 22.23 124.445 22.4C124.625 22.56 124.745 22.85 124.745 23.1V27.3C124.745 27.95 124.894 28.47 125.144 28.9C125.394 29.32 125.623 29.59 126.043 29.8C126.463 30 126.85 30.1601 127.38 30.1601C127.88 30.1601 128.36 29.99 128.74 29.8C129.14 29.6 129.398 29.34 129.638 29C129.868 28.66 129.838 28.32 129.838 27.9L131.11 27.9401C131.11 28.6601 130.93 29.3001 130.57 29.8801C130.22 30.4601 129.749 31.06 129.139 31.4C128.509 31.74 127.822 31.9 127.042 31.9Z" fill="#0F0F10"/>
<path d="M114.81 30.1801C115.42 30.1801 115.95 30.0401 116.42 29.7601C116.89 29.4801 117.25 29.1001 117.51 28.6201C117.78 28.1301 117.91 27.5701 117.91 26.9401C117.91 26.3101 117.78 25.9801 117.51 25.5001C117.25 25.0001 116.89 24.4801 116.42 24.2001C115.95 23.9201 115.42 23.8001 114.81 23.8001C114.2 23.8001 113.67 24.0201 113.2 24.3001C112.73 24.5801 112.42 24.8001 112.16 25.3001C111.89 25.7901 111.7 26.3101 111.7 26.9401C111.7 27.5701 111.83 28.1401 112.1 28.6201C112.37 29.1101 112.74 29.4901 113.2 29.7601C113.66 30.0401 114.2 30.1801 114.81 30.1801ZM115.056 31.9001C114.106 31.9001 113.03 31.7101 112.3 31.3001C111.58 30.8801 110.982 30.4201 110.562 29.7001C110.152 28.9701 109.97 27.8701 109.97 26.9301C109.97 25.9801 110.17 25.1501 110.58 24.4301C111 23.7001 111.57 23.1401 112.3 22.7301C113.02 22.3101 113.86 22.1101 114.81 22.1101C115.74 22.1101 116.57 22.3201 117.3 22.7301C118.02 23.1301 118.59 23.7001 119 24.4301C119.42 25.1501 119.63 25.9801 119.63 26.9301C119.63 27.8701 119.561 28.6701 119.151 29.4001C118.741 30.1201 118.23 30.7801 117.51 31.2001C116.78 31.6101 115.996 31.9001 115.056 31.9001Z" fill="#0F0F10"/>
<path d="M92.4201 31.29C92.2001 31.38 91.9901 31.39 91.7901 31.32C91.6001 31.24 91.3251 31.07 91.2051 30.85L87.27 23.3C87.15 23.08 87.1901 22.9 87.2701 22.71C87.3601 22.5 87.5201 22.35 87.7401 22.26C87.9601 22.17 88.1701 22.16 88.3701 22.24C88.5701 22.31 88.7201 22.45 88.8301 22.67L92.6701 30.21C92.7901 30.43 92.8301 30.64 92.7901 30.85C92.7701 31.05 92.6401 31.2 92.4201 31.29ZM90.3501 35.83C90.2301 35.83 90.0901 35.8 89.9301 35.73C89.4201 35.5 89.2801 35.14 89.5101 34.64L94.7817 22.6C95.0117 22.11 95.4501 22.08 95.9501 22.28C96.4801 22.5 96.6201 22.86 96.3901 23.37L91.0301 35.29C90.9001 35.65 90.6701 35.83 90.3501 35.83Z" fill="#0F0F10"/>
<path d="M84.3801 31.8901C84.1201 31.8901 83.7104 31.6101 83.5304 31.4501C83.3704 31.2801 83.2804 31.0601 83.2804 30.8101L83.4801 28.1601L83.8101 26.3201L85.4599 26.9401V30.8001C85.4599 31.0501 85.1701 31.4701 85.0001 31.6401C84.8501 31.8101 84.6401 31.8901 84.3801 31.8901ZM80.4601 30.1801C81.0601 30.1801 81.5901 30.0401 82.0501 29.7601C82.5201 29.4701 82.8901 29.0801 83.1501 28.6001C83.4201 28.1001 83.5501 27.5501 83.5501 26.9401C83.5501 26.3201 83.4201 25.7601 83.1501 25.2801C82.8801 24.7801 82.5101 24.4001 82.0501 24.1201C81.5801 23.8301 81.0501 23.6901 80.4601 23.6901C79.8801 23.6901 79.3401 23.8301 78.8701 24.1201C78.4001 24.4001 78.0301 24.7801 77.7501 25.2801C77.4801 25.7701 77.3501 26.3201 77.3501 26.9401C77.3501 27.5501 77.4801 28.1101 77.7501 28.6001C78.0301 29.0901 78.4316 29.4102 78.9016 29.7002C79.3716 29.9802 79.8701 30.1801 80.4601 30.1801ZM80.1101 31.9401C79.2601 31.9401 78.3831 31.6102 77.7031 31.2002C77.0231 30.7702 76.6001 30.1201 76.2001 29.4001C75.8101 28.6701 75.6201 27.8501 75.6201 26.9401C75.6201 26.0301 75.8301 25.2101 76.2501 24.4801C76.6801 23.7501 77.2601 23.1801 77.9801 22.7601C78.7201 22.3301 79.5401 22.1201 80.4501 22.1201C81.3601 22.1201 82.3799 22.1301 83.0999 22.5601C83.8199 22.9801 84.3999 23.7501 84.8199 24.4801C85.2499 25.2101 85.4599 26.0301 85.4599 26.9401H84.5901C84.5901 27.8501 84.3901 28.6701 83.9901 29.4001C83.6001 30.1201 83.0672 30.7702 82.3972 31.2002C81.7172 31.6102 80.9601 31.9401 80.1101 31.9401Z" fill="#0F0F10"/>
<path d="M63.8797 29.8799H65.9399C66.9199 29.8799 67.7899 29.6599 68.5299 29.2199C69.2899 28.7699 69.6902 28.3599 70.1202 27.5799C70.5502 26.7899 70.7702 26.0999 70.7702 25.0899C70.7702 24.0699 70.5502 23.1799 70.1202 22.3999C69.6902 21.6299 69.2899 21.0199 68.5299 20.5799C67.7799 20.1399 66.9199 19.9199 65.9399 19.9199H63.8797V29.8799ZM62.7699 31.8699C62.5099 31.8699 62.2024 31.6699 62.0224 31.4999C61.8424 31.3299 61.6602 31.0199 61.6602 30.7699V19.0399C61.6602 18.7699 61.9499 18.5599 62.1199 18.3999C62.2999 18.2299 62.5099 18.1399 62.7699 18.1399H65.9399C66.9399 18.1399 67.8599 18.3099 68.6699 18.6399C69.4999 18.9599 70.2199 19.4299 70.8299 20.0399C71.4399 20.6399 71.8999 21.3499 72.2299 22.1699C72.5599 22.9899 72.9088 23.9099 72.9088 24.8999C72.9088 25.8899 72.7394 26.7699 72.4094 27.5999C72.0794 28.4199 71.6212 29.1899 71.0112 29.7999C70.4012 30.3999 69.6439 30.9699 68.8139 31.2999C67.9939 31.6199 66.9399 31.8699 65.9399 31.8699H62.7699Z" fill="#0F0F10"/>
<path d="M52.5797 31.9C51.6097 31.9 50.6973 31.71 49.9373 31.3C49.1873 30.88 48.6197 30.31 48.1897 29.59C47.7697 28.86 47.4404 27.88 47.4404 26.94C47.4404 25.99 47.6397 25.09 48.0397 24.37C48.4497 23.64 49.0276 23.01 49.7376 22.6C50.4476 22.18 51.3997 22 52.3197 22C53.2297 22 54.1712 22.19 54.8312 22.6C55.4812 22.99 55.9893 23.79 56.3293 24.5C56.6793 25.19 56.8287 25.89 56.8287 26.8C56.8287 27.02 56.7789 27.25 56.6289 27.4C56.4789 27.54 56.1698 27.7 55.9298 27.7H48.8197V26.15H55.8297L55.1097 26.64C55.0997 26.06 54.8897 25.65 54.6697 25.2C54.4497 24.74 54.1426 24.36 53.7326 24.1C53.3226 23.83 52.8997 23.7 52.3197 23.7C51.6497 23.7 51.1164 23.81 50.6364 24.1C50.1664 24.39 49.8877 24.69 49.6377 25.2C49.3877 25.7 49.1597 26.3 49.1597 26.94C49.1597 27.58 49.3097 28.14 49.5997 28.64C49.8897 29.14 50.2997 29.53 50.8097 29.82C51.3197 30.11 51.9097 30.25 52.5797 30.25C52.9397 30.25 53.3097 30.19 53.6797 30.06C54.0697 29.92 54.3797 29.77 54.6097 29.59C54.7897 29.46 54.9697 29.4 55.1697 29.4C55.3797 29.39 55.5597 29.45 55.7097 29.57C55.9097 29.74 56.0097 29.93 56.0297 30.14C56.0397 30.35 56.0297 30.65 55.8297 30.8C55.4297 31.11 54.9318 31.41 54.3318 31.6C53.7518 31.8 53.1197 31.9 52.5797 31.9Z" fill="#0F0F10"/>
<path d="M36.3205 31.8899C36.0605 31.8899 35.8505 31.8099 35.6705 31.6499C35.5105 31.4799 35.2207 31.0599 35.2207 30.8099L35.2565 23.0799C35.2565 22.8099 35.3861 22.46 35.5561 22.3C35.7361 22.14 36.0951 22.1199 36.3551 22.1199C36.6251 22.1199 36.8842 22.14 37.0542 22.3C37.2142 22.46 37.2205 22.8199 37.2205 23.0799L37.4202 30.8099C37.4202 31.0599 37.1405 31.4799 36.9705 31.6499C36.8105 31.8099 36.5905 31.8899 36.3205 31.8899ZM43.5205 31.8899C43.2605 31.8899 43.0505 31.8099 42.8705 31.6499C42.7105 31.4799 42.4207 31.0599 42.4207 30.8099V26.5499C42.4207 25.8899 42.5005 25.3499 42.2505 24.9399C42.0005 24.5299 41.6705 24.2199 41.2505 24.0199C40.8405 23.8099 40.3907 23.8 39.8507 23.8C39.3607 23.8 38.8525 23.91 38.4525 24.1C38.0525 24.3 37.8935 24.56 37.6535 24.9C37.4235 25.22 37.2005 25.4999 37.2005 25.9299H36.1005C36.1005 25.1999 36.2805 24.5599 36.6305 23.9899C36.9905 23.4099 37.433 22.84 38.053 22.5C38.673 22.17 39.4702 22 40.2502 22C41.0602 22 41.9074 22.25 42.5474 22.6C43.1874 22.94 43.5756 23.44 43.9456 24.1C44.3156 24.76 44.6202 25.5999 44.6202 26.5599V30.8199C44.6202 31.0699 44.3305 31.4899 44.1605 31.6599C43.9905 31.8099 43.7805 31.8899 43.5205 31.8899Z" fill="#0F0F10"/>
<path fill-rule="evenodd" clip-rule="evenodd" d="M144.34 28.92C144.62 28.7 144.95 28.57 145.31 28.62C145.63 28.65 145.91 28.8 146.14 29.03C146.29 29.19 146.55 29.37 146.96 29.56C147.35 29.72 147.79 29.81 148.28 29.81C148.93 29.81 149.36 29.7 149.62 29.54C149.9 29.37 149.99 29.19 150 29C150.01 28.81 149.92 28.62 149.65 28.42C149.39 28.22 148.84 28.03 147.94 27.87C146.73 27.63 145.8 27.27 145.19 26.75C144.59 26.22 144.27 25.55 144.27 24.77C144.27 24.1 144.47 23.52 144.89 23.06C145.29 22.62 145.79 22.29 146.4 22.09C146.99 21.88 147.61 21.77 148.24 21.77C149.05 21.77 149.79 21.9 150.44 22.16C151.08 22.42 151.61 22.79 152.01 23.27C152.22 23.51 152.34 23.8 152.33 24.12C152.31 24.45 152.14 24.71 151.88 24.9H151.87H151.86C151.58 25.09 151.25 25.14 150.91 25.08C150.59 25.02 150.3 24.89 150.07 24.67C149.81 24.43 149.55 24.27 149.27 24.19C148.98 24.1 148.62 24.05 148.21 24.05C147.74 24.05 147.36 24.13 147.06 24.27C146.93 24.33 146.85 24.4 146.81 24.46C146.77 24.52 146.74 24.59 146.74 24.69C146.74 24.83 146.77 24.94 146.83 25.05C146.89 25.13 147.03 25.24 147.32 25.36C147.62 25.47 148.07 25.6 148.69 25.72C149.58 25.9 150.31 26.13 150.86 26.41C151.41 26.7 151.84 27.05 152.11 27.48C152.37 27.89 152.5 28.37 152.5 28.89C152.5 29.49 152.33 30.05 152 30.54C151.67 31.04 151.19 31.42 150.58 31.7C149.97 31.98 149.22 32.12 148.35 32.12C147.49 32.12 146.69 31.99 145.95 31.74C145.23 31.47 144.64 31.13 144.2 30.7C143.96 30.44 143.84 30.13 143.87 29.78V29.77V29.76C143.9 29.41 144.07 29.12 144.34 28.92ZM146.06 31.38C146.76 31.62 147.52 31.74 148.34 31.74C149.17 31.74 149.86 31.61 150.41 31.36C150.97 31.11 151.39 30.77 151.67 30.34C151.96 29.91 152.11 29.43 152.11 28.9C152.11 28.44 152 28.03 151.78 27.69C151.56 27.33 151.19 27.02 150.68 26.75C150.18 26.48 149.49 26.26 148.61 26.09C147.98 25.96 147.5 25.84 147.17 25.71C146.84 25.57 146.62 25.42 146.5 25.26C146.39 25.09 146.34 24.9 146.34 24.69C146.34 24.35 146.52 24.1 146.87 23.93C147.23 23.76 147.67 23.67 148.18 23.67C148.62 23.67 149.02 23.72 149.35 23.83C149.69 23.93 150 24.12 150.3 24.4C150.48 24.56 150.69 24.67 150.95 24.71C151.21 24.76 151.43 24.72 151.62 24.59C151.81 24.45 151.91 24.28 151.92 24.09C151.93 23.88 151.86 23.69 151.69 23.5C151.34 23.07 150.87 22.74 150.27 22.5C149.67 22.26 148.99 22.14 148.22 22.14C147.62 22.14 147.05 22.24 146.5 22.43C145.95 22.61 145.5 22.9 145.15 23.3C144.8 23.68 144.62 24.17 144.62 24.76C144.62 25.43 144.88 26 145.41 26.46C145.95 26.92 146.81 27.27 147.99 27.5C148.9 27.66 149.53 27.87 149.87 28.12C150.22 28.37 150.39 28.67 150.38 29.02C150.37 29.37 150.18 29.65 149.82 29.87C149.47 30.09 148.96 30.2 148.28 30.2C147.74 30.2 147.25 30.11 146.81 29.92C146.38 29.72 146.06 29.52 145.86 29.3C145.7 29.13 145.5 29.03 145.26 29.01C145.04 28.98 144.81 29.05 144.58 29.24C144.38 29.39 144.26 29.59 144.23 29.83C144.21 30.06 144.28 30.27 144.46 30.45C144.84 30.81 145.38 31.12 146.06 31.38Z" fill="#0F0F10"/>
<path fill-rule="evenodd" clip-rule="evenodd" d="M137.77 25.7499V30.8099C137.77 31.1499 137.68 31.4699 137.44 31.7099C137.2 31.9599 136.87 32.0499 136.52 32.0499C136.18 32.0499 135.86 31.9599 135.61 31.7399L135.6 31.7299L135.59 31.7199C135.34 31.4799 135.25 31.1499 135.25 30.7999V23.0499C135.25 22.6999 135.35 22.3799 135.59 22.1399C135.83 21.8999 136.16 21.7999 136.51 21.7999C136.86 21.7999 137.19 21.8899 137.43 22.1399C137.56 22.2599 137.65 22.41 137.7 22.5699C137.86 22.45 138.04 22.3399 138.22 22.2299C138.86 21.8699 139.57 21.7 140.33 21.7C141.06 21.7 141.67 21.82 142.1 22.11C142.31 22.24 142.49 22.41 142.59 22.62C142.7 22.84 142.72 23.0799 142.66 23.3099C142.61 23.5299 142.51 23.7299 142.33 23.8899C142.18 24.0199 142.01 24.0999 141.81 24.1299C141.62 24.1599 141.43 24.15 141.24 24.11C140.53 23.97 139.92 23.9599 139.39 24.08C138.85 24.1899 138.45 24.4 138.16 24.69C137.9 24.96 137.77 25.2999 137.77 25.7499ZM137.38 25.7499V30.8099C137.38 31.0899 137.3 31.2999 137.15 31.45C137.01 31.5999 136.79 31.6799 136.5 31.6799C136.22 31.6799 136 31.6099 135.85 31.4699C135.7 31.3199 135.62 31.0999 135.62 30.8099V23.0599C135.62 22.7799 135.7 22.57 135.85 22.42C136 22.27 136.22 22.19 136.5 22.19C136.79 22.19 137.01 22.26 137.15 22.42C137.26 22.52 137.33 22.67 137.36 22.86C137.37 22.92 137.37 22.9899 137.37 23.0699V23.3899C137.47 23.2799 137.58 23.1699 137.69 23.0699C137.71 23.0499 137.73 23.04 137.75 23.02C137.94 22.86 138.16 22.71 138.39 22.58C138.97 22.26 139.62 22.09 140.32 22.09C141.02 22.09 141.54 22.21 141.88 22.44C142.23 22.66 142.36 22.9299 142.28 23.2399C142.24 23.4 142.17 23.53 142.07 23.62C141.98 23.7 141.87 23.75 141.74 23.78C141.61 23.8 141.47 23.8 141.32 23.76C140.57 23.61 139.9 23.5999 139.3 23.7299C138.7 23.8599 138.23 24.09 137.88 24.44C137.83 24.49 137.79 24.5299 137.75 24.58C137.51 24.89 137.38 25.2899 137.38 25.7499Z" fill="#0F0F10"/>
<path fill-rule="evenodd" clip-rule="evenodd" d="M124.59 22.17C124.84 22.41 124.96 22.71 124.96 23.06V27.32C124.96 27.92 125.07 28.39 125.28 28.74C125.49 29.09 125.77 29.35 126.12 29.53C126.48 29.7 126.9 29.79 127.37 29.79C127.82 29.79 128.2 29.7 128.53 29.54C128.87 29.37 129.14 29.14 129.33 28.87C129.52 28.6 129.61 28.3 129.61 27.96V23.07C129.61 22.72 129.72 22.41 129.97 22.16C130.22 21.93 130.53 21.82 130.88 21.82C131.23 21.82 131.55 21.93 131.8 22.17C132.05 22.41 132.16 22.73 132.16 23.08V30.81C132.16 31.15 132.05 31.46 131.81 31.71C131.56 31.95 131.24 32.06 130.89 32.06C130.54 32.06 130.23 31.95 129.98 31.72L129.97 31.71L129.96 31.7C129.86 31.59 129.77 31.47 129.72 31.33C129.58 31.43 129.44 31.51 129.29 31.6C128.62 31.97 127.86 32.15 127.02 32.15C126.16 32.15 125.37 31.97 124.67 31.6C123.97 31.22 123.42 30.66 123.02 29.95C122.62 29.22 122.43 28.35 122.43 27.34V23.08C122.43 22.74 122.54 22.43 122.79 22.19C123.04 21.94 123.35 21.82 123.71 21.82C124.04 21.8 124.35 21.92 124.59 22.17ZM124.84 31.26C125.48 31.59 126.21 31.76 127.01 31.76C127.79 31.76 128.49 31.59 129.1 31.26C129.28 31.16 129.46 31.05 129.62 30.93C129.68 30.89 129.73 30.84 129.79 30.79C129.86 30.73 129.93 30.67 130 30.6V30.79C130 30.89 130.01 30.99 130.04 31.08C130.08 31.21 130.15 31.33 130.25 31.43C130.43 31.59 130.64 31.67 130.9 31.67C131.17 31.67 131.38 31.59 131.55 31.43C131.71 31.26 131.8 31.04 131.8 30.79V23.06C131.8 22.79 131.72 22.58 131.55 22.42C131.39 22.26 131.17 22.18 130.9 22.18C130.64 22.18 130.43 22.26 130.25 22.42C130.09 22.58 130 22.8 130 23.06V27.95C130 28.37 129.88 28.74 129.65 29.08C129.64 29.09 129.63 29.11 129.62 29.12C129.39 29.43 129.08 29.69 128.7 29.87C128.31 30.07 127.87 30.16 127.37 30.16C126.84 30.16 126.37 30.06 125.95 29.87C125.53 29.66 125.2 29.35 124.95 28.93C124.7 28.5 124.58 27.97 124.58 27.32V23.06C124.58 22.81 124.49 22.6 124.32 22.44C124.16 22.27 123.95 22.18 123.69 22.18C123.43 22.18 123.22 22.27 123.04 22.44C122.88 22.6 122.79 22.81 122.79 23.06V27.32C122.79 28.28 122.97 29.09 123.33 29.75C123.71 30.41 124.21 30.91 124.84 31.26Z" fill="#0F0F10"/>
<path fill-rule="evenodd" clip-rule="evenodd" d="M117.17 28.44C117.41 28.01 117.53 27.52 117.53 26.94C117.53 26.36 117.41 25.86 117.17 25.44C116.94 25 116.63 24.67 116.23 24.43C115.83 24.19 115.36 24.07 114.81 24.07C114.26 24.07 113.8 24.19 113.39 24.43C112.98 24.67 112.66 25.01 112.43 25.45C112.2 25.87 112.07 26.37 112.07 26.95C112.07 27.53 112.19 28.03 112.43 28.45C112.67 28.88 112.99 29.21 113.4 29.45C113.8 29.69 114.27 29.81 114.82 29.81C115.37 29.81 115.83 29.69 116.24 29.45C116.63 29.2 116.94 28.87 117.17 28.44ZM116.42 29.77C115.95 30.05 115.42 30.19 114.81 30.19C114.2 30.19 113.67 30.05 113.2 29.77C112.73 29.49 112.36 29.11 112.1 28.63C111.83 28.14 111.7 27.58 111.7 26.95C111.7 26.31 111.83 25.75 112.1 25.27C112.37 24.77 112.74 24.39 113.2 24.11C113.67 23.83 114.2 23.69 114.81 23.69C115.42 23.69 115.95 23.83 116.42 24.11C116.89 24.39 117.25 24.77 117.51 25.27C117.78 25.76 117.91 26.32 117.91 26.95C117.91 27.59 117.78 28.15 117.51 28.63C117.25 29.11 116.89 29.49 116.42 29.77ZM112.11 22.42C112.9 21.97 113.8 21.75 114.81 21.75C115.8 21.75 116.7 21.97 117.49 22.42C118.27 22.86 118.89 23.47 119.33 24.26C119.79 25.04 120.01 25.94 120.01 26.94C120.01 27.93 119.79 28.83 119.35 29.62C118.91 30.4 118.29 31.01 117.51 31.46C116.72 31.9 115.82 32.12 114.82 32.12C113.82 32.12 112.92 31.91 112.13 31.46C111.35 31.01 110.73 30.4 110.27 29.63C109.83 28.84 109.61 27.94 109.61 26.95C109.61 25.95 109.83 25.05 110.27 24.27C110.71 23.47 111.33 22.86 112.11 22.42ZM112.3 31.14C113.02 31.54 113.86 31.75 114.81 31.75C115.76 31.75 116.59 31.55 117.32 31.14C118.04 30.72 118.61 30.16 119.02 29.44C119.43 28.71 119.63 27.88 119.63 26.94C119.63 25.99 119.42 25.16 119 24.44C118.59 23.71 118.02 23.15 117.3 22.74C116.58 22.32 115.75 22.12 114.81 22.12C113.86 22.12 113.03 22.33 112.3 22.74C111.58 23.14 111 23.71 110.58 24.44C110.17 25.16 109.97 25.99 109.97 26.94C109.97 27.88 110.17 28.71 110.58 29.44C111 30.15 111.58 30.72 112.3 31.14Z" fill="#0F0F10"/>
<path fill-rule="evenodd" clip-rule="evenodd" d="M99.5001 18.9652C99.5001 18.9668 99.5001 18.9684 99.5001 18.97C99.5001 18.9745 99.5001 18.9789 99.5002 18.9834C99.5002 18.9773 99.5001 18.9713 99.5001 18.9652ZM110.57 18.9528C110.569 18.7064 110.488 18.5186 110.32 18.37C110.17 18.21 109.97 18.13 109.72 18.13H100.34V18.1301C100.34 18.1301 100.34 18.1301 100.34 18.1301H106.067H109.72C109.97 18.1301 110.16 18.2101 110.32 18.3701C110.478 18.5186 110.568 18.7161 110.57 18.9528ZM99.4601 18.11C99.7001 17.88 100 17.76 100.34 17.76H109.71C110.05 17.76 110.35 17.87 110.58 18.11C110.83 18.34 110.94 18.64 110.94 18.97C110.94 19.3 110.82 19.6 110.58 19.84C110.34 20.08 110.04 20.18 109.71 20.18H106.32V30.77C106.32 31.12 106.2 31.43 105.95 31.68C105.7 31.93 105.38 32.05 105.03 32.05C104.67 32.05 104.36 31.93 104.11 31.68C103.86 31.43 103.74 31.12 103.74 30.77V20.18H100.34C100.01 20.18 99.7101 20.07 99.4701 19.85L99.4601 19.84L99.4501 19.83C99.2301 19.59 99.1201 19.3 99.1201 18.97C99.1201 18.64 99.2301 18.34 99.4601 18.11Z" fill="#0F0F10"/>
<path fill-rule="evenodd" clip-rule="evenodd" d="M89.9299 35.73C90.0899 35.8 90.2299 35.83 90.3499 35.83C90.6699 35.83 90.8899 35.65 91.0299 35.29L96.3899 23.37C96.6199 22.86 96.4799 22.5 95.9499 22.28C95.4499 22.07 95.0799 22.21 94.8499 22.7L92.0299 28.99L88.8199 22.68C88.7099 22.46 88.5599 22.32 88.3599 22.25C88.1599 22.17 87.9499 22.18 87.7299 22.27C87.5099 22.36 87.3808 22.59 87.2908 22.8C87.2108 23 87.1999 23.12 87.3099 23.34L86.9699 23.52C86.8099 23.22 86.7699 22.89 86.8999 22.58C87.0299 22.28 87.2699 22.06 87.5699 21.94C87.8699 21.82 88.1799 21.8 88.4799 21.92C88.7799 22.03 88.9999 22.25 89.1399 22.54L91.9899 28.13L94.4799 22.56C94.6199 22.26 94.8299 22.02 95.1399 21.9C95.4499 21.79 95.7699 21.83 96.0799 21.96C96.3999 22.09 96.6699 22.3 96.7899 22.61C96.9099 22.92 96.8599 23.25 96.7199 23.56L91.3599 35.47C91.2699 35.69 91.1499 35.88 90.9699 36.02C90.7799 36.17 90.5599 36.24 90.3299 36.24C90.1399 36.24 89.9499 36.19 89.7599 36.11C89.4499 35.97 89.1899 35.76 89.0699 35.45C88.9499 35.14 89.0099 34.82 89.1499 34.52L90.8199 30.79L86.9699 23.52L87.3099 23.34L91.2499 30.78L89.4999 34.68C89.2799 35.13 89.4199 35.49 89.9299 35.73Z" fill="#0F0F10"/>
<path fill-rule="evenodd" clip-rule="evenodd" d="M77.79 22.44C78.59 21.98 79.48 21.75 80.45 21.75C81.42 21.75 82.31 21.98 83.1 22.44C83.88 22.89 84.5 23.51 84.95 24.29C85.38 25.01 85.61 25.81 85.64 26.69L85.65 30.8C85.65 31.15 85.53 31.46 85.28 31.71C85.04 31.95 84.73 32.06 84.38 32.06C84.03 32.06 83.72 31.95 83.47 31.72L83.46 31.71L83.45 31.7C83.27 31.51 83.17 31.3 83.12 31.05C82.96 31.19 82.78 31.31 82.6 31.43C81.86 31.89 81.02 32.11 80.1 32.11C79.18 32.11 78.35 31.89 77.6 31.43C76.87 30.97 76.29 30.35 75.86 29.58C75.44 28.79 75.24 27.91 75.24 26.94C75.24 25.97 75.46 25.08 75.92 24.29C76.39 23.51 77.01 22.89 77.79 22.44ZM81.85 29.44C82.26 29.19 82.58 28.85 82.82 28.42C83.06 27.98 83.18 27.49 83.18 26.94C83.18 26.37 83.06 25.88 82.82 25.46C82.58 25.02 82.26 24.68 81.86 24.44C81.46 24.19 81 24.06 80.47 24.06C79.95 24.06 79.49 24.19 79.07 24.44C78.66 24.68 78.34 25.02 78.09 25.46C77.86 25.88 77.73 26.37 77.73 26.94C77.73 27.49 77.85 27.98 78.09 28.42C78.34 28.85 78.67 29.19 79.08 29.44C79.5 29.68 79.96 29.8 80.48 29.8C80.99 29.81 81.45 29.68 81.85 29.44ZM83.11 28.69C83.13 28.66 83.14 28.63 83.16 28.61C83.24 28.46 83.31 28.31 83.36 28.16C83.36 28.15 83.37 28.15 83.37 28.14C83.5 27.77 83.56 27.37 83.56 26.95C83.56 26.71 83.54 26.49 83.5 26.27C83.49 26.22 83.48 26.17 83.47 26.12C83.4 25.82 83.3 25.54 83.15 25.28C82.88 24.78 82.51 24.4 82.05 24.12C81.58 23.83 81.05 23.69 80.46 23.69C79.88 23.69 79.34 23.83 78.87 24.12C78.4 24.4 78.03 24.78 77.75 25.28C77.48 25.77 77.35 26.32 77.35 26.94C77.35 27.55 77.48 28.11 77.75 28.6C78.03 29.09 78.4 29.47 78.87 29.76C79.35 30.04 79.88 30.18 80.46 30.18C81.06 30.18 81.59 30.04 82.05 29.76C82.49 29.49 82.84 29.14 83.11 28.69ZM77.81 31.12C78.49 31.54 79.25 31.74 80.11 31.74C80.96 31.74 81.73 31.53 82.41 31.12C82.67 30.96 82.9 30.78 83.12 30.57C83.26 30.44 83.38 30.31 83.5 30.16V30.8C83.5 31.05 83.58 31.27 83.75 31.44C83.93 31.6 84.14 31.68 84.4 31.68C84.66 31.68 84.87 31.6 85.03 31.44C85.21 31.27 85.29 31.05 85.29 30.8V26.94C85.29 26.81 85.29 26.69 85.28 26.56C85.28 26.55 85.28 26.53 85.28 26.52C85.22 25.77 85.01 25.09 84.65 24.48C84.23 23.75 83.66 23.18 82.93 22.76C82.21 22.33 81.39 22.12 80.48 22.12C79.57 22.12 78.75 22.33 78.01 22.76C77.29 23.18 76.71 23.75 76.28 24.48C75.86 25.21 75.65 26.03 75.65 26.94C75.65 27.85 75.84 28.67 76.23 29.4C76.59 30.12 77.13 30.69 77.81 31.12Z" fill="#0F0F10"/>
<path fill-rule="evenodd" clip-rule="evenodd" d="M70.3205 27.58C69.8905 28.35 69.2905 28.97 68.5305 29.42C67.7805 29.86 66.9205 30.08 65.9405 30.08H63.6805V19.73H65.9405C66.9205 19.73 67.7905 19.95 68.5305 20.39C69.2905 20.83 69.8905 21.44 70.3205 22.21C70.7505 22.98 70.9705 23.88 70.9705 24.9C70.9705 25.9 70.7605 26.8 70.3205 27.58ZM68.3405 20.72C67.6605 20.32 66.8605 20.11 65.9405 20.11H64.0605V29.7H65.9405C66.8605 29.7 67.6605 29.49 68.3405 29.09C69.0405 28.67 69.5905 28.11 69.9905 27.4C70.3905 26.68 70.5905 25.84 70.5905 24.9C70.5905 23.94 70.3905 23.11 69.9905 22.4C69.5905 21.68 69.0405 21.12 68.3405 20.72ZM70.8305 20.05C70.2205 19.44 69.5005 18.97 68.6705 18.65C67.8505 18.31 66.9405 18.15 65.9405 18.15H62.7705C62.5105 18.15 62.3005 18.24 62.1205 18.41C61.9405 18.57 61.8605 18.79 61.8605 19.05V30.78C61.8605 31.03 61.9505 31.25 62.1205 31.42C62.3005 31.59 62.5105 31.68 62.7705 31.68H65.9405C66.9405 31.68 67.8605 31.52 68.6705 31.19C69.5005 30.85 70.2205 30.39 70.8305 29.79C71.4405 29.18 71.9005 28.46 72.2305 27.64C72.5605 26.81 72.7205 25.9 72.7205 24.9C72.7205 23.9 72.5605 23 72.2305 22.18C71.9105 21.36 71.4405 20.65 70.8305 20.05ZM72.5905 27.77C72.2405 28.64 71.7505 29.4 71.1005 30.05C70.4605 30.69 69.6905 31.18 68.8205 31.54C67.9505 31.88 66.9905 32.05 65.9405 32.05H62.7705C62.4205 32.05 62.1005 31.93 61.8505 31.68C61.6005 31.43 61.4805 31.12 61.4805 30.77V19.04C61.4805 18.69 61.6005 18.37 61.8605 18.13C62.1105 17.89 62.4205 17.76 62.7705 17.76H65.9405C66.9905 17.76 67.9505 17.93 68.8205 18.29C69.7005 18.63 70.4605 19.13 71.1005 19.78C71.7505 20.42 72.2405 21.17 72.5905 22.04C72.9405 22.91 73.1105 23.86 73.1105 24.9C73.1105 25.93 72.9305 26.89 72.5905 27.77Z" fill="#0F0F10"/>
<path fill-rule="evenodd" clip-rule="evenodd" d="M49.67 22.42C50.45 21.97 51.33 21.74 52.31 21.74C53.28 21.74 54.13 21.96 54.86 22.4C55.58 22.83 56.12 23.44 56.49 24.2C56.73 24.68 56.9 25.21 56.98 25.77L56.99 25.81C57.03 26.12 57.06 26.44 57.06 26.77C57.06 27.09 56.95 27.37 56.72 27.59L56.71 27.6L56.7 27.61C56.47 27.82 56.18 27.92 55.86 27.92H49.68C49.74 28.11 49.82 28.28 49.92 28.45C50.18 28.89 50.53 29.23 50.99 29.49C51.44 29.74 51.96 29.87 52.57 29.87C52.89 29.87 53.21 29.82 53.55 29.7C53.91 29.57 54.18 29.43 54.38 29.29C54.61 29.12 54.87 29.03 55.16 29.03C55.46 29.02 55.73 29.1 55.96 29.29C56.21 29.51 56.39 29.79 56.4 30.12C56.42 30.48 56.25 30.77 55.97 30.98C55.53 31.32 54.99 31.6 54.37 31.8C53.75 32.01 53.15 32.11 52.57 32.11C51.55 32.11 50.62 31.9 49.8 31.46C49 31.01 48.36 30.4 47.89 29.63C47.43 28.84 47.21 27.94 47.21 26.95C47.21 25.95 47.42 25.05 47.85 24.27C48.29 23.48 48.9 22.86 49.67 22.42ZM54.6 25.79C54.55 25.61 54.49 25.44 54.41 25.27C54.22 24.87 53.95 24.56 53.6 24.33C53.26 24.11 52.84 23.99 52.32 23.99C51.71 23.99 51.21 24.12 50.8 24.37C50.4 24.62 50.09 24.96 49.87 25.41C49.81 25.53 49.76 25.66 49.72 25.79H54.6ZM49.32 25.79C49.28 25.91 49.25 26.04 49.23 26.17H55.07C55.05 26.04 55.03 25.92 55 25.79C54.94 25.55 54.86 25.32 54.76 25.11C54.54 24.65 54.22 24.28 53.81 24.02C53.4 23.76 52.9 23.62 52.32 23.62C51.65 23.62 51.08 23.76 50.6 24.05C50.13 24.34 49.78 24.74 49.53 25.25C49.44 25.42 49.37 25.6 49.32 25.79ZM49.98 31.14C50.74 31.54 51.6 31.75 52.57 31.75C53.11 31.75 53.67 31.65 54.25 31.46C54.85 31.26 55.34 31.01 55.74 30.7C55.94 30.55 56.03 30.37 56.02 30.16C56.01 29.95 55.9 29.76 55.7 29.59C55.55 29.46 55.37 29.41 55.16 29.42C54.96 29.42 54.77 29.48 54.6 29.61C54.37 29.78 54.06 29.94 53.67 30.08C53.3 30.21 52.93 30.27 52.57 30.27C51.9 30.27 51.31 30.13 50.8 29.84C50.29 29.55 49.88 29.16 49.59 28.66C49.46 28.44 49.36 28.2 49.28 27.95C49.24 27.83 49.22 27.7 49.2 27.57H55.86C56.09 27.57 56.29 27.5 56.44 27.36C56.59 27.21 56.67 27.02 56.67 26.81C56.67 26.56 56.66 26.32 56.63 26.09C56.62 26 56.61 25.9 56.59 25.81C56.51 25.3 56.36 24.83 56.14 24.4C55.8 23.7 55.3 23.15 54.65 22.75C54 22.35 53.21 22.14 52.3 22.14C51.38 22.14 50.56 22.35 49.85 22.76C49.14 23.16 48.58 23.73 48.17 24.46C47.77 25.18 47.57 26.01 47.57 26.96C47.57 27.9 47.78 28.73 48.2 29.46C48.65 30.15 49.24 30.72 49.98 31.14Z" fill="#0F0F10"/>
<path fill-rule="evenodd" clip-rule="evenodd" d="M37.6 25.92V30.81C37.6 31.15 37.49 31.46 37.25 31.71C37 31.95 36.6801 32.06 36.3301 32.06C35.9801 32.06 35.67 31.95 35.42 31.72L35.41 31.71L35.4001 31.7C35.1701 31.45 35.05 31.14 35.05 30.8V23.07C35.05 22.72 35.16 22.41 35.41 22.16C35.66 21.93 35.97 21.82 36.32 21.82C36.67 21.82 36.9901 21.93 37.2401 22.17C37.3501 22.28 37.4401 22.41 37.4901 22.54C37.6301 22.44 37.77 22.36 37.92 22.28C38.6 21.91 39.36 21.73 40.19 21.73C41.05 21.73 41.83 21.92 42.53 22.3C43.24 22.67 43.79 23.22 44.19 23.94C44.6 24.67 44.8 25.54 44.8 26.55V30.81C44.8 31.16 44.68 31.47 44.43 31.72C44.1901 31.96 43.88 32.07 43.53 32.07C43.18 32.07 42.87 31.96 42.62 31.73L42.6101 31.72L42.6 31.7C42.37 31.45 42.25 31.14 42.25 30.8V26.54C42.25 25.92 42.13 25.46 41.93 25.12C41.72 24.77 41.45 24.51 41.1 24.35H41.09H41.0801C40.7301 24.17 40.3201 24.08 39.8301 24.08C39.3901 24.08 39.01 24.17 38.67 24.33C38.33 24.5 38.06 24.73 37.87 25C37.69 25.27 37.6 25.56 37.6 25.92ZM42.8801 31.45C43.0601 31.61 43.27 31.69 43.53 31.69C43.79 31.69 44 31.61 44.16 31.45C44.34 31.28 44.42 31.06 44.42 30.81V26.55C44.42 25.59 44.2301 24.78 43.8601 24.12C43.5001 23.46 43 22.96 42.35 22.63C41.72 22.28 41 22.11 40.19 22.11C39.42 22.11 38.72 22.28 38.1 22.61C37.92 22.71 37.7401 22.82 37.5801 22.94C37.5201 22.98 37.46 23.03 37.41 23.08C37.34 23.14 37.27 23.2 37.21 23.26V23.08C37.21 22.97 37.2 22.88 37.17 22.79C37.13 22.65 37.06 22.54 36.96 22.44C36.8 22.28 36.5801 22.2 36.3101 22.2C36.0501 22.2 35.84 22.28 35.66 22.44C35.5 22.6 35.41 22.82 35.41 23.08V30.81C35.41 31.06 35.49 31.28 35.66 31.45C35.84 31.61 36.0501 31.69 36.3101 31.69C36.5801 31.69 36.79 31.61 36.96 31.45C37.12 31.28 37.21 31.06 37.21 30.81V25.92C37.21 25.49 37.3301 25.12 37.5601 24.79C37.5701 24.78 37.58 24.76 37.59 24.75C37.82 24.44 38.13 24.18 38.51 24C38.91 23.8 39.35 23.71 39.84 23.71C40.38 23.71 40.85 23.81 41.26 24.02C41.68 24.22 42.01 24.52 42.26 24.94C42.51 25.36 42.6301 25.89 42.6301 26.55V30.81C42.6301 31.06 42.7101 31.27 42.8801 31.45Z" fill="#0F0F10"/>
<path fill-rule="evenodd" clip-rule="evenodd" d="M21 32C27.08 32 32 27.08 32 21C32 14.92 27.08 10 21 10C14.92 10 10 14.92 10 21C10 27.08 14.92 32 21 32ZM21 28.92C25.37 28.92 28.92 25.37 28.92 21C28.92 16.63 25.37 13.08 21 13.08C16.63 13.08 13.08 16.63 13.08 21C13.08 25.37 16.63 28.92 21 28.92Z" fill="#0F0F10"/>
<path d="M151.62 10.5499H149.14V10.9499H151.62V10.5499ZM151.7 10.5099C151.68 10.5299 151.66 10.5499 151.62 10.5499V10.9499C151.76 10.9499 151.88 10.8899 151.98 10.7899L151.7 10.5099ZM151.73 10.4299C151.73 10.4699 151.72 10.4899 151.7 10.5099L151.98 10.7899C152.08 10.6899 152.13 10.5699 152.13 10.4299H151.73ZM151.7 10.3499C151.72 10.3699 151.73 10.3899 151.73 10.4299H152.13C152.13 10.2899 152.08 10.1699 151.98 10.0699L151.7 10.3499ZM151.62 10.3199C151.66 10.3199 151.68 10.3299 151.7 10.3499L151.98 10.0699C151.88 9.9699 151.76 9.9199 151.62 9.9199V10.3199ZM149.45 10.3199H151.62V9.9199H149.45V10.3199ZM149.25 6.3699V10.1199H149.65V6.3699H149.25ZM149.22 6.2899C149.24 6.3099 149.25 6.3299 149.25 6.3699H149.65C149.65 6.2299 149.6 6.1099 149.5 6.0099L149.22 6.2899ZM149.14 6.2599C149.18 6.2599 149.2 6.2699 149.22 6.2899L149.5 6.0099C149.4 5.9099 149.28 5.8599 149.14 5.8599V6.2599ZM149.06 6.2899C149.08 6.2699 149.11 6.2599 149.14 6.2599V5.8599C149 5.8599 148.88 5.9099 148.78 6.0099L149.06 6.2899ZM149.03 6.3699C149.03 6.3299 149.04 6.3099 149.06 6.2899L148.78 6.0099C148.68 6.1099 148.63 6.2299 148.63 6.3699H149.03ZM149.03 10.4299V6.3699H148.63V10.4299H149.03ZM149.06 10.5199C149.04 10.4999 149.03 10.4799 149.03 10.4299H148.63C148.63 10.5599 148.68 10.6999 148.78 10.7999L149.06 10.5199ZM149.14 10.5499C149.1 10.5499 149.08 10.5399 149.06 10.5199L148.78 10.7999C148.88 10.8999 149 10.9499 149.14 10.9499V10.5499ZM149.45 10.1199H149.25V10.3199H149.45V10.1199Z" fill="#F0500B"/>
<path d="M149.14 10.7501C149.05 10.7501 148.98 10.7201 148.92 10.6601C148.86 10.6001 148.84 10.5301 148.84 10.4401V6.37006C148.84 6.28006 148.87 6.21006 148.93 6.15006C148.99 6.09006 149.06 6.06006 149.15 6.06006C149.24 6.06006 149.31 6.09006 149.37 6.15006C149.43 6.21006 149.46 6.28006 149.46 6.37006V10.1201H151.63C151.72 10.1201 151.79 10.1501 151.85 10.2101C151.91 10.2701 151.94 10.3401 151.94 10.4301C151.94 10.5201 151.91 10.5901 151.85 10.6501C151.79 10.7101 151.72 10.7401 151.63 10.7401H149.14V10.7501Z" fill="#F0500B"/>
<path d="M147.1 9.51011H144.27V9.91011H147.1V9.51011ZM146.68 9.28011L146.92 9.80011L147.28 9.63011L147.04 9.11011L146.68 9.28011ZM144.51 9.40011H146.86V9.00011H144.51V9.40011ZM144.45 9.80011L144.69 9.28011L144.33 9.11011L144.09 9.63011L144.45 9.80011ZM144 10.5301C143.98 10.5401 143.96 10.5501 143.94 10.5501V10.9501C144.04 10.9501 144.13 10.9201 144.21 10.8701L144 10.5301ZM144.05 10.4801C144.04 10.5101 144.01 10.5201 144 10.5301L144.21 10.8701C144.31 10.8101 144.38 10.7301 144.42 10.6301L144.05 10.4801ZM145.56 6.78011L144.05 10.4801L144.42 10.6301L145.93 6.93011L145.56 6.78011ZM145.58 7.06011H145.75V6.66011H145.58V7.06011ZM147.25 10.4801L145.76 6.78011L145.39 6.93011L146.88 10.6301L147.25 10.4801ZM147.288 10.5327C147.268 10.5227 147.26 10.5001 147.25 10.4801L146.88 10.6301C146.92 10.7301 147 10.8301 147.09 10.8801L147.288 10.5327ZM147.36 10.5501C147.34 10.5501 147.31 10.5401 147.29 10.5301L147.09 10.8801C147.17 10.9301 147.27 10.9501 147.36 10.9501V10.5501ZM147.415 10.5001C147.405 10.5201 147.42 10.5501 147.36 10.5501V10.9501C147.54 10.9501 147.68 10.8701 147.78 10.7201L147.415 10.5001ZM147.45 10.3801C147.47 10.4401 147.445 10.4701 147.415 10.5001L147.78 10.7201C147.88 10.5701 147.89 10.4101 147.82 10.2401L147.45 10.3801ZM145.76 6.35011L147.45 10.3901L147.82 10.2401L146.13 6.20011L145.76 6.35011ZM145.65 6.26011C145.69 6.26011 145.71 6.27011 145.72 6.28011C145.73 6.29011 145.75 6.31011 145.76 6.35011L146.13 6.20011C146.09 6.10011 146.03 6.01011 145.95 5.95011C145.86 5.89011 145.76 5.86011 145.65 5.86011V6.26011ZM145.54 6.35011C145.56 6.30011 145.58 6.29011 145.59 6.28011C145.6 6.27011 145.62 6.26011 145.65 6.26011V5.86011C145.55 5.86011 145.45 5.89011 145.36 5.95011C145.27 6.01011 145.22 6.10011 145.18 6.19011L145.54 6.35011ZM143.86 10.3701L145.55 6.34011L145.18 6.19011L143.49 10.2201L143.86 10.3701ZM143.86 10.5001C143.84 10.4601 143.83 10.4201 143.86 10.3701L143.49 10.2201C143.42 10.3901 143.42 10.5601 143.52 10.7101L143.86 10.5001ZM143.95 10.5501C143.91 10.5501 143.89 10.5401 143.86 10.5001L143.52 10.7101C143.62 10.8601 143.77 10.9501 143.95 10.9501V10.5501ZM147.1 9.71011V9.91011H147.41L147.28 9.63011L147.1 9.71011ZM146.86 9.20011L147.04 9.12011L146.99 9.00011H146.86V9.20011ZM144.51 9.20011V9.00011H144.38L144.33 9.12011L144.51 9.20011ZM144.27 9.71011L144.09 9.63011L143.96 9.91011H144.27V9.71011ZM144.11 10.7001L144.01 10.5301H144L144.11 10.7001ZM145.75 6.86011L145.94 6.94011L146.05 6.66011H145.75V6.86011ZM145.58 6.86011V6.66011H145.28L145.39 6.93011L145.58 6.86011ZM147.18 10.7001L147.07 10.8601L147.09 10.8801L147.18 10.7001Z" fill="#F0500B"/>
<path d="M144.27 9.71006L144.51 9.19006H146.86L147.1 9.71006H144.27ZM143.95 10.7501C143.84 10.7501 143.75 10.7001 143.69 10.6101C143.63 10.5201 143.62 10.4101 143.67 10.3001L145.36 6.27006C145.42 6.13006 145.52 6.06006 145.65 6.06006C145.79 6.06006 145.89 6.13006 145.94 6.27006L147.63 10.3101C147.67 10.4201 147.67 10.5201 147.61 10.6201C147.55 10.7101 147.47 10.7501 147.35 10.7501C147.29 10.7501 147.23 10.7301 147.18 10.7001C147.13 10.6601 147.09 10.6201 147.07 10.5601L145.58 6.86006H145.75L144.24 10.5601C144.21 10.6201 144.17 10.6701 144.11 10.7001C144.06 10.7301 144 10.7501 143.95 10.7501Z" fill="#F0500B"/>
<path d="M142.46 8.63005V9.06005H142.86V8.63005H142.46ZM142.43 8.55005C142.44 8.56005 142.46 8.58005 142.46 8.63005H142.86C142.86 8.49005 142.82 8.38005 142.72 8.28005L142.43 8.55005ZM142.35 8.52005C142.39 8.52005 142.41 8.53005 142.43 8.55005L142.72 8.28005C142.62 8.17005 142.49 8.13005 142.35 8.13005V8.52005ZM141.23 8.52005H142.35V8.13005L141.23 8.12005V8.52005ZM141.14 8.55005C141.16 8.53005 141.19 8.52005 141.23 8.52005V8.12005C141.1 8.12005 140.98 8.16005 140.88 8.25005L141.14 8.55005ZM141.12 8.59005C141.12 8.57005 141.13 8.56005 141.14 8.54005L140.88 8.25005C140.78 8.34005 140.72 8.45005 140.72 8.59005H141.12ZM141.14 8.64005C141.12 8.63005 141.12 8.62005 141.12 8.59005H140.72C140.72 8.73005 140.77 8.85005 140.88 8.94005L141.14 8.64005ZM141.23 8.67005C141.18 8.67005 141.16 8.66005 141.14 8.64005L140.88 8.94005C140.98 9.03005 141.1 9.07005 141.23 9.07005V8.67005ZM142.06 8.67005H141.23V9.07005H142.06V8.67005ZM142.26 9.94005V8.87005H141.86V9.94005H142.26ZM142.49 8.95005L141.89 9.83005L142.22 10.06L142.82 9.18005L142.49 8.95005ZM141.81 10.49C141.58 10.57 141.35 10.61 141.09 10.61V11.01C141.38 11.01 141.66 10.96 141.93 10.87L141.81 10.49ZM142.43 10.13C142.24 10.29 142.04 10.41 141.81 10.49L141.93 10.87C142.2 10.77 142.45 10.63 142.68 10.44L142.43 10.13ZM142.44 10.12C142.44 10.11 142.442 10.18 142.422 10.2L142.68 10.44C142.74 10.39 142.79 10.33 142.82 10.25L142.44 10.12ZM142.46 9.06005C142.46 9.08005 142.46 9.35005 142.45 9.62005C142.45 9.75005 142.45 9.89005 142.44 9.99005C142.44 10.04 142.44 10.08 142.44 10.11C142.44 10.13 142.44 10.14 142.44 10.14C142.44 10.14 142.44 10.14 142.44 10.13C142.44 10.13 142.43 10.13 142.44 10.11L142.622 10.2L142.82 10.25C142.83 10.23 142.84 10.18 142.84 10.18C142.84 10.1441 142.84 10.2 142.84 10.18C142.84 10.15 142.84 10.0703 142.84 10C142.84 9.89005 142.85 9.76005 142.85 9.62005C142.85 9.35005 142.86 9.08005 142.86 9.06005H142.46ZM142.44 10C142.47 10.03 142.54 10.08 142.63 10.05C142.7 10.03 142.74 9.98005 142.75 9.96005C142.77 9.92005 142.78 9.89005 142.79 9.88005C142.8 9.85005 142.8 9.80005 142.81 9.76005C142.82 9.67005 142.83 9.56005 142.83 9.45005C142.84 9.34005 142.84 9.23005 142.84 9.16005C142.84 9.12005 142.84 9.09005 142.84 9.08005C142.84 9.08005 142.84 9.09005 142.84 9.10005C142.84 9.10005 142.84 9.11005 142.83 9.12005C142.83 9.13005 142.81 9.15005 142.8 9.17005C142.77 9.20005 142.67 9.25005 142.6 9.25005C142.54 9.23005 142.47 9.17005 142.46 9.14005C142.45 9.13005 142.45 9.11005 142.44 9.10005C142.44 9.10005 142.44 9.09005 142.44 9.08005C142.44 9.07005 142.44 9.06005 142.44 9.06005C142.44 9.05005 142.44 9.05005 142.44 9.05005H142.84C142.84 9.05005 142.84 9.04005 142.84 9.03005C142.84 9.03005 142.84 9.02005 142.84 9.01005C142.84 9.01005 142.84 9.00005 142.84 8.99005C142.84 8.98005 142.83 8.96005 142.82 8.95005C142.81 8.93005 142.74 8.87005 142.68 8.84005C142.61 8.84005 142.51 8.89005 142.48 8.92005C142.47 8.94005 142.46 8.96005 142.45 8.97005C142.45 8.98005 142.45 8.99005 142.44 8.99005C142.44 9.00005 142.44 9.00005 142.44 9.01005C142.44 9.02005 142.44 9.02005 142.44 9.02005C142.44 9.03005 142.44 9.04005 142.44 9.05005C142.44 9.07005 142.44 9.10005 142.44 9.13005C142.44 9.20005 142.43 9.31005 142.43 9.42005C142.42 9.53005 142.42 9.63005 142.41 9.71005C142.41 9.75005 142.4 9.77005 142.4 9.78005C142.4 9.79005 142.4 9.77005 142.42 9.74005C142.43 9.73005 142.46 9.68005 142.53 9.66005C142.62 9.64005 142.69 9.68005 142.71 9.71005L142.44 10ZM142.39 9.97005C142.41 9.97005 142.42 9.98005 142.43 9.99005L142.72 9.72005C142.64 9.63005 142.53 9.58005 142.4 9.57005L142.39 9.97005ZM142.31 10C142.35 9.97005 142.37 9.97005 142.38 9.97005L142.43 9.57005C142.3 9.55005 142.18 9.60005 142.08 9.67005L142.31 10ZM141.74 10.32C141.94 10.24 142.13 10.13 142.31 10L142.07 9.68005C141.92 9.79005 141.76 9.89005 141.6 9.96005L141.74 10.32ZM141.09 10.44C141.32 10.44 141.53 10.39 141.74 10.32L141.6 9.96005C141.44 10.02 141.28 10.05 141.09 10.05V10.44ZM140.34 10.28C140.57 10.38 140.82 10.44 141.09 10.44V10.05C140.88 10.05 140.69 10 140.5 9.92005L140.34 10.28ZM139.73 9.84005C139.91 10.03 140.11 10.17 140.34 10.28L140.5 9.92005C140.32 9.83005 140.16 9.72005 140.02 9.57005L139.73 9.84005ZM139.32 9.19005C139.42 9.43005 139.55 9.66005 139.73 9.84005L140.02 9.57005C139.88 9.42005 139.77 9.24005 139.69 9.04005L139.32 9.19005ZM139.17 8.40005C139.17 8.68005 139.22 8.94005 139.32 9.19005L139.69 9.04005C139.61 8.84005 139.57 8.63005 139.57 8.39005H139.17V8.40005ZM139.32 7.62005C139.22 7.87005 139.17 8.13005 139.17 8.40005H139.57C139.57 8.17005 139.6 7.96005 139.68 7.77005L139.32 7.62005ZM139.73 6.96005C139.56 7.15005 139.42 7.37005 139.32 7.62005L139.68 7.77005C139.76 7.57005 139.87 7.39005 140.01 7.24005L139.73 6.96005ZM140.34 6.52005C140.11 6.63005 139.9 6.78005 139.73 6.97005L140.01 7.24005C140.15 7.09005 140.33 6.96005 140.51 6.88005L140.34 6.52005ZM141.09 6.36005C140.83 6.36005 140.58 6.41005 140.34 6.52005L140.51 6.88005C140.69 6.80005 140.88 6.75005 141.09 6.75005V6.36005ZM141.79 6.48005C141.6 6.40005 141.36 6.36005 141.09 6.36005V6.75005C141.34 6.75005 141.52 6.79005 141.64 6.85005L141.796 6.67005L141.79 6.48005ZM142.31 6.81005C142.15 6.67005 141.98 6.56005 141.8 6.48005L141.64 6.85005C141.78 6.91005 141.92 7.00005 142.05 7.11005L142.31 6.81005ZM142.38 6.84005C142.36 6.84005 142.34 6.84005 142.3 6.81005L142.05 7.11005C142.15 7.19005 142.27 7.25005 142.4 7.24005L142.38 6.84005ZM142.45 6.81005C142.44 6.82005 142.42 6.83005 142.38 6.84005L142.4 7.24005C142.52 7.23005 142.63 7.19005 142.72 7.10005L142.45 6.81005ZM142.47 6.76005C142.47 6.78005 142.47 6.79005 142.45 6.81005L142.72 7.10005C142.82 7.01005 142.881 6.90005 142.881 6.77005L142.47 6.76005ZM142.47 6.74005C142.47 6.73005 142.47 6.73005 142.47 6.74005C142.47 6.75005 142.47 6.76005 142.47 6.77005H142.881C142.881 6.72005 142.88 6.68521 142.87 6.63521L142.47 6.74005ZM142.47 6.72005C142.46 6.71005 142.46 6.70005 142.46 6.70005L142.622 6.70005L142.87 6.63521C142.858 6.57509 142.837 6.54631 142.8 6.50005L142.47 6.72005ZM142.43 6.68005C142.45 6.69005 142.45 6.70005 142.45 6.70005L142.622 6.61886L142.8 6.50005C142.722 6.40005 142.72 6.40005 142.67 6.36005L142.43 6.68005ZM141.81 6.31005C142.01 6.38005 142.22 6.51005 142.43 6.68005L142.67 6.36005C142.43 6.16005 142.19 6.02005 141.94 5.93005L141.81 6.31005ZM141.09 6.20005C141.38 6.20005 141.62 6.24005 141.81 6.31005L141.94 5.93005C141.69 5.84005 141.41 5.80005 141.09 5.80005V6.20005ZM140.25 6.37005C140.5 6.26005 140.79 6.20005 141.09 6.20005V5.80005C140.74 5.80005 140.4 5.87005 140.1 6.00005L140.25 6.37005ZM139.58 6.84005C139.77 6.64005 140 6.48005 140.25 6.37005L140.1 6.00005C139.8 6.13005 139.53 6.32005 139.3 6.56005L139.58 6.84005ZM139.13 7.54005C139.24 7.27005 139.39 7.04005 139.58 6.84005L139.3 6.56005C139.07 6.80005 138.89 7.08005 138.76 7.39005L139.13 7.54005ZM138.97 8.40005C138.97 8.09005 139.02 7.80005 139.13 7.54005L138.76 7.39005C138.63 7.70005 138.57 8.04005 138.57 8.40005H138.97ZM139.13 9.27005C139.02 9.00005 138.97 8.71005 138.97 8.40005H138.57C138.57 8.76005 138.63 9.10005 138.76 9.42005L139.13 9.27005ZM139.58 9.98005C139.39 9.78005 139.24 9.54005 139.13 9.27005L138.76 9.42005C138.89 9.73005 139.07 10.01 139.29 10.25L139.58 9.98005ZM140.26 10.45C140 10.34 139.78 10.17 139.58 9.97005L139.29 10.25C139.52 10.48 139.79 10.67 140.09 10.8L140.26 10.45ZM141.09 10.61C140.79 10.61 140.51 10.55 140.26 10.45L140.09 10.8C140.4 10.93 140.74 11.01 141.09 11.01V10.61ZM142.06 8.87005H142.26V8.67005H142.06V8.87005ZM142.06 9.94005H141.86V10.59L142.23 10.05L142.06 9.94005ZM142.63 10.18L142.44 10.11V10.12L142.63 10.18ZM142.58 9.86005L142.43 10L142.44 10.01L142.58 9.86005ZM142.4 9.77005L142.38 9.97005H142.39L142.4 9.77005ZM142.59 6.95005L142.45 6.80005L142.44 6.81005L142.59 6.95005ZM142.66 6.67005L142.46 6.70005V6.72005L142.47 6.74005L142.66 6.67005Z" fill="#F0500B"/>
<path d="M142.66 9.05999L142.06 9.93999V8.86999H141.23C141.14 8.86999 141.07 8.83999 141.01 8.78999C140.95 8.73999 140.92 8.66999 140.92 8.58999C140.92 8.50999 140.95 8.43999 141.01 8.38999C141.07 8.33999 141.14 8.30999 141.23 8.30999H142.35C142.44 8.30999 142.52 8.33999 142.57 8.39999C142.63 8.45999 142.65 8.52999 142.65 8.61999V9.05999H142.66ZM141.09 10.81C140.77 10.81 140.46 10.75 140.18 10.63C139.9 10.51 139.65 10.34 139.44 10.12C139.23 9.89999 139.07 9.63999 138.95 9.34999C138.83 9.05999 138.78 8.73999 138.78 8.39999C138.78 8.05999 138.84 7.74999 138.95 7.45999C139.07 7.16999 139.23 6.90999 139.44 6.69999C139.65 6.47999 139.9 6.30999 140.18 6.17999C140.46 6.05999 140.76 5.98999 141.09 5.98999C141.4 5.98999 141.66 6.02999 141.88 6.10999C142.1 6.18999 142.33 6.31999 142.55 6.50999C142.58 6.52999 142.61 6.55999 142.62 6.58999C142.64 6.60999 142.65 6.63999 142.66 6.66999C142.67 6.68999 142.67 6.71999 142.67 6.75999C142.67 6.83999 142.64 6.89999 142.59 6.94999C142.54 6.99999 142.47 7.02999 142.39 7.02999C142.31 7.02999 142.24 7.00999 142.17 6.94999C142.02 6.81999 141.87 6.71999 141.71 6.65999C141.55 6.58999 141.35 6.55999 141.09 6.55999C140.85 6.55999 140.63 6.60999 140.42 6.69999C140.21 6.79999 140.03 6.92999 139.87 7.09999C139.71 7.26999 139.59 7.45999 139.5 7.68999C139.41 7.90999 139.37 8.14999 139.37 8.39999C139.37 8.65999 139.41 8.89999 139.5 9.11999C139.59 9.33999 139.71 9.52999 139.87 9.69999C140.03 9.86999 140.21 9.99999 140.42 10.1C140.63 10.19 140.85 10.24 141.09 10.24C141.29 10.24 141.49 10.21 141.67 10.14C141.85 10.07 142.03 9.96999 142.2 9.84999C142.27 9.79999 142.34 9.77999 142.41 9.77999C142.48 9.77999 142.54 9.80999 142.59 9.85999C142.64 9.90999 142.66 8.97999 142.66 9.05999C142.66 9.09999 142.65 10.14 142.64 10.18C142.63 10.22 142.6 10.25 142.57 10.28C142.36 10.46 142.13 10.59 141.88 10.68C141.62 10.76 141.36 10.81 141.09 10.81Z" fill="#F0500B"/>
<path d="M136.31 10.4501C136.05 10.5701 135.75 10.6401 135.41 10.6401V11.0401C135.81 11.0401 136.17 10.9701 136.49 10.8101L136.31 10.4501ZM136.9 9.93011C136.76 10.1501 136.57 10.3201 136.31 10.4501L136.49 10.8101C136.81 10.6501 137.06 10.4301 137.24 10.1401L137.029 10.1001L136.9 9.93011ZM137.11 9.17011C137.11 9.46011 137.04 9.72011 136.9 9.93011L137.029 10.1001L137.24 10.1401C137.43 9.85011 137.51 9.53011 137.51 9.17011H137.11ZM137.11 6.37011V9.17011H137.51V6.37011H137.11ZM137.09 6.29011C137.1 6.30011 137.11 6.32011 137.11 6.37011H137.51C137.51 6.23011 137.48 6.12011 137.38 6.02011L137.09 6.29011ZM137.01 6.26011C137.05 6.26011 137.07 6.27011 137.09 6.29011L137.38 6.02011C137.28 5.91011 137.14 5.86011 137 5.86011L137.01 6.26011ZM136.92 6.29011C136.94 6.27011 136.97 6.26011 137.01 6.26011L137 5.86011C136.86 5.86011 136.75 5.90011 136.65 6.00011L136.92 6.29011ZM136.89 6.37011C136.89 6.33011 136.9 6.31011 136.92 6.29011L136.65 6.00011C136.54 6.10011 136.49 6.23011 136.49 6.37011H136.89ZM136.89 9.17011V6.37011H136.49L136.49 9.17011H136.89ZM136.69 9.86011C136.83 9.66011 136.89 9.43011 136.89 9.17011H136.49C136.49 9.35011 136.45 9.50011 136.37 9.64011L136.69 9.86011ZM136.16 10.3201C136.38 10.2101 136.56 10.0601 136.69 9.86011L136.37 9.64011C136.28 9.77011 136.16 9.88011 135.99 9.96011L136.16 10.3201ZM135.41 10.4801C135.69 10.4801 135.94 10.4301 136.16 10.3201L135.99 9.96011C135.83 10.0401 135.64 10.0801 135.41 10.0801V10.4801ZM134.63 10.3201C134.86 10.4301 135.12 10.4801 135.41 10.4801V10.0801C135.17 10.0801 134.96 10.0401 134.79 9.96011L134.63 10.3201ZM134.06 9.86011C134.2 10.0501 134.4 10.2201 134.63 10.3201L134.79 9.96011C134.62 9.88011 134.49 9.77011 134.39 9.63011L134.06 9.86011ZM133.87 9.17011C133.87 9.42011 133.94 9.65011 134.07 9.86011L134.39 9.63011C134.3 9.50011 134.27 9.35011 134.27 9.17011H133.87ZM133.87 6.37011V9.17011H134.27V6.37011H133.87ZM133.83 6.29011C133.84 6.30011 133.87 6.33011 133.87 6.38011H134.27C134.27 6.24011 134.22 6.11011 134.12 6.01011L133.83 6.29011ZM133.75 6.26011C133.79 6.26011 133.81 6.27011 133.83 6.29011L134.12 6.01011C134.02 5.90011 133.89 5.87011 133.75 5.87011V6.26011ZM133.67 6.29011C133.69 6.27011 133.71 6.26011 133.75 6.26011V5.87011C133.61 5.87011 133.49 5.90011 133.39 6.00011L133.67 6.29011ZM133.64 6.37011C133.64 6.33011 133.65 6.31011 133.67 6.29011L133.39 6.00011C133.28 6.10011 133.24 6.23011 133.24 6.37011H133.64ZM133.64 9.17011V6.37011H133.24V9.17011H133.64ZM133.86 9.93011C133.72 9.71011 133.64 9.45011 133.64 9.17011H133.24C133.24 9.53011 133.34 9.87011 133.53 10.1501L133.86 9.93011ZM134.47 10.4501C134.2 10.3201 134 10.1401 133.85 9.92011L133.52 10.1401C133.71 10.4201 133.98 10.6501 134.3 10.8101L134.47 10.4501ZM135.4 10.6401C135.04 10.6401 134.73 10.5701 134.47 10.4501L134.3 10.8101C134.63 10.9601 135 11.0401 135.41 11.0401V10.6401H135.4Z" fill="#F0500B"/>
<path d="M135.4 10.8401C135.02 10.8401 134.68 10.7701 134.38 10.6301C134.08 10.4901 133.85 10.2901 133.68 10.0401C133.52 9.79007 133.43 9.50007 133.43 9.18007V6.38007C133.43 6.29007 133.46 6.21007 133.52 6.16007C133.58 6.10007 133.65 6.07007 133.74 6.07007C133.83 6.07007 133.91 6.10007 133.96 6.16007C134.02 6.22007 134.05 6.29007 134.05 6.38007V9.18007C134.05 9.40007 134.11 9.59007 134.22 9.76007C134.34 9.92007 134.49 10.0501 134.69 10.1501C134.89 10.2401 135.13 10.2901 135.39 10.2901C135.64 10.2901 135.86 10.2401 136.06 10.1501C136.26 10.0501 136.41 9.92007 136.52 9.76007C136.63 9.59007 136.69 9.40007 136.69 9.18007V6.38007C136.69 6.29007 136.72 6.21007 136.78 6.16007C136.84 6.10007 136.91 6.07007 137 6.07007C137.09 6.07007 137.17 6.10007 137.22 6.16007C137.28 6.22007 137.3 6.29007 137.3 6.38007V9.18007C137.3 9.50007 137.22 9.79007 137.05 10.0401C136.89 10.2901 136.67 10.4901 136.38 10.6301C136.11 10.7701 135.78 10.8401 135.4 10.8401Z" fill="#F0500B"/>
<path d="M131.98 6.44011H128.77V6.84011H131.98V6.44011ZM132.04 6.42011C132.03 6.43011 132.02 6.44011 131.98 6.44011V6.84011C132.11 6.84011 132.22 6.80011 132.32 6.70011L132.04 6.42011ZM132.07 6.35011C132.07 6.38011 132.06 6.40011 132.04 6.42011L132.32 6.70011C132.42 6.60011 132.46 6.48011 132.46 6.35011H132.07ZM132.135 6.10015C132.125 6.09015 132.07 6.31011 132.07 6.35011H132.46C132.46 6.22011 132.42 6.09011 132.32 6.00011L132.135 6.10015ZM131.98 6.26011C132.01 6.26011 132.03 6.27011 132.04 6.28011L132.32 6.00011C132.23 5.90011 132.11 5.86011 131.98 5.86011V6.26011ZM128.77 6.26011H131.98V5.86011H128.77V6.26011ZM128.7 6.29011C128.72 6.27011 128.73 6.25011 128.77 6.25011V5.86011C128.64 5.86011 128.51 5.91011 128.42 6.00011L128.539 6.20011L128.7 6.29011ZM128.68 6.35011C128.68 6.31011 128.69 6.30011 128.7 6.29011L128.42 6.00011C128.33 6.09011 128.29 6.22011 128.29 6.35011H128.68ZM128.71 6.42011C128.7 6.40011 128.69 6.39011 128.69 6.35011H128.29C128.29 6.48011 128.33 6.60011 128.42 6.70011L128.71 6.42011ZM128.77 6.44011C128.73 6.44011 128.71 6.43011 128.7 6.42011L128.42 6.70011C128.52 6.79011 128.65 6.84011 128.78 6.84011V6.44011H128.77ZM130.46 10.5101C130.44 10.5301 130.42 10.5401 130.38 10.5401V10.9401C130.52 10.9401 130.64 10.8901 130.74 10.7901L130.46 10.5101ZM130.49 10.4301C130.49 10.4701 130.48 10.4901 130.46 10.5101L130.74 10.7901C130.84 10.6901 130.89 10.5701 130.89 10.4301H130.49ZM130.49 6.06011V10.4301H130.89V6.06011H130.49ZM130.07 6.26011H130.69V5.86011H130.07V6.26011ZM130.27 10.4301V6.06011H129.87V10.4301H130.27ZM130.3 10.5101C130.28 10.4901 130.27 10.4701 130.27 10.4301H129.87C129.87 10.5701 129.92 10.6901 130.02 10.7901L130.3 10.5101ZM130.38 10.5501C130.34 10.5501 130.32 10.5401 130.3 10.5201L130.137 10.6001L130.02 10.7901C130.12 10.8901 130.24 10.9401 130.38 10.9401V10.5501ZM130.69 6.06011H130.89V5.86011H130.69V6.06011ZM130.07 6.06011V5.86011H129.87V6.06011H130.07Z" fill="#F0500B"/>
<path d="M128.77 6.64006C128.69 6.64006 128.62 6.61006 128.56 6.56006C128.51 6.50006 128.48 6.43006 128.48 6.35006C128.48 6.27006 128.51 6.20006 128.56 6.15006C128.62 6.09006 128.69 6.07006 128.77 6.07006H131.98C132.06 6.07006 132.13 6.10006 132.18 6.15006C132.24 6.20006 132.26 6.27006 132.26 6.35006C132.26 6.43006 132.23 6.50006 132.18 6.56006C132.13 6.61006 132.06 6.64006 131.98 6.64006H128.77ZM130.38 10.7501C130.29 10.7501 130.22 10.7201 130.16 10.6601C130.1 10.6001 130.07 10.5301 130.07 10.4401V6.06006H130.69V10.4301C130.69 10.5201 130.66 10.5901 130.6 10.6501C130.54 10.7201 130.47 10.7501 130.38 10.7501Z" fill="#F0500B"/>
<path d="M125.15 6.64011V8.37011H125.55V6.64011H125.15ZM126.12 6.44011H125.35V6.84011H126.12V6.44011ZM126.7 6.57011C126.53 6.48011 126.33 6.43011 126.12 6.43011V6.84011C126.28 6.84011 126.39 6.87011 126.5 6.93011L126.7 6.57011ZM127.1 6.97011C127 6.80011 126.86 6.67011 126.69 6.58011L126.5 6.93011C126.61 6.99011 126.7 7.07011 126.76 7.17011L127.1 6.97011ZM127.25 7.54011C127.25 7.33011 127.2 7.14011 127.1 6.97011L126.76 7.17011C126.82 7.27011 126.85 7.39011 126.85 7.54011H127.25ZM127.1 8.07011C127.2 7.91011 127.25 7.73011 127.25 7.53011H126.85C126.85 7.65011 126.82 7.76011 126.76 7.86011L127.1 8.07011ZM126.69 8.44011C126.86 8.35011 127 8.23011 127.1 8.08011L126.93 7.92827L126.76 7.86011C126.7 7.95011 126.63 8.03011 126.52 8.08011L126.69 8.44011ZM126.12 8.56011C126.33 8.56011 126.52 8.52011 126.69 8.44011L126.52 8.08011C126.41 8.13011 126.28 8.16011 126.12 8.16011V8.56011ZM125.35 8.56011H126.12V8.16011H125.35V8.56011ZM127.62 10.5001C127.61 10.5201 127.6 10.5301 127.59 10.5301C127.58 10.5301 127.56 10.5401 127.52 10.5401V10.9401C127.61 10.9401 127.7 10.9201 127.78 10.8801C127.86 10.8301 127.92 10.7701 127.97 10.6801L127.62 10.5001ZM127.6 10.3701C127.64 10.4401 127.64 10.4701 127.62 10.5101L127.97 10.6801C128.06 10.5001 128.03 10.3201 127.93 10.1601L127.6 10.3701ZM126.61 8.79011L127.6 10.3701L127.93 10.1601L126.95 8.58011L126.61 8.79011ZM126.23 9.05011L126.84 8.88011L126.73 8.50011L126.12 8.67011L126.23 9.05011ZM127.43 10.5001L126.35 8.75011L126.01 8.96011L127.09 10.7001L127.43 10.5001ZM127.46 10.5401C127.45 10.5401 127.45 10.5301 127.43 10.5001L127.09 10.7001C127.14 10.7801 127.2 10.8401 127.28 10.8801L127.46 10.5401ZM127.53 10.5501C127.5 10.5501 127.48 10.5401 127.46 10.5401L127.28 10.8801C127.36 10.9201 127.43 10.9401 127.52 10.9401L127.53 10.5501ZM125.12 10.5101C125.11 10.5201 125.08 10.5501 125.03 10.5501V10.9501C125.17 10.9501 125.3 10.8901 125.4 10.7901L125.12 10.5101ZM125.15 10.4301C125.15 10.4701 125.14 10.4901 125.12 10.5101L125.4 10.7901C125.5 10.6901 125.55 10.5701 125.55 10.4301H125.15ZM125.15 8.94011V10.4301H125.55V8.94011H125.15ZM126.12 8.74011H125.35V9.14011H126.12V8.74011ZM126.82 8.58011C126.62 8.68011 126.39 8.74011 126.11 8.74011V9.14011C126.44 9.14011 126.74 9.07011 127 8.94011L126.82 8.58011ZM127.28 8.16011C127.17 8.34011 127.02 8.48011 126.82 8.58011L127 8.94011C127.26 8.80011 127.47 8.61011 127.62 8.37011L127.28 8.16011ZM127.45 7.54011C127.45 7.78011 127.39 7.98011 127.28 8.16011L127.62 8.37011C127.77 8.12011 127.85 7.84011 127.85 7.54011H127.45ZM127.28 6.87011C127.39 7.05011 127.45 7.27011 127.45 7.54011H127.85C127.85 7.22011 127.78 6.92011 127.62 6.67011L127.28 6.87011ZM126.82 6.43011C127.02 6.54011 127.17 6.68011 127.28 6.87011L127.62 6.67011C127.47 6.42011 127.27 6.22011 127.01 6.08011L126.82 6.43011ZM126.12 6.26011C126.39 6.26011 126.62 6.32011 126.82 6.43011L127.01 6.08011C126.74 5.93011 126.44 5.86011 126.12 5.86011V6.26011ZM125.04 6.26011H126.12V5.86011H125.04V6.26011ZM124.96 6.29011C124.98 6.27011 125 6.26011 125.04 6.26011V5.86011C124.9 5.86011 124.78 5.91011 124.68 6.01011L124.96 6.29011ZM124.92 6.37011C124.92 6.33011 124.93 6.31011 124.95 6.29011L124.844 6.10015L124.68 6.01011C124.57 6.11011 124.53 6.23011 124.53 6.37011H124.92ZM124.92 10.4301V6.37011H124.53L124.53 10.4301H124.92ZM124.96 10.5201C124.94 10.5001 124.93 10.4701 124.93 10.4301H124.53C124.53 10.5701 124.58 10.7001 124.68 10.8001L124.96 10.5201ZM125.04 10.5501C125 10.5501 124.98 10.5401 124.96 10.5201L124.68 10.8001C124.78 10.9001 124.89 10.9501 125.03 10.9501L125.04 10.5501ZM125.35 6.64011V6.44011H125.15V6.64011H125.35ZM125.35 8.36011H125.15V8.56011H125.35V8.36011ZM126.78 8.68011L126.95 8.57011L126.87 8.44011L126.72 8.48011L126.78 8.68011ZM126.18 8.86011L126.12 8.67011L125.87 8.74011L126.01 8.96011L126.18 8.86011ZM125.35 8.94011V8.74011H125.15V8.94011H125.35Z" fill="#F0500B"/>
<path d="M125.35 8.36006H126.12C126.3 8.36006 126.47 8.33006 126.61 8.26006C126.75 8.19006 126.86 8.09006 126.94 7.97006C127.02 7.84006 127.06 7.70006 127.06 7.54006C127.06 7.36006 127.02 7.21006 126.94 7.07006C126.86 6.93006 126.75 6.83006 126.61 6.75006C126.47 6.67006 126.31 6.64006 126.12 6.64006H125.35V8.36006ZM127.53 10.7501C127.47 10.7501 127.42 10.7401 127.37 10.7101C127.33 10.6901 127.29 10.6501 127.26 10.6001L126.18 8.86006L126.79 8.69006L127.77 10.2701C127.84 10.3901 127.85 10.5001 127.8 10.6001C127.74 10.7001 127.65 10.7501 127.53 10.7501ZM125.04 10.7501C124.95 10.7501 124.88 10.7201 124.82 10.6601C124.76 10.6001 124.73 10.5301 124.73 10.4401V6.37006C124.73 6.28006 124.76 6.20006 124.82 6.15006C124.88 6.09006 124.95 6.06006 125.04 6.06006H126.12C126.42 6.06006 126.69 6.12006 126.92 6.25006C127.15 6.37006 127.33 6.55006 127.46 6.77006C127.59 6.99006 127.66 7.25006 127.66 7.54006C127.66 7.81006 127.59 8.05006 127.46 8.27006C127.33 8.48006 127.15 8.65006 126.92 8.77006C126.69 8.89006 126.42 8.95006 126.12 8.95006H125.35V10.4401C125.35 10.5301 125.32 10.6001 125.26 10.6601C125.2 10.7201 125.13 10.7501 125.04 10.7501Z" fill="#F0500B"/>
<path d="M120.09 10.2888C120.34 10.3888 120.6 10.4488 120.89 10.4488V10.0488C120.65 10.0488 120.44 10.0088 120.25 9.92883L120.09 10.2888ZM119.46 9.85883C119.64 10.0388 119.85 10.1888 120.09 10.2888L120.25 9.92883C120.06 9.83883 119.89 9.73883 119.75 9.58883L119.46 9.85883ZM119.05 9.20883C119.15 9.45883 119.28 9.66883 119.46 9.85883L119.75 9.58883C119.61 9.43883 119.5 9.26883 119.42 9.05883L119.05 9.20883ZM118.9 8.40883C118.9 8.68883 118.95 8.95883 119.05 9.20883L119.42 9.05883C119.34 8.85883 119.3 8.63883 119.3 8.40883H118.9ZM119.05 7.60883C118.95 7.85883 118.9 8.12883 118.9 8.40883H119.3C119.3 8.16883 119.34 7.95883 119.42 7.75883L119.05 7.60883ZM119.46 6.95883C119.29 7.13883 119.15 7.35883 119.05 7.60883L119.42 7.75883C119.5 7.55883 119.61 7.38883 119.74 7.23883L119.46 6.95883ZM120.09 6.52883C119.85 6.62883 119.64 6.77883 119.46 6.96883L119.74 7.23883C119.88 7.08883 120.04 6.96883 120.23 6.88883L120.09 6.52883ZM120.88 6.36883C120.6 6.36883 120.33 6.41883 120.08 6.51883L120.23 6.88883C120.42 6.80883 120.64 6.76883 120.87 6.76883V6.36883H120.88ZM121.68 6.52883C121.44 6.42883 121.15 6.36883 120.87 6.36883V6.76883C121.11 6.76883 121.33 6.80883 121.52 6.88883L121.68 6.52883ZM122.31 6.95883C122.13 6.76883 121.92 6.62883 121.67 6.51883L121.52 6.88883C121.72 6.96883 121.88 7.08883 122.02 7.22883L122.31 6.95883ZM122.72 7.60883C122.63 7.35883 122.49 7.13883 122.31 6.95883L122.02 7.22883C122.16 7.36883 122.28 7.55883 122.35 7.75883L122.72 7.60883ZM122.87 8.40883C122.87 8.12883 122.82 7.85883 122.72 7.60883L122.35 7.75883C122.43 7.95883 122.47 8.17883 122.47 8.40883H122.87ZM122.72 9.20883C122.82 8.95883 122.87 8.68883 122.87 8.40883H122.47C122.47 8.64883 122.43 8.85883 122.35 9.05883L122.72 9.20883ZM122.31 9.85883C122.49 9.66883 122.63 9.44883 122.72 9.19883L122.35 9.05883C122.28 9.25883 122.17 9.42883 122.03 9.57883L122.31 9.85883ZM121.67 10.2988C121.91 10.1888 122.13 10.0388 122.31 9.85883L122.03 9.57883C121.89 9.71883 121.71 9.83883 121.51 9.92883L121.67 10.2988ZM120.88 10.4488C121.16 10.4488 121.43 10.3988 121.67 10.2988L121.51 9.92883C121.32 10.0088 121.11 10.0488 120.87 10.0488V10.4488H120.88ZM121.77 10.4588C121.51 10.5688 121.21 10.6188 120.88 10.6188V11.0188C121.25 11.0188 121.61 10.9488 121.92 10.8188L121.77 10.4588ZM122.46 9.99883C122.27 10.1888 122.04 10.3488 121.77 10.4588L121.92 10.8188C122.24 10.6888 122.51 10.5088 122.74 10.2788L122.46 9.99883ZM122.91 9.30883C122.8 9.57883 122.65 9.80883 122.46 10.0088L122.74 10.2788C122.97 10.0388 123.15 9.77883 123.28 9.45883L122.91 9.30883ZM123.07 8.41883C123.07 8.74883 123.02 9.03883 122.91 9.30883L123.28 9.45883C123.41 9.13883 123.47 8.78883 123.47 8.41883H123.07ZM122.91 7.51883C123.02 7.78883 123.07 8.08883 123.07 8.41883H123.47C123.47 8.04883 123.41 7.68883 123.28 7.36883L122.91 7.51883ZM122.46 6.82883C122.65 7.01883 122.8 7.24883 122.91 7.51883L123.28 7.36883C123.15 7.04883 122.98 6.77883 122.74 6.54883L122.46 6.82883ZM121.76 6.36883C122.03 6.47883 122.27 6.63883 122.46 6.82883L122.74 6.54883C122.51 6.30883 122.24 6.12883 121.93 6.00883L121.76 6.36883ZM120.88 6.20883C121.21 6.20883 121.5 6.26883 121.76 6.36883L121.845 6.18883L121.93 6.00883C121.61 5.87883 121.26 5.80883 120.88 5.80883V6.20883ZM119.99 6.36883C120.26 6.25883 120.55 6.20883 120.88 6.20883V5.80883C120.5 5.80883 120.16 5.86883 119.84 6.00883L119.95 6.20883L119.99 6.36883ZM119.3 6.82883C119.49 6.62883 119.72 6.47883 119.99 6.37883L119.95 6.20883L119.84 6.00883C119.52 6.13883 119.25 6.31883 119.02 6.54883L119.3 6.82883ZM118.86 7.51883C118.97 7.24883 119.11 7.01883 119.3 6.82883L119.02 6.54883C118.79 6.77883 118.62 7.05883 118.49 7.36883L118.86 7.51883ZM118.7 8.40883C118.7 8.07883 118.75 7.77883 118.86 7.51883L118.49 7.36883C118.36 7.68883 118.3 8.03883 118.3 8.40883H118.7ZM118.86 9.30883C118.75 9.03883 118.7 8.73883 118.7 8.40883H118.3C118.3 8.77883 118.36 9.12883 118.49 9.44883L118.86 9.30883ZM119.3 10.0088C119.11 9.80883 118.96 9.57883 118.86 9.30883L118.49 9.44883C118.62 9.75883 118.8 10.0488 119.03 10.2888L119.3 10.0088ZM119.99 10.4588C119.72 10.3488 119.49 10.1988 119.3 10.0088L119.03 10.2888C119.26 10.5188 119.53 10.6988 119.84 10.8288L119.99 10.4588ZM120.88 10.6188C120.55 10.6188 120.25 10.5688 119.99 10.4588L119.84 10.8288C120.16 10.9588 120.51 11.0188 120.88 11.0188V10.6188Z" fill="#F0500B"/>
<path d="M120.88 10.24C121.14 10.24 121.38 10.19 121.59 10.1C121.81 10 122 9.87 122.16 9.71C122.32 9.54 122.44 9.35 122.53 9.12C122.62 8.9 122.66 8.65 122.66 8.39C122.66 8.13 122.62 7.89 122.53 7.66C122.45 7.44 122.32 7.24 122.16 7.08C122 6.91 121.81 6.78 121.59 6.69C121.37 6.6 121.14 6.55 120.88 6.55C120.62 6.55 120.38 6.6 120.16 6.69C119.94 6.78 119.76 6.91 119.6 7.08C119.44 7.24 119.32 7.44 119.23 7.66C119.14 7.88 119.1 8.13 119.1 8.39C119.1 8.65 119.14 8.89 119.23 9.12C119.32 9.34 119.44 9.54 119.6 9.71C119.76 9.87 119.95 10 120.16 10.1C120.38 10.2 120.62 10.24 120.88 10.24ZM120.88 10.81C120.53 10.81 120.21 10.75 119.91 10.64C119.62 10.52 119.37 10.35 119.15 10.14C118.94 9.92 118.78 9.67 118.66 9.38C118.54 9.08 118.49 8.76 118.49 8.41C118.49 8.06 118.55 7.74 118.66 7.44C118.78 7.15 118.94 6.9 119.15 6.68C119.36 6.46 119.61 6.3 119.91 6.18C120.2 6.06 120.52 6 120.88 6C121.23 6 121.55 6.06 121.84 6.18C122.13 6.3 122.38 6.46 122.6 6.68C122.81 6.89 122.98 7.14 123.09 7.44C123.21 7.73 123.26 8.05 123.26 8.41C123.26 8.76 123.2 9.09 123.09 9.38C122.97 9.67 122.81 9.93 122.6 10.14C122.39 10.35 122.14 10.52 121.84 10.64C121.56 10.75 121.24 10.81 120.88 10.81Z" fill="#F0500B"/>
<path d="M114.92 6.64011V8.55011H115.32V6.64011H114.92ZM116.01 6.44011H115.12V6.84011H116.01V6.44011ZM116.6 6.59011C116.43 6.49011 116.23 6.44011 116.01 6.44011V6.84011C116.16 6.84011 116.29 6.86011 116.39 6.93011L116.6 6.59011ZM117 7.01011C116.9 6.83011 116.77 6.69011 116.6 6.59011L116.39 6.93011C116.5 6.99011 116.58 7.08011 116.65 7.20011L117 7.01011ZM117.15 7.61011C117.15 7.39011 117.1 7.19011 117 7.01011L116.65 7.20011C116.71 7.31011 116.75 7.44011 116.75 7.61011H117.15ZM117 8.19011C117.1 8.02011 117.15 7.82011 117.15 7.61011H116.75C116.75 7.76011 116.72 7.88011 116.66 7.99011L116.754 8.20015L117 8.19011ZM116.6 8.59011C116.77 8.49011 116.91 8.37011 117 8.20011L116.66 7.99011C116.6 8.10011 116.51 8.18011 116.4 8.25011L116.6 8.59011ZM116.01 8.74011C116.22 8.74011 116.42 8.69011 116.6 8.59011L116.4 8.25011C116.29 8.31011 116.17 8.34011 116.01 8.34011V8.74011ZM115.12 8.74011H116.01V8.34011H115.12V8.74011ZM114.89 10.5201C114.88 10.5301 114.86 10.5501 114.81 10.5501V10.9501C114.95 10.9501 115.07 10.8901 115.17 10.7901L115.056 10.6001L114.89 10.5201ZM114.92 10.4301C114.92 10.4701 114.91 10.5001 114.89 10.5201L115.17 10.7901C115.27 10.6901 115.32 10.5701 115.32 10.4301H114.92ZM114.92 9.12011V10.4301H115.32V9.12011H114.92ZM116.01 8.92011H115.12V9.32011H116.01V8.92011ZM116.72 8.76011C116.52 8.87011 116.28 8.92011 116.01 8.92011V9.32011C116.34 9.32011 116.64 9.25011 116.9 9.10011L116.72 8.76011ZM117.18 8.30011C117.07 8.50011 116.92 8.65011 116.72 8.76011L116.754 9.00015L116.9 9.10011C117.16 8.95011 117.38 8.75011 117.53 8.49011L117.18 8.30011ZM117.35 7.61011C117.35 7.87011 117.29 8.10011 117.18 8.29011L117.353 8.40015L117.53 8.49011C117.68 8.23011 117.75 7.93011 117.75 7.61011H117.35ZM117.17 6.90011C117.28 7.10011 117.35 7.34011 117.35 7.62011H117.75C117.75 7.29011 117.67 6.97011 117.52 6.71011L117.17 6.90011ZM116.71 6.43011C116.91 6.54011 117.06 6.70011 117.17 6.90011L117.52 6.71011C117.37 6.44011 117.17 6.23011 116.9 6.08011L116.71 6.43011ZM116.01 6.26011C116.28 6.26011 116.51 6.32011 116.71 6.43011L116.9 6.08011C116.63 5.93011 116.34 5.86011 116.01 5.86011V6.26011ZM114.81 6.26011H116.01V5.86011H114.81V6.26011ZM114.73 6.29011C114.75 6.27011 114.77 6.26011 114.81 6.26011V5.86011C114.67 5.86011 114.55 5.91011 114.45 6.01011L114.73 6.29011ZM114.7 6.37011C114.7 6.33011 114.71 6.31011 114.73 6.29011L114.45 6.00011C114.34 6.10011 114.3 6.23011 114.3 6.37011H114.7ZM114.7 10.4301V6.37011H114.3V10.4301H114.7ZM114.73 10.5201C114.71 10.5001 114.7 10.4701 114.7 10.4301H114.3C114.3 10.5701 114.35 10.6901 114.45 10.7901L114.657 10.7001L114.73 10.5201ZM114.81 10.5501C114.77 10.5501 114.75 10.5401 114.73 10.5201L114.59 10.6551L114.45 10.7901C114.55 10.8901 114.67 10.9501 114.81 10.9501V10.5501ZM115.12 6.64011V6.44011H114.92V6.64011H115.12ZM115.12 8.54011H114.92V8.74011H115.12V8.54011ZM115.03 10.6601L114.89 10.5201V10.5301L115.03 10.6601ZM115.12 9.12011V8.92011H114.92V9.12011H115.12Z" fill="#F0500B"/>
<path d="M115.12 8.54006H116.01C116.19 8.54006 116.36 8.50006 116.5 8.42006C116.64 8.34006 116.75 8.23006 116.83 8.09006C116.91 7.95006 116.95 7.79006 116.95 7.61006C116.95 7.42006 116.91 7.25006 116.83 7.11006C116.75 6.96006 116.64 6.85006 116.5 6.76006C116.36 6.67006 116.2 6.63006 116.01 6.63006H115.12V8.54006ZM114.81 10.7501C114.72 10.7501 114.65 10.7201 114.59 10.6601C114.53 10.6001 114.5 10.5301 114.5 10.4401V6.37006C114.5 6.28006 114.53 6.20006 114.59 6.15006C114.65 6.09006 114.72 6.06006 114.81 6.06006H116.01C116.31 6.06006 116.58 6.13006 116.81 6.26006C117.04 6.39006 117.22 6.58006 117.35 6.81006C117.48 7.04006 117.55 7.31006 117.55 7.61006C117.55 7.90006 117.48 8.16006 117.35 8.39006C117.22 8.62006 117.04 8.80006 116.81 8.92006C116.58 9.05006 116.31 9.11006 116.01 9.11006H115.12V10.4201C115.12 10.5101 115.09 10.5801 115.03 10.6401C114.98 10.7201 114.9 10.7501 114.81 10.7501Z" fill="#F0500B"/>
</g>
<defs>
<clipPath id="clip0_575_495">
<rect width="160" height="52" fill="white"/>
</clipPath>
</defs>
</svg>
