<svg width="24" height="24" viewBox="0 0 24 24" fill="none" xmlns="http://www.w3.org/2000/svg">
<path d="M9.77783 7.5V5.25C9.77783 4.65326 10.012 4.08097 10.4287 3.65901C10.8455 3.23705 11.4107 3 12.0001 3H19.7778C20.3672 3 20.9324 3.23705 21.3492 3.65901C21.7659 4.08097 22.0001 4.65326 22.0001 5.25V18.75C22.0001 19.3467 21.7659 19.919 21.3492 20.341C20.9324 20.7629 20.3672 21 19.7778 21H12.0001C11.4107 21 10.8455 20.7629 10.4287 20.341C10.012 19.919 9.77783 19.3467 9.77783 18.75V16.5" stroke="#0F0F10" stroke-width="1.5" stroke-linecap="round" stroke-linejoin="round"/>
<path d="M15.3333 12H2M2 12L5.33333 8.625M2 12L5.33333 15.375" stroke="#0F0F10" stroke-width="1.5" stroke-linecap="round" stroke-linejoin="round"/>
</svg>
