<svg width="72" height="72" viewBox="0 0 72 72" fill="none" xmlns="http://www.w3.org/2000/svg">
<path d="M37.3522 15.1261L37.3527 15.1261C38.178 15.188 38.8138 15.8797 38.8065 16.7072C38.8065 16.7073 38.8065 16.7075 38.8065 16.7077L38.806 16.7169L38.8056 16.7262L38.8056 16.7272C38.7737 17.483 38.1351 18.0697 37.3793 18.0379C37.379 18.0379 37.3787 18.0378 37.3783 18.0378L37.0995 18.0145L37.0992 18.0145L37.0945 18.0141C36.734 17.9821 36.3723 17.95 35.9993 17.95C26.0302 17.9505 17.9496 26.0321 17.95 36.0007C17.9505 45.9693 26.0316 54.0509 36.0007 54.0504C45.9693 54.0495 54.0504 45.9684 54.05 35.9993C54.05 35.6255 54.0176 35.2631 53.985 34.9L53.9853 34.9L53.9842 34.8944C53.9779 34.864 53.9726 34.8342 53.9681 34.804C53.8527 34.008 54.4039 33.2685 55.1998 33.153L55.1926 33.1036L55.1998 33.153C55.9956 33.0371 56.7345 33.5881 56.8507 34.3837C56.9171 34.9199 56.95 35.4598 56.95 36.0002C56.95 47.5703 47.5703 56.95 36.0002 56.95C24.4297 56.95 15.05 47.5703 15.05 36.0002C15.05 24.4297 24.4297 15.05 36.0002 15.05C36.4576 15.05 36.904 15.0879 37.3522 15.1261ZM45.7314 24.1822L45.7461 24.1676V24.1469V18.6771C45.7461 18.2858 45.9015 17.9107 46.1785 17.6342L46.1785 17.6342L55.3307 8.48199C55.6072 8.20544 55.9823 8.05 56.3731 8.05C57.1883 8.04955 57.8489 8.71018 57.8489 9.5249V14.101V14.151H57.8989H62.475C62.8663 14.151 63.2414 14.3064 63.5179 14.583C64.094 15.1591 64.094 16.0931 63.5179 16.6693L54.3662 25.8214C54.0892 26.0985 53.7142 26.2539 53.3229 26.2539H47.8531H47.8323L47.8177 26.2685L37.5873 36.499L37.5866 36.4997C37.5749 36.5118 37.5628 36.524 37.5506 36.5357L37.5505 36.5357C36.9645 37.1019 36.0305 37.0857 35.4642 36.4996C34.8981 35.9135 34.9143 34.9795 35.5004 34.4133L35.501 34.4127L45.7314 24.1822ZM48.7114 19.2734L48.6968 19.288V19.3087V23.2532V23.3032H48.7468H52.6912H52.7119L52.7266 23.2885L58.828 17.1871L58.9134 17.1017H58.7926H56.3736C55.5588 17.1017 54.8982 16.4411 54.8982 15.6263V13.2073V13.0865L54.8129 13.1719L48.7114 19.2734ZM38.0123 24.5625C38.0123 25.3978 37.3355 26.0751 36.4998 26.0751C31.2945 26.0751 27.0746 30.2945 27.0746 35.5002C27.0746 40.7055 31.2945 44.9254 36.4998 44.9254C41.7055 44.9254 45.9249 40.7055 45.9249 35.5002C45.9249 34.6645 46.6022 33.9877 47.4375 33.9877C48.2727 33.9877 48.95 34.6645 48.95 35.5002C48.95 42.376 43.376 47.95 36.4998 47.95C29.624 47.95 24.05 42.376 24.05 35.5002C24.05 28.624 29.624 23.05 36.4998 23.05C37.3355 23.05 38.0123 23.7273 38.0123 24.5625ZM63.6414 25.7895C64.4259 25.53 65.2717 25.9551 65.5314 26.7389C67.423 32.7686 67.4229 39.2327 65.5308 45.2624C60.4147 61.5676 43.0478 70.6383 26.7404 65.5228C10.4335 60.4073 1.36116 43.0423 6.47735 26.7376C11.5935 10.4325 28.9606 1.36181 45.2674 6.47711C46.0415 6.72894 46.4721 7.55231 46.2373 8.33127C45.9988 9.12213 45.1645 9.56978 44.3735 9.33146C38.9191 7.619 33.0708 7.61903 27.616 9.33156C12.8805 13.9584 4.6857 29.6534 9.31365 44.3875C13.9411 59.1215 29.6383 67.3147 44.3738 62.6878C59.1096 58.061 67.3039 42.3662 62.6767 27.6323C62.4485 26.8584 62.8752 26.043 63.6414 25.7895Z" fill="#F0500B" stroke="white" stroke-width="0.1"/>
</svg>
