<svg width="24" height="24" viewBox="0 0 24 24" fill="none" xmlns="http://www.w3.org/2000/svg">
<path d="M14.638 8.79015H15.2605C15.505 8.79015 15.7051 8.59006 15.7051 8.34552C15.7051 8.10097 15.505 7.90088 15.2605 7.90088H14.638C14.3934 7.90088 14.1934 8.10097 14.1934 8.34552C14.1934 8.59006 14.3934 8.79015 14.638 8.79015Z" fill="#0F0F10"/>
<path d="M22.9079 19.6613L22.3521 18.3052C22.1742 17.905 21.774 17.6382 21.3294 17.6382H20.8403V8.78995H21.7963C22.2187 8.78995 22.5744 8.50093 22.6633 8.10076C22.7522 7.70059 22.5522 7.27818 22.1742 7.10033L12.9258 2.72067C12.3478 2.43165 11.6586 2.43165 11.0361 2.72067L1.7432 7.10033C1.36526 7.27818 1.16518 7.67836 1.2541 8.10076C1.34303 8.52316 1.69874 8.81218 2.12114 8.81218H3.05488V17.6604H2.65471C2.21007 17.6604 1.8099 17.9272 1.63204 18.3274L1.07625 19.6613C0.942857 20.017 0.987321 20.3949 1.18741 20.7062C1.38749 21.0174 1.7432 21.1953 2.09891 21.1953H21.8852C22.2409 21.1953 22.5966 21.0174 22.7967 20.7062C23.019 20.4172 23.0635 20.017 22.9079 19.6613ZM2.14337 7.90067L11.414 3.52101C11.792 3.34316 12.1921 3.34316 12.5479 3.52101L21.8185 7.90067H20.3957C20.1511 7.90067 19.951 8.10076 19.951 8.34531C19.951 8.38977 19.951 8.412 19.9733 8.43424C19.9733 8.45647 19.951 8.50093 19.951 8.52316V17.6382H18.1725V11.4578C18.1725 10.4796 17.3722 9.67922 16.394 9.67922C15.4158 9.67922 14.6154 10.4796 14.6154 11.4578V17.6604H13.7261V11.4578C13.7261 10.4796 12.9258 9.67922 11.9476 9.67922C10.9694 9.67922 10.1691 10.4796 10.1691 11.4578V17.6604H9.27978V11.4578C9.27978 10.4796 8.47943 9.67922 7.50124 9.67922C6.52304 9.67922 5.72269 10.4796 5.72269 11.4578V17.6604H3.94415V8.78995H12.6368C12.8813 8.78995 13.0814 8.58986 13.0814 8.34531C13.0814 8.10076 12.8813 7.90067 12.6368 7.90067H2.14337ZM17.2832 11.4578V17.6604H15.5047V11.4578C15.5047 10.9687 15.9049 10.5685 16.394 10.5685C16.8831 10.5685 17.2832 10.9687 17.2832 11.4578ZM12.8369 11.4578V17.6604H11.0583V11.4578C11.0583 10.9687 11.4585 10.5685 11.9476 10.5685C12.4367 10.5685 12.8369 10.9687 12.8369 11.4578ZM8.39051 11.4578V17.6604H6.61196V11.4578C6.61196 10.9687 7.01214 10.5685 7.50124 10.5685C7.99033 10.5685 8.39051 10.9687 8.39051 11.4578ZM22.0631 20.2171C22.0408 20.2393 21.9741 20.3282 21.8852 20.3282H2.09891C1.98775 20.3282 1.94329 20.2616 1.92106 20.2171C1.89882 20.1949 1.85436 20.1059 1.89882 19.9948L2.45462 18.6831C2.49908 18.5942 2.58801 18.5497 2.67694 18.5497H21.3516C21.4406 18.5497 21.5295 18.5942 21.574 18.6831L22.1298 20.017C22.1298 20.1059 22.0853 20.1949 22.0631 20.2171Z" fill="#0F0F10"/>
</svg>
