<svg width="24" height="24" viewBox="0 0 24 24" fill="none" xmlns="http://www.w3.org/2000/svg">
<path d="M12.625 11.275H12.625H12.625ZM12.625 11.275H12.625M12.625 11.275H12.625M12.625 11.275H12.625M12.625 11.275H12.625M12.625 11.275H12.6249M12.625 11.275H12.6249M12.6249 11.275H12.6249M12.6249 11.275H12.6249M12.6249 11.275H12.6248M12.6249 11.275H12.6248M12.6248 11.275H12.6248M12.6248 11.275H12.6248M12.6248 11.275H12.6247M12.6248 11.275H12.6247M12.6247 11.275H12.6247M12.6247 11.275H12.6247M12.6247 11.275H12.6246M12.6247 11.275H12.6246M12.6246 11.275H12.6245M12.6246 11.275H12.6245M12.6245 11.275H12.6245M12.6245 11.275H12.6245M12.6245 11.275H12.6244M12.6245 11.275H12.6244M12.6244 11.275H12.6243M12.6244 11.275H12.6243M12.6243 11.275H12.6242M12.6243 11.275H12.6242M12.6242 11.275H12.6241M12.6242 11.275H12.6241M12.6241 11.275H12.624M12.6241 11.275H12.624M12.624 11.275H12.6239M12.624 11.275H12.6239M12.6239 11.275H12.6237M12.6239 11.275H12.6237M12.6237 11.275H12.6236M12.6237 11.275H12.6236M12.6236 11.275H12.6235M12.6236 11.275H12.6235M12.6235 11.275H12.6233M12.6235 11.275H12.6233M12.6233 11.275H12.6232M12.6233 11.275H12.6232M12.6232 11.275H12.623M12.6232 11.275H12.623M12.623 11.275H12.6229M12.623 11.275H12.6229M12.6229 11.275H12.6227M12.6229 11.275H12.6227M12.6227 11.275H12.6225M12.6227 11.275H12.6225M12.6225 11.275H12.6223M12.6225 11.275H12.6223M12.6223 11.275H12.6222M12.6223 11.275H12.6222M12.6222 11.275H12.622M12.6222 11.275H12.622M12.622 11.275H12.6218M12.622 11.275H12.6218M12.6218 11.275H12.6216M12.6218 11.275H12.6216M12.6216 11.275H12.6214M12.6216 11.275H12.6214M12.6214 11.275H12.6211M12.6214 11.275H12.6211M12.6211 11.275H12.6209M12.6211 11.275H12.6209M12.6209 11.275H12.6207M12.6209 11.275H12.6207M12.6207 11.275H12.6205M12.6207 11.275H12.6205M12.6205 11.275H12.6202M12.6205 11.275H12.6202M12.6202 11.275H12.62M12.6202 11.275H12.62M12.62 11.275H12.6197M12.62 11.275H12.6197M12.6197 11.275H12.6195M12.6197 11.275H12.6195M12.6195 11.275H12.6192M12.6195 11.275H12.6192M12.6192 11.275H12.6189M12.6192 11.275H12.6189M12.6189 11.275H12.6187M12.6189 11.275H12.6187M12.6187 11.275H12.6184M12.6187 11.275H12.6184M12.6184 11.275H12.6181M12.6184 11.275H12.6181M12.6181 11.275H12.6178M12.6181 11.275H12.6178M12.6178 11.275H12.6175M12.6178 11.275H12.6175M12.6175 11.275H12.6172M12.6175 11.275H12.6172M12.6172 11.275H12.6169M12.6172 11.275H12.6169M12.6169 11.275H12.6166M12.6169 11.275H12.6166M12.6166 11.275H12.6162M12.6166 11.275H12.6162M12.6162 11.275H12.6159M12.6162 11.275H12.6159M12.6159 11.275H12.6156M12.6159 11.275H12.6156M12.6156 11.275H12.6152M12.6156 11.275H12.6152M12.6152 11.275H12.6149M12.6152 11.275H12.6149M12.6149 11.275H12.6145M12.6149 11.275H12.6145M12.6145 11.275H12.6142M12.6145 11.275H12.6142M12.6142 11.275H12.6138M12.6142 11.275H12.6138M12.6138 11.275H12.6134M12.6138 11.275H12.6134M12.6134 11.275H12.6131M12.6134 11.275H12.6131M12.6131 11.275H12.6127M12.6131 11.275H12.6127M12.6127 11.275H12.6123M12.6127 11.275H12.6123M12.6123 11.275H12.6119M12.6123 11.275H12.6119M12.6119 11.275H12.6115M12.6119 11.275H12.6115M12.6115 11.275H12.6111M12.6115 11.275H12.6111M12.6111 11.275H12.6107M12.6111 11.275H12.6107M12.6107 11.275H12.6103M12.6107 11.275H12.6103M12.6103 11.275H12.6099M12.6103 11.275H12.6099M12.6099 11.275H12.6094M12.6099 11.275H12.6094M12.6094 11.275H12.609M12.6094 11.275H12.609M12.609 11.275H12.6086M12.609 11.275H12.6086M12.6086 11.275H12.6081M12.6086 11.275H12.6081M12.6081 11.275H12.6077M12.6081 11.275H12.6077M12.6077 11.275H12.6072M12.6077 11.275H12.6072M12.6072 11.275H12.6067M12.6072 11.275H12.6067M12.6067 11.275H12.6063M12.6067 11.275H12.6063M12.6063 11.275H12.6058M12.6063 11.275H12.6058M12.6058 11.275H12.6053M12.6058 11.275H12.6053M12.6053 11.275H12.6048M12.6053 11.275H12.6048M12.6048 11.275H12.6043M12.6048 11.275H12.6043M12.6043 11.275H12.6039M12.6043 11.275H12.6039M12.6039 11.275H12.6034M12.6039 11.275H12.6034M12.6034 11.275H12.6028M12.6034 11.275H12.6028M12.6028 11.275H12.6023M12.6028 11.275H12.6023M12.6023 11.275H12.6018M12.6023 11.275H12.6018M12.6018 11.275H12.6013M12.6018 11.275H12.6013M12.6013 11.275H12.6008M12.6013 11.275H12.6008M12.6008 11.275H12.6002M12.6008 11.275H12.6002M12.6002 11.275H12.5997M12.6002 11.275H12.5997M12.5997 11.275H12.5991M12.5997 11.275H12.5991M12.5991 11.275H12.5986M12.5991 11.275H12.5986M12.5986 11.275H12.598M12.5986 11.275H12.598M12.598 11.275H12.5975M12.598 11.275H12.5975M12.5975 11.275H12.5969M12.5975 11.275H12.5969M12.5969 11.275H12.5963M12.5969 11.275H12.5963M12.5963 11.275H12.5957M12.5963 11.275H12.5957M12.5957 11.275H12.5952M12.5957 11.275H12.5952M12.5952 11.275H12.5946M12.5952 11.275H12.5946M12.5946 11.275H12.594M12.5946 11.275H12.594M12.594 11.275H12.5934M12.594 11.275H12.5934M12.5934 11.275H12.5928M12.5934 11.275H12.5928M12.5928 11.275H12.5922M12.5928 11.275H12.5922M12.5922 11.275H12.5915M12.5922 11.275H12.5915M12.5915 11.275H12.5909M12.5915 11.275H12.5909M12.5909 11.275H12.5903M12.5909 11.275H12.5903M12.5903 11.275H12.5897M12.5903 11.275H12.5897M12.5897 11.275H12.589M12.5897 11.275H12.589M12.589 11.275H12.5884M12.589 11.275H12.5884M12.5884 11.275H12.5877M12.5884 11.275H12.5877M12.5877 11.275H12.5871M12.5877 11.275H12.5871M12.5871 11.275H12.5864M12.5871 11.275H12.5864M12.5864 11.275H12.5857M12.5864 11.275H12.5857M12.5857 11.275H12.5851M12.5857 11.275H12.5851M12.5851 11.275H12.5844M12.5851 11.275H12.5844M12.5844 11.275H12.5837M12.5844 11.275H12.5837M12.5837 11.275H12.583M12.5837 11.275H12.583M12.583 11.275H12.5823M12.583 11.275H12.5823M12.5823 11.275H12.5816M12.5823 11.275H12.5816M12.5816 11.275H12.5809M12.5816 11.275H12.5809M12.5809 11.275H12.5802M12.5809 11.275H12.5802M12.5802 11.275H12.5795M12.5802 11.275H12.5795M12.5795 11.275H12.5788M12.5795 11.275H12.5788M12.5788 11.275H12.5781M12.5788 11.275H12.5781M12.5781 11.275H12.5774M12.5781 11.275H12.5774M12.5774 11.275H12.5766M12.5774 11.275H12.5766M12.5766 11.275H12.5759M12.5766 11.275H12.5759M12.5759 11.275H12.5751M12.5759 11.275H12.5751M12.5751 11.275H12.5744M12.5751 11.275H12.5744M12.5744 11.275H12.5736M12.5744 11.275H12.5736M12.5736 11.275H12.5729M12.5736 11.275H12.5729M12.5729 11.275H12.5721M12.5729 11.275H12.5721M12.5721 11.275H12.5713M12.5721 11.275H12.5713M12.5713 11.275H12.5706M12.5713 11.275H12.5706M12.5706 11.275H12.5698M12.5706 11.275H12.5698M12.5698 11.275H12.569M12.5698 11.275H12.569M12.569 11.275H12.5682M12.569 11.275H12.5682M12.5682 11.275H12.5674M12.5682 11.275H12.5674M12.5674 11.275H12.5666M12.5674 11.275H12.5666M12.5666 11.275H12.5658M12.5666 11.275H12.5658M12.5658 11.275H12.565M12.5658 11.275H12.565M12.565 11.275H12.5642M12.565 11.275H12.5642M12.5642 11.275H12.5634M12.5642 11.275H12.5634M12.5634 11.275H12.5625M12.5634 11.275H12.5625M12.5625 11.275H12.5617M12.5625 11.275H12.5617M12.5617 11.275H12.5609M12.5617 11.275H12.5609M12.5609 11.275H12.56M12.5609 11.275H12.56M12.56 11.275H12.5592M12.56 11.275H12.5592M12.5592 11.275H12.5583M12.5592 11.275H12.5583M12.5583 11.275H12.5575M12.5583 11.275H12.5575M12.5575 11.275H12.5566M12.5575 11.275H12.5566M12.5566 11.275H12.5558M12.5566 11.275H12.5558M12.5558 11.275H12.5549M12.5558 11.275H12.5549M12.5549 11.275H12.554M12.5549 11.275H12.554M12.554 11.275H12.5531M12.554 11.275H12.5531M12.5531 11.275H12.5522M12.5531 11.275H12.5522M12.5522 11.275H12.5514M12.5522 11.275H12.5514M12.5514 11.275H12.5505M12.5514 11.275H12.5505M12.5505 11.275H12.5496M12.5505 11.275H12.5496M12.5496 11.275H12.5487M12.5496 11.275H12.5487M12.5487 11.275H12.5477M12.5487 11.275H12.5477M12.5477 11.275H12.5468M12.5477 11.275H12.5468M12.5468 11.275H12.5459M12.5468 11.275H12.5459M12.5459 11.275H12.545M12.5459 11.275H12.545M12.545 11.275H12.5441M12.545 11.275H12.5441M12.5441 11.275H12.5431M12.5441 11.275H12.5431M12.5431 11.275H12.5422M12.5431 11.275H12.5422M12.5422 11.275H12.5412M12.5422 11.275H12.5412M12.5412 11.275H12.5403M12.5412 11.275H12.5403M12.5403 11.275H12.5393M12.5403 11.275H12.5393M12.5393 11.275H12.5384M12.5393 11.275H12.5384M12.5384 11.275H12.5374M12.5384 11.275H12.5374M12.5374 11.275H12.5365M12.5374 11.275H12.5365M12.5365 11.275H12.5355M12.5365 11.275H12.5355M12.5355 11.275H12.5345M12.5355 11.275H12.5345M12.5345 11.275H12.5335M12.5345 11.275H12.5335M12.5335 11.275H12.5325M12.5335 11.275H12.5325M12.5325 11.275H12.5316M12.5325 11.275H12.5316M12.5316 11.275H12.5306M12.5316 11.275H12.5306M12.5306 11.275H12.5296M12.5306 11.275H12.5296M12.5296 11.275H12.5286M12.5296 11.275H12.5286M12.5286 11.275H12.5275M12.5286 11.275H12.5275M12.5275 11.275H12.5265M12.5275 11.275H12.5265M12.5265 11.275H12.5255M12.5265 11.275H12.5255M12.5255 11.275H12.5245M12.5255 11.275H12.5245M12.5245 11.275H12.5235M12.5245 11.275H12.5235M12.5235 11.275H12.5224M12.5235 11.275H12.5224M12.5224 11.275H12.5214M12.5224 11.275H12.5214M12.5214 11.275H12.5204M12.5214 11.275H12.5204M12.5204 11.275H12.5193M12.5204 11.275H12.5193M12.5193 11.275H12.5183M12.5193 11.275H12.5183M12.5183 11.275H12.5172M12.5183 11.275H12.5172M12.5172 11.275H12.5161M12.5172 11.275H12.5161M12.5161 11.275H12.5151M12.5161 11.275H12.5151M12.5151 11.275H12.514M12.5151 11.275H12.514M12.514 11.275H12.5129M12.514 11.275H12.5129M12.5129 11.275H12.5119M12.5129 11.275H12.5119M12.5119 11.275H12.5108M12.5119 11.275H12.5108M12.5108 11.275H12.5097M12.5108 11.275H12.5097M12.5097 11.275H12.5086M12.5097 11.275H12.5086M12.5086 11.275H12.5075M12.5086 11.275H12.5075M12.5075 11.275H12.5064M12.5075 11.275H12.5064M12.5064 11.275H12.5053M12.5064 11.275H12.5053M12.5053 11.275H12.5042M12.5053 11.275H12.5042M12.5042 11.275H12.5031M12.5042 11.275H12.5031M12.5031 11.275H12.502M12.5031 11.275H12.502M12.502 11.275H12.5008M12.502 11.275H12.5008M12.5008 11.275H12.4997M12.5008 11.275H12.4997M12.4997 11.275H12.4986M12.4997 11.275H12.4986M12.4986 11.275H12.4974M12.4986 11.275H12.4974M12.4974 11.275H12.4963M12.4974 11.275H12.4963M12.4963 11.275H12.4952M12.4963 11.275H12.4952M12.4952 11.275H12.494M12.4952 11.275H12.494M12.494 11.275H12.4928M12.494 11.275H12.4928M12.4928 11.275H12.4917M12.4928 11.275H12.4917M12.4917 11.275H12.4905M12.4917 11.275H12.4905M12.4905 11.275H12.4894M12.4905 11.275H12.4894M12.4894 11.275H12.4882M12.4894 11.275H12.4882M12.4882 11.275H12.487M12.4882 11.275H12.487M12.487 11.275H12.4858M12.487 11.275H12.4858M12.4858 11.275H12.4847M12.4858 11.275H12.4847M12.4847 11.275H12.4835M12.4847 11.275H12.4835M12.4835 11.275H12.4823M12.4835 11.275H12.4823M12.4823 11.275H12.4811M12.4823 11.275H12.4811M12.4811 11.275H12.4799M12.4811 11.275H12.4799M12.4799 11.275H12.4787M12.4799 11.275H12.4787M12.4787 11.275H12.4775M12.4787 11.275H12.4775M12.4775 11.275H12.4763M12.4775 11.275H12.4763M12.4763 11.275H12.475M12.4763 11.275H12.475M12.475 11.275H12.4738M12.475 11.275H12.4738M12.4738 11.275H12.4726M12.4738 11.275H12.4726M12.4726 11.275H12.4714M12.4726 11.275H12.4714M12.4714 11.275H12.4701M12.4714 11.275H12.4701M12.4701 11.275H12.4689M12.4701 11.275H12.4689M12.4689 11.275H12.4676M12.4689 11.275H12.4676M12.4676 11.275H12.4664M12.4676 11.275H12.4664M12.4664 11.275H12.4651M12.4664 11.275H12.4651M12.4651 11.275H12.4639M12.4651 11.275H12.4639M12.4639 11.275H12.4626M12.4639 11.275H12.4626M12.4626 11.275H12.4614M12.4626 11.275H12.4614M12.4614 11.275H12.4601M12.4614 11.275H12.4601M12.4601 11.275H12.4588M12.4601 11.275H12.4588M12.4588 11.275H12.4576M12.4588 11.275H12.4576M12.4576 11.275H12.4563M12.4576 11.275H12.4563M12.4563 11.275H12.455M12.4563 11.275H12.455M12.455 11.275H12.4537M12.455 11.275H12.4537M12.4537 11.275H12.4524M12.4537 11.275H12.4524M12.4524 11.275H12.4511M12.4524 11.275H12.4511M12.4511 11.275H12.4498M12.4511 11.275H12.4498M12.4498 11.275H12.4485M12.4498 11.275H12.4485M12.4485 11.275H12.4472M12.4485 11.275H12.4472M12.4472 11.275H12.4459M12.4472 11.275H12.4459M12.4459 11.275H12.4446M12.4459 11.275H12.4446M12.4446 11.275H12.4433M12.4446 11.275H12.4433M12.4433 11.275H12.4419M12.4433 11.275H12.4419M12.4419 11.275H12.4406M12.4419 11.275H12.4406M12.4406 11.275H12.4393M12.4406 11.275H12.4393M12.4393 11.275H12.4379M12.4393 11.275H12.4379M12.4379 11.275H12.4366M12.4379 11.275H12.4366M12.4366 11.275H12.4353M12.4366 11.275H12.4353M12.4353 11.275H12.4339M12.4353 11.275H12.4339M12.4339 11.275H12.4326M12.4339 11.275H12.4326M12.4326 11.275H12.4312M12.4326 11.275H12.4312M12.4312 11.275H12.4298M12.4312 11.275H12.4298M12.4298 11.275H12.4285M12.4298 11.275H12.4285M12.4285 11.275H12.4271M12.4285 11.275H12.4271M12.4271 11.275H12.4257M12.4271 11.275H12.4257M12.4257 11.275H12.4244M12.4257 11.275H12.4244M12.4244 11.275H12.423M12.4244 11.275H12.423M12.423 11.275H12.4216M12.423 11.275H12.4216M12.4216 11.275H12.4202M12.4216 11.275H12.4202M12.4202 11.275H12.4188M12.4202 11.275H12.4188M12.4188 11.275H12.4174M12.4188 11.275H12.4174M12.4174 11.275H12.416M12.4174 11.275H12.416M12.416 11.275H12.4146M12.416 11.275H12.4146M12.4146 11.275H12.4132M12.4146 11.275H12.4132M12.4132 11.275H12.4118M12.4132 11.275H12.4118M12.4118 11.275H12.4104M12.4118 11.275H12.4104M12.4104 11.275H12.409M12.4104 11.275H12.409M12.409 11.275H12.4076M12.409 11.275H12.4076M12.4076 11.275H12.4062M12.4076 11.275H12.4062M12.4062 11.275H12.4047M12.4062 11.275H12.4047M12.4047 11.275H12.4033M12.4047 11.275H12.4033M12.4033 11.275H12.4019M12.4033 11.275H12.4019M12.4019 11.275H12.4004M12.4019 11.275H12.4004M12.4004 11.275H12.399M12.4004 11.275H12.399M12.399 11.275H12.3976M12.399 11.275H12.3976M12.3976 11.275H12.3961M12.3976 11.275H12.3961M12.3961 11.275H12.3946M12.3961 11.275H12.3946M12.3946 11.275H12.3932M12.3946 11.275H12.3932M12.3932 11.275H12.3917M12.3932 11.275H12.3917M12.3917 11.275H12.3903M12.3917 11.275H12.3903M12.3903 11.275H12.3888M12.3903 11.275H12.3888M12.3888 11.275H12.3873M12.3888 11.275H12.3873M12.3873 11.275H12.3859M12.3873 11.275H12.3859M12.3859 11.275H12.3844M12.3859 11.275H12.3844M12.3844 11.275H12.3829M12.3844 11.275H12.3829M12.3829 11.275H12.3814M12.3829 11.275H12.3814M12.3814 11.275H12.3799M12.3814 11.275H12.3799M12.3799 11.275H12.3784M12.3799 11.275H12.3784M12.3784 11.275H12.3769M12.3784 11.275H12.3769M12.3769 11.275H12.3754M12.3769 11.275H12.3754M12.3754 11.275H12.3739M12.3754 11.275H12.3739M12.3739 11.275H12.3724M12.3739 11.275H12.3724M12.3724 11.275H12.3709M12.3724 11.275H12.3709M12.3709 11.275H12.3694M12.3709 11.275H12.3694M12.3694 11.275H12.3679M12.3694 11.275H12.3679M12.3679 11.275H12.3664M12.3679 11.275H12.3664M12.3664 11.275H12.3649M12.3664 11.275H12.3649M12.3649 11.275H12.3633M12.3649 11.275H12.3633M12.3633 11.275H12.3618M12.3633 11.275H12.3618M12.3618 11.275H12.3603M12.3618 11.275H12.3603M12.3603 11.275H12.3587M12.3603 11.275H12.3587M12.3587 11.275H12.3572M12.3587 11.275H12.3572M12.3572 11.275H12.3556M12.3572 11.275H12.3556M12.3556 11.275H12.3541M12.3556 11.275H12.3541M12.3541 11.275H12.3525M12.3541 11.275H12.3525M12.3525 11.275H12.351M12.3525 11.275H12.351M12.351 11.275H12.3494M12.351 11.275H12.3494M12.3494 11.275H12.3479M12.3494 11.275H12.3479M12.3479 11.275H12.3463M12.3479 11.275H12.3463M12.3463 11.275H12.3447M12.3463 11.275H12.3447M12.3447 11.275H12.3432M12.3447 11.275H12.3432M12.3432 11.275H12.3416M12.3432 11.275H12.3416M12.3416 11.275H12.34M12.3416 11.275H12.34M12.34 11.275H12.3384M12.34 11.275H12.3384M12.3384 11.275H12.3369M12.3384 11.275H12.3369M12.3369 11.275H12.3353M12.3369 11.275H12.3353M12.3353 11.275H12.3337M12.3353 11.275H12.3337M12.3337 11.275H12.3321M12.3337 11.275H12.3321M12.3321 11.275H12.3305M12.3321 11.275H12.3305M12.3305 11.275H12.3289M12.3305 11.275H12.3289M12.3289 11.275H12.3273M12.3289 11.275H12.3273M12.3273 11.275H12.3257M12.3273 11.275H12.3257M12.3257 11.275H12.3241M12.3257 11.275H12.3241M12.3241 11.275H12.3225M12.3241 11.275H12.3225M12.3225 11.275H12.3208M12.3225 11.275H12.3208M12.3208 11.275H12.3192M12.3208 11.275H12.3192M12.3192 11.275H12.3176M12.3192 11.275H12.3176M12.3176 11.275H12.316M12.3176 11.275H12.316M12.316 11.275H12.3144M12.316 11.275H12.3144M12.3144 11.275H12.3127M12.3144 11.275H12.3127M12.3127 11.275H12.3111M12.3127 11.275H12.3111M12.3111 11.275H12.3095M12.3111 11.275H12.3095M12.3095 11.275H12.3078M12.3095 11.275H12.3078M12.3078 11.275H12.3062M12.3078 11.275H12.3062M12.3062 11.275H12.3045M12.3062 11.275H12.3045M12.3045 11.275H12.3029M12.3045 11.275H12.3029M12.3029 11.275H12.3012M12.3029 11.275H12.3012M12.3012 11.275H12.2996M12.3012 11.275H12.2996M12.2996 11.275H12.2979M12.2996 11.275H12.2979M12.2979 11.275H12.2962M12.2979 11.275H12.2962M12.2962 11.275H12.2946M12.2962 11.275H12.2946M12.2946 11.275H12.2929M12.2946 11.275H12.2929M12.2929 11.275H12.2912M12.2929 11.275H12.2912M12.2912 11.275H12.2896M12.2912 11.275H12.2896M12.2896 11.275H12.2879M12.2896 11.275H12.2879M12.2879 11.275H12.2862M12.2879 11.275H12.2862M12.2862 11.275H12.2845M12.2862 11.275H12.2845M12.2845 11.275H12.2828M12.2845 11.275H12.2828M12.2828 11.275H12.2811M12.2828 11.275H12.2811M12.2811 11.275H12.2795M12.2811 11.275H12.2795M12.2795 11.275H12.2778M12.2795 11.275H12.2778M12.2778 11.275H12.2761M12.2778 11.275H12.2761M12.2761 11.275H12.2744M12.2761 11.275H12.2744M12.2744 11.275H12.2727M12.2744 11.275H12.2727M12.2727 11.275H12.271M12.2727 11.275H12.271M12.271 11.275H12.2692M12.271 11.275H12.2692M12.2692 11.275H12.2675M12.2692 11.275H12.2675M12.2675 11.275H12.2658M12.2675 11.275H12.2658M12.2658 11.275H12.2641M12.2658 11.275H12.2641M12.2641 11.275H12.2624M12.2641 11.275H12.2624M12.2624 11.275H12.2607M12.2624 11.275H12.2607M12.2607 11.275H12.2589M12.2607 11.275H12.2589M12.2589 11.275H12.2572M12.2589 11.275H12.2572M12.2572 11.275H12.2555M12.2572 11.275H12.2555M12.2555 11.275H12.2537M12.2555 11.275H12.2537M12.2537 11.275H12.252M12.2537 11.275H12.252M12.252 11.275H12.2503M12.252 11.275H12.2503M12.2503 11.275H12.2485M12.2503 11.275H12.2485M12.2485 11.275H12.2468M12.2485 11.275H12.2468M12.2468 11.275H12.245M12.2468 11.275H12.245M12.245 11.275H12.2433M12.245 11.275H12.2433M12.2433 11.275H12.2415M12.2433 11.275H12.2415M12.2415 11.275H12.2398M12.2415 11.275H12.2398M12.2398 11.275H12.238M12.2398 11.275H12.238M12.238 11.275H12.2362M12.238 11.275H12.2362M12.2362 11.275H12.2345M12.2362 11.275H12.2345M12.2345 11.275H12.2327M12.2345 11.275H12.2327M12.2327 11.275H12.2309M12.2327 11.275H12.2309M12.2309 11.275H12.2292M12.2309 11.275H12.2292M12.2292 11.275H12.2274M12.2292 11.275H12.2274M12.2274 11.275H12.2256M12.2274 11.275H12.2256M12.2256 11.275H12.2238M12.2256 11.275H12.2238M12.2238 11.275H12.222M12.2238 11.275H12.222M12.222 11.275H12.2203M12.222 11.275H12.2203M12.2203 11.275H12.2185M12.2203 11.275H12.2185M12.2185 11.275H12.2167M12.2185 11.275H12.2167M12.2167 11.275H12.2149M12.2167 11.275H12.2149M12.2149 11.275H12.2131M12.2149 11.275H12.2131M12.2131 11.275H12.2113M12.2131 11.275H12.2113M12.2113 11.275H12.2095M12.2113 11.275H12.2095M12.2095 11.275H12.2077M12.2095 11.275H12.2077M12.2077 11.275H12.2059M12.2077 11.275H12.2059M12.2059 11.275H12.2041M12.2059 11.275H12.2041M12.2041 11.275H12.2023M12.2041 11.275H12.2023M12.2023 11.275H12.2004M12.2023 11.275H12.2004M12.2004 11.275H12.1986M12.2004 11.275H12.1986M12.1986 11.275H12.1968M12.1986 11.275H12.1968M12.1968 11.275H12.195M12.1968 11.275H12.195M12.195 11.275H12.1932M12.195 11.275H12.1932M12.1932 11.275H12.1913M12.1932 11.275H12.1913M12.1913 11.275H12.1895M12.1913 11.275H12.1895M12.1895 11.275H12.1877M12.1895 11.275H12.1877M12.1877 11.275H12.1858M12.1877 11.275H12.1858M12.1858 11.275H12.184M12.1858 11.275H12.184M12.184 11.275H12.1822M12.184 11.275H12.1822M12.1822 11.275H12.1803M12.1822 11.275H12.1803M12.1803 11.275H12.1785M12.1803 11.275H12.1785M12.1785 11.275H12.1766M12.1785 11.275H12.1766M12.1766 11.275H12.1748M12.1766 11.275H12.1748M12.1748 11.275H12.1729M12.1748 11.275H12.1729M12.1729 11.275H12.1711M12.1729 11.275H12.1711M12.1711 11.275H12.1692M12.1711 11.275H12.1692M12.1692 11.275H12.1674M12.1692 11.275H12.1674M12.1674 11.275H12.1655M12.1674 11.275H12.1655M12.1655 11.275H12.1637M12.1655 11.275H12.1637M12.1637 11.275H12.1618M12.1637 11.275H12.1618M12.1618 11.275H12.1599M12.1618 11.275H12.1599M12.1599 11.275H12.1581M12.1599 11.275H12.1581M12.1581 11.275H12.1562M12.1581 11.275H12.1562M12.1562 11.275H12.1543M12.1562 11.275H12.1543M12.1543 11.275H12.1524M12.1543 11.275H12.1524M12.1524 11.275H12.1506M12.1524 11.275H12.1506M12.1506 11.275H12.1487M12.1506 11.275H12.1487M12.1487 11.275H12.1468M12.1487 11.275H12.1468M12.1468 11.275H12.1449M12.1468 11.275H12.1449M12.1449 11.275H12.143M12.1449 11.275H12.143M12.143 11.275H12.1411M12.143 11.275H12.1411M12.1411 11.275H12.1393M12.1411 11.275H12.1393M12.1393 11.275H12.1374M12.1393 11.275H12.1374M12.1374 11.275H12.1355M12.1374 11.275H12.1355M12.1355 11.275H12.1336M12.1355 11.275H12.1336M12.1336 11.275H12.1317M12.1336 11.275H12.1317M12.1317 11.275H12.1298M12.1317 11.275H12.1298M12.1298 11.275H12.1279M12.1298 11.275H12.1279M12.1279 11.275H12.126M12.1279 11.275H12.126M12.126 11.275H12.124M12.126 11.275H12.124M12.124 11.275H12.1221M12.124 11.275H12.1221M12.1221 11.275H12.1202M12.1221 11.275H12.1202M12.1202 11.275H12.1183M12.1202 11.275H12.1183M12.1183 11.275H12.1164M12.1183 11.275H12.1164M12.1164 11.275H12.1145H12.1164ZM12 1.9C6.43077 1.9 1.9 6.43077 1.9 12C1.9 17.5692 6.43077 22.1 12 22.1C17.5692 22.1 22.1 17.5693 22.1 12C22.1 6.43073 17.5692 1.9 12 1.9ZM12 20.65C7.23048 20.65 3.35 16.7695 3.35 12C3.35 7.23048 7.23048 3.35 12 3.35C16.7695 3.35 20.65 7.23044 20.65 12C20.65 16.7695 16.7695 20.65 12 20.65ZM17.6469 12H17.5469L12 11.275H11.998H11.996H11.9939H11.9919H11.9899H11.9879H11.9859H11.9839H11.9819H11.9799H11.9778H11.9758H11.9738H11.9718H11.9698H11.9678H11.9658H11.9638H11.9619H11.9599H11.9579H11.9559H11.9539H11.9519H11.9499H11.948H11.946H11.944H11.942H11.94H11.9381H11.9361H11.9341H11.9322H11.9302H11.9282H11.9263H11.9243H11.9224H11.9204H11.9184H11.9165H11.9145H11.9126H11.9107H11.9087H11.9068H11.9048H11.9029H11.9009H11.899H11.8971H11.8952H11.8932H11.8913H11.8894H11.8874H11.8855H11.8836H11.8817H11.8798H11.8779H11.876H11.874H11.8721H11.8702H11.8683H11.8664H11.8645H11.8626H11.8607H11.8589H11.857H11.8551H11.8532H11.8513H11.8494H11.8476H11.8457H11.8438H11.8419H11.8401H11.8382H11.8363H11.8345H11.8326H11.8308H11.8289H11.8271H11.8252H11.8234H11.8215H11.8197H11.8178H11.816H11.8142H11.8123H11.8105H11.8087H11.8068H11.805H11.8032H11.8014H11.7996H11.7977H11.7959H11.7941H11.7923H11.7905H11.7887H11.7869H11.7851H11.7833H11.7815H11.7797H11.778H11.7762H11.7744H11.7726H11.7708H11.7691H11.7673H11.7655H11.7638H11.762H11.7602H11.7585H11.7567H11.755H11.7532H11.7515H11.7497H11.748H11.7463H11.7445H11.7428H11.7411H11.7393H11.7376H11.7359H11.7342H11.7325H11.7308H11.729H11.7273H11.7256H11.7239H11.7222H11.7205H11.7189H11.7172H11.7155H11.7138H11.7121H11.7104H11.7088H11.7071H11.7054H11.7038H11.7021H11.7004H11.6988H11.6971H11.6955H11.6938H11.6922H11.6905H11.6889H11.6873H11.6856H11.684H11.6824H11.6808H11.6792H11.6775H11.6759H11.6743H11.6727H11.6711H11.6695H11.6679H11.6663H11.6647H11.6631H11.6616H11.66H11.6584H11.6568H11.6553H11.6537H11.6521H11.6506H11.649H11.6475H11.6459H11.6444H11.6428H11.6413H11.6397H11.6382H11.6367H11.6351H11.6336H11.6321H11.6306H11.6291H11.6276H11.6261H11.6246H11.6231H11.6216H11.6201H11.6186H11.6171H11.6156H11.6141H11.6127H11.6112H11.6097H11.6083H11.6068H11.6054H11.6039H11.6024H11.601H11.5996H11.5981H11.5967H11.5953H11.5938H11.5924H11.591H11.5896H11.5882H11.5868H11.5854H11.584H11.5826H11.5812H11.5798H11.5784H11.577H11.5756H11.5743H11.5729H11.5715H11.5702H11.5688H11.5674H11.5661H11.5647H11.5634H11.5621H11.5607H11.5594H11.5581H11.5567H11.5554H11.5541H11.5528H11.5515H11.5502H11.5489H11.5476H11.5463H11.545H11.5437H11.5424H11.5412H11.5399H11.5386H11.5374H11.5361H11.5349H11.5336H11.5324H11.5311H11.5299H11.5286H11.5274H11.5262H11.525H11.5237H11.5225H11.5213H11.5201H11.5189H11.5177H11.5165H11.5153H11.5142H11.513H11.5118H11.5106H11.5095H11.5083H11.5072H11.506H11.5048H11.5037H11.5026H11.5014H11.5003H11.4992H11.498H11.4969H11.4958H11.4947H11.4936H11.4925H11.4914H11.4903H11.4892H11.4881H11.4871H11.486H11.4849H11.4839H11.4828H11.4817H11.4807H11.4796H11.4786H11.4776H11.4765H11.4755H11.4745H11.4735H11.4725H11.4714H11.4704H11.4694H11.4684H11.4675H11.4665H11.4655H11.4645H11.4635H11.4626H11.4616H11.4607H11.4597H11.4588H11.4578H11.4569H11.4559H11.455H11.4541H11.4532H11.4522H11.4513H11.4504H11.4495H11.4486H11.4478H11.4469H11.446H11.4451H11.4442H11.4434H11.4425H11.4417H11.4408H11.44H11.4391H11.4383H11.4375H11.4366H11.4358H11.435H11.4342H11.4334H11.4326H11.4318H11.431H11.4302H11.4294H11.4287H11.4279H11.4271H11.4264H11.4256H11.4249H11.4241H11.4234H11.4226H11.4219H11.4212H11.4205H11.4198H11.4191H11.4184H11.4177H11.417H11.4163H11.4156H11.4149H11.4142H11.4136H11.4129H11.4123H11.4116H11.411H11.4103H11.4097H11.4091H11.4085H11.4078H11.4072H11.4066H11.406H11.4054H11.4048H11.4043H11.4037H11.4031H11.4025H11.402H11.4014H11.4009H11.4003H11.3998H11.3992H11.3987H11.3982H11.3977H11.3972H11.3966H11.3961H11.3956H11.3952H11.3947H11.3942H11.3937H11.3933H11.3928H11.3923H11.3919H11.3914H11.391H11.3906H11.3901H11.3897H11.3893H11.3889H11.3885H11.3881H11.3877H11.3873H11.3869H11.3866H11.3862H11.3858H11.3855H11.3851H11.3848H11.3844H11.3841H11.3838H11.3834H11.3831H11.3828H11.3825H11.3822H11.3819H11.3816H11.3813H11.3811H11.3808H11.3805H11.3803H11.38H11.3798H11.3795H11.3793H11.3791H11.3789H11.3786H11.3784H11.3782H11.378H11.3778H11.3777H11.3775H11.3773H11.3771H11.377H11.3768H11.3767H11.3765H11.3764H11.3763H11.3761H11.376H11.3759H11.3758H11.3757H11.3756H11.3755H11.3755H11.3754H11.3753H11.3753H11.3752H11.3752H11.3751H11.3751H11.375H11.375H11.375H11.375H7.07811C6.67772 11.275 6.3531 11.5996 6.3531 12C6.3531 12.4004 6.67772 12.725 7.07811 12.725H11.375H11.375H11.375H11.375H11.3751H11.3751H11.3752H11.3752H11.3753H11.3753H11.3754H11.3755H11.3755H11.3756H11.3757H11.3758H11.3759H11.376H11.3761H11.3763H11.3764H11.3765H11.3767H11.3768H11.377H11.3771H11.3773H11.3775H11.3777H11.3778H11.378H11.3782H11.3784H11.3786H11.3789H11.3791H11.3793H11.3795H11.3798H11.38H11.3803H11.3805H11.3808H11.3811H11.3813H11.3816H11.3819H11.3822H11.3825H11.3828H11.3831H11.3834H11.3838H11.3841H11.3844H11.3848H11.3851H11.3855H11.3858H11.3862H11.3866H11.3869H11.3873H11.3877H11.3881H11.3885H11.3889H11.3893H11.3897H11.3901H11.3906H11.391H11.3914H11.3919H11.3923H11.3928H11.3933H11.3937H11.3942H11.3947H11.3952H11.3956H11.3961H11.3966H11.3972H11.3977H11.3982H11.3987H11.3992H11.3998H11.4003H11.4009H11.4014H11.402H11.4025H11.4031H11.4037H11.4043H11.4048H11.4054H11.406H11.4066H11.4072H11.4078H11.4085H11.4091H11.4097H11.4103H11.411H11.4116H11.4123H11.4129H11.4136H11.4142H11.4149H11.4156H11.4163H11.417H11.4177H11.4184H11.4191H11.4198H11.4205H11.4212H11.4219H11.4226H11.4234H11.4241H11.4249H11.4256H11.4264H11.4271H11.4279H11.4287H11.4294H11.4302H11.431H11.4318H11.4326H11.4334H11.4342H11.435H11.4358H11.4366H11.4375H11.4383H11.4391H11.44H11.4408H11.4417H11.4425H11.4434H11.4442H11.4451H11.446H11.4469H11.4478H11.4486H11.4495H11.4504H11.4513H11.4522H11.4532H11.4541H11.455H11.4559H11.4569H11.4578H11.4588H11.4597H11.4607H11.4616H11.4626H11.4635H11.4645H11.4655H11.4665H11.4675H11.4684H11.4694H11.4704H11.4714H11.4725H11.4735H11.4745H11.4755H11.4765H11.4776H11.4786H11.4796H11.4807H11.4817H11.4828H11.4839H11.4849H11.486H11.4871H11.4881H11.4892H11.4903H11.4914H11.4925H11.4936H11.4947H11.4958H11.4969H11.498H11.4992H11.5003H11.5014H11.5026H11.5037H11.5048H11.506H11.5072H11.5083H11.5095H11.5106H11.5118H11.513H11.5142H11.5153H11.5165H11.5177H11.5189H11.5201H11.5213H11.5225H11.5237H11.525H11.5262H11.5274H11.5286H11.5299H11.5311H11.5324H11.5336H11.5349H11.5361H11.5374H11.5386H11.5399H11.5412H11.5424H11.5437H11.545H11.5463H11.5476H11.5489H11.5502H11.5515H11.5528H11.5541H11.5554H11.5567H11.5581H11.5594H11.5607H11.5621H11.5634H11.5647H11.5661H11.5674H11.5688H11.5702H11.5715H11.5729H11.5743H11.5756H11.577H11.5784H11.5798H11.5812H11.5826H11.584H11.5854H11.5868H11.5882H11.5896H11.591H11.5924H11.5938H11.5953H11.5967H11.5981H11.5996H11.601H11.6024H11.6039H11.6054H11.6068H11.6083H11.6097H11.6112H11.6127H11.6141H11.6156H11.6171H11.6186H11.6201H11.6216H11.6231H11.6246H11.6261H11.6276H11.6291H11.6306H11.6321H11.6336H11.6351H11.6367H11.6382H11.6397H11.6413H11.6428H11.6444H11.6459H11.6475H11.649H11.6506H11.6521H11.6537H11.6553H11.6568H11.6584H11.66H11.6616H11.6631H11.6647H11.6663H11.6679H11.6695H11.6711H11.6727H11.6743H11.6759H11.6775H11.6792H11.6808H11.6824H11.684H11.6856H11.6873H11.6889H11.6905H11.6922H11.6938H11.6955H11.6971H11.6988H11.7004H11.7021H11.7038H11.7054H11.7071H11.7088H11.7104H11.7121H11.7138H11.7155H11.7172H11.7189H11.7205H11.7222H11.7239H11.7256H11.7273H11.729H11.7308H11.7325H11.7342H11.7359H11.7376H11.7393H11.7411H11.7428H11.7445H11.7463H11.748H11.7497H11.7515H11.7532H11.755H11.7567H11.7585H11.7602H11.762H11.7638H11.7655H11.7673H11.7691H11.7708H11.7726H11.7744H11.7762H11.778H11.7797H11.7815H11.7833H11.7851H11.7869H11.7887H11.7905H11.7923H11.7941H11.7959H11.7977H11.7996H11.8014H11.8032H11.805H11.8068H11.8087H11.8105H11.8123H11.8142H11.816H11.8178H11.8197H11.8215H11.8234H11.8252H11.8271H11.8289H11.8308H11.8326H11.8345H11.8363H11.8382H11.8401H11.8419H11.8438H11.8457H11.8476H11.8494H11.8513H11.8532H11.8551H11.857H11.8589H11.8607H11.8626H11.8645H11.8664H11.8683H11.8702H11.8721H11.874H11.876H11.8779H11.8798H11.8817H11.8836H11.8855H11.8874H11.8894H11.8913H11.8932H11.8952H11.8971H11.899H11.9009H11.9029H11.9048H11.9068H11.9087H11.9107H11.9126H11.9145H11.9165H11.9184H11.9204H11.9224H11.9243H11.9263H11.9282H11.9302H11.9322H11.9341H11.9361H11.9381H11.94H11.942H11.944H11.946H11.948H11.9499H11.9519H11.9539H11.9559H11.9579H11.9599H11.9619H11.9638H11.9658H11.9678H11.9698H11.9718H11.9738H11.9758H11.9778H11.9799H11.9819H11.9839H11.9859H11.9879H11.9899H11.9919H11.9939H11.996H11.998H12H12.002H12.004H12.0061H12.0081H12.0101H12.0121H12.0141H12.0161H12.0181H12.0201H12.0222H12.0242H12.0262H12.0282H12.0302H12.0322H12.0342H12.0362H12.0381H12.0401H12.0421H12.0441H12.0461H12.0481H12.0501H12.052H12.054H12.056H12.058H12.06H12.0619H12.0639H12.0659H12.0678H12.0698H12.0718H12.0737H12.0757H12.0776H12.0796H12.0816H12.0835H12.0855H12.0874H12.0893H12.0913H12.0932H12.0952H12.0971H12.0991H12.101H12.1029H12.1048H12.1068H12.1087H12.1106H12.1126H12.1145H12.1164H12.1183H12.1202H12.1221H12.124H12.126H12.1279H12.1298H12.1317H12.1336H12.1355H12.1374H12.1393H12.1411H12.143H12.1449H12.1468H12.1487H12.1506H12.1524H12.1543H12.1562H12.1581H12.1599H12.1618H12.1637H12.1655H12.1674H12.1692H12.1711H12.1729H12.1748H12.1766H12.1785H12.1803H12.1822H12.184H12.1858H12.1877H12.1895H12.1913H12.1932H12.195H12.1968H12.1986H12.2004H12.2023H12.2041H12.2059H12.2077H12.2095H12.2113H12.2131H12.2149H12.2167H12.2185H12.2203H12.222H12.2238H12.2256H12.2274H12.2292H12.2309H12.2327H12.2345H12.2362H12.238H12.2398H12.2415H12.2433H12.245H12.2468H12.2485H12.2503H12.252H12.2537H12.2555H12.2572H12.2589H12.2607H12.2624H12.2641H12.2658H12.2675H12.2692H12.271H12.2727H12.2744H12.2761H12.2778H12.2795H12.2811H12.2828H12.2845H12.2862H12.2879H12.2896H12.2912H12.2929H12.2946H12.2962H12.2979H12.2996H12.3012H12.3029H12.3045H12.3062H12.3078H12.3095H12.3111H12.3127H12.3144H12.316H12.3176H12.3192H12.3208H12.3225H12.3241H12.3257H12.3273H12.3289H12.3305H12.3321H12.3337H12.3353H12.3369H12.3384H12.34H12.3416H12.3432H12.3447H12.3463H12.3479H12.3494H12.351H12.3525H12.3541H12.3556H12.3572H12.3587H12.3603H12.3618H12.3633H12.3649H12.3664H12.3679H12.3694H12.3709H12.3724H12.3739H12.3754H12.3769H12.3784H12.3799H12.3814H12.3829H12.3844H12.3859H12.3873H12.3888H12.3903H12.3917H12.3932H12.3946H12.3961H12.3976H12.399H12.4004H12.4019H12.4033H12.4047H12.4062H12.4076H12.409H12.4104H12.4118H12.4132H12.4146H12.416H12.4174H12.4188H12.4202H12.4216H12.423H12.4244H12.4257H12.4271H12.4285H12.4298H12.4312H12.4326H12.4339H12.4353H12.4366H12.4379H12.4393H12.4406H12.4419H12.4433H12.4446H12.4459H12.4472H12.4485H12.4498H12.4511H12.4524H12.4537H12.455H12.4563H12.4576H12.4588H12.4601H12.4614H12.4626H12.4639H12.4651H12.4664H12.4676H12.4689H12.4701H12.4714H12.4726H12.4738H12.475H12.4763H12.4775H12.4787H12.4799H12.4811H12.4823H12.4835H12.4847H12.4858H12.487H12.4882H12.4894H12.4905H12.4917H12.4928H12.494H12.4952H12.4963H12.4974H12.4986H12.4997H12.5008H12.502H12.5031H12.5042H12.5053H12.5064H12.5075H12.5086H12.5097H12.5108H12.5119H12.5129H12.514H12.5151H12.5161H12.5172H12.5183H12.5193H12.5204H12.5214H12.5224H12.5235H12.5245H12.5255H12.5265H12.5275H12.5286H12.5296H12.5306H12.5316H12.5325H12.5335H12.5345H12.5355H12.5365H12.5374H12.5384H12.5393H12.5403H12.5412H12.5422H12.5431H12.5441H12.545H12.5459H12.5468H12.5477H12.5487H12.5496H12.5505H12.5514H12.5522H12.5531H12.554H12.5549H12.5558H12.5566H12.5575H12.5583H12.5592H12.56H12.5609H12.5617H12.5625H12.5634H12.5642H12.565H12.5658H12.5666H12.5674H12.5682H12.569H12.5698H12.5706H12.5713H12.5721H12.5729H12.5736H12.5744H12.5751H12.5759H12.5766H12.5774H12.5781H12.5788H12.5795H12.5802H12.5809H12.5816H12.5823H12.583H12.5837H12.5844H12.5851H12.5857H12.5864H12.5871H12.5877H12.5884H12.589H12.5897H12.5903H12.5909H12.5915H12.5922H12.5928H12.5934H12.594H12.5946H12.5952H12.5957H12.5963H12.5969H12.5975H12.598H12.5986H12.5991H12.5997H12.6002H12.6008H12.6013H12.6018H12.6023H12.6028H12.6034H12.6039H12.6043H12.6048H12.6053H12.6058H12.6063H12.6067H12.6072H12.6077H12.6081H12.6086H12.609H12.6094H12.6099H12.6103H12.6107H12.6111H12.6115H12.6119H12.6123H12.6127H12.6131H12.6134H12.6138H12.6142H12.6145H12.6149H12.6152H12.6156H12.6159H12.6162H12.6166H12.6169H12.6172H12.6175H12.6178H12.6181H12.6184H12.6187H12.6189H12.6192H12.6195H12.6197H12.62H12.6202H12.6205H12.6207H12.6209H12.6211H12.6214H12.6216H12.6218H12.622H12.6222H12.6223H12.6225H12.6227H12.6229H12.623H12.6232H12.6233H12.6235H12.6236H12.6237H12.6239H12.624H12.6241H12.6242H12.6243H12.6244H12.6245H12.6245H12.6246H12.6247H12.6247H12.6248H12.6248H12.6249H12.6249H12.625H12.625H12.625H12.625H16.9219C17.3223 12.725 17.6469 12.4004 17.6469 12Z" fill="#F0500B" stroke="#F0500B" stroke-width="0.2"/>
</svg>
