<svg width="24" height="24" viewBox="0 0 24 24" fill="none" xmlns="http://www.w3.org/2000/svg">
<path d="M12 1.9C6.43077 1.9 1.9 6.43077 1.9 12C1.9 17.5692 6.43077 22.1 12 22.1C17.5692 22.1 22.1 17.5693 22.1 12C22.1 6.43073 17.5692 1.9 12 1.9ZM12 20.65C7.23048 20.65 3.35 16.7695 3.35 12C3.35 7.23048 7.23048 3.35 12 3.35C16.7695 3.35 20.65 7.23044 20.65 12C20.65 16.7695 16.7695 20.65 12 20.65ZM16.9219 12.725C17.3223 12.725 17.6469 12.4004 17.6469 12C17.6469 11.5996 17.3223 11.275 16.9219 11.275H12.725V7.07811C12.725 6.67768 12.4004 6.3531 12 6.3531C11.5996 6.3531 11.275 6.67768 11.275 7.07811V11.275H7.07811C6.67772 11.275 6.3531 11.5996 6.3531 12C6.3531 12.4004 6.67772 12.725 7.07811 12.725H11.275V16.9219C11.275 17.3223 11.5996 17.6469 12 17.6469C12.4004 17.6469 12.725 17.3223 12.725 16.9219V12.725H16.9219Z" fill="#F0500B" stroke="#F0500B" stroke-width="0.2"/>
</svg>
