<svg width="24" height="24" viewBox="0 0 24 24" fill="none" xmlns="http://www.w3.org/2000/svg">
<path d="M22.5431 18.875H21.1681V18.4178H22.0859C22.3403 18.4178 22.5431 18.2115 22.5431 17.9606V15.2106C22.5431 14.9562 22.3369 14.7534 22.0859 14.7534H13.3753C13.1209 14.7534 12.9181 14.9597 12.9181 15.2106V17.9606C12.9181 18.215 13.1244 18.4178 13.3753 18.4178H14.2931V18.875H12.9181C12.6637 18.875 12.4609 19.0812 12.4609 19.3322V21.1644C12.4609 21.4187 12.6672 21.6215 12.9181 21.6215H14.2931V22.5394C14.2931 22.7937 14.4994 22.9965 14.7503 22.9965C15.0047 22.9965 15.2075 22.7903 15.2075 22.5394V21.625H20.2503V22.5428C20.2503 22.7937 20.4566 23 20.7075 23C20.9619 23 21.1647 22.7937 21.1647 22.5428V21.625H22.5397C22.7941 21.625 23.0003 21.4187 23.0003 21.1678V19.3356C23.0003 19.0812 22.7941 18.875 22.5431 18.875ZM13.8325 15.6678H21.6253V17.5H13.8325V15.6678ZM15.2075 18.4178H20.2503V18.875H15.2075V18.4178ZM22.0825 20.7072H13.3753V19.7894H22.0825V20.7072Z" fill="#0F0F10"/>
<path d="M6.5 1C3.13125 1 1 11.2644 1 13.8322C1 16.7094 3.22406 19.0744 6.04281 19.3081V22.5394C6.04281 22.7938 6.24906 22.9966 6.5 22.9966C6.75437 22.9966 6.95719 22.7903 6.95719 22.5394V19.3081C9.77594 19.0744 12 16.7128 12 13.8322C12 11.2644 9.86875 1 6.5 1ZM6.95719 18.3937V14.2928C6.95719 14.0384 6.75094 13.8356 6.5 13.8356C6.24563 13.8356 6.04281 14.0419 6.04281 14.2928V18.3937C3.72938 18.1634 1.91781 16.2075 1.91781 13.8322C1.91781 10.7659 4.24844 1.91438 6.5 1.91438C8.75156 1.91438 11.0822 10.7625 11.0822 13.8322C11.0822 16.2075 9.27063 18.1634 6.95719 18.3937Z" fill="#0F0F10"/>
<path d="M3.75031 13.8322C3.75031 13.5813 3.54406 13.375 3.29312 13.375C3.04219 13.375 2.83594 13.5813 2.83594 13.8322C2.83594 15.0284 3.42375 16.1525 4.40687 16.84C4.48594 16.895 4.57875 16.9225 4.66812 16.9225C4.8125 16.9225 4.95344 16.8537 5.04281 16.7266C5.18719 16.5203 5.13563 16.235 4.92938 16.0872C4.19031 15.5716 3.75031 14.7294 3.75031 13.8322Z" fill="#0F0F10"/>
<path d="M17.9572 9.24982C19.7275 9.24982 21.1644 7.80951 21.1644 6.04264C21.1644 4.27576 19.7241 2.83545 17.9572 2.83545C16.1903 2.83545 14.75 4.27232 14.75 6.04264C14.75 7.81295 16.1903 9.24982 17.9572 9.24982ZM17.9572 3.74982C19.2222 3.74982 20.25 4.77764 20.25 6.04264C20.25 7.30764 19.2222 8.33545 17.9572 8.33545C16.6922 8.33545 15.6644 7.30764 15.6644 6.04264C15.6644 4.77764 16.6956 3.74982 17.9572 3.74982Z" fill="#0F0F10"/>
</svg>
