<svg width="20" height="20" viewBox="0 0 20 20" fill="none" xmlns="http://www.w3.org/2000/svg">
<path d="M10 19.166C10 19.166 17.5 14.7082 17.5 8.43563C17.5 4.23665 14.1421 0.832684 10 0.832684C5.85787 0.832684 2.5 4.23665 2.5 8.43563C2.5 14.7082 10 19.166 10 19.166Z" stroke="#6D6D6D" stroke-miterlimit="10"/>
<path d="M7.38636 5H12.6136C13.2386 5 13.75 5.53723 13.75 6.19379V11.3062C13.75 11.9628 13.2386 12.5 12.6136 12.5H7.38636C6.76137 12.5 6.25 11.9628 6.25 11.3062V6.19379C6.25 5.5372 6.76137 5 7.38636 5Z" stroke="#6D6D6D" stroke-miterlimit="22.926" stroke-linecap="round" stroke-linejoin="round"/>
<path d="M6.25 9.16699H13.75" stroke="#6D6D6D" stroke-miterlimit="22.926" stroke-linecap="round" stroke-linejoin="round"/>
<path fill-rule="evenodd" clip-rule="evenodd" d="M8.53906 11.416C8.88331 11.416 9.16406 11.1353 9.16406 10.791C9.16406 10.4468 8.88331 10.166 8.53906 10.166C8.19481 10.166 7.91406 10.4468 7.91406 10.791C7.91406 11.1353 8.19481 11.416 8.53906 11.416Z" fill="#6D6D6D"/>
<path d="M7.08594 12.5007V13.334" stroke="#6D6D6D" stroke-miterlimit="22.926" stroke-linecap="round" stroke-linejoin="round"/>
<path d="M12.9141 12.5007V13.334" stroke="#6D6D6D" stroke-miterlimit="22.926" stroke-linecap="round" stroke-linejoin="round"/>
<path fill-rule="evenodd" clip-rule="evenodd" d="M11.4609 11.417C11.8052 11.417 12.0859 11.1362 12.0859 10.792C12.0859 10.4477 11.8052 10.167 11.4609 10.167C11.1167 10.167 10.8359 10.4477 10.8359 10.792C10.8359 11.1362 11.1167 11.417 11.4609 11.417Z" fill="#6D6D6D"/>
</svg>
