<svg width="24" height="24" viewBox="0 0 24 24" fill="none" xmlns="http://www.w3.org/2000/svg">
<path d="M12 23C12 23 21 17.6506 21 10.1235C21 5.08476 16.9706 1 12 1C7.02945 1 3 5.08476 3 10.1235C3 17.6506 12 23 12 23Z" stroke="#0C692C" stroke-width="1.5" stroke-miterlimit="10"/>
<path d="M8.86363 6H15.1364C15.8864 6 16.5 6.64468 16.5 7.43255V13.5675C16.5 14.3553 15.8863 15 15.1364 15H8.86363C8.11364 15 7.5 14.3554 7.5 13.5675V7.43255C7.5 6.64464 8.11364 6 8.86363 6Z" stroke="#0C692C" stroke-width="1.5" stroke-miterlimit="22.926" stroke-linecap="round" stroke-linejoin="round"/>
<path d="M7.5 11H16.5" stroke="#0C692C" stroke-width="1.5" stroke-miterlimit="22.926" stroke-linecap="round" stroke-linejoin="round"/>
<path fill-rule="evenodd" clip-rule="evenodd" d="M10.25 13.7002C10.6631 13.7002 11 13.3633 11 12.9502C11 12.5371 10.6631 12.2002 10.25 12.2002C9.8369 12.2002 9.5 12.5371 9.5 12.9502C9.5 13.3633 9.8369 13.7002 10.25 13.7002Z" fill="#0C692C"/>
<path d="M8.5 15V16" stroke="#0C692C" stroke-width="1.5" stroke-miterlimit="22.926" stroke-linecap="round" stroke-linejoin="round"/>
<path d="M15.5 15V16" stroke="#0C692C" stroke-width="1.5" stroke-miterlimit="22.926" stroke-linecap="round" stroke-linejoin="round"/>
<path fill-rule="evenodd" clip-rule="evenodd" d="M13.75 13.7002C14.1631 13.7002 14.5 13.3633 14.5 12.9502C14.5 12.5371 14.1631 12.2002 13.75 12.2002C13.3369 12.2002 13 12.5371 13 12.9502C13 13.3633 13.3369 13.7002 13.75 13.7002Z" fill="#0C692C"/>
</svg>
