<svg width="143" height="38" viewBox="0 0 143 38" fill="none" xmlns="http://www.w3.org/2000/svg">
<rect width="143" height="38" rx="4" fill="#32364E"/>
<path fill-rule="evenodd" clip-rule="evenodd" d="M131.653 19.1813C131.653 14.7999 129.528 11.3428 125.467 11.3428C121.389 11.3428 118.922 14.7999 118.922 19.147C118.922 24.2985 121.835 26.9 126.015 26.9C128.054 26.9 129.597 26.4379 130.762 25.7875V22.3646C129.597 22.9465 128.26 23.3059 126.564 23.3059C124.902 23.3059 123.428 22.724 123.24 20.7045H131.618C131.618 20.482 131.653 19.592 131.653 19.1813ZM123.188 17.5554C123.188 15.6214 124.371 14.817 125.45 14.817C126.495 14.817 127.609 15.6214 127.609 17.5554H123.188Z" fill="white"/>
<path fill-rule="evenodd" clip-rule="evenodd" d="M112.308 11.3428C110.628 11.3428 109.549 12.13 108.949 12.6777L108.727 11.6166H104.957V31.5722L109.241 30.6652L109.258 25.8217C109.875 26.2667 110.783 26.9 112.29 26.9C115.358 26.9 118.15 24.4354 118.15 19.0101C118.133 14.0469 115.306 11.3428 112.308 11.3428ZM111.28 23.1347C110.269 23.1347 109.669 22.7753 109.258 22.3304L109.241 15.9808C109.686 15.4845 110.303 15.1422 111.28 15.1422C112.839 15.1422 113.918 16.8879 113.918 19.1299C113.918 21.4233 112.856 23.1347 111.28 23.1347Z" fill="white"/>
<path fill-rule="evenodd" clip-rule="evenodd" d="M99.0625 10.333L103.363 9.40883V5.93457L99.0625 6.84164V10.333Z" fill="white"/>
<path d="M103.363 11.6338H99.0625V26.6091H103.363V11.6338Z" fill="white"/>
<path fill-rule="evenodd" clip-rule="evenodd" d="M94.4556 12.9004L94.1815 11.6339H90.4805V26.6092H94.764V16.4603C95.7749 15.1424 97.4884 15.382 98.0195 15.5703V11.6339C97.4712 11.4286 95.4665 11.052 94.4556 12.9004Z" fill="white"/>
<path fill-rule="evenodd" clip-rule="evenodd" d="M85.8854 7.91992L81.7046 8.80988L81.6875 22.5187C81.6875 25.0516 83.5894 26.9171 86.1253 26.9171C87.5303 26.9171 88.5583 26.6604 89.1238 26.3524V22.8781C88.5755 23.1006 85.8683 23.8878 85.8683 21.3549V15.2792H89.1238V11.6338H85.8683L85.8854 7.91992Z" fill="white"/>
<path fill-rule="evenodd" clip-rule="evenodd" d="M74.3037 15.9808C74.3037 15.3134 74.852 15.0566 75.7601 15.0566C77.0623 15.0566 78.7072 15.4503 80.0094 16.152V12.13C78.5873 11.5653 77.1823 11.3428 75.7601 11.3428C72.2819 11.3428 69.9688 13.1569 69.9688 16.1862C69.9688 20.9098 76.4798 20.1568 76.4798 22.1934C76.4798 22.9807 75.7944 23.2374 74.8349 23.2374C73.4127 23.2374 71.5965 22.6555 70.1572 21.8683V25.9415C71.7507 26.6261 73.3613 26.9171 74.8349 26.9171C78.3988 26.9171 80.849 25.1543 80.849 22.0907C80.8319 16.9906 74.3037 17.8977 74.3037 15.9808Z" fill="white"/>
<path d="M13.5102 19.515C13.7802 19.515 14.0169 19.48 14.2202 19.41C14.4269 19.34 14.5985 19.2417 14.7352 19.115C14.8752 18.985 14.9802 18.8317 15.0502 18.655C15.1202 18.475 15.1552 18.2767 15.1552 18.06C15.1552 17.6233 15.0185 17.28 14.7452 17.03C14.4752 16.78 14.0635 16.655 13.5102 16.655H12.4002V19.515H13.5102ZM13.5102 15.82C13.9702 15.82 14.3702 15.8733 14.7102 15.98C15.0502 16.0867 15.3319 16.2383 15.5552 16.435C15.7785 16.6283 15.9435 16.8633 16.0502 17.14C16.1602 17.4167 16.2152 17.7233 16.2152 18.06C16.2152 18.3967 16.1569 18.7067 16.0402 18.99C15.9235 19.27 15.7519 19.5117 15.5252 19.715C15.2985 19.9183 15.0152 20.0767 14.6752 20.19C14.3385 20.3 13.9502 20.355 13.5102 20.355H12.4002V23H11.3352V15.82H13.5102ZM19.101 17.84C19.4743 17.84 19.811 17.9017 20.111 18.025C20.4143 18.145 20.671 18.32 20.881 18.55C21.0943 18.7767 21.2576 19.0517 21.371 19.375C21.4843 19.695 21.541 20.055 21.541 20.455C21.541 20.855 21.4843 21.2167 21.371 21.54C21.2576 21.8633 21.0943 22.1383 20.881 22.365C20.671 22.5917 20.4143 22.7667 20.111 22.89C19.811 23.01 19.4743 23.07 19.101 23.07C18.7243 23.07 18.3843 23.01 18.081 22.89C17.781 22.7667 17.5243 22.5917 17.311 22.365C17.0976 22.1383 16.9326 21.8633 16.816 21.54C16.7026 21.2167 16.646 20.855 16.646 20.455C16.646 20.055 16.7026 19.695 16.816 19.375C16.9326 19.0517 17.0976 18.7767 17.311 18.55C17.5243 18.32 17.781 18.145 18.081 18.025C18.3843 17.9017 18.7243 17.84 19.101 17.84ZM19.101 22.31C19.581 22.31 19.9393 22.1483 20.176 21.825C20.4126 21.5017 20.531 21.0467 20.531 20.46C20.531 19.8733 20.4126 19.4183 20.176 19.095C19.9393 18.7683 19.581 18.605 19.101 18.605C18.6143 18.605 18.251 18.7683 18.011 19.095C17.7743 19.4183 17.656 19.8733 17.656 20.46C17.656 21.0467 17.7743 21.5017 18.011 21.825C18.251 22.1483 18.6143 22.31 19.101 22.31ZM29.6162 17.92L27.9812 23H27.2012C27.1079 23 27.0445 22.9383 27.0112 22.815L25.9412 19.505C25.9145 19.4217 25.8912 19.34 25.8712 19.26C25.8512 19.1767 25.8329 19.0933 25.8162 19.01C25.7862 19.1833 25.7445 19.3517 25.6912 19.515L24.6062 22.815C24.5729 22.9383 24.5012 23 24.3912 23H23.6512L22.0112 17.92H22.7812C22.8579 17.92 22.9212 17.9383 22.9712 17.975C23.0245 18.0117 23.0595 18.0583 23.0762 18.115L23.9912 21.235C24.0212 21.3617 24.0479 21.485 24.0712 21.605C24.0945 21.725 24.1162 21.845 24.1362 21.965C24.1662 21.845 24.1979 21.725 24.2312 21.605C24.2679 21.485 24.3045 21.3617 24.3412 21.235L25.3562 18.095C25.3729 18.0383 25.4045 17.9933 25.4512 17.96C25.4979 17.9233 25.5545 17.905 25.6212 17.905H26.0462C26.1195 17.905 26.1795 17.9233 26.2262 17.96C26.2762 17.9933 26.3095 18.0383 26.3262 18.095L27.3162 21.235C27.3529 21.3617 27.3879 21.4867 27.4212 21.61C27.4545 21.73 27.4845 21.8517 27.5112 21.975C27.5312 21.855 27.5545 21.735 27.5812 21.615C27.6079 21.4917 27.6379 21.365 27.6712 21.235L28.6012 18.115C28.6179 18.0583 28.6512 18.0117 28.7012 17.975C28.7545 17.9383 28.8145 17.92 28.8812 17.92H29.6162ZM33.7287 19.895C33.7287 19.7017 33.7004 19.5233 33.6437 19.36C33.5904 19.1967 33.5104 19.055 33.4037 18.935C33.297 18.815 33.167 18.7217 33.0137 18.655C32.8604 18.5883 32.6837 18.555 32.4837 18.555C32.0737 18.555 31.7504 18.6733 31.5137 18.91C31.2804 19.1467 31.132 19.475 31.0687 19.895H33.7287ZM34.5337 22.275C34.4137 22.415 34.2754 22.5367 34.1187 22.64C33.962 22.74 33.7954 22.8217 33.6187 22.885C33.442 22.9483 33.2587 22.995 33.0687 23.025C32.882 23.055 32.697 23.07 32.5137 23.07C32.1637 23.07 31.8387 23.0117 31.5387 22.895C31.242 22.775 30.9837 22.6017 30.7637 22.375C30.547 22.145 30.377 21.8617 30.2537 21.525C30.1337 21.185 30.0737 20.795 30.0737 20.355C30.0737 20.0017 30.1287 19.6733 30.2387 19.37C30.3487 19.0633 30.5054 18.7967 30.7087 18.57C30.9154 18.3433 31.167 18.165 31.4637 18.035C31.7604 17.905 32.0937 17.84 32.4637 17.84C32.7737 17.84 33.0587 17.8917 33.3187 17.995C33.582 18.095 33.8087 18.2417 33.9987 18.435C34.1887 18.6283 34.337 18.8667 34.4437 19.15C34.5537 19.4333 34.6087 19.7567 34.6087 20.12C34.6087 20.27 34.592 20.3717 34.5587 20.425C34.5254 20.475 34.4637 20.5 34.3737 20.5H31.0437C31.0537 20.8033 31.097 21.0683 31.1737 21.295C31.2504 21.5183 31.3554 21.705 31.4887 21.855C31.6254 22.005 31.787 22.1167 31.9737 22.19C32.1604 22.2633 32.3687 22.3 32.5987 22.3C32.8154 22.3 33.002 22.275 33.1587 22.225C33.3187 22.175 33.4554 22.1217 33.5687 22.065C33.6854 22.005 33.782 21.95 33.8587 21.9C33.9387 21.85 34.0087 21.825 34.0687 21.825C34.1487 21.825 34.2104 21.855 34.2537 21.915L34.5337 22.275ZM36.5767 18.895C36.74 18.5617 36.9367 18.3 37.1667 18.11C37.3967 17.92 37.6733 17.825 37.9967 17.825C38.1067 17.825 38.21 17.8383 38.3067 17.865C38.4067 17.8883 38.4933 17.925 38.5667 17.975L38.5017 18.71C38.4783 18.8 38.4233 18.845 38.3367 18.845C38.29 18.845 38.22 18.8367 38.1267 18.82C38.0333 18.8 37.9333 18.79 37.8267 18.79C37.67 18.79 37.5317 18.8133 37.4117 18.86C37.2917 18.9033 37.1833 18.97 37.0867 19.06C36.9933 19.1467 36.91 19.255 36.8367 19.385C36.7633 19.5117 36.695 19.6567 36.6317 19.82V23H35.6567V17.92H36.2167C36.3233 17.92 36.395 17.94 36.4317 17.98C36.4717 18.0167 36.5 18.0833 36.5167 18.18L36.5767 18.895ZM42.4982 19.895C42.4982 19.7017 42.4699 19.5233 42.4132 19.36C42.3599 19.1967 42.2799 19.055 42.1732 18.935C42.0666 18.815 41.9366 18.7217 41.7832 18.655C41.6299 18.5883 41.4532 18.555 41.2532 18.555C40.8432 18.555 40.5199 18.6733 40.2832 18.91C40.0499 19.1467 39.9016 19.475 39.8382 19.895H42.4982ZM43.3032 22.275C43.1832 22.415 43.0449 22.5367 42.8882 22.64C42.7316 22.74 42.5649 22.8217 42.3882 22.885C42.2116 22.9483 42.0282 22.995 41.8382 23.025C41.6516 23.055 41.4666 23.07 41.2832 23.07C40.9332 23.07 40.6082 23.0117 40.3082 22.895C40.0116 22.775 39.7532 22.6017 39.5332 22.375C39.3166 22.145 39.1466 21.8617 39.0232 21.525C38.9032 21.185 38.8432 20.795 38.8432 20.355C38.8432 20.0017 38.8982 19.6733 39.0082 19.37C39.1182 19.0633 39.2749 18.7967 39.4782 18.57C39.6849 18.3433 39.9366 18.165 40.2332 18.035C40.5299 17.905 40.8632 17.84 41.2332 17.84C41.5432 17.84 41.8282 17.8917 42.0882 17.995C42.3516 18.095 42.5782 18.2417 42.7682 18.435C42.9582 18.6283 43.1066 18.8667 43.2132 19.15C43.3232 19.4333 43.3782 19.7567 43.3782 20.12C43.3782 20.27 43.3616 20.3717 43.3282 20.425C43.2949 20.475 43.2332 20.5 43.1432 20.5H39.8132C39.8232 20.8033 39.8666 21.0683 39.9432 21.295C40.0199 21.5183 40.1249 21.705 40.2582 21.855C40.3949 22.005 40.5566 22.1167 40.7432 22.19C40.9299 22.2633 41.1382 22.3 41.3682 22.3C41.5849 22.3 41.7716 22.275 41.9282 22.225C42.0882 22.175 42.2249 22.1217 42.3382 22.065C42.4549 22.005 42.5516 21.95 42.6282 21.9C42.7082 21.85 42.7782 21.825 42.8382 21.825C42.9182 21.825 42.9799 21.855 43.0232 21.915L43.3032 22.275ZM47.7012 19.15C47.5412 18.94 47.3679 18.7933 47.1812 18.71C46.9979 18.6267 46.7912 18.585 46.5612 18.585C46.1145 18.585 45.7679 18.7467 45.5212 19.07C45.2779 19.39 45.1562 19.8583 45.1562 20.475C45.1562 20.7983 45.1829 21.075 45.2362 21.305C45.2929 21.5317 45.3729 21.7183 45.4762 21.865C45.5829 22.0083 45.7129 22.115 45.8662 22.185C46.0195 22.2517 46.1929 22.285 46.3862 22.285C46.6695 22.285 46.9145 22.2217 47.1212 22.095C47.3279 21.9683 47.5212 21.79 47.7012 21.56V19.15ZM48.6812 15.62V23H48.0912C47.9545 23 47.8695 22.935 47.8362 22.805L47.7512 22.22C47.5345 22.4767 47.2879 22.6833 47.0112 22.84C46.7379 22.9933 46.4212 23.07 46.0612 23.07C45.7712 23.07 45.5079 23.0133 45.2712 22.9C45.0379 22.7867 44.8379 22.6217 44.6712 22.405C44.5045 22.185 44.3762 21.9133 44.2862 21.59C44.1962 21.2667 44.1512 20.895 44.1512 20.475C44.1512 20.0983 44.2012 19.7483 44.3012 19.425C44.4012 19.1017 44.5462 18.8217 44.7362 18.585C44.9262 18.3483 45.1562 18.1633 45.4262 18.03C45.6962 17.8933 46.0012 17.825 46.3412 17.825C46.6479 17.825 46.9079 17.875 47.1212 17.975C47.3379 18.075 47.5312 18.2167 47.7012 18.4V15.62H48.6812ZM53.5457 21.75C53.7057 21.96 53.8791 22.1067 54.0657 22.19C54.2524 22.2733 54.4557 22.315 54.6757 22.315C55.1291 22.315 55.4774 22.1533 55.7207 21.83C55.9674 21.5067 56.0907 21.0183 56.0907 20.365C56.0907 19.7617 55.9824 19.32 55.7657 19.04C55.5491 18.7567 55.2424 18.615 54.8457 18.615C54.5657 18.615 54.3224 18.6783 54.1157 18.805C53.9124 18.9317 53.7224 19.1117 53.5457 19.345V21.75ZM53.5457 18.62C53.7557 18.3867 53.9941 18.1983 54.2607 18.055C54.5274 17.9117 54.8307 17.84 55.1707 17.84C55.4674 17.84 55.7341 17.8983 55.9707 18.015C56.2107 18.1283 56.4141 18.2933 56.5807 18.51C56.7474 18.7233 56.8757 18.9833 56.9657 19.29C57.0557 19.5967 57.1007 19.9433 57.1007 20.33C57.1007 20.74 57.0491 21.1133 56.9457 21.45C56.8457 21.7867 56.7007 22.075 56.5107 22.315C56.3241 22.555 56.0957 22.7417 55.8257 22.875C55.5557 23.005 55.2524 23.07 54.9157 23.07C54.7524 23.07 54.6024 23.0533 54.4657 23.02C54.3291 22.99 54.2024 22.945 54.0857 22.885C53.9724 22.825 53.8674 22.7517 53.7707 22.665C53.6741 22.5783 53.5824 22.48 53.4957 22.37L53.4507 22.795C53.4241 22.9317 53.3407 23 53.2007 23H52.5707V15.62H53.5457V18.62ZM62.4893 17.92L59.6693 24.475C59.6393 24.5483 59.5993 24.605 59.5493 24.645C59.4993 24.685 59.4259 24.705 59.3293 24.705H58.6043L59.5343 22.68L57.4493 17.92H58.2993C58.3826 17.92 58.4476 17.94 58.4943 17.98C58.5409 18.02 58.5743 18.065 58.5943 18.115L59.8843 21.165C59.9109 21.2417 59.9359 21.32 59.9593 21.4C59.9859 21.4767 60.0076 21.5533 60.0243 21.63C60.0476 21.55 60.0726 21.4717 60.0993 21.395C60.1259 21.315 60.1543 21.2367 60.1843 21.16L61.4293 18.115C61.4526 18.0583 61.4893 18.0117 61.5393 17.975C61.5893 17.9383 61.6459 17.92 61.7093 17.92H62.4893Z" fill="white"/>
</svg>
