<svg width="20" height="20" viewBox="0 0 20 20" fill="none" xmlns="http://www.w3.org/2000/svg">
<path d="M12.6464 10.3863C13.7379 9.58812 14.4495 8.3142 14.4495 6.87653C14.4495 4.46318 12.4533 2.5 9.99937 2.5C7.54543 2.5 5.54922 4.46318 5.54922 6.87653C5.54922 8.3142 6.26084 9.58812 7.35233 10.3863C5.40677 11.0295 4 12.8364 4 14.9634V15.5736C4 16.2971 4.52232 16.9209 5.24217 17.0567C6.80658 17.3512 8.40709 17.5 10 17.5C11.5929 17.5 13.1934 17.3506 14.7585 17.0567C15.4777 16.9209 16 16.2971 16 15.5736V14.9634C15.9987 12.8364 14.5913 11.0295 12.6464 10.3863ZM6.68819 6.87653C6.68819 5.08146 8.17347 3.62075 9.99873 3.62075C11.824 3.62075 13.3093 5.08146 13.3093 6.87653C13.3093 8.6716 11.824 10.1323 9.99873 10.1323C8.17347 10.1323 6.68819 8.67222 6.68819 6.87653ZM14.8585 15.5736C14.8585 15.7603 14.7255 15.9216 14.5426 15.9559C11.5549 16.5175 8.44191 16.5175 5.45552 15.9559C5.27192 15.921 5.13897 15.7603 5.13897 15.5736V14.9634C5.13897 12.9174 6.83128 11.2531 8.91105 11.2531H11.0864C13.1662 11.2531 14.8585 12.9174 14.8585 14.9634V15.5736Z" fill="#6D6D6D"/>
</svg>
