<svg width="120" height="120" viewBox="0 0 120 120" fill="none" xmlns="http://www.w3.org/2000/svg">
<g clip-path="url(#clip0_165_3391)">
<path d="M57.9719 45.7555C58.7538 46.498 60.0539 46.3479 60.648 45.4516L72.3476 27.7947C72.8841 26.9854 72.6625 25.8941 71.8532 25.3576C71.0448 24.822 69.9535 25.0436 69.417 25.852L58.8737 41.7638L53.0153 36.2011C52.3112 35.5328 51.1989 35.5621 50.5296 36.2661C49.8613 36.9701 49.8906 38.0825 50.5946 38.7508C50.5937 38.7508 57.9655 45.7501 57.9719 45.7555Z" fill="#0F0F10"/>
<path d="M59.1723 72.5665C59.5083 72.7204 59.88 72.8018 60.2499 72.8018H60.2645C60.6408 72.8 61.018 72.7139 61.3549 72.5528C88.0847 59.8407 92.6147 32.4133 93.3654 24.31C93.5376 22.4597 92.4957 20.7367 90.7736 20.0226C85.4525 17.8134 81.8353 12.8732 81.3336 7.13013C81.1788 5.36224 79.6682 3.98438 77.8884 3.98438H77.8674L41.856 4.19586C40.0405 4.20593 38.5656 5.58563 38.4265 7.40479C37.9833 13.1497 34.4192 18.1256 29.1247 20.3906C27.42 21.1194 26.4037 22.8516 26.5978 24.7009C27.4438 32.7951 32.2952 60.1685 59.1723 72.5665ZM30.5071 23.6224C36.9991 20.8466 41.3726 14.7519 41.9283 7.71057L77.8363 7.5C78.4744 14.5258 82.9101 20.5646 89.4259 23.269C89.7171 23.3908 89.8937 23.6783 89.8654 23.9859C89.1604 31.5802 84.9426 57.1866 60.2435 69.1864C35.4025 57.4786 30.888 31.9217 30.0933 24.3356C30.0613 24.0289 30.2279 23.7424 30.5071 23.6224Z" fill="#0F0F10"/>
<path d="M34.8985 33.3671C35.1109 34.1489 36.1024 34.8649 37.0564 34.6021C37.992 34.3439 38.5459 33.3817 38.2914 32.4451C37.8437 30.7954 37.4674 29.1227 37.1717 27.4656C41.9471 24.3537 45.4911 19.7092 47.2297 14.2847L72.6154 14.1355C74.4172 19.538 78.0152 24.1422 82.8272 27.1973C82.5517 28.859 82.1946 30.5372 81.7652 32.1934C81.5217 33.1336 82.0866 34.0931 83.0259 34.3366C83.9671 34.5801 84.9256 34.0153 85.1692 33.075C85.6727 31.1304 86.0829 29.1566 86.3868 27.2083C86.5571 26.1198 86.0591 25.0495 85.1197 24.4819C80.6373 21.7747 77.324 17.5275 75.7905 12.5233C75.4453 11.3981 74.3842 10.6162 73.2069 10.6162H73.1904L46.6126 10.7719C45.4279 10.7792 44.3678 11.5766 44.0354 12.71C42.5614 17.7317 39.2976 22.0173 34.8472 24.7776C33.9143 25.3553 33.43 26.431 33.6121 27.5187C33.9399 29.4623 34.372 31.4298 34.8985 33.3671Z" fill="#0F0F10"/>
<path d="M81.6137 38.5793C80.7165 38.2076 79.6893 38.6361 79.3185 39.5333C75.2563 49.3789 68.8256 56.8642 60.1995 61.7907C51.5066 56.9594 44.9826 49.5372 40.8059 39.7228C40.4251 38.8302 39.3923 38.4145 38.4997 38.7944C37.6061 39.1744 37.1905 40.2071 37.5704 41.0997C42.1289 51.8096 49.3102 59.8836 58.915 65.0957C59.3197 65.3164 59.7628 65.4253 60.205 65.4253C60.6582 65.4253 61.1105 65.3109 61.5225 65.0811C71.0549 59.7628 78.1356 51.6182 82.5686 40.8736C82.9394 39.9764 82.5119 38.9492 81.6137 38.5793Z" fill="#0F0F10"/>
<path d="M11.2778 93.9312C7.84912 93.9312 5.05859 96.7208 5.05859 100.15C5.05859 103.58 7.84912 106.37 11.2778 106.37C14.7073 106.37 17.4979 103.58 17.4979 100.15C17.4979 96.7208 14.7083 93.9312 11.2778 93.9312ZM11.2778 102.854C9.78729 102.854 8.57422 101.642 8.57422 100.15C8.57422 98.6599 9.78729 97.4468 11.2778 97.4468C12.7692 97.4468 13.9822 98.6599 13.9822 100.15C13.9822 101.642 12.7692 102.854 11.2778 102.854Z" fill="#0F0F10"/>
<path d="M118.739 76.7221C116.486 73.4116 111.95 72.5345 108.627 74.7665L85.6476 90.1465L80.7422 89.8709L80.6168 88.6148C80.1279 83.6957 76.3678 79.7763 71.4734 79.0842C71.4423 79.0796 71.4121 79.0759 71.3809 79.0732L46.6196 76.9034C45.7819 76.7725 43.1003 76.0025 35.7321 71.7764C31.9025 69.5801 27.5876 68.3405 23.204 68.172V63.5733C23.204 61.2653 21.3272 59.3884 19.0192 59.3884H4.18488C1.87775 59.3884 0 61.2662 0 63.5733V108.865C0 111.172 1.87775 113.05 4.18488 113.05H19.0192C21.3263 113.05 23.204 111.172 23.204 108.865V107.618L44.8489 115.814C44.8966 115.833 46.6544 116.49 49.8862 116.185C49.8953 116.184 85.8508 111 85.8508 111C85.86 110.999 85.8682 110.998 85.8774 110.996C88.9499 110.506 91.8475 109.207 94.2581 107.241C94.2801 107.223 94.3012 107.205 94.3222 107.186L117.55 86.2949C120.287 83.8641 120.799 79.7488 118.739 76.7221ZM115.207 83.6737L92.0041 104.543C90.0833 106.1 87.778 107.13 85.3354 107.522L49.3973 112.703C49.389 112.704 49.3771 112.706 49.3662 112.708C49.3607 112.709 49.3543 112.71 49.3488 112.711C48.2739 112.88 47.1542 112.809 46.0199 112.498L23.204 103.858V83.7836C23.204 82.8122 22.4167 82.0258 21.4462 82.0258C20.4749 82.0258 19.6884 82.8122 19.6884 83.7836V108.865C19.6884 109.234 19.3881 109.535 19.0192 109.535H4.18488C3.81592 109.535 3.51563 109.234 3.51563 108.865V63.5733C3.51563 63.2043 3.81592 62.9041 4.18488 62.9041H19.0192C19.3881 62.9041 19.6884 63.2043 19.6884 63.5733V75.8432C19.6884 76.8146 20.4758 77.601 21.4462 77.601C22.4176 77.601 23.204 76.8137 23.204 75.8432V71.6913C26.9751 71.8579 30.6848 72.9346 33.9826 74.827C42.8696 79.9237 45.3516 80.2753 46.1673 80.3906C46.1984 80.3952 46.2286 80.398 46.2598 80.4016L71.0239 82.5714C74.2887 83.0539 76.7917 85.676 77.1185 88.9627L77.2119 89.8993L44.0579 91.9464C44.035 91.9446 44.0122 91.9428 43.992 91.9409C42.9172 91.8439 41.9467 91.3358 41.2573 90.51C40.6357 89.7638 39.527 89.6631 38.7817 90.2857C38.0356 90.9073 37.9349 92.016 38.5574 92.7612C39.8474 94.3085 41.6675 95.2341 43.6789 95.4428C44.7647 95.5563 79.1455 93.3023 79.1455 93.3023L86.0376 93.6896C86.4185 93.7116 86.7966 93.6072 87.1134 93.3948L110.586 77.6862C112.31 76.528 114.663 76.9821 115.833 78.6997C116.901 80.2707 116.635 82.4057 115.207 83.6737Z" fill="#0F0F10"/>
</g>
<defs>
<clipPath id="clip0_165_3391">
<rect width="120" height="120" fill="white"/>
</clipPath>
</defs>
</svg>
