<svg width="24" height="24" viewBox="0 0 24 24" fill="none" xmlns="http://www.w3.org/2000/svg">
<path d="M21.2607 5.42316C18.134 4.66364 15.1783 3.22105 12.5692 1.18115C12.4059 1.06298 12.2146 1 12.0191 1C11.8235 1 11.6323 1.06298 11.469 1.18115C8.8599 3.22105 5.90412 4.66364 2.77743 5.42316C2.52531 5.48645 2.3053 5.65457 2.16357 5.89226C2.02184 6.12995 1.96942 6.41871 2.01729 6.69796C3.11749 13.8962 6.38807 19.4789 11.499 22.8528C11.651 22.9492 11.8235 23 11.9991 23C12.1746 23 12.3471 22.9492 12.4992 22.8528C17.6101 19.4789 20.8807 13.8962 21.9809 6.69796C22.0302 6.42476 21.9833 6.14116 21.8496 5.90452C21.7159 5.66787 21.5055 5.49582 21.2607 5.42316Z" fill="#007728"/>
<path d="M9.71079 11.5805C9.61783 11.4867 9.50723 11.4123 9.38537 11.3616C9.26351 11.3108 9.1328 11.2847 9.00079 11.2847C8.86878 11.2847 8.73807 11.3108 8.61622 11.3616C8.49436 11.4123 8.38376 11.4867 8.29079 11.5805C8.10454 11.7678 8 12.0213 8 12.2855C8 12.5496 8.10454 12.8031 8.29079 12.9905L10.0808 14.7805C10.2671 14.9652 10.5185 15.0694 10.7808 15.0705C11.0431 15.0694 11.2945 14.9652 11.4808 14.7805L15.6008 10.6505C15.7646 10.4592 15.8502 10.2131 15.8405 9.9614C15.8308 9.70973 15.7264 9.47099 15.5484 9.29289C15.3703 9.1148 15.1315 9.01047 14.8798 9.00075C14.6282 8.99102 14.3821 9.07663 14.1908 9.24046L10.7808 12.6505L9.71079 11.5805Z" fill="white"/>
</svg>
