<svg width="60" height="60" viewBox="0 0 60 60" fill="none" xmlns="http://www.w3.org/2000/svg">
<path d="M49.4476 16.2484C42.8815 14.6603 36.6744 11.644 31.1953 7.37877C30.8523 7.13168 30.4507 7 30.0401 7C29.6294 7 29.2278 7.13168 28.8849 7.37877C23.4058 11.644 17.1987 14.6603 10.6326 16.2484C10.1031 16.3808 9.64113 16.7323 9.3435 17.2293C9.04587 17.7263 8.93577 18.33 9.03631 18.9139C11.3467 33.9648 18.215 45.6378 28.9479 52.6922C29.2672 52.8938 29.6294 53 29.9981 53C30.3668 53 30.729 52.8938 31.0483 52.6922C41.7812 45.6378 48.6494 33.9648 50.9598 18.9139C51.0634 18.3427 50.9649 17.7497 50.6842 17.2549C50.4035 16.7601 49.9615 16.4004 49.4476 16.2484Z" fill="#007728"/>
<path d="M25.1942 29.1221C24.999 28.9261 24.7667 28.7705 24.5108 28.6644C24.2549 28.5582 23.9805 28.5036 23.7032 28.5036C23.426 28.5036 23.1515 28.5582 22.8956 28.6644C22.6397 28.7705 22.4074 28.9261 22.2122 29.1221C21.8211 29.5138 21.6016 30.0438 21.6016 30.5962C21.6016 31.1485 21.8211 31.6785 22.2122 32.0702L25.9712 35.813C26.3624 36.1993 26.8903 36.417 27.4412 36.4193C27.9921 36.417 28.5201 36.1993 28.9112 35.813L37.5632 27.1775C37.9073 26.7775 38.087 26.263 38.0666 25.7368C38.0462 25.2105 37.8271 24.7114 37.4531 24.339C37.0791 23.9666 36.5778 23.7484 36.0492 23.7281C35.5207 23.7078 35.004 23.8868 34.6022 24.2293L27.4412 31.3593L25.1942 29.1221Z" fill="white"/>
</svg>
