<svg width="20" height="20" viewBox="0 0 20 20" fill="none" xmlns="http://www.w3.org/2000/svg">
<path d="M13.1406 16.2757V15.0205" stroke="#6D6D6D" stroke-miterlimit="10" stroke-linecap="round" stroke-linejoin="round"/>
<path d="M13.1406 12.5101V11.2549" stroke="#6D6D6D" stroke-miterlimit="10" stroke-linecap="round" stroke-linejoin="round"/>
<path d="M13.1406 8.74449V7.48926" stroke="#6D6D6D" stroke-miterlimit="10" stroke-linecap="round" stroke-linejoin="round"/>
<path d="M13.1406 4.97887V3.72363" stroke="#6D6D6D" stroke-miterlimit="10" stroke-linecap="round" stroke-linejoin="round"/>
<path d="M19.4141 7.48926C18.0286 7.48926 16.9036 8.61422 16.9036 9.99969C16.9036 11.3852 18.0286 12.5101 19.4141 12.5101V13.9724C19.4141 15.4652 18.6035 16.2757 17.1107 16.2757H2.88926C1.39648 16.2757 0.585938 15.4652 0.585938 13.9724V12.5101C1.97137 12.5101 3.09637 11.3852 3.09637 9.99969C3.09637 8.61422 1.97137 7.48926 0.585938 7.48926V6.02695C0.585938 4.53422 1.39648 3.72363 2.88926 3.72363H17.1107C18.6035 3.72363 19.4141 4.53418 19.4141 6.02695V7.48926Z" stroke="#6D6D6D" stroke-miterlimit="10" stroke-linecap="round" stroke-linejoin="round"/>
</svg>
