<svg width="72" height="72" viewBox="0 0 72 72" fill="none" xmlns="http://www.w3.org/2000/svg">
<mask id="path-1-outside-1_3630_46282" maskUnits="userSpaceOnUse" x="0" y="10" width="72" height="53" fill="black">
<rect fill="white" y="10" width="72" height="53"/>
<path fill-rule="evenodd" clip-rule="evenodd" d="M57.1502 13.8847C55.7881 12.3988 52.9206 12.5039 51.5121 13.9466C49.8669 15.6318 50.2428 18.9372 51.6388 20.7072C53.1335 22.6024 55.4451 22.6024 56.9396 20.7072C57.6847 19.7626 58.1456 18.4421 58.1456 16.9696C58.1456 15.5922 57.7735 14.5646 57.1502 13.8847ZM54.4399 11C57.911 11 60.0087 13.4521 60.0087 16.9697C60.0087 18.8502 59.3977 20.5652 58.4098 21.8177C56.1647 24.6645 52.4135 24.6645 50.1684 21.8177C48.2161 19.3422 47.8508 15.0646 50.1655 12.6937C51.2646 11.568 52.8008 11 54.4399 11ZM38.8604 13.8847C37.4981 12.3988 34.6306 12.504 33.2221 13.9466C31.5771 15.6315 31.9528 18.937 33.3488 20.7072C34.8435 22.6025 37.155 22.6025 38.6496 20.7072C39.3947 19.7626 39.8555 18.4419 39.8555 16.9696C39.8555 15.5922 39.4837 14.5646 38.8604 13.8847ZM36.15 11C39.6212 11 41.719 13.4521 41.719 16.9697C41.719 18.8502 41.108 20.5653 40.1201 21.8177C37.875 24.6645 34.1238 24.6645 31.8787 21.8177C29.9264 19.3421 29.5612 15.0646 31.8756 12.6939C32.9748 11.5681 34.511 11 36.15 11ZM20.5705 13.8847C19.2084 12.3988 16.3408 12.5039 14.9324 13.9466C13.2872 15.6318 13.6632 18.9372 15.0591 20.7072C16.5538 22.6024 18.8654 22.6024 20.3601 20.7072C21.105 19.7626 21.5658 18.4419 21.5658 16.9696C21.5658 15.5922 21.1938 14.5646 20.5705 13.8847ZM17.8601 11C21.3313 11 23.429 13.4521 23.429 16.9697C23.429 18.8502 22.818 20.5652 21.8302 21.8177C19.5851 24.6645 15.8339 24.6645 13.5888 21.8177C11.6365 19.3422 11.2712 15.0646 13.5859 12.6937C14.685 11.568 16.2211 11 17.8601 11ZM50.1847 31.1368H21.8137L24.8388 47.857H47.1597L50.1847 31.1368ZM47.9501 29.3144C47.6166 28.6104 47.1751 27.9651 46.6472 27.3995C47.457 26.9877 48.3489 26.774 49.2915 26.774H59.2869C62.4741 26.774 65.0854 29.3278 65.0854 32.4451V38.1386H61.7827V35.6309C61.7827 35.1277 61.3656 34.7197 60.8511 34.7197C60.3366 34.7197 59.9195 35.1277 59.9195 35.6309V38.1386H50.8089L52.205 30.4218C52.3259 29.8252 51.8764 29.3144 51.2951 29.3144H47.9501ZM26.1703 29.3144H45.8283C44.7595 27.7495 42.9602 26.7742 40.9971 26.7742H31.0018C29.0384 26.7742 27.2394 27.7493 26.1703 29.3144ZM20.7035 29.3144C20.1334 29.3149 19.6869 29.8282 19.7863 30.3822L21.1897 38.1386H12.0791V35.6309C12.0791 35.1277 11.662 34.7197 11.1475 34.7197C10.633 34.7197 10.2159 35.1277 10.2159 35.6309V38.1386H6.91321V32.4451C6.91321 29.3277 9.52452 26.774 12.7119 26.774H22.7073C23.6501 26.774 24.5416 26.9877 25.3515 27.3993C24.8236 27.965 24.3822 28.6103 24.0487 29.3143L20.7035 29.3144ZM6.68789 39.961H21.4967L21.5193 39.9607L23.135 48.891C23.1964 49.3362 23.5864 49.6794 24.0581 49.6794H47.9402C48.3845 49.6799 48.7783 49.3676 48.8573 48.9248L50.4792 39.9609L50.5018 39.9612H65.3107L68.85 52.5082H3.14848L6.68789 39.961ZM6.91306 54.3303V60.1776H65.0854V54.3303H6.91306ZM66.9487 54.3303V61.0887C66.9487 61.5919 66.5316 61.9999 66.0171 61.9999H5.98132C5.46682 61.9999 5.04973 61.5919 5.04973 61.0887V54.3303H1.92799C1.32453 54.3303 0.834667 53.7719 1.05284 53.1061L5.04988 38.9368V32.4451C5.04988 28.3217 8.49595 24.9516 12.7119 24.9516H22.7073C24.1843 24.9516 25.6317 25.3811 26.8545 26.1534C28.0528 25.3938 29.4778 24.9516 31.0018 24.9516H40.9971C42.5211 24.9516 43.9459 25.3938 45.1444 26.1534C46.3673 25.3809 47.8143 24.9516 49.2916 24.9516H59.287C63.5028 24.9516 66.9489 28.3217 66.9489 32.4451V38.9368L70.9659 53.1771C71.1301 53.7588 70.6802 54.3274 70.0706 54.3277V54.3303H66.9487ZM36.9647 38.1055C37.4977 38.6268 37.4977 39.4726 36.9647 39.994C36.1074 40.8324 34.6341 40.2363 34.6341 39.0497C34.6341 37.8632 36.1071 37.267 36.9647 38.1055ZM35.9992 35.8922C38.8656 35.8922 40.3113 39.2978 38.2821 41.2824C36.253 43.2669 32.7709 41.8532 32.7709 39.0497C32.7709 37.3061 34.2164 35.8922 35.9992 35.8922Z"/>
</mask>
<path fill-rule="evenodd" clip-rule="evenodd" d="M57.1502 13.8847C55.7881 12.3988 52.9206 12.5039 51.5121 13.9466C49.8669 15.6318 50.2428 18.9372 51.6388 20.7072C53.1335 22.6024 55.4451 22.6024 56.9396 20.7072C57.6847 19.7626 58.1456 18.4421 58.1456 16.9696C58.1456 15.5922 57.7735 14.5646 57.1502 13.8847ZM54.4399 11C57.911 11 60.0087 13.4521 60.0087 16.9697C60.0087 18.8502 59.3977 20.5652 58.4098 21.8177C56.1647 24.6645 52.4135 24.6645 50.1684 21.8177C48.2161 19.3422 47.8508 15.0646 50.1655 12.6937C51.2646 11.568 52.8008 11 54.4399 11ZM38.8604 13.8847C37.4981 12.3988 34.6306 12.504 33.2221 13.9466C31.5771 15.6315 31.9528 18.937 33.3488 20.7072C34.8435 22.6025 37.155 22.6025 38.6496 20.7072C39.3947 19.7626 39.8555 18.4419 39.8555 16.9696C39.8555 15.5922 39.4837 14.5646 38.8604 13.8847ZM36.15 11C39.6212 11 41.719 13.4521 41.719 16.9697C41.719 18.8502 41.108 20.5653 40.1201 21.8177C37.875 24.6645 34.1238 24.6645 31.8787 21.8177C29.9264 19.3421 29.5612 15.0646 31.8756 12.6939C32.9748 11.5681 34.511 11 36.15 11ZM20.5705 13.8847C19.2084 12.3988 16.3408 12.5039 14.9324 13.9466C13.2872 15.6318 13.6632 18.9372 15.0591 20.7072C16.5538 22.6024 18.8654 22.6024 20.3601 20.7072C21.105 19.7626 21.5658 18.4419 21.5658 16.9696C21.5658 15.5922 21.1938 14.5646 20.5705 13.8847ZM17.8601 11C21.3313 11 23.429 13.4521 23.429 16.9697C23.429 18.8502 22.818 20.5652 21.8302 21.8177C19.5851 24.6645 15.8339 24.6645 13.5888 21.8177C11.6365 19.3422 11.2712 15.0646 13.5859 12.6937C14.685 11.568 16.2211 11 17.8601 11ZM50.1847 31.1368H21.8137L24.8388 47.857H47.1597L50.1847 31.1368ZM47.9501 29.3144C47.6166 28.6104 47.1751 27.9651 46.6472 27.3995C47.457 26.9877 48.3489 26.774 49.2915 26.774H59.2869C62.4741 26.774 65.0854 29.3278 65.0854 32.4451V38.1386H61.7827V35.6309C61.7827 35.1277 61.3656 34.7197 60.8511 34.7197C60.3366 34.7197 59.9195 35.1277 59.9195 35.6309V38.1386H50.8089L52.205 30.4218C52.3259 29.8252 51.8764 29.3144 51.2951 29.3144H47.9501ZM26.1703 29.3144H45.8283C44.7595 27.7495 42.9602 26.7742 40.9971 26.7742H31.0018C29.0384 26.7742 27.2394 27.7493 26.1703 29.3144ZM20.7035 29.3144C20.1334 29.3149 19.6869 29.8282 19.7863 30.3822L21.1897 38.1386H12.0791V35.6309C12.0791 35.1277 11.662 34.7197 11.1475 34.7197C10.633 34.7197 10.2159 35.1277 10.2159 35.6309V38.1386H6.91321V32.4451C6.91321 29.3277 9.52452 26.774 12.7119 26.774H22.7073C23.6501 26.774 24.5416 26.9877 25.3515 27.3993C24.8236 27.965 24.3822 28.6103 24.0487 29.3143L20.7035 29.3144ZM6.68789 39.961H21.4967L21.5193 39.9607L23.135 48.891C23.1964 49.3362 23.5864 49.6794 24.0581 49.6794H47.9402C48.3845 49.6799 48.7783 49.3676 48.8573 48.9248L50.4792 39.9609L50.5018 39.9612H65.3107L68.85 52.5082H3.14848L6.68789 39.961ZM6.91306 54.3303V60.1776H65.0854V54.3303H6.91306ZM66.9487 54.3303V61.0887C66.9487 61.5919 66.5316 61.9999 66.0171 61.9999H5.98132C5.46682 61.9999 5.04973 61.5919 5.04973 61.0887V54.3303H1.92799C1.32453 54.3303 0.834667 53.7719 1.05284 53.1061L5.04988 38.9368V32.4451C5.04988 28.3217 8.49595 24.9516 12.7119 24.9516H22.7073C24.1843 24.9516 25.6317 25.3811 26.8545 26.1534C28.0528 25.3938 29.4778 24.9516 31.0018 24.9516H40.9971C42.5211 24.9516 43.9459 25.3938 45.1444 26.1534C46.3673 25.3809 47.8143 24.9516 49.2916 24.9516H59.287C63.5028 24.9516 66.9489 28.3217 66.9489 32.4451V38.9368L70.9659 53.1771C71.1301 53.7588 70.6802 54.3274 70.0706 54.3277V54.3303H66.9487ZM36.9647 38.1055C37.4977 38.6268 37.4977 39.4726 36.9647 39.994C36.1074 40.8324 34.6341 40.2363 34.6341 39.0497C34.6341 37.8632 36.1071 37.267 36.9647 38.1055ZM35.9992 35.8922C38.8656 35.8922 40.3113 39.2978 38.2821 41.2824C36.253 43.2669 32.7709 41.8532 32.7709 39.0497C32.7709 37.3061 34.2164 35.8922 35.9992 35.8922Z" fill="#F0500B"/>
<path fill-rule="evenodd" clip-rule="evenodd" d="M57.1502 13.8847C55.7881 12.3988 52.9206 12.5039 51.5121 13.9466C49.8669 15.6318 50.2428 18.9372 51.6388 20.7072C53.1335 22.6024 55.4451 22.6024 56.9396 20.7072C57.6847 19.7626 58.1456 18.4421 58.1456 16.9696C58.1456 15.5922 57.7735 14.5646 57.1502 13.8847ZM54.4399 11C57.911 11 60.0087 13.4521 60.0087 16.9697C60.0087 18.8502 59.3977 20.5652 58.4098 21.8177C56.1647 24.6645 52.4135 24.6645 50.1684 21.8177C48.2161 19.3422 47.8508 15.0646 50.1655 12.6937C51.2646 11.568 52.8008 11 54.4399 11ZM38.8604 13.8847C37.4981 12.3988 34.6306 12.504 33.2221 13.9466C31.5771 15.6315 31.9528 18.937 33.3488 20.7072C34.8435 22.6025 37.155 22.6025 38.6496 20.7072C39.3947 19.7626 39.8555 18.4419 39.8555 16.9696C39.8555 15.5922 39.4837 14.5646 38.8604 13.8847ZM36.15 11C39.6212 11 41.719 13.4521 41.719 16.9697C41.719 18.8502 41.108 20.5653 40.1201 21.8177C37.875 24.6645 34.1238 24.6645 31.8787 21.8177C29.9264 19.3421 29.5612 15.0646 31.8756 12.6939C32.9748 11.5681 34.511 11 36.15 11ZM20.5705 13.8847C19.2084 12.3988 16.3408 12.5039 14.9324 13.9466C13.2872 15.6318 13.6632 18.9372 15.0591 20.7072C16.5538 22.6024 18.8654 22.6024 20.3601 20.7072C21.105 19.7626 21.5658 18.4419 21.5658 16.9696C21.5658 15.5922 21.1938 14.5646 20.5705 13.8847ZM17.8601 11C21.3313 11 23.429 13.4521 23.429 16.9697C23.429 18.8502 22.818 20.5652 21.8302 21.8177C19.5851 24.6645 15.8339 24.6645 13.5888 21.8177C11.6365 19.3422 11.2712 15.0646 13.5859 12.6937C14.685 11.568 16.2211 11 17.8601 11ZM50.1847 31.1368H21.8137L24.8388 47.857H47.1597L50.1847 31.1368ZM47.9501 29.3144C47.6166 28.6104 47.1751 27.9651 46.6472 27.3995C47.457 26.9877 48.3489 26.774 49.2915 26.774H59.2869C62.4741 26.774 65.0854 29.3278 65.0854 32.4451V38.1386H61.7827V35.6309C61.7827 35.1277 61.3656 34.7197 60.8511 34.7197C60.3366 34.7197 59.9195 35.1277 59.9195 35.6309V38.1386H50.8089L52.205 30.4218C52.3259 29.8252 51.8764 29.3144 51.2951 29.3144H47.9501ZM26.1703 29.3144H45.8283C44.7595 27.7495 42.9602 26.7742 40.9971 26.7742H31.0018C29.0384 26.7742 27.2394 27.7493 26.1703 29.3144ZM20.7035 29.3144C20.1334 29.3149 19.6869 29.8282 19.7863 30.3822L21.1897 38.1386H12.0791V35.6309C12.0791 35.1277 11.662 34.7197 11.1475 34.7197C10.633 34.7197 10.2159 35.1277 10.2159 35.6309V38.1386H6.91321V32.4451C6.91321 29.3277 9.52452 26.774 12.7119 26.774H22.7073C23.6501 26.774 24.5416 26.9877 25.3515 27.3993C24.8236 27.965 24.3822 28.6103 24.0487 29.3143L20.7035 29.3144ZM6.68789 39.961H21.4967L21.5193 39.9607L23.135 48.891C23.1964 49.3362 23.5864 49.6794 24.0581 49.6794H47.9402C48.3845 49.6799 48.7783 49.3676 48.8573 48.9248L50.4792 39.9609L50.5018 39.9612H65.3107L68.85 52.5082H3.14848L6.68789 39.961ZM6.91306 54.3303V60.1776H65.0854V54.3303H6.91306ZM66.9487 54.3303V61.0887C66.9487 61.5919 66.5316 61.9999 66.0171 61.9999H5.98132C5.46682 61.9999 5.04973 61.5919 5.04973 61.0887V54.3303H1.92799C1.32453 54.3303 0.834667 53.7719 1.05284 53.1061L5.04988 38.9368V32.4451C5.04988 28.3217 8.49595 24.9516 12.7119 24.9516H22.7073C24.1843 24.9516 25.6317 25.3811 26.8545 26.1534C28.0528 25.3938 29.4778 24.9516 31.0018 24.9516H40.9971C42.5211 24.9516 43.9459 25.3938 45.1444 26.1534C46.3673 25.3809 47.8143 24.9516 49.2916 24.9516H59.287C63.5028 24.9516 66.9489 28.3217 66.9489 32.4451V38.9368L70.9659 53.1771C71.1301 53.7588 70.6802 54.3274 70.0706 54.3277V54.3303H66.9487ZM36.9647 38.1055C37.4977 38.6268 37.4977 39.4726 36.9647 39.994C36.1074 40.8324 34.6341 40.2363 34.6341 39.0497C34.6341 37.8632 36.1071 37.267 36.9647 38.1055ZM35.9992 35.8922C38.8656 35.8922 40.3113 39.2978 38.2821 41.2824C36.253 43.2669 32.7709 41.8532 32.7709 39.0497C32.7709 37.3061 34.2164 35.8922 35.9992 35.8922Z" stroke="#F0500B" stroke-width="0.4" mask="url(#path-1-outside-1_3630_46282)"/>
</svg>
