<svg width="20" height="20" viewBox="0 0 20 20" fill="none" xmlns="http://www.w3.org/2000/svg">
<path d="M7.62503 20C6.16917 20 4.79612 19.5355 3.65432 18.6566C3.44104 18.4926 3.23596 18.3133 3.04456 18.1242C1.71174 16.807 1.04104 15.0527 1.15628 13.1844C1.24339 11.7723 1.81214 10.4109 2.75862 9.35117C4.01214 7.94766 5.74026 7.17461 7.62542 7.17461C7.94924 7.17461 8.2762 7.19883 8.59807 7.24648L9.09807 7.3207V11.7578L8.32815 11.5035C8.10393 11.4293 7.87073 11.3918 7.63479 11.3918C7.0387 11.3918 6.48049 11.6254 6.06292 12.0492C5.64729 12.4711 5.42346 13.0289 5.43206 13.6207C5.44339 14.3836 5.84534 15.075 6.50706 15.4711C6.81175 15.6531 7.15862 15.7598 7.51096 15.7793C7.78909 15.7945 8.0637 15.7582 8.32776 15.6711C9.23049 15.373 9.83714 14.5355 9.83714 13.5875L9.84104 8.98594V0H14.0817L14.0867 0.580469C14.0891 0.843359 14.116 1.10625 14.1668 1.36094C14.366 2.3625 14.9278 3.25508 15.7485 3.87383C16.477 4.42344 17.3465 4.71367 18.2621 4.71367C18.2836 4.71367 18.2836 4.71367 18.4793 4.72734L19.0242 4.76562V8.35938V8.94531L18.8289 8.94492H18.4395C18.4364 8.94492 18.4332 8.94492 18.4297 8.94492H18.2426C18.2418 8.94492 18.2407 8.94492 18.2395 8.94492C17.1102 8.94492 16.052 8.72969 15.0032 8.28711C14.6907 8.15508 14.3864 8.0043 14.0926 7.83594L14.1059 13.6098C14.0989 15.3176 13.4239 16.9195 12.2055 18.1238C11.2168 19.1008 9.96917 19.725 8.59729 19.9281C8.27737 19.9758 7.95042 20 7.62503 20ZM7.62503 8.34648C6.07854 8.34648 4.66057 8.98047 3.63245 10.1316C2.86057 10.9961 2.39651 12.1059 2.32542 13.2562C2.23167 14.7816 2.77932 16.2145 3.86799 17.2902C4.02542 17.4457 4.19378 17.593 4.36878 17.7277C5.30393 18.4477 6.4301 18.8281 7.62503 18.8281C7.893 18.8281 8.16214 18.8082 8.42581 18.7691C9.54964 18.6027 10.5719 18.0914 11.3821 17.2906C12.3774 16.307 12.9285 14.9996 12.9344 13.609L12.916 5.54688L13.8625 6.27695C14.3512 6.65391 14.8887 6.96719 15.4594 7.2082C16.2395 7.5375 17.0258 7.72031 17.852 7.76367V5.87109C16.8309 5.79453 15.8664 5.43164 15.0426 4.81016C13.9918 4.01797 13.2727 2.87422 13.0172 1.59023C12.9899 1.45234 12.9676 1.31289 12.9512 1.17227H11.0125V8.98633L11.0086 13.5879C11.0086 15.0422 10.0789 16.3266 8.69495 16.7836C8.29143 16.9168 7.87151 16.9723 7.44651 16.9492C6.9051 16.9195 6.37229 16.7559 5.9051 16.4766C4.89221 15.8707 4.27698 14.8094 4.25979 13.6379C4.24651 12.7301 4.58987 11.8738 5.22737 11.2266C5.86682 10.5773 6.72151 10.2199 7.63401 10.2199C7.73167 10.2199 7.82854 10.2242 7.92542 10.2324V8.35469C7.82542 8.34922 7.72503 8.34648 7.62503 8.34648Z" fill="white"/>
</svg>
