<svg width="24" height="24" viewBox="0 0 24 24" fill="none" xmlns="http://www.w3.org/2000/svg">
<path fill-rule="evenodd" clip-rule="evenodd" d="M11.5381 21V3H12.4625V21H11.5381Z" fill="black"/>
<path fill-rule="evenodd" clip-rule="evenodd" d="M11.6304 7.12715L8.98926 3.69857L9.72877 3.15857L12.0001 6.10714L14.2715 3.15857L15.0111 3.69857L12.3699 7.12715L12.0001 6.85715L11.6304 7.12715Z" fill="black"/>
<path fill-rule="evenodd" clip-rule="evenodd" d="M11.6304 16.8728L8.98926 20.3014L9.72877 20.8414L12.0001 17.8928L14.2715 20.8414L15.0111 20.3014L12.3699 16.8728L12.0001 17.1428L11.6304 16.8728Z" fill="black"/>
<path fill-rule="evenodd" clip-rule="evenodd" d="M19.7747 16.8898L3.76367 7.88977L4.22587 7.11035L20.2369 16.1104L19.7747 16.8898Z" fill="black"/>
<path fill-rule="evenodd" clip-rule="evenodd" d="M7.48084 9.87542L3.11057 10.3881L3 9.49451L6.75844 9.05364L5.27136 5.66421L6.12145 5.31067L7.8506 9.25188L7.42555 9.42865L7.48084 9.87542Z" fill="black"/>
<path fill-rule="evenodd" clip-rule="evenodd" d="M16.1494 14.7483L17.8786 18.6895L18.7287 18.336L17.2416 14.9465L21 14.5057L20.8894 13.6121L16.5192 14.1247L16.5744 14.5715L16.1494 14.7483Z" fill="black"/>
<path fill-rule="evenodd" clip-rule="evenodd" d="M19.7747 7.11023L3.76367 16.1103L4.22587 16.8897L20.2369 7.88965L19.7747 7.11023Z" fill="black"/>
<path fill-rule="evenodd" clip-rule="evenodd" d="M7.48084 14.1246L3.11057 13.6119L3 14.5055L6.75844 14.9464L5.27136 18.3358L6.12145 18.6894L7.8506 14.7481L7.42555 14.5713L7.48084 14.1246Z" fill="black"/>
<path fill-rule="evenodd" clip-rule="evenodd" d="M16.1494 9.25175L17.8786 5.31055L18.7287 5.66409L17.2416 9.05353L21 9.49439L20.8894 10.388L16.5192 9.87529L16.5744 9.42852L16.1494 9.25175Z" fill="black"/>
</svg>
