<svg width="24" height="24" viewBox="0 0 24 24" fill="none" xmlns="http://www.w3.org/2000/svg">
<path d="M3 6.44444H21M9.75 10.8889V17.5556M14.25 10.8889V17.5556M4.125 6.44444L5.25 19.7778C5.25 20.3671 5.48705 20.9324 5.90901 21.3491C6.33097 21.7659 6.90326 22 7.5 22H16.5C17.0967 22 17.669 21.7659 18.091 21.3491C18.5129 20.9324 18.75 20.3671 18.75 19.7778L19.875 6.44444M8.625 6.44444V3.11111C8.625 2.81643 8.74353 2.53381 8.9545 2.32544C9.16548 2.11706 9.45163 2 9.75 2H14.25C14.5484 2 14.8345 2.11706 15.0455 2.32544C15.2565 2.53381 15.375 2.81643 15.375 3.11111V6.44444" stroke="#E90505" stroke-width="1.5" stroke-linecap="round" stroke-linejoin="round"/>
</svg>
