<svg width="24" height="24" viewBox="0 0 24 24" fill="none" xmlns="http://www.w3.org/2000/svg">
<path d="M20.7709 4.69154L12.0831 1.05058C11.9543 0.98227 11.7998 0.983228 11.6719 1.05298L3.22447 4.69394C3.08592 4.76945 3 4.91375 3 5.07075V11.0762C3.00507 16.0129 5.95016 20.479 10.5046 22.4568L11.6772 22.9643C11.7868 23.0117 11.9115 23.012 12.0214 22.9647L13.3426 22.3981C17.9815 20.4632 20.9995 15.9539 21 10.9571V5.07075C21 4.91207 20.9119 4.76609 20.7709 4.69154ZM20.135 10.9571C20.134 15.6095 17.3233 19.8074 13.0039 21.6078L13.001 21.6092L11.8505 22.1025L10.8508 21.6694C6.61125 19.8285 3.86962 15.6716 3.8648 11.0762V5.32508L11.8826 1.91759L20.135 5.32819V10.9571Z" fill="#0F0F10"/>
<path d="M17.6139 10.1412C17.2576 9.69671 16.6998 9.42059 16.158 9.42059H14.7249C15.0475 8.88856 15.2902 8.35317 15.4381 7.84336C15.6638 7.0654 15.6559 6.38723 15.4152 5.88217C15.1441 5.3133 14.5948 5 13.8684 5C13.7031 5 13.5543 5.10318 13.4913 5.26129C12.9257 6.6814 11.4504 8.7225 10.0604 10.0671C9.9186 9.55709 9.46407 9.18281 8.92638 9.18281H7.18022C6.52945 9.18281 6 9.73088 6 10.4045V15.7783C6 16.4519 6.52945 17 7.18022 17H8.92638C9.32448 17 9.67692 16.7947 9.89079 16.4812C10.2143 16.8034 10.6432 17 11.1132 17H15.51C15.9961 17 16.4289 16.7858 16.7618 16.3804C17.0362 16.0463 17.231 15.5949 17.3253 15.075L17.9734 11.5014C18.0603 11.0219 17.9327 10.5389 17.6139 10.1412ZM9.29085 15.7783C9.29085 15.9863 9.12735 16.1556 8.92638 16.1556H7.18022C6.97925 16.1556 6.81572 15.9863 6.81572 15.7783V10.4045C6.81572 10.1965 6.97925 10.0272 7.18022 10.0272H8.92638C9.12735 10.0272 9.29085 10.1965 9.29085 10.4045V15.7783ZM17.1717 11.3456L16.5236 14.9192C16.4152 15.517 16.092 16.1556 15.51 16.1556H11.1132C10.5582 16.1556 10.1066 15.6359 10.1066 14.9971V11.1514C11.644 9.83018 13.3658 7.56112 14.1259 5.86518C14.5314 5.93621 14.6428 6.16993 14.6837 6.25574C14.9485 6.81123 14.7287 8.09027 13.6208 9.58585C13.5263 9.71338 13.51 9.88543 13.5787 10.0296C13.6474 10.1737 13.7892 10.265 13.9445 10.265H16.1581C16.4589 10.265 16.7839 10.428 16.9862 10.6804C17.1 10.8225 17.2247 11.0532 17.1717 11.3456Z" fill="#0F0F10"/>
<path d="M20.7733 4.68711L20.7733 4.68712C20.9159 4.76253 21.005 4.91021 21.005 5.07075V10.9571C21.0045 15.956 17.9853 20.467 13.3445 22.4027L20.7733 4.68711ZM20.7733 4.68711L20.7729 4.68693L12.0855 1.04617C12.0854 1.04613 12.0854 1.0461 12.0853 1.04606C11.955 0.977103 11.799 0.97807 11.6697 1.04848L3.22249 4.68935L3.22248 4.68933L3.22207 4.68955C3.08193 4.76593 2.995 4.91191 2.995 5.07075L2.995 11.0762H3L2.995 11.0762C3.00007 16.0149 5.94636 20.4828 10.5027 22.4614L11.6752 22.9688C11.786 23.0168 11.9122 23.0171 12.0233 22.9693L13.3445 22.4027L20.7733 4.68711ZM13.002 21.6032L13.0017 21.6033L12.9991 21.6046L12.9988 21.6047L11.8505 22.0971L10.8527 21.6648C6.61505 19.8247 3.87462 15.6696 3.8698 11.0762V5.32838L11.8826 1.92301L20.13 5.33154V10.9571C20.129 15.6074 17.3196 19.8035 13.002 21.6032ZM13.4866 5.25944C12.9222 6.67666 11.4508 8.71335 10.063 10.0577C9.91805 9.54981 9.46363 9.17781 8.92638 9.17781H7.18022C6.52653 9.17781 5.995 9.72828 5.995 10.4045V15.7783C5.995 16.4545 6.52653 17.005 7.18022 17.005H8.92638C9.32415 17.005 9.67647 16.8009 9.89152 16.489C10.2154 16.8095 10.6439 17.005 11.1132 17.005H15.51C15.9977 17.005 16.4319 16.79 16.7656 16.3836C17.0407 16.0487 17.2358 15.5964 17.3302 15.0759L17.9783 11.5023C18.0655 11.0213 17.9374 10.5368 17.6178 10.1381C17.2606 9.69247 16.7014 9.41559 16.158 9.41559H14.7338C15.0542 8.88575 15.2956 8.35263 15.4429 7.84476C15.6688 7.06613 15.6612 6.38659 15.4198 5.88002C15.1477 5.3091 14.5963 4.995 13.8684 4.995C13.701 4.995 13.5503 5.0995 13.4866 5.25944ZM9.28585 15.7783C9.28585 15.9837 9.12443 16.1506 8.92638 16.1506H7.18022C6.98217 16.1506 6.82072 15.9837 6.82072 15.7783V10.4045C6.82072 10.1991 6.98217 10.0322 7.18022 10.0322H8.92638C9.12443 10.0322 9.28585 10.1991 9.28585 10.4045V15.7783ZM17.1667 11.3447L16.5187 14.9184C16.4646 15.2167 16.3569 15.5251 16.1903 15.7587C16.0238 15.9922 15.7989 16.1506 15.51 16.1506H11.1132C10.5616 16.1506 10.1116 15.6339 10.1116 14.9971V11.1537C11.648 9.83274 13.3679 7.56642 14.1288 5.87078C14.3285 5.90642 14.4557 5.98173 14.5381 6.05857C14.6211 6.13594 14.6588 6.21511 14.6792 6.25789C14.8108 6.53404 14.8224 6.99125 14.6622 7.56692C14.5021 8.14238 14.1705 8.83549 13.6168 9.58288C13.5212 9.71191 13.5047 9.88593 13.5742 10.0317C13.6437 10.1775 13.7872 10.27 13.9445 10.27H16.1581C16.4572 10.27 16.7809 10.4322 16.9823 10.6835C17.0957 10.825 17.2194 11.0543 17.1667 11.3447Z" stroke="#0F0F10" stroke-width="0.01"/>
</svg>
