<svg width="24" height="24" viewBox="0 0 24 24" fill="none" xmlns="http://www.w3.org/2000/svg">
<path d="M11.816 23.728L11.8158 23.7279L11.7832 0.230869L11.8024 0.27704C11.8024 0.277029 11.8024 0.277019 11.8024 0.277009C11.9292 0.224331 12.0707 0.224331 12.1975 0.277008C14.0763 1.06156 16.0442 1.55383 18.0474 1.73963L18.0474 1.73963C19.2575 1.85121 20.4881 1.85121 21.7025 1.73964L21.703 1.73959C21.8535 1.72424 21.9883 1.77385 22.0949 1.87109L22.095 1.87113C22.2017 1.96823 22.2624 2.1057 22.2624 2.24979V10.1954C22.2624 15.9715 18.6401 21.2451 13.2498 23.3181L12.1841 23.7279L12.184 23.728C12.1246 23.751 12.0628 23.7623 12 23.7623C11.9372 23.7623 11.8753 23.751 11.816 23.728ZM2.8156 2.80776L2.7625 2.80447V2.85767V10.1954C2.7625 15.5507 6.12023 20.4395 11.1185 22.3611C11.1185 22.3611 11.1185 22.3611 11.1185 22.3611L11.982 22.6937L12 22.7006L12.018 22.6937L12.8815 22.3615C17.8798 20.4396 21.2375 15.5507 21.2375 10.1954V2.85767V2.80447L21.1844 2.80777C20.1066 2.87466 19.023 2.85924 17.9526 2.75988L17.948 2.80967L17.9526 2.75988C15.9229 2.57171 13.9281 2.08479 12.0188 1.3117L12 1.3041L11.9812 1.3117C10.0719 2.08479 8.07712 2.57179 6.04736 2.75988L6.04735 2.75988C4.97694 2.85924 3.89262 2.87458 2.8156 2.80776Z" fill="#0F0F10" stroke="white" stroke-width="0.1"/>
<path d="M13.4866 5.25944C12.9222 6.67666 11.4508 8.71335 10.063 10.0577C9.91806 9.5498 9.46364 9.17781 8.92638 9.17781H7.18022C6.52653 9.17781 5.995 9.72828 5.995 10.4045V15.7783C5.995 16.4545 6.52653 17.005 7.18022 17.005H8.92638C9.32415 17.005 9.67647 16.8009 9.89152 16.489C10.2154 16.8095 10.6439 17.005 11.1132 17.005H15.51C15.9977 17.005 16.4319 16.79 16.7656 16.3836C17.0407 16.0487 17.2358 15.5964 17.3302 15.0759L17.9783 11.5023C18.0655 11.0213 17.9374 10.5368 17.6178 10.1381C17.2606 9.69247 16.7014 9.41559 16.158 9.41559H14.7338C15.0542 8.88575 15.2956 8.35263 15.4429 7.84476C15.6688 7.06613 15.6612 6.38659 15.4198 5.88002C15.1477 5.3091 14.5963 4.995 13.8684 4.995C13.701 4.995 13.5503 5.0995 13.4866 5.25944ZM9.28585 15.7783C9.28585 15.9837 9.12443 16.1506 8.92638 16.1506H7.18022C6.98217 16.1506 6.82072 15.9837 6.82072 15.7783V10.4045C6.82072 10.1991 6.98217 10.0322 7.18022 10.0322H8.92638C9.12443 10.0322 9.28585 10.1991 9.28585 10.4045V15.7783ZM17.1667 11.3447L16.5187 14.9184C16.4646 15.2167 16.3569 15.5251 16.1903 15.7587C16.0238 15.9922 15.7989 16.1506 15.51 16.1506H11.1132C10.5616 16.1506 10.1116 15.6339 10.1116 14.9971V11.1537C11.648 9.83274 13.3679 7.56642 14.1288 5.87078C14.3285 5.90642 14.4557 5.98173 14.5381 6.05857C14.6211 6.13594 14.6588 6.21511 14.6792 6.25789C14.8108 6.53404 14.8224 6.99125 14.6622 7.56692C14.5021 8.14238 14.1705 8.83549 13.6168 9.58288C13.5212 9.71191 13.5047 9.88593 13.5742 10.0317C13.6437 10.1775 13.7872 10.27 13.9445 10.27H16.1581C16.4572 10.27 16.7809 10.4322 16.9823 10.6835C17.0957 10.825 17.2194 11.0543 17.1667 11.3447Z" fill="#0F0F10" stroke="black" stroke-width="0.01"/>
</svg>
