<svg width="24" height="24" viewBox="0 0 24 24" fill="none" xmlns="http://www.w3.org/2000/svg">
<g clip-path="url(#clip0_3988_17931)">
<path d="M21.637 4.14427C18.4103 3.23949 15.1647 1.83066 12.2509 0.0701366C12.0961 -0.0233789 11.9041 -0.0233789 11.7494 0.0701366C8.75154 1.88124 5.68126 3.21385 2.36296 4.14427C2.14859 4.20432 2 4.40372 2 4.63121V9.7896C2 15.1016 4.39461 18.6178 6.40351 20.632C8.56622 22.8007 11.0855 24 12.0001 24C12.9147 24 15.434 22.8007 17.5967 20.632C19.6055 18.6178 22 15.1017 22 9.7896V4.63116C22 4.40372 21.8514 4.20432 21.637 4.14427ZM21.0134 9.78955C21.0134 14.7509 18.7799 18.0319 16.9061 19.9108C14.7794 22.0434 12.5055 22.9902 12.0001 22.9902C11.4948 22.9902 9.22076 22.0434 7.09397 19.9108C5.22024 18.0319 2.98668 14.7509 2.98668 9.78955V5.01441C6.15992 4.09238 9.11514 2.80562 12.0002 1.08985C14.8133 2.7601 17.9159 4.11085 21.0134 5.01422V9.78955Z" fill="black"/>
<path d="M17.6139 10.1412C17.2576 9.69671 16.6998 9.42059 16.158 9.42059H14.7249C15.0475 8.88856 15.2902 8.35317 15.4381 7.84336C15.6638 7.0654 15.6559 6.38723 15.4152 5.88217C15.1441 5.3133 14.5948 5 13.8684 5C13.7031 5 13.5543 5.10318 13.4913 5.26129C12.9257 6.6814 11.4504 8.7225 10.0604 10.0671C9.9186 9.55709 9.46407 9.18281 8.92638 9.18281H7.18022C6.52945 9.18281 6 9.73088 6 10.4045V15.7783C6 16.4519 6.52945 17 7.18022 17H8.92638C9.32448 17 9.67692 16.7947 9.89079 16.4812C10.2143 16.8034 10.6432 17 11.1132 17H15.51C15.9961 17 16.4289 16.7858 16.7618 16.3804C17.0362 16.0463 17.231 15.5949 17.3253 15.075L17.9734 11.5014C18.0603 11.0219 17.9327 10.5389 17.6139 10.1412ZM9.29085 15.7783C9.29085 15.9863 9.12735 16.1556 8.92638 16.1556H7.18022C6.97925 16.1556 6.81572 15.9863 6.81572 15.7783V10.4045C6.81572 10.1965 6.97925 10.0272 7.18022 10.0272H8.92638C9.12735 10.0272 9.29085 10.1965 9.29085 10.4045V15.7783ZM17.1717 11.3456L16.5236 14.9192C16.4152 15.517 16.092 16.1556 15.51 16.1556H11.1132C10.5582 16.1556 10.1066 15.6359 10.1066 14.9971V11.1514C11.644 9.83018 13.3658 7.56112 14.1259 5.86518C14.5314 5.93621 14.6428 6.16993 14.6837 6.25574C14.9485 6.81123 14.7287 8.09027 13.6208 9.58585C13.5263 9.71338 13.51 9.88543 13.5787 10.0296C13.6474 10.1737 13.7892 10.265 13.9445 10.265H16.1581C16.4589 10.265 16.7839 10.428 16.9862 10.6804C17.1 10.8225 17.2247 11.0532 17.1717 11.3456Z" fill="#0F0F10"/>
<path d="M16.4744 14.9103L17.1225 11.3367C17.1719 11.0641 17.0562 10.8478 16.9472 10.7116C16.7536 10.4701 16.4424 10.315 16.1581 10.315H13.9445C13.7692 10.315 13.6103 10.212 13.5336 10.0511C13.457 9.89038 13.475 9.69859 13.5806 9.55609C14.1316 8.81232 14.4604 8.12412 14.6188 7.55486L16.4744 14.9103ZM16.4744 14.9103C16.4211 15.2046 16.3152 15.506 16.1537 15.7325C15.9927 15.9584 15.7799 16.1056 15.51 16.1056H11.1132C10.5921 16.1056 10.1566 15.6152 10.1566 14.9971V11.1743C11.6838 9.856 13.3867 7.61442 14.1552 5.92176M16.4744 14.9103L14.1552 5.92176M14.1552 5.92176C14.3269 5.95803 14.4364 6.02519 14.5074 6.09148C14.5839 6.16284 14.6187 6.23562 14.6386 6.27725L14.1552 5.92176ZM12.2768 0.0273416C12.1061 -0.0757776 11.8941 -0.0757831 11.7235 0.0273403C8.72948 1.83615 5.66335 3.16694 2.34946 4.09613C2.11284 4.16241 1.95 4.38201 1.95 4.63121V9.7896C1.95 15.1182 4.35257 18.6464 6.36811 20.6674C7.4529 21.7551 8.62711 22.5999 9.64532 23.1729C10.1544 23.4594 10.6251 23.6783 11.0267 23.8257C11.4271 23.9727 11.7627 24.05 12.0001 24.05C12.2376 24.05 12.5731 23.9727 12.9735 23.8257C13.3751 23.6783 13.8458 23.4594 14.3549 23.1729C15.3731 22.5999 16.5473 21.7551 17.6321 20.6674C19.6476 18.6465 22.05 15.1183 22.05 9.7896V4.63116C22.05 4.382 21.8872 4.1624 21.6505 4.09613C18.4283 3.19258 15.1867 1.78558 12.2768 0.0273416ZM20.9634 9.78955C20.9634 14.7343 18.7378 18.0033 16.8707 19.8755C15.8109 20.9382 14.7146 21.7053 13.8207 22.2066C13.3737 22.4573 12.9778 22.6412 12.6629 22.7623C12.3456 22.8843 12.1164 22.9402 12.0001 22.9402C11.8839 22.9402 11.6546 22.8843 11.3374 22.7623C11.0224 22.6412 10.6265 22.4573 10.1795 22.2066C9.2856 21.7053 8.18919 20.9382 7.12937 19.8755C5.2623 18.0033 3.03668 14.7343 3.03668 9.78955V5.05193C6.19103 4.13217 9.13061 2.85182 12.0003 1.148C14.7992 2.80692 17.8832 4.14993 20.9634 5.0517V9.78955ZM17.6529 10.1099C17.2877 9.6543 16.7158 9.37059 16.158 9.37059H14.8132C15.115 8.86045 15.3438 8.34768 15.4861 7.8573C15.7138 7.07275 15.7083 6.38085 15.4604 5.86066C15.1795 5.27132 14.6104 4.95 13.8684 4.95C13.6819 4.95 13.5151 5.06642 13.4448 5.24279C12.8904 6.63477 11.4531 8.63314 10.0838 9.97453C9.91324 9.48525 9.45984 9.13281 8.92638 9.13281H7.18022C6.50023 9.13281 5.95 9.70491 5.95 10.4045V15.7783C5.95 16.4779 6.50023 17.05 7.18022 17.05H8.92638C9.32148 17.05 9.67281 16.8563 9.89769 16.5574C10.2245 16.8639 10.649 17.05 11.1132 17.05H15.51C16.0123 17.05 16.4589 16.828 16.8004 16.4122C17.0813 16.0701 17.2791 15.6103 17.3745 15.0839L18.0226 11.5103C18.1122 11.0159 17.9803 10.5183 17.6529 10.1099ZM9.24085 15.7783C9.24085 15.9604 9.09812 16.1056 8.92638 16.1056H7.18022C7.00848 16.1056 6.86572 15.9604 6.86572 15.7783V10.4045C6.86572 10.2225 7.00847 10.0772 7.18022 10.0772H8.92638C9.09812 10.0772 9.24085 10.2225 9.24085 10.4045V15.7783Z" stroke="white" stroke-width="0.1"/>
</g>
<defs>
<clipPath id="clip0_3988_17931">
<rect width="24" height="24" fill="white"/>
</clipPath>
</defs>
</svg>
