<svg width="36" height="24" viewBox="0 0 36 24" fill="none" xmlns="http://www.w3.org/2000/svg">
<rect x="0.5" y="0.5" width="35" height="23" rx="3.5" fill="white" stroke="#D9D9D9"/>
<path d="M9.48318 3H16.4716C17.4471 3 18.0538 3.8172 17.8263 4.82311L14.5727 19.1797C14.343 20.1821 13.3663 21 12.3901 21H5.40242C4.42827 21 3.82017 20.1821 4.04774 19.1797L7.3027 4.82311C7.53027 3.8172 8.50647 3 9.48318 3Z" fill="#E21836"/>
<path d="M15.889 3H23.9255C24.9008 3 24.461 3.8172 24.2316 4.82311L20.9785 19.1797C20.7502 20.1821 20.8214 21 19.844 21H11.8076C10.8302 21 10.2253 20.1821 10.4549 19.1797L13.7078 4.82311C13.9388 3.8172 14.913 3 15.889 3Z" fill="#00447C"/>
<path d="M23.6074 3H30.5958C31.5727 3 32.1794 3.8172 31.95 4.82311L28.6969 19.1797C28.4673 20.1821 27.4899 21 26.5132 21H19.528C18.5506 21 17.9444 20.1821 18.1733 19.1797L21.4269 4.82311C21.6545 3.8172 22.63 3 23.6074 3Z" fill="#007B84"/>
<path d="M11.307 7.60152C10.5884 7.60905 10.3762 7.60152 10.3084 7.58506C10.2823 7.71234 9.79735 10.0114 9.79599 10.0134C9.69157 10.4785 9.6156 10.8101 9.35754 11.0242C9.21105 11.1487 9.04004 11.2087 8.84176 11.2087C8.52306 11.2087 8.3374 11.0461 8.30623 10.7376L8.30026 10.6317C8.30026 10.6317 8.39736 10.0086 8.39736 10.0051C8.39736 10.0051 8.90632 7.90998 8.99745 7.63303C9.00222 7.61728 9.00358 7.60905 9.00478 7.60152C8.0141 7.61045 7.83848 7.60152 7.82639 7.58506C7.81975 7.60765 7.79522 7.73754 7.79522 7.73754L7.27552 10.099L7.23089 10.2992L7.14453 10.9543C7.14453 11.1487 7.18166 11.3073 7.25559 11.4414C7.49236 11.8666 8.16774 11.9303 8.54981 11.9303C9.04208 11.9303 9.50386 11.8228 9.81592 11.6266C10.3576 11.2976 10.4993 10.7835 10.6257 10.3266L10.6843 10.0921C10.6843 10.0921 11.2086 7.91611 11.2977 7.63303C11.3011 7.61728 11.3024 7.60905 11.307 7.60152ZM13.0909 9.35695C12.9645 9.35695 12.7336 9.38846 12.5261 9.49297C12.4508 9.53271 12.3796 9.57858 12.3045 9.62427L12.3723 9.37271L12.3351 9.33034C11.8952 9.4219 11.7967 9.43415 11.3903 9.49297L11.3562 9.51626C11.309 9.91838 11.2671 10.2207 11.0922 11.0111C11.0256 11.3024 10.9564 11.5965 10.8871 11.8871L10.9059 11.9241C11.3223 11.9015 11.4487 11.9015 11.8107 11.9076L11.84 11.8749C11.886 11.6328 11.8919 11.5761 11.9938 11.0857C12.0417 10.8532 12.1415 10.3424 12.1907 10.1605C12.2811 10.1174 12.3704 10.0751 12.4556 10.0751C12.6584 10.0751 12.6337 10.257 12.6259 10.3294C12.6172 10.4511 12.5433 10.8485 12.4675 11.1897L12.4169 11.4099C12.3816 11.5726 12.343 11.7306 12.3077 11.8919L12.3231 11.9241C12.7336 11.9015 12.8588 11.9015 13.2093 11.9076L13.2505 11.8749C13.3139 11.4967 13.3325 11.3956 13.4449 10.845L13.5014 10.592C13.6113 10.0969 13.6665 9.8459 13.5834 9.64143C13.4955 9.41227 13.2846 9.35695 13.0909 9.35695ZM15.0837 9.87529C14.8655 9.91836 14.7264 9.94707 14.5881 9.96563C14.4509 9.98821 14.3172 10.0087 14.1063 10.0388L14.0896 10.0544L14.0743 10.0668C14.0523 10.2282 14.037 10.3677 14.0079 10.5318C13.9832 10.7014 13.9452 10.8942 13.8834 11.1711C13.8355 11.3831 13.8108 11.457 13.7836 11.5316C13.757 11.6061 13.7277 11.6786 13.6739 11.8871L13.6865 11.9064L13.697 11.9241C13.8941 11.9144 14.023 11.9076 14.1556 11.9064C14.2879 11.9015 14.425 11.9064 14.6373 11.9076L14.6558 11.892L14.6758 11.8749C14.7064 11.6868 14.711 11.6363 14.7298 11.5445C14.7483 11.4461 14.7804 11.3099 14.8589 10.9462C14.896 10.7753 14.9374 10.605 14.9759 10.4306C15.0159 10.2569 15.0578 10.0859 15.0977 9.91503L15.0917 9.89438L15.0837 9.87529ZM15.0884 9.17641C14.8901 9.05614 14.5421 9.0943 14.3079 9.26044C14.0744 9.42325 14.0478 9.65433 14.2454 9.77617C14.4402 9.89312 14.7896 9.85828 15.0218 9.69074C15.2548 9.52443 15.2839 9.29545 15.0884 9.17641ZM16.2875 11.9618C16.6886 11.9618 17.0998 11.8481 17.4093 11.511C17.6474 11.2375 17.7566 10.8307 17.7944 10.6631C17.9176 10.1078 17.8217 9.84856 17.7013 9.69066C17.5183 9.44994 17.195 9.37274 16.8596 9.37274C16.6579 9.37274 16.1776 9.39322 15.8023 9.74878C15.5329 10.0052 15.4084 10.3533 15.3332 10.6869C15.2574 11.0269 15.1702 11.6389 15.7179 11.8667C15.8868 11.9413 16.1304 11.9618 16.2875 11.9618ZM16.2561 10.7123C16.3486 10.2918 16.4578 9.9389 16.7365 9.9389C16.9548 9.9389 16.9707 10.2015 16.8736 10.6234C16.8562 10.7171 16.7765 11.0653 16.6687 11.2135C16.5934 11.3229 16.5043 11.3893 16.4058 11.3893C16.3765 11.3893 16.2023 11.3893 16.1996 11.1234C16.1982 10.9921 16.2243 10.858 16.2561 10.7123ZM18.7972 11.9077L18.8285 11.8749C18.873 11.6328 18.8803 11.5759 18.9788 11.0858C19.028 10.8533 19.1299 10.3424 19.1777 10.1605C19.2684 10.1173 19.3561 10.0749 19.444 10.0749C19.6455 10.0749 19.6209 10.2568 19.6129 10.3293C19.6056 10.4511 19.5317 10.8484 19.4545 11.1896L19.4067 11.4098C19.37 11.5726 19.3302 11.7305 19.2949 11.8919L19.3103 11.9241C19.7221 11.9015 19.8426 11.9015 20.1952 11.9077L20.2377 11.8749C20.2996 11.4966 20.3163 11.3954 20.4321 10.845L20.4873 10.5919C20.5977 10.0968 20.6535 9.84595 20.5718 9.64148C20.4813 9.41232 20.2691 9.357 20.0781 9.357C19.9516 9.357 19.7194 9.38834 19.5131 9.49303C19.4394 9.53277 19.3654 9.57846 19.2929 9.62432L19.3561 9.37276L19.3222 9.33022C18.8824 9.42195 18.7819 9.43421 18.376 9.49303L18.3448 9.51631C18.2956 9.91843 18.2555 10.2206 18.0806 11.0112C18.014 11.3025 17.9448 11.5966 17.8757 11.8872L17.8942 11.9241C18.3114 11.9015 18.4359 11.9015 18.7972 11.9077ZM21.8233 11.924C21.8492 11.7941 22.003 11.0242 22.0044 11.0242C22.0044 11.0242 22.1354 10.4593 22.1434 10.4388C22.1434 10.4388 22.1846 10.38 22.2258 10.3567H22.2865C22.8586 10.3567 23.5047 10.3567 24.0111 9.97384C24.3557 9.71124 24.5913 9.32348 24.6964 8.85221C24.7236 8.73667 24.7437 8.59924 24.7437 8.46182C24.7437 8.28133 24.7085 8.10276 24.6066 7.96324C24.3484 7.59193 23.8341 7.5851 23.2405 7.5823C23.2386 7.5823 22.9479 7.5851 22.9479 7.5851C22.188 7.59473 21.8833 7.59193 21.7581 7.57617C21.7475 7.63307 21.7276 7.73425 21.7276 7.73425C21.7276 7.73425 21.4554 9.03077 21.4554 9.03287C21.4554 9.03287 20.804 11.7894 20.7734 11.9193C21.4368 11.9111 21.7088 11.9111 21.8233 11.924ZM22.3277 9.62091C22.3277 9.62091 22.6171 8.32702 22.6157 8.33192L22.6251 8.26557L22.6292 8.21498L22.7448 8.22723C22.7448 8.22723 23.3417 8.27993 23.3557 8.28133C23.5912 8.37499 23.6883 8.6164 23.6205 8.93151C23.5587 9.21949 23.377 9.4616 23.1434 9.57854C22.9511 9.67763 22.7155 9.68586 22.4728 9.68586H22.3158L22.3277 9.62091ZM24.1296 10.7363C24.0531 11.0714 23.9652 11.6834 24.5101 11.9015C24.6838 11.9775 24.8395 12.0001 24.9978 11.9918C25.1649 11.9826 25.3197 11.8964 25.4631 11.7725C25.4502 11.8234 25.4372 11.8744 25.4243 11.9255L25.449 11.9582C25.8409 11.9413 25.9626 11.9413 26.3872 11.9446L26.4257 11.9145C26.4877 11.5398 26.5461 11.176 26.7073 10.4593C26.7858 10.116 26.8642 9.77607 26.9447 9.43417L26.9321 9.39653C26.4937 9.48004 26.3765 9.49789 25.9547 9.55934L25.9227 9.58613C25.9184 9.62096 25.914 9.6544 25.9099 9.68784C25.8443 9.57895 25.7493 9.48599 25.6026 9.42804C25.4151 9.35224 24.9746 9.44993 24.596 9.80425C24.3299 10.0572 24.2021 10.4038 24.1296 10.7363ZM25.0504 10.7568C25.1443 10.3438 25.2521 9.99437 25.5314 9.99437C25.7081 9.99437 25.8011 10.1619 25.7822 10.4476C25.7672 10.5189 25.751 10.594 25.7318 10.6789C25.7038 10.8016 25.6735 10.9233 25.644 11.0451C25.6141 11.1284 25.5791 11.207 25.5408 11.2594C25.4689 11.3641 25.2979 11.429 25.1995 11.429C25.1715 11.429 24.9991 11.429 24.9932 11.1678C24.9918 11.0377 25.0179 10.9038 25.0504 10.7568ZM29.8591 9.39319L29.8252 9.35345C29.3914 9.44378 29.3128 9.45814 28.9142 9.51346L28.8849 9.54357C28.8836 9.54847 28.8824 9.556 28.8803 9.56282L28.879 9.556C28.5823 10.2596 28.5909 10.1078 28.3494 10.6617C28.348 10.6365 28.348 10.6207 28.3467 10.5939L28.2862 9.39319L28.2482 9.35345C27.7938 9.44378 27.783 9.45814 27.3633 9.51346L27.3306 9.54357C27.326 9.55792 27.326 9.57368 27.3233 9.59083L27.326 9.59696C27.3785 9.87251 27.3659 9.81106 27.4185 10.2459C27.443 10.4593 27.4757 10.674 27.5003 10.8847C27.5417 11.2375 27.5648 11.4111 27.6154 11.9495C27.332 12.4302 27.2649 12.6121 26.992 13.034L26.9939 13.0382L26.8017 13.3505C26.7798 13.3834 26.7598 13.406 26.7319 13.4156C26.7012 13.4312 26.6614 13.434 26.606 13.434H26.4995L26.3413 13.9749L26.8842 13.9846C27.2029 13.9832 27.4032 13.83 27.511 13.6241L27.8524 13.0229H27.8469L27.8829 12.9806C28.1125 12.4726 29.8591 9.39319 29.8591 9.39319ZM24.1296 16.4977H23.8993L24.7516 13.6002H25.0344L25.1241 13.3017L25.1328 13.6337C25.1223 13.8388 25.2793 14.0207 25.6919 13.9906H26.169L26.3332 13.4327H26.1537C26.0504 13.4327 26.0026 13.4059 26.0085 13.3485L25.9998 13.0108H25.1163V13.0125C24.8307 13.0187 23.9776 13.0407 23.8049 13.088C23.5959 13.1433 23.3756 13.3061 23.3756 13.3061L23.4622 13.0073H22.6357L22.4635 13.6002L21.5997 16.542H21.4321L21.2677 17.0959H22.9139L22.8587 17.2806H23.6698L23.7236 17.0959H23.9512L24.1296 16.4977ZM23.4542 14.189C23.3218 14.2266 23.0755 14.3407 23.0755 14.3407L23.2946 13.6002H23.9512L23.7928 14.1398C23.7928 14.1398 23.5899 14.152 23.4542 14.189ZM23.4668 15.2469C23.4668 15.2469 23.2605 15.2735 23.1247 15.305C22.991 15.3467 22.7403 15.4779 22.7403 15.4779L22.9665 14.7073H23.6266L23.4668 15.2469ZM23.0988 16.5045H22.4402L22.6311 15.8542H23.2878L23.0988 16.5045ZM24.6851 14.7073H25.6346L25.4981 15.1614H24.5361L24.3916 15.6579H25.2334L24.596 16.5803C24.5514 16.6481 24.5114 16.6721 24.4669 16.6911C24.4223 16.7144 24.3637 16.7417 24.2959 16.7417H24.0624L23.9019 17.2855H24.5127C24.8302 17.2855 25.0178 17.137 25.1563 16.9422L25.5934 16.3274L25.6872 16.9516C25.7071 17.0686 25.7889 17.137 25.8443 17.1636C25.9054 17.1951 25.9686 17.2492 26.0579 17.2573C26.1536 17.2615 26.2228 17.2648 26.2687 17.2648H26.5689L26.7491 16.6563H26.6307C26.5627 16.6563 26.4457 16.6446 26.4258 16.6227C26.4059 16.5961 26.4059 16.5551 26.3951 16.4928L26.2999 15.8671H25.91L26.081 15.6579H27.0412L27.1889 15.1614H26.2999L26.4384 14.7073H27.3247L27.489 14.1473H24.8468L24.6851 14.7073ZM16.666 16.631L16.8876 15.8733H17.7984L17.9648 15.3098H17.0532L17.1923 14.8434H18.0832L18.2482 14.2977H16.0192L15.8576 14.8434H16.364L16.2289 15.3098H15.7211L15.5528 15.8829H16.0591L15.7637 16.8853C15.7239 17.018 15.7824 17.0686 15.8196 17.1302C15.8576 17.1903 15.8961 17.23 15.9826 17.2526C16.0719 17.2731 16.133 17.2854 16.2161 17.2854H17.2429L17.4259 16.6611L16.9707 16.7253C16.8828 16.7253 16.6394 16.7145 16.666 16.631ZM16.7705 13.0039L16.5396 13.4326C16.4902 13.5263 16.4458 13.5844 16.4058 13.6112C16.3705 13.6337 16.3007 13.6432 16.1995 13.6432H16.0791L15.9181 14.1917H16.318C16.5103 14.1917 16.658 14.1192 16.7286 14.083C16.8044 14.0413 16.8243 14.0651 16.8829 14.007L17.018 13.8867H18.2669L18.4326 13.3157H17.5184L17.678 13.0039H16.7705ZM18.6142 16.642C18.593 16.6105 18.6083 16.555 18.6408 16.4394L18.9822 15.2782H20.1965C20.3735 15.2756 20.5012 15.2735 20.5844 15.2674C20.6736 15.2578 20.7707 15.225 20.8765 15.1662C20.9857 15.1046 21.0415 15.0396 21.0887 14.965C21.1414 14.8906 21.2258 14.7278 21.2984 14.4768L21.7275 13.0073L20.4673 13.0148C20.4673 13.0148 20.0793 13.0737 19.9085 13.1386C19.7361 13.2111 19.4898 13.4135 19.4898 13.4135L19.6036 13.0106H18.8251L17.7353 16.7253C17.6966 16.8696 17.6707 16.9742 17.6648 17.0371C17.6627 17.1048 17.7479 17.1719 17.8031 17.2225C17.8683 17.2731 17.9648 17.2649 18.0572 17.2731C18.1545 17.2806 18.2928 17.2853 18.4838 17.2853H19.082L19.2656 16.6481L18.7301 16.7001C18.6728 16.7001 18.6314 16.6686 18.6142 16.642ZM19.2024 14.494H20.4779L20.3968 14.7551C20.3854 14.7613 20.3581 14.7422 20.2284 14.7579H19.1239L19.2024 14.494ZM19.4579 13.6179H20.7441L20.6516 13.9325C20.6516 13.9325 20.0454 13.9264 19.9483 13.9448C19.5211 14.0208 19.2716 14.2553 19.2716 14.2553L19.4579 13.6179ZM20.4254 15.6298C20.4148 15.6689 20.3981 15.6927 20.3748 15.7105C20.3489 15.7277 20.307 15.7338 20.2445 15.7338H20.0627L20.0734 15.4157H19.3175L19.2868 16.9708C19.2856 17.083 19.2962 17.148 19.3761 17.2C19.456 17.2649 19.7021 17.2731 20.0334 17.2731H20.5071L20.6781 16.691L20.2658 16.7143L20.1286 16.7226C20.1099 16.7143 20.092 16.7068 20.0721 16.6863C20.0547 16.6686 20.0254 16.6795 20.0302 16.5673L20.0334 16.1687L20.4659 16.1503C20.6994 16.1503 20.7993 16.0722 20.8844 15.9978C20.9657 15.9265 20.9922 15.8446 21.0229 15.7338L21.0955 15.3809H20.5012L20.4254 15.6298Z" fill="#FEFEFE"/>
</svg>
