<svg width="48" height="24" viewBox="0 0 48 24" fill="none" xmlns="http://www.w3.org/2000/svg">
<rect x="0.5" y="0.5" width="47" height="23" rx="3.5" fill="white" stroke="#D9D9D9"/>
<path d="M15.4832 3H22.4716C23.4471 3 24.0538 3.8172 23.8263 4.82311L20.5727 19.1797C20.343 20.1821 19.3663 21 18.3901 21H11.4024C10.4283 21 9.82017 20.1821 10.0477 19.1797L13.3027 4.82311C13.5303 3.8172 14.5065 3 15.4832 3Z" fill="#E21836"/>
<path d="M21.889 3H29.9255C30.9008 3 30.461 3.8172 30.2316 4.82311L26.9785 19.1797C26.7502 20.1821 26.8214 21 25.844 21H17.8076C16.8302 21 16.2253 20.1821 16.4549 19.1797L19.7078 4.82311C19.9388 3.8172 20.913 3 21.889 3Z" fill="#00447C"/>
<path d="M29.6074 3H36.5958C37.5727 3 38.1794 3.8172 37.95 4.82311L34.6969 19.1797C34.4673 20.1821 33.4899 21 32.5132 21H25.528C24.5506 21 23.9444 20.1821 24.1733 19.1797L27.4269 4.82311C27.6545 3.8172 28.63 3 29.6074 3Z" fill="#007B84"/>
<path d="M17.307 7.60152C16.5884 7.60905 16.3762 7.60152 16.3084 7.58506C16.2823 7.71234 15.7974 10.0114 15.796 10.0134C15.6916 10.4785 15.6156 10.8101 15.3575 11.0242C15.2111 11.1487 15.04 11.2087 14.8418 11.2087C14.5231 11.2087 14.3374 11.0461 14.3062 10.7376L14.3003 10.6317C14.3003 10.6317 14.3974 10.0086 14.3974 10.0051C14.3974 10.0051 14.9063 7.90998 14.9975 7.63303C15.0022 7.61728 15.0036 7.60905 15.0048 7.60152C14.0141 7.61045 13.8385 7.60152 13.8264 7.58506C13.8197 7.60765 13.7952 7.73754 13.7952 7.73754L13.2755 10.099L13.2309 10.2992L13.1445 10.9543C13.1445 11.1487 13.1817 11.3073 13.2556 11.4414C13.4924 11.8666 14.1677 11.9303 14.5498 11.9303C15.0421 11.9303 15.5039 11.8228 15.8159 11.6266C16.3576 11.2976 16.4993 10.7835 16.6257 10.3266L16.6843 10.0921C16.6843 10.0921 17.2086 7.91611 17.2977 7.63303C17.3011 7.61728 17.3024 7.60905 17.307 7.60152ZM19.0909 9.35695C18.9645 9.35695 18.7336 9.38846 18.5261 9.49297C18.4508 9.53271 18.3796 9.57858 18.3045 9.62427L18.3723 9.37271L18.3351 9.33034C17.8952 9.4219 17.7967 9.43415 17.3903 9.49297L17.3562 9.51626C17.309 9.91838 17.2671 10.2207 17.0922 11.0111C17.0256 11.3024 16.9564 11.5965 16.8871 11.8871L16.9059 11.9241C17.3223 11.9015 17.4487 11.9015 17.8107 11.9076L17.84 11.8749C17.886 11.6328 17.8919 11.5761 17.9938 11.0857C18.0417 10.8532 18.1415 10.3424 18.1907 10.1605C18.2811 10.1174 18.3704 10.0751 18.4556 10.0751C18.6584 10.0751 18.6337 10.257 18.6259 10.3294C18.6172 10.4511 18.5433 10.8485 18.4675 11.1897L18.4169 11.4099C18.3816 11.5726 18.343 11.7306 18.3077 11.8919L18.3231 11.9241C18.7336 11.9015 18.8588 11.9015 19.2093 11.9076L19.2505 11.8749C19.3139 11.4967 19.3325 11.3956 19.4449 10.845L19.5014 10.592C19.6113 10.0969 19.6665 9.8459 19.5834 9.64143C19.4955 9.41227 19.2846 9.35695 19.0909 9.35695ZM21.0837 9.87529C20.8655 9.91836 20.7264 9.94707 20.5881 9.96563C20.4509 9.98821 20.3172 10.0087 20.1063 10.0388L20.0896 10.0544L20.0743 10.0668C20.0523 10.2282 20.037 10.3677 20.0079 10.5318C19.9832 10.7014 19.9452 10.8942 19.8834 11.1711C19.8355 11.3831 19.8108 11.457 19.7836 11.5316C19.757 11.6061 19.7277 11.6786 19.6739 11.8871L19.6865 11.9064L19.697 11.9241C19.8941 11.9144 20.023 11.9076 20.1556 11.9064C20.2879 11.9015 20.425 11.9064 20.6373 11.9076L20.6558 11.892L20.6758 11.8749C20.7064 11.6868 20.711 11.6363 20.7298 11.5445C20.7483 11.4461 20.7804 11.3099 20.8589 10.9462C20.896 10.7753 20.9374 10.605 20.9759 10.4306C21.0159 10.2569 21.0578 10.0859 21.0977 9.91503L21.0917 9.89438L21.0837 9.87529ZM21.0884 9.17641C20.8901 9.05614 20.5421 9.0943 20.3079 9.26044C20.0744 9.42325 20.0478 9.65433 20.2454 9.77617C20.4402 9.89312 20.7896 9.85828 21.0218 9.69074C21.2548 9.52443 21.2839 9.29545 21.0884 9.17641ZM22.2875 11.9618C22.6886 11.9618 23.0998 11.8481 23.4093 11.511C23.6474 11.2375 23.7566 10.8307 23.7944 10.6631C23.9176 10.1078 23.8217 9.84856 23.7013 9.69066C23.5183 9.44994 23.195 9.37274 22.8596 9.37274C22.6579 9.37274 22.1776 9.39322 21.8023 9.74878C21.5329 10.0052 21.4084 10.3533 21.3332 10.6869C21.2574 11.0269 21.1702 11.6389 21.7179 11.8667C21.8868 11.9413 22.1304 11.9618 22.2875 11.9618ZM22.2561 10.7123C22.3486 10.2918 22.4578 9.9389 22.7365 9.9389C22.9548 9.9389 22.9707 10.2015 22.8736 10.6234C22.8562 10.7171 22.7765 11.0653 22.6687 11.2135C22.5934 11.3229 22.5043 11.3893 22.4058 11.3893C22.3765 11.3893 22.2023 11.3893 22.1996 11.1234C22.1982 10.9921 22.2243 10.858 22.2561 10.7123ZM24.7972 11.9077L24.8285 11.8749C24.873 11.6328 24.8803 11.5759 24.9788 11.0858C25.028 10.8533 25.1299 10.3424 25.1777 10.1605C25.2684 10.1173 25.3561 10.0749 25.444 10.0749C25.6455 10.0749 25.6209 10.2568 25.6129 10.3293C25.6056 10.4511 25.5317 10.8484 25.4545 11.1896L25.4067 11.4098C25.37 11.5726 25.3302 11.7305 25.2949 11.8919L25.3103 11.9241C25.7221 11.9015 25.8426 11.9015 26.1952 11.9077L26.2377 11.8749C26.2996 11.4966 26.3163 11.3954 26.4321 10.845L26.4873 10.5919C26.5977 10.0968 26.6535 9.84595 26.5718 9.64148C26.4813 9.41232 26.2691 9.357 26.0781 9.357C25.9516 9.357 25.7194 9.38834 25.5131 9.49303C25.4394 9.53277 25.3654 9.57846 25.2929 9.62432L25.3561 9.37276L25.3222 9.33022C24.8824 9.42195 24.7819 9.43421 24.376 9.49303L24.3448 9.51631C24.2956 9.91843 24.2555 10.2206 24.0806 11.0112C24.014 11.3025 23.9448 11.5966 23.8757 11.8872L23.8942 11.9241C24.3114 11.9015 24.4359 11.9015 24.7972 11.9077ZM27.8233 11.924C27.8492 11.7941 28.003 11.0242 28.0044 11.0242C28.0044 11.0242 28.1354 10.4593 28.1434 10.4388C28.1434 10.4388 28.1846 10.38 28.2258 10.3567H28.2865C28.8586 10.3567 29.5047 10.3567 30.0111 9.97384C30.3557 9.71124 30.5913 9.32348 30.6964 8.85221C30.7236 8.73667 30.7437 8.59924 30.7437 8.46182C30.7437 8.28133 30.7085 8.10276 30.6066 7.96324C30.3484 7.59193 29.8341 7.5851 29.2405 7.5823C29.2386 7.5823 28.9479 7.5851 28.9479 7.5851C28.188 7.59473 27.8833 7.59193 27.7581 7.57617C27.7475 7.63307 27.7276 7.73425 27.7276 7.73425C27.7276 7.73425 27.4554 9.03077 27.4554 9.03287C27.4554 9.03287 26.804 11.7894 26.7734 11.9193C27.4368 11.9111 27.7088 11.9111 27.8233 11.924ZM28.3277 9.62091C28.3277 9.62091 28.6171 8.32702 28.6157 8.33192L28.6251 8.26557L28.6292 8.21498L28.7448 8.22723C28.7448 8.22723 29.3417 8.27993 29.3557 8.28133C29.5912 8.37499 29.6883 8.6164 29.6205 8.93151C29.5587 9.21949 29.377 9.4616 29.1434 9.57854C28.9511 9.67763 28.7155 9.68586 28.4728 9.68586H28.3158L28.3277 9.62091ZM30.1296 10.7363C30.0531 11.0714 29.9652 11.6834 30.5101 11.9015C30.6838 11.9775 30.8395 12.0001 30.9978 11.9918C31.1649 11.9826 31.3197 11.8964 31.4631 11.7725C31.4502 11.8234 31.4372 11.8744 31.4243 11.9255L31.449 11.9582C31.8409 11.9413 31.9626 11.9413 32.3872 11.9446L32.4257 11.9145C32.4877 11.5398 32.5461 11.176 32.7073 10.4593C32.7858 10.116 32.8642 9.77607 32.9447 9.43417L32.9321 9.39653C32.4937 9.48004 32.3765 9.49789 31.9547 9.55934L31.9227 9.58613C31.9184 9.62096 31.914 9.6544 31.9099 9.68784C31.8443 9.57895 31.7493 9.48599 31.6026 9.42804C31.4151 9.35224 30.9746 9.44993 30.596 9.80425C30.3299 10.0572 30.2021 10.4038 30.1296 10.7363ZM31.0504 10.7568C31.1443 10.3438 31.2521 9.99437 31.5314 9.99437C31.7081 9.99437 31.8011 10.1619 31.7822 10.4476C31.7672 10.5189 31.751 10.594 31.7318 10.6789C31.7038 10.8016 31.6735 10.9233 31.644 11.0451C31.6141 11.1284 31.5791 11.207 31.5408 11.2594C31.4689 11.3641 31.2979 11.429 31.1995 11.429C31.1715 11.429 30.9991 11.429 30.9932 11.1678C30.9918 11.0377 31.0179 10.9038 31.0504 10.7568ZM35.8591 9.39319L35.8252 9.35345C35.3914 9.44378 35.3128 9.45814 34.9142 9.51346L34.8849 9.54357C34.8836 9.54847 34.8824 9.556 34.8803 9.56282L34.879 9.556C34.5823 10.2596 34.5909 10.1078 34.3494 10.6617C34.348 10.6365 34.348 10.6207 34.3467 10.5939L34.2862 9.39319L34.2482 9.35345C33.7938 9.44378 33.783 9.45814 33.3633 9.51346L33.3306 9.54357C33.326 9.55792 33.326 9.57368 33.3233 9.59083L33.326 9.59696C33.3785 9.87251 33.3659 9.81106 33.4185 10.2459C33.443 10.4593 33.4757 10.674 33.5003 10.8847C33.5417 11.2375 33.5648 11.4111 33.6154 11.9495C33.332 12.4302 33.2649 12.6121 32.992 13.034L32.9939 13.0382L32.8017 13.3505C32.7798 13.3834 32.7598 13.406 32.7319 13.4156C32.7012 13.4312 32.6614 13.434 32.606 13.434H32.4995L32.3413 13.9749L32.8842 13.9846C33.2029 13.9832 33.4032 13.83 33.511 13.6241L33.8524 13.0229H33.8469L33.8829 12.9806C34.1125 12.4726 35.8591 9.39319 35.8591 9.39319ZM30.1296 16.4977H29.8993L30.7516 13.6002H31.0344L31.1241 13.3017L31.1328 13.6337C31.1223 13.8388 31.2793 14.0207 31.6919 13.9906H32.169L32.3332 13.4327H32.1537C32.0504 13.4327 32.0026 13.4059 32.0085 13.3485L31.9998 13.0108H31.1163V13.0125C30.8307 13.0187 29.9776 13.0407 29.8049 13.088C29.5959 13.1433 29.3756 13.3061 29.3756 13.3061L29.4622 13.0073H28.6357L28.4635 13.6002L27.5997 16.542H27.4321L27.2677 17.0959H28.9139L28.8587 17.2806H29.6698L29.7236 17.0959H29.9512L30.1296 16.4977ZM29.4542 14.189C29.3218 14.2266 29.0755 14.3407 29.0755 14.3407L29.2946 13.6002H29.9512L29.7928 14.1398C29.7928 14.1398 29.5899 14.152 29.4542 14.189ZM29.4668 15.2469C29.4668 15.2469 29.2605 15.2735 29.1247 15.305C28.991 15.3467 28.7403 15.4779 28.7403 15.4779L28.9665 14.7073H29.6266L29.4668 15.2469ZM29.0988 16.5045H28.4402L28.6311 15.8542H29.2878L29.0988 16.5045ZM30.6851 14.7073H31.6346L31.4981 15.1614H30.5361L30.3916 15.6579H31.2334L30.596 16.5803C30.5514 16.6481 30.5114 16.6721 30.4669 16.6911C30.4223 16.7144 30.3637 16.7417 30.2959 16.7417H30.0624L29.9019 17.2855H30.5127C30.8302 17.2855 31.0178 17.137 31.1563 16.9422L31.5934 16.3274L31.6872 16.9516C31.7071 17.0686 31.7889 17.137 31.8443 17.1636C31.9054 17.1951 31.9686 17.2492 32.0579 17.2573C32.1536 17.2615 32.2228 17.2648 32.2687 17.2648H32.5689L32.7491 16.6563H32.6307C32.5627 16.6563 32.4457 16.6446 32.4258 16.6227C32.4059 16.5961 32.4059 16.5551 32.3951 16.4928L32.2999 15.8671H31.91L32.081 15.6579H33.0412L33.1889 15.1614H32.2999L32.4384 14.7073H33.3247L33.489 14.1473H30.8468L30.6851 14.7073ZM22.666 16.631L22.8876 15.8733H23.7984L23.9648 15.3098H23.0532L23.1923 14.8434H24.0832L24.2482 14.2977H22.0192L21.8576 14.8434H22.364L22.2289 15.3098H21.7211L21.5528 15.8829H22.0591L21.7637 16.8853C21.7239 17.018 21.7824 17.0686 21.8196 17.1302C21.8576 17.1903 21.8961 17.23 21.9826 17.2526C22.0719 17.2731 22.133 17.2854 22.2161 17.2854H23.2429L23.4259 16.6611L22.9707 16.7253C22.8828 16.7253 22.6394 16.7145 22.666 16.631ZM22.7705 13.0039L22.5396 13.4326C22.4902 13.5263 22.4458 13.5844 22.4058 13.6112C22.3705 13.6337 22.3007 13.6432 22.1995 13.6432H22.0791L21.9181 14.1917H22.318C22.5103 14.1917 22.658 14.1192 22.7286 14.083C22.8044 14.0413 22.8243 14.0651 22.8829 14.007L23.018 13.8867H24.2669L24.4326 13.3157H23.5184L23.678 13.0039H22.7705ZM24.6142 16.642C24.593 16.6105 24.6083 16.555 24.6408 16.4394L24.9822 15.2782H26.1965C26.3735 15.2756 26.5012 15.2735 26.5844 15.2674C26.6736 15.2578 26.7707 15.225 26.8765 15.1662C26.9857 15.1046 27.0415 15.0396 27.0887 14.965C27.1414 14.8906 27.2258 14.7278 27.2984 14.4768L27.7275 13.0073L26.4673 13.0148C26.4673 13.0148 26.0793 13.0737 25.9085 13.1386C25.7361 13.2111 25.4898 13.4135 25.4898 13.4135L25.6036 13.0106H24.8251L23.7353 16.7253C23.6966 16.8696 23.6707 16.9742 23.6648 17.0371C23.6627 17.1048 23.7479 17.1719 23.8031 17.2225C23.8683 17.2731 23.9648 17.2649 24.0572 17.2731C24.1545 17.2806 24.2928 17.2853 24.4838 17.2853H25.082L25.2656 16.6481L24.7301 16.7001C24.6728 16.7001 24.6314 16.6686 24.6142 16.642ZM25.2024 14.494H26.4779L26.3968 14.7551C26.3854 14.7613 26.3581 14.7422 26.2284 14.7579H25.1239L25.2024 14.494ZM25.4579 13.6179H26.7441L26.6516 13.9325C26.6516 13.9325 26.0454 13.9264 25.9483 13.9448C25.5211 14.0208 25.2716 14.2553 25.2716 14.2553L25.4579 13.6179ZM26.4254 15.6298C26.4148 15.6689 26.3981 15.6927 26.3748 15.7105C26.3489 15.7277 26.307 15.7338 26.2445 15.7338H26.0627L26.0734 15.4157H25.3175L25.2868 16.9708C25.2856 17.083 25.2962 17.148 25.3761 17.2C25.456 17.2649 25.7021 17.2731 26.0334 17.2731H26.5071L26.6781 16.691L26.2658 16.7143L26.1286 16.7226C26.1099 16.7143 26.092 16.7068 26.0721 16.6863C26.0547 16.6686 26.0254 16.6795 26.0302 16.5673L26.0334 16.1687L26.4659 16.1503C26.6994 16.1503 26.7993 16.0722 26.8844 15.9978C26.9657 15.9265 26.9922 15.8446 27.0229 15.7338L27.0955 15.3809H26.5012L26.4254 15.6298Z" fill="#FEFEFE"/>
</svg>
