<svg width="40" height="40" viewBox="0 0 40 40" fill="none" xmlns="http://www.w3.org/2000/svg">
<path d="M37.9021 35.2866L33.1252 19.892C32.9798 19.4177 32.6856 19.0027 32.2863 18.7085C31.8869 18.4143 31.4035 18.2563 30.9074 18.2581H27.6963C29.1001 16.4244 29.8631 14.1804 29.8682 11.871C29.8682 9.25302 28.8284 6.7423 26.9774 4.89114C25.1265 3.03997 22.6161 2 19.9985 2C17.381 2 14.8706 3.03997 13.0196 4.89114C11.1687 6.7423 10.1289 9.25302 10.1289 11.871C10.134 14.1804 10.897 16.4244 12.3008 18.2581H9.08968C8.59364 18.2563 8.1102 18.4143 7.71083 18.7085C7.31145 19.0027 7.01732 19.4177 6.87191 19.892L2.095 35.2866C1.9972 35.5999 1.97452 35.9318 2.02879 36.2554C2.08306 36.5791 2.21276 36.8854 2.4074 37.1496C2.60203 37.4138 2.85613 37.6285 3.14912 37.7762C3.44211 37.9239 3.76577 38.0006 4.09389 38H35.9061C36.2342 38.0006 36.5579 37.9239 36.8509 37.7762C37.1439 37.6285 37.398 37.4138 37.5926 37.1496C37.7872 36.8854 37.9169 36.5791 37.9712 36.2554C38.0255 35.9318 38.0028 35.5999 37.905 35.2866H37.9021ZM19.9985 3.16129C22.3074 3.1639 24.5209 4.08237 26.1535 5.71518C27.7861 7.348 28.7045 9.56182 28.7071 11.871C28.7044 13.994 27.9822 16.0534 26.6582 17.7128L19.9985 26.0387L13.3389 17.7128C12.0149 16.0534 11.2926 13.994 11.29 11.871C11.2926 9.56182 12.211 7.348 13.8436 5.71518C15.4762 4.08237 17.6897 3.1639 19.9985 3.16129ZM19.5451 27.3301C19.5995 27.3981 19.6685 27.453 19.747 27.4907C19.8255 27.5285 19.9115 27.5481 19.9985 27.5481C20.0856 27.5481 20.1716 27.5285 20.2501 27.4907C20.3286 27.453 20.3976 27.3981 20.452 27.3301L22.8486 24.3339C25.2527 24.8118 26.9654 25.8941 26.9654 26.9677C26.9654 28.341 24.1043 29.871 19.9985 29.871C15.8928 29.871 13.0317 28.341 13.0317 26.9677C13.0317 25.8941 14.7444 24.8118 17.1485 24.3339L19.5451 27.3301ZM35.9061 36.8387H4.09389C3.9479 36.8386 3.80398 36.8042 3.67371 36.7383C3.54343 36.6724 3.43045 36.5768 3.34387 36.4593C3.25728 36.3417 3.1995 36.2055 3.17519 36.0615C3.15087 35.9175 3.1607 35.7699 3.20388 35.6304L7.98079 20.2363C8.05346 19.9991 8.20051 19.7916 8.40021 19.6445C8.59991 19.4974 8.84165 19.4184 9.08968 19.4194H13.2175L14.6109 21.1613H10.1289C9.80826 21.1613 9.54833 21.4213 9.54833 21.7419C9.54833 22.0626 9.80826 22.3226 10.1289 22.3226H15.5398L16.341 23.3242C13.5972 23.9931 11.8706 25.3721 11.8706 26.9677C11.8706 29.2468 15.4405 31.0323 19.9985 31.0323C24.5566 31.0323 28.1265 29.2468 28.1265 26.9677C28.1265 25.3721 26.3999 23.9931 23.6561 23.3242L24.4573 22.3226H29.8682C30.1888 22.3226 30.4488 22.0626 30.4488 21.7419C30.4488 21.4213 30.1888 21.1613 29.8682 21.1613H25.3862L26.7796 19.4194H30.9074C31.1555 19.4184 31.3972 19.4974 31.5969 19.6445C31.7966 19.7916 31.9436 19.9991 32.0163 20.2363L36.7932 35.6304C36.8363 35.7696 36.8462 35.917 36.822 36.0608C36.7979 36.2045 36.7404 36.3406 36.6541 36.4581C36.5678 36.5756 36.4552 36.6712 36.3253 36.7373C36.1954 36.8034 36.0519 36.8382 35.9061 36.8387Z" fill="#0F0F10"/>
<path d="M19.9994 19.4194C21.4921 19.4194 22.9514 18.9766 24.1925 18.1472C25.4337 17.3178 26.401 16.1389 26.9723 14.7596C27.5435 13.3803 27.693 11.8626 27.4018 10.3983C27.1106 8.93411 26.3917 7.58911 25.3362 6.53345C24.2807 5.47779 22.9359 4.75888 21.4718 4.46762C20.0078 4.17636 18.4903 4.32585 17.1112 4.89717C15.7321 5.46849 14.5533 6.43598 13.724 7.67731C12.8947 8.91863 12.452 10.378 12.452 11.871C12.4543 13.8722 13.2502 15.7908 14.6652 17.2059C16.0801 18.621 17.9984 19.417 19.9994 19.4194ZM26.3857 11.871C26.3871 13.3551 25.8693 14.793 24.9221 15.9355H23.4828C23.3288 15.9355 23.1812 15.8743 23.0723 15.7654C22.9634 15.6565 22.9023 15.5088 22.9023 15.3548C22.9023 14.8928 22.7188 14.4498 22.3921 14.1231C22.0655 13.7964 21.6225 13.6129 21.1606 13.6129H19.4188C19.2649 13.6129 19.1172 13.5517 19.0083 13.4428C18.8994 13.3339 18.8383 13.1863 18.8383 13.0323C18.8383 12.8783 18.8994 12.7306 19.0083 12.6217C19.1172 12.5128 19.2649 12.4516 19.4188 12.4516H21.1606C21.6225 12.4516 22.0655 12.2681 22.3921 11.9414C22.7188 11.6147 22.9023 11.1717 22.9023 10.7097C22.9023 10.2477 22.7188 9.80462 22.3921 9.47794C22.0655 9.15127 21.6225 8.96774 21.1606 8.96774C21.0066 8.96774 20.8589 8.90657 20.75 8.79767C20.6412 8.68878 20.58 8.54109 20.58 8.3871C20.58 8.2331 20.6412 8.08541 20.75 7.97652C20.8589 7.86763 21.0066 7.80645 21.1606 7.80645H24.9221C25.8693 8.94889 26.3871 10.3868 26.3857 11.871ZM23.6599 6.64516H21.1606C20.6986 6.64516 20.2556 6.82869 19.929 7.15536C19.6024 7.48204 19.4188 7.92511 19.4188 8.3871C19.4188 8.84909 19.6024 9.29215 19.929 9.61883C20.2556 9.94551 20.6986 10.129 21.1606 10.129C21.3145 10.129 21.4622 10.1902 21.5711 10.2991C21.68 10.408 21.7411 10.5557 21.7411 10.7097C21.7411 10.8637 21.68 11.0114 21.5711 11.1203C21.4622 11.2291 21.3145 11.2903 21.1606 11.2903H19.4188C18.9569 11.2903 18.5139 11.4738 18.1873 11.8005C17.8606 12.1272 17.6771 12.5703 17.6771 13.0323C17.6771 13.4942 17.8606 13.9373 18.1873 14.264C18.5139 14.5907 18.9569 14.7742 19.4188 14.7742H21.1606C21.3145 14.7742 21.4622 14.8354 21.5711 14.9443C21.68 15.0532 21.7411 15.2008 21.7411 15.3548C21.7411 15.8168 21.9246 16.2599 22.2513 16.5866C22.5779 16.9132 23.0209 17.0968 23.4828 17.0968H23.657C22.8588 17.658 21.9424 18.0282 20.9784 18.179C20.0144 18.3297 19.0287 18.2568 18.0974 17.9661C17.166 17.6753 16.3139 17.1743 15.6069 16.5019C14.8999 15.8295 14.3568 15.0035 14.0196 14.0879C14.5688 13.9365 15.0534 13.6094 15.3994 13.1567C15.7453 12.704 15.9336 12.1504 15.9354 11.5806C15.9354 11.5036 15.966 11.4298 16.0205 11.3754C16.0749 11.3209 16.1487 11.2903 16.2257 11.2903C16.7646 11.2903 17.2815 11.0762 17.6626 10.6951C18.0436 10.314 18.2577 9.79705 18.2577 9.25806C18.2577 8.71908 18.0436 8.20216 17.6626 7.82104C17.2815 7.43992 16.7646 7.22581 16.2257 7.22581H15.6301C16.6953 6.21592 18.0773 5.60622 19.5412 5.50036C21.0051 5.3945 22.4605 5.79903 23.6599 6.64516ZM14.6535 8.3871H16.2257C16.4567 8.3871 16.6782 8.47886 16.8415 8.6422C17.0048 8.80553 17.0966 9.02707 17.0966 9.25806C17.0966 9.48906 17.0048 9.71059 16.8415 9.87393C16.6782 10.0373 16.4567 10.129 16.2257 10.129C15.8408 10.129 15.4716 10.282 15.1994 10.5542C14.9272 10.8264 14.7743 11.1957 14.7743 11.5806C14.7734 11.8966 14.6694 12.2036 14.4782 12.4551C14.287 12.7066 14.019 12.8889 13.7148 12.9742C13.4238 11.3813 13.7602 9.73756 14.6535 8.3871Z" fill="#0F0F10"/>
<path d="M32.7719 33.0064H7.22692C6.90629 33.0064 6.64636 33.2664 6.64636 33.5871C6.64636 33.9078 6.90629 34.1677 7.22692 34.1677H32.7719C33.0925 34.1677 33.3525 33.9078 33.3525 33.5871C33.3525 33.2664 33.0925 33.0064 32.7719 33.0064Z" fill="#0F0F10"/>
</svg>
