<svg width="40" height="40" viewBox="0 0 40 40" fill="none" xmlns="http://www.w3.org/2000/svg">
<path d="M19.0625 36.875H11.5625V29.375C11.5625 29.2092 11.4967 29.0503 11.3794 28.9331C11.2622 28.8158 11.1033 28.75 10.9375 28.75C10.7717 28.75 10.6128 28.8158 10.4956 28.9331C10.3783 29.0503 10.3125 29.2092 10.3125 29.375V36.875H7.1875V27.1375C7.18915 25.7423 7.74413 24.4047 8.73068 23.4182C9.71723 22.4316 11.0548 21.8767 12.45 21.875H14.325L16.6437 25.3437C16.7009 25.4288 16.7781 25.4985 16.8686 25.5467C16.9591 25.5949 17.06 25.6201 17.1625 25.6201C17.265 25.6201 17.3659 25.5949 17.4564 25.5467C17.5469 25.4985 17.6241 25.4288 17.6813 25.3437L20 21.875H21.875C22.6932 21.8727 23.5005 22.0633 24.2313 22.4312C24.3049 22.4756 24.3869 22.5042 24.4721 22.5154C24.5573 22.5266 24.6439 22.5201 24.7265 22.4963C24.8091 22.4725 24.8859 22.4319 24.9521 22.3771C25.0183 22.3223 25.0725 22.2544 25.1112 22.1777C25.15 22.101 25.1726 22.0172 25.1775 21.9314C25.1824 21.8456 25.1695 21.7597 25.1397 21.679C25.1099 21.5984 25.0638 21.5248 25.0043 21.4628C24.9448 21.4008 24.8731 21.3518 24.7937 21.3188C23.9047 20.8669 22.9223 20.6294 21.925 20.625H12.45C10.7233 20.6267 9.06777 21.3133 7.84679 22.5343C6.62582 23.7553 5.93915 25.4108 5.9375 27.1375V37.5C5.9375 37.6658 6.00335 37.8247 6.12056 37.9419C6.23777 38.0592 6.39674 38.125 6.5625 38.125H19.0625C19.2283 38.125 19.3872 38.0592 19.5044 37.9419C19.6217 37.8247 19.6875 37.6658 19.6875 37.5C19.6875 37.3342 19.6217 37.1753 19.5044 37.0581C19.3872 36.9408 19.2283 36.875 19.0625 36.875ZM18.5187 21.875L17.1875 23.875L15.8563 21.875H18.5187Z" fill="#0F0F10"/>
<path d="M23.4313 3.05625C23.4165 2.91479 23.354 2.78258 23.254 2.68144C23.154 2.58031 23.0225 2.5163 22.8813 2.5L17.2563 1.875H17.1187L11.4937 2.5C11.3534 2.51604 11.2226 2.57914 11.1228 2.67902C11.0229 2.7789 10.9598 2.90966 10.9438 3.05L10.3688 8.20625C9.99298 8.31869 9.66325 8.54881 9.42809 8.86273C9.19293 9.17665 9.06478 9.55778 9.0625 9.95V11.2875C9.0623 11.6716 9.1829 12.0461 9.40722 12.3579C9.63155 12.6697 9.94824 12.9031 10.3125 13.025C10.4406 14.7558 11.2185 16.3741 12.4902 17.5552C13.7619 18.7362 15.4332 19.3926 17.1687 19.3926C18.9043 19.3926 20.5756 18.7362 21.8473 17.5552C23.119 16.3741 23.8969 14.7558 24.025 13.025C24.3903 12.9027 24.7077 12.6684 24.9321 12.3554C25.1565 12.0423 25.2765 11.6664 25.275 11.2812V9.95625C25.2727 9.56403 25.1446 9.1829 24.9094 8.86898C24.6743 8.55506 24.3445 8.32494 23.9687 8.2125L23.4313 3.05625ZM12.1313 3.68125L17.1875 3.125L22.2437 3.6875L22.725 7.975C19.0612 7.33335 15.3138 7.33335 11.65 7.975L12.1313 3.68125ZM22.7563 9.25C22.6464 9.64722 22.4086 9.99716 22.0799 10.2457C21.7511 10.4943 21.3496 10.6276 20.9375 10.625H13.4375C13.0313 10.6229 12.6367 10.4889 12.3132 10.2431C11.9897 9.99741 11.7548 9.65327 11.6437 9.2625C15.3093 8.59374 19.0657 8.59374 22.7312 9.2625L22.7563 9.25ZM24.0875 11.2812C24.0764 11.4393 24.0057 11.5873 23.8897 11.6952C23.7736 11.8031 23.621 11.8629 23.4625 11.8625C23.2967 11.8625 23.1378 11.9283 23.0206 12.0456C22.9033 12.1628 22.8375 12.3217 22.8375 12.4875C22.8375 13.9793 22.2449 15.4101 21.19 16.465C20.1351 17.5199 18.7043 18.1125 17.2125 18.1125C15.7207 18.1125 14.2899 17.5199 13.235 16.465C12.1801 15.4101 11.5875 13.9793 11.5875 12.4875C11.5764 12.3178 11.501 12.1588 11.3768 12.0427C11.2526 11.9266 11.0888 11.8621 10.9187 11.8625C10.768 11.8523 10.626 11.7877 10.5191 11.6809C10.4123 11.574 10.3477 11.432 10.3375 11.2812V9.95625C10.342 9.82841 10.3881 9.70552 10.4688 9.60625C10.6532 10.2538 11.0418 10.8244 11.5767 11.2332C12.1116 11.642 12.7643 11.8671 13.4375 11.875H20.9375C21.615 11.8725 22.2733 11.6498 22.8133 11.2406C23.3533 10.8314 23.7456 10.2578 23.9313 9.60625C24.0119 9.70552 24.058 9.82841 24.0625 9.95625L24.0875 11.2812Z" fill="#0F0F10"/>
<path d="M33.4375 25H32.1875V24.375C32.1875 24.2092 32.1217 24.0503 32.0044 23.9331C31.8872 23.8158 31.7283 23.75 31.5625 23.75H20.9375C20.7717 23.75 20.6128 23.8158 20.4956 23.9331C20.3783 24.0503 20.3125 24.2092 20.3125 24.375V25H19.0625C18.8967 25 18.7378 25.0658 18.6206 25.1831C18.5033 25.3003 18.4375 25.4592 18.4375 25.625V27.5C18.4375 27.6658 18.5033 27.8247 18.6206 27.9419C18.7378 28.0592 18.8967 28.125 19.0625 28.125C19.2283 28.125 19.3872 28.0592 19.5044 27.9419C19.6217 27.8247 19.6875 27.6658 19.6875 27.5V26.25H20.3125V35C20.1467 35 19.9878 35.0658 19.8706 35.1831C19.7533 35.3003 19.6875 35.4592 19.6875 35.625C19.6875 35.7908 19.7533 35.9497 19.8706 36.0669C19.9878 36.1842 20.1467 36.25 20.3125 36.25H21.25V37.5C21.25 37.6658 21.3158 37.8247 21.4331 37.9419C21.5503 38.0592 21.7092 38.125 21.875 38.125H23.75C23.9158 38.125 24.0747 38.0592 24.1919 37.9419C24.3092 37.8247 24.375 37.6658 24.375 37.5V36.25H28.125V37.5C28.125 37.6658 28.1908 37.8247 28.3081 37.9419C28.4253 38.0592 28.5842 38.125 28.75 38.125H30.625C30.7908 38.125 30.9497 38.0592 31.0669 37.9419C31.1842 37.8247 31.25 37.6658 31.25 37.5V36.25H32.1875C32.3533 36.25 32.5122 36.1842 32.6294 36.0669C32.7467 35.9497 32.8125 35.7908 32.8125 35.625C32.8125 35.4592 32.7467 35.3003 32.6294 35.1831C32.5122 35.0658 32.3533 35 32.1875 35V26.25H32.8125V27.5C32.8125 27.6658 32.8783 27.8247 32.9956 27.9419C33.1128 28.0592 33.2717 28.125 33.4375 28.125C33.6033 28.125 33.7622 28.0592 33.8794 27.9419C33.9967 27.8247 34.0625 27.6658 34.0625 27.5V25.625C34.0625 25.4592 33.9967 25.3003 33.8794 25.1831C33.7622 25.0658 33.6033 25 33.4375 25ZM30.9375 25V31.25H21.5625V25H30.9375ZM23.125 36.875H22.5V36.25H23.125V36.875ZM30 36.875H29.375V36.25H30V36.875ZM30.625 35H21.5625V32.5H30.9375V35H30.625Z" fill="#0F0F10"/>
<path d="M23.75 33.125H23.125C22.9592 33.125 22.8003 33.1908 22.6831 33.3081C22.5658 33.4253 22.5 33.5842 22.5 33.75C22.5 33.9158 22.5658 34.0747 22.6831 34.1919C22.8003 34.3092 22.9592 34.375 23.125 34.375H23.75C23.9158 34.375 24.0747 34.3092 24.1919 34.1919C24.3092 34.0747 24.375 33.9158 24.375 33.75C24.375 33.5842 24.3092 33.4253 24.1919 33.3081C24.0747 33.1908 23.9158 33.125 23.75 33.125Z" fill="#0F0F10"/>
<path d="M29.375 33.125H28.75C28.5842 33.125 28.4253 33.1908 28.3081 33.3081C28.1908 33.4253 28.125 33.5842 28.125 33.75C28.125 33.9158 28.1908 34.0747 28.3081 34.1919C28.4253 34.3092 28.5842 34.375 28.75 34.375H29.375C29.5408 34.375 29.6997 34.3092 29.8169 34.1919C29.9342 34.0747 30 33.9158 30 33.75C30 33.5842 29.9342 33.4253 29.8169 33.3081C29.6997 33.1908 29.5408 33.125 29.375 33.125Z" fill="#0F0F10"/>
</svg>
