<svg width="40" height="40" viewBox="0 0 40 40" fill="none" xmlns="http://www.w3.org/2000/svg">
<path d="M4.375 38.1248H8.75V38.7498C8.75 38.9155 8.81585 39.0745 8.93306 39.1917C9.05027 39.3089 9.20924 39.3748 9.375 39.3748H14.375C14.5408 39.3748 14.6997 39.3089 14.8169 39.1917C14.9342 39.0745 15 38.9155 15 38.7498V37.4998H15.0525C16.1313 37.4997 17.1899 37.7929 18.115 38.3479C19.2349 39.0199 20.5164 39.3749 21.8225 39.3748H31.875C32.3723 39.3748 32.8492 39.1772 33.2008 38.8256C33.5525 38.4739 33.75 37.997 33.75 37.4998V36.8748C33.7493 36.6356 33.7026 36.3988 33.6125 36.1772C34.0094 36.0704 34.3601 35.8361 34.6108 35.5104C34.8615 35.1848 34.9982 34.7857 35 34.3748V33.7498C34.9982 33.4268 34.912 33.1098 34.75 32.8304C35.0174 32.6622 35.2379 32.429 35.3909 32.1527C35.5439 31.8763 35.6244 31.5657 35.625 31.2498V30.6248C35.6232 30.3018 35.537 29.9848 35.375 29.7054C35.6424 29.5372 35.8629 29.304 36.0159 29.0277C36.1689 28.7513 36.2494 28.4407 36.25 28.1248V27.4998C36.25 27.0025 36.0525 26.5256 35.7008 26.1739C35.3492 25.8223 34.8723 25.6248 34.375 25.6248H31.2313C31.1851 25.3441 31.084 25.0752 30.9339 24.8336C30.7837 24.592 30.5875 24.3823 30.3563 24.2166L30 23.9635V2.49975C30.001 2.04578 29.8369 1.60693 29.5382 1.26503C29.2396 0.923118 28.8268 0.701483 28.3768 0.641439C27.9268 0.581395 27.4703 0.687039 27.0925 0.938678C26.7146 1.19032 26.4412 1.57078 26.3231 2.00913L14.5931 5.42225C14.1762 5.51282 13.803 5.74368 13.5358 6.07629C13.2686 6.4089 13.1236 6.82311 13.125 7.24975V10.2498C13.121 10.6705 13.2604 11.08 13.5202 11.4109C13.78 11.7418 14.1447 11.9744 14.5544 12.0704L26.25 15.4691V21.8748H24.375C23.6973 21.8729 23.026 22.0055 22.4 22.2647C21.7739 22.524 21.2054 22.9049 20.7275 23.3854L18.5144 25.5991C18.1112 26.0045 17.6317 26.3259 17.1036 26.5449C16.5755 26.7638 16.0092 26.8759 15.4375 26.8748H15V25.6248C15 25.459 14.9342 25.3 14.8169 25.1828C14.6997 25.0656 14.5408 24.9998 14.375 24.9998H9.375C9.20924 24.9998 9.05027 25.0656 8.93306 25.1828C8.81585 25.3 8.75 25.459 8.75 25.6248V26.2498H4.375C4.20924 26.2498 4.05027 26.3156 3.93306 26.4328C3.81585 26.55 3.75 26.709 3.75 26.8748V37.4998C3.75 37.6655 3.81585 37.8245 3.93306 37.9417C4.05027 38.0589 4.20924 38.1248 4.375 38.1248ZM10 38.1248V36.2335C10.5367 36.6491 11.1962 36.8746 11.875 36.8746C12.5538 36.8746 13.2133 36.6491 13.75 36.2335V38.1248H10ZM29.2906 29.9998H33.75C33.9158 29.9998 34.0747 30.0656 34.1919 30.1828C34.3092 30.3 34.375 30.459 34.375 30.6248V31.2498C34.375 31.4155 34.3092 31.5745 34.1919 31.6917C34.0747 31.8089 33.9158 31.8748 33.75 31.8748H28.125C28.0033 31.8715 27.8853 31.8319 27.7863 31.761C28.1898 31.6145 28.5286 31.3303 28.7431 30.9585L29.2906 29.9998ZM32.5 37.4998C32.5 37.6655 32.4342 37.8245 32.3169 37.9417C32.1997 38.0589 32.0408 38.1248 31.875 38.1248H28.125C27.9592 38.1248 27.8003 38.0589 27.6831 37.9417C27.5658 37.8245 27.5 37.6655 27.5 37.4998V36.8748C27.5 36.709 27.5658 36.55 27.6831 36.4328C27.8003 36.3156 27.9592 36.2498 28.125 36.2498H31.875C32.0408 36.2498 32.1997 36.3156 32.3169 36.4328C32.4342 36.55 32.5 36.709 32.5 36.8748V37.4998ZM33.75 34.3748C33.75 34.5405 33.6842 34.6995 33.5669 34.8167C33.4497 34.9339 33.2908 34.9998 33.125 34.9998H28.125C27.9592 34.9998 27.8003 34.9339 27.6831 34.8167C27.5658 34.6995 27.5 34.5405 27.5 34.3748V33.7498C27.5 33.584 27.5658 33.425 27.6831 33.3078C27.8003 33.1906 27.9592 33.1248 28.125 33.1248H33.125C33.2908 33.1248 33.4497 33.1906 33.5669 33.3078C33.6842 33.425 33.75 33.584 33.75 33.7498V34.3748ZM30.8787 27.2191C30.9514 27.1102 31.0142 26.9949 31.0662 26.8748H34.375C34.5408 26.8748 34.6997 26.9406 34.8169 27.0578C34.9342 27.175 35 27.334 35 27.4998V28.1248C35 28.2905 34.9342 28.4495 34.8169 28.5667C34.6997 28.6839 34.5408 28.7498 34.375 28.7498H30.0044L30.8787 27.2191ZM28.125 1.87475C28.2908 1.87475 28.4497 1.9406 28.5669 2.05781C28.6842 2.17502 28.75 2.33399 28.75 2.49975V23.071L27.6875 22.3123C27.6281 22.2698 27.5625 22.236 27.5 22.1991V2.49975C27.5 2.33399 27.5658 2.17502 27.6831 2.05781C27.8003 1.9406 27.9592 1.87475 28.125 1.87475ZM14.8644 10.8573C14.7257 10.8271 14.6015 10.7504 14.5124 10.6399C14.4234 10.5294 14.3749 10.3917 14.375 10.2498V7.24975C14.3766 7.10096 14.4304 6.95745 14.5269 6.84418C14.6234 6.73091 14.7565 6.65503 14.9031 6.62975L26.25 3.33288V14.1673L14.8644 10.8573ZM15.4375 28.1248C16.1738 28.1267 16.9033 27.9826 17.5835 27.7008C18.2638 27.419 18.8814 27.005 19.4006 26.4829L21.6144 24.2698C21.976 23.9059 22.4062 23.6173 22.88 23.4208C23.3539 23.2242 23.862 23.1236 24.375 23.1248H26.3212C26.5497 23.1245 26.7725 23.196 26.9581 23.3291L29.625 25.2335C29.8238 25.376 29.9581 25.5916 29.9982 25.833C30.0384 26.0743 29.9813 26.3217 29.8394 26.521C29.827 26.5381 29.8155 26.5558 29.805 26.5741L27.655 30.3385C27.6138 30.4121 27.5568 30.4756 27.4882 30.5247C27.4196 30.5737 27.3411 30.607 27.2581 30.6223C27.1756 30.638 27.0906 30.6358 27.0091 30.6156C26.9275 30.5954 26.8513 30.5578 26.7856 30.5054L26.7231 30.4541C26.3083 30.1255 26.0328 29.6525 25.9517 29.1295C25.8706 28.6066 25.9899 28.0723 26.2856 27.6335L27.3938 25.9716L26.3538 25.2779L25.25 26.9404C25.112 27.1516 24.9979 27.3776 24.91 27.6141L24.09 28.786C23.6921 29.3542 23.163 29.818 22.5476 30.1381C21.9322 30.4582 21.2487 30.6252 20.555 30.6248H19.375V31.8748H20.555C21.376 31.8728 22.1863 31.6892 22.928 31.337C23.6696 30.9848 24.324 30.4729 24.8444 29.8379C25.0466 30.4648 25.4287 31.0184 25.9431 31.4298L26.0056 31.481C26.0977 31.5525 26.1963 31.6152 26.3 31.6685C26.3728 31.9783 26.5233 32.2644 26.7375 32.4998C26.4254 32.8414 26.2516 33.287 26.25 33.7498V34.3748C26.2516 34.8375 26.4254 35.2831 26.7375 35.6248C26.4254 35.9664 26.2516 36.412 26.25 36.8748V37.4998C26.2521 37.7132 26.291 37.9246 26.365 38.1248H21.8225C20.7437 38.1248 19.6851 37.8316 18.76 37.2766C17.6401 36.6046 16.3586 36.2497 15.0525 36.2498H15V28.1248H15.4375ZM10 26.2498H13.75V33.7498C13.75 34.247 13.5525 34.7239 13.2008 35.0756C12.8492 35.4272 12.3723 35.6248 11.875 35.6248C11.3777 35.6248 10.9008 35.4272 10.5492 35.0756C10.1975 34.7239 10 34.247 10 33.7498V26.2498ZM5 27.4998H8.75V36.8748H5V27.4998Z" fill="#0F0F10"/>
<path d="M12.5 33.125H11.25V34.375H12.5V33.125Z" fill="#0F0F10"/>
</svg>
