<svg width="40" height="40" viewBox="0 0 40 40" fill="none" xmlns="http://www.w3.org/2000/svg">
<g clip-path="url(#clip0_3630_46230)">
<path d="M28.8306 22.3848C26.7787 22.3848 25.1094 24.0848 25.1094 26.1744C25.1094 28.264 26.7787 29.9641 28.8306 29.9641C30.8826 29.9641 32.5519 28.264 32.5519 26.1744C32.5519 24.0848 30.8826 22.3848 28.8306 22.3848ZM28.8306 28.7831C27.4181 28.7831 26.269 27.6129 26.269 26.1744C26.269 24.736 27.4181 23.5657 28.8306 23.5657C30.2432 23.5657 31.3923 24.736 31.3923 26.1744C31.3923 27.6129 30.2432 28.7831 28.8306 28.7831Z" fill="#0F0F10"/>
<path d="M10.9479 29.9641C12.9998 29.9641 14.6691 28.264 14.6691 26.1744C14.6691 24.0848 12.9998 22.3848 10.9479 22.3848C8.89592 22.3848 7.22656 24.0848 7.22656 26.1744C7.22656 28.264 8.89591 29.9641 10.9479 29.9641ZM10.9479 23.5657C12.3603 23.5657 13.5095 24.736 13.5095 26.1744C13.5095 27.6129 12.3603 28.7831 10.9479 28.7831C9.53533 28.7831 8.38622 27.6129 8.38622 26.1744C8.38622 24.736 9.53533 23.5657 10.9479 23.5657Z" fill="#0F0F10"/>
<path d="M5 36.5428C5 36.6326 5.00244 36.7252 5.00749 36.8258C5.0155 36.9882 5.08903 37.14 5.21056 37.2454C6.78618 38.6122 8.82255 39.365 10.9445 39.365C12.1603 39.365 13.3332 39.1243 14.4334 38.6506C16.1309 39.5707 18.0559 40.0631 20.0373 40.0631C21.978 40.0631 23.8496 39.5972 25.511 38.722C26.5628 39.1482 27.6788 39.365 28.8305 39.365C31.0775 39.365 33.2018 38.5323 34.812 37.0203C34.9293 36.9102 34.997 36.7526 34.999 36.5901C34.9996 36.5743 35 36.5586 35 36.5428C35 33.3206 32.2828 30.6991 28.943 30.6991C27.9856 30.6991 27.041 30.9189 26.1939 31.3352C24.7244 29.7341 22.5777 28.7227 20.1901 28.7227C17.736 28.7227 15.5365 29.7912 14.0652 31.4702C13.1522 30.9655 12.116 30.6991 11.057 30.6991C7.71715 30.6992 5 33.3206 5 36.5428ZM28.943 31.8802C31.5669 31.8802 33.7155 33.8548 33.8349 36.3253C32.4643 37.5258 30.6975 38.184 28.8305 38.184C28.1413 38.184 27.4677 38.0935 26.8168 37.918C27.2359 37.6197 27.6368 37.2925 28.0159 36.9365C28.132 36.8276 28.1995 36.6693 28.2027 36.5085L28.2031 36.4977C28.2037 36.4797 28.2043 36.4616 28.2043 36.4434C28.2043 34.9151 27.7408 33.489 26.9423 32.2887C27.5684 32.0219 28.2507 31.8802 28.943 31.8802ZM20.1901 29.9037C23.8993 29.9037 26.9299 32.7293 27.0415 36.2409C25.133 37.9461 22.6561 38.8821 20.0373 38.8821C17.5687 38.8821 15.1993 38.0389 13.3359 36.5025C13.3356 36.4826 13.3356 36.4629 13.3356 36.4434C13.3355 32.8374 16.4105 29.9037 20.1901 29.9037ZM11.057 31.8802C11.861 31.8802 12.6475 32.0671 13.351 32.4227C12.6059 33.5945 12.1759 34.9715 12.1759 36.4434C12.1759 36.562 12.1791 36.6842 12.1857 36.8169C12.1938 36.9793 12.2673 37.1311 12.3888 37.2365C12.6417 37.4559 12.9036 37.663 13.1734 37.8583C12.4571 38.0745 11.7108 38.184 10.9445 38.184C9.18555 38.184 7.49677 37.5918 6.15975 36.5115C6.17734 33.9548 8.36746 31.8802 11.057 31.8802Z" fill="#0F0F10"/>
<path d="M20.1883 9.8623C18.4302 9.8623 17 11.3188 17 13.1092C17 14.8996 18.4302 16.3561 20.1883 16.3561C21.9463 16.3561 23.3765 14.8996 23.3765 13.1092C23.3765 11.3188 21.9463 9.8623 20.1883 9.8623ZM20.1883 15.1751C19.0697 15.1751 18.1597 14.2483 18.1597 13.1092C18.1597 11.9701 19.0697 11.0433 20.1883 11.0433C21.3068 11.0433 22.2169 11.9701 22.2169 13.1092C22.2169 14.2483 21.3068 15.1751 20.1883 15.1751Z" fill="#0F0F10"/>
<path d="M20.1922 0.0634766C19.8719 0.0634766 19.6123 0.327853 19.6123 0.653968V2.75464C14.4578 3.0508 10.3163 7.26851 10.0255 12.5178H7.96264C7.64241 12.5178 7.38281 12.7822 7.38281 13.1083C7.38281 13.4344 7.64241 13.6988 7.96264 13.6988H10.0263C10.2227 17.2286 12.1695 20.4172 15.2171 22.1576C15.2035 22.3077 15.1956 22.4595 15.1956 22.6132C15.1956 25.3332 17.3685 27.546 20.0394 27.546C22.7103 27.546 24.8832 25.3332 24.8832 22.6132C24.8832 22.5143 24.8795 22.4163 24.8739 22.3188C26.4758 21.473 27.8308 20.2097 28.7997 18.6528C29.7274 17.1621 30.2601 15.4603 30.3579 13.6988H32.4217C32.7419 13.6988 33.0015 13.4344 33.0015 13.1083C33.0015 12.7822 32.7419 12.5178 32.4217 12.5178H30.3589C30.0681 7.26851 25.9265 3.0508 20.772 2.75464V0.653968C20.772 0.327853 20.5124 0.0634766 20.1922 0.0634766ZM24.8907 13.6988H25.8068C25.6028 15.74 24.3507 17.5163 22.4894 18.3604C21.77 17.9289 20.9329 17.6803 20.0394 17.6803C19.2022 17.6803 18.4141 17.8978 17.7264 18.28C15.9667 17.4081 14.7784 15.6605 14.5779 13.6988H15.4937C15.8139 13.6988 16.0735 13.4344 16.0735 13.1083C16.0735 12.7822 15.8139 12.5178 15.4937 12.5178H14.577C14.8487 9.81855 16.9618 7.66657 19.6123 7.3899V8.32343C19.6123 8.64954 19.8719 8.91392 20.1922 8.91392C20.5124 8.91392 20.772 8.64954 20.772 8.32343V7.3899C23.4225 7.66658 25.5356 9.81855 25.8073 12.5178H24.8907C24.5705 12.5178 24.3109 12.7822 24.3109 13.1083C24.3109 13.4344 24.5705 13.6988 24.8907 13.6988ZM19.6123 3.93793V6.20565C16.3223 6.48996 13.6933 9.16727 13.4142 12.5178H11.1874C11.4752 7.91998 15.0975 4.23101 19.6123 3.93793ZM11.1873 13.6988H13.4137C13.6009 15.9105 14.8286 17.9105 16.6927 19.0521C16.1564 19.5751 15.7372 20.2213 15.4807 20.9466C12.9733 19.382 11.3747 16.6815 11.1873 13.6988ZM20.0394 26.3651C18.008 26.3651 16.3552 24.682 16.3552 22.6132C16.3552 20.5444 18.008 18.8612 20.0394 18.8612C22.0709 18.8612 23.7236 20.5444 23.7236 22.6132C23.7236 24.682 22.0709 26.3651 20.0394 26.3651ZM24.6492 21.1001C24.4161 20.3653 24.0182 19.7057 23.4998 19.1661C25.4798 18.048 26.7805 16.0069 26.9714 13.6988H29.1971C29.0055 16.8037 27.311 19.563 24.6492 21.1001ZM29.1969 12.5178H26.9702C26.691 9.16727 24.062 6.48996 20.772 6.20565V3.93793C25.2868 4.23101 28.9092 7.91998 29.1969 12.5178Z" fill="#0F0F10"/>
</g>
<defs>
<clipPath id="clip0_3630_46230">
<rect width="40" height="40" fill="white"/>
</clipPath>
</defs>
</svg>
