<svg width="40" height="40" viewBox="0 0 40 40" fill="none" xmlns="http://www.w3.org/2000/svg">
<g clip-path="url(#clip0_3630_46243)">
<path d="M35.625 0.625H4.375C3.38074 0.625993 2.42749 1.0214 1.72445 1.72445C1.0214 2.42749 0.625993 3.38074 0.625 4.375V35.625C0.625993 36.6193 1.0214 37.5725 1.72445 38.2756C2.42749 38.9786 3.38074 39.374 4.375 39.375H35.625C36.6193 39.374 37.5725 38.9786 38.2756 38.2756C38.9786 37.5725 39.374 36.6193 39.375 35.625V4.375C39.374 3.38074 38.9786 2.42749 38.2756 1.72445C37.5725 1.0214 36.6193 0.625993 35.625 0.625ZM38.125 4.375H13.125V1.875H35.625C36.288 1.875 36.9239 2.13839 37.3928 2.60723C37.8616 3.07607 38.125 3.71196 38.125 4.375ZM5.625 4.375V1.875H8.125V4.375H5.625ZM9.375 1.875H11.875V4.375H9.375V1.875ZM4.375 1.875V4.375H1.875C1.875 3.71196 2.13839 3.07607 2.60723 2.60723C3.07607 2.13839 3.71196 1.875 4.375 1.875ZM35.625 38.125H4.375C3.71196 38.125 3.07607 37.8616 2.60723 37.3928C2.13839 36.9239 1.875 36.288 1.875 35.625V5.625H38.125V35.625C38.125 36.288 37.8616 36.9239 37.3928 37.3928C36.9239 37.8616 36.288 38.125 35.625 38.125Z" fill="#0F0F10"/>
<path d="M10 21.875H8.75V30.625H10V21.875Z" fill="#0F0F10"/>
<path d="M12.5 21.875H11.25V30.625H12.5V21.875Z" fill="#0F0F10"/>
<path d="M15 21.875H13.75V30.625H15V21.875Z" fill="#0F0F10"/>
<path d="M31.875 20.625H28.75V20C28.75 19.5027 28.5525 19.0258 28.2008 18.6742C27.8492 18.3225 27.3723 18.125 26.875 18.125H24.375C23.8777 18.125 23.4008 18.3225 23.0492 18.6742C22.6975 19.0258 22.5 19.5027 22.5 20V20.625H19.375C18.9348 20.6276 18.5033 20.7475 18.125 20.9725V20.625C18.125 19.962 17.8616 19.3261 17.3928 18.8572C16.9239 18.3884 16.288 18.125 15.625 18.125V11.875C15.625 11.212 15.3616 10.5761 14.8928 10.1072C14.4239 9.63839 13.788 9.375 13.125 9.375H10.625C9.96196 9.375 9.32607 9.63839 8.85723 10.1072C8.38839 10.5761 8.125 11.212 8.125 11.875V18.125C7.46196 18.125 6.82607 18.3884 6.35723 18.8572C5.88839 19.3261 5.625 19.962 5.625 20.625V31.875C5.625 32.538 5.88839 33.1739 6.35723 33.6428C6.82607 34.1116 7.46196 34.375 8.125 34.375H15.625C15.9812 34.3739 16.333 34.2961 16.6565 34.1471C16.98 33.9981 17.2677 33.7812 17.5 33.5112C17.7323 33.7812 18.02 33.9981 18.3435 34.1471C18.667 34.2961 19.0188 34.3739 19.375 34.375H31.875C32.538 34.375 33.1739 34.1116 33.6428 33.6428C34.1116 33.1739 34.375 32.538 34.375 31.875V23.125C34.375 22.462 34.1116 21.8261 33.6428 21.3572C33.1739 20.8884 32.538 20.625 31.875 20.625ZM29.375 21.875V33.125H21.875V21.875H29.375ZM23.75 20C23.75 19.8342 23.8158 19.6753 23.9331 19.5581C24.0503 19.4408 24.2092 19.375 24.375 19.375H26.875C27.0408 19.375 27.1997 19.4408 27.3169 19.5581C27.4342 19.6753 27.5 19.8342 27.5 20V20.625H23.75V20ZM9.375 11.875C9.375 11.5435 9.5067 11.2255 9.74112 10.9911C9.97554 10.7567 10.2935 10.625 10.625 10.625H13.125C13.4565 10.625 13.7745 10.7567 14.0089 10.9911C14.2433 11.2255 14.375 11.5435 14.375 11.875V18.125H9.375V11.875ZM15.625 33.125H8.125C7.79348 33.125 7.47554 32.9933 7.24112 32.7589C7.0067 32.5245 6.875 32.2065 6.875 31.875V20.625C6.875 20.2935 7.0067 19.9755 7.24112 19.7411C7.47554 19.5067 7.79348 19.375 8.125 19.375H15.625C15.9565 19.375 16.2745 19.5067 16.5089 19.7411C16.7433 19.9755 16.875 20.2935 16.875 20.625V31.875C16.875 32.2065 16.7433 32.5245 16.5089 32.7589C16.2745 32.9933 15.9565 33.125 15.625 33.125ZM18.125 31.875V23.125C18.125 22.7935 18.2567 22.4755 18.4911 22.2411C18.7255 22.0067 19.0435 21.875 19.375 21.875H20.625V33.125H19.375C19.0435 33.125 18.7255 32.9933 18.4911 32.7589C18.2567 32.5245 18.125 32.2065 18.125 31.875ZM33.125 31.875C33.125 32.2065 32.9933 32.5245 32.7589 32.7589C32.5245 32.9933 32.2065 33.125 31.875 33.125H30.625V21.875H31.875C32.2065 21.875 32.5245 22.0067 32.7589 22.2411C32.9933 22.4755 33.125 22.7935 33.125 23.125V31.875Z" fill="#0F0F10"/>
<path d="M23.75 26.875H27.5C27.6658 26.875 27.8247 26.8092 27.9419 26.6919C28.0592 26.5747 28.125 26.4158 28.125 26.25V23.75C28.125 23.5842 28.0592 23.4253 27.9419 23.3081C27.8247 23.1908 27.6658 23.125 27.5 23.125H23.75C23.5842 23.125 23.4253 23.1908 23.3081 23.3081C23.1908 23.4253 23.125 23.5842 23.125 23.75V26.25C23.125 26.4158 23.1908 26.5747 23.3081 26.6919C23.4253 26.8092 23.5842 26.875 23.75 26.875ZM24.375 24.375H26.875V25.625H24.375V24.375Z" fill="#0F0F10"/>
</g>
<defs>
<clipPath id="clip0_3630_46243">
<rect width="40" height="40" fill="white"/>
</clipPath>
</defs>
</svg>
