<svg width="72" height="72" viewBox="0 0 72 72" fill="none" xmlns="http://www.w3.org/2000/svg">
<mask id="path-1-outside-1_3630_46281" maskUnits="userSpaceOnUse" x="1" y="1" width="70" height="70" fill="black">
<rect fill="white" x="1" y="1" width="70" height="70"/>
<path d="M69.6882 23.6631L61.5804 15.4802C61.3808 15.2787 61.11 15.1655 60.8277 15.1655H44.6126C44.6125 15.1655 44.6122 15.1655 44.6119 15.1655H28.3965C28.1143 15.1655 27.8435 15.2787 27.6439 15.4802L19.536 23.6631C19.3357 23.8652 19.2236 24.1396 19.2242 24.4254C19.2249 24.7112 19.3384 24.985 19.5396 25.1862L43.9804 49.6158C44.188 49.8231 44.4588 49.9268 44.7296 49.9268C45.0021 49.9268 45.2745 49.8219 45.4822 49.6121L69.6881 25.1826C70.1039 24.7629 70.1039 24.0826 69.6882 23.6631ZM51.2429 25.4971L44.6223 45.5425L37.9828 25.4971H51.2429ZM39.0745 23.3483L44.6123 17.7593L50.15 23.3483H39.0745ZM47.1822 17.3143H58.2576L52.7199 22.9033L47.1822 17.3143ZM36.5045 22.9033L30.9668 17.3143H42.0423L36.5045 22.9033ZM35.7379 25.4971L42.1032 44.7149L22.8767 25.4971H35.7379ZM53.4872 25.4971H66.3654L47.0481 44.9929L53.4872 25.4971ZM55.2899 23.3483L60.8276 17.7593L66.3653 23.3483H55.2899ZM28.3966 17.7594L33.9343 23.3484H22.859L28.3966 17.7594ZM43.5476 11.1039V3.07442C43.5476 2.48107 44.0241 2 44.6122 2C45.2001 2 45.6768 2.48107 45.6768 3.07442V11.1039C45.6768 11.6973 45.2001 12.1784 44.6122 12.1784C44.0241 12.1784 43.5476 11.6974 43.5476 11.1039ZM52.4189 11.9639L56.3746 5.47896C56.6828 4.97372 57.3384 4.81618 57.8393 5.12723C58.3401 5.43827 58.496 6.10011 58.1877 6.60536L54.232 13.0903C54.0309 13.42 53.6819 13.6016 53.3244 13.6016C53.1341 13.6016 52.9415 13.5501 52.7674 13.442C52.2667 13.131 52.1106 12.4693 52.4189 11.9639ZM31.0365 6.60549C30.7283 6.10024 30.8843 5.4384 31.3851 5.12736C31.8857 4.81645 32.5415 4.97372 32.8497 5.4791L36.8054 11.964C37.1136 12.4693 36.9577 13.1311 36.457 13.4421C36.2829 13.5503 36.0902 13.6017 35.8998 13.6017C35.5424 13.6017 35.1933 13.4201 34.9922 13.0904L31.0365 6.60549ZM64.7216 51.28C63.3741 50.4949 61.809 50.2848 60.3149 50.6891L42.6458 55.4669C42.8208 54.5417 42.79 53.579 42.544 52.6371C42.1124 50.9856 41.0758 49.6062 39.6248 48.753L23.7856 39.4395C23.7444 39.4154 23.7017 39.394 23.6578 39.3755C21.2039 38.3475 18.7152 38.3454 16.2614 39.3688L10.5769 41.7387V40.7706C10.5769 39.5964 9.63037 38.6411 8.46705 38.6411H4.10986C2.94654 38.6411 2 39.5964 2 40.7706V64.563C2 65.7373 2.94654 66.6925 4.10986 66.6925H8.46692C9.63024 66.6925 10.5768 65.7373 10.5768 64.563V63.5598C13.5643 62.3296 15.9831 62.4064 18.5795 63.7946L27.7647 68.7053C29.3823 69.5701 30.9732 70 32.5774 70C33.4008 70 34.2281 69.8867 35.064 69.6608L63.3228 62.0192C66.4174 61.1824 68.2605 57.9601 67.4316 54.8365C67.0316 53.3283 66.0692 52.0653 64.7216 51.28ZM4.12916 64.5438V40.79H8.44776V64.5438H4.12916ZM62.7721 59.9436L34.5132 67.5851C32.5938 68.1041 30.7122 67.8496 28.7615 66.8066L19.5765 61.8958C16.6441 60.328 13.8202 60.1189 10.5771 61.2624V44.0637L17.0744 41.3548C18.9933 40.5545 20.8596 40.5474 22.7773 41.3336L38.553 50.6097C39.5125 51.1739 40.1987 52.0885 40.4852 53.1851C40.7717 54.2817 40.6216 55.4188 40.0627 56.3871C39.5026 57.3572 38.5966 58.0505 37.5116 58.3392C36.4266 58.628 35.2995 58.4757 34.3383 57.9105L25.8773 52.9356C25.3694 52.637 24.7176 52.8103 24.4216 53.323C24.1257 53.8358 24.2975 54.4935 24.8056 54.7923L33.2666 59.7671C34.2395 60.3392 35.3235 60.6318 36.4246 60.6318C36.9674 60.6318 37.5145 60.5607 38.0545 60.417C39.4917 60.0344 40.7212 59.1789 41.5725 57.9818L60.8661 52.7647C61.811 52.5093 62.802 52.6428 63.6571 53.1411C64.5121 53.6392 65.1222 54.4388 65.3752 55.3924C65.9003 57.3717 64.7326 59.4134 62.7721 59.9436Z"/>
</mask>
<path d="M69.6882 23.6631L61.5804 15.4802C61.3808 15.2787 61.11 15.1655 60.8277 15.1655H44.6126C44.6125 15.1655 44.6122 15.1655 44.6119 15.1655H28.3965C28.1143 15.1655 27.8435 15.2787 27.6439 15.4802L19.536 23.6631C19.3357 23.8652 19.2236 24.1396 19.2242 24.4254C19.2249 24.7112 19.3384 24.985 19.5396 25.1862L43.9804 49.6158C44.188 49.8231 44.4588 49.9268 44.7296 49.9268C45.0021 49.9268 45.2745 49.8219 45.4822 49.6121L69.6881 25.1826C70.1039 24.7629 70.1039 24.0826 69.6882 23.6631ZM51.2429 25.4971L44.6223 45.5425L37.9828 25.4971H51.2429ZM39.0745 23.3483L44.6123 17.7593L50.15 23.3483H39.0745ZM47.1822 17.3143H58.2576L52.7199 22.9033L47.1822 17.3143ZM36.5045 22.9033L30.9668 17.3143H42.0423L36.5045 22.9033ZM35.7379 25.4971L42.1032 44.7149L22.8767 25.4971H35.7379ZM53.4872 25.4971H66.3654L47.0481 44.9929L53.4872 25.4971ZM55.2899 23.3483L60.8276 17.7593L66.3653 23.3483H55.2899ZM28.3966 17.7594L33.9343 23.3484H22.859L28.3966 17.7594ZM43.5476 11.1039V3.07442C43.5476 2.48107 44.0241 2 44.6122 2C45.2001 2 45.6768 2.48107 45.6768 3.07442V11.1039C45.6768 11.6973 45.2001 12.1784 44.6122 12.1784C44.0241 12.1784 43.5476 11.6974 43.5476 11.1039ZM52.4189 11.9639L56.3746 5.47896C56.6828 4.97372 57.3384 4.81618 57.8393 5.12723C58.3401 5.43827 58.496 6.10011 58.1877 6.60536L54.232 13.0903C54.0309 13.42 53.6819 13.6016 53.3244 13.6016C53.1341 13.6016 52.9415 13.5501 52.7674 13.442C52.2667 13.131 52.1106 12.4693 52.4189 11.9639ZM31.0365 6.60549C30.7283 6.10024 30.8843 5.4384 31.3851 5.12736C31.8857 4.81645 32.5415 4.97372 32.8497 5.4791L36.8054 11.964C37.1136 12.4693 36.9577 13.1311 36.457 13.4421C36.2829 13.5503 36.0902 13.6017 35.8998 13.6017C35.5424 13.6017 35.1933 13.4201 34.9922 13.0904L31.0365 6.60549ZM64.7216 51.28C63.3741 50.4949 61.809 50.2848 60.3149 50.6891L42.6458 55.4669C42.8208 54.5417 42.79 53.579 42.544 52.6371C42.1124 50.9856 41.0758 49.6062 39.6248 48.753L23.7856 39.4395C23.7444 39.4154 23.7017 39.394 23.6578 39.3755C21.2039 38.3475 18.7152 38.3454 16.2614 39.3688L10.5769 41.7387V40.7706C10.5769 39.5964 9.63037 38.6411 8.46705 38.6411H4.10986C2.94654 38.6411 2 39.5964 2 40.7706V64.563C2 65.7373 2.94654 66.6925 4.10986 66.6925H8.46692C9.63024 66.6925 10.5768 65.7373 10.5768 64.563V63.5598C13.5643 62.3296 15.9831 62.4064 18.5795 63.7946L27.7647 68.7053C29.3823 69.5701 30.9732 70 32.5774 70C33.4008 70 34.2281 69.8867 35.064 69.6608L63.3228 62.0192C66.4174 61.1824 68.2605 57.9601 67.4316 54.8365C67.0316 53.3283 66.0692 52.0653 64.7216 51.28ZM4.12916 64.5438V40.79H8.44776V64.5438H4.12916ZM62.7721 59.9436L34.5132 67.5851C32.5938 68.1041 30.7122 67.8496 28.7615 66.8066L19.5765 61.8958C16.6441 60.328 13.8202 60.1189 10.5771 61.2624V44.0637L17.0744 41.3548C18.9933 40.5545 20.8596 40.5474 22.7773 41.3336L38.553 50.6097C39.5125 51.1739 40.1987 52.0885 40.4852 53.1851C40.7717 54.2817 40.6216 55.4188 40.0627 56.3871C39.5026 57.3572 38.5966 58.0505 37.5116 58.3392C36.4266 58.628 35.2995 58.4757 34.3383 57.9105L25.8773 52.9356C25.3694 52.637 24.7176 52.8103 24.4216 53.323C24.1257 53.8358 24.2975 54.4935 24.8056 54.7923L33.2666 59.7671C34.2395 60.3392 35.3235 60.6318 36.4246 60.6318C36.9674 60.6318 37.5145 60.5607 38.0545 60.417C39.4917 60.0344 40.7212 59.1789 41.5725 57.9818L60.8661 52.7647C61.811 52.5093 62.802 52.6428 63.6571 53.1411C64.5121 53.6392 65.1222 54.4388 65.3752 55.3924C65.9003 57.3717 64.7326 59.4134 62.7721 59.9436Z" fill="#F0500B"/>
<path d="M69.6882 23.6631L61.5804 15.4802C61.3808 15.2787 61.11 15.1655 60.8277 15.1655H44.6126C44.6125 15.1655 44.6122 15.1655 44.6119 15.1655H28.3965C28.1143 15.1655 27.8435 15.2787 27.6439 15.4802L19.536 23.6631C19.3357 23.8652 19.2236 24.1396 19.2242 24.4254C19.2249 24.7112 19.3384 24.985 19.5396 25.1862L43.9804 49.6158C44.188 49.8231 44.4588 49.9268 44.7296 49.9268C45.0021 49.9268 45.2745 49.8219 45.4822 49.6121L69.6881 25.1826C70.1039 24.7629 70.1039 24.0826 69.6882 23.6631ZM51.2429 25.4971L44.6223 45.5425L37.9828 25.4971H51.2429ZM39.0745 23.3483L44.6123 17.7593L50.15 23.3483H39.0745ZM47.1822 17.3143H58.2576L52.7199 22.9033L47.1822 17.3143ZM36.5045 22.9033L30.9668 17.3143H42.0423L36.5045 22.9033ZM35.7379 25.4971L42.1032 44.7149L22.8767 25.4971H35.7379ZM53.4872 25.4971H66.3654L47.0481 44.9929L53.4872 25.4971ZM55.2899 23.3483L60.8276 17.7593L66.3653 23.3483H55.2899ZM28.3966 17.7594L33.9343 23.3484H22.859L28.3966 17.7594ZM43.5476 11.1039V3.07442C43.5476 2.48107 44.0241 2 44.6122 2C45.2001 2 45.6768 2.48107 45.6768 3.07442V11.1039C45.6768 11.6973 45.2001 12.1784 44.6122 12.1784C44.0241 12.1784 43.5476 11.6974 43.5476 11.1039ZM52.4189 11.9639L56.3746 5.47896C56.6828 4.97372 57.3384 4.81618 57.8393 5.12723C58.3401 5.43827 58.496 6.10011 58.1877 6.60536L54.232 13.0903C54.0309 13.42 53.6819 13.6016 53.3244 13.6016C53.1341 13.6016 52.9415 13.5501 52.7674 13.442C52.2667 13.131 52.1106 12.4693 52.4189 11.9639ZM31.0365 6.60549C30.7283 6.10024 30.8843 5.4384 31.3851 5.12736C31.8857 4.81645 32.5415 4.97372 32.8497 5.4791L36.8054 11.964C37.1136 12.4693 36.9577 13.1311 36.457 13.4421C36.2829 13.5503 36.0902 13.6017 35.8998 13.6017C35.5424 13.6017 35.1933 13.4201 34.9922 13.0904L31.0365 6.60549ZM64.7216 51.28C63.3741 50.4949 61.809 50.2848 60.3149 50.6891L42.6458 55.4669C42.8208 54.5417 42.79 53.579 42.544 52.6371C42.1124 50.9856 41.0758 49.6062 39.6248 48.753L23.7856 39.4395C23.7444 39.4154 23.7017 39.394 23.6578 39.3755C21.2039 38.3475 18.7152 38.3454 16.2614 39.3688L10.5769 41.7387V40.7706C10.5769 39.5964 9.63037 38.6411 8.46705 38.6411H4.10986C2.94654 38.6411 2 39.5964 2 40.7706V64.563C2 65.7373 2.94654 66.6925 4.10986 66.6925H8.46692C9.63024 66.6925 10.5768 65.7373 10.5768 64.563V63.5598C13.5643 62.3296 15.9831 62.4064 18.5795 63.7946L27.7647 68.7053C29.3823 69.5701 30.9732 70 32.5774 70C33.4008 70 34.2281 69.8867 35.064 69.6608L63.3228 62.0192C66.4174 61.1824 68.2605 57.9601 67.4316 54.8365C67.0316 53.3283 66.0692 52.0653 64.7216 51.28ZM4.12916 64.5438V40.79H8.44776V64.5438H4.12916ZM62.7721 59.9436L34.5132 67.5851C32.5938 68.1041 30.7122 67.8496 28.7615 66.8066L19.5765 61.8958C16.6441 60.328 13.8202 60.1189 10.5771 61.2624V44.0637L17.0744 41.3548C18.9933 40.5545 20.8596 40.5474 22.7773 41.3336L38.553 50.6097C39.5125 51.1739 40.1987 52.0885 40.4852 53.1851C40.7717 54.2817 40.6216 55.4188 40.0627 56.3871C39.5026 57.3572 38.5966 58.0505 37.5116 58.3392C36.4266 58.628 35.2995 58.4757 34.3383 57.9105L25.8773 52.9356C25.3694 52.637 24.7176 52.8103 24.4216 53.323C24.1257 53.8358 24.2975 54.4935 24.8056 54.7923L33.2666 59.7671C34.2395 60.3392 35.3235 60.6318 36.4246 60.6318C36.9674 60.6318 37.5145 60.5607 38.0545 60.417C39.4917 60.0344 40.7212 59.1789 41.5725 57.9818L60.8661 52.7647C61.811 52.5093 62.802 52.6428 63.6571 53.1411C64.5121 53.6392 65.1222 54.4388 65.3752 55.3924C65.9003 57.3717 64.7326 59.4134 62.7721 59.9436Z" stroke="#F0500B" stroke-width="0.4" mask="url(#path-1-outside-1_3630_46281)"/>
</svg>
