<svg width="72" height="72" viewBox="0 0 72 72" fill="none" xmlns="http://www.w3.org/2000/svg">
<mask id="path-1-inside-1_165_3401" fill="white">
<path d="M68.3438 7.6499H3.65625C3.39518 7.6499 3.1448 7.75361 2.96019 7.93822C2.77559 8.12283 2.67188 8.3732 2.67188 8.63428V63.37C2.67306 63.6303 2.7773 63.8795 2.96178 64.0632C3.14626 64.2468 3.39596 64.3499 3.65625 64.3499H68.3438C68.6048 64.3499 68.8552 64.2462 69.0398 64.0616C69.2244 63.877 69.3281 63.6266 69.3281 63.3655V8.63203C69.3275 8.37134 69.2236 8.12154 69.039 7.93742C68.8545 7.7533 68.6044 7.6499 68.3438 7.6499ZM4.64062 9.61865H67.3594V15.602H4.64062V9.61865ZM4.64062 62.3857V17.5707H67.3594V62.3812L4.64062 62.3857Z"/>
</mask>
<path d="M68.3438 7.6499H3.65625C3.39518 7.6499 3.1448 7.75361 2.96019 7.93822C2.77559 8.12283 2.67188 8.3732 2.67188 8.63428V63.37C2.67306 63.6303 2.7773 63.8795 2.96178 64.0632C3.14626 64.2468 3.39596 64.3499 3.65625 64.3499H68.3438C68.6048 64.3499 68.8552 64.2462 69.0398 64.0616C69.2244 63.877 69.3281 63.6266 69.3281 63.3655V8.63203C69.3275 8.37134 69.2236 8.12154 69.039 7.93742C68.8545 7.7533 68.6044 7.6499 68.3438 7.6499ZM4.64062 9.61865H67.3594V15.602H4.64062V9.61865ZM4.64062 62.3857V17.5707H67.3594V62.3812L4.64062 62.3857Z" fill="#0F0F10"/>
<path d="M68.3438 7.6499V11.6499H68.3438L68.3438 7.6499ZM3.65625 7.6499V11.6499V7.6499ZM2.67188 63.37H-1.32812V63.3792L-1.32808 63.3883L2.67188 63.37ZM3.65625 64.3499V60.3499H3.65621L3.65625 64.3499ZM69.3281 8.63203H73.3281L73.3281 8.62288L69.3281 8.63203ZM4.64062 9.61865V5.61865H0.640625V9.61865H4.64062ZM67.3594 9.61865H71.3594V5.61865H67.3594V9.61865ZM67.3594 15.602V19.602H71.3594V15.602H67.3594ZM4.64062 15.602H0.640625V19.602H4.64062V15.602ZM4.64062 62.3857H0.640625V66.3859L4.64091 66.3857L4.64062 62.3857ZM4.64062 17.5707V13.5707H0.640625V17.5707H4.64062ZM67.3594 17.5707H71.3594V13.5707H67.3594V17.5707ZM67.3594 62.3812L67.3597 66.3812L71.3594 66.3809V62.3812H67.3594ZM68.3438 3.6499H3.65625V11.6499H68.3438V3.6499ZM3.65625 3.6499C2.33431 3.6499 1.06652 4.17504 0.131765 5.10979L5.78862 10.7666C5.22308 11.3322 4.45604 11.6499 3.65625 11.6499V3.6499ZM0.131765 5.10979C-0.802987 6.04454 -1.32812 7.31234 -1.32812 8.63428H6.67188C6.67188 9.43407 6.35416 10.2011 5.78862 10.7666L0.131765 5.10979ZM-1.32812 8.63428V63.37H6.67188V8.63428H-1.32812ZM-1.32808 63.3883C-1.32206 64.7063 -0.794264 65.9682 0.139838 66.8981L5.78372 61.2283C6.34886 61.7908 6.66819 62.5543 6.67183 63.3517L-1.32808 63.3883ZM0.139838 66.8981C1.07392 67.8279 2.33827 68.3499 3.65629 68.3499L3.65621 60.3499C4.45364 60.3499 5.21859 60.6657 5.78372 61.2283L0.139838 66.8981ZM3.65625 68.3499H68.3438V60.3499H3.65625V68.3499ZM68.3438 68.3499C69.6657 68.3499 70.9335 67.8247 71.8682 66.89L66.2114 61.2332C66.7769 60.6676 67.5439 60.3499 68.3438 60.3499V68.3499ZM71.8682 66.89C72.803 65.9553 73.3281 64.6875 73.3281 63.3655H65.3281C65.3281 62.5657 65.6459 61.7987 66.2114 61.2332L71.8682 66.89ZM73.3281 63.3655V8.63203H65.3281V63.3655H73.3281ZM73.3281 8.62288C73.3251 7.30291 72.7986 6.03804 71.8642 5.10576L66.2138 10.7691C65.6485 10.205 65.33 9.43978 65.3281 8.64117L73.3281 8.62288ZM71.8642 5.10576C70.9298 4.17347 69.6637 3.6499 68.3437 3.6499L68.3438 11.6499C67.5452 11.6499 66.7792 11.3331 66.2138 10.7691L71.8642 5.10576ZM4.64062 13.6187H67.3594V5.61865H4.64062V13.6187ZM63.3594 9.61865V15.602H71.3594V9.61865H63.3594ZM67.3594 11.602H4.64062V19.602H67.3594V11.602ZM8.64062 15.602V9.61865H0.640625V15.602H8.64062ZM8.64062 62.3857V17.5707H0.640625V62.3857H8.64062ZM4.64062 21.5707H67.3594V13.5707H4.64062V21.5707ZM63.3594 17.5707V62.3812H71.3594V17.5707H63.3594ZM67.3591 58.3812L4.64034 58.3857L4.64091 66.3857L67.3597 66.3812L67.3591 58.3812Z" fill="#0F0F10" mask="url(#path-1-inside-1_165_3401)"/>
<mask id="path-3-inside-2_165_3401" fill="white">
<path d="M46.6619 10.9087C46.3255 10.9087 45.9966 11.0085 45.7169 11.1954C45.4372 11.3823 45.2192 11.6479 45.0904 11.9587C44.9617 12.2696 44.928 12.6116 44.9936 12.9415C45.0593 13.2715 45.2213 13.5746 45.4592 13.8125C45.697 14.0504 46.0001 14.2124 46.3301 14.278C46.6601 14.3436 47.0021 14.31 47.3129 14.1812C47.6237 14.0525 47.8894 13.8344 48.0763 13.5547C48.2632 13.275 48.3629 12.9461 48.3629 12.6097C48.3629 12.1586 48.1837 11.7259 47.8647 11.4069C47.5457 11.0879 47.1131 10.9087 46.6619 10.9087Z"/>
</mask>
<path d="M46.6619 10.9087C46.3255 10.9087 45.9966 11.0085 45.7169 11.1954C45.4372 11.3823 45.2192 11.6479 45.0904 11.9587C44.9617 12.2696 44.928 12.6116 44.9936 12.9415C45.0593 13.2715 45.2213 13.5746 45.4592 13.8125C45.697 14.0504 46.0001 14.2124 46.3301 14.278C46.6601 14.3436 47.0021 14.31 47.3129 14.1812C47.6237 14.0525 47.8894 13.8344 48.0763 13.5547C48.2632 13.275 48.3629 12.9461 48.3629 12.6097C48.3629 12.1586 48.1837 11.7259 47.8647 11.4069C47.5457 11.0879 47.1131 10.9087 46.6619 10.9087Z" fill="#0F0F10"/>
<path d="M46.6619 10.9087V14.9087V10.9087ZM46.6619 6.90869C45.5344 6.90869 44.4322 7.24305 43.4946 7.86948L47.9392 14.5212C47.5611 14.7739 47.1166 14.9087 46.6619 14.9087V6.90869ZM43.4946 7.86948C42.5571 8.49591 41.8264 9.38629 41.3949 10.428L48.7859 13.4895C48.6119 13.9096 48.3173 14.2686 47.9392 14.5212L43.4946 7.86948ZM41.3949 10.428C40.9634 11.4697 40.8505 12.616 41.0705 13.7219L48.9168 12.1612C49.0055 12.6071 48.9599 13.0694 48.7859 13.4895L41.3949 10.428ZM41.0705 13.7219C41.2905 14.8278 41.8334 15.8436 42.6307 16.6409L48.2876 10.9841C48.6091 11.3056 48.8281 11.7152 48.9168 12.1612L41.0705 13.7219ZM42.6307 16.6409C43.428 17.4382 44.4438 17.9812 45.5497 18.2011L47.1105 10.3549C47.5564 10.4436 47.9661 10.6625 48.2876 10.9841L42.6307 16.6409ZM45.5497 18.2011C46.6556 18.4211 47.8019 18.3082 48.8436 17.8767L45.7822 10.4857C46.2022 10.3117 46.6645 10.2662 47.1105 10.3549L45.5497 18.2011ZM48.8436 17.8767C49.8853 17.4452 50.7757 16.7145 51.4021 15.777L44.7504 11.3324C45.003 10.9544 45.3621 10.6597 45.7822 10.4857L48.8436 17.8767ZM51.4021 15.777C52.0286 14.8395 52.3629 13.7372 52.3629 12.6097H44.3629C44.3629 12.155 44.4978 11.7105 44.7504 11.3324L51.4021 15.777ZM52.3629 12.6097C52.3629 11.0977 51.7623 9.64761 50.6932 8.57848L45.0363 14.2353C44.6052 13.8042 44.3629 13.2194 44.3629 12.6097H52.3629ZM50.6932 8.57848C49.624 7.50933 48.1739 6.90869 46.6619 6.90869V14.9087C46.0522 14.9087 45.4674 14.6665 45.0363 14.2353L50.6932 8.57848Z" fill="#0F0F10" mask="url(#path-3-inside-2_165_3401)"/>
<mask id="path-5-inside-3_165_3401" fill="white">
<path d="M53.3188 10.9087C52.9823 10.9086 52.6534 11.0082 52.3736 11.1951C52.0938 11.3819 51.8757 11.6475 51.7468 11.9584C51.618 12.2692 51.5842 12.6112 51.6498 12.9412C51.7154 13.2712 51.8773 13.5743 52.1152 13.8123C52.3531 14.0502 52.6562 14.2123 52.9861 14.278C53.3161 14.3436 53.6582 14.31 53.969 14.1813C54.2799 14.0525 54.5455 13.8345 54.7325 13.5548C54.9194 13.275 55.0192 12.9461 55.0192 12.6097C55.0192 12.1587 54.8401 11.7261 54.5212 11.4071C54.2023 11.0881 53.7698 10.9088 53.3188 10.9087Z"/>
</mask>
<path d="M53.3188 10.9087C52.9823 10.9086 52.6534 11.0082 52.3736 11.1951C52.0938 11.3819 51.8757 11.6475 51.7468 11.9584C51.618 12.2692 51.5842 12.6112 51.6498 12.9412C51.7154 13.2712 51.8773 13.5743 52.1152 13.8123C52.3531 14.0502 52.6562 14.2123 52.9861 14.278C53.3161 14.3436 53.6582 14.31 53.969 14.1813C54.2799 14.0525 54.5455 13.8345 54.7325 13.5548C54.9194 13.275 55.0192 12.9461 55.0192 12.6097C55.0192 12.1587 54.8401 11.7261 54.5212 11.4071C54.2023 11.0881 53.7698 10.9088 53.3188 10.9087Z" fill="#0F0F10"/>
<path d="M53.3188 10.9087L53.3201 6.90869L53.3188 10.9087ZM55.0192 12.6097L59.0192 12.6097L55.0192 12.6097ZM53.3201 6.90869C52.1924 6.90832 51.09 7.24236 50.1523 7.86857L54.5949 14.5216C54.2167 14.7741 53.7722 14.9088 53.3174 14.9087L53.3201 6.90869ZM50.1523 7.86857C49.2145 8.49476 48.4835 9.385 48.0517 10.4267L55.442 13.49C55.2678 13.9101 54.973 14.2691 54.5949 14.5216L50.1523 7.86857ZM48.0517 10.4267C47.6199 11.4684 47.5067 12.6147 47.7265 13.7207L55.5731 12.1616C55.6617 12.6077 55.6161 13.0699 55.442 13.49L48.0517 10.4267ZM47.7265 13.7207C47.9463 14.8268 48.4891 15.8428 49.2863 16.6402L54.9441 10.9843C55.2656 11.3059 55.4845 11.7156 55.5731 12.1616L47.7265 13.7207ZM49.2863 16.6402C50.0835 17.4377 51.0993 17.9809 52.2053 18.201L53.767 10.3549C54.213 10.4437 54.6226 10.6627 54.9441 10.9843L49.2863 16.6402ZM52.2053 18.201C53.3112 18.4211 54.4576 18.3083 55.4994 17.8769L52.4386 10.4856C52.8587 10.3116 53.321 10.2662 53.767 10.3549L52.2053 18.201ZM55.4994 17.8769C56.5413 17.4455 57.4317 16.7148 58.0583 15.7772L51.4067 11.3324C51.6593 10.9543 52.0185 10.6596 52.4386 10.4856L55.4994 17.8769ZM58.0583 15.7772C58.6848 14.8396 59.0192 13.7373 59.0192 12.6097L51.0192 12.6097C51.0192 12.155 51.154 11.7104 51.4067 11.3324L58.0583 15.7772ZM59.0192 12.6097C59.0192 11.098 58.4188 9.64822 57.3501 8.57914L51.6923 14.2351C51.2613 13.8039 51.0192 13.2193 51.0192 12.6097L59.0192 12.6097ZM57.3501 8.57914C56.2813 7.51005 54.8318 6.90919 53.3201 6.90869L53.3174 14.9087C52.7078 14.9085 52.1233 14.6662 51.6923 14.2351L57.3501 8.57914Z" fill="#0F0F10" mask="url(#path-5-inside-3_165_3401)"/>
<mask id="path-7-inside-4_165_3401" fill="white">
<path d="M59.975 10.9087C59.6386 10.9086 59.3096 11.0082 59.0298 11.1951C58.75 11.3819 58.5319 11.6475 58.4031 11.9584C58.2743 12.2692 58.2405 12.6112 58.3061 12.9412C58.3716 13.2712 58.5336 13.5743 58.7715 13.8123C59.0093 14.0502 59.3124 14.2123 59.6424 14.278C59.9724 14.3436 60.3144 14.31 60.6253 14.1813C60.9361 14.0525 61.2018 13.8345 61.3887 13.5548C61.5757 13.275 61.6754 12.9461 61.6754 12.6097C61.6755 12.3863 61.6316 12.1652 61.5462 11.9588C61.4607 11.7524 61.3355 11.5649 61.1776 11.4069C61.0197 11.249 60.8322 11.1237 60.6259 11.0382C60.4195 10.9527 60.1984 10.9087 59.975 10.9087Z"/>
</mask>
<path d="M59.975 10.9087C59.6386 10.9086 59.3096 11.0082 59.0298 11.1951C58.75 11.3819 58.5319 11.6475 58.4031 11.9584C58.2743 12.2692 58.2405 12.6112 58.3061 12.9412C58.3716 13.2712 58.5336 13.5743 58.7715 13.8123C59.0093 14.0502 59.3124 14.2123 59.6424 14.278C59.9724 14.3436 60.3144 14.31 60.6253 14.1813C60.9361 14.0525 61.2018 13.8345 61.3887 13.5548C61.5757 13.275 61.6754 12.9461 61.6754 12.6097C61.6755 12.3863 61.6316 12.1652 61.5462 11.9588C61.4607 11.7524 61.3355 11.5649 61.1776 11.4069C61.0197 11.249 60.8322 11.1237 60.6259 11.0382C60.4195 10.9527 60.1984 10.9087 59.975 10.9087Z" fill="#0F0F10"/>
<path d="M59.975 10.9087L59.9737 14.9087H59.975L59.975 10.9087ZM61.6754 12.6097L57.6754 12.6084V12.6097L61.6754 12.6097ZM59.9763 6.90869C58.8487 6.90832 57.7463 7.24236 56.8085 7.86857L61.2511 14.5216C60.873 14.7741 60.4284 14.9088 59.9737 14.9087L59.9763 6.90869ZM56.8085 7.86857C55.8707 8.49476 55.1397 9.385 54.7079 10.4267L62.0982 13.49C61.9241 13.9101 61.6293 14.2691 61.2511 14.5216L56.8085 7.86857ZM54.7079 10.4267C54.2762 11.4684 54.163 12.6147 54.3828 13.7207L62.2294 12.1616C62.318 12.6077 62.2723 13.0699 62.0982 13.49L54.7079 10.4267ZM54.3828 13.7207C54.6025 14.8268 55.1454 15.8428 55.9426 16.6402L61.6003 10.9843C61.9218 11.3059 62.1407 11.7156 62.2294 12.1616L54.3828 13.7207ZM55.9426 16.6402C56.7398 17.4377 57.7556 17.9809 58.8615 18.201L60.4232 10.3549C60.8692 10.4437 61.2789 10.6627 61.6003 10.9843L55.9426 16.6402ZM58.8615 18.201C59.9675 18.4211 61.1139 18.3083 62.1557 17.8769L59.0948 10.4856C59.515 10.3116 59.9772 10.2662 60.4232 10.3549L58.8615 18.201ZM62.1557 17.8769C63.1975 17.4455 64.088 16.7148 64.7145 15.7772L58.0629 11.3324C58.3156 10.9543 58.6747 10.6596 59.0948 10.4856L62.1557 17.8769ZM64.7145 15.7772C65.341 14.8396 65.6754 13.7373 65.6754 12.6097L57.6754 12.6097C57.6754 12.155 57.8103 11.7104 58.0629 11.3324L64.7145 15.7772ZM65.6754 12.611C65.6757 11.8622 65.5284 11.1208 65.2421 10.429L57.8503 13.4886C57.7348 13.2095 57.6753 12.9104 57.6754 12.6084L65.6754 12.611ZM65.2421 10.429C64.9557 9.73715 64.5359 9.10852 64.0065 8.57898L58.3487 14.2349C58.1351 14.0213 57.9658 13.7677 57.8503 13.4886L65.2421 10.429ZM64.0065 8.57898C63.4771 8.04944 62.8486 7.62938 62.1569 7.34279L59.0948 14.7336C58.8158 14.618 58.5622 14.4485 58.3487 14.2349L64.0065 8.57898ZM62.1569 7.34279C61.4652 7.0562 60.7238 6.90869 59.975 6.90869L59.975 14.9087C59.673 14.9087 59.3739 14.8492 59.0948 14.7336L62.1569 7.34279Z" fill="#0F0F10" mask="url(#path-7-inside-4_165_3401)"/>
<mask id="path-9-inside-5_165_3401" fill="white">
<path d="M48.956 28.4119C45.6975 28.3343 38.3681 25.6984 36.7025 24.0042C36.5138 23.822 36.2617 23.7202 35.9994 23.7202C35.7371 23.7202 35.485 23.822 35.2963 24.0042C33.6307 25.6984 26.3013 28.3354 23.0428 28.4119C22.7858 28.4178 22.5414 28.5241 22.3618 28.7079C22.1823 28.8918 22.0818 29.1387 22.082 29.3957C22.082 39.532 23.6863 50.6386 35.582 56.1533C35.7118 56.2133 35.8531 56.2444 35.996 56.2444C36.139 56.2444 36.2803 56.2133 36.41 56.1533C48.308 50.6408 49.91 39.532 49.91 29.3957C49.9103 29.1399 49.8108 28.894 49.6327 28.7103C49.4545 28.5266 49.2118 28.4195 48.956 28.4119ZM36.0005 54.1688C25.8232 49.2188 24.1543 39.4448 24.0575 30.3064C27.5208 29.8947 33.4226 27.8663 36.0005 25.9791C38.5785 27.8663 44.4802 29.8947 47.9435 30.3064C47.8468 39.4448 46.1778 49.2188 36.0005 54.1688Z"/>
</mask>
<path d="M48.956 28.4119C45.6975 28.3343 38.3681 25.6984 36.7025 24.0042C36.5138 23.822 36.2617 23.7202 35.9994 23.7202C35.7371 23.7202 35.485 23.822 35.2963 24.0042C33.6307 25.6984 26.3013 28.3354 23.0428 28.4119C22.7858 28.4178 22.5414 28.5241 22.3618 28.7079C22.1823 28.8918 22.0818 29.1387 22.082 29.3957C22.082 39.532 23.6863 50.6386 35.582 56.1533C35.7118 56.2133 35.8531 56.2444 35.996 56.2444C36.139 56.2444 36.2803 56.2133 36.41 56.1533C48.308 50.6408 49.91 39.532 49.91 29.3957C49.9103 29.1399 49.8108 28.894 49.6327 28.7103C49.4545 28.5266 49.2118 28.4195 48.956 28.4119ZM36.0005 54.1688C25.8232 49.2188 24.1543 39.4448 24.0575 30.3064C27.5208 29.8947 33.4226 27.8663 36.0005 25.9791C38.5785 27.8663 44.4802 29.8947 47.9435 30.3064C47.8468 39.4448 46.1778 49.2188 36.0005 54.1688Z" fill="#0F0F10"/>
<path d="M48.956 28.4119L49.075 24.4137L49.0632 24.4133L49.0513 24.4131L48.956 28.4119ZM36.7025 24.0042L39.555 21.2L39.5181 21.1625L39.4803 21.126L36.7025 24.0042ZM35.2963 24.0042L32.5185 21.126L32.4807 21.1625L32.4438 21.2L35.2963 24.0042ZM23.0428 28.4119L23.1343 32.4109L23.1367 32.4108L23.0428 28.4119ZM22.082 29.3957H26.082L26.082 29.3924L22.082 29.3957ZM35.582 56.1533L33.8997 59.7823L33.9026 59.7837L35.582 56.1533ZM36.41 56.1533L38.0894 59.7837L38.0916 59.7827L36.41 56.1533ZM49.91 29.3957L45.91 29.3917V29.3957H49.91ZM36.0005 54.1688L34.251 57.7659L36.0005 58.6168L37.7501 57.7659L36.0005 54.1688ZM24.0575 30.3064L23.5853 26.3344L20.0197 26.7583L20.0578 30.3488L24.0575 30.3064ZM36.0005 25.9791L38.3633 22.7515L36.0005 21.0219L33.6378 22.7515L36.0005 25.9791ZM47.9435 30.3064L51.9433 30.3488L51.9813 26.7583L48.4158 26.3344L47.9435 30.3064ZM49.0513 24.4131C48.0934 24.3902 45.9476 23.8999 43.5857 23.0504C42.473 22.6501 41.4505 22.2194 40.6517 21.8197C39.734 21.3604 39.4769 21.1205 39.555 21.2L33.8501 26.8083C34.7609 27.7349 36.0446 28.4599 37.0714 28.9738C38.2171 29.5472 39.5429 30.098 40.8781 30.5782C43.4119 31.4896 46.5601 32.356 48.8608 32.4108L49.0513 24.4131ZM39.4803 21.126C38.5459 20.2242 37.298 19.7202 35.9994 19.7202V27.7202C35.2254 27.7202 34.4817 27.4198 33.9248 26.8824L39.4803 21.126ZM35.9994 19.7202C34.7008 19.7202 33.4529 20.2242 32.5185 21.126L38.0741 26.8824C37.5172 27.4198 36.7734 27.7202 35.9994 27.7202V19.7202ZM32.4438 21.2C32.5218 21.1207 32.2645 21.3606 31.3468 21.82C30.548 22.2198 29.5255 22.6506 28.4129 23.0508C26.0509 23.9006 23.9058 24.3906 22.9489 24.413L23.1367 32.4108C25.4383 32.3568 28.5872 31.49 31.1209 30.5786C32.4562 30.0982 33.782 29.5473 34.9277 28.9738C35.9545 28.4598 37.238 27.7348 38.1488 26.8083L32.4438 21.2ZM22.9512 24.413C21.649 24.4428 20.4101 24.9813 19.5001 25.9133L25.2236 31.5026C24.6727 32.0668 23.9227 32.3928 23.1343 32.4109L22.9512 24.413ZM19.5001 25.9133C18.59 26.8452 18.0809 28.0965 18.082 29.3991L26.082 29.3924C26.0827 30.181 25.7745 30.9385 25.2236 31.5026L19.5001 25.9133ZM18.082 29.3957C18.082 39.7261 19.6729 53.1869 33.8997 59.7823L37.2644 52.5243C27.6996 48.0902 26.082 39.3379 26.082 29.3957H18.082ZM33.9026 59.7837C34.5588 60.0872 35.2731 60.2444 35.996 60.2444V52.2444C36.433 52.2444 36.8648 52.3394 37.2614 52.5229L33.9026 59.7837ZM35.996 60.2444C36.719 60.2444 37.4333 60.0872 38.0894 59.7837L34.7306 52.5229C35.1273 52.3394 35.559 52.2444 35.996 52.2444V60.2444ZM38.0916 59.7827C52.3219 53.1896 53.91 39.7249 53.91 29.3957H45.91C45.91 39.3391 44.2941 48.092 34.7285 52.5239L38.0916 59.7827ZM53.91 29.3998C53.9113 28.103 53.4071 26.8567 52.5043 25.9257L46.7611 31.4948C46.2145 30.9312 45.9092 30.1767 45.91 29.3917L53.91 29.3998ZM52.5043 25.9257C51.6015 24.9947 50.3713 24.4523 49.075 24.4137L48.837 32.4102C48.0523 32.3868 47.3076 32.0585 46.7611 31.4948L52.5043 25.9257ZM37.7501 50.5717C29.7972 46.7036 28.1516 39.1718 28.0573 30.2641L20.0578 30.3488C20.1569 39.7178 21.8493 51.734 34.251 57.7659L37.7501 50.5717ZM24.5298 34.2785C26.6603 34.0252 29.3082 33.3172 31.7031 32.4642C34.051 31.628 36.6041 30.4945 38.3633 29.2067L33.6378 22.7515C32.819 23.3509 31.1323 24.1752 29.019 24.9279C26.9527 25.6639 24.9181 26.1759 23.5853 26.3344L24.5298 34.2785ZM33.6378 29.2067C35.397 30.4945 37.9501 31.628 40.2979 32.4642C42.6929 33.3172 45.3408 34.0252 47.4713 34.2785L48.4158 26.3344C47.0829 26.1759 45.0484 25.6639 42.9821 24.9279C40.8688 24.1752 39.182 23.3509 38.3633 22.7515L33.6378 29.2067ZM43.9438 30.2641C43.8494 39.1718 42.2039 46.7036 34.251 50.5717L37.7501 57.7659C50.1518 51.734 51.8441 39.7178 51.9433 30.3488L43.9438 30.2641Z" fill="#0F0F10" mask="url(#path-9-inside-5_165_3401)"/>
<mask id="path-11-inside-6_165_3401" fill="white">
<path d="M33.0182 38.8812C32.9273 38.7845 32.8178 38.7071 32.6962 38.6537C32.5746 38.6004 32.4435 38.5722 32.3107 38.5709C32.1779 38.5696 32.0462 38.5951 31.9236 38.646C31.8009 38.6968 31.6899 38.772 31.597 38.8669C31.5042 38.9619 31.4315 39.0746 31.3834 39.1983C31.3352 39.3221 31.3126 39.4543 31.3169 39.587C31.3212 39.7197 31.3523 39.8502 31.4083 39.9706C31.4644 40.091 31.5442 40.1988 31.6429 40.2875L35.3116 43.8751C35.4983 44.0574 35.7497 44.1581 36.0106 44.1551C36.2715 44.1522 36.5206 44.0458 36.7032 43.8594L42.9469 37.4722C43.1199 37.2839 43.2129 37.0357 43.2061 36.7801C43.1993 36.5245 43.0934 36.2815 42.9106 36.1027C42.7279 35.9238 42.4828 35.8231 42.2271 35.8218C41.9714 35.8205 41.7252 35.9187 41.5407 36.0957L35.9849 41.777L33.0182 38.8812Z"/>
</mask>
<path d="M33.0182 38.8812C32.9273 38.7845 32.8178 38.7071 32.6962 38.6537C32.5746 38.6004 32.4435 38.5722 32.3107 38.5709C32.1779 38.5696 32.0462 38.5951 31.9236 38.646C31.8009 38.6968 31.6899 38.772 31.597 38.8669C31.5042 38.9619 31.4315 39.0746 31.3834 39.1983C31.3352 39.3221 31.3126 39.4543 31.3169 39.587C31.3212 39.7197 31.3523 39.8502 31.4083 39.9706C31.4644 40.091 31.5442 40.1988 31.6429 40.2875L35.3116 43.8751C35.4983 44.0574 35.7497 44.1581 36.0106 44.1551C36.2715 44.1522 36.5206 44.0458 36.7032 43.8594L42.9469 37.4722C43.1199 37.2839 43.2129 37.0357 43.2061 36.7801C43.1993 36.5245 43.0934 36.2815 42.9106 36.1027C42.7279 35.9238 42.4828 35.8231 42.2271 35.8218C41.9714 35.8205 41.7252 35.9187 41.5407 36.0957L35.9849 41.777L33.0182 38.8812Z" fill="#0F0F10"/>
<path d="M33.0182 38.8812L30.1028 41.6199L30.1622 41.6831L30.2242 41.7437L33.0182 38.8812ZM31.6429 40.2875L34.4396 37.4277L34.3791 37.3685L34.3161 37.3119L31.6429 40.2875ZM35.3116 43.8751L32.5149 46.7349L32.5178 46.7378L35.3116 43.8751ZM36.7032 43.8594L39.561 46.6581L39.5635 46.6555L36.7032 43.8594ZM42.9469 37.4722L45.8073 40.2683L45.8505 40.2241L45.8923 40.1786L42.9469 37.4722ZM41.5407 36.0957L38.7718 33.209L38.7256 33.2533L38.6809 33.2991L41.5407 36.0957ZM35.9849 41.777L33.1908 44.6394L36.0506 47.4308L38.8447 44.5737L35.9849 41.777ZM35.9337 36.1426C35.4733 35.6525 34.9186 35.2607 34.3029 34.9906L31.0895 42.3169C30.7169 42.1535 30.3813 41.9164 30.1028 41.6199L35.9337 36.1426ZM34.3029 34.9906C33.6872 34.7205 33.0232 34.5779 32.3509 34.5711L32.2704 42.5707C31.8637 42.5666 31.462 42.4803 31.0895 42.3169L34.3029 34.9906ZM32.3509 34.5711C31.6786 34.5643 31.0119 34.6936 30.3909 34.9513L33.4563 42.3407C33.0806 42.4965 32.6772 42.5748 32.2704 42.5707L32.3509 34.5711ZM30.3909 34.9513C29.7699 35.2089 29.2074 35.5895 28.7373 36.0701L34.4567 41.6637C34.1723 41.9545 33.832 42.1848 33.4563 42.3407L30.3909 34.9513ZM28.7373 36.0701C28.2672 36.5508 27.8992 37.1216 27.6555 37.7482L35.1113 40.6485C34.9638 41.0276 34.7411 41.373 34.4567 41.6637L28.7373 36.0701ZM27.6555 37.7482C27.4117 38.3748 27.2973 39.0443 27.319 39.7162L35.3148 39.4578C35.328 39.8643 35.2587 40.2694 35.1113 40.6485L27.6555 37.7482ZM27.319 39.7162C27.3407 40.3882 27.4982 41.0489 27.7819 41.6584L35.0348 38.2828C35.2064 38.6515 35.3017 39.0512 35.3148 39.4578L27.319 39.7162ZM27.7819 41.6584C28.0655 42.2679 28.4696 42.8138 28.9698 43.2631L34.3161 37.3119C34.6187 37.5838 34.8632 37.914 35.0348 38.2828L27.7819 41.6584ZM28.8463 43.1473L32.5149 46.7349L38.1082 41.0153L34.4396 37.4277L28.8463 43.1473ZM32.5178 46.7378C33.4629 47.6601 34.7354 48.1698 36.0559 48.1548L35.9654 40.1554C36.764 40.1463 37.5337 40.4546 38.1053 41.0125L32.5178 46.7378ZM36.0559 48.1548C37.3764 48.1399 38.637 47.6016 39.561 46.6581L33.8453 41.0607C34.4042 40.49 35.1667 40.1644 35.9654 40.1554L36.0559 48.1548ZM39.5635 46.6555L45.8073 40.2683L40.0866 34.6761L33.8428 41.0632L39.5635 46.6555ZM45.8923 40.1786C46.7683 39.2252 47.239 37.9684 47.2047 36.6741L39.2075 36.886C39.1868 36.103 39.4715 35.3426 40.0015 34.7658L45.8923 40.1786ZM47.2047 36.6741C47.1704 35.3799 46.6339 34.1498 45.7086 33.2441L40.1127 38.9612C39.5529 38.4133 39.2283 37.6691 39.2075 36.886L47.2047 36.6741ZM45.7086 33.2441C44.7833 32.3385 43.542 31.8284 42.2473 31.8218L42.2068 39.8217C41.4235 39.8178 40.6725 39.5092 40.1127 38.9612L45.7086 33.2441ZM42.2473 31.8218C40.9526 31.8153 39.7062 32.3128 38.7718 33.209L44.3096 38.9825C43.7442 39.5247 42.9901 39.8257 42.2068 39.8217L42.2473 31.8218ZM38.6809 33.2991L33.125 38.9803L38.8447 44.5737L44.4005 38.8924L38.6809 33.2991ZM38.7789 38.9146L35.8123 36.0188L30.2242 41.7437L33.1908 44.6394L38.7789 38.9146Z" fill="#0F0F10" mask="url(#path-11-inside-6_165_3401)"/>
</svg>
