<svg width="72" height="72" viewBox="0 0 72 72" fill="none" xmlns="http://www.w3.org/2000/svg">
<mask id="path-1-inside-1_1102_4774" fill="white">
<path d="M20.5786 29.117C20.011 29.117 19.5503 28.6563 19.5503 28.0887V24.3643C19.5503 24.0415 19.7005 23.7392 19.9575 23.5458C21.0064 22.752 21.6069 21.5592 21.6069 20.2739V17.1891C21.6069 14.9208 19.7622 13.0761 17.4938 13.0761C15.2255 13.0761 13.3807 14.9208 13.3807 17.1891V20.2739C13.3807 21.5592 13.9813 22.752 15.0301 23.5458C15.2871 23.7392 15.4373 24.0435 15.4373 24.3664V28.0908C15.4373 28.6584 14.9766 29.119 14.409 29.119C13.8414 29.119 13.3807 28.6563 13.3807 28.0887V24.8497C12.0666 23.6754 11.3242 22.0343 11.3242 20.2739V17.1891C11.3242 13.7876 14.0923 11.0195 17.4938 11.0195C20.8953 11.0195 23.6634 13.7876 23.6634 17.1891V20.2739C23.6634 22.0343 22.921 23.6733 21.6069 24.8497V28.0887C21.6069 28.6563 21.1462 29.117 20.5786 29.117Z"/>
<path d="M18.5226 26.3401C18.0455 26.3401 17.6177 26.0049 17.517 25.5196C17.4039 24.9623 17.7617 24.4193 18.319 24.3062C20.2192 23.9134 21.6012 22.2189 21.6012 20.2734C21.6012 19.7058 22.0619 19.2451 22.6295 19.2451C23.1971 19.2451 23.6578 19.7058 23.6578 20.2734C23.6578 23.1895 21.5848 25.7314 18.7303 26.3175C18.6604 26.3319 18.5925 26.3401 18.5226 26.3401Z"/>
<path d="M24.4325 30.7292C24.2968 30.7292 24.159 30.7024 24.0274 30.6448L20.1734 28.9893C19.6511 28.7652 19.4105 28.1606 19.6346 27.6382C19.8567 27.1138 20.4614 26.8773 20.9837 27.0994L24.8377 28.7549C25.36 28.9791 25.6006 29.5837 25.3765 30.106C25.2099 30.4968 24.8294 30.7292 24.4325 30.7292Z"/>
<path d="M11.3219 43.1772C11.18 43.1772 11.034 43.1484 10.8962 43.0847L6.96003 41.2955C5.86185 40.7937 5.15234 39.6914 5.15234 38.4863V35.6359C5.15234 32.7527 6.85926 30.1615 9.49985 29.0345L13.9975 27.0828C14.5239 26.8566 15.1244 27.0952 15.3507 27.6155C15.5748 28.1358 15.3363 28.7425 14.816 28.9687L10.3142 30.9224C8.42634 31.7306 7.20887 33.5794 7.20887 35.6359V38.4863C7.20887 38.8873 7.44537 39.2575 7.81143 39.4241L11.7476 41.2132C12.2638 41.4477 12.4921 42.0585 12.2576 42.5747C12.0849 42.9531 11.7106 43.1772 11.3219 43.1772Z"/>
<path d="M21.4814 19.0606C19.4331 19.0606 17.4753 18.3552 15.8198 17.0205C15.3797 16.6647 15.3098 16.019 15.6635 15.5768C16.0234 15.1346 16.6712 15.0668 17.1092 15.4226C18.4295 16.4858 19.9966 17.0596 21.6027 17.004C21.504 14.82 19.6984 13.0761 17.4938 13.0761C15.2255 13.0761 13.3807 14.9208 13.3807 17.1891V17.95C13.3807 18.5176 12.9201 18.9783 12.3525 18.9783C11.7849 18.9783 11.3242 18.5197 11.3242 17.95V17.1891C11.3242 13.7876 14.0923 11.0195 17.4938 11.0195C20.8953 11.0195 23.6634 13.7876 23.6634 17.1891V17.9089C23.6634 18.4148 23.2953 18.8446 22.7976 18.9248C22.3225 19.0009 21.9112 19.0606 21.4814 19.0606Z"/>
<path d="M57.5942 29.1169C57.0266 29.1169 56.566 28.6562 56.566 28.0886V24.3642C56.566 24.0414 56.7161 23.7391 56.9731 23.5457C58.022 22.7519 58.6225 21.5591 58.6225 20.2738V17.189C58.6225 14.9207 56.7778 13.076 54.5094 13.076C52.2411 13.076 50.3964 14.9207 50.3964 17.189V20.2738C50.3964 21.5591 50.9969 22.7519 52.0457 23.5457C52.3028 23.7391 52.4529 24.0434 52.4529 24.3663V28.0907C52.4529 28.6583 51.9922 29.1189 51.4246 29.1189C50.857 29.1189 50.3964 28.6583 50.3964 28.0907V24.8516C49.0822 23.6774 48.3398 22.0362 48.3398 20.2759V17.1911C48.3398 13.7896 51.1079 11.0215 54.5094 11.0215C57.9109 11.0215 60.679 13.7896 60.679 17.1911V20.2759C60.679 22.0362 59.9366 23.6753 58.6225 24.8516V28.0907C58.6225 28.6562 58.1618 29.1169 57.5942 29.1169Z"/>
<path d="M55.5421 26.3401C55.065 26.3401 54.6373 26.0049 54.5365 25.5196C54.4234 24.9623 54.7812 24.4193 55.3385 24.3062C57.2388 23.9134 58.6208 22.2189 58.6208 20.2734C58.6208 19.7058 59.0814 19.2451 59.649 19.2451C60.2166 19.2451 60.6773 19.7058 60.6773 20.2734C60.6773 23.1895 58.6043 25.7314 55.7498 26.3175C55.6799 26.3319 55.6121 26.3401 55.5421 26.3401Z"/>
<path d="M47.8755 30.5997C47.4785 30.5997 47.0981 30.3673 46.9315 29.9766C46.7073 29.4563 46.948 28.8496 47.4703 28.6254L51.0219 27.0995C51.5402 26.8794 52.1469 27.1139 52.371 27.6383C52.5952 28.1586 52.3546 28.7653 51.8322 28.9894L48.2806 30.5154C48.149 30.573 48.0132 30.5997 47.8755 30.5997Z"/>
<path d="M60.6755 43.1771C60.2868 43.1771 59.9125 42.9529 59.7397 42.5745C59.5053 42.0583 59.7336 41.4475 60.2498 41.2131L64.186 39.4239C64.552 39.2573 64.7885 38.8892 64.7885 38.4861V35.6358C64.7885 33.5793 63.5711 31.7305 61.6893 30.9263L57.1814 28.9685C56.6611 28.7423 56.4226 28.1377 56.6467 27.6153C56.8729 27.093 57.4693 26.8544 57.9999 27.0827L62.5017 29.0364C65.1381 30.1613 66.845 32.7525 66.845 35.6358V38.4861C66.845 39.6913 66.1355 40.7936 65.0374 41.2954L61.1012 43.0845C60.9634 43.1462 60.8174 43.1771 60.6755 43.1771Z"/>
<path d="M38.7031 15.9872C35.7787 15.9872 32.7351 14.9569 31.0569 13.4474C30.6333 13.067 30.5983 12.4171 30.9788 11.9955C31.3593 11.5739 32.0153 11.539 32.4307 11.9194C34.4584 13.7415 39.316 14.6937 42.0984 13.2007C42.5982 12.9312 43.2234 13.1184 43.4907 13.6202C43.7601 14.122 43.5709 14.743 43.0712 15.0125C41.8023 15.6891 40.2702 15.9872 38.7031 15.9872Z"/>
<path d="M35.9852 34.6696C32.5734 34.6696 30.7945 32.0085 30.3298 30.5998C30.1508 30.0589 30.4449 29.479 30.9837 29.3C31.5225 29.1232 32.1004 29.4152 32.2794 29.9499C32.3225 30.0733 33.2336 32.611 35.9852 32.611C38.7595 32.611 39.7363 29.9951 39.7795 29.8841C39.9708 29.3515 40.5672 29.0738 41.0916 29.263C41.6242 29.4522 41.906 30.0342 41.7188 30.5689C41.6592 30.7376 40.2381 34.6696 35.9852 34.6696Z"/>
<path d="M55.5343 42.8951C54.9667 42.8951 54.506 42.4344 54.506 41.8668V41.2931C54.506 38.2432 52.5831 35.5163 49.7225 34.5106L41.1447 31.467C39.9108 31.0372 39.082 29.8691 39.082 28.5632V26.0336C39.082 25.466 39.5427 25.0054 40.1103 25.0054C40.6779 25.0054 41.1386 25.466 41.1386 26.0336V28.5632C41.1386 28.995 41.4162 29.3817 41.8275 29.5256L50.4073 32.5713C54.0885 33.8649 56.5625 37.3713 56.5625 41.2931V41.8689C56.5625 42.4365 56.1019 42.8951 55.5343 42.8951Z"/>
<path d="M16.4658 42.8953C15.8982 42.8953 15.4375 42.4347 15.4375 41.8671V41.3118C15.4375 40.6702 15.5054 40.0265 15.639 39.391C16.3012 36.2589 18.5922 33.6471 21.6112 32.5695L30.1705 29.567C30.5838 29.423 30.8615 29.0343 30.8615 28.6025V26.0318C30.8615 25.4642 31.3221 25.0035 31.8897 25.0035C32.4573 25.0035 32.918 25.4642 32.918 26.0318V28.6025C32.918 29.9063 32.0892 31.0744 30.8512 31.5083L22.2981 34.5088C19.9475 35.3458 18.1665 37.3797 17.6503 39.8167C17.5454 40.3103 17.494 40.8141 17.494 41.3118V41.8671C17.494 42.4367 17.0334 42.8953 16.4658 42.8953Z"/>
<path d="M35.9995 28.4997C35.4319 28.4997 34.9713 28.0391 34.9713 27.4715C34.9713 26.9039 35.4319 26.4432 35.9995 26.4432C38.1342 26.4432 42.1691 24.5101 42.1691 17.1888V14.104C42.1691 10.7025 39.401 7.93446 35.9995 7.93446C32.5981 7.93446 29.83 10.7025 29.83 14.104V17.1888C29.83 20.7343 30.778 23.4468 32.5693 25.0324C32.995 25.4088 33.0361 26.0586 32.6577 26.4843C32.2772 26.9121 31.6294 26.9471 31.2078 26.5728C29.6408 25.1867 27.7734 22.435 27.7734 17.1888V14.104C27.7734 9.56734 31.4628 5.87793 35.9995 5.87793C40.5363 5.87793 44.2257 9.56734 44.2257 14.104V17.1888C44.2257 26.1368 38.8458 28.4997 35.9995 28.4997Z"/>
<path d="M51.6659 61.4038C51.2875 61.4038 50.9255 61.1941 50.7446 60.8321C50.4937 60.3221 50.7014 59.7072 51.2114 59.4542L56.2972 56.935C56.583 56.7931 56.9244 56.7931 57.2082 56.935L60.5316 58.5823L59.9907 54.9134C59.9455 54.5967 60.0483 54.2738 60.2745 54.0456L62.8719 51.3906L59.2113 50.7675C58.8966 50.714 58.6231 50.5145 58.473 50.2307L56.7537 46.9444L55.0324 50.2307C54.8823 50.5145 54.6088 50.714 54.2941 50.7675L50.6356 51.3906L53.2309 54.0456C53.6278 54.4528 53.6196 55.1026 53.2144 55.4995C52.8073 55.8985 52.1553 55.8903 51.7605 55.4831L47.7934 51.4255C47.5261 51.152 47.4315 50.7531 47.5508 50.3891C47.67 50.0251 47.9785 49.7577 48.3569 49.6939L53.4489 48.8261L55.8447 44.2524C56.0237 43.913 56.3753 43.7012 56.7558 43.7012C57.1404 43.7012 57.4879 43.9151 57.6668 44.2524L60.0606 48.8261L65.1547 49.6939C65.5331 49.7577 65.8415 50.0271 65.9608 50.3891C66.0801 50.751 65.9855 51.152 65.7181 51.4255L62.1048 55.117L62.8575 60.2254C62.911 60.6038 62.7526 60.9822 62.4441 61.2064C62.1357 61.4326 61.7244 61.4676 61.383 61.2948L56.7558 59.0018L52.1265 61.2948C51.9764 61.3709 51.8201 61.4038 51.6659 61.4038Z"/>
<path d="M29.9881 67.0001C29.7742 67.0001 29.5624 66.9343 29.3835 66.8048C29.075 66.5806 28.9146 66.2022 28.9701 65.8217L29.8709 59.6871L25.5357 55.2532C25.2684 54.9797 25.1738 54.5808 25.293 54.2167C25.4123 53.8527 25.7208 53.5833 26.0992 53.5216L32.2153 52.481L35.0903 46.988C35.4482 46.3094 36.5566 46.3094 36.9145 46.988L39.7895 52.481L45.9056 53.5216C46.284 53.5854 46.5925 53.8548 46.7118 54.2167C46.831 54.5787 46.7364 54.9797 46.4691 55.2532L42.1319 59.6871L43.0347 65.8217C43.0882 66.2001 42.9298 66.5785 42.6213 66.8027C42.3129 67.031 41.9015 67.0618 41.5602 66.8911L36.0014 64.1374L30.4446 66.8911C30.3007 66.9631 30.1444 67.0001 29.9881 67.0001ZM28.3778 55.2183L31.6971 58.6136C31.9212 58.8439 32.0261 59.1648 31.9809 59.4815L31.2899 64.1765L35.5448 62.0686C35.8307 61.9246 36.1721 61.9246 36.4559 62.0686L40.7088 64.1765L40.0178 59.4815C39.9725 59.1648 40.0754 58.8419 40.3016 58.6136L43.6229 55.2183L38.9402 54.4203C38.6255 54.3669 38.352 54.1674 38.2019 53.8836L36.0014 49.678L33.8009 53.8836C33.6508 54.1674 33.3772 54.3669 33.0626 54.4203L28.3778 55.2183Z"/>
<path d="M20.4979 61.4037C20.3437 61.4037 20.1894 61.3688 20.0414 61.2968L15.4142 59.0038L10.7849 61.2989C10.4456 61.4675 10.0363 61.4346 9.72376 61.2084C9.41528 60.9842 9.25487 60.6058 9.31039 60.2274L10.0631 55.119L6.44976 51.4275C6.18242 51.154 6.08782 50.755 6.20709 50.391C6.32637 50.027 6.63485 49.7576 7.01325 49.6959L12.1073 48.8281L14.5031 44.2544C14.682 43.915 15.0337 43.7032 15.4142 43.7032C15.7987 43.7032 16.1463 43.9171 16.3252 44.2544L18.719 48.8281L23.811 49.6959C24.1894 49.7597 24.4979 50.0291 24.6171 50.391C24.7364 50.753 24.6418 51.154 24.3745 51.4275L20.4074 55.483C20.0146 55.8902 19.3627 55.8984 18.9535 55.4995C18.5483 55.1025 18.5401 54.4527 18.937 54.0455L21.5323 51.3905L17.8738 50.7674C17.5571 50.7139 17.2856 50.5144 17.1355 50.2306L15.4162 46.9443L13.6949 50.2306C13.5448 50.5144 13.2713 50.7139 12.9566 50.7674L9.296 51.3905L11.8934 54.0455C12.1176 54.2758 12.2224 54.5966 12.1772 54.9133L11.6363 58.5822L14.9617 56.9349C15.2476 56.793 15.589 56.793 15.8728 56.9349L20.9565 59.4542C21.4665 59.7071 21.6742 60.322 21.4233 60.832C21.2383 61.194 20.8743 61.4037 20.4979 61.4037Z"/>
</mask>
<path d="M20.5786 29.117C20.011 29.117 19.5503 28.6563 19.5503 28.0887V24.3643C19.5503 24.0415 19.7005 23.7392 19.9575 23.5458C21.0064 22.752 21.6069 21.5592 21.6069 20.2739V17.1891C21.6069 14.9208 19.7622 13.0761 17.4938 13.0761C15.2255 13.0761 13.3807 14.9208 13.3807 17.1891V20.2739C13.3807 21.5592 13.9813 22.752 15.0301 23.5458C15.2871 23.7392 15.4373 24.0435 15.4373 24.3664V28.0908C15.4373 28.6584 14.9766 29.119 14.409 29.119C13.8414 29.119 13.3807 28.6563 13.3807 28.0887V24.8497C12.0666 23.6754 11.3242 22.0343 11.3242 20.2739V17.1891C11.3242 13.7876 14.0923 11.0195 17.4938 11.0195C20.8953 11.0195 23.6634 13.7876 23.6634 17.1891V20.2739C23.6634 22.0343 22.921 23.6733 21.6069 24.8497V28.0887C21.6069 28.6563 21.1462 29.117 20.5786 29.117Z" fill="#0F0F10"/>
<path d="M18.5226 26.3401C18.0455 26.3401 17.6177 26.0049 17.517 25.5196C17.4039 24.9623 17.7617 24.4193 18.319 24.3062C20.2192 23.9134 21.6012 22.2189 21.6012 20.2734C21.6012 19.7058 22.0619 19.2451 22.6295 19.2451C23.1971 19.2451 23.6578 19.7058 23.6578 20.2734C23.6578 23.1895 21.5848 25.7314 18.7303 26.3175C18.6604 26.3319 18.5925 26.3401 18.5226 26.3401Z" fill="#0F0F10"/>
<path d="M24.4325 30.7292C24.2968 30.7292 24.159 30.7024 24.0274 30.6448L20.1734 28.9893C19.6511 28.7652 19.4105 28.1606 19.6346 27.6382C19.8567 27.1138 20.4614 26.8773 20.9837 27.0994L24.8377 28.7549C25.36 28.9791 25.6006 29.5837 25.3765 30.106C25.2099 30.4968 24.8294 30.7292 24.4325 30.7292Z" fill="#0F0F10"/>
<path d="M11.3219 43.1772C11.18 43.1772 11.034 43.1484 10.8962 43.0847L6.96003 41.2955C5.86185 40.7937 5.15234 39.6914 5.15234 38.4863V35.6359C5.15234 32.7527 6.85926 30.1615 9.49985 29.0345L13.9975 27.0828C14.5239 26.8566 15.1244 27.0952 15.3507 27.6155C15.5748 28.1358 15.3363 28.7425 14.816 28.9687L10.3142 30.9224C8.42634 31.7306 7.20887 33.5794 7.20887 35.6359V38.4863C7.20887 38.8873 7.44537 39.2575 7.81143 39.4241L11.7476 41.2132C12.2638 41.4477 12.4921 42.0585 12.2576 42.5747C12.0849 42.9531 11.7106 43.1772 11.3219 43.1772Z" fill="#0F0F10"/>
<path d="M21.4814 19.0606C19.4331 19.0606 17.4753 18.3552 15.8198 17.0205C15.3797 16.6647 15.3098 16.019 15.6635 15.5768C16.0234 15.1346 16.6712 15.0668 17.1092 15.4226C18.4295 16.4858 19.9966 17.0596 21.6027 17.004C21.504 14.82 19.6984 13.0761 17.4938 13.0761C15.2255 13.0761 13.3807 14.9208 13.3807 17.1891V17.95C13.3807 18.5176 12.9201 18.9783 12.3525 18.9783C11.7849 18.9783 11.3242 18.5197 11.3242 17.95V17.1891C11.3242 13.7876 14.0923 11.0195 17.4938 11.0195C20.8953 11.0195 23.6634 13.7876 23.6634 17.1891V17.9089C23.6634 18.4148 23.2953 18.8446 22.7976 18.9248C22.3225 19.0009 21.9112 19.0606 21.4814 19.0606Z" fill="#0F0F10"/>
<path d="M57.5942 29.1169C57.0266 29.1169 56.566 28.6562 56.566 28.0886V24.3642C56.566 24.0414 56.7161 23.7391 56.9731 23.5457C58.022 22.7519 58.6225 21.5591 58.6225 20.2738V17.189C58.6225 14.9207 56.7778 13.076 54.5094 13.076C52.2411 13.076 50.3964 14.9207 50.3964 17.189V20.2738C50.3964 21.5591 50.9969 22.7519 52.0457 23.5457C52.3028 23.7391 52.4529 24.0434 52.4529 24.3663V28.0907C52.4529 28.6583 51.9922 29.1189 51.4246 29.1189C50.857 29.1189 50.3964 28.6583 50.3964 28.0907V24.8516C49.0822 23.6774 48.3398 22.0362 48.3398 20.2759V17.1911C48.3398 13.7896 51.1079 11.0215 54.5094 11.0215C57.9109 11.0215 60.679 13.7896 60.679 17.1911V20.2759C60.679 22.0362 59.9366 23.6753 58.6225 24.8516V28.0907C58.6225 28.6562 58.1618 29.1169 57.5942 29.1169Z" fill="#0F0F10"/>
<path d="M55.5421 26.3401C55.065 26.3401 54.6373 26.0049 54.5365 25.5196C54.4234 24.9623 54.7812 24.4193 55.3385 24.3062C57.2388 23.9134 58.6208 22.2189 58.6208 20.2734C58.6208 19.7058 59.0814 19.2451 59.649 19.2451C60.2166 19.2451 60.6773 19.7058 60.6773 20.2734C60.6773 23.1895 58.6043 25.7314 55.7498 26.3175C55.6799 26.3319 55.6121 26.3401 55.5421 26.3401Z" fill="#0F0F10"/>
<path d="M47.8755 30.5997C47.4785 30.5997 47.0981 30.3673 46.9315 29.9766C46.7073 29.4563 46.948 28.8496 47.4703 28.6254L51.0219 27.0995C51.5402 26.8794 52.1469 27.1139 52.371 27.6383C52.5952 28.1586 52.3546 28.7653 51.8322 28.9894L48.2806 30.5154C48.149 30.573 48.0132 30.5997 47.8755 30.5997Z" fill="#0F0F10"/>
<path d="M60.6755 43.1771C60.2868 43.1771 59.9125 42.9529 59.7397 42.5745C59.5053 42.0583 59.7336 41.4475 60.2498 41.2131L64.186 39.4239C64.552 39.2573 64.7885 38.8892 64.7885 38.4861V35.6358C64.7885 33.5793 63.5711 31.7305 61.6893 30.9263L57.1814 28.9685C56.6611 28.7423 56.4226 28.1377 56.6467 27.6153C56.8729 27.093 57.4693 26.8544 57.9999 27.0827L62.5017 29.0364C65.1381 30.1613 66.845 32.7525 66.845 35.6358V38.4861C66.845 39.6913 66.1355 40.7936 65.0374 41.2954L61.1012 43.0845C60.9634 43.1462 60.8174 43.1771 60.6755 43.1771Z" fill="#0F0F10"/>
<path d="M38.7031 15.9872C35.7787 15.9872 32.7351 14.9569 31.0569 13.4474C30.6333 13.067 30.5983 12.4171 30.9788 11.9955C31.3593 11.5739 32.0153 11.539 32.4307 11.9194C34.4584 13.7415 39.316 14.6937 42.0984 13.2007C42.5982 12.9312 43.2234 13.1184 43.4907 13.6202C43.7601 14.122 43.5709 14.743 43.0712 15.0125C41.8023 15.6891 40.2702 15.9872 38.7031 15.9872Z" fill="#0F0F10"/>
<path d="M35.9852 34.6696C32.5734 34.6696 30.7945 32.0085 30.3298 30.5998C30.1508 30.0589 30.4449 29.479 30.9837 29.3C31.5225 29.1232 32.1004 29.4152 32.2794 29.9499C32.3225 30.0733 33.2336 32.611 35.9852 32.611C38.7595 32.611 39.7363 29.9951 39.7795 29.8841C39.9708 29.3515 40.5672 29.0738 41.0916 29.263C41.6242 29.4522 41.906 30.0342 41.7188 30.5689C41.6592 30.7376 40.2381 34.6696 35.9852 34.6696Z" fill="#0F0F10"/>
<path d="M55.5343 42.8951C54.9667 42.8951 54.506 42.4344 54.506 41.8668V41.2931C54.506 38.2432 52.5831 35.5163 49.7225 34.5106L41.1447 31.467C39.9108 31.0372 39.082 29.8691 39.082 28.5632V26.0336C39.082 25.466 39.5427 25.0054 40.1103 25.0054C40.6779 25.0054 41.1386 25.466 41.1386 26.0336V28.5632C41.1386 28.995 41.4162 29.3817 41.8275 29.5256L50.4073 32.5713C54.0885 33.8649 56.5625 37.3713 56.5625 41.2931V41.8689C56.5625 42.4365 56.1019 42.8951 55.5343 42.8951Z" fill="#0F0F10"/>
<path d="M16.4658 42.8953C15.8982 42.8953 15.4375 42.4347 15.4375 41.8671V41.3118C15.4375 40.6702 15.5054 40.0265 15.639 39.391C16.3012 36.2589 18.5922 33.6471 21.6112 32.5695L30.1705 29.567C30.5838 29.423 30.8615 29.0343 30.8615 28.6025V26.0318C30.8615 25.4642 31.3221 25.0035 31.8897 25.0035C32.4573 25.0035 32.918 25.4642 32.918 26.0318V28.6025C32.918 29.9063 32.0892 31.0744 30.8512 31.5083L22.2981 34.5088C19.9475 35.3458 18.1665 37.3797 17.6503 39.8167C17.5454 40.3103 17.494 40.8141 17.494 41.3118V41.8671C17.494 42.4367 17.0334 42.8953 16.4658 42.8953Z" fill="#0F0F10"/>
<path d="M35.9995 28.4997C35.4319 28.4997 34.9713 28.0391 34.9713 27.4715C34.9713 26.9039 35.4319 26.4432 35.9995 26.4432C38.1342 26.4432 42.1691 24.5101 42.1691 17.1888V14.104C42.1691 10.7025 39.401 7.93446 35.9995 7.93446C32.5981 7.93446 29.83 10.7025 29.83 14.104V17.1888C29.83 20.7343 30.778 23.4468 32.5693 25.0324C32.995 25.4088 33.0361 26.0586 32.6577 26.4843C32.2772 26.9121 31.6294 26.9471 31.2078 26.5728C29.6408 25.1867 27.7734 22.435 27.7734 17.1888V14.104C27.7734 9.56734 31.4628 5.87793 35.9995 5.87793C40.5363 5.87793 44.2257 9.56734 44.2257 14.104V17.1888C44.2257 26.1368 38.8458 28.4997 35.9995 28.4997Z" fill="#0F0F10"/>
<path d="M51.6659 61.4038C51.2875 61.4038 50.9255 61.1941 50.7446 60.8321C50.4937 60.3221 50.7014 59.7072 51.2114 59.4542L56.2972 56.935C56.583 56.7931 56.9244 56.7931 57.2082 56.935L60.5316 58.5823L59.9907 54.9134C59.9455 54.5967 60.0483 54.2738 60.2745 54.0456L62.8719 51.3906L59.2113 50.7675C58.8966 50.714 58.6231 50.5145 58.473 50.2307L56.7537 46.9444L55.0324 50.2307C54.8823 50.5145 54.6088 50.714 54.2941 50.7675L50.6356 51.3906L53.2309 54.0456C53.6278 54.4528 53.6196 55.1026 53.2144 55.4995C52.8073 55.8985 52.1553 55.8903 51.7605 55.4831L47.7934 51.4255C47.5261 51.152 47.4315 50.7531 47.5508 50.3891C47.67 50.0251 47.9785 49.7577 48.3569 49.6939L53.4489 48.8261L55.8447 44.2524C56.0237 43.913 56.3753 43.7012 56.7558 43.7012C57.1404 43.7012 57.4879 43.9151 57.6668 44.2524L60.0606 48.8261L65.1547 49.6939C65.5331 49.7577 65.8415 50.0271 65.9608 50.3891C66.0801 50.751 65.9855 51.152 65.7181 51.4255L62.1048 55.117L62.8575 60.2254C62.911 60.6038 62.7526 60.9822 62.4441 61.2064C62.1357 61.4326 61.7244 61.4676 61.383 61.2948L56.7558 59.0018L52.1265 61.2948C51.9764 61.3709 51.8201 61.4038 51.6659 61.4038Z" fill="#0F0F10"/>
<path d="M29.9881 67.0001C29.7742 67.0001 29.5624 66.9343 29.3835 66.8048C29.075 66.5806 28.9146 66.2022 28.9701 65.8217L29.8709 59.6871L25.5357 55.2532C25.2684 54.9797 25.1738 54.5808 25.293 54.2167C25.4123 53.8527 25.7208 53.5833 26.0992 53.5216L32.2153 52.481L35.0903 46.988C35.4482 46.3094 36.5566 46.3094 36.9145 46.988L39.7895 52.481L45.9056 53.5216C46.284 53.5854 46.5925 53.8548 46.7118 54.2167C46.831 54.5787 46.7364 54.9797 46.4691 55.2532L42.1319 59.6871L43.0347 65.8217C43.0882 66.2001 42.9298 66.5785 42.6213 66.8027C42.3129 67.031 41.9015 67.0618 41.5602 66.8911L36.0014 64.1374L30.4446 66.8911C30.3007 66.9631 30.1444 67.0001 29.9881 67.0001ZM28.3778 55.2183L31.6971 58.6136C31.9212 58.8439 32.0261 59.1648 31.9809 59.4815L31.2899 64.1765L35.5448 62.0686C35.8307 61.9246 36.1721 61.9246 36.4559 62.0686L40.7088 64.1765L40.0178 59.4815C39.9725 59.1648 40.0754 58.8419 40.3016 58.6136L43.6229 55.2183L38.9402 54.4203C38.6255 54.3669 38.352 54.1674 38.2019 53.8836L36.0014 49.678L33.8009 53.8836C33.6508 54.1674 33.3772 54.3669 33.0626 54.4203L28.3778 55.2183Z" fill="#0F0F10"/>
<path d="M20.4979 61.4037C20.3437 61.4037 20.1894 61.3688 20.0414 61.2968L15.4142 59.0038L10.7849 61.2989C10.4456 61.4675 10.0363 61.4346 9.72376 61.2084C9.41528 60.9842 9.25487 60.6058 9.31039 60.2274L10.0631 55.119L6.44976 51.4275C6.18242 51.154 6.08782 50.755 6.20709 50.391C6.32637 50.027 6.63485 49.7576 7.01325 49.6959L12.1073 48.8281L14.5031 44.2544C14.682 43.915 15.0337 43.7032 15.4142 43.7032C15.7987 43.7032 16.1463 43.9171 16.3252 44.2544L18.719 48.8281L23.811 49.6959C24.1894 49.7597 24.4979 50.0291 24.6171 50.391C24.7364 50.753 24.6418 51.154 24.3745 51.4275L20.4074 55.483C20.0146 55.8902 19.3627 55.8984 18.9535 55.4995C18.5483 55.1025 18.5401 54.4527 18.937 54.0455L21.5323 51.3905L17.8738 50.7674C17.5571 50.7139 17.2856 50.5144 17.1355 50.2306L15.4162 46.9443L13.6949 50.2306C13.5448 50.5144 13.2713 50.7139 12.9566 50.7674L9.296 51.3905L11.8934 54.0455C12.1176 54.2758 12.2224 54.5966 12.1772 54.9133L11.6363 58.5822L14.9617 56.9349C15.2476 56.793 15.589 56.793 15.8728 56.9349L20.9565 59.4542C21.4665 59.7071 21.6742 60.322 21.4233 60.832C21.2383 61.194 20.8743 61.4037 20.4979 61.4037Z" fill="#0F0F10"/>
<path d="M17.4938 5.07606C10.8072 5.07606 5.38075 10.5025 5.38075 17.1891H21.3807C21.3807 19.339 19.6437 21.0761 17.4938 21.0761V5.07606ZM19.3242 17.1891C19.3242 18.2059 18.5106 19.0195 17.4938 19.0195V3.01953C9.67403 3.01953 3.32422 9.36934 3.32422 17.1891H19.3242ZM17.4938 19.0195C16.477 19.0195 15.6634 18.2059 15.6634 17.1891H31.6634C31.6634 9.36934 25.3136 3.01953 17.4938 3.01953V19.0195ZM19.9575 23.5458L29.5739 36.3336L29.5937 36.3187L29.6135 36.3037L19.9575 23.5458ZM15.0301 23.5458L5.37414 36.3037L5.39391 36.3187L5.41372 36.3336L15.0301 23.5458ZM13.3807 24.8497H29.3807V17.6898L24.0418 12.919L13.3807 24.8497ZM21.6069 24.8497L10.9354 12.9283L5.60686 17.6981V24.8497H21.6069ZM17.517 25.5196L1.83664 28.7019L1.84378 28.7371L1.85107 28.7722L17.517 25.5196ZM18.319 24.3062L21.5014 39.9866L21.5296 39.9808L21.5579 39.975L18.319 24.3062ZM18.7303 26.3175L15.5122 10.6445L15.5039 10.6462L18.7303 26.3175ZM24.0274 30.6448L30.4405 15.9863L30.3915 15.9649L30.3424 15.9438L24.0274 30.6448ZM20.1734 28.9893L26.4885 14.2883L26.4831 14.286L20.1734 28.9893ZM19.6346 27.6382L34.338 33.9479L34.3529 33.913L34.3677 33.8781L19.6346 27.6382ZM20.9837 27.0994L27.2987 12.3984L27.2716 12.3867L27.2444 12.3751L20.9837 27.0994ZM24.8377 28.7549L18.5226 43.4559L18.528 43.4582L24.8377 28.7549ZM25.3765 30.106L10.6731 23.7963L10.6656 23.8139L10.6581 23.8314L25.3765 30.106ZM10.8962 43.0847L17.6149 28.5637L17.5661 28.5411L17.5171 28.5188L10.8962 43.0847ZM6.96003 41.2955L0.310454 55.8483L0.324805 55.8548L0.33917 55.8614L6.96003 41.2955ZM9.49985 29.0345L15.7804 43.7503L15.8247 43.7314L15.8689 43.7122L9.49985 29.0345ZM13.9975 27.0828L7.68091 12.3825L7.65464 12.3937L7.62842 12.4051L13.9975 27.0828ZM15.3507 27.6155L30.0449 21.2847L30.0344 21.2603L30.0238 21.2359L15.3507 27.6155ZM14.816 28.9687L21.1858 43.6461L21.1956 43.6418L14.816 28.9687ZM10.3142 30.9224L16.6111 45.6312L16.6476 45.6156L16.684 45.5998L10.3142 30.9224ZM7.81143 39.4241L1.18442 53.9871L1.19058 53.9899L7.81143 39.4241ZM11.7476 41.2132L5.12678 55.7791L5.13116 55.7811L11.7476 41.2132ZM12.2576 42.5747L26.8127 49.2193L26.8191 49.2052L26.8255 49.1911L12.2576 42.5747ZM15.8198 17.0205L5.76098 29.4632L5.76927 29.4699L5.77756 29.4766L15.8198 17.0205ZM15.6635 15.5768L3.2545 5.47646L3.21182 5.52889L3.16959 5.58168L15.6635 15.5768ZM17.1092 15.4226L7.02194 27.8422L7.04789 27.8632L7.07392 27.8842L17.1092 15.4226ZM21.6027 17.004L22.1556 32.9945L38.3166 32.4358L37.5864 16.2816L21.6027 17.004ZM22.7976 18.9248L25.3281 34.7234L25.3357 34.7222L25.3433 34.721L22.7976 18.9248ZM56.9731 23.5457L66.5895 36.3335L66.6093 36.3186L66.6291 36.3036L56.9731 23.5457ZM52.0457 23.5457L42.3898 36.3036L42.4095 36.3186L42.4293 36.3335L52.0457 23.5457ZM50.3964 24.8516H66.3964V17.6917L61.0574 12.9209L50.3964 24.8516ZM58.6225 24.8516L47.951 12.9302L42.6225 17.7001V24.8516H58.6225ZM54.5365 25.5196L38.8562 28.7019L38.8633 28.7371L38.8706 28.7722L54.5365 25.5196ZM55.3385 24.3062L58.5209 39.9866L58.5492 39.9808L58.5774 39.975L55.3385 24.3062ZM55.7498 26.3175L52.5317 10.6445L52.5234 10.6462L55.7498 26.3175ZM46.9315 29.9766L61.6498 23.7019L61.6379 23.6739L61.6258 23.6458L46.9315 29.9766ZM47.4703 28.6254L53.78 43.3288L53.7864 43.326L47.4703 28.6254ZM51.0219 27.0995L44.7686 12.3721L44.7372 12.3854L44.7059 12.3989L51.0219 27.0995ZM52.371 27.6383L37.6587 33.9271L37.6677 33.9481L37.6768 33.969L52.371 27.6383ZM51.8322 28.9894L45.5225 14.2861L45.5162 14.2889L51.8322 28.9894ZM48.2806 30.5154L41.9645 15.8148L41.9159 15.8357L41.8675 15.8569L48.2806 30.5154ZM59.7397 42.5745L45.1719 49.191L45.1783 49.2051L45.1847 49.2192L59.7397 42.5745ZM60.2498 41.2131L66.8662 55.781L66.8706 55.779L60.2498 41.2131ZM64.186 39.4239L70.8068 53.9898L70.813 53.987L64.186 39.4239ZM61.6893 30.9263L55.3156 45.602L55.3588 45.6208L55.4021 45.6393L61.6893 30.9263ZM57.1814 28.9685L50.8018 43.6417L50.8077 43.6442L57.1814 28.9685ZM56.6467 27.6153L41.9644 21.2569L41.9539 21.2812L41.9434 21.3056L56.6467 27.6153ZM57.9999 27.0827L64.3697 12.4053L64.3465 12.3952L64.3232 12.3852L57.9999 27.0827ZM62.5017 29.0364L56.1319 43.7138L56.1771 43.7334L56.2225 43.7528L62.5017 29.0364ZM65.0374 41.2954L71.6582 55.8612L71.6726 55.8547L71.6869 55.8481L65.0374 41.2954ZM61.1012 43.0845L67.6398 57.6875L67.681 57.6691L67.722 57.6504L61.1012 43.0845ZM31.0569 13.4474L41.7572 1.55183L41.7476 1.54324L31.0569 13.4474ZM32.4307 11.9194L21.6244 23.7187L21.6803 23.7699L21.7366 23.8205L32.4307 11.9194ZM42.0984 13.2007L49.6635 27.2992L49.6773 27.2919L49.691 27.2845L42.0984 13.2007ZM43.4907 13.6202L29.3699 21.1436L29.3819 21.1661L29.3939 21.1885L43.4907 13.6202ZM43.0712 15.0125L50.5994 29.1307L50.6316 29.1136L50.6637 29.0963L43.0712 15.0125ZM30.3298 30.5998L45.5242 25.5867L45.5202 25.5748L30.3298 30.5998ZM30.9837 29.3L25.9938 14.0981L25.9676 14.1066L25.9415 14.1153L30.9837 29.3ZM32.2794 29.9499L17.1063 35.027L17.1412 35.1315L17.1776 35.2355L32.2794 29.9499ZM39.7795 29.8841L54.6916 35.6832L54.7674 35.4882L54.8382 35.2912L39.7795 29.8841ZM41.0916 29.263L35.6616 44.3135L35.6988 44.3269L35.736 44.3401L41.0916 29.263ZM41.7188 30.5689L56.8033 35.9037L56.8119 35.8791L56.8206 35.8545L41.7188 30.5689ZM49.7225 34.5106L44.3721 49.5895L44.3941 49.5973L44.4161 49.6051L49.7225 34.5106ZM41.1447 31.467L46.4952 16.3881L46.4516 16.3726L46.4079 16.3574L41.1447 31.467ZM41.8275 29.5256L47.18 14.4475L47.1466 14.4356L47.1131 14.4239L41.8275 29.5256ZM50.4073 32.5713L45.0548 47.6495L45.0789 47.658L45.1029 47.6665L50.4073 32.5713ZM15.639 39.391L-0.0149152 36.0814L-0.0166086 36.0894L-0.0182938 36.0974L15.639 39.391ZM21.6112 32.5695L16.3149 17.4715L16.2736 17.486L16.2324 17.5007L21.6112 32.5695ZM30.1705 29.567L24.9083 14.4571L24.8912 14.463L24.8742 14.469L30.1705 29.567ZM30.8512 31.5083L25.5589 16.409L25.5547 16.4104L30.8512 31.5083ZM22.2981 34.5088L17.0016 19.4109L16.9662 19.4233L16.9309 19.4359L22.2981 34.5088ZM17.6503 39.8167L33.3009 43.1425L33.303 43.1322L17.6503 39.8167ZM32.5693 25.0324L21.9642 37.013L21.9718 37.0197L32.5693 25.0324ZM32.6577 26.4843L44.6131 37.1177L44.6162 37.1142L32.6577 26.4843ZM31.2078 26.5728L41.8304 14.6078L41.8194 14.598L41.8083 14.5882L31.2078 26.5728ZM50.7446 60.8321L36.3877 67.8947L36.4106 67.9412L36.4337 67.9875L50.7446 60.8321ZM51.2114 59.4542L44.1094 45.1168L44.1022 45.1204L51.2114 59.4542ZM56.2972 56.935L63.3992 71.2724L63.4113 71.2664L56.2972 56.935ZM57.2082 56.935L50.0528 71.2458L50.0777 71.2582L50.1025 71.2706L57.2082 56.935ZM60.5316 58.5823L53.4259 72.9179L80.8196 86.496L76.3605 56.2487L60.5316 58.5823ZM59.9907 54.9134L44.1515 57.1762L44.1566 57.2116L44.1618 57.247L59.9907 54.9134ZM60.2745 54.0456L71.6393 65.308L71.6756 65.2714L71.7116 65.2346L60.2745 54.0456ZM62.8719 51.3906L74.309 62.5796L95.6712 40.7437L65.5569 35.6175L62.8719 51.3906ZM59.2113 50.7675L61.8963 34.9943L61.8918 34.9936L59.2113 50.7675ZM58.473 50.2307L44.2959 57.6475L44.3128 57.6799L44.3299 57.7122L58.473 50.2307ZM56.7537 46.9444L70.9309 39.5276L56.7622 12.4444L42.5802 39.5206L56.7537 46.9444ZM55.0324 50.2307L69.1755 57.7122L69.1908 57.6834L69.2059 57.6545L55.0324 50.2307ZM54.2941 50.7675L51.6136 34.9936L51.6077 34.9946L54.2941 50.7675ZM50.6356 51.3906L47.9491 35.6177L17.8531 40.7437L39.1941 62.575L50.6356 51.3906ZM53.2309 54.0456L64.6883 42.8774L64.6804 42.8693L64.6724 42.8611L53.2309 54.0456ZM53.2144 55.4995L42.0174 44.0704L42.0168 44.071L53.2144 55.4995ZM51.7605 55.4831L63.2469 44.3447L63.224 44.3212L63.201 44.2977L51.7605 55.4831ZM47.7934 51.4255L36.3514 62.6095L36.3529 62.611L47.7934 51.4255ZM48.3569 49.6939L51.0151 65.4716L51.0301 65.4691L51.0451 65.4665L48.3569 49.6939ZM53.4489 48.8261L56.1371 64.5987L63.9462 63.2677L67.6221 56.2504L53.4489 48.8261ZM55.8447 44.2524L41.6916 36.7898L41.6816 36.8089L41.6716 36.828L55.8447 44.2524ZM57.6668 44.2524L71.8426 36.833L71.822 36.7936L71.8011 36.7543L57.6668 44.2524ZM60.0606 48.8261L45.8848 56.2454L49.5602 63.2677L57.3735 64.5988L60.0606 48.8261ZM65.1547 49.6939L62.4675 65.4667L62.482 65.4692L62.4965 65.4716L65.1547 49.6939ZM65.7181 51.4255L77.1522 62.6176L77.1602 62.6095L65.7181 51.4255ZM62.1048 55.117L50.6707 43.925L45.1187 49.597L46.2757 57.4493L62.1048 55.117ZM62.8575 60.2254L78.7001 57.9868L78.6935 57.9399L78.6866 57.8931L62.8575 60.2254ZM62.4441 61.2064L53.0385 48.2629L53.0104 48.2833L52.9823 48.3039L62.4441 61.2064ZM61.383 61.2948L68.6071 47.0186L68.5474 46.9883L68.4874 46.9586L61.383 61.2948ZM56.7558 59.0018L63.8602 44.6656L56.7574 41.1457L49.6539 44.6643L56.7558 59.0018ZM52.1265 61.2948L45.0247 46.9573L44.9587 46.99L44.893 47.0233L52.1265 61.2948ZM29.3835 66.8048L19.9778 79.7483L19.9886 79.7561L19.9993 79.7638L29.3835 66.8048ZM28.9701 65.8217L13.1398 63.4973L13.1378 63.5111L28.9701 65.8217ZM29.8709 59.6871L45.7011 62.0115L46.8526 54.1691L41.3112 48.5015L29.8709 59.6871ZM25.5357 55.2532L14.0937 66.4372L14.0954 66.4389L25.5357 55.2532ZM26.0992 53.5216L28.6739 69.3131L28.7284 69.3042L28.7829 69.295L26.0992 53.5216ZM32.2153 52.481L34.899 68.2544L42.7146 66.9246L46.391 59.9006L32.2153 52.481ZM35.0903 46.988L20.9372 39.5255L20.9259 39.547L20.9146 39.5685L35.0903 46.988ZM36.9145 46.988L51.0902 39.5685L51.0789 39.547L51.0676 39.5255L36.9145 46.988ZM39.7895 52.481L25.6138 59.9006L29.2902 66.9246L37.1058 68.2544L39.7895 52.481ZM45.9056 53.5216L43.2219 69.295L43.2347 69.2971L43.2474 69.2993L45.9056 53.5216ZM46.4691 55.2532L57.9068 66.4416L57.9111 66.4372L46.4691 55.2532ZM42.1319 59.6871L30.6942 48.4988L25.1475 54.1691L26.3024 62.0167L42.1319 59.6871ZM43.0347 65.8217L58.8773 63.5831L58.8709 63.5376L58.8642 63.4922L43.0347 65.8217ZM42.6213 66.8027L33.2157 53.8592L33.1596 53.9L33.1038 53.9412L42.6213 66.8027ZM41.5602 66.8911L48.7156 52.5803L48.6891 52.567L48.6625 52.5539L41.5602 66.8911ZM36.0014 64.1374L43.1037 49.8002L36.0001 46.2812L28.8969 49.8012L36.0014 64.1374ZM30.4446 66.8911L23.3402 52.5549L23.3147 52.5676L23.2892 52.5803L30.4446 66.8911ZM28.3778 55.2183L25.6913 39.4454L-4.40549 44.5717L16.9366 66.403L28.3778 55.2183ZM31.6971 58.6136L43.1633 47.4545L43.1508 47.4416L43.1382 47.4288L31.6971 58.6136ZM31.9809 59.4815L47.8103 61.8112L47.8153 61.7777L47.82 61.7442L31.9809 59.4815ZM31.2899 64.1765L15.4604 61.8468L11.011 92.0787L38.3926 78.5136L31.2899 64.1765ZM35.5448 62.0686L42.6475 76.4056L42.6945 76.3824L42.7413 76.3588L35.5448 62.0686ZM36.4559 62.0686L29.2178 76.3378L29.284 76.3713L29.3504 76.4043L36.4559 62.0686ZM40.7088 64.1765L33.6033 78.5122L60.9887 92.0858L56.5382 61.8468L40.7088 64.1765ZM40.0178 59.4815L24.1786 61.7442L24.1834 61.7777L24.1883 61.8112L40.0178 59.4815ZM40.3016 58.6136L51.6664 69.876L51.7029 69.8391L51.7393 69.8019L40.3016 58.6136ZM43.6229 55.2183L55.0606 66.4066L76.4156 44.5755L46.3105 39.4456L43.6229 55.2183ZM38.9402 54.4203L41.6278 38.6477L41.6207 38.6465L38.9402 54.4203ZM38.2019 53.8836L24.0252 61.3012L24.0419 61.3332L24.0588 61.3651L38.2019 53.8836ZM36.0014 49.678L50.1781 42.2604L36.0014 15.1656L21.8247 42.2604L36.0014 49.678ZM33.8009 53.8836L47.944 61.3651L47.9609 61.3332L47.9776 61.3012L33.8009 53.8836ZM33.0626 54.4203L30.3821 38.6465L30.3761 38.6475L33.0626 54.4203ZM20.0414 61.2968L12.937 75.633L12.9915 75.6601L13.0463 75.6867L20.0414 61.2968ZM15.4142 59.0038L22.5186 44.6675L15.4126 41.1461L8.30719 44.6688L15.4142 59.0038ZM10.7849 61.2989L3.67795 46.9639L3.6711 46.9673L3.66426 46.9707L10.7849 61.2989ZM9.72376 61.2084L0.31814 74.1519L0.33079 74.1611L0.343457 74.1702L9.72376 61.2084ZM9.31039 60.2274L-6.51871 57.8951L-6.52008 57.9045L9.31039 60.2274ZM10.0631 55.119L25.8922 57.4513L27.0492 49.599L21.4972 43.927L10.0631 55.119ZM6.44976 51.4275L-4.99226 62.6115L-4.98433 62.6196L6.44976 51.4275ZM7.01325 49.6959L9.58795 65.4874L9.64422 65.4782L9.70041 65.4687L7.01325 49.6959ZM12.1073 48.8281L14.7944 64.6008L22.6043 63.2703L26.2805 56.2524L12.1073 48.8281ZM14.5031 44.2544L0.350021 36.7918L0.339958 36.8109L0.329947 36.83L14.5031 44.2544ZM16.3252 44.2544L30.501 36.835L30.4804 36.7956L30.4595 36.7563L16.3252 44.2544ZM18.719 48.8281L4.54321 56.2474L8.21822 63.2691L16.0308 64.6006L18.719 48.8281ZM23.811 49.6959L21.1228 65.4685L21.1378 65.471L21.1528 65.4736L23.811 49.6959ZM24.3745 51.4275L35.8122 62.6158L35.8165 62.6115L24.3745 51.4275ZM20.4074 55.483L8.9697 44.2947L8.9307 44.3345L8.89198 44.3747L20.4074 55.483ZM18.9535 55.4995L7.75637 66.9286L7.77046 66.9424L7.78459 66.9562L18.9535 55.4995ZM18.937 54.0455L7.49552 42.861L7.48753 42.8692L7.47955 42.8774L18.937 54.0455ZM21.5323 51.3905L32.9738 62.575L54.3148 40.7436L24.2188 35.6177L21.5323 51.3905ZM17.8738 50.7674L20.5602 34.9945L20.5488 34.9926L20.5374 34.9907L17.8738 50.7674ZM17.1355 50.2306L2.95836 57.6474L2.9753 57.6798L2.99238 57.7121L17.1355 50.2306ZM15.4162 46.9443L29.5934 39.5275L15.4247 12.4443L1.24274 39.5205L15.4162 46.9443ZM13.6949 50.2306L27.838 57.7121L27.8533 57.6833L27.8684 57.6544L13.6949 50.2306ZM12.9566 50.7674L10.2761 34.9935L10.2716 34.9943L12.9566 50.7674ZM9.296 51.3905L6.61103 35.6174L-23.5034 40.7436L-2.14106 62.5795L9.296 51.3905ZM11.8934 54.0455L23.3596 42.8864L23.3451 42.8714L23.3304 42.8565L11.8934 54.0455ZM12.1772 54.9133L28.0061 57.2469L28.0113 57.2115L28.0164 57.1761L12.1772 54.9133ZM11.6363 58.5822L-4.19259 56.2487L-8.65036 86.4869L18.7385 72.9195L11.6363 58.5822ZM14.9617 56.9349L22.0639 71.2723L22.0759 71.2663L14.9617 56.9349ZM15.8728 56.9349L8.71736 71.2457L8.74288 71.2585L8.76844 71.2712L15.8728 56.9349ZM20.9565 59.4542L28.0657 45.1203L28.0608 45.1179L20.9565 59.4542ZM21.4233 60.832L35.6688 68.1167L35.7254 68.0061L35.7802 67.8947L21.4233 60.832ZM20.5786 13.117C28.8475 13.117 35.5503 19.8197 35.5503 28.0887H3.55033C3.55033 37.4929 11.1745 45.117 20.5786 45.117V13.117ZM35.5503 28.0887V24.3643H3.55033V28.0887H35.5503ZM35.5503 24.3643C35.5503 29.033 33.3659 33.482 29.5739 36.3336L10.3412 10.7581C6.03503 13.9963 3.55033 19.0499 3.55033 24.3643H35.5503ZM29.6135 36.3037C34.5567 32.5623 37.6069 26.6967 37.6069 20.2739H5.60686C5.60686 16.4218 7.45597 12.9417 10.3016 10.788L29.6135 36.3037ZM37.6069 20.2739V17.1891H5.60686V20.2739H37.6069ZM37.6069 17.1891C37.6069 6.0842 28.5987 -2.92394 17.4938 -2.92394V29.0761C10.9256 29.0761 5.60686 23.7573 5.60686 17.1891H37.6069ZM-2.61925 17.1891V20.2739H29.3807V17.1891H-2.61925ZM-2.61925 20.2739C-2.61925 26.6967 0.430872 32.5623 5.37414 36.3037L24.686 10.788C27.5316 12.9417 29.3807 16.4218 29.3807 20.2739H-2.61925ZM5.41372 36.3336C1.59406 33.4612 -0.562725 29.0001 -0.562725 24.3664H31.4373C31.4373 19.0869 28.9802 14.0171 24.6464 10.7581L5.41372 36.3336ZM-0.562725 24.3664V28.0908H31.4373V24.3664H-0.562725ZM-0.562725 28.0908C-0.562725 19.8218 6.14007 13.119 14.409 13.119V45.119C23.8132 45.119 31.4373 37.4949 31.4373 28.0908H-0.562725ZM14.409 13.119C22.7195 13.119 29.3807 19.8614 29.3807 28.0887H-2.61925C-2.61925 37.4513 4.96329 45.119 14.409 45.119V13.119ZM29.3807 28.0887V24.8497H-2.61925V28.0887H29.3807ZM24.0418 12.919C26.0851 14.7448 27.3242 17.4259 27.3242 20.2739H-4.67578C-4.67578 26.6427 -1.95187 32.606 2.71967 36.7804L24.0418 12.919ZM27.3242 20.2739V17.1891H-4.67578V20.2739H27.3242ZM7.66339 17.1891V20.2739H39.6634V17.1891H7.66339ZM7.66339 20.2739C7.66339 17.4178 8.90811 14.743 10.9354 12.9283L32.2783 36.7711C36.9338 32.6037 39.6634 26.6508 39.6634 20.2739H7.66339ZM5.60686 24.8497V28.0887H37.6069V24.8497H5.60686ZM5.60686 28.0887C5.60686 19.8198 12.3096 13.117 20.5786 13.117V45.117C29.9828 45.117 37.6069 37.4929 37.6069 28.0887H5.60686ZM18.5226 10.3401C25.5054 10.3401 31.7172 15.208 33.1829 22.2669L1.85107 28.7722C3.51824 36.8019 10.5856 42.3401 18.5226 42.3401V10.3401ZM33.1973 22.3372C34.8327 30.3955 29.6484 38.3331 21.5014 39.9866L15.1367 8.62591C5.87501 10.5056 -0.0250258 19.529 1.83664 28.7019L33.1973 22.3372ZM21.5579 39.975C30.8903 38.0459 37.6012 29.8059 37.6012 20.2734H5.60123C5.60123 14.6318 9.54819 9.78099 15.0801 8.63749L21.5579 39.975ZM37.6012 20.2734C37.6012 28.5423 30.8984 35.2451 22.6295 35.2451V3.24512C13.2253 3.24512 5.60123 10.8692 5.60123 20.2734H37.6012ZM22.6295 35.2451C14.3605 35.2451 7.65776 28.5423 7.65776 20.2734H39.6578C39.6578 10.8693 32.0337 3.24512 22.6295 3.24512V35.2451ZM7.65776 20.2734C7.65776 15.5968 10.9225 11.5869 15.5122 10.6445L21.9485 41.9905C32.2471 39.8759 39.6578 30.7823 39.6578 20.2734H7.65776ZM15.5039 10.6462C16.2764 10.4872 17.3058 10.3401 18.5226 10.3401V42.3401C19.8793 42.3401 21.0444 42.1767 21.9568 41.9888L15.5039 10.6462ZM24.4325 14.7292C26.4063 14.7292 28.4621 15.1208 30.4405 15.9863L17.6143 45.3034C19.8559 46.2841 22.1872 46.7292 24.4325 46.7292V14.7292ZM30.3424 15.9438L26.4885 14.2883L13.8584 43.6904L17.7124 45.3459L30.3424 15.9438ZM26.4831 14.286C34.1032 17.5561 37.5891 26.3719 34.338 33.9479L4.93131 21.3285C1.23186 29.9492 5.19894 39.9743 13.8638 43.6927L26.4831 14.286ZM34.3677 33.8781C31.0664 41.6729 22.1656 44.9882 14.723 41.8236L27.2444 12.3751C18.7571 8.76637 8.64707 12.5547 4.90155 21.3983L34.3677 33.8781ZM14.6687 41.8004L18.5226 43.4559L31.1527 14.0539L27.2987 12.3984L14.6687 41.8004ZM18.528 43.4582C10.9079 40.1882 7.42201 31.3724 10.6731 23.7963L40.0798 36.4157C43.7792 27.795 39.8121 17.7699 31.1473 14.0516L18.528 43.4582ZM10.6581 23.8314C13.1092 18.082 18.6853 14.7292 24.4325 14.7292V46.7292C30.9735 46.7292 37.3106 42.9115 40.0948 36.3807L10.6581 23.8314ZM11.3219 27.1772C13.3324 27.1772 15.4996 27.5849 17.6149 28.5637L4.17756 57.6057C6.56847 58.7119 9.0277 59.1772 11.3219 59.1772V27.1772ZM17.5171 28.5188L13.5809 26.7296L0.33917 55.8614L4.27537 57.6505L17.5171 28.5188ZM13.6096 26.7427C18.1912 28.8362 21.1523 33.4103 21.1523 38.4863H-10.8477C-10.8477 45.9725 -6.46751 52.7512 0.310454 55.8483L13.6096 26.7427ZM21.1523 38.4863V35.6359H-10.8477V38.4863H21.1523ZM21.1523 35.6359C21.1523 39.1287 19.0651 42.3484 15.7804 43.7503L3.21928 14.3187C-5.34658 17.9745 -10.8477 26.3767 -10.8477 35.6359H21.1523ZM15.8689 43.7122L20.3665 41.7605L7.62842 12.4051L3.13079 14.3568L15.8689 43.7122ZM20.314 41.7832C12.7867 45.0176 3.98148 41.5941 0.677548 33.9951L30.0238 21.2359C26.2674 12.5962 16.2612 8.69561 7.68091 12.3825L20.314 41.7832ZM0.656391 33.9462C-2.59398 26.4018 0.840475 17.5981 8.43635 14.2955L21.1956 43.6418C29.8321 39.8868 33.7436 29.8698 30.0449 21.2847L0.656391 33.9462ZM8.44616 14.2913L3.94442 16.245L16.684 45.5998L21.1858 43.6461L8.44616 14.2913ZM4.01732 16.2136C-3.77218 19.5483 -8.79113 27.1936 -8.79113 35.6359H23.2089C23.2089 39.9652 20.6249 43.9129 16.6111 45.6312L4.01732 16.2136ZM-8.79113 35.6359V38.4863H23.2089V35.6359H-8.79113ZM-8.79113 38.4863C-8.79113 45.1213 -4.92454 51.2072 1.18443 53.9871L14.4384 24.861C19.8153 27.3078 23.2089 32.6533 23.2089 38.4863H-8.79113ZM1.19058 53.9899L5.12678 55.7791L18.3685 26.6474L14.4323 24.8582L1.19058 53.9899ZM5.13116 55.7811C-2.42213 52.3505 -5.71908 43.4637 -2.3102 35.9582L26.8255 49.1911C30.7033 40.6532 26.9498 30.5449 18.3641 26.6454L5.13116 55.7811ZM-2.29736 35.93C0.218478 30.4191 5.65766 27.1772 11.3219 27.1772V59.1772C17.7636 59.1772 23.9513 55.487 26.8127 49.2193L-2.29736 35.93ZM21.4814 3.06056C23.2345 3.06056 24.79 3.70014 25.862 4.56441L5.77756 29.4766C10.1606 33.0102 15.6317 35.0606 21.4814 35.0606V3.06056ZM25.8786 4.5778C32.2916 9.76215 33.2991 19.1448 28.1574 25.5719L3.16959 5.58168C-2.67953 12.8931 -1.53223 23.5673 5.76098 29.4632L25.8786 4.5778ZM28.0725 25.6771C22.9147 32.0138 13.5072 33.1095 7.02194 27.8422L27.1965 3.00295C19.8352 -2.97598 9.13203 -1.74451 3.2545 5.47646L28.0725 25.6771ZM7.07392 27.8842C11.0222 31.0637 16.2689 33.198 22.1556 32.9945L21.0499 1.01358C23.7243 0.921125 25.8369 1.90785 27.1445 2.96092L7.07392 27.8842ZM37.5864 16.2816C37.1036 5.59912 28.3025 -2.92394 17.4938 -2.92394V29.0761C11.0943 29.0761 5.90446 24.0409 5.61906 17.7265L37.5864 16.2816ZM-2.61925 17.1891V17.95H29.3807V17.1891H-2.61925ZM-2.61925 17.95C-2.61925 9.68108 4.08353 2.9783 12.3525 2.9783V34.9783C21.7566 34.9783 29.3807 27.3542 29.3807 17.95H-2.61925ZM12.3525 2.9783C20.6006 2.9783 27.3242 9.66229 27.3242 17.95H-4.67578C-4.67578 27.3771 2.96918 34.9783 12.3525 34.9783V2.9783ZM27.3242 17.95V17.1891H-4.67578V17.95H27.3242ZM7.66339 17.1891V17.9089H39.6634V17.1891H7.66339ZM7.66339 17.9089C7.66339 10.5327 13.0236 4.29353 20.2519 3.12864L25.3433 34.721C33.5669 33.3957 39.6634 26.2969 39.6634 17.9089H7.66339ZM20.2671 3.1262C20.0573 3.15981 20.1468 3.14267 20.3245 3.12258C20.5402 3.09818 20.9494 3.06056 21.4814 3.06056V35.0606C23.321 35.0606 24.8641 34.7978 25.3281 34.7234L20.2671 3.1262ZM57.5942 13.1169C65.8632 13.1169 72.566 19.8197 72.566 28.0886H40.566C40.566 37.4927 48.19 45.1169 57.5942 45.1169V13.1169ZM72.566 28.0886V24.3642H40.566V28.0886H72.566ZM72.566 24.3642C72.566 29.0329 70.3815 33.4819 66.5895 36.3335L47.3568 10.758C43.0507 13.9962 40.566 19.0498 40.566 24.3642H72.566ZM66.6291 36.3036C71.5724 32.5622 74.6225 26.6966 74.6225 20.2738H42.6225C42.6225 16.4217 44.4716 12.9416 47.3172 10.7879L66.6291 36.3036ZM74.6225 20.2738V17.189H42.6225V20.2738H74.6225ZM74.6225 17.189C74.6225 6.0841 65.6143 -2.92404 54.5094 -2.92404V29.076C47.9412 29.076 42.6225 23.7572 42.6225 17.189H74.6225ZM54.5094 -2.92404C43.4045 -2.92404 34.3964 6.0841 34.3964 17.189H66.3964C66.3964 23.7572 61.0776 29.076 54.5094 29.076V-2.92404ZM34.3964 17.189V20.2738H66.3964V17.189H34.3964ZM34.3964 20.2738C34.3964 26.6966 37.4465 32.5622 42.3898 36.3036L61.7017 10.7879C64.5472 12.9416 66.3964 16.4216 66.3964 20.2738H34.3964ZM42.4293 36.3335C38.6097 33.461 36.4529 29 36.4529 24.3663H68.4529C68.4529 19.0869 65.9959 14.0171 61.6621 10.758L42.4293 36.3335ZM36.4529 24.3663V28.0907H68.4529V24.3663H36.4529ZM36.4529 28.0907C36.4529 19.8218 43.1556 13.1189 51.4246 13.1189V45.1189C60.8288 45.1189 68.4529 37.4948 68.4529 28.0907H36.4529ZM51.4246 13.1189C59.6936 13.1189 66.3964 19.8217 66.3964 28.0907H34.3964C34.3964 37.4949 42.0205 45.1189 51.4246 45.1189V13.1189ZM66.3964 28.0907V24.8516H34.3964V28.0907H66.3964ZM61.0574 12.9209C63.1008 14.7468 64.3398 17.4279 64.3398 20.2759H32.3398C32.3398 26.6446 35.0637 32.6079 39.7353 36.7823L61.0574 12.9209ZM64.3398 20.2759V17.1911H32.3398V20.2759H64.3398ZM64.3398 17.1911C64.3398 22.6261 59.9445 27.0215 54.5094 27.0215V-4.97852C42.2714 -4.97852 32.3398 4.95302 32.3398 17.1911H64.3398ZM54.5094 27.0215C49.0744 27.0215 44.679 22.6261 44.679 17.1911H76.679C76.679 4.95302 66.7475 -4.97852 54.5094 -4.97852V27.0215ZM44.679 17.1911V20.2759H76.679V17.1911H44.679ZM44.679 20.2759C44.679 17.4197 45.9237 14.745 47.951 12.9302L69.2939 36.7731C73.9495 32.6056 76.679 26.6527 76.679 20.2759H44.679ZM42.6225 24.8516V28.0907H74.6225V24.8516H42.6225ZM42.6225 28.0907C42.6225 19.7989 49.3461 13.1169 57.5942 13.1169V45.1169C66.9776 45.1169 74.6225 37.5136 74.6225 28.0907H42.6225ZM55.5421 10.3401C62.5249 10.3401 68.7368 15.2079 70.2024 22.2669L38.8706 28.7722C40.5378 36.8019 47.6052 42.3401 55.5421 42.3401V10.3401ZM70.2168 22.3372C71.8523 30.3955 66.6679 38.3331 58.5209 39.9866L52.1562 8.62591C42.8945 10.5056 36.9945 19.529 38.8562 28.7019L70.2168 22.3372ZM58.5774 39.975C67.9098 38.0459 74.6208 29.8059 74.6208 20.2734H42.6208C42.6208 14.6318 46.5677 9.78099 52.0997 8.63749L58.5774 39.975ZM74.6208 20.2734C74.6208 28.5424 67.9179 35.2451 59.649 35.2451V3.24512C50.2449 3.24512 42.6208 10.8692 42.6208 20.2734H74.6208ZM59.649 35.2451C51.38 35.2451 44.6773 28.5423 44.6773 20.2734H76.6773C76.6773 10.8693 69.0532 3.24512 59.649 3.24512V35.2451ZM44.6773 20.2734C44.6773 15.5968 47.942 11.5869 52.5317 10.6445L58.968 41.9905C69.2666 39.8759 76.6773 30.7823 76.6773 20.2734H44.6773ZM52.5234 10.6462C53.2959 10.4872 54.3253 10.3401 55.5421 10.3401V42.3401C56.8988 42.3401 58.0639 42.1767 58.9763 41.9888L52.5234 10.6462ZM47.8755 14.5997C53.6228 14.5997 59.1988 17.9527 61.6498 23.7019L32.2132 36.2512C34.9974 42.782 41.3343 46.5997 47.8755 46.5997V14.5997ZM61.6258 23.6458C64.8963 31.237 61.3985 40.0594 53.78 43.3288L41.1606 13.9221C32.4974 17.6398 28.5184 27.6756 32.2372 36.3073L61.6258 23.6458ZM53.7864 43.326L57.338 41.8001L44.7059 12.3989L41.1543 13.9249L53.7864 43.326ZM57.2752 41.8269C49.8447 44.9819 40.9744 41.684 37.6587 33.9271L67.0833 21.3495C63.3193 12.5438 53.2357 8.77695 44.7686 12.3721L57.2752 41.8269ZM37.6768 33.969C34.4063 26.3779 37.904 17.5555 45.5225 14.2861L58.1419 43.6928C66.8051 39.9751 70.7841 29.9393 67.0653 21.3076L37.6768 33.969ZM45.5162 14.2889L41.9645 15.8148L54.5967 45.216L58.1483 43.69L45.5162 14.2889ZM41.8675 15.8569C43.8313 14.9977 45.8871 14.5997 47.8755 14.5997V46.5997C50.1394 46.5997 52.4667 46.1482 54.6937 45.1739L41.8675 15.8569ZM60.6755 27.1771C66.3397 27.1771 71.7789 30.419 74.2947 35.9298L45.1847 49.2192C48.0461 55.4869 54.2338 59.1771 60.6755 59.1771V27.1771ZM74.3076 35.958C77.7164 43.4635 74.4196 52.3503 66.8662 55.781L53.6333 26.6453C45.0475 30.5448 41.2942 40.6532 45.1719 49.191L74.3076 35.958ZM66.8706 55.779L70.8068 53.9898L57.5651 24.8581L53.6289 26.6472L66.8706 55.779ZM70.813 53.987C76.9055 51.2145 80.7885 45.1414 80.7885 38.4861H48.7885C48.7885 32.6371 52.1985 27.3002 57.5589 24.8609L70.813 53.987ZM80.7885 38.4861V35.6358H48.7885V38.4861H80.7885ZM80.7885 35.6358C80.7885 27.2075 75.7815 19.5486 67.9765 16.2134L55.4021 45.6393C51.3606 43.9123 48.7885 39.951 48.7885 35.6358H80.7885ZM68.0631 16.2507L63.5552 14.2929L50.8077 43.6442L55.3156 45.602L68.0631 16.2507ZM63.561 14.2954C71.1585 17.5987 74.5811 26.3957 71.35 33.925L41.9434 21.3056C38.264 29.8796 42.1637 39.886 50.8018 43.6417L63.561 14.2954ZM71.329 33.9738C68.0348 41.5804 59.2155 45.0237 51.6766 41.7802L64.3232 12.3852C55.7231 8.68519 45.7111 12.6056 41.9644 21.2569L71.329 33.9738ZM51.6301 41.7601L56.1319 43.7138L68.8715 14.359L64.3697 12.4053L51.6301 41.7601ZM56.2225 43.7528C52.9269 42.3466 50.845 39.1225 50.845 35.6358H82.845C82.845 26.3826 77.3494 17.976 68.7808 14.32L56.2225 43.7528ZM50.845 35.6358V38.4861H82.845V35.6358H50.845ZM50.845 38.4861C50.845 33.4102 53.8062 28.8361 58.3878 26.7426L71.6869 55.8481C78.4649 52.7511 82.845 45.9723 82.845 38.4861H50.845ZM58.4165 26.7295L54.4803 28.5187L67.722 57.6504L71.6582 55.8612L58.4165 26.7295ZM54.5625 28.4816C56.4401 27.6409 58.5187 27.1771 60.6755 27.1771V59.1771C63.116 59.1771 65.4867 58.6516 67.6398 57.6875L54.5625 28.4816ZM38.7031 -0.0127516C39.0406 -0.0127516 39.2578 0.0328037 39.4811 0.107391C39.6164 0.152578 39.8629 0.2457 40.202 0.43039C40.5253 0.606508 41.0893 0.951097 41.7572 1.55183L20.3567 25.343C25.676 30.1278 32.8888 31.9872 38.7031 31.9872V-0.0127516ZM41.7476 1.54324C47.8801 7.05058 48.4336 16.5356 42.8571 22.715L19.1005 1.27609C12.7631 8.29862 13.3865 19.0834 20.3663 25.3516L41.7476 1.54324ZM42.8571 22.715C37.3897 28.7735 27.8723 29.4408 21.6244 23.7187L43.237 0.120121C36.1583 -6.36283 25.3288 -5.62558 19.1005 1.27609L42.8571 22.715ZM21.7366 23.8205C25.8567 27.5227 30.9123 29.058 34.55 29.6174C38.2019 30.1789 44.0466 30.3132 49.6635 27.2992L34.5334 -0.897912C36.1071 -1.74235 37.4068 -1.96069 38.0284 -2.02596C38.6963 -2.09608 39.155 -2.05063 39.4131 -2.01094C39.676 -1.97052 40.0246 -1.8909 40.4867 -1.70098C40.864 -1.54596 41.9014 -1.08103 43.1248 0.0183299L21.7366 23.8205ZM49.691 27.2845C42.4202 31.2041 33.2905 28.5023 29.3699 21.1436L57.6116 6.09678C53.1562 -2.26555 42.7762 -5.34161 34.5059 -0.883162L49.691 27.2845ZM29.3939 21.1885C25.463 13.8669 28.2571 4.82177 35.4787 0.92864L50.6637 29.0963C58.8848 24.6643 62.0572 14.3771 57.5875 6.05182L29.3939 21.1885ZM35.543 0.894174C36.397 0.438797 37.1289 0.220401 37.6245 0.113459C38.1223 0.00607112 38.4893 -0.0127516 38.7031 -0.0127516V31.9872C42.1365 31.9872 46.4251 31.3566 50.5994 29.1307L35.543 0.894174ZM35.9852 18.6696C38.816 18.6696 41.2279 19.8868 42.7911 21.3021C44.0615 22.4523 44.9532 23.8562 45.5241 25.5867L15.1354 35.6128C16.7917 40.633 23.0044 50.6696 35.9852 50.6696V18.6696ZM45.5202 25.5748C48.1311 33.4676 43.8157 41.8981 36.026 44.4848L25.9415 14.1153C17.0742 17.0598 12.1706 26.6502 15.1393 35.6247L45.5202 25.5748ZM35.9737 44.502C28.1372 47.0743 19.7155 42.8247 17.1063 35.027L47.4524 24.8728C44.4854 16.0057 34.9079 11.172 25.9938 14.0981L35.9737 44.502ZM17.1776 35.2355C17.5139 36.1962 18.5996 39.0755 21.1531 41.951C23.9997 45.1565 28.9964 48.611 35.9852 48.611V16.611C40.2224 16.611 43.3877 18.7967 45.0801 20.7025C46.4794 22.2782 47.088 23.827 47.3811 24.6643L17.1776 35.2355ZM35.9852 48.611C43.0795 48.611 48.0695 45.0497 50.8407 41.9464C52.1599 40.4691 53.0543 39.0375 53.6339 37.9652C53.9324 37.4131 54.1701 36.9139 54.3554 36.4939C54.4489 36.2822 54.5287 36.0914 54.5955 35.9261C54.6573 35.773 54.7264 35.5937 54.6916 35.6832L24.8674 24.085C24.8612 24.101 24.9564 23.8531 25.0803 23.5724C25.1931 23.3167 25.3258 23.0401 25.4832 22.7489C25.7808 22.1982 26.2495 21.4414 26.9723 20.632C28.5508 18.8645 31.6652 16.611 35.9852 16.611V48.611ZM54.8382 35.2912C52.0419 43.0786 43.4638 47.1284 35.6616 44.3135L46.5215 14.2126C37.6705 11.0193 27.8996 15.6243 24.7209 24.4769L54.8382 35.2912ZM35.736 44.3401C28.035 41.6046 23.8716 33.1276 26.6171 25.2833L56.8206 35.8545C59.9403 26.9409 55.2135 17.2999 46.4471 14.186L35.736 44.3401ZM26.6344 25.2342C26.9221 24.4207 27.4022 23.247 28.4766 22.0407C29.0862 21.3563 30.0465 20.4843 31.4312 19.7822C32.8898 19.0426 34.4768 18.6696 35.9852 18.6696V50.6696C43.7316 50.6696 49.2228 46.8604 52.3724 43.3243C55.2355 40.1098 56.4559 36.8858 56.8033 35.9037L26.6344 25.2342ZM55.5343 26.8951C63.8032 26.8951 70.506 33.5979 70.506 41.8668H38.506C38.506 51.271 46.1301 58.8951 55.5343 58.8951V26.8951ZM70.506 41.8668V41.2931H38.506V41.8668H70.506ZM70.506 41.2931C70.506 31.5083 64.349 22.6926 55.0289 19.4162L44.4161 49.6051C40.8173 48.3399 38.506 44.9781 38.506 41.2931H70.506ZM55.073 19.4318L46.4952 16.3881L35.7943 46.5459L44.3721 49.5895L55.073 19.4318ZM46.4079 16.3574C51.6111 18.1699 55.082 23.0699 55.082 28.5632H23.082C23.082 36.6683 28.2105 43.9045 35.8816 46.5766L46.4079 16.3574ZM55.082 28.5632V26.0336H23.082V28.5632H55.082ZM55.082 26.0336C55.082 34.3026 48.3792 41.0054 40.1103 41.0054V9.00537C30.7061 9.00537 23.082 16.6295 23.082 26.0336H55.082ZM40.1103 41.0054C31.8413 41.0054 25.1386 34.3026 25.1386 26.0336H57.1386C57.1386 16.6295 49.5145 9.00537 40.1103 9.00537V41.0054ZM25.1386 26.0336V28.5632H57.1386V26.0336H25.1386ZM25.1386 28.5632C25.1386 35.9148 29.8278 42.2774 36.5419 44.6274L47.1131 14.4239C53.0046 16.4859 57.1386 22.0753 57.1386 28.5632H25.1386ZM36.475 44.6038L45.0548 47.6495L55.7599 17.4932L47.18 14.4475L36.475 44.6038ZM45.1029 47.6665C42.3294 46.6919 40.5625 44.1131 40.5625 41.2931H72.5625C72.5625 30.6294 65.8476 21.0379 55.7117 17.4762L45.1029 47.6665ZM40.5625 41.2931V41.8689H72.5625V41.2931H40.5625ZM40.5625 41.8689C40.5625 33.5582 47.3071 26.8951 55.5343 26.8951V58.8951C64.8966 58.8951 72.5625 51.3148 72.5625 41.8689H40.5625ZM16.4658 26.8953C24.7347 26.8953 31.4375 33.5981 31.4375 41.8671H-0.5625C-0.5625 51.2712 7.06162 58.8953 16.4658 58.8953V26.8953ZM31.4375 41.8671V41.3118H-0.5625V41.8671H31.4375ZM31.4375 41.3118C31.4375 41.7983 31.3861 42.2582 31.2964 42.6846L-0.0182938 36.0974C-0.375354 37.7948 -0.5625 39.542 -0.5625 41.3118H31.4375ZM31.293 42.7006C30.7992 45.0362 29.1781 46.8573 26.99 47.6383L16.2324 17.5007C8.00633 20.437 1.80328 27.4817 -0.0149152 36.0814L31.293 42.7006ZM26.9075 47.6675L35.4667 44.665L24.8742 14.469L16.3149 17.4715L26.9075 47.6675ZM35.4326 44.6769C42.1908 42.3233 46.8615 35.9318 46.8615 28.6025H14.8615C14.8615 22.1369 18.9769 16.5227 24.9083 14.4571L35.4326 44.6769ZM46.8615 28.6025V26.0318H14.8615V28.6025H46.8615ZM46.8615 26.0318C46.8615 34.3008 40.1587 41.0035 31.8897 41.0035V9.00355C22.4856 9.00355 14.8615 16.6277 14.8615 26.0318H46.8615ZM31.8897 41.0035C23.6208 41.0035 16.918 34.3008 16.918 26.0318H48.918C48.918 16.6277 41.2939 9.00355 31.8897 9.00355V41.0035ZM16.918 26.0318V28.6025H48.918V26.0318H16.918ZM16.918 28.6025C16.918 23.0819 20.4093 18.2139 25.5589 16.409L36.1435 46.6077C43.7691 43.935 48.918 36.7307 48.918 28.6025H16.918ZM25.5547 16.4104L17.0016 19.4109L27.5945 49.6068L36.1476 46.6063L25.5547 16.4104ZM16.9309 19.4359C9.35223 22.1345 3.66848 28.6129 1.9976 36.5012L33.303 43.1322C32.6646 46.1466 30.5427 48.5572 27.6653 49.5818L16.9309 19.4359ZM1.99978 36.491C1.65745 38.102 1.49403 39.7213 1.49403 41.3118H33.494C33.494 41.907 33.4334 42.5186 33.3009 43.1425L1.99978 36.491ZM1.49403 41.3118V41.8671H33.494V41.3118H1.49403ZM1.49403 41.8671C1.49403 33.5793 8.21769 26.8953 16.4658 26.8953V58.8953C25.849 58.8953 33.494 51.2941 33.494 41.8671H1.49403ZM35.9995 12.4997C44.2685 12.4997 50.9713 19.2025 50.9713 27.4715H18.9713C18.9713 36.8756 26.5954 44.4997 35.9995 44.4997V12.4997ZM50.9713 27.4715C50.9713 35.7405 44.2685 42.4432 35.9995 42.4432V10.4432C26.5954 10.4432 18.9713 18.0673 18.9713 27.4715H50.9713ZM35.9995 42.4432C41.4545 42.4432 47.3247 40.1472 51.706 35.3439C56.2827 30.3263 58.1691 23.8254 58.1691 17.1888H26.1691C26.1691 17.8735 26.0381 15.9998 28.0637 13.7791C29.8938 11.7726 32.6793 10.4432 35.9995 10.4432V42.4432ZM58.1691 17.1888V14.104H26.1691V17.1888H58.1691ZM58.1691 14.104C58.1691 1.86599 48.2376 -8.06554 35.9995 -8.06554V23.9345C30.5645 23.9345 26.1691 19.5391 26.1691 14.104H58.1691ZM35.9995 -8.06554C23.7615 -8.06554 13.83 1.86598 13.83 14.104H45.83C45.83 19.5391 41.4346 23.9345 35.9995 23.9345V-8.06554ZM13.83 14.104V17.1888H45.83V14.104H13.83ZM13.83 17.1888C13.83 23.0851 15.3664 31.1726 21.9642 37.013L43.1743 13.0519C44.6752 14.3804 45.3584 15.7835 45.6329 16.5693C45.8915 17.3097 45.83 17.5958 45.83 17.1888H13.83ZM21.9718 37.0197C15.7975 31.5613 15.1664 22.0789 20.6991 15.8545L44.6162 37.1142C50.9058 30.0384 50.1924 19.2563 43.1667 13.0452L21.9718 37.0197ZM20.7023 15.8509C26.1938 9.67672 35.6516 9.12218 41.8304 14.6078L20.5853 38.5378C27.6073 44.7719 38.3607 44.1475 44.6131 37.1177L20.7023 15.8509ZM41.8083 14.5882C42.6454 15.3286 43.2322 16.1615 43.5649 16.9229C43.8885 17.6638 43.7734 17.8825 43.7734 17.1888H11.7734C11.7734 26.7484 15.4093 33.9595 20.6073 38.5573L41.8083 14.5882ZM43.7734 17.1888V14.104H11.7734V17.1888H43.7734ZM43.7734 14.104C43.7734 18.4039 40.2994 21.8779 35.9995 21.8779V-10.1221C22.6263 -10.1221 11.7734 0.730779 11.7734 14.104H43.7734ZM35.9995 21.8779C31.6997 21.8779 28.2257 18.4039 28.2257 14.104H60.2257C60.2257 0.730779 49.3728 -10.1221 35.9995 -10.1221V21.8779ZM28.2257 14.104V17.1888H60.2257V14.104H28.2257ZM28.2257 17.1888C28.2257 18.3077 27.9906 16.771 29.8381 14.9142C31.3633 13.3815 33.4924 12.4997 35.9995 12.4997V44.4997C41.3529 44.4997 47.5951 42.4365 52.5218 37.4853C57.7708 32.2101 60.2257 25.018 60.2257 17.1888H28.2257ZM51.6659 45.4038C57.1819 45.4038 62.4527 48.4713 65.0554 53.6767L36.4337 67.9875C39.3984 73.9169 45.3931 77.4038 51.6659 77.4038V45.4038ZM65.1014 53.7695C68.7393 61.1645 65.7146 70.1209 58.3205 73.7881L44.1022 45.1204C35.6882 49.2935 32.248 59.4796 36.3877 67.8947L65.1014 53.7695ZM58.3134 73.7916L63.3992 71.2724L49.1952 42.5976L44.1094 45.1168L58.3134 73.7916ZM63.4113 71.2664C59.2316 73.3412 54.2896 73.3642 50.0528 71.2458L64.3636 42.6242C59.5592 40.2219 53.9345 40.245 49.183 42.6036L63.4113 71.2664ZM50.1025 71.2706L53.4259 72.9179L67.6373 44.2467L64.3139 42.5994L50.1025 71.2706ZM76.3605 56.2487L75.8196 52.5799L44.1618 57.247L44.7027 60.9158L76.3605 56.2487ZM75.8299 52.6507C76.4745 57.1632 75.0322 61.8842 71.6393 65.308L48.9097 42.7832C45.0644 46.6635 43.4164 52.0302 44.1515 57.1762L75.8299 52.6507ZM71.7116 65.2346L74.309 62.5796L51.4348 40.2016L48.8374 42.8566L71.7116 65.2346ZM65.5569 35.6175L61.8963 34.9943L56.5263 66.5406L60.1869 67.1637L65.5569 35.6175ZM61.8918 34.9936C66.5433 35.784 70.472 38.6961 72.6161 42.7492L44.3299 57.7122C46.7742 62.3329 51.25 65.6439 56.5308 66.5413L61.8918 34.9936ZM72.6501 42.8139L70.9309 39.5276L42.5766 54.3612L44.2959 57.6475L72.6501 42.8139ZM42.5802 39.5206L40.8589 42.8069L69.2059 57.6545L70.9272 54.3681L42.5802 39.5206ZM40.8893 42.7492C43.0333 38.6961 46.962 35.7841 51.6136 34.9936L56.9747 66.5413C62.2555 65.6439 66.7312 62.3329 69.1755 57.7122L40.8893 42.7492ZM51.6077 34.9946L47.9491 35.6177L53.322 67.1634L56.9806 66.5403L51.6077 34.9946ZM39.1941 62.575L41.7894 65.23L64.6724 42.8611L62.0771 40.2061L39.1941 62.575ZM41.7735 65.2137C36.009 59.2999 36.1261 49.842 42.0174 44.0704L64.4115 66.9287C71.113 60.3633 71.2466 49.6056 64.6883 42.8774L41.7735 65.2137ZM42.0168 44.071C47.9214 38.2857 57.4451 38.3617 63.2469 44.3447L40.2741 66.6214C46.8655 73.4189 57.6931 73.5113 64.4121 66.9281L42.0168 44.071ZM63.201 44.2977L59.234 40.2401L36.3529 62.611L40.3199 66.6685L63.201 44.2977ZM59.2355 40.2416C63.1011 44.1964 64.5099 50.0167 62.7553 55.3713L32.3463 45.4068C30.3531 51.4894 31.9511 58.1076 36.3514 62.6095L59.2355 40.2416ZM62.7553 55.3713C61.0366 60.6161 56.5425 64.5403 51.0151 65.4716L45.6987 33.9163C39.4146 34.975 34.3035 39.434 32.3463 45.4068L62.7553 55.3713ZM51.0451 65.4665L56.1371 64.5987L50.7607 33.0535L45.6687 33.9214L51.0451 65.4665ZM67.6221 56.2504L70.0179 51.6767L41.6716 36.828L39.2757 41.4018L67.6221 56.2504ZM69.9979 51.7149C67.4167 56.6103 62.3299 59.7012 56.7558 59.7012V27.7012C50.4208 27.7012 44.6307 31.2158 41.6916 36.7898L69.9979 51.7149ZM56.7558 59.7012C51.1036 59.7012 46.0744 56.542 43.5325 51.7505L71.8011 36.7543C68.9015 31.2882 63.1771 27.7012 56.7558 27.7012V59.7012ZM43.491 51.6717L45.8848 56.2454L74.2364 41.4067L71.8426 36.833L43.491 51.6717ZM57.3735 64.5988L62.4675 65.4667L67.8418 33.9212L62.7478 33.0534L57.3735 64.5988ZM62.4965 65.4716C56.9322 64.5341 52.4749 60.5863 50.7647 55.3969L81.1569 45.3812C79.2082 39.4679 74.1339 34.9813 67.8128 33.9163L62.4965 65.4716ZM50.7647 55.3969C48.9934 50.0219 50.4128 44.1941 54.2761 40.2416L77.1602 62.6095C81.5581 58.11 83.1668 51.4801 81.1569 45.3812L50.7647 55.3969ZM54.284 40.2335L50.6707 43.925L73.5389 66.309L77.1522 62.6176L54.284 40.2335ZM46.2757 57.4493L47.0284 62.5577L78.6866 57.8931L77.9339 52.7847L46.2757 57.4493ZM47.0149 62.4641C46.2502 57.0522 48.4996 51.5611 53.0385 48.2629L71.8498 74.1499C77.0056 70.4033 79.5718 64.1555 78.7001 57.9868L47.0149 62.4641ZM52.9823 48.3039C57.5039 44.9881 63.5392 44.4541 68.6071 47.0186L54.1588 75.5711C59.9095 78.4811 66.7674 77.8772 71.906 74.1089L52.9823 48.3039ZM68.4874 46.9586L63.8602 44.6656L49.6514 73.338L54.2786 75.6311L68.4874 46.9586ZM49.6539 44.6643L45.0247 46.9573L59.2284 75.6323L63.8576 73.3393L49.6539 44.6643ZM44.893 47.0233C47.1478 45.8805 49.496 45.4038 51.6659 45.4038V77.4038C54.1443 77.4038 56.805 76.8614 59.3601 75.5663L44.893 47.0233ZM29.9881 51.0001C33.0594 51.0001 36.1488 51.9493 38.7676 53.8457L19.9993 79.7638C22.976 81.9194 26.489 83.0001 29.9881 83.0001V51.0001ZM38.7891 53.8612C43.2885 57.1308 45.606 62.626 44.8024 68.1324L13.1378 63.5111C12.2231 69.7784 14.8615 76.0304 19.9778 79.7483L38.7891 53.8612ZM44.8004 68.1461L45.7011 62.0115L14.0406 57.3627L13.1398 63.4973L44.8004 68.1461ZM41.3112 48.5015L36.976 44.0676L14.0954 66.4389L18.4305 70.8727L41.3112 48.5015ZM36.9777 44.0693C40.8433 48.0241 42.2522 53.8444 40.4975 59.199L10.0885 49.2345C8.09534 55.3171 9.69338 61.9353 14.0937 66.4372L36.9777 44.0693ZM40.4975 59.199C38.7984 64.3843 34.3272 68.3914 28.6739 69.3131L23.5245 37.7302C17.1144 38.7753 12.0262 43.3211 10.0885 49.2345L40.4975 59.199ZM28.7829 69.295L34.899 68.2544L29.5316 36.7077L23.4155 37.7483L28.7829 69.295ZM46.391 59.9006L49.266 54.4076L20.9146 39.5685L18.0396 45.0615L46.391 59.9006ZM49.2434 54.4506C46.0458 60.5151 40.1445 62.4791 36.0024 62.4791C31.8603 62.4791 25.959 60.5151 22.7614 54.4506L51.0676 39.5255C47.5121 32.7823 40.8776 30.4791 36.0024 30.4791C31.1272 30.4791 24.4927 32.7823 20.9372 39.5255L49.2434 54.4506ZM22.7388 54.4076L25.6138 59.9006L53.9652 45.0615L51.0902 39.5685L22.7388 54.4076ZM37.1058 68.2544L43.2219 69.295L48.5893 37.7483L42.4732 36.7077L37.1058 68.2544ZM43.2474 69.2993C37.6832 68.3618 33.2259 64.4141 31.5157 59.2246L61.9079 49.2089C59.9591 43.2955 54.8848 38.8089 48.5638 37.744L43.2474 69.2993ZM31.5157 59.2246C29.7443 53.8495 31.1639 48.0217 35.0271 44.0693L57.9111 66.4372C62.309 61.9378 63.9178 55.3079 61.9079 49.2089L31.5157 59.2246ZM35.0314 44.0649L30.6942 48.4988L53.5696 70.8755L57.9068 66.4416L35.0314 44.0649ZM26.3024 62.0167L27.2052 68.1513L58.8642 63.4922L57.9614 57.3575L26.3024 62.0167ZM27.1921 68.0604C26.4274 62.6485 28.6768 57.1574 33.2157 53.8592L52.0269 79.7462C57.1828 75.9996 59.749 69.7518 58.8773 63.5831L27.1921 68.0604ZM33.1038 53.9412C37.7549 50.4995 43.8018 50.1234 48.7156 52.5803L34.4047 81.202C40.0013 84.0002 46.8708 83.5625 52.1388 79.6642L33.1038 53.9412ZM48.6625 52.5539L43.1037 49.8002L28.899 78.4747L34.4578 81.2284L48.6625 52.5539ZM28.8969 49.8012L23.3402 52.5549L37.5491 81.2273L43.1058 78.4736L28.8969 49.8012ZM23.2892 52.5803C25.3263 51.5617 27.6155 51.0001 29.9881 51.0001V83.0001C32.6733 83.0001 35.275 82.3645 37.6001 81.202L23.2892 52.5803ZM16.9366 66.403L20.2559 69.7984L43.1382 47.4288L39.819 44.0335L16.9366 66.403ZM20.2308 69.7727C17.0135 66.4669 15.4819 61.837 16.1417 57.2187L47.82 61.7442C48.5703 56.4925 46.8289 51.221 43.1633 47.4545L20.2308 69.7727ZM16.1514 57.1518L15.4604 61.8468L47.1193 66.5062L47.8103 61.8112L16.1514 57.1518ZM38.3926 78.5136L42.6475 76.4056L28.4421 47.7315L24.1871 49.8395L38.3926 78.5136ZM42.7413 76.3588C38.5168 78.4863 33.4998 78.5098 29.2178 76.3378L43.6939 47.7993C38.8443 45.3394 33.1446 45.363 28.3483 47.7784L42.7413 76.3588ZM29.3504 76.4043L33.6033 78.5122L47.8142 49.8408L43.5613 47.7329L29.3504 76.4043ZM56.5382 61.8468L55.8473 57.1518L24.1883 61.8112L24.8793 66.5062L56.5382 61.8468ZM55.857 57.2187C56.5016 61.7312 55.0593 66.4522 51.6664 69.876L28.9368 47.3512C25.0914 51.2316 23.4434 56.5983 24.1786 61.7442L55.857 57.2187ZM51.7393 69.8019L55.0606 66.4066L32.1851 44.03L28.8638 47.4253L51.7393 69.8019ZM46.3105 39.4456L41.6278 38.6477L36.2525 70.193L40.9352 70.9909L46.3105 39.4456ZM41.6207 38.6465C46.2723 39.4369 50.201 42.3491 52.345 46.4021L24.0588 61.3651C26.503 65.9857 30.9787 69.2968 36.2596 70.1942L41.6207 38.6465ZM52.3786 46.466L50.1781 42.2604L21.8247 57.0956L24.0252 61.3012L52.3786 46.466ZM21.8247 42.2604L19.6242 46.466L47.9776 61.3012L50.1781 57.0956L21.8247 42.2604ZM19.6578 46.4021C21.8018 42.3491 25.7304 39.4369 30.3821 38.6465L35.7431 70.1942C41.024 69.2968 45.4998 65.9857 47.944 61.3651L19.6578 46.4021ZM30.3761 38.6475L25.6913 39.4454L31.0643 70.9911L35.7491 70.1932L30.3761 38.6475ZM20.4979 45.4037C22.8117 45.4037 25.0452 45.939 27.0364 46.9069L13.0463 75.6867C15.3336 76.7986 17.8756 77.4037 20.4979 77.4037V45.4037ZM27.1457 46.9606L22.5186 44.6675L8.30978 73.34L12.937 75.633L27.1457 46.9606ZM8.30719 44.6688L3.67795 46.9639L17.8919 75.6338L22.5211 73.3387L8.30719 44.6688ZM3.66426 46.9707C8.67636 44.4798 14.6203 45.0017 19.1041 48.2465L0.343457 74.1702C5.45237 77.8675 12.2148 78.4552 17.9056 75.627L3.66426 46.9707ZM19.1294 48.2649C23.6135 51.5234 25.9531 57.0151 25.1409 62.5504L-6.52008 57.9045C-7.44337 64.1965 -4.78298 70.4451 0.31814 74.1519L19.1294 48.2649ZM25.1395 62.5597L25.8922 57.4513L-5.76602 52.7867L-6.5187 57.8951L25.1395 62.5597ZM21.4972 43.927L17.8839 40.2355L-4.98433 62.6196L-1.37101 66.311L21.4972 43.927ZM17.8918 40.2436C21.7574 44.1985 23.1662 50.0187 21.4116 55.3733L-8.99741 45.4088C-10.9906 51.4914 -9.3926 58.1096 -4.99225 62.6115L17.8918 40.2436ZM21.4116 55.3733C19.7124 60.5587 15.2412 64.5657 9.58795 65.4874L4.43855 33.9045C-1.97146 34.9496 -7.05968 39.4954 -8.99741 45.4088L21.4116 55.3733ZM9.70041 65.4687L14.7944 64.6008L9.42011 33.0553L4.32609 33.9232L9.70041 65.4687ZM26.2805 56.2524L28.6763 51.6787L0.329947 36.83L-2.06591 41.4037L26.2805 56.2524ZM28.6562 51.7169C26.0751 56.6122 20.9883 59.7032 15.4142 59.7032V27.7032C9.07912 27.7032 3.28902 31.2179 0.350021 36.7918L28.6562 51.7169ZM15.4142 59.7032C9.76204 59.7032 4.73278 56.544 2.1909 51.7524L30.4595 36.7563C27.5598 31.2901 21.8354 27.7032 15.4142 27.7032V59.7032ZM2.14941 51.6737L4.54321 56.2474L32.8948 41.4087L30.501 36.835L2.14941 51.6737ZM16.0308 64.6006L21.1228 65.4685L26.4992 33.9234L21.4072 33.0555L16.0308 64.6006ZM21.1528 65.4736C15.5886 64.5361 11.1312 60.5885 9.42102 55.3989L39.8132 45.3832C37.8645 39.4697 32.7901 34.9832 26.4692 33.9183L21.1528 65.4736ZM9.42102 55.3989C7.64971 50.0238 9.0692 44.196 12.9324 40.2436L35.8165 62.6115C40.2144 58.112 41.8231 51.4821 39.8132 45.3832L9.42102 55.3989ZM12.9367 40.2392L8.9697 44.2947L31.8451 66.6713L35.8122 62.6158L12.9367 40.2392ZM8.89198 44.3747C14.7332 38.3194 24.2595 38.3272 30.1223 44.0427L7.78459 66.9562C14.4659 73.4696 25.296 73.461 31.9229 66.5913L8.89198 44.3747ZM30.1505 44.0703C36.0418 49.8419 36.1589 59.2999 30.3944 65.2136L7.47955 42.8774C0.921328 49.6055 1.05486 60.3632 7.75637 66.9286L30.1505 44.0703ZM30.3785 65.23L32.9738 62.575L10.0909 40.206L7.49552 42.861L30.3785 65.23ZM24.2188 35.6177L20.5602 34.9945L15.1873 66.5402L18.8459 67.1634L24.2188 35.6177ZM20.5374 34.9907C25.2289 35.7827 29.1487 38.7227 31.2786 42.7491L2.99238 57.7121C5.42255 62.3061 9.88524 65.6451 15.2102 66.5441L20.5374 34.9907ZM31.3126 42.8138L29.5934 39.5275L1.2391 54.3611L2.95836 57.6474L31.3126 42.8138ZM1.24274 39.5205L-0.47857 42.8069L27.8684 57.6544L29.5897 54.3681L1.24274 39.5205ZM-0.448187 42.7491C1.69579 38.6961 5.62446 35.784 10.2761 34.9935L15.6371 66.5413C20.9181 65.6438 25.3938 62.3327 27.838 57.7121L-0.448187 42.7491ZM10.2716 34.9943L6.61103 35.6174L11.981 67.1636L15.6416 66.5405L10.2716 34.9943ZM-2.14106 62.5795L0.456339 65.2345L23.3304 42.8565L20.7331 40.2015L-2.14106 62.5795ZM0.42716 65.2046C-2.79012 61.8988 -4.32175 57.2689 -3.662 52.6506L28.0164 57.1761C28.7666 51.9244 27.0252 46.6529 23.3596 42.8864L0.42716 65.2046ZM-3.65173 52.5798L-4.19259 56.2487L27.4652 60.9157L28.0061 57.2469L-3.65173 52.5798ZM18.7385 72.9195L22.0639 71.2723L7.85957 42.5976L4.53416 44.2449L18.7385 72.9195ZM22.0759 71.2663C17.8962 73.3411 12.9542 73.3641 8.71736 71.2457L23.0282 42.6241C18.2238 40.2219 12.599 40.2449 7.84759 42.6035L22.0759 71.2663ZM8.76844 71.2712L13.8522 73.7904L28.0608 45.1179L22.9771 42.5987L8.76844 71.2712ZM13.8474 73.788C6.45336 70.1208 3.42859 61.1645 7.0665 53.7694L35.7802 67.8947C39.9199 59.4795 36.4797 49.2934 28.0657 45.1203L13.8474 73.788ZM7.17785 53.5474C9.77571 48.4671 14.971 45.4037 20.4979 45.4037V77.4037C26.7775 77.4037 32.7008 73.9208 35.6688 68.1167L7.17785 53.5474Z" fill="#0F0F10" mask="url(#path-1-inside-1_1102_4774)"/>
</svg>
