<svg width="72" height="72" viewBox="0 0 72 72" fill="none" xmlns="http://www.w3.org/2000/svg">
<path d="M20.9067 46.3949C21.362 46.2053 21.8728 45.8982 22.4337 45.4867C22.2432 45.9462 21.9351 46.4115 21.6049 46.885C21.557 46.9536 21.5087 47.0224 21.4603 47.0913C21.075 47.6397 20.6827 48.198 20.4794 48.7404L20.479 48.7403L20.476 48.7504C20.3123 49.3021 20.3824 49.729 20.6361 50.0427C20.8822 50.3468 21.2785 50.5152 21.7045 50.6095C22.4662 50.7781 23.4119 50.727 24.032 50.6935C24.0592 50.6921 24.0858 50.6906 24.1117 50.6892C24.6194 53.0131 24.3839 55.8903 23.9134 58.7192C23.6137 60.5217 23.2222 62.2874 22.8707 63.8724C22.6601 64.8221 22.4639 65.7069 22.3105 66.4958C21.9677 68.0198 22.3269 69.0378 23.05 69.6156C23.7619 70.1846 24.787 70.2932 25.7132 70.0924L25.7144 70.0921C26.2358 69.9746 26.6947 69.7201 27.1326 69.4741L27.1619 69.4576C27.593 69.2154 28.0049 68.9839 28.4639 68.8638C29.3252 68.7316 30.0771 69.0325 30.8396 69.4315C30.9955 69.513 31.1524 69.5992 31.311 69.6862C31.9152 70.0179 32.5425 70.3622 33.219 70.5121C33.9111 70.7581 34.677 70.5255 35.3998 70.1125C36.1304 69.6951 36.8506 69.074 37.465 68.49L37.465 68.49L37.4686 68.4864L37.5217 68.4324C38.2851 67.656 38.9722 66.9571 39.4218 66.2455C39.8861 65.5107 40.1054 64.7499 39.9009 63.8627C39.8226 63.4545 39.6852 63.0714 39.5433 62.7156C39.4982 62.6026 39.4531 62.4933 39.4093 62.387C39.3127 62.153 39.2221 61.9333 39.1505 61.7196C39.0471 61.411 38.9919 61.1375 39.0187 60.8879C39.0447 60.6459 39.1491 60.4146 39.3888 60.1884C40.4958 59.3055 41.4261 58.6634 42.1726 58.1482C42.3061 58.056 42.4337 57.968 42.5554 57.8833C42.956 57.6046 43.2956 57.3605 43.5675 57.1304C43.8389 56.9006 44.0508 56.6781 44.1895 56.4397C44.3304 56.1976 44.3933 55.9433 44.3732 55.6574C44.3533 55.3757 44.2533 55.0708 44.0819 54.7235C43.7413 54.0335 43.0972 53.1348 42.1447 51.8575C41.7019 51.069 41.6736 50.4481 41.8716 49.893C42.0751 49.323 42.5229 48.8036 43.0772 48.2355C44.491 46.8079 45.1321 45.6991 45.2729 44.8037C45.4162 43.8923 45.0378 43.2303 44.4987 42.7173C44.0922 42.3305 43.5807 42.0169 43.1275 41.7391C42.9907 41.6552 42.8593 41.5746 42.7376 41.4963C42.4689 41.3232 42.2502 41.1631 42.106 41.0011C41.9643 40.8419 41.9086 40.6972 41.9304 40.5469L41.9325 40.5328L41.9318 40.5186C41.9095 40.023 41.9262 39.5714 41.944 39.1469C41.945 39.1228 41.946 39.0988 41.947 39.0749C41.9637 38.6792 41.9796 38.3031 41.9607 37.9445C41.9248 37.2618 41.7626 36.6355 41.2505 36.0061C43.0525 35.9286 44.4759 35.3192 45.4169 34.4983C46.4088 33.6328 46.8786 32.5155 46.6436 31.5435C46.5206 30.9826 46.1894 30.4731 45.8996 30.0272L45.8812 29.9989C45.7313 29.7681 45.5941 29.5555 45.4929 29.353C45.3934 29.1542 45.3353 28.9777 45.3302 28.8171C45.3523 28.6324 45.4582 28.4937 45.6207 28.3544C45.6953 28.2904 45.7771 28.2302 45.8647 28.1658C45.875 28.1582 45.8853 28.1506 45.8958 28.1429C45.9904 28.0732 46.0905 27.9982 46.1818 27.9144C46.8626 27.43 47.1442 26.64 47.2241 25.7294C47.3043 24.8154 47.184 23.7493 47.0339 22.6809C47.0024 22.4566 46.9696 22.2322 46.9369 22.0087C46.8129 21.1611 46.6911 20.3279 46.6505 19.5674C46.5991 18.6025 46.6818 17.7922 47.0293 17.238L47.0346 17.2296L47.0387 17.2205C47.1365 17.0062 47.3203 16.7753 47.5772 16.5287C47.8328 16.2834 48.153 16.0299 48.5141 15.769C48.9572 15.4488 49.4519 15.1242 49.9572 14.7927C50.2803 14.5807 50.6078 14.3659 50.9288 14.1476C51.743 13.5939 52.5106 13.0209 53.0038 12.4409C53.4947 11.8636 53.7472 11.2363 53.4316 10.6034C53.0448 9.62588 52.3139 9.0567 51.6692 8.55698C51.0104 8.04636 50.4653 7.62196 50.3157 6.9297L50.3141 6.92253L50.3119 6.91554C50.0162 5.99469 49.7308 5.35571 49.3191 4.87868C48.9042 4.39809 48.3729 4.09511 47.6136 3.82079L47.6136 3.82061L47.6062 3.81836C46.2561 3.40789 45.2462 3.33345 44.4537 3.44906C43.6588 3.56503 43.0942 3.8706 42.6344 4.20021C42.448 4.33384 42.2774 4.47252 42.1184 4.60182C42.0832 4.63047 42.0485 4.65867 42.0144 4.68625C41.8237 4.84018 41.649 4.97506 41.47 5.07826C41.1231 5.27823 40.7573 5.36171 40.2357 5.18607L40.2354 5.186C39.9716 5.09763 39.7185 4.98688 39.4586 4.87309C39.4074 4.8507 39.356 4.8282 39.3042 4.80572C38.9921 4.67039 38.6685 4.53765 38.3213 4.45255L38.3199 4.45221C37.1285 4.17293 35.9795 4.43211 34.9055 4.69678C34.9481 4.49 34.991 4.29585 35.0313 4.11318C35.0369 4.08781 35.0425 4.06266 35.048 4.03772C35.1072 3.76911 35.1603 3.52413 35.1959 3.30523C35.2655 2.87801 35.2788 2.50239 35.0945 2.22442L35.0884 2.21523L35.081 2.20702C34.7369 1.82415 34.2113 1.59761 33.6104 1.48713C33.0075 1.37628 32.3129 1.3792 31.6103 1.46916C30.2106 1.64835 28.7439 2.17783 27.8696 2.88791C26.5125 3.88731 26.3261 5.407 26.4941 6.90505C26.5783 7.65578 26.7525 8.41219 26.9201 9.10961C26.9365 9.17793 26.9529 9.24563 26.9691 9.31266C27.1192 9.9346 27.2555 10.4992 27.3133 10.9749L27.3132 10.9749L27.3136 10.9773C27.6249 13.2318 27.8588 17.2722 27.2504 20.4569C27.0672 21.315 26.8719 21.9126 26.5098 22.4367C24.898 24.3623 24.5458 25.4413 24.56 26.3729C24.5648 26.6903 24.6134 26.9935 24.6615 27.2942C24.6818 27.4209 24.702 27.5471 24.7189 27.6738C24.7762 28.1051 24.8018 28.5759 24.6858 29.1758C24.1595 30.4687 23.6055 31.787 23.0031 33.1039L23.0031 33.1038L23.0017 33.1071C22.2139 34.9415 21.499 35.8479 20.8693 36.493C20.7017 36.6647 20.5365 36.8209 20.3752 36.9734C19.9363 37.3882 19.5263 37.7757 19.1757 38.3747L19.1706 38.3834L19.1667 38.3927C18.6685 39.585 18.585 40.9862 18.494 42.5139C18.482 42.7145 18.4699 42.9173 18.4567 43.1222C18.3913 44.0979 18.4381 44.8625 18.5974 45.4242C18.7571 45.9874 19.037 46.3676 19.4502 46.531C19.8571 46.692 20.3524 46.6257 20.9067 46.3949ZM21.3707 44.1088C20.9806 44.4045 20.598 44.6946 20.2108 44.8566C20.1229 43.9819 20.1271 42.6026 20.2652 41.3436C20.3393 40.6674 20.4514 40.0326 20.6059 39.5329C20.6831 39.2831 20.7696 39.0714 20.8646 38.9066C20.9604 38.7404 21.0589 38.6326 21.1549 38.5761L21.1656 38.5698L21.1752 38.5618C23.5929 36.5367 24.7562 33.5733 25.8789 30.7134C26.0444 30.2917 26.2091 29.8722 26.3768 29.4584L26.381 29.4479L26.3836 29.4369C26.5594 28.7012 26.4661 28.0411 26.3804 27.4351L26.3779 27.4178C26.2906 26.8003 26.2158 26.2461 26.3937 25.6744C26.5441 25.2111 26.7957 24.8397 27.0857 24.4713C27.1653 24.3702 27.2487 24.2684 27.3337 24.1646C27.554 23.8955 27.785 23.6135 27.9884 23.2974C28.5637 22.41 28.8977 21.1503 29.0892 19.7978C29.2811 18.4419 29.332 16.9755 29.3301 15.6626C29.363 12.4479 28.8783 10.0996 28.5188 8.35742C28.4796 8.16747 28.4418 7.98472 28.4065 7.80885C28.2256 6.91015 28.1093 6.20769 28.1537 5.63615C28.1972 5.07683 28.3942 4.64891 28.8475 4.29024L28.8477 4.29006C29.4703 3.79547 30.3445 3.43622 31.2262 3.24933C32.0458 3.07561 32.8531 3.05476 33.4532 3.19941C33.1702 4.40577 33.0285 5.21242 33.0307 5.73377C33.0319 6.00414 33.0713 6.21985 33.1683 6.37743C33.2715 6.54515 33.4274 6.6278 33.6109 6.65352C33.7858 6.67803 33.9908 6.65205 34.2129 6.60609C34.4005 6.56727 34.6131 6.51123 34.8448 6.45013C34.8895 6.43833 34.935 6.42634 34.9811 6.41426C35.555 6.26387 36.2557 6.09166 37.0822 6.03648L37.0848 6.03625C37.5389 5.99783 37.9523 6.10362 38.3669 6.26139C38.5466 6.32976 38.7238 6.40676 38.9051 6.48552C38.9337 6.49799 38.9625 6.51049 38.9914 6.52302C39.2015 6.61402 39.4171 6.70537 39.6395 6.78159L39.6395 6.78164L39.6435 6.7829C40.3209 6.99402 40.882 7.0207 41.3648 6.9304C41.8471 6.84019 42.241 6.63512 42.5858 6.39801C42.808 6.2452 43.0183 6.07234 43.216 5.90976C43.3186 5.8255 43.4177 5.74399 43.5134 5.66947C43.7993 5.44688 44.0688 5.27354 44.3661 5.19849C45.6654 5.08099 46.5309 5.18036 47.1261 5.4051C47.7161 5.6279 48.0498 5.97736 48.2808 6.38553C48.4543 6.6922 48.5674 7.02458 48.6857 7.37257C48.7297 7.50174 48.7744 7.63307 48.8231 7.76604C48.9992 8.24599 49.2243 8.72839 49.6624 9.10785C49.8562 9.29085 50.0765 9.46792 50.2987 9.64152C50.3541 9.68477 50.4095 9.72775 50.4647 9.77058C50.6338 9.9018 50.8013 10.0317 50.961 10.1644C51.3576 10.4939 51.6766 10.8178 51.8209 11.1654C50.6428 12.4076 49.5288 13.1066 48.5267 13.7265L48.4617 13.7668C47.4706 14.3798 46.5761 14.933 45.8707 15.8808C45.2806 16.6284 45.0316 17.5751 44.963 18.5847C44.8944 19.595 45.0055 20.6827 45.1477 21.7224C45.191 22.0394 45.2371 22.3512 45.2821 22.6552C45.3855 23.3548 45.4828 24.0132 45.5266 24.5992C45.5579 25.0179 45.561 25.3914 45.5207 25.7086C45.4814 26.0184 45.402 26.2641 45.2763 26.4448C45.1729 26.5327 45.0623 26.6212 44.95 26.7112C44.741 26.8785 44.5259 27.0507 44.3401 27.2321C44.0413 27.5237 43.7873 27.8649 43.6825 28.3175L43.6823 28.3186C43.4703 29.2686 43.9066 30.0655 44.3183 30.7137C44.371 30.7966 44.4229 30.8766 44.4732 30.954C44.6244 31.187 44.761 31.3973 44.8592 31.5974C44.9883 31.8602 45.0309 32.0672 44.9716 32.2457C44.2534 33.8633 42.6428 34.1985 41.1331 34.3094C40.8576 34.3296 40.5893 34.3422 40.3318 34.3543C40.2377 34.3587 40.145 34.363 40.054 34.3676C39.7166 34.3848 39.4012 34.4058 39.1311 34.4494C38.8637 34.4926 38.6227 34.5605 38.4451 34.6826C38.261 34.8093 38.1504 34.9915 38.1434 35.2353C38.0822 35.5808 38.2276 35.9535 38.5654 36.1567L38.5759 36.163L38.5871 36.1675C39.4035 36.4934 39.832 36.8856 40.0567 37.3074C40.2833 37.7328 40.3156 38.2113 40.2917 38.7396C40.2841 38.9079 40.2703 39.0837 40.2563 39.2638C40.2274 39.6346 40.197 40.0236 40.2155 40.4024C40.2436 40.9778 40.3828 41.5612 40.8068 42.1123L40.8064 42.1126L40.8146 42.1217C41.24 42.5904 41.7272 42.9137 42.1701 43.1783C42.2775 43.2425 42.3811 43.3027 42.4801 43.3601C42.798 43.5447 43.0689 43.702 43.27 43.879C43.3981 43.9918 43.4878 44.1049 43.5391 44.2272C43.5895 44.3476 43.6069 44.4869 43.5748 44.6604C43.5089 45.0167 43.2365 45.5078 42.6279 46.2262C41.2671 47.5071 40.5345 48.6039 40.2245 49.5717C39.9121 50.5468 40.033 51.3782 40.3512 52.1127C40.6562 52.8167 41.1437 53.4332 41.591 53.9988L41.6354 54.055C42.0791 54.6164 42.4684 55.1208 42.6424 55.6318C42.1659 56.1381 41.5358 56.5784 40.8719 57.012C40.7431 57.0961 40.613 57.18 40.4826 57.264C39.9202 57.6266 39.3532 57.9922 38.8723 58.3892C38.0711 58.9904 37.6306 59.5912 37.4312 60.187C37.2313 60.7838 37.2794 61.3574 37.4217 61.8913C37.5333 62.3102 37.7061 62.7144 37.8654 63.0868C37.9072 63.1846 37.948 63.2801 37.9865 63.3731C38.1768 63.8321 38.3082 64.2234 38.2798 64.5645C38.2458 64.931 38.0864 65.2491 37.8485 65.5729C37.6835 65.7974 37.4887 66.0151 37.2775 66.2511C37.1797 66.3604 37.0785 66.4735 36.975 66.5931C36.4434 67.1269 35.7466 67.8253 35.0626 68.314C34.7195 68.5591 34.3888 68.7446 34.0913 68.8325C33.7953 68.9199 33.5497 68.9061 33.3534 68.7805L33.3387 68.771L33.3221 68.7653C32.9868 68.6478 32.6771 68.4953 32.3664 68.3299C32.2673 68.2772 32.1673 68.2226 32.0662 68.1675C31.8549 68.0523 31.6388 67.9345 31.4161 67.8248C30.3612 67.2388 29.4595 67.076 28.6706 67.1398C27.884 67.2034 27.2223 67.4916 26.6492 67.7844C26.5141 67.8534 26.3885 67.9202 26.2675 67.9846C26.1242 68.0608 25.9873 68.1336 25.8483 68.2028C25.5986 68.3272 25.3707 68.4248 25.1548 68.4768C24.9408 68.5282 24.743 68.5338 24.5507 68.4779C24.3655 68.424 24.1739 68.3098 23.9718 68.1034C23.8263 67.6327 23.8869 67.1065 24.0169 66.5558C24.0719 66.323 24.1379 66.0909 24.2038 65.8593C24.2174 65.8117 24.2309 65.7642 24.2443 65.7166C24.3225 65.4399 24.3971 65.1641 24.4438 64.9008L24.4442 64.8982C24.6165 63.8193 24.8357 62.7095 25.0587 61.5808C25.0929 61.4081 25.1271 61.2348 25.1612 61.0612C25.4182 59.7549 25.671 58.4275 25.8512 57.1053C26.2114 54.4624 26.2837 51.8265 25.5121 49.4002L25.5049 49.3778L25.4913 49.3587C25.3222 49.1212 25.0488 49.0139 24.7563 48.968C24.463 48.922 24.1236 48.9335 23.7895 48.9571C23.6688 48.9657 23.5495 48.9757 23.4322 48.9856C23.2176 49.0037 23.0096 49.0212 22.812 49.0279C22.5921 49.0354 22.4024 49.0283 22.25 48.998C22.3918 48.7449 22.5712 48.4767 22.767 48.1927C22.8132 48.1256 22.8604 48.0577 22.9081 47.9889C23.1033 47.7077 23.3074 47.4137 23.495 47.1129C23.9596 46.368 24.3471 45.546 24.2582 44.6978C24.2303 44.3699 24.0598 44.0111 23.8094 43.7432C23.5583 43.4746 23.2062 43.2769 22.8099 43.3198L22.8075 43.32C22.5698 43.3496 22.3354 43.4545 22.1088 43.5892C21.8816 43.7243 21.6511 43.8964 21.4228 44.0693C21.4054 44.0825 21.388 44.0957 21.3707 44.1088Z" fill="#0F0F10" stroke="#0F0F10" stroke-width="0.3"/>
</svg>
