<svg width="72" height="72" viewBox="0 0 72 72" fill="none" xmlns="http://www.w3.org/2000/svg">
<mask id="path-1-inside-1_165_3426" fill="white">
<path d="M37.4718 29.1426C37.7173 29.1426 37.9527 29.0451 38.1262 28.8716C38.2998 28.698 38.3973 28.4626 38.3973 28.2172C38.3973 27.9717 38.2998 27.7363 38.1262 27.5628C37.9527 27.3892 37.7173 27.2917 37.4718 27.2917H36.9229V26.5392C36.9229 26.2938 36.8254 26.0584 36.6519 25.8848C36.4783 25.7113 36.2429 25.6138 35.9975 25.6138C35.752 25.6138 35.5166 25.7113 35.3431 25.8848C35.1695 26.0584 35.072 26.2938 35.072 26.5392V27.3097C34.6682 27.3521 34.2943 27.5422 34.0222 27.8436C33.75 28.1449 33.5988 28.5362 33.5977 28.9422V30.0813C33.5981 30.5189 33.7721 30.9384 34.0815 31.2479C34.391 31.5573 34.8105 31.7313 35.2481 31.7318H36.5464V32.4721H34.5231C34.2777 32.4721 34.0423 32.5696 33.8687 32.7432C33.6952 32.9167 33.5977 33.1521 33.5977 33.3976C33.5977 33.643 33.6952 33.8784 33.8687 34.0519C34.0423 34.2255 34.2777 34.323 34.5231 34.323H35.072V35.0734C35.072 35.3188 35.1695 35.5542 35.3431 35.7278C35.5166 35.9013 35.752 35.9988 35.9975 35.9988C36.2429 35.9988 36.4783 35.9013 36.6519 35.7278C36.8254 35.5542 36.9229 35.3188 36.9229 35.0734V34.3029C37.3266 34.2603 37.7004 34.0701 37.9725 33.7688C38.2446 33.4675 38.3959 33.0764 38.3973 32.6704V31.5303C38.3967 31.0927 38.2227 30.6732 37.9133 30.3638C37.6038 30.0544 37.1844 29.8804 36.7468 29.8798H35.4485V29.1394L37.4718 29.1426Z"/>
</mask>
<path d="M37.4718 29.1426C37.7173 29.1426 37.9527 29.0451 38.1262 28.8716C38.2998 28.698 38.3973 28.4626 38.3973 28.2172C38.3973 27.9717 38.2998 27.7363 38.1262 27.5628C37.9527 27.3892 37.7173 27.2917 37.4718 27.2917H36.9229V26.5392C36.9229 26.2938 36.8254 26.0584 36.6519 25.8848C36.4783 25.7113 36.2429 25.6138 35.9975 25.6138C35.752 25.6138 35.5166 25.7113 35.3431 25.8848C35.1695 26.0584 35.072 26.2938 35.072 26.5392V27.3097C34.6682 27.3521 34.2943 27.5422 34.0222 27.8436C33.75 28.1449 33.5988 28.5362 33.5977 28.9422V30.0813C33.5981 30.5189 33.7721 30.9384 34.0815 31.2479C34.391 31.5573 34.8105 31.7313 35.2481 31.7318H36.5464V32.4721H34.5231C34.2777 32.4721 34.0423 32.5696 33.8687 32.7432C33.6952 32.9167 33.5977 33.1521 33.5977 33.3976C33.5977 33.643 33.6952 33.8784 33.8687 34.0519C34.0423 34.2255 34.2777 34.323 34.5231 34.323H35.072V35.0734C35.072 35.3188 35.1695 35.5542 35.3431 35.7278C35.5166 35.9013 35.752 35.9988 35.9975 35.9988C36.2429 35.9988 36.4783 35.9013 36.6519 35.7278C36.8254 35.5542 36.9229 35.3188 36.9229 35.0734V34.3029C37.3266 34.2603 37.7004 34.0701 37.9725 33.7688C38.2446 33.4675 38.3959 33.0764 38.3973 32.6704V31.5303C38.3967 31.0927 38.2227 30.6732 37.9133 30.3638C37.6038 30.0544 37.1844 29.8804 36.7468 29.8798H35.4485V29.1394L37.4718 29.1426Z" fill="#0F0F10"/>
<path d="M37.4718 29.1426L37.4656 33.1426H37.4718V29.1426ZM36.9229 27.2917H32.9229V31.2917H36.9229V27.2917ZM36.9229 26.5392H32.9229H36.9229ZM35.072 27.3097L35.4896 31.2879L39.072 30.9118V27.3097H35.072ZM33.5977 28.9422L29.5977 28.9306V28.9422H33.5977ZM33.5977 30.0813H29.5977L29.5977 30.0851L33.5977 30.0813ZM35.2481 31.7318L35.2443 35.7318H35.2481V31.7318ZM36.5464 31.7318H40.5464V27.7318H36.5464V31.7318ZM36.5464 32.4721V36.4721H40.5464V32.4721H36.5464ZM34.5231 32.4721V28.4721V32.4721ZM35.072 34.323H39.072V30.323H35.072V34.323ZM35.072 35.0734H31.072H35.072ZM36.9229 35.0734H32.9229H36.9229ZM36.9229 34.3029L36.503 30.325L32.9229 30.7029V34.3029H36.9229ZM38.3973 32.6704L42.3973 32.6843V32.6704H38.3973ZM38.3973 31.5303H42.3973L42.3973 31.5252L38.3973 31.5303ZM36.7468 29.8798L36.7519 25.8798H36.7468V29.8798ZM35.4485 29.8798H31.4485V33.8798H35.4485V29.8798ZM35.4485 29.1394L35.4548 25.1395L31.4485 25.1332V29.1394H35.4485ZM37.4718 33.1426C38.7781 33.1426 40.0309 32.6237 40.9546 31.7L35.2978 26.0431C35.8744 25.4665 36.6564 25.1426 37.4718 25.1426V33.1426ZM40.9546 31.7C41.8783 30.7763 42.3973 29.5235 42.3973 28.2172H34.3973C34.3973 27.4017 34.7212 26.6197 35.2978 26.0431L40.9546 31.7ZM42.3973 28.2172C42.3973 26.9108 41.8783 25.658 40.9546 24.7344L35.2978 30.3912C34.7212 29.8146 34.3973 29.0326 34.3973 28.2172H42.3973ZM40.9546 24.7344C40.031 23.8107 38.7782 23.2917 37.4718 23.2917V31.2917C36.6564 31.2917 35.8744 30.9678 35.2978 30.3912L40.9546 24.7344ZM37.4718 23.2917H36.9229V31.2917H37.4718V23.2917ZM40.9229 27.2917V26.5392H32.9229V27.2917H40.9229ZM40.9229 26.5392C40.9229 25.2329 40.404 23.9801 39.4803 23.0564L33.8234 28.7133C33.2469 28.1367 32.9229 27.3547 32.9229 26.5392H40.9229ZM39.4803 23.0564C38.5566 22.1327 37.3038 21.6138 35.9975 21.6138V29.6138C35.182 29.6138 34.4 29.2898 33.8234 28.7133L39.4803 23.0564ZM35.9975 21.6138C34.6911 21.6138 33.4383 22.1327 32.5147 23.0564L38.1715 28.7133C37.5949 29.2898 36.8129 29.6138 35.9975 29.6138V21.6138ZM32.5147 23.0564C31.591 23.9801 31.072 25.2329 31.072 26.5392H39.072C39.072 27.3546 38.7481 28.1367 38.1715 28.7133L32.5147 23.0564ZM31.072 26.5392V27.3097H39.072V26.5392H31.072ZM34.6544 23.3316C33.2694 23.477 31.987 24.129 31.0536 25.1626L36.9907 30.5246C36.6016 30.9554 36.067 31.2273 35.4896 31.2879L34.6544 23.3316ZM31.0536 25.1626C30.1202 26.1961 29.6017 27.538 29.5977 28.9306L37.5976 28.9538C37.596 29.5343 37.3798 30.0937 36.9907 30.5246L31.0536 25.1626ZM29.5977 28.9422V30.0813H37.5977V28.9422H29.5977ZM29.5977 30.0851C29.5991 31.5823 30.1945 33.0177 31.2531 34.0763L36.91 28.4195C37.3497 28.8592 37.5971 29.4555 37.5977 30.0774L29.5977 30.0851ZM31.2531 34.0763C32.3117 35.1349 33.7471 35.7303 35.2443 35.7318L35.252 27.7318C35.8739 27.7324 36.4702 27.9797 36.91 28.4195L31.2531 34.0763ZM35.2481 35.7318H36.5464V27.7318H35.2481V35.7318ZM32.5464 31.7318V32.4721H40.5464V31.7318H32.5464ZM36.5464 28.4721H34.5231V36.4721H36.5464V28.4721ZM34.5231 28.4721C33.2168 28.4721 31.964 28.991 31.0403 29.9147L36.6971 35.5716C36.1205 36.1482 35.3385 36.4721 34.5231 36.4721L34.5231 28.4721ZM31.0403 29.9147C30.1166 30.8384 29.5977 32.0912 29.5977 33.3976H37.5977C37.5977 34.213 37.2737 34.995 36.6971 35.5716L31.0403 29.9147ZM29.5977 33.3976C29.5977 34.7039 30.1166 35.9567 31.0403 36.8804L36.6971 31.2235C37.2737 31.8001 37.5977 32.5821 37.5977 33.3976H29.5977ZM31.0403 36.8804C31.964 37.8041 33.2168 38.323 34.5231 38.323V30.323C35.3385 30.323 36.1205 30.6469 36.6971 31.2235L31.0403 36.8804ZM34.5231 38.323H35.072V30.323H34.5231V38.323ZM31.072 34.323V35.0734H39.072V34.323H31.072ZM31.072 35.0734C31.072 36.3797 31.5909 37.6325 32.5147 38.5562L38.1715 32.8994C38.7481 33.476 39.072 34.258 39.072 35.0734H31.072ZM32.5147 38.5562C33.4383 39.4799 34.6911 39.9988 35.9975 39.9988V31.9988C36.8129 31.9988 37.5949 32.3228 38.1715 32.8994L32.5147 38.5562ZM35.9975 39.9988C37.3038 39.9988 38.5566 39.4799 39.4803 38.5562L33.8234 32.8994C34.4 32.3228 35.182 31.9988 35.9975 31.9988V39.9988ZM39.4803 38.5562C40.404 37.6325 40.9229 36.3797 40.9229 35.0734H32.9229C32.9229 34.258 33.2468 33.4759 33.8234 32.8994L39.4803 38.5562ZM40.9229 35.0734V34.3029H32.9229V35.0734H40.9229ZM37.3428 38.2808C38.7268 38.1347 40.0082 37.4827 40.941 36.4498L35.004 31.0878C35.3926 30.6575 35.9264 30.3859 36.503 30.325L37.3428 38.2808ZM40.941 36.4498C41.8739 35.417 42.3924 34.076 42.3973 32.6843L34.3973 32.6566C34.3993 32.0767 34.6154 31.5181 35.004 31.0878L40.941 36.4498ZM42.3973 32.6704V31.5303H34.3973V32.6704H42.3973ZM42.3973 31.5252C42.3954 30.0285 41.8 28.5937 40.7417 27.5354L35.0848 33.1923C34.6453 32.7528 34.3981 32.1569 34.3973 31.5354L42.3973 31.5252ZM40.7417 27.5354C39.6834 26.4771 38.2486 25.8817 36.7519 25.8798L36.7417 33.8798C36.1202 33.879 35.5243 33.6318 35.0848 33.1923L40.7417 27.5354ZM36.7468 25.8798H35.4485V33.8798H36.7468V25.8798ZM39.4485 29.8798V29.1394H31.4485V29.8798H39.4485ZM35.4423 33.1394L37.4656 33.1426L37.4781 25.1426L35.4548 25.1395L35.4423 33.1394Z" fill="#0F0F10" mask="url(#path-1-inside-1_165_3426)"/>
<mask id="path-3-inside-2_165_3426" fill="white">
<path d="M35.9993 22.3672C33.8383 22.363 31.7581 23.1879 30.1872 24.6719C28.6163 26.1559 27.6744 28.1859 27.5557 30.3436C27.437 32.5013 28.1505 34.6224 29.5491 36.2698C30.9477 37.9171 32.925 38.9652 35.0734 39.1981C35.3807 39.2336 35.6899 39.2513 35.9993 39.251C37.1134 39.2598 38.2182 39.048 39.2501 38.6278C40.2819 38.2075 41.2203 37.5872 42.0113 36.8025C42.8022 36.0178 43.4299 35.0843 43.8583 34.0559C44.2867 33.0274 44.5073 31.9243 44.5073 30.8102C44.5073 29.696 44.2867 28.5929 43.8583 27.5645C43.4299 26.536 42.8022 25.6025 42.0113 24.8178C41.2203 24.0331 40.2819 23.4128 39.2501 22.9926C38.2182 22.5723 37.1134 22.3605 35.9993 22.3693V22.3672ZM35.9993 37.4001C35.7599 37.4005 35.5206 37.3867 35.2828 37.3589C33.5811 37.1673 32.0214 36.3193 30.9354 34.9952C29.8495 33.6712 29.323 31.9757 29.4681 30.2695C29.6131 28.5632 30.4183 26.9809 31.7121 25.8592C33.006 24.7375 34.6865 24.1649 36.3961 24.2634C38.1057 24.3618 39.7094 25.1234 40.866 26.3861C42.0226 27.6489 42.6408 29.3131 42.5891 31.0248C42.5374 32.7364 41.8199 34.3603 40.5892 35.551C39.3585 36.7416 37.7117 37.4051 35.9993 37.4001Z"/>
</mask>
<path d="M35.9993 22.3672C33.8383 22.363 31.7581 23.1879 30.1872 24.6719C28.6163 26.1559 27.6744 28.1859 27.5557 30.3436C27.437 32.5013 28.1505 34.6224 29.5491 36.2698C30.9477 37.9171 32.925 38.9652 35.0734 39.1981C35.3807 39.2336 35.6899 39.2513 35.9993 39.251C37.1134 39.2598 38.2182 39.048 39.2501 38.6278C40.2819 38.2075 41.2203 37.5872 42.0113 36.8025C42.8022 36.0178 43.4299 35.0843 43.8583 34.0559C44.2867 33.0274 44.5073 31.9243 44.5073 30.8102C44.5073 29.696 44.2867 28.5929 43.8583 27.5645C43.4299 26.536 42.8022 25.6025 42.0113 24.8178C41.2203 24.0331 40.2819 23.4128 39.2501 22.9926C38.2182 22.5723 37.1134 22.3605 35.9993 22.3693V22.3672ZM35.9993 37.4001C35.7599 37.4005 35.5206 37.3867 35.2828 37.3589C33.5811 37.1673 32.0214 36.3193 30.9354 34.9952C29.8495 33.6712 29.323 31.9757 29.4681 30.2695C29.6131 28.5632 30.4183 26.9809 31.7121 25.8592C33.006 24.7375 34.6865 24.1649 36.3961 24.2634C38.1057 24.3618 39.7094 25.1234 40.866 26.3861C42.0226 27.6489 42.6408 29.3131 42.5891 31.0248C42.5374 32.7364 41.8199 34.3603 40.5892 35.551C39.3585 36.7416 37.7117 37.4051 35.9993 37.4001Z" fill="#0F0F10"/>
<path d="M35.9993 22.3672H39.9993V18.3749L36.0071 18.3672L35.9993 22.3672ZM35.0734 39.1981L35.5321 35.2245L35.5183 35.2229L35.5045 35.2214L35.0734 39.1981ZM35.9993 39.251L36.031 35.2511L36.0135 35.251L35.996 35.251L35.9993 39.251ZM35.9993 22.3693H31.9993V26.4011L36.031 26.3692L35.9993 22.3693ZM35.9993 37.4001L36.0109 33.4001L36.002 33.4001L35.9932 33.4001L35.9993 37.4001ZM35.2828 37.3589L35.7479 33.386L35.7391 33.385L35.7303 33.384L35.2828 37.3589ZM36.0071 18.3672C32.8219 18.3611 29.7557 19.5769 27.4403 21.7642L32.934 27.5796C33.7604 26.7989 34.8548 26.365 35.9916 26.3672L36.0071 18.3672ZM27.4403 21.7642C25.1249 23.9514 23.7367 26.9435 23.5618 30.1239L31.5497 30.5633C31.6121 29.4282 32.1076 28.3603 32.934 27.5796L27.4403 21.7642ZM23.5618 30.1239C23.3868 33.3042 24.4384 36.4305 26.4999 38.8586L32.5983 33.6809C31.8626 32.8143 31.4872 31.6985 31.5497 30.5633L23.5618 30.1239ZM26.4999 38.8586C28.5613 41.2867 31.4756 42.8315 34.6423 43.1748L35.5045 35.2214C34.3743 35.0989 33.3341 34.5475 32.5983 33.6809L26.4999 38.8586ZM34.6146 43.1717C35.0754 43.2249 35.5389 43.2514 36.0027 43.251L35.996 35.251C35.841 35.2511 35.6861 35.2423 35.5321 35.2245L34.6146 43.1717ZM35.9677 43.2509C37.6097 43.2639 39.2381 42.9517 40.7588 42.3323L37.7413 34.9232C37.1984 35.1443 36.6172 35.2558 36.031 35.2511L35.9677 43.2509ZM40.7588 42.3323C42.2796 41.7129 43.6628 40.7986 44.8285 39.6421L39.194 33.9629C38.7779 34.3758 38.2842 34.7021 37.7413 34.9232L40.7588 42.3323ZM44.8285 39.6421C45.9942 38.4856 46.9194 37.1097 47.5508 35.5939L40.1658 32.5178C39.9404 33.0589 39.6102 33.5501 39.194 33.9629L44.8285 39.6421ZM47.5508 35.5939C48.1822 34.0781 48.5073 32.4522 48.5073 30.8102H40.5073C40.5073 31.3963 40.3912 31.9767 40.1658 32.5178L47.5508 35.5939ZM48.5073 30.8102C48.5073 29.1681 48.1822 27.5423 47.5508 26.0264L40.1658 29.1025C40.3912 29.6436 40.5073 30.224 40.5073 30.8102H48.5073ZM47.5508 26.0264C46.9194 24.5106 45.9942 23.1347 44.8285 21.9782L39.194 27.6574C39.6102 28.0703 39.9404 28.5614 40.1658 29.1025L47.5508 26.0264ZM44.8285 21.9782C43.6628 20.8217 42.2796 19.9074 40.7588 19.288L37.7413 26.6971C38.2842 26.9182 38.7779 27.2446 39.194 27.6574L44.8285 21.9782ZM40.7588 19.288C39.2381 18.6686 37.6097 18.3564 35.9677 18.3694L36.031 26.3692C36.6172 26.3646 37.1984 26.476 37.7413 26.6971L40.7588 19.288ZM39.9993 22.3693V22.3672H31.9993V22.3693H39.9993ZM35.9932 33.4001C35.9112 33.4003 35.8293 33.3955 35.7479 33.386L34.8177 41.3317C35.2119 41.3779 35.6086 41.4007 36.0055 41.4001L35.9932 33.4001ZM35.7303 33.384C35.0641 33.309 34.4534 32.977 34.0282 32.4586L27.8427 37.5319C29.5894 39.6616 32.0982 41.0256 34.8352 41.3338L35.7303 33.384ZM34.0282 32.4586C33.603 31.9402 33.3969 31.2763 33.4537 30.6083L25.4825 29.9306C25.2491 32.6751 26.0959 35.4023 27.8427 37.5319L34.0282 32.4586ZM33.4537 30.6083C33.5105 29.9403 33.8257 29.3207 34.3323 28.8816L29.092 22.8368C27.0108 24.6411 25.7158 27.1862 25.4825 29.9306L33.4537 30.6083ZM34.3323 28.8816C34.8389 28.4424 35.4969 28.2182 36.1662 28.2567L36.626 20.27C33.8762 20.1117 31.1731 21.0326 29.092 22.8368L34.3323 28.8816ZM36.1662 28.2567C36.8356 28.2953 37.4634 28.5935 37.9163 29.0879L43.8157 23.6844C41.9553 21.6533 39.3758 20.4283 36.626 20.27L36.1662 28.2567ZM37.9163 29.0879C38.3691 29.5823 38.6112 30.2339 38.591 30.904L46.5873 31.1455C46.6705 28.3924 45.676 25.7155 43.8157 23.6844L37.9163 29.0879ZM38.591 30.904C38.5707 31.5742 38.2898 32.21 37.8079 32.6761L43.3705 38.4258C45.35 36.5106 46.5042 33.8986 46.5873 31.1455L38.591 30.904ZM37.8079 32.6761C37.3261 33.1423 36.6813 33.4021 36.0109 33.4001L35.9878 41.4001C38.7422 41.4081 41.3909 40.3409 43.3705 38.4258L37.8079 32.6761Z" fill="#0F0F10" mask="url(#path-3-inside-2_165_3426)"/>
<mask id="path-5-inside-3_165_3426" fill="white">
<path d="M55.0242 5H16.9773C15.9228 5.00126 14.9119 5.4207 14.1663 6.16631C13.4207 6.91193 13.0013 7.92284 13 8.9773V59.0291C13.0018 59.5816 13.1294 60.1264 13.3733 60.6223C13.6171 61.1181 13.9707 61.5518 14.4072 61.8905L20.7177 66.7499C20.8795 66.8746 21.0781 66.9422 21.2825 66.9422C21.4868 66.9422 21.6854 66.8746 21.8473 66.7499L28.639 61.5145L35.4338 66.7499C35.5958 66.8744 35.7944 66.9418 35.9986 66.9418C36.2029 66.9418 36.4014 66.8744 36.5634 66.7499L43.3551 61.5145L50.1526 66.7499C50.3145 66.8744 50.513 66.9419 50.7172 66.9419C50.9214 66.9419 51.1198 66.8744 51.2817 66.7499L57.5953 61.8884C58.0323 61.5499 58.3864 61.1162 58.6305 60.6202C58.8746 60.1243 59.0024 59.5792 59.0041 59.0264V8.9773C59.0029 7.92238 58.5831 6.91107 57.8369 6.16538C57.0907 5.41969 56.0791 5.00056 55.0242 5ZM57.1506 59.0291C57.1497 59.2986 57.0874 59.5643 56.9682 59.8061C56.8491 60.0479 56.6763 60.2592 56.4631 60.4241L50.7137 64.8509L43.9167 59.6155C43.7548 59.4911 43.5562 59.4236 43.3519 59.4236C43.1477 59.4236 42.9491 59.4911 42.7872 59.6155L35.9949 64.8509L29.2011 59.6155C29.0392 59.4908 28.8405 59.4231 28.6361 59.4231C28.4316 59.4231 28.233 59.4908 28.071 59.6155L21.2793 64.8509L15.5352 60.4246C15.3221 60.2596 15.1494 60.0481 15.0302 59.8063C14.9111 59.5644 14.8487 59.2986 14.8477 59.0291V8.9773C14.8484 8.41355 15.0727 7.8731 15.4713 7.47447C15.8699 7.07585 16.4104 6.85159 16.9741 6.85089H55.0242C55.5879 6.85159 56.1284 7.07585 56.527 7.47447C56.9256 7.8731 57.1499 8.41355 57.1506 8.9773V59.0291Z"/>
</mask>
<path d="M55.0242 5H16.9773C15.9228 5.00126 14.9119 5.4207 14.1663 6.16631C13.4207 6.91193 13.0013 7.92284 13 8.9773V59.0291C13.0018 59.5816 13.1294 60.1264 13.3733 60.6223C13.6171 61.1181 13.9707 61.5518 14.4072 61.8905L20.7177 66.7499C20.8795 66.8746 21.0781 66.9422 21.2825 66.9422C21.4868 66.9422 21.6854 66.8746 21.8473 66.7499L28.639 61.5145L35.4338 66.7499C35.5958 66.8744 35.7944 66.9418 35.9986 66.9418C36.2029 66.9418 36.4014 66.8744 36.5634 66.7499L43.3551 61.5145L50.1526 66.7499C50.3145 66.8744 50.513 66.9419 50.7172 66.9419C50.9214 66.9419 51.1198 66.8744 51.2817 66.7499L57.5953 61.8884C58.0323 61.5499 58.3864 61.1162 58.6305 60.6202C58.8746 60.1243 59.0024 59.5792 59.0041 59.0264V8.9773C59.0029 7.92238 58.5831 6.91107 57.8369 6.16538C57.0907 5.41969 56.0791 5.00056 55.0242 5ZM57.1506 59.0291C57.1497 59.2986 57.0874 59.5643 56.9682 59.8061C56.8491 60.0479 56.6763 60.2592 56.4631 60.4241L50.7137 64.8509L43.9167 59.6155C43.7548 59.4911 43.5562 59.4236 43.3519 59.4236C43.1477 59.4236 42.9491 59.4911 42.7872 59.6155L35.9949 64.8509L29.2011 59.6155C29.0392 59.4908 28.8405 59.4231 28.6361 59.4231C28.4316 59.4231 28.233 59.4908 28.071 59.6155L21.2793 64.8509L15.5352 60.4246C15.3221 60.2596 15.1494 60.0481 15.0302 59.8063C14.9111 59.5644 14.8487 59.2986 14.8477 59.0291V8.9773C14.8484 8.41355 15.0727 7.8731 15.4713 7.47447C15.8699 7.07585 16.4104 6.85159 16.9741 6.85089H55.0242C55.5879 6.85159 56.1284 7.07585 56.527 7.47447C56.9256 7.8731 57.1499 8.41355 57.1506 8.9773V59.0291Z" fill="#0F0F10"/>
<path d="M55.0242 5L55.0263 1H55.0242V5ZM16.9773 5V0.999997L16.9725 1L16.9773 5ZM13 8.9773L9 8.97252V8.9773H13ZM13 59.0291H8.99998L9.00002 59.0419L13 59.0291ZM14.4072 61.8905L11.955 65.0507L11.9609 65.0553L11.9667 65.0598L14.4072 61.8905ZM20.7177 66.7499L23.1588 63.5812L23.1582 63.5807L20.7177 66.7499ZM21.8473 66.7499L24.2884 69.9186L24.2893 69.9179L21.8473 66.7499ZM28.639 61.5145L31.0803 58.346L28.6384 56.4645L26.1969 58.3465L28.639 61.5145ZM35.4338 66.7499L32.9925 69.9185L32.9969 69.9219L35.4338 66.7499ZM36.5634 66.7499L39.0004 69.9219L39.0055 69.9179L36.5634 66.7499ZM43.3551 61.5145L45.7959 58.3455L43.3541 56.4649L40.9131 58.3465L43.3551 61.5145ZM50.1526 66.7499L47.7119 69.9189L47.714 69.9206L50.1526 66.7499ZM51.2817 66.7499L53.7203 69.9206L53.7221 69.9192L51.2817 66.7499ZM57.5953 61.8884L60.0357 65.0578L60.0449 65.0506L57.5953 61.8884ZM59.0041 59.0264L63.0041 59.0389V59.0264H59.0041ZM59.0041 8.9773H63.0041L63.0041 8.97252L59.0041 8.9773ZM57.1506 59.0291L61.1506 59.0417V59.0291H57.1506ZM56.4631 60.4241L58.9034 63.5935L58.9099 63.5884L56.4631 60.4241ZM50.7137 64.8509L48.2729 68.0198L50.7133 69.8996L53.154 68.0203L50.7137 64.8509ZM43.9167 59.6155L46.3576 56.4466L46.3537 56.4436L43.9167 59.6155ZM42.7872 59.6155L40.3502 56.4436L40.3452 56.4474L42.7872 59.6155ZM35.9949 64.8509L33.5533 68.0193L35.9952 69.901L38.4369 68.019L35.9949 64.8509ZM29.2011 59.6155L31.6427 56.4471L31.642 56.4466L29.2011 59.6155ZM28.071 59.6155L25.6301 56.4466L25.6289 56.4475L28.071 59.6155ZM21.2793 64.8509L18.8378 68.0193L21.2797 69.901L23.7214 68.0189L21.2793 64.8509ZM15.5352 60.4246L13.0861 63.5872L13.0937 63.5931L15.5352 60.4246ZM14.8477 59.0291H10.8477V59.0362L10.8477 59.0434L14.8477 59.0291ZM14.8477 8.9773L10.8477 8.97233V8.9773H14.8477ZM16.9741 6.85089V2.85089L16.9692 2.85089L16.9741 6.85089ZM55.0242 6.85089L55.0291 2.85089H55.0242V6.85089ZM57.1506 8.9773H61.1506L61.1506 8.97233L57.1506 8.9773ZM55.0242 1H16.9773V9H55.0242V1ZM16.9725 1C14.8589 1.00253 12.8325 1.8433 11.3379 3.33789L16.9947 8.99474C16.9914 8.9981 16.9868 8.99999 16.9821 9L16.9725 1ZM11.3379 3.33789C9.8433 4.83248 9.00253 6.85885 9 8.97252L17 8.98208C17 8.98683 16.9981 8.99138 16.9947 8.99474L11.3379 3.33789ZM9 8.9773V59.0291H17V8.9773H9ZM9.00002 59.0419C9.00375 60.2022 9.2718 61.3463 9.78382 62.3875L16.9627 58.8571C16.9871 58.9066 16.9998 58.961 17 59.0162L9.00002 59.0419ZM9.78382 62.3875C10.2958 63.4286 11.0383 64.3394 11.955 65.0507L16.8594 58.7304C16.903 58.7642 16.9383 58.8075 16.9627 58.8571L9.78382 62.3875ZM11.9667 65.0598L18.2772 69.9192L23.1582 63.5807L16.8477 58.7213L11.9667 65.0598ZM18.2765 69.9186C19.138 70.5823 20.1949 70.9422 21.2825 70.9422V62.9422C21.9613 62.9422 22.6211 63.1669 23.1588 63.5812L18.2765 69.9186ZM21.2825 70.9422C22.37 70.9422 23.4269 70.5823 24.2884 69.9186L19.4061 63.5812C19.9439 63.1669 20.6036 62.9422 21.2825 62.9422V70.9422ZM24.2893 69.9179L31.081 64.6826L26.1969 58.3465L19.4052 63.5819L24.2893 69.9179ZM26.1976 64.6831L32.9925 69.9185L37.8752 63.5813L31.0803 58.346L26.1976 64.6831ZM32.9969 69.9219C33.8577 70.5832 34.913 70.9418 35.9986 70.9418V62.9418C36.6757 62.9418 37.3339 63.1655 37.8708 63.578L32.9969 69.9219ZM35.9986 70.9418C37.0843 70.9418 38.1395 70.5833 39.0004 69.9219L34.1264 63.578C34.6634 63.1655 35.3215 62.9418 35.9986 62.9418V70.9418ZM39.0055 69.9179L45.7972 64.6826L40.9131 58.3465L34.1214 63.5819L39.0055 69.9179ZM40.9144 64.6836L47.7119 69.9189L52.5934 63.5809L45.7959 58.3455L40.9144 64.6836ZM47.714 69.9206C48.5751 70.5828 49.6309 70.9419 50.7172 70.9419V62.9419C51.3951 62.9419 52.0539 63.166 52.5913 63.5792L47.714 69.9206ZM50.7172 70.9419C51.8034 70.9419 52.8592 70.5828 53.7203 69.9206L48.8431 63.5792C49.3804 63.166 50.0393 62.9419 50.7172 62.9419V70.9419ZM53.7221 69.9192L60.0357 65.0577L55.155 58.7191L48.8413 63.5806L53.7221 69.9192ZM60.0449 65.0506C60.9628 64.3396 61.7065 63.4285 62.2193 62.3868L55.0417 58.8537C55.0662 58.8038 55.1018 58.7602 55.1458 58.7262L60.0449 65.0506ZM62.2193 62.3868C62.7321 61.345 63.0005 60.2 63.0041 59.0389L55.0041 59.0139C55.0043 58.9583 55.0172 58.9035 55.0417 58.8537L62.2193 62.3868ZM63.0041 59.0264V8.9773H55.0041V59.0264H63.0041ZM63.0041 8.97252C63.0016 6.85794 62.1601 4.83076 60.6644 3.33601L55.0094 8.99475C55.006 8.99138 55.0041 8.98682 55.0041 8.98208L63.0041 8.97252ZM60.6644 3.33601C59.1686 1.84127 57.1409 1.00112 55.0263 1L55.0221 9C55.0173 9 55.0128 8.99811 55.0094 8.99475L60.6644 3.33601ZM53.1506 59.0164C53.1517 58.677 53.2302 58.3423 53.3802 58.038L60.5562 61.5743C60.9445 60.7864 61.1478 59.9202 61.1506 59.0417L53.1506 59.0164ZM53.3802 58.038C53.5303 57.7335 53.7478 57.4674 54.0163 57.2598L58.9099 63.5884C59.6049 63.0511 60.1679 62.3622 60.5562 61.5743L53.3802 58.038ZM54.0228 57.2547L48.2734 61.6815L53.154 68.0203L58.9034 63.5935L54.0228 57.2547ZM53.1546 61.682L46.3576 56.4466L41.4759 62.7845L48.2729 68.0198L53.1546 61.682ZM46.3537 56.4436C45.4928 55.7822 44.4376 55.4236 43.3519 55.4236V63.4236C42.6748 63.4236 42.0167 63.2 41.4798 62.7875L46.3537 56.4436ZM43.3519 55.4236C42.2663 55.4236 41.2111 55.7822 40.3502 56.4436L45.2241 62.7875C44.6872 63.2 44.0291 63.4236 43.3519 63.4236V55.4236ZM40.3452 56.4474L33.553 61.6828L38.4369 68.019L45.2291 62.7836L40.3452 56.4474ZM38.4365 61.6825L31.6427 56.4471L26.7595 62.7839L33.5533 68.0193L38.4365 61.6825ZM31.642 56.4466C30.7805 55.783 29.7236 55.4231 28.6361 55.4231V63.4231C27.9574 63.4231 27.2978 63.1986 26.7602 62.7844L31.642 56.4466ZM28.6361 55.4231C27.5486 55.4231 26.4916 55.783 25.6301 56.4466L30.5119 62.7844C29.9743 63.1986 29.3147 63.4231 28.6361 63.4231V55.4231ZM25.6289 56.4475L18.8372 61.6829L23.7214 68.0189L30.5131 62.7835L25.6289 56.4475ZM23.7208 61.6825L17.9767 57.2562L13.0937 63.5931L18.8378 68.0193L23.7208 61.6825ZM17.9843 57.2621C18.252 57.4694 18.4689 57.7349 18.6185 58.0387L11.442 61.5739C11.8298 62.3612 12.3921 63.0498 13.0861 63.5872L17.9843 57.2621ZM18.6185 58.0387C18.7681 58.3424 18.8465 58.6762 18.8477 59.0147L10.8477 59.0434C10.8509 59.9211 11.0541 60.7865 11.442 61.5739L18.6185 58.0387ZM18.8477 59.0291V8.9773H10.8477V59.0291H18.8477ZM18.8477 8.98226C18.8471 9.47767 18.65 9.9526 18.2997 10.3029L12.6429 4.64605C11.4953 5.7936 10.8497 7.34944 10.8477 8.97233L18.8477 8.98226ZM18.2997 10.3029C17.9494 10.6532 17.4745 10.8503 16.9791 10.8509L16.9692 2.85089C15.3463 2.85291 13.7904 3.49849 12.6429 4.64605L18.2997 10.3029ZM16.9741 10.8509H55.0242V2.85089H16.9741V10.8509ZM55.0192 10.8509C54.5238 10.8503 54.0489 10.6532 53.6986 10.3029L59.3554 4.64605C58.2079 3.49849 56.652 2.85291 55.0291 2.85089L55.0192 10.8509ZM53.6986 10.3029C53.3483 9.95262 53.1512 9.4777 53.1506 8.98226L61.1506 8.97233C61.1486 7.34941 60.503 5.79358 59.3554 4.64605L53.6986 10.3029ZM53.1506 8.9773V59.0291H61.1506V8.9773H53.1506Z" fill="#0F0F10" mask="url(#path-5-inside-3_165_3426)"/>
<path d="M25.7808 19.0124C25.7347 18.9005 25.7109 18.7807 25.7109 18.6597C25.7109 18.659 25.7109 18.6583 25.7109 18.6576V18.1136C25.7565 18.0363 25.812 17.9644 25.8766 17.8999C26.0781 17.6984 26.3514 17.5851 26.6364 17.5851C26.7777 17.5851 26.9176 17.613 27.0482 17.6672C27.0482 17.6672 27.0482 17.6672 27.0482 17.6672C27.1787 17.7213 27.2973 17.8007 27.3971 17.9007C27.4608 17.9646 27.5162 18.0362 27.5618 18.1136V18.2782M25.7808 19.0124C25.8272 19.1249 25.8953 19.2272 25.9812 19.3133C26.0672 19.3995 26.1693 19.4678 26.2817 19.5145C26.3942 19.5611 26.5147 19.5851 26.6364 19.5851C26.8818 19.5851 27.1172 19.4876 27.2908 19.3141C27.4638 19.141 27.5613 18.9065 27.5618 18.6618C27.5618 18.6611 27.5618 18.6604 27.5618 18.6597V18.6576V18.2782M25.7808 19.0124L26.6364 18.6597L25.7808 19.0124ZM27.5618 18.2782L26.6415 18.6576L27.5618 18.2782ZM26.6359 11.0948L26.6364 11.0954L26.6359 11.0948ZM26.6359 11.0948L26.6364 11.0951L26.6359 11.0948Z" fill="#0F0F10" stroke="#0F0F10" stroke-width="4"/>
<mask id="path-8-inside-4_165_3426" fill="white">
<path d="M34.1559 19.5851H37.8408C38.0862 19.5851 38.3216 19.4876 38.4952 19.3141C38.6687 19.1405 38.7662 18.9051 38.7662 18.6597C38.7662 18.4142 38.6687 18.1789 38.4952 18.0053C38.3216 17.8317 38.0862 17.7342 37.8408 17.7342H35.0814V15.8024H37.8408C38.0862 15.8024 38.3216 15.7049 38.4952 15.5314C38.6687 15.3578 38.7662 15.1224 38.7662 14.877C38.7662 14.6316 38.6687 14.3962 38.4952 14.2226C38.3216 14.0491 38.0862 13.9516 37.8408 13.9516H35.0814V12.0208H37.8408C38.0862 12.0208 38.3216 11.9233 38.4952 11.7498C38.6687 11.5762 38.7662 11.3408 38.7662 11.0954C38.7662 10.8499 38.6687 10.6145 38.4952 10.441C38.3216 10.2674 38.0862 10.1699 37.8408 10.1699H34.1559C34.0344 10.1699 33.914 10.1937 33.8017 10.2402C33.6894 10.2867 33.5873 10.3549 33.5014 10.4408C33.4154 10.5268 33.3473 10.6288 33.3008 10.7411C33.2543 10.8534 33.2304 10.9738 33.2305 11.0954V18.6576C33.2302 18.7793 33.2539 18.8999 33.3003 19.0124C33.3467 19.1249 33.4148 19.2272 33.5008 19.3133C33.5867 19.3995 33.6889 19.4678 33.8013 19.5145C33.9137 19.5611 34.0342 19.5851 34.1559 19.5851Z"/>
</mask>
<path d="M34.1559 19.5851H37.8408C38.0862 19.5851 38.3216 19.4876 38.4952 19.3141C38.6687 19.1405 38.7662 18.9051 38.7662 18.6597C38.7662 18.4142 38.6687 18.1789 38.4952 18.0053C38.3216 17.8317 38.0862 17.7342 37.8408 17.7342H35.0814V15.8024H37.8408C38.0862 15.8024 38.3216 15.7049 38.4952 15.5314C38.6687 15.3578 38.7662 15.1224 38.7662 14.877C38.7662 14.6316 38.6687 14.3962 38.4952 14.2226C38.3216 14.0491 38.0862 13.9516 37.8408 13.9516H35.0814V12.0208H37.8408C38.0862 12.0208 38.3216 11.9233 38.4952 11.7498C38.6687 11.5762 38.7662 11.3408 38.7662 11.0954C38.7662 10.8499 38.6687 10.6145 38.4952 10.441C38.3216 10.2674 38.0862 10.1699 37.8408 10.1699H34.1559C34.0344 10.1699 33.914 10.1937 33.8017 10.2402C33.6894 10.2867 33.5873 10.3549 33.5014 10.4408C33.4154 10.5268 33.3473 10.6288 33.3008 10.7411C33.2543 10.8534 33.2304 10.9738 33.2305 11.0954V18.6576C33.2302 18.7793 33.2539 18.8999 33.3003 19.0124C33.3467 19.1249 33.4148 19.2272 33.5008 19.3133C33.5867 19.3995 33.6889 19.4678 33.8013 19.5145C33.9137 19.5611 34.0342 19.5851 34.1559 19.5851Z" fill="#0F0F10"/>
<path d="M34.1559 19.5851V15.5851H34.1559L34.1559 19.5851ZM37.8408 19.5851V15.5851V19.5851ZM35.0814 17.7342H31.0814V21.7342H35.0814V17.7342ZM35.0814 15.8024V11.8024H31.0814V15.8024H35.0814ZM37.8408 15.8024V11.8024V15.8024ZM35.0814 13.9516H31.0814V17.9516H35.0814V13.9516ZM35.0814 12.0208V8.02081H31.0814V12.0208H35.0814ZM34.1559 10.1699L34.1536 14.1699H34.1559V10.1699ZM33.2305 11.0954H37.2305L37.2305 11.0931L33.2305 11.0954ZM33.2305 18.6576L37.2305 18.6667V18.6576H33.2305ZM34.1559 23.5851H37.8408V15.5851H34.1559V23.5851ZM37.8408 23.5851C39.1471 23.5851 40.3999 23.0662 41.3236 22.1425L35.6667 16.4856C36.2433 15.9091 37.0253 15.5851 37.8408 15.5851V23.5851ZM41.3236 22.1425C42.2473 21.2188 42.7662 19.966 42.7662 18.6597H34.7662C34.7662 17.8442 35.0902 17.0622 35.6667 16.4856L41.3236 22.1425ZM42.7662 18.6597C42.7662 17.3534 42.2473 16.1006 41.3236 15.1769L35.6667 20.8337C35.0902 20.2571 34.7662 19.4751 34.7662 18.6597H42.7662ZM41.3236 15.1769C40.3999 14.2532 39.1471 13.7342 37.8408 13.7342V21.7342C37.0253 21.7342 36.2433 21.4103 35.6667 20.8337L41.3236 15.1769ZM37.8408 13.7342H35.0814V21.7342H37.8408V13.7342ZM39.0814 17.7342V15.8024H31.0814V17.7342H39.0814ZM35.0814 19.8024H37.8408V11.8024H35.0814V19.8024ZM37.8408 19.8024C39.1471 19.8024 40.3999 19.2835 41.3236 18.3598L35.6667 12.703C36.2433 12.1264 37.0254 11.8024 37.8408 11.8024V19.8024ZM41.3236 18.3598C42.2473 17.4361 42.7662 16.1833 42.7662 14.877H34.7662C34.7662 14.0616 35.0902 13.2795 35.6667 12.703L41.3236 18.3598ZM42.7662 14.877C42.7662 13.5707 42.2473 12.3179 41.3236 11.3942L35.6667 17.051C35.0902 16.4745 34.7662 15.6924 34.7662 14.877H42.7662ZM41.3236 11.3942C40.3999 10.4705 39.1471 9.95155 37.8408 9.95155V17.9516C37.0253 17.9516 36.2433 17.6276 35.6667 17.051L41.3236 11.3942ZM37.8408 9.95155H35.0814V17.9516H37.8408V9.95155ZM39.0814 13.9516V12.0208H31.0814V13.9516H39.0814ZM35.0814 16.0208H37.8408V8.02081H35.0814V16.0208ZM37.8408 16.0208C39.1471 16.0208 40.3999 15.5019 41.3236 14.5782L35.6667 8.92133C36.2433 8.34474 37.0253 8.02081 37.8408 8.02081V16.0208ZM41.3236 14.5782C42.2473 13.6545 42.7662 12.4017 42.7662 11.0954H34.7662C34.7662 10.2799 35.0902 9.49791 35.6667 8.92133L41.3236 14.5782ZM42.7662 11.0954C42.7662 9.78904 42.2473 8.53624 41.3236 7.61255L35.6667 13.2694C35.0902 12.6928 34.7662 11.9108 34.7662 11.0954H42.7662ZM41.3236 7.61255C40.3999 6.68885 39.1471 6.16992 37.8408 6.16992V14.1699C37.0253 14.1699 36.2433 13.846 35.6667 13.2694L41.3236 7.61255ZM37.8408 6.16992H34.1559V14.1699H37.8408V6.16992ZM34.1582 6.16992C33.511 6.16955 32.87 6.29676 32.272 6.54427L35.3314 13.9362C34.958 14.0907 34.5578 14.1702 34.1536 14.1699L34.1582 6.16992ZM32.272 6.54427C31.674 6.79178 31.1306 7.15474 30.6729 7.6124L36.3298 13.2693C36.044 13.555 35.7048 13.7816 35.3314 13.9362L32.272 6.54427ZM30.6729 7.6124C30.2153 8.07006 29.8523 8.61344 29.6048 9.21146L36.9967 12.2708C36.8422 12.6442 36.6156 12.9835 36.3298 13.2693L30.6729 7.6124ZM29.6048 9.21146C29.3573 9.80945 29.2301 10.4504 29.2305 11.0977L37.2305 11.0931C37.2307 11.4972 37.1513 11.8974 36.9967 12.2708L29.6048 9.21146ZM29.2305 11.0954V18.6576H37.2305V11.0954H29.2305ZM29.2305 18.6484C29.229 19.2962 29.3553 19.9379 29.6022 20.5368L36.9984 17.488C37.1525 17.8618 37.2314 18.2624 37.2305 18.6667L29.2305 18.6484ZM29.6022 20.5368C29.849 21.1357 30.2116 21.68 30.6691 22.1385L36.3324 16.4881C36.618 16.7744 36.8443 17.1141 36.9984 17.488L29.6022 20.5368ZM30.6691 22.1385C31.1267 22.5971 31.6701 22.9609 32.2684 23.2091L35.3341 15.8198C35.7076 15.9748 36.0468 16.2019 36.3324 16.4881L30.6691 22.1385ZM32.2684 23.2091C32.8667 23.4574 33.5081 23.5851 34.1559 23.5851L34.1559 15.5851C34.5603 15.5851 34.9607 15.6649 35.3341 15.8198L32.2684 23.2091Z" fill="#0F0F10" mask="url(#path-8-inside-4_165_3426)"/>
<mask id="path-10-inside-5_165_3426" fill="white">
<path d="M41.6833 19.5851H45.3686C45.6141 19.5851 45.8495 19.4876 46.023 19.3141C46.1966 19.1405 46.2941 18.9051 46.2941 18.6597C46.2941 18.4142 46.1966 18.1789 46.023 18.0053C45.8495 17.8317 45.6141 17.7342 45.3686 17.7342H42.6087V15.8024H45.3686C45.6141 15.8024 45.8495 15.7049 46.023 15.5314C46.1966 15.3578 46.2941 15.1224 46.2941 14.877C46.2941 14.6316 46.1966 14.3962 46.023 14.2226C45.8495 14.0491 45.6141 13.9516 45.3686 13.9516H42.6087V12.0208H45.3686C45.6141 12.0208 45.8495 11.9233 46.023 11.7498C46.1966 11.5762 46.2941 11.3408 46.2941 11.0954C46.2941 10.8499 46.1966 10.6145 46.023 10.441C45.8495 10.2674 45.6141 10.1699 45.3686 10.1699H41.6833C41.5617 10.1699 41.4413 10.1937 41.329 10.2402C41.2167 10.2867 41.1147 10.3549 41.0287 10.4408C40.9428 10.5268 40.8746 10.6288 40.8281 10.7411C40.7816 10.8534 40.7577 10.9738 40.7578 11.0954V18.6576C40.7575 18.7793 40.7813 18.8999 40.8277 19.0124C40.874 19.1249 40.9422 19.2272 41.0281 19.3133C41.1141 19.3995 41.2162 19.4678 41.3286 19.5145C41.441 19.5611 41.5616 19.5851 41.6833 19.5851Z"/>
</mask>
<path d="M41.6833 19.5851H45.3686C45.6141 19.5851 45.8495 19.4876 46.023 19.3141C46.1966 19.1405 46.2941 18.9051 46.2941 18.6597C46.2941 18.4142 46.1966 18.1789 46.023 18.0053C45.8495 17.8317 45.6141 17.7342 45.3686 17.7342H42.6087V15.8024H45.3686C45.6141 15.8024 45.8495 15.7049 46.023 15.5314C46.1966 15.3578 46.2941 15.1224 46.2941 14.877C46.2941 14.6316 46.1966 14.3962 46.023 14.2226C45.8495 14.0491 45.6141 13.9516 45.3686 13.9516H42.6087V12.0208H45.3686C45.6141 12.0208 45.8495 11.9233 46.023 11.7498C46.1966 11.5762 46.2941 11.3408 46.2941 11.0954C46.2941 10.8499 46.1966 10.6145 46.023 10.441C45.8495 10.2674 45.6141 10.1699 45.3686 10.1699H41.6833C41.5617 10.1699 41.4413 10.1937 41.329 10.2402C41.2167 10.2867 41.1147 10.3549 41.0287 10.4408C40.9428 10.5268 40.8746 10.6288 40.8281 10.7411C40.7816 10.8534 40.7577 10.9738 40.7578 11.0954V18.6576C40.7575 18.7793 40.7813 18.8999 40.8277 19.0124C40.874 19.1249 40.9422 19.2272 41.0281 19.3133C41.1141 19.3995 41.2162 19.4678 41.3286 19.5145C41.441 19.5611 41.5616 19.5851 41.6833 19.5851Z" fill="#0F0F10"/>
<path d="M41.6833 19.5851V15.5851H41.6832L41.6833 19.5851ZM45.3686 19.5851V15.5851V19.5851ZM42.6087 17.7342H38.6087V21.7342H42.6087V17.7342ZM42.6087 15.8024V11.8024H38.6087V15.8024H42.6087ZM45.3686 15.8024V11.8024V15.8024ZM42.6087 13.9516H38.6087V17.9516H42.6087V13.9516ZM42.6087 12.0208V8.02081H38.6087V12.0208H42.6087ZM41.6833 10.1699L41.681 14.1699H41.6833V10.1699ZM40.7578 11.0954H44.7578L44.7578 11.0931L40.7578 11.0954ZM40.7578 18.6576L44.7578 18.6667V18.6576H40.7578ZM41.6833 23.5851H45.3686V15.5851H41.6833V23.5851ZM45.3686 23.5851C46.675 23.5851 47.9278 23.0662 48.8515 22.1425L43.1946 16.4856C43.7712 15.9091 44.5532 15.5851 45.3686 15.5851V23.5851ZM48.8515 22.1425C49.7751 21.2188 50.2941 19.966 50.2941 18.6597H42.2941C42.2941 17.8442 42.618 17.0622 43.1946 16.4856L48.8515 22.1425ZM50.2941 18.6597C50.2941 17.3534 49.7751 16.1006 48.8515 15.1769L43.1946 20.8337C42.618 20.2571 42.2941 19.4751 42.2941 18.6597H50.2941ZM48.8515 15.1769C47.9278 14.2532 46.675 13.7342 45.3686 13.7342V21.7342C44.5532 21.7342 43.7712 21.4103 43.1946 20.8337L48.8515 15.1769ZM45.3686 13.7342H42.6087V21.7342H45.3686V13.7342ZM46.6087 17.7342V15.8024H38.6087V17.7342H46.6087ZM42.6087 19.8024H45.3686V11.8024H42.6087V19.8024ZM45.3686 19.8024C46.675 19.8024 47.9278 19.2835 48.8515 18.3598L43.1946 12.703C43.7712 12.1264 44.5532 11.8024 45.3686 11.8024V19.8024ZM48.8515 18.3598C49.7752 17.4361 50.2941 16.1833 50.2941 14.877H42.2941C42.2941 14.0616 42.618 13.2795 43.1946 12.703L48.8515 18.3598ZM50.2941 14.877C50.2941 13.5707 49.7751 12.3179 48.8515 11.3942L43.1946 17.051C42.618 16.4745 42.2941 15.6924 42.2941 14.877H50.2941ZM48.8515 11.3942C47.9278 10.4705 46.675 9.95155 45.3686 9.95155V17.9516C44.5532 17.9516 43.7712 17.6276 43.1946 17.051L48.8515 11.3942ZM45.3686 9.95155H42.6087V17.9516H45.3686V9.95155ZM46.6087 13.9516V12.0208H38.6087V13.9516H46.6087ZM42.6087 16.0208H45.3686V8.02081H42.6087V16.0208ZM45.3686 16.0208C46.675 16.0208 47.9278 15.5019 48.8515 14.5782L43.1946 8.92133C43.7712 8.34474 44.5532 8.02081 45.3686 8.02081V16.0208ZM48.8515 14.5782C49.7751 13.6545 50.2941 12.4017 50.2941 11.0954H42.2941C42.2941 10.2799 42.618 9.49791 43.1946 8.92133L48.8515 14.5782ZM50.2941 11.0954C50.2941 9.78904 49.7752 8.53624 48.8515 7.61255L43.1946 13.2694C42.618 12.6928 42.2941 11.9108 42.2941 11.0954H50.2941ZM48.8515 7.61255C47.9278 6.68885 46.675 6.16992 45.3686 6.16992V14.1699C44.5532 14.1699 43.7712 13.846 43.1946 13.2694L48.8515 7.61255ZM45.3686 6.16992H41.6833V14.1699H45.3686V6.16992ZM41.6855 6.16992C41.0383 6.16955 40.3974 6.29677 39.7994 6.54427L42.8587 13.9362C42.4853 14.0907 42.0851 14.1702 41.681 14.1699L41.6855 6.16992ZM39.7994 6.54427C39.2013 6.79178 38.6579 7.15474 38.2003 7.6124L43.8571 13.2693C43.5714 13.555 43.2321 13.7816 42.8587 13.9362L39.7994 6.54427ZM38.2003 7.6124C37.7427 8.07001 37.3797 8.61337 37.1322 9.21146L44.5241 12.2708C44.3695 12.6443 44.1429 12.9835 43.8571 13.2693L38.2003 7.6124ZM37.1322 9.21146C36.8846 9.80949 36.7574 10.4504 36.7578 11.0977L44.7578 11.0931C44.758 11.4972 44.6786 11.8974 44.5241 12.2708L37.1322 9.21146ZM36.7578 11.0954V18.6576H44.7578V11.0954H36.7578ZM36.7578 18.6484C36.7563 19.2962 36.8827 19.9379 37.1295 20.5368L44.5258 17.488C44.6799 17.8618 44.7587 18.2623 44.7578 18.6667L36.7578 18.6484ZM37.1295 20.5368C37.3764 21.1356 37.7389 21.6799 38.1965 22.1385L43.8598 16.4881C44.1454 16.7744 44.3717 17.1142 44.5258 17.488L37.1295 20.5368ZM38.1965 22.1385C38.654 22.5971 39.1975 22.9609 39.7958 23.2091L42.8615 15.8198C43.2349 15.9748 43.5742 16.2019 43.8598 16.4881L38.1965 22.1385ZM39.7958 23.2091C40.3941 23.4573 41.0355 23.5851 41.6833 23.5851L41.6832 15.5851C42.0876 15.5851 42.488 15.6649 42.8615 15.8198L39.7958 23.2091Z" fill="#0F0F10" mask="url(#path-10-inside-5_165_3426)"/>
<mask id="path-12-inside-6_165_3426" fill="white">
<path d="M36.4922 42.186H20.9294C20.6839 42.186 20.4485 42.2835 20.275 42.4571C20.1014 42.6306 20.0039 42.866 20.0039 43.1115C20.0039 43.3569 20.1014 43.5923 20.275 43.7659C20.4485 43.9394 20.6839 44.0369 20.9294 44.0369H36.4922C36.7376 44.0369 36.973 43.9394 37.1465 43.7659C37.3201 43.5923 37.4176 43.3569 37.4176 43.1115C37.4176 42.866 37.3201 42.6306 37.1465 42.4571C36.973 42.2835 36.7376 42.186 36.4922 42.186Z"/>
</mask>
<path d="M36.4922 42.186H20.9294C20.6839 42.186 20.4485 42.2835 20.275 42.4571C20.1014 42.6306 20.0039 42.866 20.0039 43.1115C20.0039 43.3569 20.1014 43.5923 20.275 43.7659C20.4485 43.9394 20.6839 44.0369 20.9294 44.0369H36.4922C36.7376 44.0369 36.973 43.9394 37.1465 43.7659C37.3201 43.5923 37.4176 43.3569 37.4176 43.1115C37.4176 42.866 37.3201 42.6306 37.1465 42.4571C36.973 42.2835 36.7376 42.186 36.4922 42.186Z" fill="#0F0F10"/>
<path d="M20.9294 42.186V38.186V42.186ZM36.4922 44.0369V40.0369V44.0369ZM36.4922 38.186H20.9294V46.186H36.4922V38.186ZM20.9294 38.186C19.623 38.186 18.3702 38.705 17.4465 39.6287L23.1034 45.2855C22.5268 45.8621 21.7448 46.186 20.9294 46.186L20.9294 38.186ZM17.4465 39.6287C16.5228 40.5524 16.0039 41.8052 16.0039 43.1115H24.0039C24.0039 43.9269 23.68 44.7089 23.1034 45.2855L17.4465 39.6287ZM16.0039 43.1115C16.0039 44.4178 16.5228 45.6706 17.4465 46.5943L23.1034 40.9374C23.68 41.514 24.0039 42.2961 24.0039 43.1115H16.0039ZM17.4465 46.5943C18.3702 47.518 19.623 48.0369 20.9294 48.0369V40.0369C21.7448 40.0369 22.5268 40.3609 23.1034 40.9374L17.4465 46.5943ZM20.9294 48.0369H36.4922V40.0369H20.9294V48.0369ZM36.4922 48.0369C37.7985 48.0369 39.0513 47.518 39.975 46.5943L34.3181 40.9374C34.8947 40.3609 35.6767 40.0369 36.4922 40.0369V48.0369ZM39.975 46.5943C40.8987 45.6706 41.4176 44.4178 41.4176 43.1115H33.4176C33.4176 42.296 33.7415 41.514 34.3181 40.9374L39.975 46.5943ZM41.4176 43.1115C41.4176 41.8052 40.8987 40.5524 39.975 39.6287L34.3181 45.2855C33.7415 44.7089 33.4176 43.9269 33.4176 43.1115H41.4176ZM39.975 39.6287C39.0513 38.705 37.7985 38.186 36.4922 38.186V46.186C35.6767 46.186 34.8947 45.8621 34.3181 45.2855L39.975 39.6287Z" fill="#0F0F10" mask="url(#path-12-inside-6_165_3426)"/>
<mask id="path-14-inside-7_165_3426" fill="white">
<path d="M51.0703 42.186H43.2965C43.0511 42.186 42.8157 42.2835 42.6421 42.4571C42.4686 42.6306 42.3711 42.866 42.3711 43.1115C42.3711 43.3569 42.4686 43.5923 42.6421 43.7659C42.8157 43.9394 43.0511 44.0369 43.2965 44.0369H51.0703C51.3157 44.0369 51.5511 43.9394 51.7247 43.7659C51.8982 43.5923 51.9957 43.3569 51.9957 43.1115C51.9957 42.866 51.8982 42.6306 51.7247 42.4571C51.5511 42.2835 51.3157 42.186 51.0703 42.186Z"/>
</mask>
<path d="M51.0703 42.186H43.2965C43.0511 42.186 42.8157 42.2835 42.6421 42.4571C42.4686 42.6306 42.3711 42.866 42.3711 43.1115C42.3711 43.3569 42.4686 43.5923 42.6421 43.7659C42.8157 43.9394 43.0511 44.0369 43.2965 44.0369H51.0703C51.3157 44.0369 51.5511 43.9394 51.7247 43.7659C51.8982 43.5923 51.9957 43.3569 51.9957 43.1115C51.9957 42.866 51.8982 42.6306 51.7247 42.4571C51.5511 42.2835 51.3157 42.186 51.0703 42.186Z" fill="#0F0F10"/>
<path d="M43.2965 42.186V38.186V42.186ZM51.0703 44.0369V40.0369V44.0369ZM51.0703 38.186H43.2965V46.186H51.0703V38.186ZM43.2965 38.186C41.9902 38.186 40.7374 38.705 39.8137 39.6287L45.4706 45.2855C44.894 45.8621 44.112 46.186 43.2965 46.186L43.2965 38.186ZM39.8137 39.6287C38.89 40.5524 38.3711 41.8052 38.3711 43.1115H46.3711C46.3711 43.9269 46.0472 44.7089 45.4706 45.2855L39.8137 39.6287ZM38.3711 43.1115C38.3711 44.4178 38.89 45.6706 39.8137 46.5943L45.4706 40.9374C46.0472 41.514 46.3711 42.2961 46.3711 43.1115H38.3711ZM39.8137 46.5943C40.7374 47.518 41.9902 48.0369 43.2965 48.0369V40.0369C44.112 40.0369 44.894 40.3609 45.4706 40.9374L39.8137 46.5943ZM43.2965 48.0369H51.0703V40.0369H43.2965V48.0369ZM51.0703 48.0369C52.3766 48.0369 53.6294 47.518 54.5531 46.5943L48.8962 40.9374C49.4728 40.3609 50.2548 40.0369 51.0703 40.0369V48.0369ZM54.5531 46.5943C55.4768 45.6706 55.9957 44.4178 55.9957 43.1115H47.9957C47.9957 42.296 48.3197 41.514 48.8962 40.9374L54.5531 46.5943ZM55.9957 43.1115C55.9957 41.8052 55.4768 40.5524 54.5531 39.6287L48.8962 45.2855C48.3197 44.7089 47.9957 43.9269 47.9957 43.1115H55.9957ZM54.5531 39.6287C53.6294 38.705 52.3766 38.186 51.0703 38.186V46.186C50.2548 46.186 49.4728 45.8621 48.8962 45.2855L54.5531 39.6287Z" fill="#0F0F10" mask="url(#path-14-inside-7_165_3426)"/>
<mask id="path-16-inside-8_165_3426" fill="white">
<path d="M36.4922 47.1724H20.9294C20.6839 47.1724 20.4485 47.2699 20.275 47.4434C20.1014 47.617 20.0039 47.8524 20.0039 48.0978C20.0039 48.3433 20.1014 48.5786 20.275 48.7522C20.4485 48.9257 20.6839 49.0233 20.9294 49.0233H36.4922C36.7376 49.0233 36.973 48.9257 37.1465 48.7522C37.3201 48.5786 37.4176 48.3433 37.4176 48.0978C37.4176 47.8524 37.3201 47.617 37.1465 47.4434C36.973 47.2699 36.7376 47.1724 36.4922 47.1724Z"/>
</mask>
<path d="M36.4922 47.1724H20.9294C20.6839 47.1724 20.4485 47.2699 20.275 47.4434C20.1014 47.617 20.0039 47.8524 20.0039 48.0978C20.0039 48.3433 20.1014 48.5786 20.275 48.7522C20.4485 48.9257 20.6839 49.0233 20.9294 49.0233H36.4922C36.7376 49.0233 36.973 48.9257 37.1465 48.7522C37.3201 48.5786 37.4176 48.3433 37.4176 48.0978C37.4176 47.8524 37.3201 47.617 37.1465 47.4434C36.973 47.2699 36.7376 47.1724 36.4922 47.1724Z" fill="#0F0F10"/>
<path d="M36.4922 43.1724H20.9294V51.1724H36.4922V43.1724ZM20.9294 43.1724C19.623 43.1724 18.3702 43.6913 17.4465 44.615L23.1034 50.2718C22.5268 50.8484 21.7448 51.1724 20.9294 51.1724V43.1724ZM17.4465 44.615C16.5228 45.5387 16.0039 46.7915 16.0039 48.0978H24.0039C24.0039 48.9132 23.68 49.6953 23.1034 50.2718L17.4465 44.615ZM16.0039 48.0978C16.0039 49.4041 16.5228 50.6569 17.4465 51.5806L23.1034 45.9238C23.68 46.5004 24.0039 47.2824 24.0039 48.0978H16.0039ZM17.4465 51.5806C18.3702 52.5043 19.623 53.0233 20.9294 53.0233V45.0233C21.7448 45.0233 22.5268 45.3472 23.1034 45.9238L17.4465 51.5806ZM20.9294 53.0233H36.4922V45.0233H20.9294V53.0233ZM36.4922 53.0233C37.7985 53.0233 39.0513 52.5043 39.975 51.5806L34.3181 45.9238C34.8947 45.3472 35.6767 45.0233 36.4922 45.0233V53.0233ZM39.975 51.5806C40.8987 50.6569 41.4176 49.4041 41.4176 48.0978H33.4176C33.4176 47.2824 33.7415 46.5003 34.3181 45.9238L39.975 51.5806ZM41.4176 48.0978C41.4176 46.7915 40.8987 45.5387 39.975 44.615L34.3181 50.2718C33.7415 49.6953 33.4176 48.9133 33.4176 48.0978H41.4176ZM39.975 44.615C39.0513 43.6913 37.7985 43.1724 36.4922 43.1724V51.1724C35.6767 51.1724 34.8947 50.8484 34.3181 50.2718L39.975 44.615Z" fill="#0F0F10" mask="url(#path-16-inside-8_165_3426)"/>
<mask id="path-18-inside-9_165_3426" fill="white">
<path d="M51.0703 47.1724H43.2965C43.0511 47.1724 42.8157 47.2699 42.6421 47.4434C42.4686 47.617 42.3711 47.8524 42.3711 48.0978C42.3711 48.3433 42.4686 48.5786 42.6421 48.7522C42.8157 48.9257 43.0511 49.0233 43.2965 49.0233H51.0703C51.3157 49.0233 51.5511 48.9257 51.7247 48.7522C51.8982 48.5786 51.9957 48.3433 51.9957 48.0978C51.9957 47.8524 51.8982 47.617 51.7247 47.4434C51.5511 47.2699 51.3157 47.1724 51.0703 47.1724Z"/>
</mask>
<path d="M51.0703 47.1724H43.2965C43.0511 47.1724 42.8157 47.2699 42.6421 47.4434C42.4686 47.617 42.3711 47.8524 42.3711 48.0978C42.3711 48.3433 42.4686 48.5786 42.6421 48.7522C42.8157 48.9257 43.0511 49.0233 43.2965 49.0233H51.0703C51.3157 49.0233 51.5511 48.9257 51.7247 48.7522C51.8982 48.5786 51.9957 48.3433 51.9957 48.0978C51.9957 47.8524 51.8982 47.617 51.7247 47.4434C51.5511 47.2699 51.3157 47.1724 51.0703 47.1724Z" fill="#0F0F10"/>
<path d="M51.0703 43.1724H43.2965V51.1724H51.0703V43.1724ZM43.2965 43.1724C41.9902 43.1724 40.7374 43.6913 39.8137 44.615L45.4706 50.2718C44.894 50.8484 44.112 51.1724 43.2965 51.1724V43.1724ZM39.8137 44.615C38.89 45.5387 38.3711 46.7915 38.3711 48.0978H46.3711C46.3711 48.9132 46.0472 49.6952 45.4706 50.2718L39.8137 44.615ZM38.3711 48.0978C38.3711 49.4041 38.89 50.6569 39.8137 51.5806L45.4706 45.9238C46.0472 46.5004 46.3711 47.2824 46.3711 48.0978H38.3711ZM39.8137 51.5806C40.7374 52.5043 41.9902 53.0233 43.2965 53.0233V45.0233C44.112 45.0233 44.894 45.3472 45.4706 45.9238L39.8137 51.5806ZM43.2965 53.0233H51.0703V45.0233H43.2965V53.0233ZM51.0703 53.0233C52.3766 53.0233 53.6294 52.5043 54.5531 51.5806L48.8962 45.9238C49.4728 45.3472 50.2548 45.0233 51.0703 45.0233V53.0233ZM54.5531 51.5806C55.4768 50.6569 55.9957 49.4041 55.9957 48.0978H47.9957C47.9957 47.2824 48.3197 46.5003 48.8962 45.9238L54.5531 51.5806ZM55.9957 48.0978C55.9957 46.7915 55.4768 45.5387 54.5531 44.615L48.8962 50.2718C48.3197 49.6953 47.9957 48.9133 47.9957 48.0978H55.9957ZM54.5531 44.615C53.6294 43.6913 52.3766 43.1724 51.0703 43.1724V51.1724C50.2548 51.1724 49.4728 50.8484 48.8962 50.2718L54.5531 44.615Z" fill="#0F0F10" mask="url(#path-18-inside-9_165_3426)"/>
<mask id="path-20-inside-10_165_3426" fill="white">
<path d="M36.4922 52.1582H20.9294C20.6839 52.1582 20.4485 52.2557 20.275 52.4293C20.1014 52.6028 20.0039 52.8382 20.0039 53.0836C20.0039 53.3291 20.1014 53.5645 20.275 53.738C20.4485 53.9116 20.6839 54.0091 20.9294 54.0091H36.4922C36.7376 54.0091 36.973 53.9116 37.1465 53.738C37.3201 53.5645 37.4176 53.3291 37.4176 53.0836C37.4176 52.8382 37.3201 52.6028 37.1465 52.4293C36.973 52.2557 36.7376 52.1582 36.4922 52.1582Z"/>
</mask>
<path d="M36.4922 52.1582H20.9294C20.6839 52.1582 20.4485 52.2557 20.275 52.4293C20.1014 52.6028 20.0039 52.8382 20.0039 53.0836C20.0039 53.3291 20.1014 53.5645 20.275 53.738C20.4485 53.9116 20.6839 54.0091 20.9294 54.0091H36.4922C36.7376 54.0091 36.973 53.9116 37.1465 53.738C37.3201 53.5645 37.4176 53.3291 37.4176 53.0836C37.4176 52.8382 37.3201 52.6028 37.1465 52.4293C36.973 52.2557 36.7376 52.1582 36.4922 52.1582Z" fill="#0F0F10"/>
<path d="M20.9294 52.1582V48.1582V52.1582ZM36.4922 54.0091V50.0091V54.0091ZM36.4922 48.1582H20.9294V56.1582H36.4922V48.1582ZM20.9294 48.1582C19.6231 48.1582 18.3703 48.6771 17.4465 49.6008L23.1034 55.2577C22.5268 55.8343 21.7447 56.1582 20.9294 56.1582L20.9294 48.1582ZM17.4465 49.6008C16.5228 50.5245 16.0039 51.7774 16.0039 53.0836H24.0039C24.0039 53.8991 23.68 54.6811 23.1034 55.2577L17.4465 49.6008ZM16.0039 53.0836C16.0039 54.39 16.5228 55.6428 17.4465 56.5665L23.1034 50.9096C23.68 51.4862 24.0039 52.2682 24.0039 53.0836H16.0039ZM17.4465 56.5665C18.3702 57.4902 19.623 58.0091 20.9294 58.0091V50.0091C21.7448 50.0091 22.5268 50.333 23.1034 50.9096L17.4465 56.5665ZM20.9294 58.0091H36.4922V50.0091H20.9294V58.0091ZM36.4922 58.0091C37.7985 58.0091 39.0513 57.4901 39.975 56.5665L34.3181 50.9096C34.8947 50.333 35.6767 50.0091 36.4922 50.0091V58.0091ZM39.975 56.5665C40.8987 55.6428 41.4176 54.39 41.4176 53.0836H33.4176C33.4176 52.2682 33.7415 51.4862 34.3181 50.9096L39.975 56.5665ZM41.4176 53.0836C41.4176 51.7773 40.8987 50.5245 39.975 49.6008L34.3181 55.2577C33.7415 54.6811 33.4176 53.8991 33.4176 53.0836H41.4176ZM39.975 49.6008C39.0513 48.6771 37.7984 48.1582 36.4922 48.1582V56.1582C35.6768 56.1582 34.8947 55.8343 34.3181 55.2577L39.975 49.6008Z" fill="#0F0F10" mask="url(#path-20-inside-10_165_3426)"/>
<mask id="path-22-inside-11_165_3426" fill="white">
<path d="M51.0703 52.1582H43.2965C43.0511 52.1582 42.8157 52.2557 42.6421 52.4293C42.4686 52.6028 42.3711 52.8382 42.3711 53.0836C42.3711 53.3291 42.4686 53.5645 42.6421 53.738C42.8157 53.9116 43.0511 54.0091 43.2965 54.0091H51.0703C51.3157 54.0091 51.5511 53.9116 51.7247 53.738C51.8982 53.5645 51.9957 53.3291 51.9957 53.0836C51.9957 52.8382 51.8982 52.6028 51.7247 52.4293C51.5511 52.2557 51.3157 52.1582 51.0703 52.1582Z"/>
</mask>
<path d="M51.0703 52.1582H43.2965C43.0511 52.1582 42.8157 52.2557 42.6421 52.4293C42.4686 52.6028 42.3711 52.8382 42.3711 53.0836C42.3711 53.3291 42.4686 53.5645 42.6421 53.738C42.8157 53.9116 43.0511 54.0091 43.2965 54.0091H51.0703C51.3157 54.0091 51.5511 53.9116 51.7247 53.738C51.8982 53.5645 51.9957 53.3291 51.9957 53.0836C51.9957 52.8382 51.8982 52.6028 51.7247 52.4293C51.5511 52.2557 51.3157 52.1582 51.0703 52.1582Z" fill="#0F0F10"/>
<path d="M43.2965 52.1582V48.1582V52.1582ZM51.0703 54.0091V50.0091V54.0091ZM51.0703 48.1582H43.2965V56.1582H51.0703V48.1582ZM43.2965 48.1582C41.9903 48.1582 40.7375 48.6771 39.8137 49.6008L45.4706 55.2577C44.894 55.8343 44.1119 56.1582 43.2965 56.1582L43.2965 48.1582ZM39.8137 49.6008C38.89 50.5246 38.3711 51.7774 38.3711 53.0836H46.3711C46.3711 53.899 46.0472 54.6811 45.4706 55.2577L39.8137 49.6008ZM38.3711 53.0836C38.3711 54.3899 38.89 55.6427 39.8137 56.5665L45.4706 50.9096C46.0472 51.4862 46.3711 52.2682 46.3711 53.0836H38.3711ZM39.8137 56.5665C40.7374 57.4902 41.9902 58.0091 43.2965 58.0091V50.0091C44.112 50.0091 44.894 50.333 45.4706 50.9096L39.8137 56.5665ZM43.2965 58.0091H51.0703V50.0091H43.2965V58.0091ZM51.0703 58.0091C52.3766 58.0091 53.6294 57.4901 54.5531 56.5665L48.8962 50.9096C49.4728 50.333 50.2548 50.0091 51.0703 50.0091V58.0091ZM54.5531 56.5665C55.4768 55.6428 55.9957 54.39 55.9957 53.0836H47.9957C47.9957 52.2682 48.3197 51.4862 48.8962 50.9096L54.5531 56.5665ZM55.9957 53.0836C55.9957 51.7773 55.4768 50.5245 54.5531 49.6008L48.8962 55.2577C48.3196 54.6811 47.9957 53.8991 47.9957 53.0836H55.9957ZM54.5531 49.6008C53.6294 48.6771 52.3766 48.1582 51.0703 48.1582V56.1582C50.2549 56.1582 49.4728 55.8343 48.8962 55.2577L54.5531 49.6008Z" fill="#0F0F10" mask="url(#path-22-inside-11_165_3426)"/>
</svg>
