<svg width="72" height="72" viewBox="0 0 72 72" fill="none" xmlns="http://www.w3.org/2000/svg">
<mask id="mask0_165_3411" style="mask-type:luminance" maskUnits="userSpaceOnUse" x="2" y="2" width="68" height="68">
<path d="M2 2H70V70H2V2Z" fill="white"/>
</mask>
<g mask="url(#mask0_165_3411)">
<path d="M13.5476 53.7824C12.7941 53.9283 12.0747 54.2931 11.4912 54.8765C9.93521 56.4325 9.93521 58.9552 11.4912 60.5112C13.0471 62.0672 15.57 62.0672 17.1258 60.5112C17.7579 59.8793 18.0696 59.1515 18.1127 58.4056C18.1216 58.2511 18.1191 58.0961 18.1054 57.941" stroke="#0F0F10" stroke-width="1.8" stroke-miterlimit="10" stroke-linecap="round" stroke-linejoin="round"/>
<path d="M33.7898 33.5393C33.0363 33.6851 32.3169 34.0499 31.7334 34.6333C30.1774 36.1895 30.1774 38.7121 31.7334 40.2681C33.2893 41.824 35.8122 41.824 37.368 40.2681C38.0001 39.6362 38.3118 38.9083 38.3549 38.1624C38.3638 38.0081 38.3613 37.8531 38.3476 37.6978" stroke="#0F0F10" stroke-width="1.8" stroke-miterlimit="10" stroke-linecap="round" stroke-linejoin="round"/>
<path d="M38.218 28.1448L35.8438 30.5191L41.4786 36.1538L43.8527 33.7795" stroke="#0F0F10" stroke-width="1.8" stroke-miterlimit="10" stroke-linecap="round" stroke-linejoin="round"/>
<path d="M40.8633 31.1377L38.6641 33.3369" stroke="#0F0F10" stroke-width="1.8" stroke-miterlimit="10" stroke-linecap="round" stroke-linejoin="round"/>
<path d="M51.8352 14.5276L49.4609 16.9018L55.0958 22.5366L57.4701 20.1623" stroke="#0F0F10" stroke-width="1.8" stroke-miterlimit="10" stroke-linecap="round" stroke-linejoin="round"/>
<path d="M54.4806 17.52L52.2812 19.7192" stroke="#0F0F10" stroke-width="1.8" stroke-miterlimit="10" stroke-linecap="round" stroke-linejoin="round"/>
<path d="M21.1923 56.4434L17.7529 48.7721C17.6903 48.6232 17.8399 48.4734 17.9889 48.5356L25.6412 51.9947" stroke="#0F0F10" stroke-width="1.8" stroke-miterlimit="10" stroke-linecap="round" stroke-linejoin="round"/>
<path d="M20.4688 54.3999L23.6086 51.2602" stroke="#0F0F10" stroke-width="1.8" stroke-miterlimit="10" stroke-linecap="round" stroke-linejoin="round"/>
<path d="M28.1086 49.5259L22.4844 43.9017L31.7932 45.6054C31.9655 45.6369 31.9911 45.5114 31.8673 45.3876L26.3697 39.9953" stroke="#0F0F10" stroke-width="1.8" stroke-miterlimit="10" stroke-linecap="round" stroke-linejoin="round"/>
<path d="M40.7422 25.6234L46.3722 31.2534C46.4452 31.2018 48.3453 29.2802 48.3453 29.2802" stroke="#0F0F10" stroke-width="1.8" stroke-miterlimit="10" stroke-linecap="round" stroke-linejoin="round"/>
<path d="M45.0625 21.3031L50.6926 26.9331C50.7653 26.8814 52.6656 24.9599 52.6656 24.9599" stroke="#0F0F10" stroke-width="1.8" stroke-miterlimit="10" stroke-linecap="round" stroke-linejoin="round"/>
<path d="M61.0754 10.9253C62.6279 12.4778 62.9947 14.568 61.6516 15.959C61.2045 16.422 60.0327 17.6025 60.0327 17.6025C60.0327 17.6025 57.9846 15.5689 57.2019 14.7862C56.5591 14.1436 54.3867 11.9793 54.3867 11.9793C54.3867 11.9793 55.4447 10.9211 55.9825 10.3832C57.4819 8.8838 59.5228 9.37268 61.0754 10.9253Z" stroke="#0F0F10" stroke-width="1.8" stroke-miterlimit="10" stroke-linecap="round" stroke-linejoin="round"/>
<path d="M21.2109 67.6943L67.6953 21.21" stroke="#0F0F10" stroke-width="1.8" stroke-miterlimit="10" stroke-linecap="round" stroke-linejoin="round"/>
<path d="M50.7891 4.30566L4.30469 50.79" stroke="#0F0F10" stroke-width="1.8" stroke-miterlimit="10" stroke-linecap="round" stroke-linejoin="round"/>
<path d="M23.4529 65.4532C27.3064 67.0971 31.5475 68.0078 36.0017 68.0078C53.6791 68.0078 68.0095 53.6775 68.0095 36C68.0095 31.5459 67.0988 27.3046 65.4548 23.4512" stroke="#0F0F10" stroke-width="1.8" stroke-miterlimit="10" stroke-linecap="round" stroke-linejoin="round"/>
<path d="M58.1098 30.7938C58.5019 32.4657 58.7103 34.2085 58.7103 36C58.7103 48.5429 48.5422 58.7109 35.9994 58.7109C34.2077 58.7109 32.4649 58.5028 30.793 58.1106" stroke="#0F0F10" stroke-width="1.8" stroke-miterlimit="10" stroke-linecap="round" stroke-linejoin="round"/>
<path d="M13.8895 41.2065C13.4974 39.5346 13.2891 37.7918 13.2891 36.0003C13.2891 23.4573 23.4572 13.2894 36 13.2894C37.7916 13.2894 39.5344 13.4976 41.2064 13.8897" stroke="#0F0F10" stroke-width="1.8" stroke-miterlimit="10" stroke-linecap="round" stroke-linejoin="round"/>
<path d="M48.5488 6.54687C44.6952 4.90292 40.4541 3.99222 36 3.99222C18.3225 3.99222 3.99219 18.3226 3.99219 36C3.99219 40.4542 4.90288 44.6954 6.54683 48.5488" stroke="#0F0F10" stroke-width="1.8" stroke-miterlimit="10" stroke-linecap="round" stroke-linejoin="round"/>
</g>
</svg>
