<svg width="72" height="72" viewBox="0 0 72 72" fill="none" xmlns="http://www.w3.org/2000/svg">
<mask id="path-1-inside-1_165_3406" fill="white">
<path d="M67.9866 24.4398C67.9861 23.3689 67.5558 22.4244 66.742 21.7089L57.014 13.1517C55.804 12.0876 54.2784 11 52.1334 11C52.1327 11 52.1317 11 52.1311 11C49.9847 11.0007 48.459 12.0898 47.2496 13.1551L37.5278 21.7188C36.7144 22.4351 36.2848 23.3799 36.2852 24.4508L36.2897 35.4415H29.8333C31.0018 33.0669 31.8157 29.3157 30.9017 26.5068C30.2584 24.53 28.8418 23.2268 26.805 22.738C26.545 22.6755 26.2704 22.7178 26.0425 22.8551C25.8147 22.9924 25.6525 23.2136 25.5924 23.4687C25.4815 23.94 25.3789 24.3819 25.2825 24.7971C24.0814 29.9731 23.927 30.6383 20.6094 32.7602C18.2657 34.2593 18.0993 34.4528 16.6417 36.5338C16.4928 36.7464 16.3285 36.9807 16.1446 37.241C15.5544 38.0765 14.7993 38.4533 13.7019 38.4627L13.6173 38.4629V38.2285C13.6173 37.0097 12.604 36.0182 11.3584 36.0182H6.25875C5.01325 36.0182 4 37.0097 4 38.2285V59.7895C4 61.0085 5.01325 62 6.25875 62H11.3585C12.604 62 13.6174 61.0085 13.6174 59.7895V58.7865C14.0681 58.9403 14.5188 59.1045 14.9828 59.274C17.2547 60.1044 19.8295 61.0455 23.6527 61.0455H36.9272C37.4931 61.0455 38.0316 60.9299 38.5204 60.7226C39.0004 60.9338 39.5204 61.0455 40.0536 61.0455H40.0544L64.247 61.0373C66.3173 61.0365 68.0009 59.3877 68 57.3618L67.9866 24.4398ZM11.6174 59.7895C11.6174 59.9269 11.4989 60.0428 11.3585 60.0428H6.25875C6.1185 60.0428 6 59.9269 6 59.7895V38.2285C6 38.0913 6.1185 37.9753 6.25875 37.9753H11.3585C11.4989 37.9753 11.6174 38.0913 11.6174 38.2285V59.7895ZM23.6527 59.0884C20.1909 59.0884 17.899 58.2506 15.6826 57.4405C15.0135 57.196 14.3274 56.9453 13.6175 56.7214V40.4201L13.7139 40.4198C15.4608 40.4049 16.8323 39.7097 17.79 38.3538C17.9755 38.0913 18.1412 37.8548 18.2914 37.6403C19.6357 35.7212 19.6357 35.7212 21.7038 34.3984C25.6984 31.8434 25.9929 30.5738 27.2329 25.2305C27.2513 25.1513 27.2699 25.0708 27.2888 24.9894C28.1129 25.4176 28.6753 26.115 28.9961 27.1006C29.9396 30.0001 28.4517 34.4641 27.2875 35.7794C27.0313 36.0689 26.9713 36.4782 27.1339 36.8267C27.2967 37.1752 27.652 37.3987 28.0436 37.3987H39.4761C40.5902 37.3987 41.4966 38.2857 41.4966 39.3759C41.4966 40.4662 40.5902 41.3533 39.4761 41.3533H31.5942C31.0419 41.3533 30.5942 41.7914 30.5942 42.3319C30.5942 42.8723 31.0419 43.3104 31.5942 43.3104H41.1278C42.242 43.3104 43.1483 44.1974 43.1483 45.2877C43.1483 46.3779 42.242 47.265 41.1278 47.265H31.5942C31.0419 47.265 30.5942 47.7032 30.5942 48.2436C30.5942 48.784 31.0419 49.2222 31.5942 49.2222H40.0896C41.2037 49.2222 42.1101 50.1091 42.1101 51.1994C42.1101 52.2897 41.2037 53.1766 40.0896 53.1766H31.5942C31.0419 53.1766 30.5942 53.6148 30.5942 54.1552C30.5942 54.6956 31.0419 55.1338 31.5942 55.1338H36.9273C38.0414 55.1338 38.9479 56.0209 38.9479 57.1111C38.9479 58.2014 38.0416 59.0884 36.9273 59.0884H23.6527ZM64.2462 59.0802L40.4011 59.0882C40.748 58.5068 40.9478 57.8316 40.9478 57.1111C40.9478 56.3861 40.7464 55.7064 40.3956 55.1225C42.4701 54.9689 44.1101 53.268 44.1101 51.1994C44.1101 50.2395 43.757 49.3588 43.1712 48.6751C44.3537 47.9894 45.1483 46.7275 45.1483 45.2877C45.1483 43.6763 44.1532 42.2882 42.733 41.6805C43.2132 41.0323 43.4966 40.236 43.4966 39.3759C43.4966 37.2065 41.693 35.4415 39.4761 35.4415H38.2898L38.2853 24.4502C38.2852 23.9355 38.4751 23.5179 38.8659 23.1736L48.5877 14.6097C49.9198 13.4363 50.9467 12.9577 52.132 12.9572H52.1335C53.3177 12.9572 54.3447 13.4353 55.6772 14.6072L65.4053 23.1644C65.7964 23.5085 65.9866 23.926 65.9869 24.4407L66.0001 57.3625C66.0005 58.3093 65.2137 59.0798 64.2462 59.0802ZM58.1392 45.8371C58.2857 47.0182 57.9622 48.0961 57.2039 48.9542C56.3119 49.9633 54.8296 50.6399 53.1427 50.8297V52.0745C53.1427 52.6149 52.695 53.0531 52.1427 53.0531C51.5905 53.0531 51.1427 52.6149 51.1427 52.0745V50.8155C48.6447 50.4796 46.703 48.934 46.1408 46.7275C46.0072 46.2031 46.3333 45.672 46.8692 45.5412C47.4055 45.4113 47.9478 45.7297 48.0815 46.254C48.5995 48.2869 50.69 48.9652 52.3237 48.9253C53.7265 48.8926 55.0482 48.4015 55.6912 47.6739C56.0815 47.2325 56.2329 46.7087 56.154 46.073C55.9674 44.5684 54.6847 43.7048 51.9951 43.2726C47.7146 42.5848 46.7178 40.4604 46.6356 38.7995C46.5213 36.498 48.1678 34.569 50.7327 33.9997C50.8672 33.97 51.0041 33.9442 51.143 33.9228V32.65C51.143 32.1096 51.5907 31.6714 52.143 31.6714C52.6952 31.6714 53.143 32.1096 53.143 32.65V33.9145C54.9739 34.1798 56.78 35.2177 57.6824 37.321C57.8961 37.8193 57.6567 38.3929 57.1475 38.6021C56.6381 38.8115 56.0521 38.577 55.8384 38.0787C54.971 36.0572 52.8713 35.5322 51.1751 35.9087C49.8933 36.1931 48.5525 37.0771 48.6333 38.7049C48.6586 39.2146 48.7355 40.7658 52.3192 41.3415C53.647 41.5546 57.6886 42.204 58.1392 45.8371ZM52.1345 24.1219C54.0981 24.1219 55.6957 22.5586 55.6957 20.6369C55.6957 18.7153 54.0982 17.152 52.1345 17.152C50.1707 17.152 48.5731 18.7153 48.5731 20.6369C48.5731 22.5586 50.1707 24.1219 52.1345 24.1219ZM52.1345 19.109C52.9953 19.109 53.6957 19.7945 53.6957 20.6368C53.6957 21.4791 52.9953 22.1646 52.1345 22.1646C51.2736 22.1646 50.5731 21.4791 50.5731 20.6368C50.5731 19.7945 51.2736 19.109 52.1345 19.109Z"/>
</mask>
<path d="M67.9866 24.4398C67.9861 23.3689 67.5558 22.4244 66.742 21.7089L57.014 13.1517C55.804 12.0876 54.2784 11 52.1334 11C52.1327 11 52.1317 11 52.1311 11C49.9847 11.0007 48.459 12.0898 47.2496 13.1551L37.5278 21.7188C36.7144 22.4351 36.2848 23.3799 36.2852 24.4508L36.2897 35.4415H29.8333C31.0018 33.0669 31.8157 29.3157 30.9017 26.5068C30.2584 24.53 28.8418 23.2268 26.805 22.738C26.545 22.6755 26.2704 22.7178 26.0425 22.8551C25.8147 22.9924 25.6525 23.2136 25.5924 23.4687C25.4815 23.94 25.3789 24.3819 25.2825 24.7971C24.0814 29.9731 23.927 30.6383 20.6094 32.7602C18.2657 34.2593 18.0993 34.4528 16.6417 36.5338C16.4928 36.7464 16.3285 36.9807 16.1446 37.241C15.5544 38.0765 14.7993 38.4533 13.7019 38.4627L13.6173 38.4629V38.2285C13.6173 37.0097 12.604 36.0182 11.3584 36.0182H6.25875C5.01325 36.0182 4 37.0097 4 38.2285V59.7895C4 61.0085 5.01325 62 6.25875 62H11.3585C12.604 62 13.6174 61.0085 13.6174 59.7895V58.7865C14.0681 58.9403 14.5188 59.1045 14.9828 59.274C17.2547 60.1044 19.8295 61.0455 23.6527 61.0455H36.9272C37.4931 61.0455 38.0316 60.9299 38.5204 60.7226C39.0004 60.9338 39.5204 61.0455 40.0536 61.0455H40.0544L64.247 61.0373C66.3173 61.0365 68.0009 59.3877 68 57.3618L67.9866 24.4398ZM11.6174 59.7895C11.6174 59.9269 11.4989 60.0428 11.3585 60.0428H6.25875C6.1185 60.0428 6 59.9269 6 59.7895V38.2285C6 38.0913 6.1185 37.9753 6.25875 37.9753H11.3585C11.4989 37.9753 11.6174 38.0913 11.6174 38.2285V59.7895ZM23.6527 59.0884C20.1909 59.0884 17.899 58.2506 15.6826 57.4405C15.0135 57.196 14.3274 56.9453 13.6175 56.7214V40.4201L13.7139 40.4198C15.4608 40.4049 16.8323 39.7097 17.79 38.3538C17.9755 38.0913 18.1412 37.8548 18.2914 37.6403C19.6357 35.7212 19.6357 35.7212 21.7038 34.3984C25.6984 31.8434 25.9929 30.5738 27.2329 25.2305C27.2513 25.1513 27.2699 25.0708 27.2888 24.9894C28.1129 25.4176 28.6753 26.115 28.9961 27.1006C29.9396 30.0001 28.4517 34.4641 27.2875 35.7794C27.0313 36.0689 26.9713 36.4782 27.1339 36.8267C27.2967 37.1752 27.652 37.3987 28.0436 37.3987H39.4761C40.5902 37.3987 41.4966 38.2857 41.4966 39.3759C41.4966 40.4662 40.5902 41.3533 39.4761 41.3533H31.5942C31.0419 41.3533 30.5942 41.7914 30.5942 42.3319C30.5942 42.8723 31.0419 43.3104 31.5942 43.3104H41.1278C42.242 43.3104 43.1483 44.1974 43.1483 45.2877C43.1483 46.3779 42.242 47.265 41.1278 47.265H31.5942C31.0419 47.265 30.5942 47.7032 30.5942 48.2436C30.5942 48.784 31.0419 49.2222 31.5942 49.2222H40.0896C41.2037 49.2222 42.1101 50.1091 42.1101 51.1994C42.1101 52.2897 41.2037 53.1766 40.0896 53.1766H31.5942C31.0419 53.1766 30.5942 53.6148 30.5942 54.1552C30.5942 54.6956 31.0419 55.1338 31.5942 55.1338H36.9273C38.0414 55.1338 38.9479 56.0209 38.9479 57.1111C38.9479 58.2014 38.0416 59.0884 36.9273 59.0884H23.6527ZM64.2462 59.0802L40.4011 59.0882C40.748 58.5068 40.9478 57.8316 40.9478 57.1111C40.9478 56.3861 40.7464 55.7064 40.3956 55.1225C42.4701 54.9689 44.1101 53.268 44.1101 51.1994C44.1101 50.2395 43.757 49.3588 43.1712 48.6751C44.3537 47.9894 45.1483 46.7275 45.1483 45.2877C45.1483 43.6763 44.1532 42.2882 42.733 41.6805C43.2132 41.0323 43.4966 40.236 43.4966 39.3759C43.4966 37.2065 41.693 35.4415 39.4761 35.4415H38.2898L38.2853 24.4502C38.2852 23.9355 38.4751 23.5179 38.8659 23.1736L48.5877 14.6097C49.9198 13.4363 50.9467 12.9577 52.132 12.9572H52.1335C53.3177 12.9572 54.3447 13.4353 55.6772 14.6072L65.4053 23.1644C65.7964 23.5085 65.9866 23.926 65.9869 24.4407L66.0001 57.3625C66.0005 58.3093 65.2137 59.0798 64.2462 59.0802ZM58.1392 45.8371C58.2857 47.0182 57.9622 48.0961 57.2039 48.9542C56.3119 49.9633 54.8296 50.6399 53.1427 50.8297V52.0745C53.1427 52.6149 52.695 53.0531 52.1427 53.0531C51.5905 53.0531 51.1427 52.6149 51.1427 52.0745V50.8155C48.6447 50.4796 46.703 48.934 46.1408 46.7275C46.0072 46.2031 46.3333 45.672 46.8692 45.5412C47.4055 45.4113 47.9478 45.7297 48.0815 46.254C48.5995 48.2869 50.69 48.9652 52.3237 48.9253C53.7265 48.8926 55.0482 48.4015 55.6912 47.6739C56.0815 47.2325 56.2329 46.7087 56.154 46.073C55.9674 44.5684 54.6847 43.7048 51.9951 43.2726C47.7146 42.5848 46.7178 40.4604 46.6356 38.7995C46.5213 36.498 48.1678 34.569 50.7327 33.9997C50.8672 33.97 51.0041 33.9442 51.143 33.9228V32.65C51.143 32.1096 51.5907 31.6714 52.143 31.6714C52.6952 31.6714 53.143 32.1096 53.143 32.65V33.9145C54.9739 34.1798 56.78 35.2177 57.6824 37.321C57.8961 37.8193 57.6567 38.3929 57.1475 38.6021C56.6381 38.8115 56.0521 38.577 55.8384 38.0787C54.971 36.0572 52.8713 35.5322 51.1751 35.9087C49.8933 36.1931 48.5525 37.0771 48.6333 38.7049C48.6586 39.2146 48.7355 40.7658 52.3192 41.3415C53.647 41.5546 57.6886 42.204 58.1392 45.8371ZM52.1345 24.1219C54.0981 24.1219 55.6957 22.5586 55.6957 20.6369C55.6957 18.7153 54.0982 17.152 52.1345 17.152C50.1707 17.152 48.5731 18.7153 48.5731 20.6369C48.5731 22.5586 50.1707 24.1219 52.1345 24.1219ZM52.1345 19.109C52.9953 19.109 53.6957 19.7945 53.6957 20.6368C53.6957 21.4791 52.9953 22.1646 52.1345 22.1646C51.2736 22.1646 50.5731 21.4791 50.5731 20.6368C50.5731 19.7945 51.2736 19.109 52.1345 19.109Z" fill="#0F0F10" stroke="#0F0F10" stroke-width="2" mask="url(#path-1-inside-1_165_3406)"/>
</svg>
