<svg width="24" height="24" viewBox="0 0 24 24" fill="none" xmlns="http://www.w3.org/2000/svg">
<path d="M21.6004 11.1999C21.6017 12.7395 21.2322 14.2567 20.5231 15.6233C19.8141 16.9899 18.7863 18.1657 17.5268 19.0511L19.2004 22.3999H4.80039L6.47399 19.0511C5.126 18.1021 4.0451 16.8219 3.33543 15.3339C2.62576 13.8459 2.31123 12.2003 2.42214 10.5555C2.53305 8.91064 3.06567 7.3221 3.96867 5.94285C4.87168 4.56361 6.11465 3.44015 7.57785 2.68069C9.04105 1.92123 10.6752 1.55137 12.3228 1.60673C13.9704 1.6621 15.576 2.14082 16.9849 2.99679C18.3939 3.85276 19.5586 5.05713 20.367 6.49387C21.1754 7.93062 21.6001 9.55134 21.6004 11.1999ZM19.6772 11.3999H14.3924C14.3492 11.9119 14.146 12.3791 13.8324 12.7503L17.57 16.4879C18.8794 15.1121 19.6305 13.2986 19.6772 11.3999ZM17.2884 16.7695L13.5508 13.0319C13.329 13.2203 13.0747 13.3666 12.8004 13.4639V18.8399C14.4842 18.665 16.0625 17.9369 17.2884 16.7695ZM9.60839 11.3999H4.32359C4.37028 13.2986 5.12135 15.1121 6.43079 16.4879L10.1684 12.7503C9.84528 12.3697 9.64946 11.8975 9.60839 11.3999ZM6.71239 16.7695C7.93851 17.9363 9.51681 18.6639 11.2004 18.8383V13.4623C10.9262 13.3655 10.672 13.2197 10.45 13.0319L6.71239 16.7695ZM19.6772 10.9999C19.6305 9.10117 18.8794 7.28764 17.57 5.91189L13.8324 9.64949C14.146 10.0207 14.3492 10.4879 14.3924 10.9999H19.6772ZM17.2884 5.63029C15.9126 4.32085 14.0991 3.56978 12.2004 3.52309V8.80789C12.7124 8.85109 13.1796 9.05429 13.5508 9.36789L17.2884 5.63029ZM11.8004 8.80789V3.52309C9.90167 3.56978 8.08815 4.32085 6.71239 5.63029L10.45 9.36789C10.8212 9.05429 11.2884 8.85109 11.8004 8.80789ZM10.1684 9.64949L6.43079 5.91189C5.12135 7.28764 4.37028 9.10117 4.32359 10.9999H9.60839C9.65159 10.4879 9.85479 10.0207 10.1684 9.64949Z" fill="#F0500B"/>
</svg>
