<svg width="40" height="40" viewBox="0 0 40 40" fill="none" xmlns="http://www.w3.org/2000/svg">
<path d="M23.75 17.5C23.75 16.5054 23.3549 15.5516 22.6517 14.8483C21.9484 14.1451 20.9946 13.75 20 13.75C19.0054 13.75 18.0516 14.1451 17.3483 14.8483C16.6451 15.5516 16.25 16.5054 16.25 17.5C16.25 18.4946 16.6451 19.4484 17.3483 20.1516C18.0516 20.8549 19.0054 21.25 20 21.25C20.9946 21.25 21.9484 20.8549 22.6517 20.1516C23.3549 19.4484 23.75 18.4946 23.75 17.5ZM35 17.5C35 24.685 27.2575 32.54 22.8975 36.395C22.1003 37.1069 21.0688 37.5005 20 37.5005C18.9312 37.5005 17.8997 37.1069 17.1025 36.395C12.7425 32.54 5 24.685 5 17.5C5 15.5302 5.38799 13.5796 6.14181 11.7597C6.89563 9.93986 8.00052 8.28628 9.3934 6.8934C10.7863 5.50052 12.4399 4.39563 14.2597 3.64181C16.0796 2.88799 18.0302 2.5 20 2.5C21.9698 2.5 23.9204 2.88799 25.7403 3.64181C27.5601 4.39563 29.2137 5.50052 30.6066 6.8934C31.9995 8.28628 33.1044 9.93986 33.8582 11.7597C34.612 13.5796 35 15.5302 35 17.5ZM32.5 17.5C32.5 14.1848 31.183 11.0054 28.8388 8.66116C26.4946 6.31696 23.3152 5 20 5C16.6848 5 13.5054 6.31696 11.1612 8.66116C8.81696 11.0054 7.5 14.1848 7.5 17.5C7.5 20.27 9.0375 23.4875 11.425 26.7075C13.76 29.8525 16.6425 32.65 18.7575 34.5225C19.0978 34.831 19.5407 35.0018 20 35.0018C20.4593 35.0018 20.9022 34.831 21.2425 34.5225C23.3575 32.65 26.2425 29.855 28.575 26.7075C30.9625 23.4875 32.5 20.27 32.5 17.5Z" fill="#0F0F10"/>
</svg>
