<svg width="141" height="136" viewBox="0 0 141 136" fill="none" xmlns="http://www.w3.org/2000/svg">
<mask id="mask0_1649_12195" style="mask-type:alpha" maskUnits="userSpaceOnUse" x="12" y="9" width="117" height="117">
<path d="M127.949 77.7525C122.386 109.298 92.32 130.365 60.7937 124.806C29.2674 119.247 8.21949 89.1676 13.7819 57.6218C19.3443 26.0759 49.4106 5.00934 80.9369 10.5683C112.463 16.1272 133.511 46.2066 127.949 77.7525Z" fill="white"/>
</mask>
<g mask="url(#mask0_1649_12195)">
<path fill-rule="evenodd" clip-rule="evenodd" d="M115.302 99.0814C103.081 115.467 82.0378 125.564 61.8008 121.995C41.2622 118.374 24.1466 101.67 18.1588 81.9523L14.5032 81.3077C19.7546 103.034 37.3859 120.68 60.794 124.807C84.2019 128.935 106.805 118.384 119.171 99.7636L115.302 99.0814ZM127.228 54.0684C121.976 32.3421 104.345 14.6971 80.9371 10.5697C57.5295 6.44225 34.9267 16.9929 22.5609 35.6127L26.4297 36.2949C38.6508 19.9099 59.6936 9.81332 79.9303 13.3816C100.469 17.003 117.584 33.7067 123.572 53.4238L127.228 54.0684Z" fill="#F0500B"/>
<path d="M61.756 23.3835L62.4168 27.4836L66.489 28.2876L62.7959 30.1843L63.2893 34.308L60.3459 31.3801L56.5787 33.1248L58.4527 29.4185L55.6311 26.373L59.7326 27.0103L61.756 23.3835Z" fill="#F0500B"/>
<path d="M78.9227 21.9924L79.8314 27.6301L85.4306 28.7355L80.3526 31.3435L81.031 37.0136L76.9839 32.9878L71.804 35.3866L74.3808 30.2905L70.501 26.103L76.1406 26.9793L78.9227 21.9924Z" fill="#F0500B"/>
<path d="M94.5787 29.1706L95.2396 33.2707L99.3117 34.0747L95.6187 35.9714L96.112 40.0951L93.1687 37.1672L89.4015 38.9119L91.2755 35.2056L88.4538 32.1601L92.5554 32.7974L94.5787 29.1706Z" fill="#F0500B"/>
<path d="M49.1665 94.7809L49.8274 98.8811L53.8995 99.685L50.2065 101.582L50.6998 105.705L47.7565 102.778L43.9893 104.522L45.8633 100.816L43.0416 97.7705L47.1432 98.4078L49.1665 94.7809Z" fill="#F0500B"/>
<path d="M65.5778 97.675L66.4865 103.313L72.0857 104.418L67.0077 107.026L67.6861 112.696L63.639 108.67L58.4591 111.069L61.0359 105.973L57.1561 101.786L62.7957 102.662L65.5778 97.675Z" fill="#F0500B"/>
<path d="M81.9892 100.57L82.6501 104.67L86.7223 105.474L83.0292 107.371L83.5226 111.495L80.5792 108.567L76.812 110.311L78.686 106.605L75.8644 103.56L79.9659 104.197L81.9892 100.57Z" fill="#F0500B"/>
</g>
<path d="M117.205 93.3386L119.606 79.7246L129.501 81.4694L128.976 84.4474L122.808 83.3599L122.396 85.6998L128.054 86.6975L127.529 89.6755L121.871 88.6779L121.458 91.0178L127.599 92.1006L127.074 95.0786L117.205 93.3386Z" fill="#F0500B"/>
<path d="M105.464 91.2692L107.865 77.6553L117.76 79.4L117.235 82.3781L111.067 81.2906L110.655 83.6305L116.313 84.6282L115.788 87.6062L110.13 86.6085L109.717 88.9484L115.858 90.0312L115.333 93.0093L105.464 91.2692Z" fill="#F0500B"/>
<path d="M94.0039 78.2827L94.529 75.3047L106.462 77.4088L105.937 80.3869L101.807 79.6587L99.9319 90.2946L96.2581 89.6468L98.1335 79.0109L94.0039 78.2827Z" fill="#F0500B"/>
<path d="M93.1396 75.0566L90.7391 88.6705L87.6285 88.122L83.9287 80.0947L83.8483 80.0805L82.5871 87.2331L78.8597 86.5759L81.2602 72.9619L84.4245 73.5199L88.0484 81.5065L88.1557 81.5254L89.4122 74.3993L93.1396 75.0566Z" fill="#F0500B"/>
<path d="M67.4016 84.5566L63.3792 83.8473L70.3116 71.0325L75.4066 71.9309L77.538 86.3439L73.5156 85.6347L72.2517 75.2403L72.1444 75.2214L67.4016 84.5566ZM67.5978 79.0531L75.1599 80.3865L74.6723 83.1518L67.1102 81.8184L67.5978 79.0531Z" fill="#F0500B"/>
<path d="M51.2256 81.7057L53.6261 68.0918L59.5525 69.1368C60.5715 69.3164 61.4307 69.6576 62.1301 70.1602C62.8295 70.6627 63.3305 71.2971 63.6332 72.0633C63.9359 72.8295 64.002 73.6957 63.8317 74.6618C63.6598 75.6367 63.2958 76.4202 62.7398 77.0121C62.1883 77.6049 61.4892 78.0025 60.6424 78.205C59.8001 78.4084 58.856 78.4178 57.8102 78.2334L54.2705 77.6093L54.7769 74.7376L57.5657 75.2293C58.0037 75.3066 58.3863 75.3192 58.7134 75.2672C59.0458 75.2116 59.3158 75.0787 59.5233 74.8685C59.7354 74.6592 59.8754 74.3617 59.9434 73.9762C60.0121 73.5862 59.9831 73.2543 59.8562 72.9807C59.7346 72.7033 59.5276 72.4795 59.235 72.3091C58.9477 72.1351 58.5851 72.0094 58.1471 71.9322L56.8331 71.7005L54.953 82.363L51.2256 81.7057ZM60.3722 76.8757L62.7028 83.7295L58.6536 83.0155L56.4034 76.1759L60.3722 76.8757Z" fill="#F0500B"/>
<path d="M39.7641 79.6836L35.7417 78.9743L42.6741 66.1594L47.7692 67.0578L49.9006 81.4709L45.8782 80.7616L44.6142 70.3673L44.5069 70.3483L39.7641 79.6836ZM39.9604 74.18L47.5225 75.5134L47.0349 78.2788L39.4728 76.9454L39.9604 74.18Z" fill="#F0500B"/>
<path d="M33.1037 64.4727L36.8311 65.13L35.2933 73.8514C35.1104 74.8884 34.7019 75.7417 34.0677 76.4112C33.4388 77.0771 32.6433 77.5377 31.6812 77.7931C30.7199 78.0439 29.6516 78.0658 28.4761 77.8585C27.2918 77.6497 26.2908 77.263 25.4733 76.6984C24.6566 76.1295 24.0666 75.4246 23.7034 74.5837C23.3454 73.7392 23.2578 72.7985 23.4406 71.7615L24.9785 63.04L28.7059 63.6973L27.2243 72.0996C27.1501 72.5206 27.1775 72.9139 27.3066 73.2794C27.4365 73.6404 27.6504 73.9431 27.9483 74.1876C28.2507 74.4328 28.6142 74.5929 29.0388 74.6677C29.4678 74.7434 29.8641 74.7173 30.2277 74.5895C30.5912 74.4617 30.8958 74.2504 31.1413 73.9555C31.3876 73.6562 31.5479 73.2961 31.6221 72.8751L33.1037 64.4727Z" fill="#F0500B"/>
<path d="M18.5172 66.5329C18.5005 66.2878 18.4453 66.0656 18.3514 65.8662C18.2583 65.6625 18.1288 65.482 17.963 65.3248C17.8024 65.164 17.6047 65.0309 17.3698 64.9255C17.1402 64.8165 16.8801 64.7363 16.5896 64.6851C15.9639 64.5748 15.4036 64.6291 14.9088 64.848C14.4185 65.0677 14.0079 65.4362 13.677 65.9536C13.3506 66.4718 13.1179 67.1253 12.9788 67.9142C12.8381 68.7119 12.8273 69.4136 12.9462 70.0195C13.0652 70.6254 13.3149 71.1172 13.6953 71.495C14.0757 71.8728 14.5877 72.1184 15.2313 72.2319C15.7989 72.332 16.2848 72.3331 16.6892 72.2354C17.098 72.1384 17.4228 71.9557 17.6636 71.6875C17.9045 71.4192 18.0608 71.0813 18.1327 70.6736L18.7646 70.8535L15.6271 70.3003L16.0913 67.6679L22.1785 68.7412L21.8456 70.6291C21.6268 71.87 21.1738 72.8845 20.4864 73.6726C19.8043 74.457 18.957 75.0022 17.9446 75.308C16.9374 75.6102 15.8349 75.6557 14.6371 75.4445C13.3008 75.2089 12.1772 74.7206 11.2664 73.9797C10.3556 73.2388 9.70816 72.2976 9.32419 71.156C8.94468 70.0153 8.88153 68.727 9.13471 67.2912C9.33318 66.1655 9.68107 65.1988 10.1784 64.3909C10.6801 63.5837 11.2921 62.9354 12.0144 62.4459C12.7374 61.9519 13.5304 61.6234 14.3933 61.4602C15.2569 61.2927 16.1513 61.2904 17.0765 61.4536C17.8899 61.597 18.6249 61.8454 19.2815 62.1988C19.9433 62.5485 20.5052 62.9812 20.9673 63.4968C21.4347 64.0087 21.7833 64.5796 22.0132 65.2096C22.2431 65.8396 22.3337 66.5022 22.2849 67.1973L18.5172 66.5329Z" fill="#F0500B"/>
<path d="M119.578 74.2302L122.213 59.2852L133.075 61.2005L132.499 64.4698L125.728 63.2759L125.275 65.8446L131.487 66.9398L130.91 70.2091L124.699 69.1138L124.246 71.6825L130.987 72.8712L130.411 76.1404L119.578 74.2302Z" fill="#F0500B"/>
<path d="M119.366 64.5659L115.215 63.834C115.246 63.4883 115.222 63.1655 115.143 62.8657C115.069 62.5668 114.939 62.2981 114.754 62.0597C114.574 61.8173 114.339 61.6154 114.049 61.4538C113.759 61.2874 113.418 61.1696 113.026 61.1004C112.339 60.9793 111.728 61.0422 111.194 61.2891C110.665 61.5369 110.223 61.9481 109.869 62.5226C109.519 63.0981 109.268 63.8188 109.116 64.6848C108.954 65.5994 108.942 66.3872 109.078 67.0483C109.221 67.7054 109.5 68.2312 109.916 68.6256C110.333 69.0151 110.872 69.2683 111.535 69.3851C111.913 69.4517 112.259 69.4652 112.575 69.4255C112.891 69.381 113.176 69.2882 113.428 69.1471C113.681 69.0061 113.898 68.8211 114.08 68.5924C114.268 68.3596 114.414 68.087 114.52 67.7746L118.666 68.5357C118.505 69.1595 118.212 69.7725 117.788 70.3748C117.364 70.9722 116.818 71.498 116.151 71.9522C115.49 72.4025 114.713 72.7219 113.819 72.9105C112.926 73.0991 111.928 73.0961 110.824 72.9015C109.44 72.6575 108.251 72.1443 107.255 71.3619C106.265 70.5803 105.552 69.5616 105.116 68.3059C104.684 67.051 104.614 65.5966 104.906 63.9425C105.2 62.2787 105.77 60.9347 106.619 59.9105C107.468 58.8814 108.494 58.1719 109.696 57.7819C110.898 57.387 112.177 57.309 113.531 57.5477C114.483 57.7156 115.336 57.9989 116.09 58.3978C116.844 58.7966 117.479 59.2974 117.995 59.9C118.512 60.4978 118.891 61.1891 119.132 61.974C119.373 62.7589 119.451 63.6229 119.366 64.5659Z" fill="#F0500B"/>
<path d="M104.346 56.1356L101.711 71.0807L97.6188 70.3592L100.254 55.4141L104.346 56.1356Z" fill="#F0500B"/>
<path d="M83.7758 67.9197L86.411 52.9746L92.9168 54.1218C94.0354 54.319 94.9786 54.6935 95.7464 55.2452C96.5142 55.7969 97.0642 56.4934 97.3965 57.3345C97.7288 58.1756 97.8014 59.1264 97.6144 60.187C97.4257 61.2573 97.0262 62.1173 96.4158 62.7671C95.8104 63.4178 95.0429 63.8544 94.1133 64.0767C93.1886 64.2999 92.1523 64.3103 91.0042 64.1078L87.1184 63.4227L87.6742 60.2702L90.7358 60.81C91.2166 60.8948 91.6366 60.9087 91.9957 60.8516C92.3606 60.7905 92.657 60.6447 92.8848 60.414C93.1176 60.1841 93.2713 59.8576 93.3459 59.4343C93.4214 59.0062 93.3895 58.6419 93.2503 58.3415C93.1168 58.037 92.8894 57.7913 92.5683 57.6043C92.2529 57.4132 91.8548 57.2753 91.374 57.1905L89.9315 56.9362L87.8676 68.6412L83.7758 67.9197ZM93.8167 62.6173L96.3752 70.1413L91.9301 69.3575L89.4599 61.8491L93.8167 62.6173Z" fill="#F0500B"/>
<path d="M70.1722 65.5213L72.8075 50.5762L79.3133 51.7233C80.4319 51.9206 81.3721 52.3121 82.1339 52.8979C82.8957 53.4836 83.4397 54.2141 83.766 55.0893C84.0922 55.9645 84.1619 56.9323 83.9749 57.9929C83.7862 59.0632 83.3823 59.9475 82.7634 60.646C82.1494 61.3454 81.3733 61.8305 80.4351 62.1015C79.5019 62.3734 78.4613 62.4081 77.3132 62.2056L73.4274 61.5205L73.9832 58.368L77.0448 58.9078C77.5256 58.9926 77.9499 58.9821 78.3176 58.8764C78.691 58.7667 78.996 58.5722 79.2324 58.2928C79.4738 58.0143 79.6317 57.6635 79.7064 57.2402C79.7819 56.8121 79.753 56.4308 79.6197 56.0963C79.4922 55.7578 79.2709 55.478 78.9558 55.2569C78.6464 55.0318 78.2513 54.8769 77.7705 54.7921L76.328 54.5377L74.2641 66.2428L70.1722 65.5213Z" fill="#F0500B"/>
<path d="M53.464 50.5368L54.0404 47.2676L67.1403 49.5774L66.5639 52.8467L62.0304 52.0473L59.9717 63.7232L55.9387 63.012L57.9974 51.3362L53.464 50.5368Z" fill="#F0500B"/>
<path d="M47.9513 51.0095C47.9979 50.5161 47.8808 50.1042 47.6001 49.7738C47.3243 49.4443 46.8553 49.2211 46.1929 49.1043C45.771 49.0299 45.4161 49.02 45.1282 49.0746C44.8461 49.1252 44.6263 49.2244 44.4687 49.3722C44.3111 49.5199 44.2105 49.7029 44.167 49.9209C44.1255 50.0992 44.1286 50.2678 44.1765 50.4267C44.2301 50.5816 44.33 50.7322 44.4763 50.8784C44.6234 51.0197 44.8188 51.1595 45.0625 51.2977C45.3062 51.436 45.6008 51.5732 45.9461 51.7094L47.1361 52.1901C47.9393 52.5123 48.6124 52.8692 49.1555 53.261C49.6985 53.6527 50.1247 54.0764 50.4338 54.5322C50.7438 54.9832 50.9447 55.465 51.0364 55.9778C51.133 56.4914 51.1336 57.0333 51.0381 57.6034C50.8599 58.5852 50.4655 59.3734 49.8548 59.968C49.244 60.5626 48.4511 60.957 47.4759 61.1512C46.5056 61.3463 45.3826 61.3314 44.107 61.1065C42.797 60.8755 41.6877 60.4817 40.7791 59.9253C39.8754 59.3696 39.2241 58.6453 38.8251 57.7523C38.4318 56.8553 38.343 55.7812 38.5585 54.53L42.4443 55.2152C42.3882 55.6769 42.4357 56.0815 42.5869 56.4292C42.7381 56.7769 42.9859 57.0639 43.3305 57.2902C43.68 57.5173 44.1148 57.6768 44.6348 57.7685C45.0715 57.8455 45.4465 57.8564 45.7597 57.8013C46.073 57.7462 46.3224 57.6371 46.5079 57.4742C46.6935 57.3113 46.8101 57.1087 46.8579 56.8663C46.8934 56.6368 46.8525 56.4239 46.7353 56.2277C46.6239 56.0274 46.4159 55.8302 46.1111 55.6361C45.8073 55.437 45.3864 55.2274 44.8486 55.0071L43.4038 54.4213C42.1199 53.899 41.152 53.2342 40.5001 52.427C39.854 51.6158 39.6363 50.6269 39.8471 49.4602C40.0094 48.5106 40.4108 47.7261 41.0512 47.1067C41.6974 46.4833 42.5144 46.053 43.5022 45.8158C44.4949 45.5795 45.5874 45.5665 46.7797 45.7767C47.9964 45.9913 49.0132 46.3787 49.8301 46.9391C50.6469 47.4995 51.231 48.1894 51.5823 49.0088C51.9393 49.8241 52.0341 50.7212 51.8666 51.6999L47.9513 51.0095Z" fill="#F0500B"/>
<path d="M25.1256 57.5759L27.7608 42.6309L38.6234 44.5462L38.047 47.8155L31.2763 46.6216L30.8233 49.1903L37.0347 50.2855L36.4583 53.5548L30.2469 52.4595L29.7939 55.0282L36.5352 56.2169L35.9588 59.4861L25.1256 57.5759Z" fill="#F0500B"/>
<path d="M11.2782 55.1365L13.9134 40.1914L20.4486 41.3437C21.5967 41.5462 22.5338 41.8694 23.2599 42.3135C23.9908 42.7584 24.5057 43.2956 24.8045 43.9251C25.1081 44.5556 25.1931 45.2502 25.0592 46.0092C24.9623 46.5589 24.7513 47.0383 24.4262 47.4475C24.106 47.8576 23.7006 48.1774 23.2099 48.4068C22.72 48.6315 22.1729 48.7507 21.5684 48.7645L21.5427 48.9105C22.186 49.049 22.7461 49.3158 23.2228 49.7108C23.7003 50.101 24.0498 50.5865 24.2711 51.1673C24.4933 51.7432 24.5423 52.3839 24.4179 53.0893C24.2738 53.9066 23.9296 54.5958 23.3855 55.157C22.8463 55.7191 22.1495 56.1129 21.2953 56.3385C20.441 56.564 19.4669 56.5804 18.3727 56.3875L11.2782 55.1365ZM15.9414 52.618L17.8548 52.9553C18.5417 53.0765 19.0792 53.0408 19.4672 52.8484C19.8562 52.6511 20.0948 52.3019 20.1831 51.8008C20.2449 51.4506 20.2163 51.1395 20.0973 50.8677C19.9782 50.5959 19.7802 50.3704 19.5033 50.1911C19.2312 50.0128 18.8866 49.8868 18.4696 49.8133L16.4972 49.4655L15.9414 52.618ZM16.9399 46.9552L18.6178 47.251C18.976 47.3142 19.3023 47.314 19.5968 47.2506C19.8913 47.1871 20.133 47.0642 20.322 46.8819C20.5168 46.6955 20.6412 46.4491 20.6952 46.1426C20.7767 45.6804 20.6721 45.2983 20.3813 44.9962C20.0914 44.6893 19.6914 44.4908 19.1811 44.4008L17.4443 44.0946L16.9399 46.9552Z" fill="#F0500B"/>
</svg>
