<svg width="20" height="20" viewBox="0 0 20 20" fill="none" xmlns="http://www.w3.org/2000/svg">
<path d="M7 19C7.55228 19 8 18.5523 8 18C8 17.4477 7.55228 17 7 17C6.44772 17 6 17.4477 6 18C6 18.5523 6.44772 19 7 19Z" fill="#0F0F10" stroke="#0F0F10" stroke-width="1.5" stroke-linecap="round" stroke-linejoin="round"/>
<path d="M16 19C16.5523 19 17 18.5523 17 18C17 17.4477 16.5523 17 16 17C15.4477 17 15 17.4477 15 18C15 18.5523 15.4477 19 16 19Z" fill="#0F0F10" stroke="#0F0F10" stroke-width="1.5" stroke-linecap="round" stroke-linejoin="round"/>
<path d="M1 2H4.27273L6.46545 12.7117C6.54027 13.08 6.7452 13.4109 7.04436 13.6464C7.34351 13.8818 7.71784 14.0069 8.10182 13.9997H16.0545C16.4385 14.0069 16.8129 13.8818 17.112 13.6464C17.4112 13.4109 17.6161 13.08 17.6909 12.7117L19 5.9999H5.09091" stroke="#0F0F10" stroke-width="1.5" stroke-linecap="round" stroke-linejoin="round"/>
</svg>
