<svg width="120" height="120" viewBox="0 0 120 120" fill="none" xmlns="http://www.w3.org/2000/svg">
<path d="M83.8447 97.8667C86.1914 97.8667 88.0954 99.7693 88.0954 102.117C88.0954 104.456 86.1914 106.359 83.8447 106.359C81.5034 106.359 79.6021 104.457 79.6021 102.117C79.6021 99.7693 81.4981 97.8667 83.8447 97.8667ZM83.8447 92.8187C78.7114 92.8187 74.5527 96.9787 74.5527 102.119C74.5527 107.249 78.7114 111.409 83.8447 111.409C88.9834 111.409 93.1447 107.249 93.1447 102.119C93.1434 96.9787 88.9821 92.8187 83.8447 92.8187Z" fill="#0F0F10"/>
<path d="M53.5186 97.8667C55.8652 97.8667 57.7692 99.7693 57.7692 102.117C57.7692 104.456 55.8652 106.359 53.5186 106.359C51.1772 106.359 49.2732 104.457 49.2732 102.117C49.2732 99.7693 51.1692 97.8667 53.5186 97.8667ZM53.5186 92.8187C48.3852 92.8187 44.2266 96.9787 44.2266 102.119C44.2266 107.249 48.3852 111.409 53.5186 111.409C58.6492 111.409 62.8159 107.249 62.8159 102.119C62.8146 96.9787 58.6559 92.8187 53.5186 92.8187Z" fill="#0F0F10"/>
<path d="M12.0378 6.83331C11.9538 6.83331 11.8631 6.83331 11.7805 6.83998C9.27245 7.01331 8.53778 10.3533 10.7471 11.5626L20.7058 17.2013C21.6071 17.708 22.2605 18.548 22.5391 19.54L39.1218 78.8667C40.7258 84.5893 45.9684 88.5826 51.9191 88.5826H93.6218C96.9818 88.5826 96.9818 83.5413 93.6218 83.5413H51.9178C48.2098 83.5413 44.9805 81.0893 43.9805 77.5133L43.1831 74.652H86.8764C93.1551 74.652 98.7098 70.5346 100.538 64.5213L106.21 45.8546L110.439 31.9306C111.418 28.716 106.6 27.2426 105.622 30.4586L101.384 44.396L95.7178 63.056C94.5298 66.9666 90.9604 69.6106 86.8764 69.6106H41.7671L27.3978 18.188C26.7671 15.9093 25.2471 13.9773 23.1845 12.8106L13.2311 7.17865C12.8711 6.96398 12.4605 6.84665 12.0378 6.83331Z" fill="#0F0F10"/>
<path d="M68.3231 15.7547C78.8778 15.7547 87.3778 24.2627 87.3778 34.8173C87.3778 45.3733 78.8778 53.8733 68.3231 53.8733C57.7684 53.8733 49.2684 45.3733 49.2684 34.8173C49.2684 24.264 57.7684 15.7547 68.3231 15.7547ZM68.3231 10.716C55.0444 10.716 44.2324 21.54 44.2324 34.8187C44.2324 48.104 55.0444 58.916 68.3231 58.916C81.6071 58.916 92.4191 48.104 92.4191 34.8187C92.4191 21.54 81.6071 10.716 68.3231 10.716Z" fill="#0F0F10"/>
<path d="M60.3311 24.2893C58.0658 24.2893 56.9485 27.0466 58.5805 28.624L64.7685 34.8106L58.5805 40.992C57.5445 41.972 57.5231 43.604 58.5311 44.6026C59.5311 45.608 61.1645 45.5813 62.1431 44.5533L68.3311 38.3733L74.5111 44.5533C75.4898 45.5813 77.1231 45.608 78.1231 44.6026C79.1231 43.6026 79.1018 41.9706 78.0738 40.992L71.8938 34.8106L78.0738 28.624C79.7325 27.0186 78.5458 24.2213 76.2485 24.2893C75.5871 24.312 74.9698 24.588 74.5111 25.0613L68.3311 31.248L62.1431 25.0613C61.6645 24.568 61.0111 24.2893 60.3311 24.2893Z" fill="#0F0F10"/>
</svg>
