<svg width="32" height="32" viewBox="0 0 32 32" fill="none" xmlns="http://www.w3.org/2000/svg">
<g clip-path="url(#clip0_574_7085)">
<mask id="mask0_574_7085" style="mask-type:luminance" maskUnits="userSpaceOnUse" x="0" y="0" width="32" height="32">
<path d="M32 0H0V32H32V0Z" fill="white"/>
</mask>
<g mask="url(#mask0_574_7085)">
<path d="M16 32C24.8366 32 32 24.8366 32 16C32 7.16344 24.8366 0 16 0C7.16344 0 0 7.16344 0 16C0 24.8366 7.16344 32 16 32Z" fill="white"/>
<mask id="mask1_574_7085" style="mask-type:luminance" maskUnits="userSpaceOnUse" x="4" y="6" width="24" height="20">
<path d="M28 6H4V26H28V6Z" fill="white"/>
</mask>
<g mask="url(#mask1_574_7085)">
<path fill-rule="evenodd" clip-rule="evenodd" d="M11.6187 6.7238C7.77026 6.7238 4.69056 9.80476 4.69056 13.5524V13.5619V13.5714C4.64452 14.6524 4.96676 15.9048 5.52378 17.1952C6.0762 18.481 6.84958 19.7857 7.6736 20.9666C8.4976 22.1428 9.36766 23.1904 10.118 23.9666C10.4909 24.3524 10.8315 24.6714 11.117 24.9C11.3471 25.0858 11.5221 25.2 11.6418 25.2572C11.6694 25.2428 11.7108 25.2238 11.7615 25.1952C11.8627 25.1334 11.9916 25.0428 12.1389 24.9238C12.4336 24.6858 12.7972 24.3428 13.2023 23.919C14.0079 23.0714 14.9562 21.9048 15.8355 20.6096C15.946 20.4476 16.1577 20.4096 16.3097 20.5238C16.4616 20.638 16.4984 20.8666 16.388 21.0286C15.4902 22.362 14.5143 23.5572 13.6811 24.4334C13.2668 24.8714 12.8801 25.238 12.5532 25.5C12.3921 25.6334 12.2356 25.7428 12.0975 25.8238C11.964 25.9048 11.8213 25.9714 11.6786 25.9952L11.5957 26L11.5221 25.9762C11.2827 25.9048 10.9973 25.7096 10.6935 25.4666C10.3804 25.2142 10.0213 24.8762 9.63466 24.4762C8.86128 23.6714 7.9636 22.6 7.12118 21.3904C6.27874 20.1858 5.47774 18.8381 4.8977 17.4905C4.32228 16.1524 3.954 14.7857 4.00464 13.5429C4.01384 9.35238 7.44342 6 11.6187 6C14.8319 6 17.594 7.98096 18.708 10.8C18.7817 10.9857 18.6989 11.1952 18.524 11.2714C18.349 11.3476 18.1511 11.2619 18.0774 11.0762C17.0784 8.5381 14.5696 6.7238 11.6187 6.7238Z" fill="#F0500B"/>
<path d="M25.9088 18.81C25.4622 18.81 25.0422 18.7195 24.6924 18.5243C24.3472 18.3243 24.0858 18.0528 23.8878 17.71C23.6946 17.3624 23.543 16.8957 23.543 16.4481C23.543 15.9957 23.6346 15.5671 23.8188 15.2243C24.0076 14.8766 24.2736 14.5767 24.6004 14.3814C24.9272 14.1814 25.3654 14.0957 25.789 14.0957C26.208 14.0957 26.6414 14.1862 26.9452 14.3814C27.2444 14.5671 27.4784 14.9481 27.635 15.2862C27.796 15.6148 27.8648 15.9481 27.8648 16.3814C27.8648 16.4862 27.8418 16.5957 27.7728 16.6671C27.7038 16.7338 27.5614 16.81 27.451 16.81H24.1778V16.0719H27.4048L27.0734 16.3052C27.0688 16.029 26.9722 15.8338 26.8708 15.6195C26.7696 15.4005 26.6282 15.2195 26.4396 15.0957C26.2508 14.9671 26.056 14.9052 25.789 14.9052C25.4806 14.9052 25.2352 14.9576 25.0142 15.0957C24.7978 15.2338 24.6694 15.3767 24.5544 15.6195C24.4394 15.8576 24.3344 16.1433 24.3344 16.4481C24.3344 16.7528 24.4034 17.0195 24.5368 17.2576C24.6704 17.4957 24.8592 17.6814 25.094 17.8195C25.3288 17.9576 25.6004 18.0243 25.9088 18.0243C26.0744 18.0243 26.2448 17.9957 26.4152 17.9338C26.5946 17.8671 26.7374 17.7957 26.8432 17.71C26.9262 17.6481 27.009 17.6195 27.101 17.6195C27.1976 17.6148 27.2806 17.6433 27.3496 17.7005C27.4418 17.7814 27.4878 17.8719 27.4968 17.9719C27.5014 18.0719 27.4968 18.2148 27.4048 18.2862C27.2208 18.4338 26.9916 18.5767 26.7154 18.6671C26.4484 18.7624 26.1574 18.81 25.9088 18.81Z" fill="#060606"/>
<path d="M18.4222 18.8052C18.3026 18.8052 18.2059 18.7671 18.123 18.6909C18.0493 18.61 17.916 18.41 17.916 18.2909L17.9325 14.61C17.9325 14.4814 17.9922 14.3148 18.0704 14.2386C18.1533 14.1624 18.3185 14.1528 18.4382 14.1528C18.5625 14.1528 18.6818 14.1624 18.7601 14.2386C18.8337 14.3148 18.8366 14.4861 18.8366 14.61L18.9285 18.2909C18.9285 18.41 18.7998 18.61 18.7215 18.6909C18.6479 18.7671 18.5465 18.8052 18.4222 18.8052ZM21.7368 18.8052C21.617 18.8052 21.5204 18.7671 21.4374 18.6909C21.3638 18.61 21.2304 18.41 21.2304 18.2909V16.2624C21.2304 15.9481 21.2672 15.6909 21.1522 15.4957C21.037 15.3004 20.8852 15.1528 20.6918 15.0576C20.503 14.9576 20.296 14.9528 20.0474 14.9528C19.8219 14.9528 19.5878 15.0052 19.4037 15.0957C19.2196 15.1909 19.1464 15.3148 19.0359 15.4767C18.93 15.629 18.8274 15.7624 18.8274 15.9671H18.321C18.321 15.6195 18.4038 15.3147 18.5649 15.0433C18.7307 14.7671 18.9344 14.4957 19.2198 14.3338C19.5053 14.1767 19.8722 14.0957 20.2314 14.0957C20.6042 14.0957 20.9942 14.2148 21.2888 14.3814C21.5834 14.5433 21.7622 14.7814 21.9324 15.0957C22.1028 15.41 22.243 15.81 22.243 16.2671V18.2957C22.243 18.4148 22.1096 18.6148 22.0314 18.6957C21.953 18.7671 21.8564 18.8052 21.7368 18.8052Z" fill="#060606"/>
<path fill-rule="evenodd" clip-rule="evenodd" d="M24.5679 14.2945C24.9271 14.0802 25.3321 13.9707 25.7833 13.9707C26.2297 13.9707 26.6211 14.0755 26.9571 14.285C27.2885 14.4898 27.5371 14.7802 27.7075 15.1421C27.8179 15.3707 27.8963 15.6231 27.9331 15.8897L27.9377 15.9088C27.9561 16.0564 27.9699 16.2088 27.9699 16.3659C27.9699 16.5183 27.9193 16.6516 27.8133 16.7564L27.8087 16.7612L27.8041 16.7659C27.6983 16.8659 27.5647 16.9135 27.4175 16.9135H24.5725C24.6001 17.004 24.6371 17.085 24.6829 17.1659C24.8027 17.3754 24.9639 17.5373 25.1755 17.6612C25.3827 17.7802 25.6221 17.8421 25.9029 17.8421C26.0503 17.8421 26.1975 17.8183 26.3541 17.7612C26.5197 17.6993 26.6441 17.6326 26.7361 17.5659C26.8421 17.485 26.9617 17.4421 27.0953 17.4421C27.2333 17.4374 27.3577 17.4754 27.4635 17.5659C27.5787 17.6707 27.6615 17.804 27.6661 17.9612C27.6753 18.1326 27.5971 18.2707 27.4681 18.3707C27.2655 18.5326 27.0169 18.6659 26.7315 18.7612C26.4461 18.8612 26.1699 18.9088 25.9029 18.9088C25.4333 18.9088 25.0053 18.8088 24.6277 18.5993C24.2595 18.385 23.9649 18.0945 23.7485 17.7278C23.5367 17.3516 23.4355 16.9231 23.4355 16.4516C23.4355 15.9754 23.5321 15.5469 23.7301 15.1755C23.9327 14.7993 24.2135 14.504 24.5679 14.2945ZM26.8373 15.8993C26.8143 15.8135 26.7869 15.7326 26.7499 15.6516C26.6625 15.4612 26.5381 15.3136 26.3771 15.204C26.2205 15.0993 26.0271 15.0421 25.7879 15.0421C25.5069 15.0421 25.2769 15.104 25.0881 15.2231C24.9039 15.3421 24.7613 15.504 24.6599 15.7183C24.6325 15.7754 24.6093 15.8374 24.5909 15.8993H26.8373ZM24.4067 15.8993C24.3883 15.9564 24.3745 16.0183 24.3653 16.0802H27.0537C27.0445 16.0183 27.0353 15.9612 27.0215 15.8993C26.9939 15.785 26.9571 15.6754 26.9111 15.5754C26.8097 15.3564 26.6625 15.1802 26.4737 15.0564C26.2851 14.9326 26.0549 14.8659 25.7879 14.8659C25.4795 14.8659 25.2169 14.9326 24.9959 15.0707C24.7797 15.2088 24.6185 15.3993 24.5035 15.6421C24.4621 15.7231 24.4299 15.8088 24.4067 15.8993ZM24.7107 18.4469C25.0605 18.6373 25.4565 18.7374 25.9029 18.7374C26.1515 18.7374 26.4093 18.6897 26.6763 18.5993C26.9525 18.504 27.1781 18.385 27.3623 18.2374C27.4543 18.1659 27.4957 18.0802 27.4911 17.9802C27.4865 17.8802 27.4359 17.7897 27.3437 17.7088C27.2747 17.6469 27.1919 17.6231 27.0953 17.6278C27.0031 17.6278 26.9157 17.6564 26.8373 17.7183C26.7315 17.7993 26.5889 17.8754 26.4093 17.9421C26.2389 18.004 26.0687 18.0326 25.9029 18.0326C25.5945 18.0326 25.3229 17.9659 25.0881 17.8278C24.8533 17.6897 24.6645 17.504 24.5311 17.2659C24.4713 17.1612 24.4253 17.0469 24.3883 16.9278C24.3699 16.8707 24.3607 16.8088 24.3515 16.7469H27.4175C27.5233 16.7469 27.6153 16.7135 27.6845 16.6469C27.7535 16.5754 27.7903 16.485 27.7903 16.385C27.7903 16.2659 27.7857 16.1516 27.7719 16.0421C27.7673 15.9993 27.7627 15.9516 27.7535 15.9088C27.7167 15.6659 27.6475 15.4421 27.5463 15.2374C27.3899 14.904 27.1597 14.6421 26.8605 14.4517C26.5613 14.2612 26.1975 14.1612 25.7787 14.1612C25.3551 14.1612 24.9777 14.2612 24.6509 14.4564C24.3239 14.6469 24.0661 14.9183 23.8773 15.2659C23.6933 15.6088 23.6013 16.004 23.6013 16.4564C23.6013 16.904 23.6979 17.2993 23.8911 17.6469C24.0983 17.9754 24.3699 18.2469 24.7107 18.4469Z" fill="#060606"/>
<path fill-rule="evenodd" clip-rule="evenodd" d="M19.0118 15.962V18.2906C19.0118 18.4525 18.9612 18.6001 18.8507 18.7191C18.7355 18.8334 18.5882 18.8858 18.4271 18.8858C18.266 18.8858 18.1233 18.8334 18.0083 18.7239L18.0037 18.7191L17.999 18.7144C17.8932 18.5953 17.8379 18.4477 17.8379 18.2858V14.6049C17.8379 14.4382 17.8885 14.2906 18.0037 14.1716C18.1187 14.062 18.2614 14.0097 18.4225 14.0097C18.5836 14.0097 18.7309 14.062 18.8461 14.1763C18.8967 14.2287 18.9381 14.2906 18.9612 14.3525C19.0256 14.3049 19.09 14.2668 19.1591 14.2287C19.4721 14.0525 19.822 13.9668 20.204 13.9668C20.6 13.9668 20.959 14.0573 21.2812 14.2382C21.608 14.4144 21.8614 14.6763 22.0454 15.0192C22.2342 15.3668 22.3262 15.781 22.3262 16.262V18.2906C22.3262 18.4572 22.271 18.6049 22.156 18.7239C22.0454 18.8382 21.9028 18.8906 21.7416 18.8906C21.5806 18.8906 21.4378 18.8382 21.3228 18.7287L21.3182 18.7239L21.3134 18.7144C21.2076 18.5953 21.1524 18.4477 21.1524 18.2858V16.2572C21.1524 15.962 21.0972 15.7429 21.005 15.581C20.9084 15.4144 20.784 15.2906 20.623 15.2144H20.6184H20.6138C20.4526 15.1287 20.264 15.0858 20.0384 15.0858C19.8358 15.0858 19.6609 15.1287 19.5044 15.2049C19.3478 15.2858 19.2235 15.3954 19.1361 15.5239C19.0532 15.6525 19.0118 15.7906 19.0118 15.962ZM21.4424 18.5953C21.5252 18.6715 21.622 18.7096 21.7416 18.7096C21.8614 18.7096 21.958 18.6715 22.0316 18.5953C22.1144 18.5144 22.1514 18.4096 22.1514 18.2906V16.262C22.1514 15.8049 22.064 15.4192 21.8936 15.1049C21.7278 14.7906 21.4976 14.5525 21.1984 14.3954C20.9084 14.2287 20.577 14.1477 20.204 14.1477C19.8497 14.1477 19.5274 14.2287 19.2419 14.3858C19.1591 14.4335 19.0762 14.4858 19.0026 14.543C18.975 14.562 18.9473 14.5858 18.9243 14.6097C18.8921 14.6382 18.8598 14.6668 18.8323 14.6954V14.6097C18.8323 14.5573 18.8277 14.5144 18.8139 14.4716C18.7954 14.4049 18.7632 14.3525 18.7171 14.3049C18.6435 14.2287 18.5423 14.1906 18.4179 14.1906C18.2983 14.1906 18.2015 14.2287 18.1187 14.3049C18.045 14.3811 18.0037 14.4858 18.0037 14.6097V18.2906C18.0037 18.4096 18.0404 18.5144 18.1187 18.5953C18.2015 18.6715 18.2983 18.7096 18.4179 18.7096C18.5423 18.7096 18.6389 18.6715 18.7171 18.5953C18.7908 18.5144 18.8323 18.4096 18.8323 18.2906V15.962C18.8323 15.7572 18.8875 15.581 18.9934 15.4239C18.998 15.4192 19.0026 15.4097 19.0072 15.4049C19.1131 15.2573 19.2558 15.1335 19.4307 15.0477C19.6148 14.9525 19.8174 14.9097 20.043 14.9097C20.2916 14.9097 20.508 14.9573 20.6966 15.0573C20.89 15.1525 21.042 15.2954 21.157 15.4954C21.272 15.6953 21.3274 15.9477 21.3274 16.262V18.2906C21.3274 18.4096 21.3642 18.5096 21.4424 18.5953Z" fill="#060606"/>
<path fill-rule="evenodd" clip-rule="evenodd" d="M11.3704 18.857C14.1694 18.857 16.4343 16.5142 16.4343 13.619C16.4343 10.7237 14.1694 8.38086 11.3704 8.38086C8.57154 8.38086 6.30664 10.7237 6.30664 13.619C6.30664 16.5142 8.57154 18.857 11.3704 18.857ZM11.3704 17.3904C13.3821 17.3904 15.0163 15.6999 15.0163 13.619C15.0163 11.538 13.3821 9.84752 11.3704 9.84752C9.35874 9.84752 7.7245 11.538 7.7245 13.619C7.7245 15.6999 9.35874 17.3904 11.3704 17.3904Z" fill="#060606"/>
</g>
</g>
</g>
<defs>
<clipPath id="clip0_574_7085">
<rect width="32" height="32" fill="white"/>
</clipPath>
</defs>
</svg>
