<svg width="277" height="116" viewBox="0 0 277 116" fill="none" xmlns="http://www.w3.org/2000/svg">
<g filter="url(#filter0_d_3455_16826)">
<path d="M16.3445 89.766L13.4105 99H11.6285C11.4245 99 11.2835 98.868 11.2055 98.604L9.54952 93.267C9.49552 93.087 9.44452 92.91 9.39652 92.736C9.35452 92.556 9.31852 92.376 9.28852 92.196C9.25252 92.376 9.21052 92.559 9.16252 92.745C9.12052 92.925 9.07252 93.105 9.01852 93.285L7.33552 98.604C7.26352 98.868 7.10452 99 6.85852 99H5.14852L2.22352 89.766H3.99652C4.15852 89.766 4.29652 89.805 4.41052 89.883C4.52452 89.961 4.59952 90.06 4.63552 90.18L5.95852 95.112C6.02452 95.382 6.08152 95.646 6.12952 95.904C6.18352 96.162 6.22852 96.42 6.26452 96.678C6.33052 96.42 6.39952 96.162 6.47152 95.904C6.54952 95.646 6.63052 95.382 6.71452 95.112L8.24452 90.162C8.28052 90.042 8.34952 89.943 8.45152 89.865C8.55952 89.787 8.68852 89.748 8.83852 89.748H9.81952C9.97552 89.748 10.1075 89.787 10.2155 89.865C10.3295 89.943 10.4045 90.042 10.4405 90.162L11.9255 95.112C12.0035 95.382 12.0755 95.649 12.1415 95.913C12.2135 96.171 12.2825 96.429 12.3485 96.687C12.4265 96.177 12.5375 95.652 12.6815 95.112L14.0405 90.18C14.0825 90.06 14.1575 89.961 14.2655 89.883C14.3735 89.805 14.5025 89.766 14.6525 89.766H16.3445ZM19.9127 89.766V99H17.6807V89.766H19.9127ZM20.2187 87.075C20.2187 87.267 20.1797 87.447 20.1017 87.615C20.0237 87.783 19.9187 87.93 19.7867 88.056C19.6607 88.182 19.5107 88.284 19.3367 88.362C19.1627 88.434 18.9767 88.47 18.7787 88.47C18.5867 88.47 18.4037 88.434 18.2297 88.362C18.0617 88.284 17.9147 88.182 17.7887 88.056C17.6627 87.93 17.5607 87.783 17.4827 87.615C17.4107 87.447 17.3747 87.267 17.3747 87.075C17.3747 86.877 17.4107 86.691 17.4827 86.517C17.5607 86.343 17.6627 86.193 17.7887 86.067C17.9147 85.941 18.0617 85.842 18.2297 85.77C18.4037 85.692 18.5867 85.653 18.7787 85.653C18.9767 85.653 19.1627 85.692 19.3367 85.77C19.5107 85.842 19.6607 85.941 19.7867 86.067C19.9187 86.193 20.0237 86.343 20.1017 86.517C20.1797 86.691 20.2187 86.877 20.2187 87.075ZM25.2571 99.144C24.4531 99.144 23.8351 98.919 23.4031 98.469C22.9771 98.013 22.7641 97.386 22.7641 96.588V91.431H21.8191C21.6991 91.431 21.5971 91.392 21.5131 91.314C21.4291 91.236 21.3871 91.119 21.3871 90.963V90.081L22.8721 89.838L23.3401 87.318C23.3701 87.198 23.4271 87.105 23.5111 87.039C23.5951 86.973 23.7031 86.94 23.8351 86.94H24.9871V89.847H27.4531V91.431H24.9871V96.435C24.9871 96.723 25.0561 96.948 25.1941 97.11C25.3381 97.272 25.5331 97.353 25.7791 97.353C25.9171 97.353 26.0311 97.338 26.1211 97.308C26.2171 97.272 26.2981 97.236 26.3641 97.2C26.4361 97.164 26.4991 97.131 26.5531 97.101C26.6071 97.065 26.6611 97.047 26.7151 97.047C26.7811 97.047 26.8351 97.065 26.8771 97.101C26.9191 97.131 26.9641 97.179 27.0121 97.245L27.6781 98.325C27.3541 98.595 26.9821 98.799 26.5621 98.937C26.1421 99.075 25.7071 99.144 25.2571 99.144ZM31.0993 90.756C31.4593 90.42 31.8553 90.147 32.2873 89.937C32.7193 89.727 33.2263 89.622 33.8083 89.622C34.3123 89.622 34.7593 89.709 35.1493 89.883C35.5393 90.051 35.8633 90.291 36.1213 90.603C36.3853 90.909 36.5833 91.278 36.7153 91.71C36.8533 92.136 36.9223 92.607 36.9223 93.123V99H34.6993V93.123C34.6993 92.559 34.5703 92.124 34.3123 91.818C34.0543 91.506 33.6613 91.35 33.1333 91.35C32.7493 91.35 32.3893 91.437 32.0533 91.611C31.7173 91.785 31.3993 92.022 31.0993 92.322V99H28.8763V85.626H31.0993V90.756Z" fill="white"/>
</g>
<g clip-path="url(#clip0_3455_16826)">
<path fill-rule="evenodd" clip-rule="evenodd" d="M60.5016 77.5166C53.7091 77.5166 48.2735 82.9912 48.2735 89.6505V89.6674V89.6843C48.1922 91.6051 48.761 93.8305 49.7441 96.1235C50.7191 98.4082 52.0841 100.727 53.5385 102.825C54.9929 104.915 56.5285 106.777 57.8529 108.156C58.511 108.841 59.1123 109.408 59.616 109.814C60.0223 110.144 60.331 110.347 60.5422 110.449C60.591 110.424 60.6641 110.39 60.7535 110.339C60.9323 110.229 61.1597 110.068 61.4198 109.857C61.9397 109.434 62.5816 108.824 63.2966 108.071C64.7185 106.565 66.3923 104.492 67.9441 102.19C68.1391 101.903 68.5129 101.835 68.781 102.038C69.0491 102.241 69.1141 102.647 68.9191 102.935C67.3347 105.304 65.6122 107.428 64.1416 108.985C63.4104 109.764 62.7279 110.415 62.151 110.88C61.8666 111.117 61.5904 111.312 61.3466 111.456C61.111 111.6 60.8591 111.718 60.6073 111.76L60.461 111.769L60.331 111.727C59.9085 111.6 59.4047 111.253 58.8685 110.821C58.316 110.373 57.6822 109.772 56.9997 109.061C55.6347 107.631 54.0504 105.727 52.5635 103.578C51.0766 101.437 49.6629 99.0428 48.6391 96.6482C47.6235 94.2705 46.9735 91.842 47.0629 89.6335C47.0791 82.1874 53.1323 76.2305 60.5016 76.2305C66.1729 76.2305 71.0479 79.7505 73.0141 84.7597C73.1441 85.0897 72.9979 85.462 72.6891 85.5974C72.3804 85.7328 72.031 85.5805 71.901 85.2505C70.1379 80.7405 65.7098 77.5166 60.5016 77.5166Z" fill="#F0500B"/>
<g filter="url(#filter1_d_3455_16826)">
<path fill-rule="evenodd" clip-rule="evenodd" d="M161.174 96.2151C160.881 96.1728 160.613 96.2828 160.386 96.4689C160.166 96.6382 160.028 96.8836 160.004 97.1797V97.1882V97.1966C159.979 97.4928 160.077 97.7551 160.272 97.9751C160.629 98.3389 161.109 98.6266 161.694 98.8551C162.295 99.0666 162.945 99.1766 163.644 99.1766C164.351 99.1766 164.96 99.0582 165.456 98.8213C165.951 98.5843 166.341 98.2628 166.609 97.8397C166.877 97.4251 167.016 96.9513 167.016 96.4436C167.016 96.0036 166.91 95.5974 166.699 95.2505C166.479 94.8866 166.13 94.5905 165.683 94.3451C165.236 94.1082 164.643 93.9136 163.92 93.7613C163.416 93.6597 163.051 93.5497 162.807 93.4566C162.571 93.3551 162.457 93.262 162.409 93.1943C162.36 93.1013 162.336 93.0082 162.336 92.8897C162.336 92.8051 162.36 92.7459 162.392 92.6951C162.425 92.6443 162.49 92.5851 162.596 92.5343C162.839 92.4159 163.148 92.3482 163.53 92.3482C163.863 92.3482 164.156 92.3905 164.391 92.4666C164.619 92.5343 164.83 92.6697 165.041 92.8728C165.228 93.0589 165.464 93.1689 165.724 93.2197C166 93.2705 166.268 93.2282 166.496 93.0674H166.504H166.512C166.723 92.9066 166.861 92.6866 166.877 92.4074C166.886 92.1366 166.788 91.8913 166.617 91.6882C166.292 91.282 165.862 90.9689 165.342 90.7489C164.814 90.5289 164.212 90.4189 163.554 90.4189C163.042 90.4189 162.539 90.512 162.059 90.6897C161.564 90.8589 161.157 91.1382 160.832 91.5105C160.491 91.8997 160.329 92.3905 160.329 92.9574C160.329 93.6174 160.589 94.1843 161.076 94.6328C161.572 95.0728 162.327 95.3774 163.311 95.5805C164.042 95.7159 164.489 95.8766 164.7 96.0459C164.919 96.2151 164.992 96.3759 164.984 96.5366C164.976 96.6974 164.903 96.8497 164.676 96.9936C164.464 97.1289 164.115 97.222 163.587 97.222C163.189 97.222 162.831 97.1459 162.514 97.0105C162.181 96.8497 161.97 96.6974 161.848 96.562C161.661 96.3674 161.434 96.2405 161.174 96.2151Z" fill="white"/>
</g>
<g filter="url(#filter2_d_3455_16826)">
<path d="M153.906 98.7973C153.679 98.7973 153.5 98.7381 153.378 98.6197C153.256 98.4927 153.191 98.3066 153.191 98.0612V91.5035C153.191 91.2666 153.256 91.0889 153.378 90.962C153.5 90.835 153.671 90.7759 153.898 90.7759C154.134 90.7759 154.313 90.8352 154.426 90.9706C154.548 91.089 154.605 91.2752 154.605 91.5206L154.621 98.0612C154.621 98.2981 154.556 98.4758 154.434 98.6027C154.321 98.7381 154.142 98.7973 153.906 98.7973ZM153.89 93.7881C153.89 93.2043 154.028 92.6797 154.304 92.2227C154.589 91.7573 154.971 91.385 155.442 91.1058C155.913 90.835 156.441 90.6912 157.01 90.6912C157.579 90.6912 158.001 90.7927 158.277 90.9873C158.562 91.1735 158.667 91.402 158.602 91.6643C158.57 91.7997 158.581 91.877 158.5 91.9532C158.427 92.0209 158.269 92.0958 158.164 92.1212C158.058 92.1381 157.944 92.1381 157.822 92.1043C157.213 91.9773 156.669 91.9689 156.181 92.0789C155.694 92.1889 155.312 92.3835 155.027 92.6797C154.751 92.9758 154.613 93.3481 154.613 93.7966H153.89V93.7881Z" fill="white"/>
<path fill-rule="evenodd" clip-rule="evenodd" d="M154.938 93.7883V98.0698C154.938 98.3575 154.865 98.6283 154.67 98.8313C154.475 99.0429 154.207 99.119 153.923 99.119C153.646 99.119 153.386 99.0429 153.183 98.8567L153.167 98.8398C152.964 98.6367 152.891 98.3575 152.891 98.0613V91.5036C152.891 91.2075 152.972 90.9367 153.167 90.7336C153.362 90.5306 153.63 90.4459 153.914 90.4459C154.199 90.4459 154.467 90.5221 154.662 90.7336C154.767 90.8352 154.841 90.9621 154.881 91.0975C155.011 90.9959 155.158 90.9029 155.304 90.8098C155.824 90.5052 156.401 90.3613 157.018 90.3613C157.611 90.3613 158.107 90.4629 158.456 90.7083C158.627 90.8183 158.773 90.9621 158.854 91.1398C158.944 91.3259 158.96 91.529 158.911 91.7236C158.871 91.9098 158.789 92.079 158.643 92.2144C158.521 92.3244 158.383 92.3921 158.221 92.4175C158.066 92.4429 157.912 92.4344 157.758 92.4006C157.181 92.2821 156.685 92.2736 156.254 92.3752C155.816 92.4683 155.491 92.6459 155.255 92.8913C155.044 93.1198 154.938 93.4075 154.938 93.7883ZM154.613 93.7966L154.621 98.0698C154.621 98.3067 154.556 98.4758 154.434 98.6027C154.321 98.7297 154.142 98.7973 153.906 98.7973C153.679 98.7973 153.5 98.7381 153.378 98.6197C153.256 98.4927 153.191 98.3066 153.191 98.0612V91.5035C153.191 91.2666 153.256 91.0889 153.378 90.962C153.5 90.835 153.671 90.7759 153.898 90.7759C154.134 90.7759 154.313 90.8352 154.426 90.9706C154.516 91.0552 154.581 91.1821 154.605 91.3429C154.613 91.3936 154.605 91.4529 154.605 91.5206L154.5 91.9532C154.484 91.9701 154.516 91.9362 154.5 91.9532C154.654 91.8178 155.255 91.2158 155.442 91.1058C155.913 90.835 156.441 90.6912 157.01 90.6912C157.579 90.6912 158.001 90.7927 158.277 90.9873C158.562 91.1735 158.667 91.402 158.602 91.6643C158.57 91.7997 158.581 91.877 158.5 91.9532C158.427 92.0209 158.269 92.0958 158.164 92.1212C158.058 92.1381 157.944 92.1381 157.822 92.1043C157.213 91.9773 156.669 91.9689 156.181 92.0789C155.694 92.1889 155.312 92.3835 155.027 92.6797C154.987 92.722 154.954 92.7559 154.922 92.7983C154.727 93.0606 154.613 93.4073 154.613 93.7966Z" fill="white"/>
</g>
<g filter="url(#filter3_d_3455_16826)">
<path d="M149.349 98.7977C149.137 98.7977 148.967 98.73 148.82 98.5946C148.69 98.4508 148.617 98.2646 148.617 98.0531V91.5123C148.617 91.2839 148.69 91.1058 148.828 90.9704C148.975 90.8351 149.137 90.7677 149.349 90.7677C149.568 90.7677 149.739 90.8354 149.877 90.9708C150.007 91.1062 150.08 91.2923 150.08 91.5123L150.088 98.0528C150.088 98.2643 150.023 98.4504 149.885 98.5943C149.746 98.7297 149.568 98.7977 149.349 98.7977ZM146.204 98.8739C145.546 98.8739 144.961 98.73 144.441 98.4508C143.929 98.1546 143.515 97.7312 143.206 97.1728C142.913 96.6143 142.767 95.9289 142.767 95.1166V91.512C142.767 91.3004 142.84 91.1231 142.979 90.9877C143.125 90.8439 143.295 90.7677 143.507 90.7677C143.718 90.7677 143.889 90.8439 144.019 90.9877C144.165 91.1231 144.23 91.3008 144.23 91.5123V95.1169C144.23 95.6669 144.327 96.1154 144.53 96.4793C144.734 96.8346 145.002 97.0969 145.343 97.2746C145.684 97.4439 146.066 97.52 146.497 97.52C146.903 97.52 147.269 97.4354 147.577 97.2746C147.902 97.1054 148.154 96.8854 148.349 96.5977C148.536 96.31 148.634 95.9969 148.634 95.6416H149.527C149.527 96.2508 149.381 96.7923 149.089 97.2831C148.804 97.7739 148.406 98.1546 147.91 98.4423C147.399 98.73 146.838 98.8739 146.204 98.8739Z" fill="white"/>
<path fill-rule="evenodd" clip-rule="evenodd" d="M144.23 90.7589C144.433 90.962 144.53 91.2158 144.53 91.512V95.1166C144.53 95.6243 144.62 96.022 144.79 96.3181C144.961 96.6143 145.188 96.8343 145.473 96.9866C145.765 97.1304 146.106 97.2066 146.488 97.2066C146.854 97.2066 147.163 97.1304 147.431 96.9951C147.707 96.8512 147.926 96.6566 148.081 96.4281C148.235 96.1997 148.308 95.9458 148.308 95.6581V91.5204C148.308 91.2243 148.398 90.962 148.601 90.7504C148.804 90.5558 149.056 90.4628 149.34 90.4628C149.625 90.4628 149.885 90.5558 150.088 90.7589C150.291 90.962 150.38 91.2328 150.38 91.5289V98.0697C150.38 98.3574 150.291 98.6197 150.096 98.8312C149.893 99.0343 149.633 99.1274 149.348 99.1274C149.064 99.1274 148.812 99.0343 148.609 98.8397L148.593 98.8228C148.511 98.7297 148.438 98.6281 148.398 98.5097C148.284 98.5943 148.17 98.662 148.048 98.7381C147.504 99.0512 146.886 99.2035 146.204 99.2035C145.505 99.2035 144.863 99.0512 144.295 98.7381C143.726 98.4166 143.279 97.9428 142.954 97.342C142.629 96.7243 142.475 95.9881 142.475 95.1335V91.5289C142.475 91.2412 142.564 90.9789 142.767 90.7758C142.97 90.5643 143.222 90.4628 143.515 90.4628C143.783 90.4458 144.035 90.5474 144.23 90.7589ZM144.433 98.4504C144.953 98.7297 145.546 98.8735 146.196 98.8735C146.83 98.8735 147.398 98.7297 147.894 98.4504C148.04 98.3658 148.186 98.2728 148.316 98.1712C148.365 98.1374 148.406 98.0951 148.455 98.0528C148.511 98.002 148.568 97.9512 148.625 97.892V98.0528C148.625 98.1374 148.633 98.222 148.658 98.2981C148.69 98.4081 148.747 98.5097 148.828 98.5943C148.975 98.7297 149.145 98.7974 149.356 98.7974C149.576 98.7974 149.746 98.7297 149.885 98.5943C150.015 98.4504 150.088 98.2643 150.088 98.0528L150.08 91.5123C150.08 91.2839 150.015 91.1062 149.877 90.9708C149.747 90.8354 149.576 90.7674 149.356 90.7674C149.145 90.7674 148.975 90.8351 148.828 90.9704C148.698 91.1058 148.625 91.292 148.625 91.512V95.6497C148.625 96.0051 148.528 96.3181 148.341 96.6058C148.333 96.6143 148.325 96.6312 148.316 96.6397C148.13 96.902 147.878 97.122 147.569 97.2743C147.252 97.4435 146.895 97.5197 146.488 97.5197C146.058 97.5197 145.676 97.4351 145.335 97.2743C144.993 97.0966 144.725 96.8343 144.522 96.4789C144.319 96.1151 144.23 95.6669 144.23 95.1169L144.221 91.512C144.221 91.3004 144.148 91.1228 144.01 90.9874C143.88 90.8435 143.71 90.7674 143.498 90.7674C143.287 90.7674 143.125 90.8439 142.979 90.9877C142.849 91.1231 142.767 91.3004 142.767 91.512V95.1166C142.767 95.9289 142.913 96.6143 143.206 97.1728C143.515 97.7312 143.921 98.1543 144.433 98.4504Z" fill="white"/>
</g>
<g filter="url(#filter4_d_3455_16826)">
<path d="M136.283 97.5366C136.779 97.5366 137.209 97.4182 137.591 97.1812C137.973 96.9443 138.266 96.6228 138.477 96.2166C138.696 95.802 138.802 95.3282 138.802 94.7951C138.802 94.262 138.696 93.7797 138.477 93.3736C138.266 92.9505 137.973 92.6289 137.591 92.392C137.209 92.1551 136.779 92.0366 136.283 92.0366C135.787 92.0366 135.357 92.1551 134.975 92.392C134.593 92.6289 134.292 92.9505 134.081 93.3736C133.862 93.7882 133.756 94.262 133.756 94.7951C133.756 95.3282 133.862 95.8105 134.081 96.2166C134.301 96.6312 134.601 96.9528 134.975 97.1812C135.349 97.4182 135.787 97.5366 136.283 97.5366ZM136.283 98.8566C135.511 98.8566 134.837 98.6874 134.244 98.3405C133.659 97.9851 133.187 97.5112 132.846 96.902C132.513 96.2843 132.351 95.582 132.351 94.7866C132.351 93.9828 132.513 93.2805 132.846 92.6712C133.187 92.0536 133.651 91.5797 134.244 91.2328C134.829 90.8774 135.511 90.7082 136.283 90.7082C137.039 90.7082 137.713 90.8859 138.306 91.2328C138.891 91.5712 139.354 92.0536 139.687 92.6712C140.029 93.2805 140.199 93.9828 140.199 94.7866C140.199 95.582 140.037 96.2843 139.704 96.902C139.371 97.5112 138.907 97.9851 138.322 98.3405C137.729 98.6874 137.047 98.8566 136.283 98.8566Z" fill="white"/>
<path fill-rule="evenodd" clip-rule="evenodd" d="M138.201 96.0641C138.396 95.7002 138.494 95.2856 138.494 94.7949C138.494 94.3041 138.396 93.881 138.201 93.5256C138.014 93.1533 137.762 92.8741 137.437 92.671C137.112 92.4679 136.73 92.3664 136.284 92.3664C135.837 92.3664 135.463 92.4679 135.13 92.671C134.797 92.8741 134.537 93.1618 134.35 93.5341C134.163 93.8895 134.057 94.3126 134.057 94.8033C134.057 95.2941 134.155 95.7172 134.35 96.0726C134.545 96.4364 134.805 96.7156 135.138 96.9187C135.463 97.1218 135.845 97.2233 136.292 97.2233C136.739 97.2233 137.112 97.1218 137.445 96.9187C137.762 96.7072 138.014 96.4279 138.201 96.0641ZM137.592 97.1895C137.21 97.4264 136.779 97.5366 136.283 97.5366C135.787 97.5366 135.357 97.4182 134.975 97.1812C134.593 96.9443 134.292 96.6228 134.081 96.2166C133.862 95.802 133.756 95.3282 133.756 94.7951C133.756 94.2536 133.862 93.7797 134.081 93.3736C134.301 92.9505 134.601 92.6289 134.975 92.392C135.357 92.1551 135.784 92.0366 136.279 92.0366C136.775 92.0366 137.209 92.1551 137.591 92.392C137.973 92.6289 138.266 92.9505 138.477 93.3736C138.696 93.7882 138.802 94.262 138.802 94.7951C138.802 95.3366 138.696 95.8105 138.477 96.2166C138.266 96.6228 137.974 96.9526 137.592 97.1895ZM134.09 90.9702C134.732 90.5895 135.463 90.4033 136.284 90.4033C137.088 90.4033 137.819 90.5895 138.461 90.9702C139.095 91.3426 139.599 91.8587 139.956 92.5272C140.33 93.1872 140.509 93.9487 140.509 94.7949C140.509 95.6326 140.33 96.3941 139.972 97.0626C139.615 97.7226 139.111 98.2387 138.477 98.6195C137.835 98.9918 137.104 99.1779 136.292 99.1779C135.479 99.1779 134.748 99.0002 134.106 98.6195C133.472 98.2387 132.969 97.7226 132.595 97.071C132.237 96.4026 132.059 95.641 132.059 94.8033C132.059 93.9572 132.237 93.1956 132.595 92.5356C132.952 91.8587 133.456 91.3426 134.09 90.9702ZM134.244 98.3487C134.829 98.6872 135.512 98.8649 136.284 98.8649C137.055 98.8649 137.73 98.6956 138.323 98.3487C138.908 97.9933 139.371 97.5195 139.704 96.9102C140.037 96.2926 140.2 95.5902 140.2 94.7949C140.2 93.991 140.029 93.2887 139.688 92.6795C139.355 92.0618 138.892 91.5879 138.307 91.241C137.722 90.8856 137.047 90.7164 136.284 90.7164C135.512 90.7164 134.837 90.8941 134.244 91.241C133.659 91.5795 133.188 92.0618 132.847 92.6795C132.514 93.2887 132.351 93.991 132.351 94.7949C132.351 95.5902 132.514 96.2926 132.847 96.9102C133.188 97.511 133.659 97.9933 134.244 98.3487Z" fill="white"/>
</g>
<g filter="url(#filter5_d_3455_16826)">
<path d="M124.526 88.7536C124.323 88.7536 124.161 88.6859 124.031 88.559C123.909 88.4236 123.844 88.2544 123.844 88.0428C123.844 87.8313 123.909 87.6705 124.031 87.5436C124.161 87.4082 124.331 87.3405 124.526 87.3405H132.148C132.351 87.3405 132.505 87.4082 132.635 87.5436C132.75 87.6049 132.838 87.8398 132.838 88.0428C132.838 88.2459 132.773 88.4152 132.635 88.559C132.513 88.6859 132.351 88.7536 132.148 88.7536H124.526ZM128.337 98.7975C128.126 98.7975 127.955 98.7213 127.809 98.5775C127.663 98.4336 127.598 98.2475 127.598 98.0359V87.349H129.076V98.0359C129.076 98.2475 129.003 98.4336 128.865 98.5775C128.727 98.7213 128.548 98.7975 128.337 98.7975Z" fill="white"/>
<path fill-rule="evenodd" clip-rule="evenodd" d="M124.526 87.3405C124.323 87.3405 124.161 87.4082 124.031 87.5436C123.909 87.6705 123.844 87.8398 123.844 88.0428C123.844 88.2459 123.909 88.4152 124.031 88.559C124.161 88.6859 124.331 88.7536 124.526 88.7536H127.631L127.598 98.0359C127.598 98.2475 127.671 98.4336 127.809 98.5775C127.947 98.7213 128.126 98.7975 128.337 98.7975C128.548 98.7975 128.719 98.7213 128.865 98.5775C129.011 98.4336 129.076 98.2475 129.076 98.0359L129 88.7536H132.148C132.351 88.7536 132.505 88.6859 132.635 88.559C132.765 88.4236 132.838 88.2544 132.838 88.0428C132.838 87.8313 132.773 87.6705 132.635 87.5436C132.513 87.4082 132.351 87.3405 132.148 87.3405H124.526ZM124.526 87.0273C124.25 87.0273 124.006 87.1289 123.811 87.3235C123.625 87.5181 123.535 87.772 123.535 88.0512C123.535 88.3304 123.625 88.5758 123.803 88.7789L123.82 88.7958C124.015 88.982 124.258 89.075 124.526 89.075H127.289V98.0358C127.289 98.332 127.386 98.5943 127.59 98.8058C127.793 99.0173 128.045 99.1189 128.337 99.1189C128.621 99.1189 128.881 99.0173 129.085 98.8058C129.288 98.5943 129.385 98.332 129.385 98.0358V89.075H132.14C132.408 89.075 132.651 88.9904 132.846 88.7873C133.041 88.5843 133.139 88.3304 133.139 88.0512C133.139 87.772 133.05 87.5181 132.846 87.3235C132.66 87.1204 132.416 87.0273 132.14 87.0273H124.526Z" fill="white"/>
</g>
<g filter="url(#filter6_d_3455_16826)">
<path d="M118.092 98.4759C117.913 98.5521 117.742 98.5606 117.58 98.5013C117.425 98.4336 117.303 98.3067 117.206 98.1206L113.948 91.7406C113.85 91.5544 113.842 91.3767 113.907 91.2159C113.98 91.0382 114.11 90.9113 114.289 90.8352C114.468 90.759 114.638 90.7506 114.801 90.8182C114.963 90.8775 115.085 90.9959 115.175 91.1821L118.295 97.5621C118.392 97.7482 118.425 97.9259 118.392 98.1036C118.376 98.2729 118.27 98.3998 118.092 98.4759ZM116.41 102.317C116.312 102.317 116.198 102.292 116.068 102.233C115.654 102.038 115.54 101.734 115.727 101.311L120.066 91.2075C120.253 90.7929 120.553 90.6829 120.96 90.8521C121.39 91.0382 121.504 91.3429 121.317 91.7744L116.962 101.861C116.857 102.165 116.67 102.317 116.41 102.317Z" fill="white"/>
<path fill-rule="evenodd" clip-rule="evenodd" d="M116.068 102.233C116.198 102.292 116.312 102.318 116.409 102.318C116.669 102.318 116.848 102.165 116.962 101.861L121.317 91.7744C121.504 91.3429 121.39 91.0383 120.959 90.8521C120.553 90.6744 120.252 90.7929 120.065 91.2075L117.785 96.5194L115.175 91.1821C115.085 90.9959 114.963 90.8775 114.801 90.8182C114.638 90.7506 114.468 90.759 114.289 90.8352C114.11 90.9113 113.98 91.0382 113.907 91.2159C113.842 91.3852 113.858 91.5544 113.948 91.7406L113.663 91.9014C113.533 91.6475 113.5 91.3683 113.606 91.106C113.712 90.8521 113.907 90.666 114.15 90.5644C114.394 90.4629 114.646 90.446 114.89 90.5475C115.134 90.6406 115.312 90.8267 115.426 91.0721L117.742 95.8021L119.765 91.089C119.879 90.8352 120.049 90.6321 120.301 90.5306C120.553 90.4375 120.813 90.4714 121.065 90.5814C121.325 90.6914 121.544 90.869 121.642 91.1314C121.739 91.3937 121.699 91.6729 121.585 91.9352L117.23 102.013C117.157 102.199 117.059 102.36 116.913 102.478C116.759 102.605 116.58 102.664 116.393 102.664C116.239 102.664 116.084 102.622 115.93 102.554C115.678 102.436 115.467 102.258 115.369 101.996C115.272 101.734 115.32 101.463 115.434 101.209L116.791 98.0529L113.663 91.9014L113.948 91.7406L117.147 98.0048L115.727 101.311C115.548 101.691 115.654 102.03 116.068 102.233Z" fill="white"/>
</g>
<g filter="url(#filter7_d_3455_16826)">
<path d="M111.559 98.8143C111.348 98.8143 111.177 98.7466 111.031 98.6112C110.901 98.4674 110.828 98.2812 110.828 98.0697V95.8274L111.096 94.2704L112.298 94.7949V98.061C112.298 98.2726 112.225 98.4587 112.087 98.6026C111.965 98.7464 111.77 98.8143 111.559 98.8143ZM108.374 97.5366C108.861 97.5366 109.292 97.4181 109.666 97.1812C110.048 96.9358 110.348 96.6058 110.56 96.1997C110.779 95.7766 110.885 95.3112 110.885 94.7951C110.885 94.2704 110.779 93.7966 110.56 93.3904C110.34 92.9674 110.04 92.6458 109.666 92.4089C109.284 92.1635 108.853 92.0451 108.374 92.0451C107.903 92.0451 107.464 92.1635 107.082 92.4089C106.7 92.6458 106.4 92.9674 106.172 93.3904C105.953 93.8051 105.847 94.2704 105.847 94.7951C105.847 95.3112 105.953 95.7851 106.172 96.1997C106.4 96.6143 106.7 96.9358 107.082 97.1812C107.464 97.4181 107.895 97.5366 108.374 97.5366ZM108.09 98.8566C107.399 98.8566 106.773 98.6789 106.221 98.332C105.668 97.9681 105.238 97.4858 104.913 96.8766C104.596 96.2589 104.441 95.5651 104.441 94.7951C104.441 94.0251 104.637 93.331 104.978 92.7133C105.327 92.0956 105.774 91.6135 106.359 91.2581C106.96 90.8943 107.626 90.7166 108.366 90.7166C109.105 90.7166 109.796 90.8941 110.381 91.2579C111 91.4416 111.437 92.0956 111.778 92.7133C112.128 93.331 112.298 94.0249 112.298 94.7949L111.73 94.7951C111.73 95.5651 111.567 96.2589 111.242 96.8766C110.925 97.4858 110.495 97.9681 109.95 98.332C109.398 98.6789 108.78 98.8566 108.09 98.8566Z" fill="white"/>
<path fill-rule="evenodd" clip-rule="evenodd" d="M106.205 90.9872C106.855 90.5979 107.578 90.4033 108.366 90.4033C109.154 90.4033 109.877 90.5979 110.519 90.9872C111.153 91.3679 111.657 91.8926 112.022 92.5526C112.372 93.1618 112.558 93.8387 112.583 94.5833H112.591V98.061C112.591 98.3572 112.493 98.6195 112.29 98.831C112.095 99.0341 111.843 99.1272 111.559 99.1272C111.275 99.1272 111.023 99.0341 110.82 98.8395L110.803 98.8226C110.657 98.6618 110.576 98.4841 110.535 98.2726C110.405 98.391 110.259 98.4926 110.113 98.5941C109.512 98.9833 108.829 99.1695 108.082 99.1695C107.334 99.1695 106.66 98.9833 106.05 98.5941C105.457 98.2049 104.986 97.6802 104.637 97.0287C104.295 96.3602 104.133 95.6156 104.133 94.7949C104.133 93.9741 104.312 93.221 104.685 92.5526C105.067 91.8926 105.571 91.3679 106.205 90.9872ZM109.503 96.9102C109.837 96.6987 110.097 96.411 110.292 96.0472C110.487 95.6749 110.584 95.2602 110.584 94.7949C110.584 94.3126 110.487 93.8979 110.292 93.5426C110.097 93.1702 109.837 92.8826 109.512 92.6795C109.187 92.4679 108.813 92.3579 108.382 92.3579C107.96 92.3579 107.586 92.4679 107.245 92.6795C106.912 92.8826 106.652 93.1702 106.448 93.5426C106.262 93.8979 106.156 94.3126 106.156 94.7949C106.156 95.2602 106.253 95.6749 106.448 96.0472C106.652 96.411 106.92 96.6987 107.253 96.9102C107.594 97.1133 107.968 97.2149 108.39 97.2149C108.805 97.2233 109.178 97.1133 109.503 96.9102ZM110.527 96.2756C110.543 96.2502 110.552 96.2249 110.568 96.2079C110.633 96.081 110.69 95.9541 110.73 95.8272C110.73 95.8187 110.738 95.8187 110.738 95.8102C110.844 95.4972 110.893 95.1587 110.893 94.8033C110.893 94.6002 110.877 94.4141 110.844 94.2279C110.836 94.1856 110.828 94.1433 110.82 94.101C110.763 93.8472 110.681 93.6104 110.56 93.3904C110.34 92.9674 110.04 92.6458 109.666 92.4089C109.284 92.1635 108.853 92.0451 108.374 92.0451C107.903 92.0451 107.464 92.1635 107.082 92.4089C106.7 92.6458 106.4 92.9674 106.172 93.3904C105.953 93.8051 105.847 94.2704 105.847 94.7951C105.847 95.3112 105.953 95.7851 106.172 96.1997C106.4 96.6143 106.7 96.9358 107.082 97.1812C107.472 97.4181 107.903 97.5366 108.374 97.5366C108.861 97.5366 109.292 97.4181 109.666 97.1812C110.023 96.9527 110.308 96.6564 110.527 96.2756ZM106.221 98.332C106.773 98.6874 107.391 98.8566 108.09 98.8566C108.78 98.8566 109.398 98.6789 109.95 98.332C110.161 98.1966 110.321 98.0146 110.5 97.8369C110.614 97.7269 110.747 97.5835 110.844 97.4566V98.061C110.844 98.2726 110.893 98.4674 111.031 98.6112C111.177 98.7466 111.348 98.8143 111.559 98.8143C111.77 98.8143 111.957 98.7379 112.087 98.6026C112.233 98.4587 112.298 98.2726 112.298 98.061V94.7949C112.298 94.6849 112.258 94.6213 112.25 94.5113C112.25 94.5113 112.071 93.2295 111.778 92.7133C111.437 92.0956 110.974 91.6133 110.381 91.2579C109.75 91.1858 109.13 90.7164 108.39 90.7164C107.651 90.7164 106.96 90.8943 106.359 91.2581C105.774 91.6135 105.327 92.0956 104.978 92.7133C104.637 93.331 104.466 94.0249 104.466 94.7949C104.466 95.5649 104.596 96.2589 104.913 96.8766C105.205 97.4858 105.668 97.9681 106.221 98.332Z" fill="white"/>
</g>
<g filter="url(#filter8_d_3455_16826)">
<path d="M94.7405 97.4522H96.5767C97.373 97.4522 98.0798 97.266 98.6811 96.8937C99.2986 96.513 99.9006 95.9393 100.25 95.2793C100.599 94.6109 100.664 93.9153 100.664 93.0606C100.664 92.1976 100.485 91.4445 100.135 90.7845C99.7861 90.133 99.2978 89.625 98.6803 89.2527C98.0709 88.8804 97.373 88.686 96.5767 88.686H94.7405V97.4522ZM94.0011 98.7976C93.7898 98.7976 93.6192 98.7214 93.473 98.5776C93.3267 98.4337 93.2617 98.2476 93.2617 98.036V88.1106C93.2617 87.8822 93.3348 87.7045 93.473 87.5691C93.6192 87.4253 93.7898 87.3491 94.0011 87.3491H96.5767C97.3892 87.3491 98.1359 87.5012 98.794 87.7804C99.4684 88.0512 100.054 88.4406 100.55 88.9568C101.045 89.4645 101.419 90.0653 101.687 90.7591C101.955 91.453 102.085 92.223 102.085 93.0606C102.085 93.8983 101.955 94.6768 101.687 95.3791C101.419 96.073 101.045 96.6822 100.55 97.1983C100.054 97.706 99.4692 98.1037 98.7948 98.383C98.1286 98.6537 97.3892 98.7976 96.5767 98.7976H94.0011Z" fill="white"/>
<path fill-rule="evenodd" clip-rule="evenodd" d="M100.25 95.2793C99.9006 95.9309 99.2978 96.5127 98.6803 96.8935C98.0709 97.2658 97.3722 97.452 96.5759 97.452H94.7396L94.7405 88.686L96.5849 88.686C97.3811 88.686 98.079 88.8804 98.6803 89.2527C99.2978 89.625 99.7861 90.133 100.135 90.7845C100.485 91.436 100.664 92.1976 100.664 93.0606C100.664 93.9068 100.608 94.6193 100.25 95.2793ZM98.5259 89.532C97.9734 89.1935 97.3234 89.0158 96.5759 89.0158H95.0484V97.1304H96.5759C97.3234 97.1304 97.9734 96.9527 98.5259 96.6143C99.0946 96.2589 99.5415 95.785 99.8665 95.1843C100.192 94.575 100.354 93.8643 100.354 93.0689C100.354 92.2566 100.192 91.5543 99.8665 90.9535C99.5415 90.3443 99.0946 89.8704 98.5259 89.532ZM100.55 88.9568C100.054 88.4406 99.4684 88.0512 98.794 87.7804C98.1278 87.4927 97.3892 87.3491 96.5767 87.3491H94.0011C93.7898 87.3491 93.6192 87.4253 93.473 87.5691C93.5 87.8607 93.2617 87.8906 93.2617 88.1106V98.036C93.2617 98.2476 93.3348 98.4337 93.473 98.5776C93.6192 98.7214 93.7898 98.7976 94.0011 98.7976H96.5767C97.3892 98.7976 98.1367 98.6622 98.7948 98.383C99.4692 98.0953 100.054 97.706 100.55 97.1983C101.045 96.6822 101.419 96.073 101.687 95.3791C101.955 94.6768 102.085 93.9068 102.085 93.0606C102.085 92.2145 101.955 91.453 101.687 90.7591C101.427 90.0653 101.045 89.4645 100.55 88.9568ZM101.979 95.4973C101.695 96.2335 101.297 96.8766 100.768 97.4266C100.248 97.9681 99.6228 98.3827 98.9159 98.6873C98.209 98.975 97.429 99.1189 96.5759 99.1189H94.0003C93.7159 99.1189 93.4559 99.0173 93.2528 98.8058C93.0496 98.5943 92.9521 98.332 92.9521 98.0358V88.1104C92.9521 87.8143 93.0496 87.5435 93.2609 87.3404C93.464 87.1373 93.7159 87.0273 94.0003 87.0273H96.5759C97.429 87.0273 98.209 87.1712 98.9159 87.4758C99.6309 87.7635 100.248 88.1866 100.768 88.7366C101.297 89.2781 101.695 89.9127 101.979 90.6489C102.263 91.385 102.402 92.1889 102.402 93.0689C102.402 93.9404 102.255 94.7527 101.979 95.4973Z" fill="white"/>
</g>
<g filter="url(#filter9_d_3455_16826)">
<path d="M85.7134 98.8655C84.9253 98.8655 84.2344 98.6876 83.6169 98.3407C83.0075 97.9853 82.5281 97.5114 82.1787 96.9022C81.8375 96.2845 81.6669 95.5822 81.6669 94.7868C81.6669 93.983 81.8294 93.2807 82.1544 92.6714C82.4875 92.0537 82.9265 91.6055 83.5034 91.2586C84.0803 90.9032 84.7625 90.7083 85.51 90.7083C86.2494 90.7083 86.8831 90.8776 87.4194 91.2245C87.9475 91.5545 88.3537 92.0199 88.63 92.6207C88.9144 93.2045 89.0606 93.8899 89.0606 94.6599C89.0606 94.846 88.9796 95.024 88.8578 95.1509C88.7359 95.2694 88.5815 95.3286 88.3865 95.3286L82.6662 95.3462V94.1268H88.3619L87.7769 94.5414C87.7687 94.0507 87.6712 93.6191 87.4925 93.2383C87.3137 92.8491 87.0538 92.536 86.7206 92.316C86.3875 92.0876 85.9812 91.9776 85.51 91.9776C84.9656 91.9776 84.5028 92.1047 84.1128 92.3501C83.7309 92.5955 83.4465 92.934 83.2434 93.3655C83.0403 93.7886 82.9425 94.2537 82.9425 94.7953C82.9425 95.3368 83.0565 95.8278 83.2921 96.2509C83.5278 96.674 83.8609 97.004 84.2753 97.2494C84.6896 97.4947 85.1769 97.596 85.7213 97.596C86.0138 97.596 86.3144 97.5453 86.615 97.4353C86.9319 97.3168 87.1837 97.1899 87.3706 97.0376C87.5169 96.9276 87.6631 96.8768 87.8256 96.8768C87.9962 96.8683 88.1425 96.9191 88.2644 97.0207C88.4269 97.1645 88.5081 97.3253 88.5244 97.503C88.5325 97.6807 88.4515 97.8501 88.289 97.977C87.964 98.2394 87.5659 98.4594 87.0784 98.6201C86.6071 98.7894 86.1521 98.8655 85.7134 98.8655Z" fill="white"/>
<path fill-rule="evenodd" clip-rule="evenodd" d="M83.3571 90.9709C83.9909 90.5901 84.7059 90.3955 85.5022 90.3955C86.2903 90.3955 86.9809 90.5817 87.574 90.954C88.159 91.3178 88.5978 91.834 88.8984 92.477C89.0934 92.8832 89.2315 93.3317 89.2965 93.8055L89.3047 93.8394C89.3372 94.1017 89.3615 94.3724 89.3615 94.6517C89.3615 94.9224 89.2722 95.1594 89.0853 95.3455L89.069 95.3624C88.8822 95.5401 88.6465 95.6247 88.3865 95.6247H83.3653C83.414 95.7855 83.479 95.9294 83.5603 96.0732C83.7715 96.4455 84.0559 96.7332 84.4297 96.9532C84.7953 97.1647 85.2178 97.2747 85.7134 97.2747C85.9734 97.2747 86.2334 97.2324 86.5096 97.1309C86.8021 97.0209 87.0215 96.9024 87.184 96.784C87.3709 96.6401 87.5821 96.564 87.8178 96.564C88.0615 96.5555 88.2809 96.6232 88.4678 96.784C88.6709 96.9701 88.8172 97.207 88.8253 97.4863C88.8415 97.7909 88.7034 98.0363 88.4759 98.214C88.1184 98.5017 87.6796 98.7386 87.1759 98.9078C86.6721 99.0855 86.1846 99.1701 85.7134 99.1701C84.8846 99.1701 84.129 98.9924 83.4628 98.6201C82.8128 98.2394 82.2928 97.7232 81.9109 97.0717C81.5371 96.4032 81.3584 95.6417 81.3584 94.804C81.3584 93.9578 81.529 93.1963 81.8784 92.5363C82.2359 91.8678 82.7315 91.3432 83.3571 90.9709ZM87.3628 93.8224C87.3221 93.6701 87.2734 93.5263 87.2084 93.3824C87.054 93.044 86.8346 92.7817 86.5503 92.587C86.274 92.4009 85.9328 92.2994 85.5103 92.2994C85.0146 92.2994 84.6084 92.4094 84.2753 92.6209C83.9503 92.8324 83.6984 93.1201 83.5196 93.5009C83.4709 93.6024 83.4303 93.7124 83.3978 93.8224H87.3628ZM83.047 93.8224C83.0145 93.924 82.9752 94.034 82.959 94.144H87.7446C87.7284 94.034 87.7744 93.8541 87.75 93.7441C87.7013 93.541 87.5737 93.416 87.4925 93.2383C87.3137 92.8491 87.0538 92.536 86.7206 92.316C86.5 91.9534 85.9812 91.9776 85.51 91.9776C84.9656 91.9776 84.5028 92.1047 84.1128 92.3501C83.7309 92.5955 83.4465 92.934 83.2434 93.3655C83.1703 93.5094 83.0876 93.6617 83.047 93.8224ZM83.6169 98.3407C84.2344 98.6791 84.9253 98.8655 85.7134 98.8655C86.1521 98.8655 86.6071 98.7809 87.0784 98.6201C87.5659 98.4509 87.964 98.2394 88.289 97.977C88.4515 97.8501 88.5246 97.6978 88.5165 97.5201C88.5084 97.3424 88.419 97.1817 88.2565 97.0378C88.1347 96.9278 87.9962 96.8683 87.8256 96.8768C87.6631 96.8768 87.5009 96.9447 87.3628 97.0547C87.1759 97.1986 86.9319 97.3168 86.615 97.4353C86.3144 97.5453 86.0138 97.596 85.7213 97.596C85.1769 97.596 84.6896 97.4947 84.2753 97.2494C83.8609 97.004 83.5278 96.674 83.2921 96.2509C83.1865 96.0647 83.1053 95.8617 83.0403 95.6501C83.0078 95.5486 82.9915 95.4386 82.9753 95.3286H88.3865C88.5734 95.3286 88.7359 95.2694 88.8578 95.1509C88.9796 95.024 89.0446 94.8632 89.0446 94.6855C89.0446 94.474 89.0365 94.2709 89.0121 94.0763C89.004 94.0001 88.9959 93.9155 88.9796 93.8394C88.9146 93.4078 88.7928 93.0101 88.614 92.6463C88.3378 92.054 87.9315 91.5886 87.4034 91.2501C86.8753 90.9117 86.2334 90.734 85.494 90.734C84.7465 90.734 84.0803 90.9117 83.5034 91.2586C82.9265 91.597 82.4875 92.0537 82.1544 92.6714C81.8294 93.2807 81.6669 93.983 81.6669 94.7868C81.6669 95.5822 81.8375 96.2845 82.1787 96.9022C82.5444 97.486 83.0156 97.9853 83.6169 98.3407Z" fill="white"/>
</g>
<g filter="url(#filter10_d_3455_16826)">
<path d="M72.5096 98.8142C72.2983 98.8142 72.1277 98.7465 71.9814 98.6111C71.8514 98.4672 71.7783 98.2811 71.7783 98.0696V91.5288C71.7783 91.3003 71.8433 91.1226 71.9814 90.9872C72.1277 90.8519 72.2983 90.7842 72.5096 90.7842C72.7289 90.7842 72.8996 90.8519 73.0377 90.9872C73.1677 91.1226 73.2408 91.3088 73.2408 91.5288V98.0696C73.2408 98.2811 73.1758 98.4672 73.0377 98.6111C72.9077 98.7465 72.7289 98.8142 72.5096 98.8142ZM78.3596 98.8142C78.1483 98.8142 77.9777 98.7465 77.8314 98.6111C77.7014 98.4672 77.6283 98.2811 77.6283 98.0696V94.4649C77.6283 93.9065 77.5308 93.4496 77.3277 93.1026C77.1246 92.7557 76.8654 92.4936 76.5241 92.3244C76.191 92.1467 75.8091 92.0621 75.3704 92.0621C75 92.2094 74.6058 92.1465 74.2808 92.3072C73.9558 92.4765 73.7129 92.6883 73.5179 92.976C73.331 93.2467 73.2335 93.5683 73.2335 93.9321L72.3308 93.9403C72.3308 93.3226 72.4771 92.7811 72.7614 92.2988C73.0539 91.808 73.4529 91.419 73.9566 91.1313C74.4604 90.8521 75.0202 90.7165 75.6539 90.7165C76.3121 90.7165 76.8898 90.8521 77.4098 91.1483C77.9298 91.4359 78.3352 91.8588 78.6358 92.4172C78.9364 92.9757 79.0908 93.6611 79.0908 94.4734V98.078C79.0908 98.2896 79.0177 98.4757 78.8796 98.6196C78.7414 98.7465 78.5708 98.8142 78.3596 98.8142Z" fill="white"/>
<path fill-rule="evenodd" clip-rule="evenodd" d="M73.5504 93.9321V98.0698C73.5504 98.3575 73.461 98.6198 73.266 98.8313C73.0629 99.0344 72.8029 99.1275 72.5185 99.1275C72.2341 99.1275 71.9823 99.0344 71.7791 98.8398L71.7629 98.8229C71.576 98.6113 71.4785 98.349 71.4785 98.0613V91.5206C71.4785 91.2244 71.5679 90.9621 71.771 90.7506C71.9741 90.5559 72.226 90.4629 72.5104 90.4629C72.7948 90.4629 73.0548 90.5559 73.2579 90.759C73.3473 90.8521 73.4204 90.9621 73.461 91.0721C73.5748 90.9875 73.6885 90.9198 73.8104 90.8521C74.3629 90.539 74.9804 90.3867 75.6548 90.3867C76.3535 90.3867 76.9873 90.5475 77.556 90.869C78.1329 91.1821 78.5798 91.6475 78.9048 92.2567C79.2379 92.8744 79.4004 93.6106 79.4004 94.4652V98.0698C79.4004 98.3659 79.3029 98.6283 79.0998 98.8398C78.9048 99.0429 78.6529 99.1359 78.3685 99.1359C78.0841 99.1359 77.8323 99.0429 77.6291 98.8483L77.621 98.8398L77.6129 98.8229C77.426 98.6113 77.3285 98.349 77.3285 98.0613V94.4567C77.3285 93.9321 77.231 93.5429 77.0685 93.2552C76.8979 92.959 76.6785 92.739 76.3941 92.6036H76.3779C76.0935 92.4513 75.7604 92.3752 75.3623 92.3752C75.0048 92.3752 74.696 92.4513 74.4198 92.5867C74.1435 92.7306 73.9241 92.9252 73.7698 93.1536C73.6235 93.3821 73.5504 93.6275 73.5504 93.9321ZM77.8404 98.6113C77.9866 98.7467 78.1573 98.8144 78.3685 98.8144C78.5798 98.8144 78.7504 98.7467 78.8804 98.6113C79.0266 98.4675 79.0916 98.2813 79.0916 98.0698L78.75 94.5117C78.75 93.6994 78.9364 92.9757 78.6358 92.4172C78.2964 91.8996 77.9379 91.4275 77.4098 91.1483C76.75 90.9303 76.3121 90.7165 75.6539 90.7165C75.0283 90.7165 74.4604 90.8521 73.9566 91.1313C73.8104 91.216 73.88 91.3404 73.75 91.442C73.7013 91.4758 73.7906 91.6555 73.75 91.6978C73.6931 91.7485 73.2823 91.6306 73.2335 91.6813L73.2408 91.5288C73.2408 91.4357 73.2254 91.3598 73.201 91.2836C73.1685 91.1652 73.1189 91.0719 73.0377 90.9872C72.9077 90.8519 72.7216 90.7844 72.5023 90.7844C72.291 90.7844 72.1277 90.8519 71.9814 90.9872C71.8514 91.1226 71.7783 91.3088 71.7783 91.5288V98.0696C71.7783 98.2811 71.8433 98.4672 71.9814 98.6111C72.1277 98.7465 72.2983 98.8142 72.5096 98.8142C72.7289 98.8142 72.8996 98.7465 73.0377 98.6111C73.1677 98.4672 73.2408 98.2811 73.2408 98.0696L73.2335 93.9321C73.2335 93.5683 73.331 93.2552 73.5179 92.976C73.5098 92.9844 73.526 92.9675 73.5179 92.976C73.5 92.4652 73.9721 92.4596 74.2808 92.3072C74.6058 92.138 74.9723 92.0621 75.3704 92.0621C75.8091 92.0621 76.191 92.1467 76.5241 92.3244C76.8654 92.4936 77.1335 92.7475 77.3366 93.1029C77.5398 93.4583 77.6373 93.9067 77.6373 94.4652V98.0698C77.6373 98.2813 77.7023 98.459 77.8404 98.6113Z" fill="white"/>
</g>
<g filter="url(#filter11_d_3455_16826)">
<path fill-rule="evenodd" clip-rule="evenodd" d="M60.0625 99.0773C65.0025 99.0773 69 94.9142 69 89.7696C69 84.625 65.0025 80.4619 60.0625 80.4619C55.1225 80.4619 51.125 84.625 51.125 89.7696C51.125 94.9142 55.1225 99.0773 60.0625 99.0773ZM60.0625 96.4711C63.6131 96.4711 66.4975 93.4673 66.4975 89.7696C66.4975 86.0719 63.6131 83.0681 60.0625 83.0681C56.5119 83.0681 53.6275 86.0719 53.6275 89.7696C53.6275 93.4673 56.5119 96.4711 60.0625 96.4711Z" fill="white"/>
</g>
</g>
<g filter="url(#filter12_d_3455_16826)">
<path d="M19.221 55.852V60H4.584V35.333H9.684V55.852H19.221ZM26.5297 42.473V60H21.8377V42.473H26.5297ZM27.0907 37.492C27.0907 37.8887 27.0113 38.257 26.8527 38.597C26.694 38.937 26.4787 39.2373 26.2067 39.498C25.946 39.7587 25.6343 39.9627 25.2717 40.11C24.9203 40.2573 24.5407 40.331 24.1327 40.331C23.7473 40.331 23.379 40.2573 23.0277 40.11C22.6877 39.9627 22.3873 39.7587 22.1267 39.498C21.866 39.2373 21.6563 38.937 21.4977 38.597C21.3503 38.257 21.2767 37.8887 21.2767 37.492C21.2767 37.0953 21.3503 36.727 21.4977 36.387C21.6563 36.0357 21.866 35.7297 22.1267 35.469C22.3873 35.2083 22.6877 35.0043 23.0277 34.857C23.379 34.7097 23.7473 34.636 24.1327 34.636C24.5407 34.636 24.9203 34.7097 25.2717 34.857C25.6343 35.0043 25.946 35.2083 26.2067 35.469C26.4787 35.7297 26.694 36.0357 26.8527 36.387C27.0113 36.727 27.0907 37.0953 27.0907 37.492ZM41.4307 46.077C41.306 46.2697 41.1757 46.4113 41.0397 46.502C40.915 46.5813 40.7394 46.621 40.5127 46.621C40.286 46.621 40.0537 46.5643 39.8157 46.451C39.5777 46.3377 39.3114 46.2187 39.0167 46.094C38.722 45.958 38.382 45.8333 37.9967 45.72C37.6227 45.6067 37.1864 45.55 36.6877 45.55C35.9284 45.55 35.339 45.7087 34.9197 46.026C34.5004 46.332 34.2907 46.74 34.2907 47.25C34.2907 47.6013 34.4097 47.896 34.6477 48.134C34.8857 48.372 35.1974 48.5817 35.5827 48.763C35.9794 48.933 36.427 49.0973 36.9257 49.256C37.4244 49.4033 37.9344 49.5677 38.4557 49.749C38.9884 49.9303 39.504 50.14 40.0027 50.378C40.5014 50.616 40.9434 50.9163 41.3287 51.279C41.7254 51.6303 42.0427 52.061 42.2807 52.571C42.5187 53.0697 42.6377 53.676 42.6377 54.39C42.6377 55.24 42.479 56.0277 42.1617 56.753C41.8557 57.467 41.4024 58.0847 40.8017 58.606C40.201 59.1273 39.453 59.5353 38.5577 59.83C37.6624 60.1247 36.631 60.272 35.4637 60.272C34.863 60.272 34.268 60.2153 33.6787 60.102C33.0894 60 32.5284 59.8527 31.9957 59.66C31.463 59.456 30.9644 59.2237 30.4997 58.963C30.035 58.7023 29.6327 58.419 29.2927 58.113L30.3807 56.362C30.5054 56.158 30.6584 55.9993 30.8397 55.886C31.0324 55.7727 31.276 55.716 31.5707 55.716C31.854 55.716 32.1147 55.7897 32.3527 55.937C32.5907 56.073 32.857 56.226 33.1517 56.396C33.4464 56.5547 33.792 56.7077 34.1887 56.855C34.5967 56.991 35.101 57.059 35.7017 57.059C36.155 57.059 36.546 57.008 36.8747 56.906C37.2034 56.804 37.4697 56.668 37.6737 56.498C37.8777 56.3167 38.025 56.1183 38.1157 55.903C38.2177 55.6763 38.2687 55.444 38.2687 55.206C38.2687 54.8207 38.144 54.509 37.8947 54.271C37.6567 54.0217 37.3394 53.8063 36.9427 53.625C36.5574 53.4437 36.1097 53.2793 35.5997 53.132C35.0897 52.9847 34.5684 52.8203 34.0357 52.639C33.5144 52.4577 32.9987 52.2423 32.4887 51.993C31.99 51.7437 31.5424 51.432 31.1457 51.058C30.7604 50.6727 30.443 50.2023 30.1937 49.647C29.9557 49.0917 29.8367 48.4173 29.8367 47.624C29.8367 46.8987 29.9784 46.213 30.2617 45.567C30.545 44.9097 30.97 44.3317 31.5367 43.833C32.1034 43.3343 32.806 42.9377 33.6447 42.643C34.4947 42.3483 35.475 42.201 36.5857 42.201C37.8324 42.201 38.9657 42.405 39.9857 42.813C41.0057 43.221 41.8444 43.7537 42.5017 44.411L41.4307 46.077ZM50.2667 55.376C50.7087 55.886 51.1847 56.243 51.6947 56.447C52.2161 56.651 52.7544 56.753 53.3097 56.753C53.8877 56.753 54.4091 56.651 54.8737 56.447C55.3497 56.2317 55.7577 55.8973 56.0977 55.444C56.4377 54.9793 56.6984 54.3787 56.8797 53.642C57.0611 52.9053 57.1517 52.0157 57.1517 50.973C57.1517 50.0437 57.0781 49.256 56.9307 48.61C56.7834 47.9527 56.5624 47.4143 56.2677 46.995C55.9844 46.5757 55.6331 46.2697 55.2137 46.077C54.7944 45.8843 54.3071 45.788 53.7517 45.788C53.0151 45.788 52.3747 45.9523 51.8307 46.281C51.2981 46.5983 50.7767 47.0687 50.2667 47.692V55.376ZM50.2667 44.496C50.9581 43.8047 51.7231 43.2493 52.5617 42.83C53.4004 42.4107 54.3411 42.201 55.3837 42.201C56.3924 42.201 57.2991 42.405 58.1037 42.813C58.9197 43.2097 59.6111 43.782 60.1777 44.53C60.7557 45.278 61.1977 46.1847 61.5037 47.25C61.8211 48.304 61.9797 49.4883 61.9797 50.803C61.9797 52.2197 61.7984 53.5117 61.4357 54.679C61.0844 55.835 60.5801 56.8267 59.9227 57.654C59.2654 58.4813 58.4777 59.1217 57.5597 59.575C56.6531 60.0283 55.6387 60.255 54.5167 60.255C53.9727 60.255 53.4854 60.1983 53.0547 60.085C52.6241 59.983 52.2274 59.8357 51.8647 59.643C51.5021 59.4503 51.1677 59.2237 50.8617 58.963C50.5557 58.691 50.2667 58.3907 49.9947 58.062L49.8077 59.116C49.7284 59.4447 49.5981 59.677 49.4167 59.813C49.2354 59.9377 48.9917 60 48.6857 60H45.5747V34.653H50.2667V44.496ZM72.9035 42.201C74.2182 42.201 75.4139 42.4107 76.4905 42.83C77.5672 43.2493 78.4909 43.85 79.2615 44.632C80.0322 45.4027 80.6272 46.3433 81.0465 47.454C81.4659 48.5647 81.6755 49.817 81.6755 51.211C81.6755 52.605 81.4659 53.863 81.0465 54.985C80.6272 56.0957 80.0322 57.042 79.2615 57.824C78.4909 58.606 77.5672 59.2067 76.4905 59.626C75.4139 60.0453 74.2182 60.255 72.9035 60.255C71.5775 60.255 70.3705 60.0453 69.2825 59.626C68.2059 59.2067 67.2822 58.606 66.5115 57.824C65.7409 57.042 65.1402 56.0957 64.7095 54.985C64.2902 53.863 64.0805 52.605 64.0805 51.211C64.0805 49.817 64.2902 48.5647 64.7095 47.454C65.1402 46.3433 65.7409 45.4027 66.5115 44.632C67.2822 43.85 68.2059 43.2493 69.2825 42.83C70.3705 42.4107 71.5775 42.201 72.9035 42.201ZM72.9035 56.736C74.2409 56.736 75.2325 56.277 75.8785 55.359C76.5245 54.4297 76.8475 53.0527 76.8475 51.228C76.8475 49.4147 76.5245 48.049 75.8785 47.131C75.2325 46.2017 74.2409 45.737 72.9035 45.737C71.5322 45.737 70.5235 46.2017 69.8775 47.131C69.2315 48.049 68.9085 49.4147 68.9085 51.228C68.9085 53.0527 69.2315 54.4297 69.8775 55.359C70.5235 56.277 71.5322 56.736 72.9035 56.736ZM88.9736 44.513C89.3249 44.173 89.6876 43.8613 90.0616 43.578C90.4469 43.2947 90.8493 43.051 91.2686 42.847C91.6993 42.643 92.1583 42.4843 92.6456 42.371C93.1443 42.2577 93.6826 42.201 94.2606 42.201C95.2126 42.201 96.0569 42.3653 96.7936 42.694C97.5303 43.0227 98.1479 43.4817 98.6466 44.071C99.1566 44.6603 99.5363 45.363 99.7856 46.179C100.046 46.995 100.177 47.8903 100.177 48.865V60H95.5016V48.865C95.5016 47.8903 95.2749 47.1367 94.8216 46.604C94.3683 46.06 93.6996 45.788 92.8156 45.788C92.1583 45.788 91.5406 45.9297 90.9626 46.213C90.3846 46.4963 89.8349 46.893 89.3136 47.403V60H84.6216V42.473H87.5116C88.1009 42.473 88.4919 42.745 88.6846 43.289L88.9736 44.513ZM118.152 48.729C117.37 49.2957 116.809 49.919 116.469 50.599C116.129 51.279 115.959 51.9987 115.959 52.758C115.959 53.3473 116.055 53.88 116.248 54.356C116.441 54.8207 116.707 55.223 117.047 55.563C117.387 55.8917 117.789 56.1467 118.254 56.328C118.719 56.5093 119.217 56.6 119.75 56.6C120.634 56.6 121.45 56.4753 122.198 56.226C122.957 55.9653 123.649 55.597 124.272 55.121L118.152 48.729ZM134.795 60H130.188C129.95 60 129.735 59.9887 129.542 59.966C129.361 59.9433 129.191 59.898 129.032 59.83C128.873 59.762 128.72 59.6713 128.573 59.558C128.426 59.4447 128.273 59.303 128.114 59.133L126.72 57.671C125.632 58.4983 124.431 59.1387 123.116 59.592C121.813 60.0453 120.413 60.272 118.917 60.272C117.954 60.272 117.007 60.1077 116.078 59.779C115.149 59.439 114.321 58.963 113.596 58.351C112.871 57.7277 112.287 56.9797 111.845 56.107C111.403 55.223 111.182 54.2313 111.182 53.132C111.182 52.3727 111.301 51.653 111.539 50.973C111.777 50.293 112.111 49.664 112.542 49.086C112.984 48.508 113.5 47.981 114.089 47.505C114.69 47.029 115.347 46.621 116.061 46.281C115.483 45.4423 115.064 44.6263 114.803 43.833C114.554 43.0283 114.429 42.235 114.429 41.453C114.429 40.5917 114.588 39.7757 114.905 39.005C115.222 38.223 115.681 37.543 116.282 36.965C116.883 36.3757 117.619 35.911 118.492 35.571C119.376 35.231 120.379 35.061 121.501 35.061C122.544 35.061 123.473 35.2197 124.289 35.537C125.105 35.843 125.796 36.2567 126.363 36.778C126.93 37.2993 127.372 37.8943 127.689 38.563C128.018 39.2317 128.216 39.9287 128.284 40.654L125.292 41.266C124.737 41.3793 124.334 41.1527 124.085 40.586C123.858 39.9967 123.541 39.515 123.133 39.141C122.736 38.7557 122.192 38.563 121.501 38.563C121.07 38.563 120.685 38.6423 120.345 38.801C120.005 38.9483 119.716 39.1523 119.478 39.413C119.251 39.6737 119.076 39.9797 118.951 40.331C118.838 40.671 118.781 41.0337 118.781 41.419C118.781 41.7363 118.809 42.0423 118.866 42.337C118.934 42.6317 119.036 42.932 119.172 43.238C119.319 43.5327 119.512 43.8387 119.75 44.156C119.988 44.4733 120.277 44.8133 120.617 45.176L126.958 51.806C127.309 51.1147 127.587 50.3893 127.791 49.63C127.995 48.8593 128.131 48.0717 128.199 47.267C128.233 46.9723 128.329 46.74 128.488 46.57C128.658 46.4 128.885 46.315 129.168 46.315H132.109C132.109 47.879 131.888 49.358 131.446 50.752C131.015 52.146 130.409 53.4267 129.627 54.594L134.795 60ZM153.762 47.607C155.36 47.607 156.527 47.2217 157.264 46.451C158.012 45.6803 158.386 44.6263 158.386 43.289C158.386 42.677 158.289 42.1217 158.097 41.623C157.915 41.113 157.632 40.6823 157.247 40.331C156.873 39.9683 156.397 39.6907 155.819 39.498C155.241 39.3053 154.555 39.209 153.762 39.209H150.532V47.607H153.762ZM153.762 35.333C155.45 35.333 156.907 35.5313 158.131 35.928C159.366 36.3247 160.38 36.88 161.174 37.594C161.967 38.2967 162.551 39.1353 162.925 40.11C163.31 41.0847 163.503 42.1443 163.503 43.289C163.503 44.5017 163.304 45.6123 162.908 46.621C162.511 47.6297 161.91 48.4967 161.106 49.222C160.301 49.9473 159.287 50.514 158.063 50.922C156.839 51.3187 155.405 51.517 153.762 51.517H150.532V60H145.432V35.333H153.762ZM173.243 42.201C174.558 42.201 175.754 42.4107 176.83 42.83C177.907 43.2493 178.831 43.85 179.601 44.632C180.372 45.4027 180.967 46.3433 181.386 47.454C181.806 48.5647 182.015 49.817 182.015 51.211C182.015 52.605 181.806 53.863 181.386 54.985C180.967 56.0957 180.372 57.042 179.601 57.824C178.831 58.606 177.907 59.2067 176.83 59.626C175.754 60.0453 174.558 60.255 173.243 60.255C171.917 60.255 170.71 60.0453 169.622 59.626C168.546 59.2067 167.622 58.606 166.851 57.824C166.081 57.042 165.48 56.0957 165.049 54.985C164.63 53.863 164.42 52.605 164.42 51.211C164.42 49.817 164.63 48.5647 165.049 47.454C165.48 46.3433 166.081 45.4027 166.851 44.632C167.622 43.85 168.546 43.2493 169.622 42.83C170.71 42.4107 171.917 42.201 173.243 42.201ZM173.243 56.736C174.581 56.736 175.572 56.277 176.218 55.359C176.864 54.4297 177.187 53.0527 177.187 51.228C177.187 49.4147 176.864 48.049 176.218 47.131C175.572 46.2017 174.581 45.737 173.243 45.737C171.872 45.737 170.863 46.2017 170.217 47.131C169.571 48.049 169.248 49.4147 169.248 51.228C169.248 53.0527 169.571 54.4297 170.217 55.359C170.863 56.277 171.872 56.736 173.243 56.736ZM189.364 45.363C189.92 44.3657 190.56 43.578 191.285 43C192.011 42.422 192.861 42.133 193.835 42.133C194.629 42.133 195.275 42.32 195.773 42.694L195.467 46.162C195.411 46.3887 195.32 46.5473 195.195 46.638C195.082 46.7173 194.923 46.757 194.719 46.757C194.538 46.757 194.277 46.7343 193.937 46.689C193.597 46.6323 193.28 46.604 192.985 46.604C192.555 46.604 192.169 46.6663 191.829 46.791C191.501 46.9157 191.206 47.0913 190.945 47.318C190.685 47.5447 190.447 47.8223 190.231 48.151C190.027 48.4797 189.835 48.8537 189.653 49.273V60H184.961V42.473H187.732C188.208 42.473 188.537 42.558 188.718 42.728C188.9 42.898 189.03 43.1927 189.109 43.612L189.364 45.363ZM203.83 60.272C203.037 60.272 202.334 60.1587 201.722 59.932C201.11 59.694 200.594 59.3597 200.175 58.929C199.756 58.4983 199.438 57.977 199.223 57.365C199.008 56.753 198.9 56.0617 198.9 55.291V45.839H197.251C197.002 45.839 196.786 45.7597 196.605 45.601C196.435 45.4423 196.35 45.2043 196.35 44.887V43.051L199.155 42.541L200.107 38.002C200.232 37.492 200.577 37.237 201.144 37.237H203.592V42.575H208.114V45.839H203.592V54.985C203.592 55.4723 203.705 55.8577 203.932 56.141C204.17 56.4243 204.504 56.566 204.935 56.566C205.162 56.566 205.354 56.5433 205.513 56.498C205.672 56.4413 205.808 56.3847 205.921 56.328C206.034 56.26 206.136 56.2033 206.227 56.158C206.329 56.1013 206.431 56.073 206.533 56.073C206.669 56.073 206.782 56.107 206.873 56.175C206.964 56.2317 207.054 56.3337 207.145 56.481L208.556 58.725C207.91 59.235 207.179 59.6203 206.363 59.881C205.547 60.1417 204.703 60.272 203.83 60.272ZM226.012 42.473V60H223.122C222.522 60 222.136 59.728 221.966 59.184L221.66 57.96C221.309 58.3 220.946 58.6117 220.572 58.895C220.198 59.1783 219.796 59.422 219.365 59.626C218.946 59.83 218.487 59.9887 217.988 60.102C217.501 60.2153 216.968 60.272 216.39 60.272C215.438 60.272 214.588 60.1077 213.84 59.779C213.104 59.4503 212.486 58.9913 211.987 58.402C211.489 57.8127 211.109 57.11 210.848 56.294C210.588 55.478 210.457 54.5827 210.457 53.608V42.473H215.149V53.608C215.149 54.5827 215.37 55.342 215.812 55.886C216.266 56.4187 216.934 56.685 217.818 56.685C218.476 56.685 219.093 56.5433 219.671 56.26C220.249 55.9653 220.799 55.5687 221.32 55.07V42.473H226.012ZM236.413 50.582C237.377 50.582 238.085 50.3383 238.538 49.851C239.003 49.3637 239.235 48.7347 239.235 47.964C239.235 47.1593 239.003 46.5303 238.538 46.077C238.085 45.6123 237.377 45.38 236.413 45.38C235.45 45.38 234.742 45.6123 234.288 46.077C233.835 46.5303 233.608 47.1593 233.608 47.964C233.608 48.7233 233.835 49.3523 234.288 49.851C234.753 50.3383 235.461 50.582 236.413 50.582ZM240.85 60.714C240.85 60.408 240.754 60.1587 240.561 59.966C240.369 59.7733 240.108 59.6203 239.779 59.507C239.462 59.3937 239.082 59.3143 238.64 59.269C238.198 59.2123 237.728 59.1727 237.229 59.15C236.731 59.116 236.215 59.0877 235.682 59.065C235.15 59.0423 234.628 59.0027 234.118 58.946C233.722 59.184 233.393 59.4673 233.132 59.796C232.883 60.1133 232.758 60.476 232.758 60.884C232.758 61.1673 232.821 61.428 232.945 61.666C233.081 61.904 233.302 62.108 233.608 62.278C233.914 62.448 234.317 62.5783 234.815 62.669C235.314 62.771 235.937 62.822 236.685 62.822C237.456 62.822 238.108 62.771 238.64 62.669C239.173 62.567 239.604 62.4197 239.932 62.227C240.261 62.0457 240.493 61.8247 240.629 61.564C240.777 61.3033 240.85 61.02 240.85 60.714ZM245.508 43.051V44.768C245.508 45.04 245.429 45.2553 245.27 45.414C245.123 45.5727 244.874 45.6917 244.522 45.771L243.094 46.06C243.287 46.6153 243.383 47.2103 243.383 47.845C243.383 48.7177 243.202 49.5053 242.839 50.208C242.488 50.8993 242.001 51.4943 241.377 51.993C240.754 52.4803 240.017 52.86 239.167 53.132C238.317 53.3927 237.399 53.523 236.413 53.523C235.79 53.523 235.206 53.472 234.662 53.37C234.186 53.6647 233.948 53.9877 233.948 54.339C233.948 54.6677 234.107 54.9057 234.424 55.053C234.753 55.2003 235.178 55.308 235.699 55.376C236.232 55.4327 236.833 55.4723 237.501 55.495C238.181 55.5063 238.867 55.5403 239.558 55.597C240.261 55.6537 240.947 55.7557 241.615 55.903C242.295 56.039 242.896 56.2713 243.417 56.6C243.95 56.9173 244.375 57.3423 244.692 57.875C245.021 58.4077 245.185 59.0933 245.185 59.932C245.185 60.714 244.993 61.4733 244.607 62.21C244.222 62.9467 243.661 63.604 242.924 64.182C242.199 64.76 241.304 65.2247 240.238 65.576C239.173 65.9273 237.96 66.103 236.6 66.103C235.252 66.103 234.079 65.9727 233.081 65.712C232.095 65.4627 231.274 65.1227 230.616 64.692C229.97 64.2727 229.489 63.7853 229.171 63.23C228.854 62.6747 228.695 62.0967 228.695 61.496C228.695 60.714 228.933 60.051 229.409 59.507C229.885 58.963 230.543 58.5267 231.381 58.198C230.939 57.9487 230.582 57.6257 230.31 57.229C230.05 56.821 229.919 56.294 229.919 55.648C229.919 55.1267 230.106 54.577 230.48 53.999C230.866 53.421 231.455 52.9393 232.248 52.554C231.353 52.078 230.645 51.4433 230.123 50.65C229.602 49.8453 229.341 48.9103 229.341 47.845C229.341 46.9723 229.517 46.1847 229.868 45.482C230.231 44.7793 230.73 44.1843 231.364 43.697C231.999 43.1983 232.747 42.8187 233.608 42.558C234.47 42.2973 235.405 42.167 236.413 42.167C237.909 42.167 239.23 42.4617 240.374 43.051H245.508ZM257.111 52.673C255.966 52.7297 255.014 52.8317 254.255 52.979C253.495 53.115 252.889 53.2963 252.436 53.523C251.994 53.7497 251.676 54.0103 251.484 54.305C251.302 54.5883 251.212 54.9 251.212 55.24C251.212 55.92 251.399 56.4017 251.773 56.685C252.158 56.9683 252.691 57.11 253.371 57.11C254.153 57.11 254.827 56.974 255.394 56.702C255.972 56.4187 256.544 55.9823 257.111 55.393V52.673ZM247.557 44.904C248.588 43.9747 249.727 43.2833 250.974 42.83C252.22 42.3653 253.569 42.133 255.02 42.133C256.062 42.133 256.992 42.303 257.808 42.643C258.635 42.983 259.332 43.459 259.899 44.071C260.477 44.6717 260.919 45.3913 261.225 46.23C261.531 47.0687 261.684 47.9867 261.684 48.984V60H259.542C259.1 60 258.76 59.9377 258.522 59.813C258.295 59.6883 258.108 59.4277 257.961 59.031L257.587 57.909C257.145 58.2943 256.714 58.6343 256.295 58.929C255.887 59.2237 255.462 59.473 255.02 59.677C254.578 59.8697 254.102 60.017 253.592 60.119C253.093 60.221 252.532 60.272 251.909 60.272C251.138 60.272 250.435 60.17 249.801 59.966C249.166 59.762 248.616 59.4617 248.152 59.065C247.698 58.657 247.347 58.1527 247.098 57.552C246.848 56.9513 246.724 56.26 246.724 55.478C246.724 54.832 246.888 54.186 247.217 53.54C247.545 52.894 248.106 52.3103 248.9 51.789C249.704 51.2563 250.77 50.82 252.096 50.48C253.433 50.1287 255.105 49.9303 257.111 49.885V48.984C257.111 47.8847 256.878 47.08 256.414 46.57C255.949 46.0487 255.28 45.788 254.408 45.788C253.762 45.788 253.223 45.8673 252.793 46.026C252.362 46.1733 251.982 46.3377 251.654 46.519C251.336 46.689 251.036 46.8533 250.753 47.012C250.469 47.1593 250.141 47.233 249.767 47.233C249.438 47.233 249.16 47.1537 248.934 46.995C248.718 46.825 248.537 46.6267 248.39 46.4L247.557 44.904ZM270.072 34.653V60H265.38V34.653H270.072Z" fill="white"/>
</g>
<g filter="url(#filter13_d_3455_16826)">
<path d="M11.612 16.443L11.603 18H3.593V5.076H11.603V6.633H5.519V10.728H10.415V12.231H5.519V16.443H11.612ZM21.2897 18H19.5977C19.4597 18 19.3487 17.964 19.2647 17.892C19.1867 17.814 19.1237 17.733 19.0757 17.649L16.8707 14.166C16.8407 14.256 16.8107 14.343 16.7807 14.427C16.7507 14.511 16.7117 14.589 16.6637 14.661L14.6387 17.649C14.5787 17.733 14.5097 17.814 14.4317 17.892C14.3537 17.964 14.2517 18 14.1257 18H12.5597L15.7457 13.293L12.6857 8.856H14.3777C14.5157 8.856 14.6147 8.877 14.6747 8.919C14.7407 8.961 14.7977 9.024 14.8457 9.108L17.0147 12.447C17.0447 12.357 17.0777 12.27 17.1137 12.186C17.1497 12.096 17.1977 12.003 17.2577 11.907L19.1207 9.144C19.2287 8.952 19.3727 8.856 19.5527 8.856H21.1637L18.1037 13.212L21.2897 18ZM24.447 15.75C24.735 16.128 25.044 16.392 25.374 16.542C25.71 16.692 26.085 16.767 26.499 16.767C27.303 16.767 27.924 16.479 28.362 15.903C28.806 15.321 29.028 14.475 29.028 13.365C29.028 12.783 28.977 12.288 28.875 11.88C28.779 11.466 28.635 11.13 28.443 10.872C28.257 10.608 28.026 10.416 27.75 10.296C27.474 10.17 27.162 10.107 26.814 10.107C26.304 10.107 25.86 10.221 25.482 10.449C25.11 10.677 24.765 11.001 24.447 11.421V15.75ZM24.357 10.224C24.549 9.996 24.753 9.789 24.969 9.603C25.191 9.411 25.428 9.249 25.68 9.117C25.932 8.979 26.199 8.874 26.481 8.802C26.769 8.724 27.075 8.685 27.399 8.685C27.921 8.685 28.392 8.787 28.812 8.991C29.238 9.195 29.601 9.495 29.901 9.891C30.201 10.287 30.432 10.776 30.594 11.358C30.762 11.94 30.846 12.609 30.846 13.365C30.846 14.043 30.753 14.673 30.567 15.255C30.387 15.831 30.126 16.332 29.784 16.758C29.448 17.184 29.034 17.52 28.542 17.766C28.056 18.006 27.507 18.126 26.895 18.126C26.349 18.126 25.881 18.036 25.491 17.856C25.101 17.676 24.753 17.424 24.447 17.1V21.069H22.692V8.856H23.745C23.991 8.856 24.144 8.973 24.204 9.207L24.357 10.224ZM38.874 12.411C38.874 12.063 38.823 11.742 38.721 11.448C38.625 11.154 38.481 10.899 38.289 10.683C38.097 10.467 37.863 10.299 37.587 10.179C37.311 10.059 36.993 9.999 36.633 9.999C35.895 9.999 35.313 10.212 34.887 10.638C34.467 11.064 34.2 11.655 34.086 12.411H38.874ZM40.323 16.695C40.107 16.947 39.858 17.166 39.576 17.352C39.294 17.532 38.994 17.679 38.676 17.793C38.358 17.907 38.028 17.991 37.686 18.045C37.35 18.099 37.017 18.126 36.687 18.126C36.057 18.126 35.472 18.021 34.932 17.811C34.398 17.595 33.933 17.283 33.537 16.875C33.147 16.461 32.841 15.951 32.619 15.345C32.403 14.733 32.295 14.031 32.295 13.239C32.295 12.603 32.394 12.012 32.592 11.466C32.79 10.914 33.072 10.434 33.438 10.026C33.81 9.618 34.263 9.297 34.797 9.063C35.331 8.829 35.931 8.712 36.597 8.712C37.155 8.712 37.668 8.805 38.136 8.991C38.61 9.171 39.018 9.435 39.36 9.783C39.702 10.131 39.969 10.56 40.161 11.07C40.359 11.58 40.458 12.162 40.458 12.816C40.458 13.086 40.428 13.269 40.368 13.365C40.308 13.455 40.197 13.5 40.035 13.5H34.041C34.059 14.046 34.137 14.523 34.275 14.931C34.413 15.333 34.602 15.669 34.842 15.939C35.088 16.209 35.379 16.41 35.715 16.542C36.051 16.674 36.426 16.74 36.84 16.74C37.23 16.74 37.566 16.695 37.848 16.605C38.136 16.515 38.382 16.419 38.586 16.317C38.796 16.209 38.97 16.11 39.108 16.02C39.252 15.93 39.378 15.885 39.486 15.885C39.63 15.885 39.741 15.939 39.819 16.047L40.323 16.695ZM44.0003 10.611C44.2943 10.011 44.6483 9.54 45.0623 9.198C45.4763 8.856 45.9743 8.685 46.5563 8.685C46.7543 8.685 46.9403 8.709 47.1143 8.757C47.2943 8.799 47.4503 8.865 47.5823 8.955L47.4653 10.278C47.4233 10.44 47.3243 10.521 47.1683 10.521C47.0843 10.521 46.9583 10.506 46.7903 10.476C46.6223 10.44 46.4423 10.422 46.2503 10.422C45.9683 10.422 45.7193 10.464 45.5033 10.548C45.2873 10.626 45.0923 10.746 44.9183 10.908C44.7503 11.064 44.6003 11.259 44.4683 11.493C44.3363 11.721 44.2133 11.982 44.0993 12.276V18H42.3443V8.856H43.3523C43.5443 8.856 43.6733 8.892 43.7393 8.964C43.8113 9.03 43.8623 9.15 43.8923 9.324L44.0003 10.611ZM50.7721 8.856V18H49.0171V8.856H50.7721ZM51.1051 6.03C51.1051 6.192 51.0721 6.348 51.0061 6.498C50.9401 6.642 50.8501 6.771 50.7361 6.885C50.6281 6.993 50.4991 7.08 50.3491 7.146C50.1991 7.206 50.0431 7.236 49.8811 7.236C49.7191 7.236 49.5661 7.206 49.4221 7.146C49.2781 7.08 49.1491 6.993 49.0351 6.885C48.9271 6.771 48.8401 6.642 48.7741 6.498C48.7141 6.348 48.6841 6.192 48.6841 6.03C48.6841 5.862 48.7141 5.706 48.7741 5.562C48.8401 5.412 48.9271 5.283 49.0351 5.175C49.1491 5.061 49.2781 4.974 49.4221 4.914C49.5661 4.848 49.7191 4.815 49.8811 4.815C50.0431 4.815 50.1991 4.848 50.3491 4.914C50.4991 4.974 50.6281 5.061 50.7361 5.175C50.8501 5.283 50.9401 5.412 51.0061 5.562C51.0721 5.706 51.1051 5.862 51.1051 6.03ZM59.3701 12.411C59.3701 12.063 59.3191 11.742 59.2171 11.448C59.1211 11.154 58.9771 10.899 58.7851 10.683C58.5931 10.467 58.3591 10.299 58.0831 10.179C57.8071 10.059 57.4891 9.999 57.1291 9.999C56.3911 9.999 55.8091 10.212 55.3831 10.638C54.9631 11.064 54.6961 11.655 54.5821 12.411H59.3701ZM60.8191 16.695C60.6031 16.947 60.3541 17.166 60.0721 17.352C59.7901 17.532 59.4901 17.679 59.1721 17.793C58.8541 17.907 58.5241 17.991 58.1821 18.045C57.8461 18.099 57.5131 18.126 57.1831 18.126C56.5531 18.126 55.9681 18.021 55.4281 17.811C54.8941 17.595 54.4291 17.283 54.0331 16.875C53.6431 16.461 53.3371 15.951 53.1151 15.345C52.8991 14.733 52.7911 14.031 52.7911 13.239C52.7911 12.603 52.8901 12.012 53.0881 11.466C53.2861 10.914 53.5681 10.434 53.9341 10.026C54.3061 9.618 54.7591 9.297 55.2931 9.063C55.8271 8.829 56.4271 8.712 57.0931 8.712C57.6511 8.712 58.1641 8.805 58.6321 8.991C59.1061 9.171 59.5141 9.435 59.8561 9.783C60.1981 10.131 60.4651 10.56 60.6571 11.07C60.8551 11.58 60.9541 12.162 60.9541 12.816C60.9541 13.086 60.9241 13.269 60.8641 13.365C60.8041 13.455 60.6931 13.5 60.5311 13.5H54.5371C54.5551 14.046 54.6331 14.523 54.7711 14.931C54.9091 15.333 55.0981 15.669 55.3381 15.939C55.5841 16.209 55.8751 16.41 56.2111 16.542C56.5471 16.674 56.9221 16.74 57.3361 16.74C57.7261 16.74 58.0621 16.695 58.3441 16.605C58.6321 16.515 58.8781 16.419 59.0821 16.317C59.2921 16.209 59.4661 16.11 59.6041 16.02C59.7481 15.93 59.8741 15.885 59.9821 15.885C60.1261 15.885 60.2371 15.939 60.3151 16.047L60.8191 16.695ZM64.4874 10.125C64.6854 9.915 64.8924 9.723 65.1084 9.549C65.3244 9.375 65.5524 9.228 65.7924 9.108C66.0384 8.982 66.2994 8.886 66.5754 8.82C66.8574 8.748 67.1574 8.712 67.4754 8.712C67.9794 8.712 68.4204 8.796 68.7984 8.964C69.1824 9.132 69.5034 9.369 69.7614 9.675C70.0194 9.975 70.2144 10.338 70.3464 10.764C70.4784 11.19 70.5444 11.661 70.5444 12.177V18H68.7804V12.177C68.7804 11.523 68.6304 11.016 68.3304 10.656C68.0304 10.29 67.5714 10.107 66.9534 10.107C66.5034 10.107 66.0804 10.215 65.6844 10.431C65.2944 10.641 64.9314 10.929 64.5954 11.295V18H62.8404V8.856H63.8934C64.1394 8.856 64.2924 8.973 64.3524 9.207L64.4874 10.125ZM79.3207 10.566C79.2667 10.632 79.2127 10.686 79.1587 10.728C79.1107 10.764 79.0387 10.782 78.9427 10.782C78.8467 10.782 78.7447 10.746 78.6367 10.674C78.5347 10.596 78.4027 10.515 78.2407 10.431C78.0847 10.341 77.8927 10.26 77.6647 10.188C77.4427 10.11 77.1667 10.071 76.8367 10.071C76.4047 10.071 76.0237 10.149 75.6937 10.305C75.3637 10.461 75.0877 10.683 74.8657 10.971C74.6497 11.259 74.4847 11.61 74.3707 12.024C74.2567 12.438 74.1997 12.903 74.1997 13.419C74.1997 13.953 74.2597 14.43 74.3797 14.85C74.4997 15.264 74.6707 15.615 74.8927 15.903C75.1147 16.185 75.3847 16.401 75.7027 16.551C76.0207 16.695 76.3747 16.767 76.7647 16.767C77.1427 16.767 77.4547 16.722 77.7007 16.632C77.9467 16.536 78.1507 16.434 78.3127 16.326C78.4747 16.218 78.6097 16.119 78.7177 16.029C78.8257 15.933 78.9367 15.885 79.0507 15.885C79.1947 15.885 79.3057 15.939 79.3837 16.047L79.8877 16.695C79.6777 16.953 79.4407 17.172 79.1767 17.352C78.9187 17.532 78.6427 17.679 78.3487 17.793C78.0547 17.907 77.7457 17.991 77.4217 18.045C77.1037 18.099 76.7797 18.126 76.4497 18.126C75.8797 18.126 75.3457 18.021 74.8477 17.811C74.3557 17.601 73.9267 17.295 73.5607 16.893C73.2007 16.491 72.9157 15.999 72.7057 15.417C72.4957 14.829 72.3907 14.163 72.3907 13.419C72.3907 12.741 72.4837 12.114 72.6697 11.538C72.8617 10.962 73.1407 10.467 73.5067 10.053C73.8787 9.633 74.3347 9.306 74.8747 9.072C75.4147 8.832 76.0327 8.712 76.7287 8.712C77.3827 8.712 77.9587 8.817 78.4567 9.027C78.9547 9.237 79.3987 9.534 79.7887 9.918L79.3207 10.566ZM87.4248 12.411C87.4248 12.063 87.3738 11.742 87.2718 11.448C87.1758 11.154 87.0318 10.899 86.8398 10.683C86.6478 10.467 86.4138 10.299 86.1378 10.179C85.8618 10.059 85.5438 9.999 85.1838 9.999C84.4458 9.999 83.8638 10.212 83.4378 10.638C83.0178 11.064 82.7508 11.655 82.6368 12.411H87.4248ZM88.8738 16.695C88.6578 16.947 88.4088 17.166 88.1268 17.352C87.8448 17.532 87.5448 17.679 87.2268 17.793C86.9088 17.907 86.5788 17.991 86.2368 18.045C85.9008 18.099 85.5678 18.126 85.2378 18.126C84.6078 18.126 84.0228 18.021 83.4828 17.811C82.9488 17.595 82.4838 17.283 82.0878 16.875C81.6978 16.461 81.3918 15.951 81.1698 15.345C80.9538 14.733 80.8458 14.031 80.8458 13.239C80.8458 12.603 80.9448 12.012 81.1428 11.466C81.3408 10.914 81.6228 10.434 81.9888 10.026C82.3608 9.618 82.8138 9.297 83.3478 9.063C83.8818 8.829 84.4818 8.712 85.1478 8.712C85.7058 8.712 86.2188 8.805 86.6868 8.991C87.1608 9.171 87.5688 9.435 87.9108 9.783C88.2528 10.131 88.5198 10.56 88.7118 11.07C88.9098 11.58 89.0088 12.162 89.0088 12.816C89.0088 13.086 88.9788 13.269 88.9188 13.365C88.8588 13.455 88.7478 13.5 88.5858 13.5H82.5918C82.6098 14.046 82.6878 14.523 82.8258 14.931C82.9638 15.333 83.1528 15.669 83.3928 15.939C83.6388 16.209 83.9298 16.41 84.2658 16.542C84.6018 16.674 84.9768 16.74 85.3908 16.74C85.7808 16.74 86.1168 16.695 86.3988 16.605C86.6868 16.515 86.9328 16.419 87.1368 16.317C87.3468 16.209 87.5208 16.11 87.6588 16.02C87.8028 15.93 87.9288 15.885 88.0368 15.885C88.1808 15.885 88.2918 15.939 88.3698 16.047L88.8738 16.695Z" fill="white"/>
</g>
<defs>
<filter id="filter0_d_3455_16826" x="0.223633" y="83.626" width="42.6987" height="21.5176" filterUnits="userSpaceOnUse" color-interpolation-filters="sRGB">
<feFlood flood-opacity="0" result="BackgroundImageFix"/>
<feColorMatrix in="SourceAlpha" type="matrix" values="0 0 0 0 0 0 0 0 0 0 0 0 0 0 0 0 0 0 127 0" result="hardAlpha"/>
<feOffset dx="2" dy="2"/>
<feGaussianBlur stdDeviation="2"/>
<feComposite in2="hardAlpha" operator="out"/>
<feColorMatrix type="matrix" values="0 0 0 0 0 0 0 0 0 0 0 0 0 0 0 0 0 0 0.25 0"/>
<feBlend mode="normal" in2="BackgroundImageFix" result="effect1_dropShadow_3455_16826"/>
<feBlend mode="normal" in="SourceGraphic" in2="effect1_dropShadow_3455_16826" result="shape"/>
</filter>
<filter id="filter1_d_3455_16826" x="158" y="88.4189" width="15.0156" height="16.7578" filterUnits="userSpaceOnUse" color-interpolation-filters="sRGB">
<feFlood flood-opacity="0" result="BackgroundImageFix"/>
<feColorMatrix in="SourceAlpha" type="matrix" values="0 0 0 0 0 0 0 0 0 0 0 0 0 0 0 0 0 0 127 0" result="hardAlpha"/>
<feOffset dx="2" dy="2"/>
<feGaussianBlur stdDeviation="2"/>
<feComposite in2="hardAlpha" operator="out"/>
<feColorMatrix type="matrix" values="0 0 0 0 0 0 0 0 0 0 0 0 0 0 0 0 0 0 0.25 0"/>
<feBlend mode="normal" in2="BackgroundImageFix" result="effect1_dropShadow_3455_16826"/>
<feBlend mode="normal" in="SourceGraphic" in2="effect1_dropShadow_3455_16826" result="shape"/>
</filter>
<filter id="filter2_d_3455_16826" x="150.891" y="88.3613" width="14.0479" height="16.7578" filterUnits="userSpaceOnUse" color-interpolation-filters="sRGB">
<feFlood flood-opacity="0" result="BackgroundImageFix"/>
<feColorMatrix in="SourceAlpha" type="matrix" values="0 0 0 0 0 0 0 0 0 0 0 0 0 0 0 0 0 0 127 0" result="hardAlpha"/>
<feOffset dx="2" dy="2"/>
<feGaussianBlur stdDeviation="2"/>
<feComposite in2="hardAlpha" operator="out"/>
<feColorMatrix type="matrix" values="0 0 0 0 0 0 0 0 0 0 0 0 0 0 0 0 0 0 0.25 0"/>
<feBlend mode="normal" in2="BackgroundImageFix" result="effect1_dropShadow_3455_16826"/>
<feBlend mode="normal" in="SourceGraphic" in2="effect1_dropShadow_3455_16826" result="shape"/>
</filter>
<filter id="filter3_d_3455_16826" x="140.475" y="88.4609" width="15.9058" height="16.7422" filterUnits="userSpaceOnUse" color-interpolation-filters="sRGB">
<feFlood flood-opacity="0" result="BackgroundImageFix"/>
<feColorMatrix in="SourceAlpha" type="matrix" values="0 0 0 0 0 0 0 0 0 0 0 0 0 0 0 0 0 0 127 0" result="hardAlpha"/>
<feOffset dx="2" dy="2"/>
<feGaussianBlur stdDeviation="2"/>
<feComposite in2="hardAlpha" operator="out"/>
<feColorMatrix type="matrix" values="0 0 0 0 0 0 0 0 0 0 0 0 0 0 0 0 0 0 0.25 0"/>
<feBlend mode="normal" in2="BackgroundImageFix" result="effect1_dropShadow_3455_16826"/>
<feBlend mode="normal" in="SourceGraphic" in2="effect1_dropShadow_3455_16826" result="shape"/>
</filter>
<filter id="filter4_d_3455_16826" x="130.059" y="88.4033" width="16.4502" height="16.7744" filterUnits="userSpaceOnUse" color-interpolation-filters="sRGB">
<feFlood flood-opacity="0" result="BackgroundImageFix"/>
<feColorMatrix in="SourceAlpha" type="matrix" values="0 0 0 0 0 0 0 0 0 0 0 0 0 0 0 0 0 0 127 0" result="hardAlpha"/>
<feOffset dx="2" dy="2"/>
<feGaussianBlur stdDeviation="2"/>
<feComposite in2="hardAlpha" operator="out"/>
<feColorMatrix type="matrix" values="0 0 0 0 0 0 0 0 0 0 0 0 0 0 0 0 0 0 0.25 0"/>
<feBlend mode="normal" in2="BackgroundImageFix" result="effect1_dropShadow_3455_16826"/>
<feBlend mode="normal" in="SourceGraphic" in2="effect1_dropShadow_3455_16826" result="shape"/>
</filter>
<filter id="filter5_d_3455_16826" x="121.535" y="85.0273" width="17.6035" height="20.0918" filterUnits="userSpaceOnUse" color-interpolation-filters="sRGB">
<feFlood flood-opacity="0" result="BackgroundImageFix"/>
<feColorMatrix in="SourceAlpha" type="matrix" values="0 0 0 0 0 0 0 0 0 0 0 0 0 0 0 0 0 0 127 0" result="hardAlpha"/>
<feOffset dx="2" dy="2"/>
<feGaussianBlur stdDeviation="2"/>
<feComposite in2="hardAlpha" operator="out"/>
<feColorMatrix type="matrix" values="0 0 0 0 0 0 0 0 0 0 0 0 0 0 0 0 0 0 0.25 0"/>
<feBlend mode="normal" in2="BackgroundImageFix" result="effect1_dropShadow_3455_16826"/>
<feBlend mode="normal" in="SourceGraphic" in2="effect1_dropShadow_3455_16826" result="shape"/>
</filter>
<filter id="filter6_d_3455_16826" x="111.543" y="88.4766" width="16.1538" height="20.1875" filterUnits="userSpaceOnUse" color-interpolation-filters="sRGB">
<feFlood flood-opacity="0" result="BackgroundImageFix"/>
<feColorMatrix in="SourceAlpha" type="matrix" values="0 0 0 0 0 0 0 0 0 0 0 0 0 0 0 0 0 0 127 0" result="hardAlpha"/>
<feOffset dx="2" dy="2"/>
<feGaussianBlur stdDeviation="2"/>
<feComposite in2="hardAlpha" operator="out"/>
<feColorMatrix type="matrix" values="0 0 0 0 0 0 0 0 0 0 0 0 0 0 0 0 0 0 0.25 0"/>
<feBlend mode="normal" in2="BackgroundImageFix" result="effect1_dropShadow_3455_16826"/>
<feBlend mode="normal" in="SourceGraphic" in2="effect1_dropShadow_3455_16826" result="shape"/>
</filter>
<filter id="filter7_d_3455_16826" x="102.133" y="88.4033" width="16.458" height="16.7666" filterUnits="userSpaceOnUse" color-interpolation-filters="sRGB">
<feFlood flood-opacity="0" result="BackgroundImageFix"/>
<feColorMatrix in="SourceAlpha" type="matrix" values="0 0 0 0 0 0 0 0 0 0 0 0 0 0 0 0 0 0 127 0" result="hardAlpha"/>
<feOffset dx="2" dy="2"/>
<feGaussianBlur stdDeviation="2"/>
<feComposite in2="hardAlpha" operator="out"/>
<feColorMatrix type="matrix" values="0 0 0 0 0 0 0 0 0 0 0 0 0 0 0 0 0 0 0.25 0"/>
<feBlend mode="normal" in2="BackgroundImageFix" result="effect1_dropShadow_3455_16826"/>
<feBlend mode="normal" in="SourceGraphic" in2="effect1_dropShadow_3455_16826" result="shape"/>
</filter>
<filter id="filter8_d_3455_16826" x="90.9521" y="85.0273" width="17.4492" height="20.0918" filterUnits="userSpaceOnUse" color-interpolation-filters="sRGB">
<feFlood flood-opacity="0" result="BackgroundImageFix"/>
<feColorMatrix in="SourceAlpha" type="matrix" values="0 0 0 0 0 0 0 0 0 0 0 0 0 0 0 0 0 0 127 0" result="hardAlpha"/>
<feOffset dx="2" dy="2"/>
<feGaussianBlur stdDeviation="2"/>
<feComposite in2="hardAlpha" operator="out"/>
<feColorMatrix type="matrix" values="0 0 0 0 0 0 0 0 0 0 0 0 0 0 0 0 0 0 0.25 0"/>
<feBlend mode="normal" in2="BackgroundImageFix" result="effect1_dropShadow_3455_16826"/>
<feBlend mode="normal" in="SourceGraphic" in2="effect1_dropShadow_3455_16826" result="shape"/>
</filter>
<filter id="filter9_d_3455_16826" x="79.3584" y="88.3955" width="16.0029" height="16.7744" filterUnits="userSpaceOnUse" color-interpolation-filters="sRGB">
<feFlood flood-opacity="0" result="BackgroundImageFix"/>
<feColorMatrix in="SourceAlpha" type="matrix" values="0 0 0 0 0 0 0 0 0 0 0 0 0 0 0 0 0 0 127 0" result="hardAlpha"/>
<feOffset dx="2" dy="2"/>
<feGaussianBlur stdDeviation="2"/>
<feComposite in2="hardAlpha" operator="out"/>
<feColorMatrix type="matrix" values="0 0 0 0 0 0 0 0 0 0 0 0 0 0 0 0 0 0 0.25 0"/>
<feBlend mode="normal" in2="BackgroundImageFix" result="effect1_dropShadow_3455_16826"/>
<feBlend mode="normal" in="SourceGraphic" in2="effect1_dropShadow_3455_16826" result="shape"/>
</filter>
<filter id="filter10_d_3455_16826" x="69.4785" y="88.3867" width="15.9219" height="16.749" filterUnits="userSpaceOnUse" color-interpolation-filters="sRGB">
<feFlood flood-opacity="0" result="BackgroundImageFix"/>
<feColorMatrix in="SourceAlpha" type="matrix" values="0 0 0 0 0 0 0 0 0 0 0 0 0 0 0 0 0 0 127 0" result="hardAlpha"/>
<feOffset dx="2" dy="2"/>
<feGaussianBlur stdDeviation="2"/>
<feComposite in2="hardAlpha" operator="out"/>
<feColorMatrix type="matrix" values="0 0 0 0 0 0 0 0 0 0 0 0 0 0 0 0 0 0 0.25 0"/>
<feBlend mode="normal" in2="BackgroundImageFix" result="effect1_dropShadow_3455_16826"/>
<feBlend mode="normal" in="SourceGraphic" in2="effect1_dropShadow_3455_16826" result="shape"/>
</filter>
<filter id="filter11_d_3455_16826" x="49.125" y="78.4619" width="25.875" height="26.6152" filterUnits="userSpaceOnUse" color-interpolation-filters="sRGB">
<feFlood flood-opacity="0" result="BackgroundImageFix"/>
<feColorMatrix in="SourceAlpha" type="matrix" values="0 0 0 0 0 0 0 0 0 0 0 0 0 0 0 0 0 0 127 0" result="hardAlpha"/>
<feOffset dx="2" dy="2"/>
<feGaussianBlur stdDeviation="2"/>
<feComposite in2="hardAlpha" operator="out"/>
<feColorMatrix type="matrix" values="0 0 0 0 0 0 0 0 0 0 0 0 0 0 0 0 0 0 0.25 0"/>
<feBlend mode="normal" in2="BackgroundImageFix" result="effect1_dropShadow_3455_16826"/>
<feBlend mode="normal" in="SourceGraphic" in2="effect1_dropShadow_3455_16826" result="shape"/>
</filter>
<filter id="filter12_d_3455_16826" x="2.58398" y="32.6357" width="273.488" height="39.4668" filterUnits="userSpaceOnUse" color-interpolation-filters="sRGB">
<feFlood flood-opacity="0" result="BackgroundImageFix"/>
<feColorMatrix in="SourceAlpha" type="matrix" values="0 0 0 0 0 0 0 0 0 0 0 0 0 0 0 0 0 0 127 0" result="hardAlpha"/>
<feOffset dx="2" dy="2"/>
<feGaussianBlur stdDeviation="2"/>
<feComposite in2="hardAlpha" operator="out"/>
<feColorMatrix type="matrix" values="0 0 0 0 0 0 0 0 0 0 0 0 0 0 0 0 0 0 0.25 0"/>
<feBlend mode="normal" in2="BackgroundImageFix" result="effect1_dropShadow_3455_16826"/>
<feBlend mode="normal" in="SourceGraphic" in2="effect1_dropShadow_3455_16826" result="shape"/>
</filter>
<filter id="filter13_d_3455_16826" x="1.59277" y="2.81543" width="93.416" height="24.2539" filterUnits="userSpaceOnUse" color-interpolation-filters="sRGB">
<feFlood flood-opacity="0" result="BackgroundImageFix"/>
<feColorMatrix in="SourceAlpha" type="matrix" values="0 0 0 0 0 0 0 0 0 0 0 0 0 0 0 0 0 0 127 0" result="hardAlpha"/>
<feOffset dx="2" dy="2"/>
<feGaussianBlur stdDeviation="2"/>
<feComposite in2="hardAlpha" operator="out"/>
<feColorMatrix type="matrix" values="0 0 0 0 0 0 0 0 0 0 0 0 0 0 0 0 0 0 0.3 0"/>
<feBlend mode="normal" in2="BackgroundImageFix" result="effect1_dropShadow_3455_16826"/>
<feBlend mode="normal" in="SourceGraphic" in2="effect1_dropShadow_3455_16826" result="shape"/>
</filter>
<clipPath id="clip0_3455_16826">
<rect width="130" height="44" fill="white" transform="translate(43 72)"/>
</clipPath>
</defs>
</svg>
