<svg width="545" height="238" viewBox="0 0 545 238" fill="none" xmlns="http://www.w3.org/2000/svg">
<g filter="url(#filter0_d_3454_16825)">
<path d="M36.442 110.704V119H7.16797V69.6665H17.368V110.704H36.442Z" fill="white"/>
<path d="M51.0593 83.9465V119H41.6753V83.9465H51.0593ZM52.1813 73.9845C52.1813 74.7778 52.0226 75.5145 51.7053 76.1945C51.388 76.8745 50.9573 77.4751 50.4133 77.9965C49.892 78.5178 49.2686 78.9258 48.5433 79.2205C47.8406 79.5151 47.0813 79.6625 46.2653 79.6625C45.4946 79.6625 44.758 79.5151 44.0553 79.2205C43.3753 78.9258 42.7746 78.5178 42.2533 77.9965C41.732 77.4751 41.3126 76.8745 40.9953 76.1945C40.7006 75.5145 40.5533 74.7778 40.5533 73.9845C40.5533 73.1911 40.7006 72.4545 40.9953 71.7745C41.3126 71.0718 41.732 70.4598 42.2533 69.9385C42.7746 69.4171 43.3753 69.0091 44.0553 68.7145C44.758 68.4198 45.4946 68.2725 46.2653 68.2725C47.0813 68.2725 47.8406 68.4198 48.5433 68.7145C49.2686 69.0091 49.892 69.4171 50.4133 69.9385C50.9573 70.4598 51.388 71.0718 51.7053 71.7745C52.0226 72.4545 52.1813 73.1911 52.1813 73.9845Z" fill="white"/>
<path d="M80.8614 91.1545C80.612 91.5398 80.3514 91.8231 80.0794 92.0045C79.83 92.1631 79.4787 92.2425 79.0254 92.2425C78.572 92.2425 78.1074 92.1291 77.6314 91.9025C77.1554 91.6758 76.6227 91.4378 76.0334 91.1885C75.444 90.9165 74.764 90.6671 73.9934 90.4405C73.2454 90.2138 72.3727 90.1005 71.3754 90.1005C69.8567 90.1005 68.678 90.4178 67.8394 91.0525C67.0007 91.6645 66.5814 92.4805 66.5814 93.5005C66.5814 94.2031 66.8194 94.7925 67.2954 95.2685C67.7714 95.7445 68.3947 96.1638 69.1654 96.5265C69.9587 96.8665 70.854 97.1951 71.8514 97.5125C72.8487 97.8071 73.8687 98.1358 74.9114 98.4985C75.9767 98.8611 77.008 99.2805 78.0054 99.7565C79.0027 100.232 79.8867 100.833 80.6574 101.558C81.4507 102.261 82.0854 103.122 82.5614 104.142C83.0374 105.14 83.2754 106.352 83.2754 107.78C83.2754 109.48 82.958 111.056 82.3234 112.506C81.7114 113.934 80.8047 115.17 79.6034 116.212C78.402 117.255 76.906 118.071 75.1154 118.66C73.3247 119.25 71.262 119.544 68.9274 119.544C67.726 119.544 66.536 119.431 65.3574 119.204C64.1787 119 63.0567 118.706 61.9914 118.32C60.926 117.912 59.9287 117.448 58.9994 116.926C58.07 116.405 57.2654 115.838 56.5854 115.226L58.7614 111.724C59.0107 111.316 59.3167 110.999 59.6794 110.772C60.0647 110.546 60.552 110.432 61.1414 110.432C61.708 110.432 62.2294 110.58 62.7054 110.874C63.1814 111.146 63.714 111.452 64.3034 111.792C64.8927 112.11 65.584 112.416 66.3774 112.71C67.1934 112.982 68.202 113.118 69.4034 113.118C70.31 113.118 71.092 113.016 71.7494 112.812C72.4067 112.608 72.9394 112.336 73.3474 111.996C73.7554 111.634 74.05 111.237 74.2314 110.806C74.4354 110.353 74.5374 109.888 74.5374 109.412C74.5374 108.642 74.288 108.018 73.7894 107.542C73.3134 107.044 72.6787 106.613 71.8854 106.25C71.1147 105.888 70.2194 105.559 69.1994 105.264C68.1794 104.97 67.1367 104.641 66.0714 104.278C65.0287 103.916 63.9974 103.485 62.9774 102.986C61.98 102.488 61.0847 101.864 60.2914 101.116C59.5207 100.346 58.886 99.4051 58.3874 98.2945C57.9114 97.1838 57.6734 95.8351 57.6734 94.2485C57.6734 92.7978 57.9567 91.4265 58.5234 90.1345C59.09 88.8198 59.94 87.6638 61.0734 86.6665C62.2067 85.6691 63.612 84.8758 65.2894 84.2865C66.9894 83.6971 68.95 83.4025 71.1714 83.4025C73.6647 83.4025 75.9314 83.8105 77.9714 84.6265C80.0114 85.4425 81.6887 86.5078 83.0034 87.8225L80.8614 91.1545Z" fill="white"/>
<path d="M98.5334 109.752C99.4174 110.772 100.369 111.486 101.389 111.894C102.432 112.302 103.509 112.506 104.619 112.506C105.775 112.506 106.818 112.302 107.747 111.894C108.699 111.464 109.515 110.795 110.195 109.888C110.875 108.959 111.397 107.758 111.759 106.284C112.122 104.811 112.303 103.032 112.303 100.946C112.303 99.0878 112.156 97.5125 111.861 96.2205C111.567 94.9058 111.125 93.8291 110.535 92.9905C109.969 92.1518 109.266 91.5398 108.427 91.1545C107.589 90.7691 106.614 90.5765 105.503 90.5765C104.03 90.5765 102.749 90.9051 101.661 91.5625C100.596 92.1971 99.5534 93.1378 98.5334 94.3845V109.752ZM98.5334 87.9925C99.9161 86.6098 101.446 85.4991 103.123 84.6605C104.801 83.8218 106.682 83.4025 108.767 83.4025C110.785 83.4025 112.598 83.8105 114.207 84.6265C115.839 85.4198 117.222 86.5645 118.355 88.0605C119.511 89.5565 120.395 91.3698 121.007 93.5005C121.642 95.6085 121.959 97.9771 121.959 100.606C121.959 103.44 121.597 106.024 120.871 108.358C120.169 110.67 119.16 112.654 117.845 114.308C116.531 115.963 114.955 117.244 113.119 118.15C111.306 119.057 109.277 119.51 107.033 119.51C105.945 119.51 104.971 119.397 104.109 119.17C103.248 118.966 102.455 118.672 101.729 118.286C101.004 117.901 100.335 117.448 99.7234 116.926C99.1114 116.382 98.5334 115.782 97.9894 115.124L97.6154 117.232C97.4567 117.89 97.1961 118.354 96.8334 118.626C96.4707 118.876 95.9834 119 95.3714 119H89.1494V68.3065H98.5334V87.9925Z" fill="white"/>
<path d="M143.807 83.4025C146.436 83.4025 148.828 83.8218 150.981 84.6605C153.134 85.4991 154.982 86.7005 156.523 88.2645C158.064 89.8058 159.254 91.6871 160.093 93.9085C160.932 96.1298 161.351 98.6345 161.351 101.422C161.351 104.21 160.932 106.726 160.093 108.97C159.254 111.192 158.064 113.084 156.523 114.648C154.982 116.212 153.134 117.414 150.981 118.252C148.828 119.091 146.436 119.51 143.807 119.51C141.155 119.51 138.741 119.091 136.565 118.252C134.412 117.414 132.564 116.212 131.023 114.648C129.482 113.084 128.28 111.192 127.419 108.97C126.58 106.726 126.161 104.21 126.161 101.422C126.161 98.6345 126.58 96.1298 127.419 93.9085C128.28 91.6871 129.482 89.8058 131.023 88.2645C132.564 86.7005 134.412 85.4991 136.565 84.6605C138.741 83.8218 141.155 83.4025 143.807 83.4025ZM143.807 112.472C146.482 112.472 148.465 111.554 149.757 109.718C151.049 107.86 151.695 105.106 151.695 101.456C151.695 97.8298 151.049 95.0985 149.757 93.2625C148.465 91.4038 146.482 90.4745 143.807 90.4745C141.064 90.4745 139.047 91.4038 137.755 93.2625C136.463 95.0985 135.817 97.8298 135.817 101.456C135.817 105.106 136.463 107.86 137.755 109.718C139.047 111.554 141.064 112.472 143.807 112.472Z" fill="white"/>
<path d="M175.947 88.0265C176.65 87.3465 177.375 86.7231 178.123 86.1565C178.894 85.5898 179.698 85.1025 180.537 84.6945C181.398 84.2865 182.316 83.9691 183.291 83.7425C184.288 83.5158 185.365 83.4025 186.521 83.4025C188.425 83.4025 190.114 83.7311 191.587 84.3885C193.06 85.0458 194.296 85.9638 195.293 87.1425C196.313 88.3211 197.072 89.7265 197.571 91.3585C198.092 92.9905 198.353 94.7811 198.353 96.7305V119H189.003V96.7305C189.003 94.7811 188.55 93.2738 187.643 92.2085C186.736 91.1205 185.399 90.5765 183.631 90.5765C182.316 90.5765 181.081 90.8598 179.925 91.4265C178.769 91.9931 177.67 92.7865 176.627 93.8065V119H167.243V83.9465H173.023C174.202 83.9465 174.984 84.4905 175.369 85.5785L175.947 88.0265Z" fill="white"/>
<path d="M234.304 96.4585C232.74 97.5918 231.618 98.8385 230.938 100.198C230.258 101.558 229.918 102.998 229.918 104.516C229.918 105.695 230.111 106.76 230.496 107.712C230.881 108.642 231.414 109.446 232.094 110.126C232.774 110.784 233.579 111.294 234.508 111.656C235.437 112.019 236.435 112.2 237.5 112.2C239.268 112.2 240.9 111.951 242.396 111.452C243.915 110.931 245.297 110.194 246.544 109.242L234.304 96.4585ZM267.59 119H258.376C257.9 119 257.469 118.978 257.084 118.932C256.721 118.887 256.381 118.796 256.064 118.66C255.747 118.524 255.441 118.343 255.146 118.116C254.851 117.89 254.545 117.606 254.228 117.266L251.44 114.342C249.264 115.997 246.861 117.278 244.232 118.184C241.625 119.091 238.826 119.544 235.834 119.544C233.907 119.544 232.015 119.216 230.156 118.558C228.297 117.878 226.643 116.926 225.192 115.702C223.741 114.456 222.574 112.96 221.69 111.214C220.806 109.446 220.364 107.463 220.364 105.264C220.364 103.746 220.602 102.306 221.078 100.946C221.554 99.5865 222.223 98.3285 223.084 97.1725C223.968 96.0165 224.999 94.9625 226.178 94.0105C227.379 93.0585 228.694 92.2425 230.122 91.5625C228.966 89.8851 228.127 88.2531 227.606 86.6665C227.107 85.0571 226.858 83.4705 226.858 81.9065C226.858 80.1838 227.175 78.5518 227.81 77.0105C228.445 75.4465 229.363 74.0865 230.564 72.9305C231.765 71.7518 233.239 70.8225 234.984 70.1425C236.752 69.4625 238.758 69.1225 241.002 69.1225C243.087 69.1225 244.946 69.4398 246.578 70.0745C248.21 70.6865 249.593 71.5138 250.726 72.5565C251.859 73.5991 252.743 74.7891 253.378 76.1265C254.035 77.4638 254.432 78.8578 254.568 80.3085L248.584 81.5325C247.473 81.7591 246.669 81.3058 246.17 80.1725C245.717 78.9938 245.082 78.0305 244.266 77.2825C243.473 76.5118 242.385 76.1265 241.002 76.1265C240.141 76.1265 239.37 76.2851 238.69 76.6025C238.01 76.8971 237.432 77.3051 236.956 77.8265C236.503 78.3478 236.151 78.9598 235.902 79.6625C235.675 80.3425 235.562 81.0678 235.562 81.8385C235.562 82.4731 235.619 83.0851 235.732 83.6745C235.868 84.2638 236.072 84.8645 236.344 85.4765C236.639 86.0658 237.024 86.6778 237.5 87.3125C237.976 87.9471 238.554 88.6271 239.234 89.3525L251.916 102.612C252.619 101.23 253.174 99.7791 253.582 98.2605C253.99 96.7191 254.262 95.1438 254.398 93.5345C254.466 92.9451 254.659 92.4805 254.976 92.1405C255.316 91.8005 255.769 91.6305 256.336 91.6305H262.218C262.218 94.7585 261.776 97.7165 260.892 100.504C260.031 103.292 258.818 105.854 257.254 108.188L267.59 119Z" fill="white"/>
<path d="M305.523 94.2145C308.719 94.2145 311.054 93.4438 312.527 91.9025C314.023 90.3611 314.771 88.2531 314.771 85.5785C314.771 84.3545 314.579 83.2438 314.193 82.2465C313.831 81.2265 313.264 80.3651 312.493 79.6625C311.745 78.9371 310.793 78.3818 309.637 77.9965C308.481 77.6111 307.11 77.4185 305.523 77.4185H299.063V94.2145H305.523ZM305.523 69.6665C308.901 69.6665 311.813 70.0631 314.261 70.8565C316.732 71.6498 318.761 72.7605 320.347 74.1885C321.934 75.5938 323.101 77.2711 323.849 79.2205C324.62 81.1698 325.005 83.2891 325.005 85.5785C325.005 88.0038 324.609 90.2251 323.815 92.2425C323.022 94.2598 321.821 95.9938 320.211 97.4445C318.602 98.8951 316.573 100.028 314.125 100.844C311.677 101.638 308.81 102.034 305.523 102.034H299.063V119H288.863V69.6665H305.523Z" fill="white"/>
<path d="M344.487 83.4025C347.116 83.4025 349.507 83.8218 351.661 84.6605C353.814 85.4991 355.661 86.7005 357.203 88.2645C358.744 89.8058 359.934 91.6871 360.773 93.9085C361.611 96.1298 362.031 98.6345 362.031 101.422C362.031 104.21 361.611 106.726 360.773 108.97C359.934 111.192 358.744 113.084 357.203 114.648C355.661 116.212 353.814 117.414 351.661 118.252C349.507 119.091 347.116 119.51 344.487 119.51C341.835 119.51 339.421 119.091 337.245 118.252C335.091 117.414 333.244 116.212 331.703 114.648C330.161 113.084 328.96 111.192 328.099 108.97C327.26 106.726 326.841 104.21 326.841 101.422C326.841 98.6345 327.26 96.1298 328.099 93.9085C328.96 91.6871 330.161 89.8058 331.703 88.2645C333.244 86.7005 335.091 85.4991 337.245 84.6605C339.421 83.8218 341.835 83.4025 344.487 83.4025ZM344.487 112.472C347.161 112.472 349.145 111.554 350.437 109.718C351.729 107.86 352.375 105.106 352.375 101.456C352.375 97.8298 351.729 95.0985 350.437 93.2625C349.145 91.4038 347.161 90.4745 344.487 90.4745C341.744 90.4745 339.727 91.4038 338.435 93.2625C337.143 95.0985 336.497 97.8298 336.497 101.456C336.497 105.106 337.143 107.86 338.435 109.718C339.727 111.554 341.744 112.472 344.487 112.472Z" fill="white"/>
<path d="M376.729 89.7265C377.84 87.7318 379.12 86.1565 380.571 85.0005C382.021 83.8445 383.721 83.2665 385.671 83.2665C387.258 83.2665 388.549 83.6405 389.547 84.3885L388.935 91.3245C388.822 91.7778 388.64 92.0951 388.391 92.2765C388.164 92.4351 387.847 92.5145 387.439 92.5145C387.076 92.5145 386.555 92.4691 385.875 92.3785C385.195 92.2651 384.56 92.2085 383.971 92.2085C383.11 92.2085 382.339 92.3331 381.659 92.5825C381.002 92.8318 380.412 93.1831 379.891 93.6365C379.37 94.0898 378.893 94.6451 378.463 95.3025C378.055 95.9598 377.67 96.7078 377.307 97.5465V119H367.923V83.9465H373.465C374.417 83.9465 375.074 84.1165 375.437 84.4565C375.799 84.7965 376.06 85.3858 376.219 86.2245L376.729 89.7265Z" fill="white"/>
<path d="M405.66 119.544C404.073 119.544 402.668 119.318 401.444 118.864C400.22 118.388 399.188 117.72 398.35 116.858C397.511 115.997 396.876 114.954 396.446 113.73C396.015 112.506 395.8 111.124 395.8 109.582V90.6785H392.502C392.003 90.6785 391.572 90.5198 391.21 90.2025C390.87 89.8851 390.7 89.4091 390.7 88.7745V85.1025L396.31 84.0825L398.214 75.0045C398.463 73.9845 399.154 73.4745 400.288 73.4745H405.184V84.1505H414.228V90.6785H405.184V108.97C405.184 109.945 405.41 110.716 405.864 111.282C406.34 111.849 407.008 112.132 407.87 112.132C408.323 112.132 408.708 112.087 409.026 111.996C409.343 111.883 409.615 111.77 409.842 111.656C410.068 111.52 410.272 111.407 410.454 111.316C410.658 111.203 410.862 111.146 411.066 111.146C411.338 111.146 411.564 111.214 411.746 111.35C411.927 111.464 412.108 111.668 412.29 111.962L415.112 116.45C413.82 117.47 412.358 118.241 410.726 118.762C409.094 119.284 407.405 119.544 405.66 119.544Z" fill="white"/>
<path d="M450.025 83.9465V119H444.245C443.044 119 442.273 118.456 441.933 117.368L441.321 114.92C440.618 115.6 439.893 116.224 439.145 116.79C438.397 117.357 437.592 117.844 436.731 118.252C435.892 118.66 434.974 118.978 433.977 119.204C433.002 119.431 431.937 119.544 430.781 119.544C428.877 119.544 427.177 119.216 425.681 118.558C424.208 117.901 422.972 116.983 421.975 115.804C420.978 114.626 420.218 113.22 419.697 111.588C419.176 109.956 418.915 108.166 418.915 106.216V83.9465H428.299V106.216C428.299 108.166 428.741 109.684 429.625 110.772C430.532 111.838 431.869 112.37 433.637 112.37C434.952 112.37 436.187 112.087 437.343 111.52C438.499 110.931 439.598 110.138 440.641 109.14V83.9465H450.025Z" fill="white"/>
<path d="M470.827 100.164C472.753 100.164 474.17 99.6771 475.077 98.7025C476.006 97.7278 476.47 96.4698 476.47 94.9285C476.47 93.3191 476.006 92.0611 475.077 91.1545C474.17 90.2251 472.753 89.7605 470.827 89.7605C468.9 89.7605 467.483 90.2251 466.577 91.1545C465.67 92.0611 465.216 93.3191 465.216 94.9285C465.216 96.4471 465.67 97.7051 466.577 98.7025C467.506 99.6771 468.923 100.164 470.827 100.164ZM479.701 120.428C479.701 119.816 479.508 119.318 479.122 118.932C478.737 118.547 478.216 118.241 477.559 118.014C476.924 117.788 476.164 117.629 475.28 117.538C474.396 117.425 473.456 117.346 472.458 117.3C471.461 117.232 470.43 117.176 469.365 117.13C468.299 117.085 467.257 117.006 466.237 116.892C465.443 117.368 464.786 117.935 464.264 118.592C463.766 119.227 463.517 119.952 463.517 120.768C463.517 121.335 463.641 121.856 463.891 122.332C464.163 122.808 464.604 123.216 465.216 123.556C465.828 123.896 466.633 124.157 467.63 124.338C468.628 124.542 469.875 124.644 471.371 124.644C472.912 124.644 474.215 124.542 475.28 124.338C476.346 124.134 477.207 123.84 477.865 123.454C478.522 123.092 478.987 122.65 479.259 122.128C479.553 121.607 479.701 121.04 479.701 120.428ZM489.017 85.1025V88.5365C489.017 89.0805 488.858 89.5111 488.54 89.8285C488.246 90.1458 487.747 90.3838 487.044 90.5425L484.189 91.1205C484.574 92.2311 484.767 93.4211 484.767 94.6905C484.767 96.4358 484.404 98.0111 483.678 99.4165C482.976 100.799 482.001 101.989 480.754 102.986C479.508 103.961 478.035 104.72 476.335 105.264C474.634 105.786 472.799 106.046 470.827 106.046C469.58 106.046 468.413 105.944 467.324 105.74C466.372 106.33 465.897 106.976 465.897 107.678C465.897 108.336 466.214 108.812 466.849 109.106C467.506 109.401 468.356 109.616 469.398 109.752C470.464 109.866 471.665 109.945 473.003 109.99C474.362 110.013 475.734 110.081 477.116 110.194C478.522 110.308 479.893 110.512 481.23 110.806C482.59 111.078 483.792 111.543 484.835 112.2C485.9 112.835 486.75 113.685 487.384 114.75C488.042 115.816 488.371 117.187 488.371 118.864C488.371 120.428 487.985 121.947 487.215 123.42C486.444 124.894 485.322 126.208 483.849 127.364C482.398 128.52 480.607 129.45 478.477 130.152C476.346 130.855 473.921 131.206 471.201 131.206C468.503 131.206 466.157 130.946 464.163 130.424C462.19 129.926 460.547 129.246 459.233 128.384C457.941 127.546 456.977 126.571 456.342 125.46C455.708 124.35 455.391 123.194 455.391 121.992C455.391 120.428 455.867 119.102 456.819 118.014C457.771 116.926 459.085 116.054 460.763 115.396C459.879 114.898 459.165 114.252 458.621 113.458C458.099 112.642 457.839 111.588 457.839 110.296C457.839 109.254 458.213 108.154 458.961 106.998C459.731 105.842 460.91 104.879 462.496 104.108C460.706 103.156 459.289 101.887 458.246 100.3C457.204 98.6911 456.682 96.8211 456.682 94.6905C456.682 92.9451 457.034 91.3698 457.737 89.9645C458.462 88.5591 459.459 87.3691 460.728 86.3945C461.998 85.3971 463.494 84.6378 465.216 84.1165C466.939 83.5951 468.809 83.3345 470.827 83.3345C473.819 83.3345 476.459 83.9238 478.749 85.1025H489.017Z" fill="white"/>
<path d="M512.221 104.346C509.932 104.46 508.028 104.664 506.509 104.958C504.991 105.23 503.778 105.593 502.871 106.046C501.987 106.5 501.353 107.021 500.967 107.61C500.605 108.177 500.423 108.8 500.423 109.48C500.423 110.84 500.798 111.804 501.546 112.37C502.316 112.937 503.382 113.22 504.741 113.22C506.305 113.22 507.654 112.948 508.788 112.404C509.944 111.838 511.088 110.965 512.221 109.786V104.346ZM493.113 88.8085C495.176 86.9498 497.454 85.5671 499.948 84.6605C502.441 83.7311 505.138 83.2665 508.039 83.2665C510.125 83.2665 511.984 83.6065 513.616 84.2865C515.27 84.9665 516.664 85.9185 517.798 87.1425C518.954 88.3438 519.838 89.7831 520.45 91.4605C521.062 93.1378 521.367 94.9738 521.367 96.9685V119H517.083C516.199 119 515.52 118.876 515.043 118.626C514.59 118.377 514.216 117.856 513.922 117.062L513.173 114.818C512.289 115.589 511.428 116.269 510.59 116.858C509.773 117.448 508.923 117.946 508.039 118.354C507.155 118.74 506.203 119.034 505.184 119.238C504.186 119.442 503.064 119.544 501.818 119.544C500.276 119.544 498.871 119.34 497.602 118.932C496.332 118.524 495.233 117.924 494.303 117.13C493.397 116.314 492.694 115.306 492.195 114.104C491.697 112.903 491.448 111.52 491.448 109.956C491.448 108.664 491.776 107.372 492.434 106.08C493.091 104.788 494.213 103.621 495.799 102.578C497.409 101.513 499.539 100.64 502.191 99.9605C504.866 99.2578 508.21 98.8611 512.221 98.7705V96.9685C512.221 94.7698 511.757 93.1605 510.828 92.1405C509.898 91.0978 508.561 90.5765 506.815 90.5765C505.523 90.5765 504.447 90.7351 503.586 91.0525C502.724 91.3471 501.965 91.6758 501.307 92.0385C500.673 92.3785 500.072 92.7071 499.505 93.0245C498.939 93.3191 498.281 93.4665 497.534 93.4665C496.876 93.4665 496.321 93.3078 495.867 92.9905C495.437 92.6505 495.074 92.2538 494.78 91.8005L493.113 88.8085Z" fill="white"/>
<path d="M538.144 68.3065V119H528.76V68.3065H538.144Z" fill="white"/>
</g>
<g filter="url(#filter1_d_3454_16825)">
<path d="M21.1259 190.688L17.2139 203H14.8379C14.5659 203 14.3779 202.824 14.2739 202.472L12.0659 195.356C11.9939 195.116 11.9259 194.88 11.8619 194.648C11.8059 194.408 11.7579 194.168 11.7179 193.928C11.6699 194.168 11.6139 194.412 11.5499 194.66C11.4939 194.9 11.4299 195.14 11.3579 195.38L9.11385 202.472C9.01785 202.824 8.80585 203 8.47785 203H6.19785L2.29785 190.688H4.66185C4.87785 190.688 5.06185 190.74 5.21385 190.844C5.36585 190.948 5.46585 191.08 5.51385 191.24L7.27785 197.816C7.36585 198.176 7.44185 198.528 7.50585 198.872C7.57785 199.216 7.63785 199.56 7.68585 199.904C7.77385 199.56 7.86585 199.216 7.96185 198.872C8.06585 198.528 8.17385 198.176 8.28585 197.816L10.3259 191.216C10.3739 191.056 10.4659 190.924 10.6019 190.82C10.7459 190.716 10.9179 190.664 11.1179 190.664H12.4259C12.6339 190.664 12.8099 190.716 12.9539 190.82C13.1059 190.924 13.2059 191.056 13.2539 191.216L15.2339 197.816C15.3379 198.176 15.4339 198.532 15.5219 198.884C15.6179 199.228 15.7099 199.572 15.7979 199.916C15.9019 199.236 16.0499 198.536 16.2419 197.816L18.0539 191.24C18.1099 191.08 18.2099 190.948 18.3539 190.844C18.4979 190.74 18.6699 190.688 18.8699 190.688H21.1259Z" fill="white"/>
<path d="M25.8835 190.688V203H22.9075V190.688H25.8835ZM26.2915 187.1C26.2915 187.356 26.2395 187.596 26.1355 187.82C26.0315 188.044 25.8915 188.24 25.7155 188.408C25.5475 188.576 25.3475 188.712 25.1155 188.816C24.8835 188.912 24.6355 188.96 24.3715 188.96C24.1155 188.96 23.8715 188.912 23.6395 188.816C23.4155 188.712 23.2195 188.576 23.0515 188.408C22.8835 188.24 22.7475 188.044 22.6435 187.82C22.5475 187.596 22.4995 187.356 22.4995 187.1C22.4995 186.836 22.5475 186.588 22.6435 186.356C22.7475 186.124 22.8835 185.924 23.0515 185.756C23.2195 185.588 23.4155 185.456 23.6395 185.36C23.8715 185.256 24.1155 185.204 24.3715 185.204C24.6355 185.204 24.8835 185.256 25.1155 185.36C25.3475 185.456 25.5475 185.588 25.7155 185.756C25.8915 185.924 26.0315 186.124 26.1355 186.356C26.2395 186.588 26.2915 186.836 26.2915 187.1Z" fill="white"/>
<path d="M33.0092 203.192C31.9372 203.192 31.1132 202.892 30.5372 202.292C29.9692 201.684 29.6852 200.848 29.6852 199.784V192.908H28.4252C28.2652 192.908 28.1292 192.856 28.0172 192.752C27.9052 192.648 27.8492 192.492 27.8492 192.284V191.108L29.8292 190.784L30.4532 187.424C30.4932 187.264 30.5692 187.14 30.6812 187.052C30.7932 186.964 30.9372 186.92 31.1132 186.92H32.6492V190.796H35.9372V192.908H32.6492V199.58C32.6492 199.964 32.7412 200.264 32.9252 200.48C33.1172 200.696 33.3772 200.804 33.7052 200.804C33.8892 200.804 34.0412 200.784 34.1612 200.744C34.2892 200.696 34.3972 200.648 34.4852 200.6C34.5812 200.552 34.6652 200.508 34.7372 200.468C34.8092 200.42 34.8812 200.396 34.9532 200.396C35.0412 200.396 35.1132 200.42 35.1692 200.468C35.2252 200.508 35.2852 200.572 35.3492 200.66L36.2372 202.1C35.8052 202.46 35.3092 202.732 34.7492 202.916C34.1892 203.1 33.6092 203.192 33.0092 203.192Z" fill="white"/>
<path d="M40.7989 192.008C41.2789 191.56 41.8069 191.196 42.3829 190.916C42.9589 190.636 43.6349 190.496 44.4109 190.496C45.0829 190.496 45.6789 190.612 46.1989 190.844C46.7189 191.068 47.1509 191.388 47.4949 191.804C47.8469 192.212 48.1109 192.704 48.2869 193.28C48.4709 193.848 48.5629 194.476 48.5629 195.164V203H45.5989V195.164C45.5989 194.412 45.4269 193.832 45.0829 193.424C44.7389 193.008 44.2149 192.8 43.5109 192.8C42.9989 192.8 42.5189 192.916 42.0709 193.148C41.6229 193.38 41.1989 193.696 40.7989 194.096V203H37.8349V185.168H40.7989V192.008Z" fill="white"/>
</g>
<g filter="url(#filter2_d_3454_16825)">
<path d="M20.1558 24.0587L20.1388 26.9997H5.00879V2.58773H20.1388V5.52873H8.64679V13.2637H17.8948V16.1027H8.64679V24.0587H20.1558Z" fill="white"/>
<path d="M38.4358 26.9997H35.2398C34.9792 26.9997 34.7695 26.9317 34.6108 26.7957C34.4635 26.6484 34.3445 26.4954 34.2538 26.3367L30.0888 19.7577C30.0322 19.9277 29.9755 20.0921 29.9188 20.2507C29.8622 20.4094 29.7885 20.5567 29.6978 20.6927L25.8728 26.3367C25.7595 26.4954 25.6292 26.6484 25.4818 26.7957C25.3345 26.9317 25.1418 26.9997 24.9038 26.9997H21.9458L27.9638 18.1087L22.1838 9.72773H25.3798C25.6405 9.72773 25.8275 9.76739 25.9408 9.84673C26.0655 9.92606 26.1732 10.0451 26.2638 10.2037L30.3608 16.5107C30.4175 16.3407 30.4798 16.1764 30.5478 16.0177C30.6158 15.8477 30.7065 15.6721 30.8198 15.4907L34.3388 10.2717C34.5428 9.90906 34.8148 9.72773 35.1548 9.72773H38.1978L32.4178 17.9557L38.4358 26.9997Z" fill="white"/>
<path d="M44.3997 22.7497C44.9436 23.4637 45.5273 23.9624 46.1507 24.2457C46.7853 24.5291 47.4936 24.6707 48.2757 24.6707C49.7943 24.6707 50.9673 24.1267 51.7946 23.0387C52.6333 21.9394 53.0527 20.3414 53.0527 18.2447C53.0527 17.1454 52.9563 16.2104 52.7636 15.4397C52.5823 14.6577 52.3103 14.0231 51.9476 13.5357C51.5963 13.0371 51.16 12.6744 50.6386 12.4477C50.1173 12.2097 49.528 12.0907 48.8706 12.0907C47.9073 12.0907 47.0686 12.3061 46.3546 12.7367C45.652 13.1674 45.0003 13.7794 44.3997 14.5727V22.7497ZM44.2296 12.3117C44.5923 11.8811 44.9776 11.4901 45.3856 11.1387C45.805 10.7761 46.2526 10.4701 46.7286 10.2207C47.2047 9.96006 47.709 9.76173 48.2416 9.62573C48.7856 9.47839 49.3636 9.40473 49.9756 9.40473C50.9616 9.40473 51.8513 9.59739 52.6446 9.98273C53.4493 10.3681 54.135 10.9347 54.7016 11.6827C55.2683 12.4307 55.7047 13.3544 56.0107 14.4537C56.328 15.5531 56.4866 16.8167 56.4866 18.2447C56.4866 19.5254 56.311 20.7154 55.9596 21.8147C55.6196 22.9027 55.1266 23.8491 54.4806 24.6537C53.846 25.4584 53.064 26.0931 52.1347 26.5577C51.2167 27.0111 50.1796 27.2377 49.0236 27.2377C47.9923 27.2377 47.1083 27.0677 46.3716 26.7277C45.635 26.3877 44.9776 25.9117 44.3997 25.2997V32.7967H41.0846V9.72773H43.0737C43.5383 9.72773 43.8273 9.94873 43.9406 10.3907L44.2296 12.3117Z" fill="white"/>
<path d="M71.6507 16.4427C71.6507 15.7854 71.5543 15.1791 71.3616 14.6237C71.1803 14.0684 70.9083 13.5867 70.5456 13.1787C70.183 12.7707 69.741 12.4534 69.2197 12.2267C68.6983 12.0001 68.0976 11.8867 67.4176 11.8867C66.0236 11.8867 64.9243 12.2891 64.1196 13.0937C63.3263 13.8984 62.822 15.0147 62.6066 16.4427H71.6507ZM74.3876 24.5347C73.9797 25.0107 73.5093 25.4244 72.9766 25.7757C72.444 26.1157 71.8773 26.3934 71.2766 26.6087C70.676 26.8241 70.0526 26.9827 69.4066 27.0847C68.772 27.1867 68.143 27.2377 67.5196 27.2377C66.3297 27.2377 65.2246 27.0394 64.2046 26.6427C63.196 26.2347 62.3176 25.6454 61.5696 24.8747C60.833 24.0927 60.255 23.1294 59.8356 21.9847C59.4276 20.8287 59.2236 19.5027 59.2236 18.0067C59.2236 16.8054 59.4106 15.6891 59.7846 14.6577C60.1586 13.6151 60.6913 12.7084 61.3826 11.9377C62.0853 11.1671 62.941 10.5607 63.9496 10.1187C64.9583 9.67673 66.0916 9.45573 67.3496 9.45573C68.4036 9.45573 69.3727 9.63139 70.2567 9.98273C71.152 10.3227 71.9227 10.8214 72.5686 11.4787C73.2147 12.1361 73.719 12.9464 74.0816 13.9097C74.4557 14.8731 74.6426 15.9724 74.6426 17.2077C74.6426 17.7177 74.586 18.0634 74.4726 18.2447C74.3593 18.4147 74.1497 18.4997 73.8437 18.4997H62.5216C62.5556 19.5311 62.703 20.4321 62.9636 21.2027C63.2243 21.9621 63.5813 22.5967 64.0346 23.1067C64.4993 23.6167 65.049 23.9964 65.6836 24.2457C66.3183 24.4951 67.0266 24.6197 67.8087 24.6197C68.5453 24.6197 69.18 24.5347 69.7126 24.3647C70.2566 24.1947 70.7213 24.0134 71.1067 23.8207C71.5033 23.6167 71.832 23.4297 72.0927 23.2597C72.3647 23.0897 72.6026 23.0047 72.8066 23.0047C73.0787 23.0047 73.2883 23.1067 73.4356 23.3107L74.3876 24.5347Z" fill="white"/>
<path d="M81.3337 13.0427C81.8891 11.9094 82.5577 11.0197 83.3397 10.3737C84.1217 9.72773 85.0624 9.40473 86.1617 9.40473C86.5357 9.40473 86.8871 9.45006 87.2157 9.54073C87.5557 9.62006 87.8504 9.74473 88.0997 9.91473L87.8787 12.4137C87.7994 12.7197 87.6124 12.8727 87.3177 12.8727C87.1591 12.8727 86.9211 12.8444 86.6037 12.7877C86.2864 12.7197 85.9464 12.6857 85.5837 12.6857C85.0511 12.6857 84.5807 12.7651 84.1727 12.9237C83.7647 13.0711 83.3964 13.2977 83.0677 13.6037C82.7504 13.8984 82.4671 14.2667 82.2177 14.7087C81.9684 15.1394 81.7361 15.6324 81.5207 16.1877V26.9997H78.2057V9.72773H80.1097C80.4724 9.72773 80.7161 9.79573 80.8407 9.93173C80.9767 10.0564 81.0731 10.2831 81.1297 10.6117L81.3337 13.0427Z" fill="white"/>
<path d="M94.1249 9.72773V26.9997H90.8099V9.72773H94.1249ZM94.7539 4.38973C94.7539 4.69573 94.6916 4.99039 94.5669 5.27373C94.4423 5.54573 94.2722 5.78939 94.0569 6.00473C93.8529 6.20873 93.6092 6.37306 93.3259 6.49773C93.0426 6.61106 92.7479 6.66773 92.4419 6.66773C92.1359 6.66773 91.8469 6.61106 91.5749 6.49773C91.3029 6.37306 91.0592 6.20873 90.8439 6.00473C90.6399 5.78939 90.4756 5.54573 90.3509 5.27373C90.2376 4.99039 90.1809 4.69573 90.1809 4.38973C90.1809 4.07239 90.2376 3.77773 90.3509 3.50573C90.4756 3.22239 90.6399 2.97873 90.8439 2.77473C91.0592 2.55939 91.3029 2.39506 91.5749 2.28173C91.8469 2.15706 92.1359 2.09473 92.4419 2.09473C92.7479 2.09473 93.0426 2.15706 93.3259 2.28173C93.6092 2.39506 93.8529 2.55939 94.0569 2.77473C94.2722 2.97873 94.4423 3.22239 94.5669 3.50573C94.6916 3.77773 94.7539 4.07239 94.7539 4.38973Z" fill="white"/>
<path d="M110.365 16.4427C110.365 15.7854 110.269 15.1791 110.076 14.6237C109.895 14.0684 109.623 13.5867 109.26 13.1787C108.898 12.7707 108.456 12.4534 107.934 12.2267C107.413 12.0001 106.812 11.8867 106.132 11.8867C104.738 11.8867 103.639 12.2891 102.834 13.0937C102.041 13.8984 101.537 15.0147 101.321 16.4427H110.365ZM113.102 24.5347C112.694 25.0107 112.224 25.4244 111.691 25.7757C111.159 26.1157 110.592 26.3934 109.991 26.6087C109.391 26.8241 108.767 26.9827 108.121 27.0847C107.487 27.1867 106.858 27.2377 106.234 27.2377C105.044 27.2377 103.939 27.0394 102.919 26.6427C101.911 26.2347 101.032 25.6454 100.284 24.8747C99.5478 24.0927 98.9698 23.1294 98.5505 21.9847C98.1425 20.8287 97.9385 19.5027 97.9385 18.0067C97.9385 16.8054 98.1255 15.6891 98.4995 14.6577C98.8735 13.6151 99.4062 12.7084 100.097 11.9377C100.8 11.1671 101.656 10.5607 102.664 10.1187C103.673 9.67673 104.806 9.45573 106.064 9.45573C107.118 9.45573 108.087 9.63139 108.971 9.98273C109.867 10.3227 110.637 10.8214 111.283 11.4787C111.929 12.1361 112.434 12.9464 112.796 13.9097C113.17 14.8731 113.357 15.9724 113.357 17.2077C113.357 17.7177 113.301 18.0634 113.187 18.2447C113.074 18.4147 112.864 18.4997 112.558 18.4997H101.236C101.27 19.5311 101.418 20.4321 101.678 21.2027C101.939 21.9621 102.296 22.5967 102.749 23.1067C103.214 23.6167 103.764 23.9964 104.398 24.2457C105.033 24.4951 105.741 24.6197 106.523 24.6197C107.26 24.6197 107.895 24.5347 108.427 24.3647C108.971 24.1947 109.436 24.0134 109.821 23.8207C110.218 23.6167 110.547 23.4297 110.807 23.2597C111.079 23.0897 111.317 23.0047 111.521 23.0047C111.793 23.0047 112.003 23.1067 112.15 23.3107L113.102 24.5347Z" fill="white"/>
<path d="M120.032 12.1247C120.406 11.7281 120.797 11.3654 121.205 11.0367C121.613 10.7081 122.043 10.4304 122.497 10.2037C122.961 9.96573 123.454 9.78439 123.976 9.65973C124.508 9.52373 125.075 9.45573 125.676 9.45573C126.628 9.45573 127.461 9.61439 128.175 9.93173C128.9 10.2491 129.506 10.6967 129.994 11.2747C130.481 11.8414 130.849 12.5271 131.099 13.3317C131.348 14.1364 131.473 15.0261 131.473 16.0007V26.9997H128.141V16.0007C128.141 14.7654 127.857 13.8077 127.291 13.1277C126.724 12.4364 125.857 12.0907 124.69 12.0907C123.84 12.0907 123.041 12.2947 122.293 12.7027C121.556 13.0994 120.87 13.6434 120.236 14.3347V26.9997H116.921V9.72773H118.91C119.374 9.72773 119.663 9.94873 119.777 10.3907L120.032 12.1247Z" fill="white"/>
<path d="M148.05 12.9577C147.948 13.0824 147.846 13.1844 147.744 13.2637C147.653 13.3317 147.517 13.3657 147.336 13.3657C147.155 13.3657 146.962 13.2977 146.758 13.1617C146.565 13.0144 146.316 12.8614 146.01 12.7027C145.715 12.5327 145.353 12.3797 144.922 12.2437C144.503 12.0964 143.981 12.0227 143.358 12.0227C142.542 12.0227 141.822 12.1701 141.199 12.4647C140.576 12.7594 140.054 13.1787 139.635 13.7227C139.227 14.2667 138.915 14.9297 138.7 15.7117C138.485 16.4937 138.377 17.3721 138.377 18.3467C138.377 19.3554 138.49 20.2564 138.717 21.0497C138.944 21.8317 139.267 22.4947 139.686 23.0387C140.105 23.5714 140.615 23.9794 141.216 24.2627C141.817 24.5347 142.485 24.6707 143.222 24.6707C143.936 24.6707 144.525 24.5857 144.99 24.4157C145.455 24.2344 145.84 24.0417 146.146 23.8377C146.452 23.6337 146.707 23.4467 146.911 23.2767C147.115 23.0954 147.325 23.0047 147.54 23.0047C147.812 23.0047 148.022 23.1067 148.169 23.3107L149.121 24.5347C148.724 25.0221 148.277 25.4357 147.778 25.7757C147.291 26.1157 146.769 26.3934 146.214 26.6087C145.659 26.8241 145.075 26.9827 144.463 27.0847C143.862 27.1867 143.25 27.2377 142.627 27.2377C141.55 27.2377 140.542 27.0394 139.601 26.6427C138.672 26.2461 137.861 25.6681 137.17 24.9087C136.49 24.1494 135.952 23.2201 135.555 22.1207C135.158 21.0101 134.96 19.7521 134.96 18.3467C134.96 17.0661 135.136 15.8817 135.487 14.7937C135.85 13.7057 136.377 12.7707 137.068 11.9887C137.771 11.1954 138.632 10.5777 139.652 10.1357C140.672 9.68239 141.839 9.45573 143.154 9.45573C144.389 9.45573 145.477 9.65406 146.418 10.0507C147.359 10.4474 148.197 11.0084 148.934 11.7337L148.05 12.9577Z" fill="white"/>
<path d="M163.358 16.4427C163.358 15.7854 163.261 15.1791 163.069 14.6237C162.887 14.0684 162.615 13.5867 162.253 13.1787C161.89 12.7707 161.448 12.4534 160.927 12.2267C160.405 12.0001 159.805 11.8867 159.125 11.8867C157.731 11.8867 156.631 12.2891 155.827 13.0937C155.033 13.8984 154.529 15.0147 154.314 16.4427H163.358ZM166.095 24.5347C165.687 25.0107 165.216 25.4244 164.684 25.7757C164.151 26.1157 163.584 26.3934 162.984 26.6087C162.383 26.8241 161.76 26.9827 161.114 27.0847C160.479 27.1867 159.85 27.2377 159.227 27.2377C158.037 27.2377 156.932 27.0394 155.912 26.6427C154.903 26.2347 154.025 25.6454 153.277 24.8747C152.54 24.0927 151.962 23.1294 151.543 21.9847C151.135 20.8287 150.931 19.5027 150.931 18.0067C150.931 16.8054 151.118 15.6891 151.492 14.6577C151.866 13.6151 152.398 12.7084 153.09 11.9377C153.792 11.1671 154.648 10.5607 155.657 10.1187C156.665 9.67673 157.799 9.45573 159.057 9.45573C160.111 9.45573 161.08 9.63139 161.964 9.98273C162.859 10.3227 163.63 10.8214 164.276 11.4787C164.922 12.1361 165.426 12.9464 165.789 13.9097C166.163 14.8731 166.35 15.9724 166.35 17.2077C166.35 17.7177 166.293 18.0634 166.18 18.2447C166.066 18.4147 165.857 18.4997 165.551 18.4997H154.229C154.263 19.5311 154.41 20.4321 154.671 21.2027C154.931 21.9621 155.288 22.5967 155.742 23.1067C156.206 23.6167 156.756 23.9964 157.391 24.2457C158.025 24.4951 158.734 24.6197 159.516 24.6197C160.252 24.6197 160.887 24.5347 161.42 24.3647C161.964 24.1947 162.428 24.0134 162.814 23.8207C163.21 23.6167 163.539 23.4297 163.8 23.2597C164.072 23.0897 164.31 23.0047 164.514 23.0047C164.786 23.0047 164.995 23.1067 165.143 23.3107L166.095 24.5347Z" fill="white"/>
</g>
<path fill-rule="evenodd" clip-rule="evenodd" d="M97.0033 162.783C83.4183 162.783 72.547 173.484 72.547 186.5V186.533V186.566C72.3845 190.32 73.522 194.67 75.4882 199.151C77.4382 203.617 80.1683 208.148 83.077 212.25C85.9858 216.335 89.057 219.973 91.7057 222.669C93.022 224.009 94.2245 225.117 95.232 225.911C96.0445 226.556 96.662 226.953 97.0845 227.151C97.182 227.101 97.3283 227.035 97.507 226.936C97.8645 226.721 98.3195 226.407 98.8395 225.993C99.8795 225.166 101.163 223.976 102.593 222.504C105.437 219.56 108.785 215.508 111.888 211.01C112.278 210.447 113.026 210.315 113.562 210.712C114.098 211.109 114.228 211.903 113.838 212.465C110.669 217.096 107.224 221.247 104.283 224.29C102.821 225.811 101.456 227.085 100.302 227.995C99.7332 228.458 99.1807 228.838 98.6932 229.119C98.222 229.4 97.7183 229.632 97.2145 229.715L96.922 229.731L96.662 229.648C95.817 229.4 94.8095 228.722 93.737 227.879C92.632 227.002 91.3645 225.828 89.9995 224.439C87.2695 221.644 84.1007 217.923 81.127 213.722C78.1532 209.538 75.3257 204.857 73.2782 200.177C71.247 195.53 69.947 190.783 70.1257 186.466C70.1582 171.913 82.2645 160.27 97.0033 160.27C108.346 160.27 118.096 167.15 122.028 176.94C122.288 177.585 121.996 178.313 121.378 178.578C120.761 178.842 120.062 178.545 119.802 177.9C116.276 169.085 107.42 162.783 97.0033 162.783Z" fill="#F0500B"/>
<g filter="url(#filter3_d_3454_16825)">
<path fill-rule="evenodd" clip-rule="evenodd" d="M298.347 199.329C297.762 199.246 297.226 199.461 296.771 199.825C296.332 200.156 296.056 200.635 296.007 201.214V201.231V201.247C295.959 201.826 296.154 202.339 296.544 202.769C297.259 203.48 298.217 204.042 299.387 204.489C300.59 204.902 301.89 205.117 303.287 205.117C304.701 205.117 305.92 204.886 306.911 204.423C307.902 203.96 308.682 203.331 309.219 202.504C309.755 201.694 310.031 200.768 310.031 199.775C310.031 198.915 309.82 198.122 309.397 197.443C308.959 196.732 308.26 196.153 307.366 195.674C306.472 195.211 305.286 194.83 303.84 194.533C302.832 194.334 302.101 194.119 301.614 193.937C301.142 193.739 300.915 193.557 300.817 193.425C300.72 193.243 300.671 193.061 300.671 192.829C300.671 192.664 300.72 192.548 300.785 192.449C300.85 192.35 300.98 192.234 301.191 192.135C301.679 191.903 302.296 191.771 303.06 191.771C303.726 191.771 304.311 191.853 304.782 192.002C305.237 192.135 305.66 192.399 306.082 192.796C306.456 193.16 306.927 193.375 307.447 193.474C308 193.573 308.536 193.491 308.991 193.177H309.007H309.024C309.446 192.862 309.722 192.432 309.755 191.887C309.771 191.357 309.576 190.878 309.235 190.481C308.585 189.687 307.724 189.075 306.684 188.645C305.627 188.215 304.425 188 303.109 188C302.085 188 301.077 188.182 300.119 188.529C299.127 188.86 298.315 189.406 297.665 190.133C296.982 190.894 296.657 191.853 296.657 192.962C296.657 194.252 297.177 195.36 298.152 196.236C299.144 197.096 300.655 197.692 302.621 198.088C304.084 198.353 304.977 198.667 305.4 198.998C305.839 199.329 305.985 199.643 305.969 199.957C305.952 200.272 305.806 200.569 305.351 200.85C304.929 201.115 304.23 201.297 303.174 201.297C302.377 201.297 301.662 201.148 301.029 200.883C300.362 200.569 299.94 200.272 299.696 200.007C299.322 199.627 298.867 199.378 298.347 199.329Z" fill="white"/>
</g>
<g filter="url(#filter4_d_3454_16825)">
<path d="M283.812 204.377C283.357 204.377 283 204.261 282.756 204.03C282.512 203.782 282.382 203.418 282.382 202.938V190.121C282.382 189.658 282.512 189.311 282.756 189.063C283 188.815 283.342 188.699 283.797 188.699C284.268 188.699 284.625 188.815 284.853 189.079C285.097 189.311 285.21 189.675 285.21 190.154L285.242 202.938C285.242 203.401 285.112 203.749 284.869 203.997C284.641 204.261 284.284 204.377 283.812 204.377ZM283.78 194.586C283.78 193.445 284.056 192.42 284.609 191.527C285.177 190.617 285.941 189.89 286.884 189.344C287.826 188.815 288.882 188.533 290.02 188.533C291.157 188.533 292.002 188.732 292.555 189.112C293.124 189.476 293.335 189.923 293.205 190.435C293.14 190.7 293.163 190.851 293 191C292.854 191.132 292.539 191.279 292.327 191.328C292.116 191.361 291.889 191.361 291.645 191.295C290.426 191.047 289.337 191.031 288.362 191.246C287.387 191.461 286.624 191.841 286.055 192.42C285.502 192.999 285.226 193.726 285.226 194.603H283.78V194.586Z" fill="white"/>
<path fill-rule="evenodd" clip-rule="evenodd" d="M285.876 194.587V202.955C285.876 203.518 285.73 204.047 285.34 204.444C284.95 204.857 284.414 205.006 283.845 205.006C283.293 205.006 282.773 204.857 282.366 204.493L282.334 204.46C281.927 204.063 281.781 203.518 281.781 202.939V190.121C281.781 189.543 281.944 189.013 282.334 188.616C282.724 188.219 283.26 188.054 283.829 188.054C284.397 188.054 284.934 188.203 285.324 188.616C285.535 188.815 285.681 189.063 285.762 189.328C286.022 189.129 286.315 188.947 286.608 188.765C287.648 188.17 288.801 187.889 290.036 187.889C291.223 187.889 292.214 188.087 292.913 188.567C293.254 188.782 293.546 189.063 293.709 189.41C293.887 189.774 293.92 190.171 293.823 190.551C293.741 190.915 293.579 191.246 293.286 191.511C293.043 191.726 292.766 191.858 292.441 191.908C292.132 191.957 291.824 191.941 291.515 191.874C290.361 191.643 289.37 191.626 288.509 191.825C287.631 192.007 286.981 192.354 286.51 192.834C286.088 193.28 285.876 193.843 285.876 194.587ZM285.226 194.603L285.243 202.955C285.243 203.418 285.112 203.749 284.869 203.997C284.641 204.245 284.284 204.377 283.812 204.377C283.357 204.377 283 204.261 282.756 204.03C282.512 203.782 282.382 203.418 282.382 202.938V190.121C282.382 189.658 282.512 189.311 282.756 189.063C283 188.815 283.342 188.699 283.797 188.699C284.268 188.699 284.625 188.815 284.853 189.079C285.032 189.245 285.161 189.493 285.21 189.807C285.226 189.906 285.21 190.022 285.21 190.154L285 191C284.967 191.033 285.033 190.967 285 191C285.309 190.735 286.51 189.559 286.884 189.344C287.826 188.815 288.882 188.533 290.02 188.533C291.157 188.533 292.002 188.732 292.555 189.112C293.124 189.476 293.335 189.923 293.205 190.435C293.14 190.7 293.163 190.851 293 191C292.854 191.132 292.539 191.279 292.327 191.328C292.116 191.361 291.889 191.361 291.645 191.295C290.426 191.047 289.337 191.031 288.362 191.246C287.387 191.461 286.624 191.841 286.055 192.42C285.974 192.503 285.909 192.569 285.844 192.652C285.454 193.164 285.226 193.842 285.226 194.603Z" fill="white"/>
</g>
<g filter="url(#filter5_d_3454_16825)">
<path d="M274.697 204.377C274.275 204.377 273.933 204.244 273.641 203.98C273.381 203.699 273.235 203.335 273.235 202.921V190.137C273.235 189.69 273.38 189.343 273.657 189.078C273.949 188.813 274.275 188.682 274.697 188.682C275.136 188.682 275.477 188.814 275.753 189.079C276.013 189.343 276.16 189.707 276.16 190.137L276.175 202.921C276.175 203.334 276.045 203.698 275.769 203.979C275.493 204.244 275.136 204.377 274.697 204.377ZM268.408 204.525C267.092 204.525 265.922 204.244 264.882 203.699C263.858 203.12 263.029 202.292 262.412 201.201C261.827 200.109 261.534 198.769 261.534 197.182V190.136C261.534 189.723 261.681 189.376 261.957 189.112C262.25 188.83 262.591 188.682 263.013 188.682C263.436 188.682 263.777 188.83 264.037 189.112C264.33 189.376 264.46 189.724 264.46 190.137V197.182C264.46 198.257 264.655 199.134 265.061 199.845C265.467 200.54 266.003 201.052 266.686 201.4C267.368 201.73 268.132 201.879 268.993 201.879C269.806 201.879 270.537 201.714 271.155 201.4C271.805 201.069 272.308 200.639 272.698 200.077C273.072 199.514 273.267 198.902 273.267 198.208H275.055C275.055 199.399 274.762 200.457 274.177 201.416C273.608 202.375 272.812 203.12 271.821 203.682C270.797 204.244 269.676 204.525 268.408 204.525Z" fill="white"/>
<path fill-rule="evenodd" clip-rule="evenodd" d="M264.459 188.664C264.865 189.061 265.06 189.558 265.06 190.136V197.182C265.06 198.174 265.239 198.951 265.58 199.53C265.922 200.109 266.377 200.539 266.945 200.837C267.53 201.118 268.213 201.267 268.977 201.267C269.708 201.267 270.325 201.118 270.862 200.853C271.414 200.572 271.853 200.192 272.162 199.745C272.47 199.299 272.617 198.803 272.617 198.24V190.153C272.617 189.574 272.795 189.061 273.202 188.648C273.608 188.268 274.112 188.086 274.68 188.086C275.249 188.086 275.769 188.268 276.175 188.664C276.582 189.061 276.76 189.591 276.76 190.169V202.954C276.76 203.516 276.582 204.029 276.192 204.442C275.785 204.839 275.265 205.021 274.697 205.021C274.128 205.021 273.624 204.839 273.218 204.459L273.185 204.426C273.023 204.244 272.877 204.045 272.795 203.814C272.568 203.979 272.34 204.111 272.097 204.26C271.008 204.872 269.773 205.17 268.408 205.17C267.01 205.17 265.727 204.872 264.589 204.26C263.452 203.632 262.558 202.706 261.908 201.531C261.258 200.324 260.949 198.885 260.949 197.215V190.169C260.949 189.607 261.128 189.094 261.534 188.698C261.94 188.284 262.444 188.086 263.029 188.086C263.565 188.053 264.069 188.251 264.459 188.664ZM264.865 203.698C265.905 204.244 267.092 204.525 268.392 204.525C269.659 204.525 270.797 204.244 271.788 203.698C272.08 203.533 272.373 203.351 272.633 203.152C272.73 203.086 272.812 203.003 272.909 202.921C273.023 202.821 273.137 202.722 273.25 202.606V202.921C273.25 203.086 273.267 203.251 273.315 203.4C273.38 203.615 273.494 203.814 273.657 203.979C273.949 204.244 274.29 204.376 274.713 204.376C275.152 204.376 275.493 204.244 275.769 203.979C276.029 203.698 276.175 203.334 276.175 202.921L276.16 190.137C276.16 189.69 276.03 189.343 275.753 189.079C275.493 188.814 275.152 188.681 274.713 188.681C274.29 188.681 273.949 188.813 273.657 189.078C273.397 189.343 273.25 189.706 273.25 190.136V198.224C273.25 198.918 273.055 199.53 272.682 200.093C272.665 200.109 272.649 200.142 272.633 200.159C272.259 200.671 271.755 201.101 271.138 201.399C270.504 201.73 269.789 201.879 268.977 201.879C268.115 201.879 267.352 201.713 266.669 201.399C265.987 201.052 265.45 200.539 265.044 199.844C264.638 199.133 264.46 198.257 264.46 197.182L264.443 190.136C264.443 189.723 264.297 189.376 264.02 189.111C263.76 188.83 263.419 188.681 262.997 188.681C262.574 188.681 262.25 188.83 261.957 189.112C261.697 189.376 261.534 189.723 261.534 190.136V197.182C261.534 198.769 261.827 200.109 262.412 201.201C263.029 202.292 263.842 203.119 264.865 203.698Z" fill="white"/>
</g>
<g filter="url(#filter6_d_3454_16825)">
<path d="M248.566 201.913C249.557 201.913 250.419 201.682 251.182 201.218C251.946 200.755 252.531 200.127 252.954 199.333C253.393 198.523 253.604 197.597 253.604 196.555C253.604 195.513 253.393 194.57 252.954 193.776C252.531 192.949 251.946 192.321 251.182 191.858C250.419 191.395 249.557 191.163 248.566 191.163C247.575 191.163 246.714 191.395 245.95 191.858C245.186 192.321 244.585 192.949 244.162 193.776C243.724 194.587 243.512 195.513 243.512 196.555C243.512 197.597 243.724 198.539 244.162 199.333C244.601 200.143 245.202 200.772 245.95 201.218C246.697 201.682 247.575 201.913 248.566 201.913ZM248.566 204.493C247.022 204.493 245.674 204.162 244.488 203.484C243.318 202.79 242.375 201.863 241.692 200.673C241.026 199.465 240.701 198.093 240.701 196.538C240.701 194.967 241.026 193.594 241.692 192.403C242.375 191.196 243.301 190.27 244.488 189.592C245.658 188.897 247.022 188.567 248.566 188.567C250.077 188.567 251.426 188.914 252.613 189.592C253.783 190.253 254.709 191.196 255.375 192.403C256.057 193.594 256.399 194.967 256.399 196.538C256.399 198.093 256.074 199.465 255.407 200.673C254.741 201.863 253.815 202.79 252.645 203.484C251.459 204.162 250.094 204.493 248.566 204.493Z" fill="white"/>
<path fill-rule="evenodd" clip-rule="evenodd" d="M252.402 199.035C252.792 198.324 252.987 197.513 252.987 196.554C252.987 195.595 252.792 194.768 252.402 194.073C252.028 193.346 251.525 192.8 250.875 192.403C250.225 192.006 249.461 191.808 248.567 191.808C247.673 191.808 246.926 192.006 246.26 192.403C245.593 192.8 245.073 193.362 244.7 194.09C244.326 194.785 244.115 195.611 244.115 196.571C244.115 197.53 244.31 198.357 244.7 199.051C245.09 199.763 245.61 200.308 246.276 200.705C246.926 201.102 247.69 201.301 248.583 201.301C249.477 201.301 250.225 201.102 250.891 200.705C251.525 200.292 252.028 199.746 252.402 199.035ZM251.183 201.235C250.42 201.698 249.557 201.913 248.566 201.913C247.575 201.913 246.714 201.682 245.95 201.218C245.186 200.755 244.585 200.127 244.162 199.333C243.724 198.523 243.512 197.597 243.512 196.555C243.512 195.496 243.724 194.57 244.162 193.776C244.601 192.949 245.202 192.321 245.95 191.858C246.714 191.395 247.567 191.163 248.559 191.163C249.55 191.163 250.419 191.395 251.182 191.858C251.946 192.321 252.531 192.949 252.954 193.776C253.393 194.587 253.604 195.513 253.604 196.555C253.604 197.613 253.393 198.539 252.954 199.333C252.531 200.127 251.947 200.771 251.183 201.235ZM244.18 189.079C245.463 188.335 246.926 187.971 248.567 187.971C250.176 187.971 251.638 188.335 252.922 189.079C254.19 189.806 255.197 190.815 255.912 192.122C256.66 193.412 257.017 194.9 257.017 196.554C257.017 198.191 256.66 199.68 255.945 200.986C255.23 202.276 254.222 203.285 252.955 204.03C251.671 204.757 250.208 205.121 248.583 205.121C246.958 205.121 245.496 204.774 244.212 204.03C242.945 203.285 241.937 202.276 241.19 201.003C240.475 199.696 240.117 198.208 240.117 196.571C240.117 194.917 240.475 193.428 241.19 192.138C241.905 190.815 242.912 189.806 244.18 189.079ZM244.488 203.5C245.658 204.162 247.023 204.509 248.567 204.509C250.111 204.509 251.46 204.178 252.646 203.5C253.816 202.806 254.742 201.88 255.408 200.689C256.075 199.481 256.4 198.109 256.4 196.554C256.4 194.983 256.058 193.61 255.376 192.42C254.71 191.212 253.783 190.286 252.613 189.608C251.443 188.913 250.095 188.583 248.567 188.583C247.023 188.583 245.675 188.93 244.488 189.608C243.318 190.27 242.376 191.212 241.693 192.42C241.027 193.61 240.702 194.983 240.702 196.554C240.702 198.109 241.027 199.481 241.693 200.689C242.376 201.863 243.318 202.806 244.488 203.5Z" fill="white"/>
</g>
<g filter="url(#filter7_d_3454_16825)">
<path d="M225.052 184.745C224.646 184.745 224.321 184.613 224.061 184.365C223.818 184.1 223.688 183.769 223.688 183.356C223.688 182.942 223.818 182.628 224.061 182.38C224.321 182.116 224.662 181.983 225.052 181.983H240.295C240.701 181.983 241.01 182.116 241.27 182.38C241.5 182.5 241.676 182.959 241.676 183.356C241.676 183.753 241.546 184.084 241.27 184.365C241.026 184.613 240.701 184.745 240.295 184.745H225.052ZM232.674 204.376C232.251 204.376 231.911 204.227 231.618 203.946C231.326 203.665 231.195 203.301 231.195 202.888V182H234.153V202.888C234.153 203.301 234.006 203.665 233.73 203.946C233.454 204.227 233.096 204.376 232.674 204.376Z" fill="white"/>
<path fill-rule="evenodd" clip-rule="evenodd" d="M225.052 181.983C224.646 181.983 224.321 182.116 224.061 182.38C223.818 182.628 223.688 182.959 223.688 183.356C223.688 183.753 223.818 184.084 224.061 184.365C224.321 184.613 224.662 184.745 225.052 184.745H231.262L231.195 202.888C231.195 203.301 231.342 203.665 231.618 203.946C231.895 204.227 232.251 204.376 232.674 204.376C233.096 204.376 233.438 204.227 233.73 203.946C234.023 203.665 234.153 203.301 234.153 202.888L234 184.745H240.295C240.701 184.745 241.01 184.613 241.27 184.365C241.53 184.1 241.676 183.769 241.676 183.356C241.676 182.942 241.546 182.628 241.27 182.38C241.026 182.116 240.701 181.983 240.295 181.983H225.052ZM225.053 181.371C224.5 181.371 224.013 181.57 223.623 181.95C223.249 182.33 223.07 182.826 223.07 183.372C223.07 183.918 223.249 184.398 223.607 184.795L223.639 184.828C224.029 185.191 224.517 185.373 225.053 185.373H230.578V202.888C230.578 203.466 230.773 203.979 231.179 204.393C231.585 204.806 232.089 205.005 232.674 205.005C233.243 205.005 233.763 204.806 234.169 204.393C234.575 203.979 234.77 203.466 234.77 202.888V185.373H240.279C240.815 185.373 241.303 185.208 241.693 184.811C242.083 184.414 242.278 183.918 242.278 183.372C242.278 182.826 242.099 182.33 241.693 181.95C241.319 181.553 240.832 181.371 240.279 181.371H225.053Z" fill="white"/>
</g>
<g filter="url(#filter8_d_3454_16825)">
<path d="M212.183 203.748C211.826 203.897 211.484 203.914 211.159 203.798C210.851 203.666 210.607 203.418 210.412 203.054L203.896 190.584C203.701 190.22 203.684 189.873 203.814 189.558C203.961 189.211 204.221 188.963 204.578 188.814C204.936 188.665 205.277 188.649 205.602 188.781C205.927 188.897 206.171 189.128 206.349 189.492L212.589 201.962C212.784 202.326 212.849 202.673 212.784 203.021C212.752 203.352 212.541 203.6 212.183 203.748ZM208.819 211.257C208.624 211.257 208.397 211.207 208.137 211.092C207.308 210.711 207.081 210.116 207.454 209.289L216.132 189.542C216.506 188.732 217.107 188.517 217.919 188.847C218.781 189.211 219.008 189.807 218.634 190.65L209.924 210.364C209.713 210.959 209.339 211.257 208.819 211.257Z" fill="white"/>
<path fill-rule="evenodd" clip-rule="evenodd" d="M208.137 211.092C208.397 211.207 208.623 211.257 208.818 211.257C209.338 211.257 209.696 210.959 209.923 210.364L218.633 190.65C219.007 189.807 218.78 189.211 217.918 188.847C217.106 188.5 216.505 188.732 216.131 189.542L211.57 199.924L206.349 189.492C206.171 189.128 205.927 188.897 205.602 188.781C205.277 188.649 204.936 188.665 204.578 188.814C204.221 188.963 203.961 189.211 203.814 189.558C203.684 189.889 203.717 190.22 203.896 190.584L203.326 190.898C203.066 190.402 203.001 189.856 203.212 189.343C203.423 188.847 203.813 188.483 204.301 188.285C204.788 188.087 205.292 188.053 205.78 188.252C206.267 188.434 206.625 188.798 206.852 189.277L211.483 198.522L215.53 189.31C215.757 188.814 216.098 188.417 216.602 188.219C217.106 188.037 217.626 188.103 218.13 188.318C218.65 188.533 219.088 188.88 219.283 189.393C219.478 189.906 219.397 190.452 219.17 190.964L210.46 210.662C210.313 211.025 210.118 211.34 209.826 211.571C209.517 211.819 209.16 211.935 208.786 211.935C208.477 211.935 208.168 211.852 207.86 211.72C207.356 211.488 206.933 211.141 206.738 210.628C206.543 210.116 206.641 209.587 206.868 209.09L209.582 202.922L203.326 190.898L203.896 190.584L210.294 202.828L207.454 209.289C207.097 210.033 207.308 210.695 208.137 211.092Z" fill="white"/>
</g>
<g filter="url(#filter9_d_3454_16825)">
<path d="M199.118 204.41C198.695 204.41 198.354 204.278 198.062 204.013C197.802 203.732 197.655 203.368 197.655 202.955V198.572L198.192 195.529L200.597 196.554V202.938C200.597 203.351 200.451 203.715 200.174 203.996C199.931 204.278 199.54 204.41 199.118 204.41ZM192.748 201.913C193.723 201.913 194.584 201.681 195.332 201.218C196.095 200.739 196.697 200.094 197.119 199.3C197.558 198.473 197.769 197.563 197.769 196.555C197.769 195.529 197.558 194.603 197.119 193.809C196.68 192.982 196.079 192.354 195.332 191.891C194.568 191.411 193.707 191.18 192.748 191.18C191.805 191.18 190.928 191.411 190.164 191.891C189.4 192.354 188.799 192.982 188.344 193.809C187.905 194.62 187.694 195.529 187.694 196.555C187.694 197.563 187.905 198.49 188.344 199.3C188.799 200.11 189.4 200.739 190.164 201.218C190.928 201.681 191.789 201.913 192.748 201.913ZM192.179 204.493C190.798 204.493 189.547 204.146 188.442 203.468C187.337 202.756 186.475 201.814 185.825 200.623C185.192 199.416 184.883 198.06 184.883 196.555C184.883 195.05 185.273 193.693 185.956 192.486C186.654 191.278 187.548 190.336 188.718 189.641C189.92 188.93 191.253 188.583 192.732 188.583C194.21 188.583 195.592 188.93 196.762 189.641C198 190 198.874 191.278 199.557 192.486C200.256 193.693 200.597 195.049 200.597 196.554L199.459 196.555C199.459 198.06 199.134 199.416 198.484 200.623C197.85 201.814 196.989 202.756 195.9 203.468C194.795 204.146 193.56 204.493 192.179 204.493Z" fill="white"/>
<path fill-rule="evenodd" clip-rule="evenodd" d="M188.409 189.112C189.709 188.351 191.156 187.971 192.732 187.971C194.308 187.971 195.754 188.351 197.038 189.112C198.306 189.856 199.313 190.881 200.044 192.171C200.743 193.362 201.117 194.685 201.166 196.141H201.182V202.938C201.182 203.517 200.987 204.03 200.581 204.443C200.191 204.84 199.687 205.022 199.118 205.022C198.549 205.022 198.046 204.84 197.639 204.46L197.607 204.426C197.314 204.112 197.152 203.765 197.071 203.351C196.811 203.583 196.518 203.781 196.226 203.98C195.023 204.741 193.658 205.105 192.163 205.105C190.668 205.105 189.319 204.741 188.101 203.98C186.914 203.219 185.972 202.194 185.273 200.92C184.591 199.614 184.266 198.158 184.266 196.554C184.266 194.95 184.623 193.478 185.371 192.171C186.134 190.881 187.142 189.856 188.409 189.112ZM195.007 200.689C195.673 200.275 196.193 199.713 196.583 199.002C196.973 198.274 197.168 197.464 197.168 196.554C197.168 195.611 196.973 194.801 196.583 194.106C196.193 193.379 195.673 192.816 195.023 192.42C194.373 192.006 193.626 191.791 192.764 191.791C191.919 191.791 191.172 192.006 190.489 192.42C189.823 192.816 189.303 193.379 188.897 194.106C188.523 194.801 188.312 195.611 188.312 196.554C188.312 197.464 188.507 198.274 188.897 199.002C189.303 199.713 189.839 200.275 190.506 200.689C191.188 201.086 191.936 201.284 192.781 201.284C193.609 201.301 194.357 201.086 195.007 200.689ZM197.054 199.448C197.087 199.399 197.103 199.349 197.136 199.316C197.266 199.068 197.379 198.82 197.461 198.572C197.461 198.555 197.477 198.555 197.477 198.539C197.688 197.927 197.786 197.265 197.786 196.571C197.786 196.174 197.753 195.81 197.688 195.446C197.672 195.363 197.656 195.281 197.639 195.198C197.526 194.702 197.363 194.239 197.119 193.809C196.68 192.982 196.079 192.354 195.332 191.891C194.568 191.411 193.707 191.18 192.748 191.18C191.805 191.18 190.928 191.411 190.164 191.891C189.4 192.354 188.799 192.982 188.344 193.809C187.905 194.62 187.694 195.529 187.694 196.555C187.694 197.563 187.905 198.49 188.344 199.3C188.799 200.11 189.4 200.739 190.164 201.218C190.944 201.681 191.805 201.913 192.748 201.913C193.723 201.913 194.584 201.681 195.332 201.218C196.047 200.772 196.616 200.193 197.054 199.448ZM188.442 203.468C189.547 204.162 190.782 204.493 192.179 204.493C193.56 204.493 194.795 204.146 195.9 203.468C196.323 203.203 196.642 202.847 197 202.5C197.227 202.285 197.493 202.005 197.688 201.757V202.938C197.688 203.351 197.785 203.732 198.062 204.013C198.354 204.278 198.695 204.41 199.118 204.41C199.54 204.41 199.914 204.261 200.174 203.996C200.467 203.715 200.597 203.351 200.597 202.938V196.554C200.597 196.339 200.516 196.215 200.5 196C200.5 196 200.142 193.495 199.557 192.486C198.874 191.278 197.948 190.336 196.762 189.641C195.5 189.5 194.259 188.583 192.781 188.583C191.302 188.583 189.92 188.93 188.718 189.641C187.548 190.336 186.654 191.278 185.956 192.486C185.273 193.693 184.932 195.049 184.932 196.554C184.932 198.059 185.192 199.416 185.825 200.623C186.41 201.814 187.337 202.756 188.442 203.468Z" fill="white"/>
</g>
<g filter="url(#filter10_d_3454_16825)">
<path d="M165.481 201.747H169.153C170.746 201.747 172.16 201.383 173.362 200.655C174.597 199.911 175.801 198.79 176.5 197.5C177.199 196.193 177.327 194.834 177.327 193.163C177.327 191.477 176.97 190.005 176.271 188.715C175.572 187.441 174.596 186.448 173.361 185.721C172.142 184.993 170.746 184.613 169.153 184.613H165.481V201.747ZM164.002 204.377C163.58 204.377 163.238 204.228 162.946 203.947C162.653 203.665 162.523 203.302 162.523 202.888V183.488C162.523 183.042 162.67 182.695 162.946 182.43C163.238 182.149 163.58 182 164.002 182H169.153C170.778 182 172.272 182.297 173.588 182.843C174.937 183.372 176.108 184.133 177.1 185.142C178.091 186.135 178.838 187.309 179.375 188.665C179.911 190.021 180.171 191.526 180.171 193.163C180.171 194.801 179.911 196.322 179.375 197.695C178.838 199.051 178.091 200.242 177.1 201.251C176.108 202.243 174.938 203.02 173.59 203.566C172.257 204.095 170.778 204.377 169.153 204.377H164.002Z" fill="white"/>
<path fill-rule="evenodd" clip-rule="evenodd" d="M176.5 197.5C175.801 198.773 174.596 199.911 173.361 200.655C172.142 201.383 170.744 201.746 169.152 201.746H165.479L165.481 184.613L169.17 184.613C170.762 184.613 172.158 184.993 173.361 185.721C174.596 186.448 175.572 187.441 176.271 188.715C176.97 189.988 177.327 191.477 177.327 193.163C177.327 194.817 177.215 196.21 176.5 197.5ZM173.052 186.266C171.947 185.605 170.647 185.258 169.152 185.258H166.097V201.118H169.152C170.647 201.118 171.947 200.771 173.052 200.109C174.189 199.415 175.083 198.488 175.733 197.314C176.383 196.123 176.708 194.734 176.708 193.18C176.708 191.592 176.383 190.219 175.733 189.045C175.083 187.854 174.189 186.928 173.052 186.266ZM177.1 185.142C176.108 184.133 174.937 183.372 173.588 182.843C172.256 182.281 170.778 182 169.153 182H164.002C163.58 182 163.238 182.149 162.946 182.43C163 183 162.523 183.058 162.523 183.488V202.888C162.523 203.302 162.67 203.665 162.946 203.947C163.238 204.228 163.58 204.377 164.002 204.377H169.153C170.778 204.377 172.273 204.112 173.59 203.566C174.938 203.004 176.108 202.243 177.1 201.251C178.091 200.242 178.838 199.051 179.375 197.695C179.911 196.322 180.171 194.817 180.171 193.163C180.171 191.51 179.911 190.021 179.375 188.665C178.855 187.309 178.091 186.135 177.1 185.142ZM179.958 197.926C179.389 199.365 178.593 200.622 177.537 201.697C176.497 202.755 175.246 203.566 173.832 204.161C172.418 204.723 170.858 205.005 169.152 205.005H164.001C163.432 205.005 162.912 204.806 162.506 204.393C162.099 203.979 161.904 203.466 161.904 202.888V183.488C161.904 182.909 162.099 182.38 162.522 181.983C162.928 181.586 163.432 181.371 164.001 181.371H169.152C170.858 181.371 172.418 181.652 173.832 182.248C175.262 182.81 176.497 183.637 177.537 184.712C178.593 185.77 179.389 187.011 179.958 188.45C180.527 189.888 180.803 191.46 180.803 193.18C180.803 194.883 180.511 196.471 179.958 197.926Z" fill="white"/>
</g>
<g filter="url(#filter11_d_3454_16825)">
<path d="M147.427 204.51C145.851 204.51 144.469 204.162 143.234 203.484C142.015 202.79 141.056 201.863 140.357 200.673C139.675 199.465 139.334 198.093 139.334 196.538C139.334 194.967 139.659 193.594 140.309 192.403C140.975 191.196 141.853 190.32 143.007 189.642C144.161 188.947 145.525 188.567 147.02 188.567C148.499 188.567 149.766 188.897 150.839 189.575C151.895 190.22 152.707 191.13 153.26 192.304C153.829 193.445 154.121 194.785 154.121 196.29C154.121 196.654 153.959 197.002 153.716 197.25C153.472 197.481 153.163 197.597 152.773 197.597L141.332 197.631V195.248H152.724L151.554 196.058C151.537 195.099 151.342 194.256 150.985 193.512C150.627 192.751 150.108 192.139 149.441 191.709C148.775 191.262 147.962 191.047 147.02 191.047C145.931 191.047 145.006 191.296 144.226 191.775C143.462 192.255 142.893 192.917 142.487 193.76C142.081 194.587 141.885 195.496 141.885 196.555C141.885 197.613 142.113 198.573 142.584 199.4C143.056 200.227 143.722 200.872 144.551 201.351C145.379 201.831 146.354 202.029 147.443 202.029C148.028 202.029 148.629 201.93 149.23 201.715C149.864 201.483 150.367 201.235 150.741 200.937C151.034 200.722 151.326 200.623 151.651 200.623C151.992 200.607 152.285 200.706 152.529 200.904C152.854 201.185 153.016 201.5 153.049 201.847C153.065 202.194 152.903 202.525 152.578 202.774C151.928 203.286 151.132 203.716 150.157 204.03C149.214 204.361 148.304 204.51 147.427 204.51Z" fill="white"/>
<path fill-rule="evenodd" clip-rule="evenodd" d="M142.714 189.08C143.982 188.335 145.412 187.955 147.004 187.955C148.581 187.955 149.962 188.319 151.148 189.047C152.318 189.758 153.196 190.767 153.797 192.024C154.187 192.817 154.463 193.694 154.593 194.62L154.609 194.686C154.674 195.199 154.723 195.728 154.723 196.274C154.723 196.803 154.544 197.266 154.171 197.63L154.138 197.663C153.764 198.01 153.293 198.176 152.773 198.176H142.731C142.828 198.49 142.958 198.771 143.121 199.052C143.543 199.78 144.112 200.342 144.859 200.772C145.591 201.186 146.436 201.401 147.427 201.401C147.947 201.401 148.467 201.318 149.019 201.12C149.604 200.905 150.043 200.673 150.368 200.442C150.742 200.16 151.164 200.012 151.636 200.012C152.123 199.995 152.562 200.127 152.936 200.442C153.342 200.805 153.634 201.269 153.651 201.814C153.683 202.41 153.407 202.889 152.952 203.237C152.237 203.799 151.359 204.262 150.352 204.593C149.344 204.94 148.369 205.105 147.427 205.105C145.769 205.105 144.258 204.758 142.926 204.03C141.626 203.286 140.586 202.277 139.822 201.004C139.074 199.697 138.717 198.209 138.717 196.572C138.717 194.918 139.058 193.429 139.757 192.139C140.472 190.833 141.463 189.807 142.714 189.08ZM150.726 194.653C150.644 194.355 150.547 194.074 150.417 193.793C150.108 193.132 149.669 192.619 149.101 192.239C148.548 191.875 147.866 191.676 147.021 191.676C146.029 191.676 145.217 191.891 144.551 192.305C143.901 192.718 143.397 193.28 143.039 194.025C142.942 194.223 142.861 194.438 142.796 194.653H150.726ZM142.094 194.653C142.029 194.852 141.95 195.067 141.918 195.282H151.489C151.457 195.067 151.549 194.715 151.5 194.5C151.403 194.103 151.147 193.859 150.985 193.512C150.627 192.751 150.108 192.139 149.441 191.709C149 191 147.962 191.047 147.02 191.047C145.931 191.047 145.006 191.296 144.226 191.775C143.462 192.255 142.893 192.917 142.487 193.76C142.341 194.041 142.175 194.339 142.094 194.653ZM143.234 203.484C144.469 204.146 145.851 204.51 147.427 204.51C148.304 204.51 149.214 204.345 150.157 204.03C151.132 203.7 151.928 203.286 152.578 202.774C152.903 202.525 153.049 202.228 153.033 201.88C153.017 201.533 152.838 201.219 152.513 200.938C152.269 200.723 151.992 200.607 151.651 200.623C151.326 200.623 151.002 200.756 150.726 200.971C150.352 201.252 149.864 201.483 149.23 201.715C148.629 201.93 148.028 202.029 147.443 202.029C146.354 202.029 145.379 201.831 144.551 201.351C143.722 200.872 143.056 200.227 142.584 199.4C142.373 199.036 142.211 198.639 142.081 198.225C142.016 198.027 141.983 197.812 141.951 197.597H152.773C153.147 197.597 153.472 197.481 153.716 197.25C153.959 197.002 154.089 196.687 154.089 196.34C154.089 195.927 154.073 195.53 154.024 195.149C154.008 195 153.992 194.835 153.959 194.686C153.829 193.843 153.586 193.065 153.228 192.354C152.676 191.197 151.863 190.287 150.807 189.625C149.751 188.964 148.467 188.617 146.988 188.617C145.493 188.617 144.161 188.964 143.007 189.642C141.853 190.304 140.975 191.196 140.309 192.403C139.659 193.594 139.334 194.967 139.334 196.538C139.334 198.093 139.675 199.465 140.357 200.673C141.089 201.814 142.031 202.79 143.234 203.484Z" fill="white"/>
</g>
<g filter="url(#filter12_d_3454_16825)">
<path d="M121.019 204.409C120.597 204.409 120.255 204.277 119.963 204.012C119.703 203.731 119.557 203.367 119.557 202.954V190.17C119.557 189.723 119.687 189.376 119.963 189.111C120.255 188.847 120.597 188.714 121.019 188.714C121.458 188.714 121.799 188.847 122.075 189.111C122.335 189.376 122.482 189.74 122.482 190.17V202.954C122.482 203.367 122.352 203.731 122.075 204.012C121.815 204.277 121.458 204.409 121.019 204.409ZM132.719 204.409C132.297 204.409 131.955 204.277 131.663 204.012C131.403 203.731 131.257 203.367 131.257 202.954V195.909C131.257 194.817 131.062 193.924 130.655 193.246C130.249 192.568 129.731 192.056 129.048 191.725C128.382 191.378 127.618 191.212 126.741 191.212C126 191.5 125.212 191.377 124.562 191.691C123.912 192.022 123.426 192.436 123.036 192.998C122.662 193.528 122.467 194.156 122.467 194.867L120.662 194.883C120.662 193.676 120.954 192.617 121.523 191.675C122.108 190.715 122.906 189.955 123.913 189.393C124.921 188.847 126.04 188.582 127.308 188.582C128.624 188.582 129.78 188.847 130.82 189.426C131.86 189.988 132.67 190.815 133.272 191.906C133.873 192.998 134.182 194.337 134.182 195.925V202.97C134.182 203.384 134.035 203.748 133.759 204.029C133.483 204.277 133.142 204.409 132.719 204.409Z" fill="white"/>
<path fill-rule="evenodd" clip-rule="evenodd" d="M123.101 194.867V202.954C123.101 203.517 122.922 204.029 122.532 204.443C122.126 204.84 121.606 205.022 121.037 205.022C120.468 205.022 119.965 204.84 119.558 204.459L119.526 204.426C119.152 204.013 118.957 203.5 118.957 202.938V190.154C118.957 189.575 119.136 189.062 119.542 188.649C119.948 188.268 120.452 188.086 121.021 188.086C121.59 188.086 122.11 188.268 122.516 188.665C122.695 188.847 122.841 189.062 122.922 189.277C123.15 189.112 123.377 188.979 123.621 188.847C124.726 188.235 125.961 187.938 127.31 187.938C128.707 187.938 129.975 188.252 131.112 188.88C132.266 189.492 133.16 190.402 133.81 191.593C134.476 192.8 134.801 194.239 134.801 195.909V202.954C134.801 203.533 134.606 204.046 134.2 204.459C133.81 204.856 133.306 205.038 132.737 205.038C132.168 205.038 131.665 204.856 131.258 204.476L131.242 204.459L131.226 204.426C130.852 204.013 130.657 203.5 130.657 202.938V195.893C130.657 194.867 130.462 194.106 130.137 193.544C129.796 192.965 129.357 192.535 128.788 192.271H128.756C128.187 191.973 127.521 191.824 126.725 191.824C126.01 191.824 125.392 191.973 124.84 192.238C124.287 192.519 123.848 192.899 123.54 193.346C123.247 193.792 123.101 194.272 123.101 194.867ZM131.681 204.013C131.973 204.278 132.315 204.41 132.737 204.41C133.16 204.41 133.501 204.278 133.761 204.013C134.053 203.732 134.183 203.368 134.183 202.954L133.5 196C133.5 194.412 133.873 192.998 133.272 191.906C132.593 190.895 131.876 189.972 130.82 189.426C129.5 189 128.624 188.582 127.308 188.582C126.057 188.582 124.921 188.847 123.913 189.393C123.621 189.558 123.76 189.802 123.5 190C123.403 190.066 123.581 190.417 123.5 190.5C123.386 190.599 122.565 190.369 122.467 190.468L122.482 190.17C122.482 189.988 122.451 189.839 122.402 189.691C122.337 189.459 122.238 189.277 122.075 189.111C121.815 188.847 121.443 188.715 121.005 188.715C120.582 188.715 120.255 188.847 119.963 189.111C119.703 189.376 119.557 189.74 119.557 190.17V202.954C119.557 203.367 119.687 203.731 119.963 204.012C120.255 204.277 120.597 204.409 121.019 204.409C121.458 204.409 121.799 204.277 122.075 204.012C122.335 203.731 122.482 203.367 122.482 202.954L122.467 194.867C122.467 194.156 122.662 193.544 123.036 192.998C123.02 193.015 123.052 192.982 123.036 192.998C123 192 123.944 191.989 124.562 191.691C125.212 191.36 125.945 191.212 126.741 191.212C127.618 191.212 128.382 191.378 129.048 191.725C129.731 192.056 130.267 192.552 130.673 193.246C131.08 193.941 131.275 194.817 131.275 195.909V202.954C131.275 203.368 131.405 203.715 131.681 204.013Z" fill="white"/>
</g>
<g filter="url(#filter13_d_3454_16825)">
<path fill-rule="evenodd" clip-rule="evenodd" d="M96.125 204.924C106.005 204.924 114 196.787 114 186.731C114 176.676 106.005 168.539 96.125 168.539C86.245 168.539 78.25 176.676 78.25 186.731C78.25 196.787 86.245 204.924 96.125 204.924ZM96.125 199.83C103.226 199.83 108.995 193.959 108.995 186.731C108.995 179.504 103.226 173.633 96.125 173.633C89.0238 173.633 83.255 179.504 83.255 186.731C83.255 193.959 89.0238 199.83 96.125 199.83Z" fill="white"/>
</g>
<defs>
<filter id="filter0_d_3454_16825" x="5.16797" y="66.2725" width="538.977" height="70.9336" filterUnits="userSpaceOnUse" color-interpolation-filters="sRGB">
<feFlood flood-opacity="0" result="BackgroundImageFix"/>
<feColorMatrix in="SourceAlpha" type="matrix" values="0 0 0 0 0 0 0 0 0 0 0 0 0 0 0 0 0 0 127 0" result="hardAlpha"/>
<feOffset dx="2" dy="2"/>
<feGaussianBlur stdDeviation="2"/>
<feComposite in2="hardAlpha" operator="out"/>
<feColorMatrix type="matrix" values="0 0 0 0 0 0 0 0 0 0 0 0 0 0 0 0 0 0 0.25 0"/>
<feBlend mode="normal" in2="BackgroundImageFix" result="effect1_dropShadow_3454_16825"/>
<feBlend mode="normal" in="SourceGraphic" in2="effect1_dropShadow_3454_16825" result="shape"/>
</filter>
<filter id="filter1_d_3454_16825" x="0.297852" y="183.168" width="54.2651" height="26.0244" filterUnits="userSpaceOnUse" color-interpolation-filters="sRGB">
<feFlood flood-opacity="0" result="BackgroundImageFix"/>
<feColorMatrix in="SourceAlpha" type="matrix" values="0 0 0 0 0 0 0 0 0 0 0 0 0 0 0 0 0 0 127 0" result="hardAlpha"/>
<feOffset dx="2" dy="2"/>
<feGaussianBlur stdDeviation="2"/>
<feComposite in2="hardAlpha" operator="out"/>
<feColorMatrix type="matrix" values="0 0 0 0 0 0 0 0 0 0 0 0 0 0 0 0 0 0 0.25 0"/>
<feBlend mode="normal" in2="BackgroundImageFix" result="effect1_dropShadow_3454_16825"/>
<feBlend mode="normal" in="SourceGraphic" in2="effect1_dropShadow_3454_16825" result="shape"/>
</filter>
<filter id="filter2_d_3454_16825" x="3.00879" y="0.0947266" width="169.341" height="38.7021" filterUnits="userSpaceOnUse" color-interpolation-filters="sRGB">
<feFlood flood-opacity="0" result="BackgroundImageFix"/>
<feColorMatrix in="SourceAlpha" type="matrix" values="0 0 0 0 0 0 0 0 0 0 0 0 0 0 0 0 0 0 127 0" result="hardAlpha"/>
<feOffset dx="2" dy="2"/>
<feGaussianBlur stdDeviation="2"/>
<feComposite in2="hardAlpha" operator="out"/>
<feColorMatrix type="matrix" values="0 0 0 0 0 0 0 0 0 0 0 0 0 0 0 0 0 0 0.3 0"/>
<feBlend mode="normal" in2="BackgroundImageFix" result="effect1_dropShadow_3454_16825"/>
<feBlend mode="normal" in="SourceGraphic" in2="effect1_dropShadow_3454_16825" result="shape"/>
</filter>
<filter id="filter3_d_3454_16825" x="294" y="186" width="22.0312" height="25.1172" filterUnits="userSpaceOnUse" color-interpolation-filters="sRGB">
<feFlood flood-opacity="0" result="BackgroundImageFix"/>
<feColorMatrix in="SourceAlpha" type="matrix" values="0 0 0 0 0 0 0 0 0 0 0 0 0 0 0 0 0 0 127 0" result="hardAlpha"/>
<feOffset dx="2" dy="2"/>
<feGaussianBlur stdDeviation="2"/>
<feComposite in2="hardAlpha" operator="out"/>
<feColorMatrix type="matrix" values="0 0 0 0 0 0 0 0 0 0 0 0 0 0 0 0 0 0 0.25 0"/>
<feBlend mode="normal" in2="BackgroundImageFix" result="effect1_dropShadow_3454_16825"/>
<feBlend mode="normal" in="SourceGraphic" in2="effect1_dropShadow_3454_16825" result="shape"/>
</filter>
<filter id="filter4_d_3454_16825" x="279.781" y="185.889" width="20.0952" height="25.1172" filterUnits="userSpaceOnUse" color-interpolation-filters="sRGB">
<feFlood flood-opacity="0" result="BackgroundImageFix"/>
<feColorMatrix in="SourceAlpha" type="matrix" values="0 0 0 0 0 0 0 0 0 0 0 0 0 0 0 0 0 0 127 0" result="hardAlpha"/>
<feOffset dx="2" dy="2"/>
<feGaussianBlur stdDeviation="2"/>
<feComposite in2="hardAlpha" operator="out"/>
<feColorMatrix type="matrix" values="0 0 0 0 0 0 0 0 0 0 0 0 0 0 0 0 0 0 0.25 0"/>
<feBlend mode="normal" in2="BackgroundImageFix" result="effect1_dropShadow_3454_16825"/>
<feBlend mode="normal" in="SourceGraphic" in2="effect1_dropShadow_3454_16825" result="shape"/>
</filter>
<filter id="filter5_d_3454_16825" x="258.949" y="186.082" width="23.811" height="25.0879" filterUnits="userSpaceOnUse" color-interpolation-filters="sRGB">
<feFlood flood-opacity="0" result="BackgroundImageFix"/>
<feColorMatrix in="SourceAlpha" type="matrix" values="0 0 0 0 0 0 0 0 0 0 0 0 0 0 0 0 0 0 127 0" result="hardAlpha"/>
<feOffset dx="2" dy="2"/>
<feGaussianBlur stdDeviation="2"/>
<feComposite in2="hardAlpha" operator="out"/>
<feColorMatrix type="matrix" values="0 0 0 0 0 0 0 0 0 0 0 0 0 0 0 0 0 0 0.25 0"/>
<feBlend mode="normal" in2="BackgroundImageFix" result="effect1_dropShadow_3454_16825"/>
<feBlend mode="normal" in="SourceGraphic" in2="effect1_dropShadow_3454_16825" result="shape"/>
</filter>
<filter id="filter6_d_3454_16825" x="238.117" y="185.971" width="24.8999" height="25.1504" filterUnits="userSpaceOnUse" color-interpolation-filters="sRGB">
<feFlood flood-opacity="0" result="BackgroundImageFix"/>
<feColorMatrix in="SourceAlpha" type="matrix" values="0 0 0 0 0 0 0 0 0 0 0 0 0 0 0 0 0 0 127 0" result="hardAlpha"/>
<feOffset dx="2" dy="2"/>
<feGaussianBlur stdDeviation="2"/>
<feComposite in2="hardAlpha" operator="out"/>
<feColorMatrix type="matrix" values="0 0 0 0 0 0 0 0 0 0 0 0 0 0 0 0 0 0 0.25 0"/>
<feBlend mode="normal" in2="BackgroundImageFix" result="effect1_dropShadow_3454_16825"/>
<feBlend mode="normal" in="SourceGraphic" in2="effect1_dropShadow_3454_16825" result="shape"/>
</filter>
<filter id="filter7_d_3454_16825" x="221.07" y="179.371" width="27.2075" height="31.6338" filterUnits="userSpaceOnUse" color-interpolation-filters="sRGB">
<feFlood flood-opacity="0" result="BackgroundImageFix"/>
<feColorMatrix in="SourceAlpha" type="matrix" values="0 0 0 0 0 0 0 0 0 0 0 0 0 0 0 0 0 0 127 0" result="hardAlpha"/>
<feOffset dx="2" dy="2"/>
<feGaussianBlur stdDeviation="2"/>
<feComposite in2="hardAlpha" operator="out"/>
<feColorMatrix type="matrix" values="0 0 0 0 0 0 0 0 0 0 0 0 0 0 0 0 0 0 0.25 0"/>
<feBlend mode="normal" in2="BackgroundImageFix" result="effect1_dropShadow_3454_16825"/>
<feBlend mode="normal" in="SourceGraphic" in2="effect1_dropShadow_3454_16825" result="shape"/>
</filter>
<filter id="filter8_d_3454_16825" x="201.086" y="186.113" width="24.3071" height="31.8213" filterUnits="userSpaceOnUse" color-interpolation-filters="sRGB">
<feFlood flood-opacity="0" result="BackgroundImageFix"/>
<feColorMatrix in="SourceAlpha" type="matrix" values="0 0 0 0 0 0 0 0 0 0 0 0 0 0 0 0 0 0 127 0" result="hardAlpha"/>
<feOffset dx="2" dy="2"/>
<feGaussianBlur stdDeviation="2"/>
<feComposite in2="hardAlpha" operator="out"/>
<feColorMatrix type="matrix" values="0 0 0 0 0 0 0 0 0 0 0 0 0 0 0 0 0 0 0.25 0"/>
<feBlend mode="normal" in2="BackgroundImageFix" result="effect1_dropShadow_3454_16825"/>
<feBlend mode="normal" in="SourceGraphic" in2="effect1_dropShadow_3454_16825" result="shape"/>
</filter>
<filter id="filter9_d_3454_16825" x="182.266" y="185.971" width="24.916" height="25.1338" filterUnits="userSpaceOnUse" color-interpolation-filters="sRGB">
<feFlood flood-opacity="0" result="BackgroundImageFix"/>
<feColorMatrix in="SourceAlpha" type="matrix" values="0 0 0 0 0 0 0 0 0 0 0 0 0 0 0 0 0 0 127 0" result="hardAlpha"/>
<feOffset dx="2" dy="2"/>
<feGaussianBlur stdDeviation="2"/>
<feComposite in2="hardAlpha" operator="out"/>
<feColorMatrix type="matrix" values="0 0 0 0 0 0 0 0 0 0 0 0 0 0 0 0 0 0 0.25 0"/>
<feBlend mode="normal" in2="BackgroundImageFix" result="effect1_dropShadow_3454_16825"/>
<feBlend mode="normal" in="SourceGraphic" in2="effect1_dropShadow_3454_16825" result="shape"/>
</filter>
<filter id="filter10_d_3454_16825" x="159.904" y="179.371" width="26.8989" height="31.6338" filterUnits="userSpaceOnUse" color-interpolation-filters="sRGB">
<feFlood flood-opacity="0" result="BackgroundImageFix"/>
<feColorMatrix in="SourceAlpha" type="matrix" values="0 0 0 0 0 0 0 0 0 0 0 0 0 0 0 0 0 0 127 0" result="hardAlpha"/>
<feOffset dx="2" dy="2"/>
<feGaussianBlur stdDeviation="2"/>
<feComposite in2="hardAlpha" operator="out"/>
<feColorMatrix type="matrix" values="0 0 0 0 0 0 0 0 0 0 0 0 0 0 0 0 0 0 0.25 0"/>
<feBlend mode="normal" in2="BackgroundImageFix" result="effect1_dropShadow_3454_16825"/>
<feBlend mode="normal" in="SourceGraphic" in2="effect1_dropShadow_3454_16825" result="shape"/>
</filter>
<filter id="filter11_d_3454_16825" x="136.717" y="185.955" width="24.0063" height="25.1504" filterUnits="userSpaceOnUse" color-interpolation-filters="sRGB">
<feFlood flood-opacity="0" result="BackgroundImageFix"/>
<feColorMatrix in="SourceAlpha" type="matrix" values="0 0 0 0 0 0 0 0 0 0 0 0 0 0 0 0 0 0 127 0" result="hardAlpha"/>
<feOffset dx="2" dy="2"/>
<feGaussianBlur stdDeviation="2"/>
<feComposite in2="hardAlpha" operator="out"/>
<feColorMatrix type="matrix" values="0 0 0 0 0 0 0 0 0 0 0 0 0 0 0 0 0 0 0.25 0"/>
<feBlend mode="normal" in2="BackgroundImageFix" result="effect1_dropShadow_3454_16825"/>
<feBlend mode="normal" in="SourceGraphic" in2="effect1_dropShadow_3454_16825" result="shape"/>
</filter>
<filter id="filter12_d_3454_16825" x="116.957" y="185.938" width="23.8438" height="25.1006" filterUnits="userSpaceOnUse" color-interpolation-filters="sRGB">
<feFlood flood-opacity="0" result="BackgroundImageFix"/>
<feColorMatrix in="SourceAlpha" type="matrix" values="0 0 0 0 0 0 0 0 0 0 0 0 0 0 0 0 0 0 127 0" result="hardAlpha"/>
<feOffset dx="2" dy="2"/>
<feGaussianBlur stdDeviation="2"/>
<feComposite in2="hardAlpha" operator="out"/>
<feColorMatrix type="matrix" values="0 0 0 0 0 0 0 0 0 0 0 0 0 0 0 0 0 0 0.25 0"/>
<feBlend mode="normal" in2="BackgroundImageFix" result="effect1_dropShadow_3454_16825"/>
<feBlend mode="normal" in="SourceGraphic" in2="effect1_dropShadow_3454_16825" result="shape"/>
</filter>
<filter id="filter13_d_3454_16825" x="76.25" y="166.539" width="43.75" height="44.3848" filterUnits="userSpaceOnUse" color-interpolation-filters="sRGB">
<feFlood flood-opacity="0" result="BackgroundImageFix"/>
<feColorMatrix in="SourceAlpha" type="matrix" values="0 0 0 0 0 0 0 0 0 0 0 0 0 0 0 0 0 0 127 0" result="hardAlpha"/>
<feOffset dx="2" dy="2"/>
<feGaussianBlur stdDeviation="2"/>
<feComposite in2="hardAlpha" operator="out"/>
<feColorMatrix type="matrix" values="0 0 0 0 0 0 0 0 0 0 0 0 0 0 0 0 0 0 0.25 0"/>
<feBlend mode="normal" in2="BackgroundImageFix" result="effect1_dropShadow_3454_16825"/>
<feBlend mode="normal" in="SourceGraphic" in2="effect1_dropShadow_3454_16825" result="shape"/>
</filter>
</defs>
</svg>
