<svg width="303" height="98" viewBox="0 0 303 98" fill="none" xmlns="http://www.w3.org/2000/svg">
<g clip-path="url(#clip0_419_6239)">
<path fill-rule="evenodd" clip-rule="evenodd" d="M40.7914 12.2877C24.9597 12.2877 12.2905 24.4812 12.2905 39.3131V39.3508V39.3885C12.1011 43.6666 13.4267 48.6231 15.7182 53.7304C17.9907 58.8189 21.1722 63.9827 24.562 68.6566C27.9518 73.3116 31.531 77.4577 34.6178 80.5296C36.1517 82.0562 37.5531 83.3189 38.7272 84.2235C39.6741 84.9585 40.3937 85.4108 40.8861 85.6369C40.9997 85.5804 41.1702 85.505 41.3785 85.3919C41.7951 85.1469 42.3254 84.7889 42.9314 84.3177C44.1434 83.3754 45.6394 82.0185 47.3059 80.3412C50.62 76.9866 54.5211 72.3693 58.1382 67.2431C58.5927 66.6023 59.4638 66.4516 60.0887 66.9039C60.7137 67.3562 60.8652 68.2608 60.4107 68.9016C56.7178 74.1785 52.7031 78.9089 49.2754 82.3766C47.571 84.1104 45.9803 85.5616 44.6357 86.5981C43.9729 87.1258 43.329 87.5592 42.7609 87.8796C42.2117 88.2 41.6247 88.4639 41.0376 88.5581L40.6967 88.5769L40.3937 88.4827C39.409 88.2 38.2349 87.4273 36.985 86.4662C35.6972 85.4673 34.2201 84.1292 32.6294 82.5462C29.4479 79.3612 25.755 75.1208 22.2895 70.3339C18.8239 65.5658 15.5288 60.2323 13.1427 54.8989C10.7755 49.6031 9.26048 44.1943 9.46879 39.2754C9.50666 22.6908 23.6151 9.4231 40.7914 9.4231C54.0098 9.4231 65.3723 17.2631 69.9552 28.42C70.2582 29.155 69.9173 29.9842 69.1977 30.2858C68.478 30.5873 67.6637 30.2481 67.3607 29.5131C63.2513 19.4681 52.9304 12.2877 40.7914 12.2877Z" fill="#F0500B"/>
<path d="M280.871 60.1194C279.318 60.1194 277.846 59.8178 276.521 59.3655C275.214 58.8944 274.214 58.3855 273.494 57.6694C273.154 57.3301 272.889 56.5951 272.927 56.1617C273.003 55.7094 273.116 55.1251 273.495 54.8424C273.93 54.5032 274.591 54.409 275.008 54.4655C275.443 54.5032 275.821 54.5221 276.142 54.8424C276.521 55.2571 277.201 55.6151 278.034 55.9732C278.867 56.3124 279.848 56.5386 280.871 56.5386C282.159 56.5386 283.045 56.3878 283.708 55.9732C284.39 55.5586 284.446 55.2946 284.465 54.635C284.483 53.9754 284.365 53.6174 283.703 53.1463C283.059 52.6751 282.046 52.3171 280.303 52.0155C278.069 51.5821 276.409 50.9978 275.386 50.1309C274.382 49.264 273.552 47.7561 273.552 46.4935C273.552 45.3815 273.777 44.6467 274.44 43.9117C275.103 43.1767 276.374 42.3851 277.415 42.0271C278.457 41.6501 279.536 41.4617 280.673 41.4617C282.131 41.4617 283.419 41.5747 284.555 42.0271C285.691 42.4794 286.828 43.1201 287.491 43.9117C287.794 44.2509 288.058 45.0236 288.039 45.4194C288.02 45.7963 287.774 46.2296 287.414 46.4935C287.055 46.7385 286.281 47.0213 285.789 46.9271C285.296 46.8328 284.896 46.6065 284.555 46.305C284.006 45.7773 283.406 45.2496 282.762 45.0611C282.118 44.8727 281.506 44.854 280.673 44.854C279.707 44.854 278.905 45.099 278.223 45.4194C277.56 45.7398 277.415 45.8715 277.415 46.4935C277.415 46.7386 277.447 46.9836 277.655 47.304C277.883 47.6055 278.165 47.794 278.79 48.0578C279.415 48.3028 280.245 48.5667 281.438 48.8117C283.105 49.1321 284.463 49.6221 285.41 50.1309C286.376 50.6397 287.074 51.3371 287.491 52.0155C287.907 52.6751 288.436 53.5986 288.436 54.4655C288.436 55.4644 288.04 56.2936 287.491 57.104C286.96 57.9144 286.092 58.8944 285.032 59.3655C284.009 59.8744 282.443 60.1194 280.871 60.1194Z" fill="white"/>
<path d="M258.552 59.9307C258.022 59.9307 257.512 59.8176 257.228 59.5537C256.944 59.271 256.472 58.5927 256.472 58.0461V43.346C256.472 42.8183 256.755 42.498 257.039 42.2153C257.323 41.9326 258.022 41.6499 258.552 41.6499C259.101 41.6499 259.8 41.7253 260.065 42.0268C260.349 42.2907 260.444 42.988 260.444 43.5345V58.0461C260.444 58.5738 260.16 59.0826 259.876 59.3653C259.611 59.6668 259.101 59.9307 258.552 59.9307ZM258.478 48.5288C258.478 47.2284 258.8 46.06 259.444 45.0423C260.106 44.0057 260.966 42.9127 262.065 42.2907C263.163 41.6877 264.414 41.4614 265.739 41.4614C267.065 41.4614 268.06 41.8573 268.704 42.2907C269.367 42.7053 269.613 43.2142 269.461 43.7984C269.386 44.1 269.253 44.345 269.064 44.5146C268.893 44.6653 268.823 44.9857 268.576 45.0423C268.33 45.08 267.915 44.9291 267.631 44.8537C266.21 44.571 264.984 44.6087 263.848 44.8537C262.712 45.0987 261.863 45.5133 261.2 46.173C260.556 46.8326 260.163 47.5488 260.163 48.5477H258.478V48.5288Z" fill="white"/>
<path d="M247.771 59.9307C247.279 59.9307 246.788 59.6668 246.447 59.3653C246.144 59.0449 245.88 58.5172 245.88 58.046V43.4593C245.88 42.9504 246.126 42.3283 246.447 42.0268C246.788 41.7253 247.279 41.4614 247.771 41.4614C248.283 41.4614 248.963 41.9137 249.285 42.2153C249.588 42.5168 249.777 42.9693 249.777 43.4593L249.852 58.046C249.852 58.5172 249.606 59.0449 249.285 59.3653C248.963 59.6668 248.283 59.9307 247.771 59.9307ZM240.584 60.1191C239.05 60.1191 237.635 59.7987 236.423 59.1768C235.23 58.5172 234.117 57.5937 233.397 56.3499C232.715 55.106 232.35 53.5234 232.35 51.7141V43.4593C232.35 42.9881 232.508 42.5168 232.829 42.2153C233.17 41.8949 233.661 41.6499 234.153 41.6499C234.646 41.6499 235.364 41.8949 235.667 42.2153C236.007 42.5168 236.234 43.0633 236.234 43.5345V51.4499C236.234 52.6749 236.517 53.6549 236.991 54.4653C237.464 55.2568 237.897 55.7657 238.693 56.1614C239.488 56.5383 240.222 56.84 241.226 56.84C242.173 56.84 243.08 56.5195 243.8 56.1614C244.557 55.7845 245.047 55.2945 245.502 54.6537C245.937 54.013 245.88 53.3722 245.88 52.5807L248.29 52.6562C248.29 54.0131 247.949 55.2193 247.267 56.3123C246.604 57.4054 245.711 58.536 244.556 59.1768C243.363 59.8176 242.061 60.1191 240.584 60.1191Z" fill="white"/>
<path d="M217.422 56.8778C218.577 56.8778 219.58 56.6139 220.471 56.0863C221.361 55.5586 222.042 54.8424 222.535 53.9378C223.046 53.0143 223.292 51.9589 223.292 50.7716C223.292 49.5843 223.046 48.9625 222.535 48.0579C222.042 47.1156 221.361 46.1356 220.471 45.6079C219.58 45.0802 218.577 44.854 217.422 44.854C216.266 44.854 215.263 45.2686 214.373 45.7963C213.483 46.324 212.895 46.7386 212.403 47.6809C211.892 48.6044 211.532 49.5843 211.532 50.7716C211.532 51.9589 211.778 53.0332 212.29 53.9378C212.801 54.8613 213.502 55.5774 214.373 56.0863C215.244 56.6139 216.266 56.8778 217.422 56.8778ZM217.888 60.1194C216.089 60.1194 214.051 59.7613 212.668 58.9886C211.305 58.1971 210.172 57.3302 209.377 55.9733C208.6 54.5975 208.256 52.5243 208.256 50.7528C208.256 48.9624 208.635 47.3982 209.411 46.0413C210.206 44.6655 211.286 43.6101 212.668 42.8374C214.032 42.0459 215.623 41.6689 217.422 41.6689C219.183 41.6689 220.755 42.0647 222.137 42.8374C223.501 43.5913 224.58 44.6655 225.356 46.0413C226.152 47.3982 226.549 48.9624 226.549 50.7528C226.549 52.5243 226.419 54.0321 225.643 55.4079C224.866 56.7648 223.898 58.0086 222.535 58.8002C221.152 59.5729 219.668 60.1194 217.888 60.1194Z" fill="white"/>
<path d="M175.02 58.9695C174.604 59.1392 174.206 59.158 173.827 59.0261C173.467 58.8753 172.947 58.5549 172.719 58.1403L165.267 43.9115C165.04 43.4969 165.116 43.1576 165.268 42.7995C165.438 42.4038 165.741 42.1211 166.158 41.9515C166.574 41.7819 166.972 41.763 167.351 41.9138C167.729 42.0457 168.013 42.3095 168.222 42.7242L175.494 56.9342C175.721 57.3488 175.797 57.7445 175.721 58.1403C175.683 58.5172 175.437 58.7999 175.02 58.9695ZM171.1 67.5257C170.873 67.5257 170.608 67.4692 170.305 67.3372C169.339 66.9038 169.074 66.2253 169.51 65.283L179.493 42.5923C179.928 41.6689 180.758 41.6122 181.705 41.9892C182.709 42.4038 182.974 43.0822 182.539 44.0434L172.388 66.508C172.142 67.1865 171.706 67.5257 171.1 67.5257Z" fill="white"/>
<path d="M159.794 60.1004C159.302 60.1004 158.526 59.5727 158.185 59.2712C157.882 58.9508 157.712 58.5362 157.712 58.065L158.09 53.0708L158.715 49.6031L161.839 50.7716V58.0462C161.839 58.5174 161.29 59.3089 160.968 59.6293C160.684 59.9497 160.287 60.1004 159.794 60.1004ZM152.371 56.8777C153.507 56.8777 154.511 56.6139 155.382 56.0862C156.272 55.5397 156.973 54.8047 157.465 53.9001C157.976 52.9577 158.223 51.9212 158.223 50.7716C158.223 49.6031 157.976 48.5477 157.465 47.6431C156.954 46.7008 156.253 45.9847 155.382 45.457C154.492 44.9104 153.488 44.6466 152.371 44.6466C151.272 44.6466 150.25 44.9104 149.36 45.457C148.47 45.9847 147.769 46.7008 147.239 47.6431C146.727 48.5666 146.481 49.6031 146.481 50.7716C146.481 51.9212 146.727 52.9766 147.239 53.9001C147.769 54.8235 148.529 55.4267 149.419 55.9733C150.309 56.501 151.254 56.8777 152.371 56.8777ZM151.708 60.1947C150.098 60.1947 148.437 59.5729 147.15 58.8002C145.862 57.9898 145.061 56.7647 144.303 55.4077C143.565 54.032 143.205 52.4866 143.205 50.7716C143.205 49.0566 143.603 47.5112 144.398 46.1354C145.212 44.7597 146.311 43.6854 147.674 42.8939C149.076 42.0835 150.629 41.6877 152.352 41.6877C154.075 41.6877 156.006 41.7066 157.37 42.517C158.733 43.3085 159.832 44.7597 160.627 46.1354C161.441 47.5112 161.839 49.0566 161.839 50.7716H160.192C160.192 52.4866 159.813 54.032 159.056 55.4077C158.317 56.7647 157.308 57.9898 156.039 58.8002C154.751 59.5729 153.318 60.1947 151.708 60.1947Z" fill="white"/>
<path d="M120.972 56.3124H124.874C126.73 56.3124 128.377 55.8978 129.779 55.0686C131.218 54.2205 131.976 53.4478 132.79 51.9778C133.604 50.4889 134.021 49.1886 134.021 47.2851C134.021 45.3628 133.604 43.6855 132.79 42.2155C131.976 40.7643 131.218 39.6147 129.779 38.7855C128.358 37.9562 126.73 37.5416 124.874 37.5416H120.972V56.3124ZM118.871 60.0628C118.378 60.0628 117.796 59.6858 117.455 59.3654C117.114 59.045 116.769 58.4609 116.769 57.9897V35.8832C116.769 35.3743 117.318 34.9786 117.64 34.677C117.981 34.3566 118.378 34.187 118.871 34.187H124.874C126.768 34.187 128.51 34.5074 130.044 35.1293C131.616 35.7324 132.979 36.6182 134.134 37.7678C135.289 38.8986 136.161 40.2366 136.786 41.782C137.41 43.3274 138.071 45.0612 138.071 46.9269C138.071 48.7927 137.75 50.4512 137.125 52.0154C136.501 53.5608 135.633 55.0119 134.478 56.1616C133.322 57.2923 131.888 58.3666 130.316 58.9885C128.764 59.5916 126.768 60.0628 124.874 60.0628H118.871Z" fill="white"/>
<path d="M99.5732 60.1194C97.7363 60.1194 96.0085 59.7613 94.5693 58.9886C93.149 58.1971 92.074 57.1228 91.2597 55.7658C90.4643 54.3901 89.8408 52.5431 89.8408 50.7716C89.8408 48.9812 90.2182 47.2851 90.9757 45.9281C91.7521 44.5524 92.8464 43.3651 94.191 42.5924C95.5356 41.8009 97.3386 41.4617 99.0809 41.4617C100.804 41.4617 102.587 41.8197 103.837 42.5924C105.068 43.3274 106.03 44.8351 106.674 46.1732C107.337 47.4736 107.62 48.7928 107.62 50.5078C107.62 50.9224 107.526 51.3559 107.242 51.6386C106.958 51.9024 106.372 52.204 105.918 52.204H92.4527V49.2827H105.728L104.364 50.2062C104.345 49.1131 103.948 48.3405 103.531 47.4924C103.115 46.6255 102.533 45.9094 101.757 45.4194C100.98 44.9105 100.179 44.6655 99.0809 44.6655C97.812 44.6655 96.8023 44.8728 95.8933 45.4194C95.0032 45.9659 94.4753 46.5313 94.0019 47.4924C93.5284 48.4347 93.0966 49.5654 93.0966 50.7716C93.0966 51.9778 93.3807 53.0331 93.9299 53.9754C94.479 54.9177 95.2555 55.6528 96.2213 56.1993C97.1871 56.7458 98.3044 57.0097 99.5732 57.0097C100.255 57.0097 100.956 56.8966 101.656 56.6516C102.395 56.3877 102.982 56.1051 103.418 55.7658C103.758 55.5208 104.099 55.4078 104.478 55.4078C104.876 55.3889 105.217 55.502 105.501 55.7281C105.879 56.0485 106.069 56.4066 106.107 56.8024C106.126 57.1981 106.107 57.7636 105.728 58.0463C104.97 58.6305 104.028 59.1959 102.891 59.554C101.793 59.9309 100.596 60.1194 99.5732 60.1194Z" fill="white"/>
<path d="M68.7809 60.1004C68.2885 60.1004 67.8908 59.9496 67.55 59.6481C67.247 59.3277 66.6982 58.5361 66.6982 58.065L66.766 43.4969C66.766 42.9881 67.0114 42.3286 67.3334 42.0271C67.6743 41.7255 68.3541 41.6877 68.8465 41.6877C69.3578 41.6877 69.8485 41.7255 70.1705 42.0271C70.4735 42.3286 70.4853 43.0069 70.4853 43.4969L70.8636 58.065C70.8636 58.5361 70.3338 59.3277 70.0118 59.6481C69.7088 59.9496 69.2922 60.1004 68.7809 60.1004ZM82.4159 60.1004C81.9235 60.1004 81.5258 59.9496 81.185 59.6481C80.882 59.3277 80.3332 58.5361 80.3332 58.065V50.0365C80.3332 48.7927 80.4843 47.775 80.0108 47.0023C79.5374 46.2296 78.9125 45.6454 78.1171 45.2684C77.3406 44.8727 76.489 44.854 75.4663 44.854C74.5384 44.854 73.5759 45.0613 72.8184 45.4194C72.0609 45.7963 71.7598 46.2863 71.3053 46.9271C70.8697 47.5301 70.4474 48.0577 70.4474 48.8681H68.3643C68.3643 47.4923 68.7052 46.2861 69.368 45.2119C70.0497 44.1188 70.8877 43.0447 72.0618 42.404C73.236 41.7821 74.7458 41.4617 76.2229 41.4617C77.7568 41.4617 79.3611 41.9328 80.5731 42.5924C81.7851 43.2332 82.5203 44.1755 83.221 45.4194C83.9217 46.6632 84.4985 48.2461 84.4985 50.0554V58.0838C84.4985 58.555 83.9498 59.3465 83.6279 59.6669C83.306 59.9496 82.9083 60.1004 82.4159 60.1004Z" fill="white"/>
<path fill-rule="evenodd" clip-rule="evenodd" d="M273.344 54.5031C273.874 54.0885 274.499 53.8435 275.181 53.9377C275.787 53.9942 276.317 54.2769 276.753 54.7104C277.037 55.0119 277.529 55.3512 278.306 55.7092C279.044 56.0108 279.877 56.1804 280.805 56.1804C282.036 56.1804 282.851 55.9731 283.343 55.6715C283.873 55.3512 284.044 55.0119 284.063 54.6538C284.082 54.2958 283.911 53.9377 283.4 53.5608C282.907 53.1838 281.866 52.8258 280.161 52.5242C277.87 52.0719 276.109 51.3935 274.954 50.4135C273.817 49.4146 273.211 48.1519 273.211 46.6819C273.211 45.4192 273.59 44.3262 274.386 43.4592C275.143 42.63 276.09 42.0081 277.245 41.6312C278.362 41.2354 279.537 41.0281 280.73 41.0281C282.264 41.0281 283.665 41.2731 284.896 41.7631C286.108 42.2531 287.112 42.9504 287.869 43.855C288.267 44.3073 288.494 44.8538 288.475 45.4569C288.437 46.0788 288.115 46.5688 287.623 46.9269H287.604H287.585C287.055 47.285 286.43 47.3792 285.786 47.2662C285.18 47.1531 284.631 46.9081 284.195 46.4935C283.703 46.0412 283.21 45.7396 282.68 45.5888C282.131 45.4192 281.449 45.325 280.673 45.325C279.783 45.325 279.063 45.4758 278.495 45.7396C278.249 45.8527 278.097 45.9846 278.022 46.0977C277.946 46.2108 277.889 46.3427 277.889 46.5312C277.889 46.795 277.946 47.0023 278.059 47.2096C278.173 47.3604 278.438 47.5677 278.987 47.7938C279.555 48.0012 280.408 48.2462 281.582 48.4723C283.267 48.8115 284.65 49.245 285.691 49.7727C286.733 50.3192 287.547 50.9788 288.058 51.7892C288.551 52.5619 288.797 53.4665 288.797 54.4465C288.797 55.5773 288.475 56.6327 287.85 57.5562C287.225 58.4985 286.316 59.2146 285.161 59.7423C284.006 60.27 282.585 60.5338 280.938 60.5338C279.309 60.5338 277.794 60.2888 276.393 59.8177C275.029 59.3088 273.912 58.6681 273.079 57.8577C272.624 57.3677 272.397 56.7835 272.454 56.1238V56.105V56.0862C272.511 55.4265 272.833 54.88 273.344 54.5031ZM276.601 59.1392C277.927 59.5915 279.366 59.8177 280.919 59.8177C282.491 59.8177 283.797 59.5727 284.839 59.1015C285.9 58.6304 286.695 57.9896 287.225 57.1792C287.774 56.3688 288.058 55.4642 288.058 54.4654C288.058 53.5985 287.85 52.8258 287.433 52.185C287.017 51.5065 286.316 50.9223 285.35 50.4135C284.403 49.9046 283.097 49.49 281.43 49.1696C280.237 48.9246 279.328 48.6985 278.703 48.4535C278.078 48.1896 277.662 47.9069 277.434 47.6054C277.226 47.285 277.131 46.9269 277.131 46.5312C277.131 45.8904 277.472 45.4192 278.135 45.0988C278.817 44.7785 279.65 44.6088 280.616 44.6088C281.449 44.6088 282.207 44.7031 282.832 44.9104C283.476 45.0988 284.063 45.4569 284.631 45.9846C284.972 46.2862 285.369 46.4935 285.862 46.5688C286.354 46.6631 286.771 46.5877 287.13 46.3427C287.49 46.0788 287.68 45.7585 287.699 45.4004C287.718 45.0046 287.585 44.6465 287.263 44.2885C286.6 43.4781 285.71 42.8562 284.574 42.4038C283.438 41.9515 282.15 41.7254 280.692 41.7254C279.555 41.7254 278.476 41.9138 277.434 42.2719C276.393 42.6112 275.541 43.1577 274.878 43.9115C274.215 44.6277 273.874 45.5512 273.874 46.6631C273.874 47.9258 274.367 49 275.37 49.8669C276.393 50.7338 278.022 51.3935 280.256 51.8269C281.979 52.1285 283.173 52.5242 283.816 52.9954C284.479 53.4665 284.801 54.0319 284.782 54.6915C284.763 55.3512 284.403 55.8788 283.722 56.2935C283.059 56.7081 282.093 56.9154 280.805 56.9154C279.783 56.9154 278.855 56.7458 278.022 56.3877C277.207 56.0108 276.601 55.6338 276.222 55.2192C275.919 54.8988 275.541 54.7104 275.086 54.6727C274.67 54.6162 274.234 54.7481 273.798 55.1062C273.42 55.3888 273.192 55.7658 273.136 56.2181C273.098 56.6515 273.23 57.0473 273.571 57.3865C274.291 58.065 275.313 58.6492 276.601 59.1392Z" fill="white"/>
<path fill-rule="evenodd" clip-rule="evenodd" d="M260.902 48.5289V58.0651C260.902 58.7059 260.732 59.3089 260.277 59.7612C259.823 60.2324 259.198 60.402 258.535 60.402C257.891 60.402 257.285 60.2324 256.812 59.8178L256.793 59.7989L256.774 59.7801C256.3 59.3278 256.13 58.7059 256.13 58.0462V43.4405C256.13 42.7809 256.319 42.1778 256.774 41.7255C257.228 41.2732 257.853 41.0847 258.516 41.0847C259.179 41.0847 259.804 41.2543 260.258 41.7255C260.504 41.9516 260.675 42.2343 260.77 42.5359C261.073 42.3097 261.413 42.1024 261.754 41.8951C262.966 41.2166 264.311 40.8962 265.75 40.8962C267.133 40.8962 268.288 41.1224 269.102 41.6689C269.5 41.9139 269.841 42.2343 270.03 42.6301C270.238 43.0447 270.276 43.497 270.163 43.9305C270.068 44.3451 269.879 44.722 269.538 45.0235C269.254 45.2685 268.932 45.4193 268.553 45.4759C268.193 45.5324 267.833 45.5135 267.473 45.4382C266.129 45.1743 264.974 45.1555 263.97 45.3816C262.947 45.5889 262.19 45.9847 261.641 46.5312C261.148 47.0401 260.902 47.6809 260.902 48.5289ZM260.164 48.5289V58.0651C260.164 58.5928 260.012 58.9885 259.728 59.2712C259.463 59.5539 259.046 59.7047 258.497 59.7047C257.967 59.7047 257.55 59.5728 257.266 59.3089C256.982 59.0262 256.831 58.6116 256.831 58.0651V43.4593C256.831 42.9316 256.982 42.5359 257.266 42.2532C257.55 41.9705 257.967 41.8197 258.497 41.8197C259.046 41.8197 259.463 41.9516 259.728 42.2532C259.936 42.4416 260.069 42.7243 260.126 43.0824C260.145 43.1955 260.145 43.3274 260.145 43.4782V44.0812C260.334 43.8739 260.542 43.6666 260.751 43.4782C260.789 43.4405 260.826 43.4216 260.864 43.3839C261.224 43.0824 261.641 42.7997 262.076 42.5547C263.175 41.9516 264.406 41.6312 265.731 41.6312C267.057 41.6312 268.042 41.8574 268.685 42.2909C269.348 42.7055 269.594 43.2143 269.443 43.7985C269.367 44.1001 269.235 44.3451 269.045 44.5147C268.875 44.6655 268.667 44.7597 268.42 44.8162C268.174 44.8539 267.909 44.8539 267.625 44.7785C266.205 44.4959 264.936 44.477 263.8 44.722C262.663 44.967 261.773 45.4005 261.11 46.0601C261.016 46.1543 260.94 46.2297 260.864 46.3239C260.41 46.9082 260.164 47.662 260.164 48.5289Z" fill="white"/>
<path fill-rule="evenodd" clip-rule="evenodd" d="M235.943 41.7818C236.416 42.2341 236.643 42.7995 236.643 43.4591V51.4876C236.643 52.6184 236.852 53.5041 237.249 54.1637C237.647 54.8234 238.177 55.3134 238.84 55.6526C239.522 55.973 240.317 56.1426 241.207 56.1426C242.059 56.1426 242.779 55.973 243.404 55.6714C244.048 55.3511 244.559 54.9176 244.919 54.4088C245.279 53.8999 245.449 53.3345 245.449 52.6937V43.478C245.449 42.8184 245.657 42.2341 246.131 41.763C246.604 41.3295 247.191 41.1222 247.854 41.1222C248.517 41.1222 249.123 41.3295 249.596 41.7818C250.07 42.2341 250.278 42.8372 250.278 43.4968V58.0649C250.278 58.7057 250.07 59.2899 249.615 59.7611C249.142 60.2134 248.536 60.4207 247.873 60.4207C247.21 60.4207 246.623 60.2134 246.15 59.7799L246.131 59.7611L246.112 59.7422C245.923 59.5349 245.752 59.3087 245.657 59.0449C245.392 59.2334 245.127 59.3841 244.843 59.5537C243.574 60.2511 242.135 60.5903 240.544 60.5903C238.916 60.5903 237.42 60.2511 236.094 59.5537C234.768 58.8376 233.727 57.7822 232.969 56.4441C232.212 55.0684 231.852 53.4287 231.852 51.5253V43.4968C231.852 42.8561 232.06 42.2718 232.534 41.8195C233.007 41.3484 233.594 41.1222 234.276 41.1222C234.901 41.0845 235.488 41.3107 235.943 41.7818ZM236.416 58.913C237.628 59.5349 239.01 59.8553 240.525 59.8553C242.003 59.8553 243.328 59.5349 244.483 58.913C244.824 58.7245 245.165 58.5172 245.468 58.2911C245.582 58.2157 245.676 58.1214 245.79 58.0272C245.923 57.9141 246.055 57.8011 246.188 57.6691V58.0272C246.188 58.2157 246.207 58.4041 246.263 58.5737C246.339 58.8187 246.472 59.0449 246.661 59.2334C247.002 59.5349 247.4 59.6857 247.892 59.6857C248.403 59.6857 248.801 59.5349 249.123 59.2334C249.426 58.913 249.596 58.4984 249.596 58.0272V43.4591C249.596 42.9503 249.445 42.5545 249.123 42.253C248.82 41.9514 248.403 41.8007 247.892 41.8007C247.4 41.8007 247.002 41.9514 246.661 42.253C246.358 42.5545 246.188 42.9691 246.188 43.4591V52.6749C246.188 53.4664 245.96 54.1637 245.525 54.8045C245.506 54.8234 245.487 54.8611 245.468 54.8799C245.033 55.4641 244.445 55.9541 243.726 56.2934C242.987 56.6703 242.154 56.8399 241.207 56.8399C240.203 56.8399 239.313 56.6514 238.518 56.2934C237.723 55.8976 237.098 55.3134 236.624 54.5218C236.151 53.7114 235.924 52.7126 235.924 51.4876V43.4591C235.924 42.988 235.753 42.5922 235.431 42.2907C235.128 41.9703 234.731 41.8007 234.238 41.8007C233.746 41.8007 233.348 41.9703 233.007 42.2907C232.704 42.5922 232.534 42.988 232.534 43.4591V51.4876C232.534 53.2968 232.875 54.8234 233.556 56.0672C234.276 57.3111 235.223 58.2534 236.416 58.913Z" fill="white"/>
<path fill-rule="evenodd" clip-rule="evenodd" d="M221.891 53.5986C222.345 52.7882 222.573 51.8647 222.573 50.7716C222.573 49.6786 222.345 48.7362 221.891 47.9447C221.455 47.1155 220.868 46.4936 220.111 46.0412C219.353 45.5889 218.463 45.3628 217.422 45.3628C216.38 45.3628 215.509 45.5889 214.733 46.0412C213.956 46.4936 213.35 47.1343 212.915 47.9636C212.479 48.7551 212.233 49.6974 212.233 50.7905C212.233 51.8836 212.46 52.8259 212.915 53.6174C213.369 54.4278 213.975 55.0497 214.752 55.502C215.509 55.9543 216.399 56.1805 217.441 56.1805C218.482 56.1805 219.353 55.9543 220.13 55.502C220.868 55.0309 221.455 54.4089 221.891 53.5986ZM220.471 56.1051C219.581 56.6328 218.577 56.8966 217.422 56.8966C216.267 56.8966 215.263 56.6328 214.373 56.1051C213.483 55.5774 212.782 54.8612 212.29 53.9566C211.778 53.0332 211.532 51.9778 211.532 50.7905C211.532 49.5843 211.778 48.5289 212.29 47.6243C212.801 46.682 213.502 45.9659 214.373 45.4382C215.263 44.9105 216.267 44.6466 217.422 44.6466C218.577 44.6466 219.581 44.9105 220.471 45.4382C221.361 45.9659 222.042 46.682 222.535 47.6243C223.046 48.5478 223.292 49.6032 223.292 50.7905C223.292 51.9966 223.046 53.052 222.535 53.9566C222.042 54.8612 221.361 55.5774 220.471 56.1051ZM212.309 42.2532C213.805 41.4051 215.509 40.9905 217.422 40.9905C219.297 40.9905 221.001 41.4051 222.497 42.2532C223.974 43.0824 225.148 44.232 225.981 45.7209C226.853 47.1909 227.269 48.887 227.269 50.7716C227.269 52.6374 226.853 54.3336 226.019 55.8224C225.186 57.2924 224.012 58.442 222.535 59.2901C221.039 60.1193 219.334 60.5339 217.441 60.5339C215.547 60.5339 213.843 60.1382 212.346 59.2901C210.869 58.442 209.695 57.2924 208.824 55.8412C207.991 54.3524 207.574 52.6562 207.574 50.7905C207.574 48.9059 207.991 47.2097 208.824 45.7397C209.657 44.232 210.831 43.0824 212.309 42.2532ZM212.668 58.687C214.032 59.4409 215.623 59.8366 217.422 59.8366C219.221 59.8366 220.793 59.4597 222.175 58.687C223.539 57.8955 224.618 56.8401 225.394 55.4832C226.171 54.1074 226.55 52.5432 226.55 50.7716C226.55 48.9812 226.152 47.417 225.357 46.0601C224.58 44.6843 223.501 43.6289 222.137 42.8562C220.774 42.0647 219.202 41.6878 217.422 41.6878C215.623 41.6878 214.051 42.0836 212.668 42.8562C211.305 43.6101 210.207 44.6843 209.411 46.0601C208.635 47.417 208.256 48.9812 208.256 50.7716C208.256 52.5432 208.635 54.1074 209.411 55.4832C210.207 56.8212 211.305 57.8955 212.668 58.687Z" fill="white"/>
<path fill-rule="evenodd" clip-rule="evenodd" d="M209.391 35.7967C209.392 35.7754 209.392 35.7539 209.392 35.7322C209.392 35.2611 209.24 34.903 208.918 34.6203C208.634 34.3188 208.256 34.168 207.782 34.168H190.019V34.1682H200.865H207.782C208.256 34.1682 208.615 34.319 208.918 34.6206C209.221 34.9032 209.392 35.2802 209.392 35.7325C209.392 35.7541 209.392 35.7755 209.391 35.7967ZM188.352 34.1303C188.807 33.6969 189.375 33.4707 190.019 33.4707H207.763C208.407 33.4707 208.975 33.678 209.411 34.1303C209.884 34.5638 210.093 35.1292 210.093 35.7511C210.093 36.373 209.865 36.9384 209.411 37.3907C208.956 37.843 208.388 38.0315 207.763 38.0315H201.343V57.9896C201.343 58.6492 201.116 59.2334 200.643 59.7045C200.169 60.1757 199.563 60.4019 198.901 60.4019C198.219 60.4019 197.632 60.1757 197.158 59.7045C196.685 59.2334 196.458 58.6492 196.458 57.9896V38.0315H190.019C189.394 38.0315 188.826 37.8242 188.371 37.4095L188.352 37.3907L188.333 37.3719C187.917 36.9195 187.708 36.373 187.708 35.7511C187.708 35.1292 187.917 34.5638 188.352 34.1303Z" fill="white"/>
<path fill-rule="evenodd" clip-rule="evenodd" d="M170.305 67.3374C170.608 67.4693 170.873 67.5258 171.1 67.5258C171.706 67.5258 172.123 67.1866 172.388 66.5081L182.539 44.0435C182.974 43.0824 182.709 42.4039 181.705 41.9893C180.758 41.5935 180.058 41.8574 179.622 42.7808L174.282 54.6351L168.203 42.7431C167.995 42.3285 167.711 42.0647 167.332 41.9328C166.953 41.782 166.555 41.8008 166.139 41.9705C165.722 42.1401 165.478 42.5736 165.307 42.9694C165.156 43.3463 165.135 43.5724 165.343 43.987L164.699 44.3262C164.396 43.7608 164.321 43.1389 164.567 42.5547C164.813 41.9893 165.268 41.5747 165.836 41.3485C166.404 41.1224 166.991 41.0847 167.559 41.3108C168.127 41.5181 168.544 41.9328 168.809 42.4793L174.206 53.0143L178.922 42.517C179.187 41.9516 179.584 41.4993 180.171 41.2731C180.758 41.0658 181.364 41.1412 181.952 41.3862C182.558 41.6312 183.069 42.027 183.296 42.6112C183.523 43.1955 183.429 43.8174 183.164 44.4016L173.013 66.8474C172.843 67.262 172.615 67.6201 172.274 67.8839C171.915 68.1666 171.498 68.2985 171.062 68.2985C170.703 68.2985 170.343 68.2043 169.983 68.0535C169.396 67.7897 168.904 67.3939 168.676 66.8097C168.449 66.2255 168.563 65.6224 168.828 65.057L171.99 58.0274L164.699 44.3262L165.343 43.987L172.805 58.0085L169.491 65.3585C169.074 66.2066 169.339 66.8851 170.305 67.3374Z" fill="white"/>
<path fill-rule="evenodd" clip-rule="evenodd" d="M147.315 42.2909C148.83 41.4239 150.515 40.9905 152.352 40.9905C154.189 40.9905 155.875 41.4239 157.371 42.2909C158.848 43.1389 160.022 44.3074 160.874 45.7774C161.688 47.1343 162.124 48.642 162.181 50.3005L162.2 58.0462C162.2 58.7059 161.973 59.2901 161.499 59.7612C161.045 60.2136 160.458 60.4209 159.795 60.4209C159.132 60.4209 158.545 60.2136 158.071 59.7801L158.052 59.7612L158.034 59.7424C157.693 59.3843 157.503 58.9886 157.409 58.5174C157.106 58.7812 156.765 59.0074 156.424 59.2336C155.022 60.1005 153.432 60.5151 151.689 60.5151C149.947 60.5151 148.375 60.1005 146.955 59.2336C145.573 58.3666 144.474 57.1982 143.66 55.747C142.865 54.2582 142.486 52.5997 142.486 50.7716C142.486 48.9436 142.902 47.2662 143.774 45.7774C144.664 44.3074 145.838 43.1389 147.315 42.2909ZM155.004 55.4832C155.78 55.012 156.386 54.3712 156.84 53.5609C157.295 52.7316 157.522 51.8082 157.522 50.7716C157.522 49.6974 157.295 48.7739 156.84 47.9824C156.386 47.1532 155.78 46.5124 155.022 46.0601C154.265 45.5889 153.394 45.3439 152.39 45.3439C151.405 45.3439 150.534 45.5889 149.739 46.0601C148.962 46.5124 148.356 47.1532 147.883 47.9824C147.447 48.7739 147.201 49.6974 147.201 50.7716C147.201 51.8082 147.429 52.7316 147.883 53.5609C148.356 54.3712 148.981 55.012 149.758 55.4832C150.553 55.9355 151.424 56.1616 152.409 56.1616C153.375 56.1805 154.246 55.9355 155.004 55.4832ZM157.39 54.0697C157.428 54.0132 157.446 53.9566 157.484 53.9189C157.636 53.6362 157.768 53.3536 157.863 53.0709C157.863 53.052 157.882 53.052 157.882 53.0332C158.128 52.3359 158.242 51.582 158.242 50.7905C158.242 50.3382 158.204 49.9236 158.128 49.5089C158.109 49.4147 158.09 49.3205 158.071 49.2262C157.939 48.6609 157.749 48.1332 157.465 47.6432C156.954 46.7009 156.253 45.9847 155.382 45.457C154.492 44.9105 153.489 44.6466 152.371 44.6466C151.273 44.6466 150.25 44.9105 149.36 45.457C148.47 45.9847 147.769 46.7009 147.239 47.6432C146.728 48.5666 146.482 49.6032 146.482 50.7716C146.482 51.9212 146.728 52.9766 147.239 53.9001C147.769 54.8236 148.47 55.5397 149.36 56.0862C150.269 56.6139 151.273 56.8778 152.371 56.8778C153.507 56.8778 154.511 56.6139 155.382 56.0862C156.216 55.5774 156.878 54.9178 157.39 54.0697ZM147.353 58.6493C148.641 59.4409 150.08 59.8178 151.708 59.8178C153.318 59.8178 154.776 59.422 156.064 58.6493C156.556 58.3478 156.992 58.0086 157.409 57.6128C157.674 57.3678 157.901 57.1228 158.128 56.8401V58.0462C158.128 58.5174 158.28 58.932 158.602 59.2524C158.943 59.5539 159.34 59.7047 159.833 59.7047C160.325 59.7047 160.723 59.5539 161.026 59.2524C161.367 58.932 161.518 58.5174 161.518 58.0462V50.7716C161.518 50.5266 161.518 50.3005 161.499 50.0555C161.499 50.0366 161.499 49.9989 161.499 49.9801C161.385 48.5666 160.988 47.2851 160.306 46.1355C159.511 44.7597 158.431 43.6855 157.049 42.8939C155.685 42.0836 154.132 41.6878 152.409 41.6878C150.686 41.6878 149.133 42.0836 147.732 42.8939C146.368 43.6855 145.27 44.7597 144.455 46.1355C143.66 47.5112 143.262 49.0566 143.262 50.7716C143.262 52.4866 143.622 54.032 144.361 55.4078C145.042 56.7647 146.065 57.8389 147.353 58.6493Z" fill="white"/>
<path fill-rule="evenodd" clip-rule="evenodd" d="M133.168 51.9776C132.354 53.4288 131.218 54.5972 129.779 55.4453C128.358 56.2745 126.73 56.6892 124.874 56.6892H120.594V37.1834H124.874C126.73 37.1834 128.377 37.598 129.779 38.4272C131.218 39.2565 132.354 40.4061 133.168 41.8572C133.983 43.3084 134.399 45.0045 134.399 46.9269C134.399 48.8115 134.002 50.5076 133.168 51.9776ZM129.419 39.0492C128.131 38.2953 126.616 37.8995 124.874 37.8995H121.314V55.973H124.874C126.616 55.973 128.131 55.5772 129.419 54.8234C130.744 54.0319 131.786 52.9765 132.544 51.6384C133.301 50.2815 133.68 48.6984 133.68 46.9269C133.68 45.1176 133.301 43.5534 132.544 42.2153C131.786 40.8584 130.744 39.803 129.419 39.0492ZM134.134 37.7865C132.979 36.6369 131.616 35.7511 130.044 35.148C128.491 34.5072 126.768 34.2057 124.874 34.2057H118.871C118.378 34.2057 117.981 34.3753 117.64 34.6957C117.299 34.9972 117.147 35.4119 117.147 35.9019V58.0084C117.147 58.4796 117.318 58.8942 117.64 59.2146C117.981 59.5349 118.378 59.7045 118.871 59.7045H124.874C126.768 59.7045 128.51 59.403 130.044 58.7811C131.616 58.1403 132.979 57.2734 134.134 56.1426C135.289 54.993 136.161 53.6361 136.786 52.0907C137.41 50.5265 137.713 48.8115 137.713 46.9269C137.713 45.0422 137.41 43.3461 136.786 41.8007C136.18 40.2553 135.289 38.9172 134.134 37.7865ZM137.467 52.3357C136.804 53.9753 135.877 55.4076 134.646 56.6326C133.434 57.8388 131.975 58.7622 130.328 59.4407C128.68 60.0815 126.862 60.4019 124.874 60.4019H118.871C118.208 60.4019 117.602 60.1757 117.128 59.7045C116.655 59.2334 116.428 58.6492 116.428 57.9895V35.883C116.428 35.2234 116.655 34.6203 117.147 34.168C117.621 33.7157 118.208 33.4707 118.871 33.4707H124.874C126.862 33.4707 128.68 33.7911 130.328 34.4696C131.994 35.1103 133.434 36.0526 134.646 37.2776C135.877 38.4838 136.804 39.8972 137.467 41.5369C138.13 43.1765 138.452 44.9669 138.452 46.9269C138.452 48.868 138.111 50.6772 137.467 52.3357Z" fill="white"/>
<path fill-rule="evenodd" clip-rule="evenodd" d="M94.0624 42.253C95.5396 41.4049 97.2061 40.9714 99.0619 40.9714C100.899 40.9714 102.509 41.3861 103.891 42.2153C105.255 43.0257 106.277 44.1753 106.978 45.6076C107.432 46.5122 107.754 47.5111 107.906 48.5664L107.925 48.6418C108 49.226 108.057 49.8291 108.057 50.4511C108.057 51.0541 107.849 51.5818 107.413 51.9964L107.394 52.0153L107.375 52.0341C106.94 52.4299 106.391 52.6184 105.785 52.6184H94.0814C94.195 52.9764 94.3465 53.2968 94.5359 53.6172C95.0282 54.4464 95.6911 55.0872 96.5622 55.5772C97.4144 56.0484 98.3991 56.2934 99.5543 56.2934C100.16 56.2934 100.766 56.1991 101.41 55.973C102.092 55.728 102.603 55.4641 102.982 55.2003C103.418 54.8799 103.91 54.7103 104.459 54.7103C105.027 54.6914 105.539 54.8422 105.974 55.2003C106.448 55.6149 106.788 56.1426 106.807 56.7645C106.845 57.443 106.523 57.9895 105.993 58.3853C105.16 59.026 104.137 59.5537 102.963 59.9307C101.789 60.3264 100.653 60.5149 99.5543 60.5149C97.6227 60.5149 95.8615 60.1191 94.3086 59.2899C92.7936 58.4418 91.5816 57.2922 90.6916 55.841C89.8204 54.3522 89.4038 52.6561 89.4038 50.7903C89.4038 48.9057 89.8015 47.2095 90.6158 45.7395C91.4491 44.2507 92.6042 43.0822 94.0624 42.253ZM103.399 48.6041C103.304 48.2649 103.19 47.9445 103.039 47.6241C102.679 46.8703 102.168 46.2861 101.505 45.8526C100.861 45.438 100.066 45.2118 99.0809 45.2118C97.9257 45.2118 96.9788 45.4568 96.2024 45.928C95.4449 46.3991 94.8578 47.0399 94.4412 47.888C94.3276 48.1141 94.2329 48.3591 94.1571 48.6041H103.399ZM93.3996 48.6041C93.3239 48.8303 93.2671 49.0753 93.2292 49.3203H104.289C104.251 49.0753 104.213 48.8491 104.156 48.6041C104.042 48.1518 103.891 47.7184 103.702 47.3226C103.285 46.4557 102.679 45.7584 101.903 45.2684C101.126 44.7784 100.179 44.5145 99.0809 44.5145C97.8121 44.5145 96.7326 44.7784 95.8236 45.3249C94.9336 45.8714 94.2707 46.6253 93.7973 47.5864C93.6269 47.9068 93.4943 48.2461 93.3996 48.6041ZM94.6495 58.6868C96.0887 59.4407 97.7174 59.8364 99.5543 59.8364C100.577 59.8364 101.637 59.648 102.736 59.2899C103.872 58.913 104.8 58.4418 105.558 57.8576C105.936 57.5749 106.107 57.2357 106.088 56.8399C106.069 56.4441 105.861 56.0861 105.482 55.7657C105.198 55.5207 104.857 55.4264 104.459 55.4453C104.08 55.4453 103.721 55.5584 103.399 55.8034C102.963 56.1237 102.376 56.4253 101.637 56.6891C100.937 56.9341 100.236 57.0472 99.5543 57.0472C98.2855 57.0472 97.1682 56.7834 96.2024 56.2368C95.2366 55.6903 94.4601 54.9553 93.9109 54.013C93.6647 53.5984 93.4754 53.1461 93.3239 52.6749C93.2481 52.4487 93.2102 52.2037 93.1724 51.9587H105.785C106.22 51.9587 106.599 51.8268 106.883 51.563C107.167 51.2803 107.319 50.9222 107.319 50.5264C107.319 50.0553 107.3 49.603 107.243 49.1695C107.224 48.9999 107.205 48.8114 107.167 48.6418C107.016 47.6807 106.732 46.7949 106.315 45.9845C105.671 44.6653 104.724 43.6287 103.493 42.8749C102.262 42.1211 100.766 41.7253 99.043 41.7253C97.3007 41.7253 95.7479 42.1211 94.4033 42.8937C93.0587 43.6476 91.9982 44.7218 91.2218 46.0976C90.4643 47.4545 90.0856 49.0187 90.0856 50.8091C90.0856 52.5807 90.4832 54.1449 91.2786 55.5207C92.1308 56.821 93.2481 57.8953 94.6495 58.6868Z" fill="white"/>
<path fill-rule="evenodd" clip-rule="evenodd" d="M71.205 48.8492V58.0649C71.205 58.7057 70.9967 59.2899 70.5422 59.7611C70.0688 60.2134 69.4628 60.4207 68.8 60.4207C68.1372 60.4207 67.5501 60.2134 67.0767 59.7799L67.0577 59.7611L67.0388 59.7423C66.6032 59.2711 66.376 58.6869 66.376 58.0461V43.478C66.376 42.8184 66.5843 42.2342 67.0577 41.763C67.5312 41.3296 68.1182 41.1223 68.781 41.1223C69.4439 41.1223 70.0499 41.3296 70.5233 41.7819C70.7316 41.9892 70.902 42.2342 70.9967 42.4792C71.2619 42.2907 71.527 42.1399 71.811 41.9892C73.0988 41.2919 74.538 40.9526 76.1098 40.9526C77.7385 40.9526 79.2156 41.3107 80.5412 42.0269C81.8858 42.7242 82.9273 43.7607 83.6849 45.1176C84.4613 46.4934 84.84 48.133 84.84 50.0365V58.0649C84.84 58.7246 84.6128 59.3088 84.1394 59.7799C83.6849 60.2323 83.0978 60.4396 82.435 60.4396C81.7722 60.4396 81.1851 60.2323 80.7117 59.7988L80.6927 59.7799L80.6738 59.7423C80.2382 59.2711 80.011 58.6869 80.011 58.0461V50.0176C80.011 48.8492 79.7837 47.9823 79.405 47.3415C79.0073 46.6819 78.496 46.1919 77.8332 45.8903H77.8142H77.7953C77.1325 45.5511 76.356 45.3815 75.4281 45.3815C74.5949 45.3815 73.8752 45.5511 73.2313 45.8526C72.5875 46.173 72.0762 46.6065 71.7164 47.1153C71.3755 47.6242 71.205 48.1707 71.205 48.8492ZM81.204 59.2711C81.5449 59.5726 81.9426 59.7234 82.435 59.7234C82.9274 59.7234 83.325 59.5726 83.628 59.2711C83.9689 58.9507 84.1204 58.5361 84.1204 58.0649V50.0365C84.1204 48.2273 83.7606 46.7007 83.0599 45.4569C82.3782 44.213 81.4313 43.2707 80.2003 42.6488C79.0073 41.9892 77.6438 41.6688 76.1098 41.6688C74.6517 41.6688 73.326 41.9892 72.1519 42.6111C71.811 42.7996 71.4702 43.0069 71.1672 43.233C71.0535 43.3084 70.9399 43.4026 70.8452 43.4969C70.7127 43.6099 70.5801 43.723 70.4665 43.8361V43.4969C70.4665 43.2896 70.4475 43.1199 70.3907 42.9503C70.315 42.6865 70.1824 42.4792 69.993 42.2907C69.69 41.9892 69.2734 41.8384 68.7621 41.8384C68.2697 41.8384 67.872 41.9892 67.5312 42.2907C67.2282 42.5923 67.0577 43.0069 67.0577 43.4969V58.0649C67.0577 58.5361 67.2092 58.9507 67.5312 59.2711C67.872 59.5726 68.2697 59.7234 68.7621 59.7234C69.2734 59.7234 69.6711 59.5726 69.993 59.2711C70.296 58.9507 70.4665 58.5361 70.4665 58.0649V48.8492C70.4665 48.0388 70.6937 47.3415 71.1293 46.7196C71.1482 46.7007 71.1672 46.663 71.1861 46.6442C71.6217 46.0599 72.2087 45.5699 72.9283 45.2307C73.6858 44.8538 74.5191 44.6842 75.447 44.6842C76.4697 44.6842 77.3597 44.8726 78.1362 45.2684C78.9315 45.6453 79.5565 46.2107 80.0299 47.0023C80.5033 47.7938 80.7306 48.7926 80.7306 50.0365V58.0649C80.7306 58.5361 80.8821 58.9319 81.204 59.2711Z" fill="white"/>
<path fill-rule="evenodd" clip-rule="evenodd" d="M39.7688 60.3077C51.2827 60.3077 60.6 51.0354 60.6 39.577C60.6 28.1185 51.2827 18.8462 39.7688 18.8462C28.2548 18.8462 18.9375 28.1185 18.9375 39.577C18.9375 51.0354 28.2548 60.3077 39.7688 60.3077ZM39.7688 54.5031C48.0444 54.5031 54.7673 47.8127 54.7673 39.577C54.7673 31.3412 48.0444 24.6508 39.7688 24.6508C31.4931 24.6508 24.7702 31.3412 24.7702 39.577C24.7702 47.8127 31.4931 54.5031 39.7688 54.5031Z" fill="white"/>
<path d="M287.131 19.8826H282.434V20.6365H287.131V19.8826ZM287.282 19.8072C287.244 19.8449 287.206 19.8826 287.131 19.8826V20.6365C287.396 20.6365 287.623 20.5234 287.812 20.3349L287.282 19.8072ZM287.339 19.6565C287.339 19.7319 287.32 19.7695 287.282 19.8072L287.812 20.3349C288.002 20.1465 288.096 19.9203 288.096 19.6565H287.339ZM287.282 19.5057C287.32 19.5434 287.339 19.5811 287.339 19.6565H288.096C288.096 19.3926 288.002 19.1665 287.812 18.978L287.282 19.5057ZM287.131 19.4492C287.206 19.4492 287.244 19.468 287.282 19.5057L287.812 18.978C287.623 18.7895 287.396 18.6953 287.131 18.6953V19.4492ZM283.021 19.4492H287.131V18.6953H283.021V19.4492ZM282.642 12.0049V19.0722H283.4V12.0049H282.642ZM282.586 11.8542C282.623 11.8919 282.642 11.9295 282.642 12.0049H283.4C283.4 11.7411 283.305 11.5149 283.116 11.3265L282.586 11.8542ZM282.434 11.7976C282.51 11.7976 282.548 11.8165 282.586 11.8542L283.116 11.3265C282.926 11.138 282.699 11.0438 282.434 11.0438V11.7976ZM282.283 11.8542C282.32 11.8165 282.377 11.7976 282.434 11.7976V11.0438C282.169 11.0438 281.942 11.138 281.752 11.3265L282.283 11.8542ZM282.226 12.0049C282.226 11.9295 282.245 11.8919 282.283 11.8542L281.752 11.3265C281.563 11.5149 281.468 11.7411 281.468 12.0049H282.226ZM282.226 19.6565V12.0049H281.468V19.6565H282.226ZM282.283 19.8261C282.245 19.7884 282.226 19.7507 282.226 19.6565H281.468C281.468 19.9015 281.563 20.1653 281.752 20.3538L282.283 19.8261ZM282.434 19.8826C282.358 19.8826 282.32 19.8638 282.283 19.8261L281.752 20.3538C281.942 20.5422 282.169 20.6365 282.434 20.6365V19.8826ZM283.021 19.0722H282.642V19.4492H283.021V19.0722Z" fill="#F0500B"/>
<path d="M282.434 20.2595C282.263 20.2595 282.131 20.203 282.017 20.0899C281.904 19.9768 281.866 19.8449 281.866 19.6753V12.0049C281.866 11.8353 281.923 11.7033 282.036 11.5903C282.15 11.4772 282.282 11.4207 282.453 11.4207C282.623 11.4207 282.756 11.4772 282.869 11.5903C282.983 11.7033 283.04 11.8353 283.04 12.0049V19.0722H287.149C287.32 19.0722 287.452 19.1287 287.566 19.2418C287.68 19.3549 287.736 19.4868 287.736 19.6564C287.736 19.826 287.68 19.958 287.566 20.071C287.452 20.1841 287.32 20.2407 287.149 20.2407H282.434V20.2595Z" fill="#F0500B"/>
<path d="M278.571 17.9228H273.212V18.6766H278.571V17.9228ZM277.775 17.4893L278.23 18.4693L278.912 18.1489L278.457 17.1689L277.775 17.4893ZM273.666 17.7155H278.116V16.9616H273.666V17.7155ZM273.552 18.4693L274.007 17.4893L273.325 17.1689L272.871 18.1489L273.552 18.4693ZM272.7 19.8451C272.662 19.8639 272.624 19.8828 272.587 19.8828V20.6366C272.776 20.6366 272.946 20.5801 273.098 20.4859L272.7 19.8451ZM272.795 19.7509C272.776 19.8074 272.719 19.8263 272.7 19.8451L273.098 20.4859C273.287 20.3728 273.42 20.222 273.496 20.0336L272.795 19.7509ZM275.654 12.7778L272.795 19.7509L273.496 20.0336L276.355 13.0605L275.654 12.7778ZM275.692 13.3055H276.014V12.5516H275.692V13.3055ZM278.855 19.7509L276.033 12.7778L275.332 13.0605L278.154 20.0336L278.855 19.7509ZM278.928 19.8501C278.89 19.8312 278.874 19.7886 278.855 19.7509L278.154 20.0336C278.23 20.222 278.381 20.4105 278.552 20.5047L278.928 19.8501ZM279.063 19.8828C279.025 19.8828 278.968 19.8639 278.931 19.8451L278.552 20.5047C278.703 20.5989 278.893 20.6366 279.063 20.6366V19.8828ZM279.169 19.7886C279.15 19.8263 279.177 19.8828 279.063 19.8828V20.6366C279.404 20.6366 279.669 20.4859 279.859 20.2032L279.169 19.7886ZM279.234 19.5624C279.271 19.6755 279.225 19.7321 279.169 19.7886L279.859 20.2032C280.048 19.9205 280.067 19.6189 279.934 19.2986L279.234 19.5624ZM276.033 11.9674L279.234 19.5813L279.934 19.2986L276.734 11.6847L276.033 11.9674ZM275.825 11.7978C275.901 11.7978 275.938 11.8166 275.957 11.8355C275.976 11.8543 276.014 11.892 276.033 11.9674L276.734 11.6847C276.658 11.4963 276.544 11.3266 276.393 11.2136C276.223 11.1005 276.033 11.0439 275.825 11.0439V11.7978ZM275.617 11.9674C275.654 11.8732 275.692 11.8543 275.711 11.8355C275.73 11.8166 275.768 11.7978 275.825 11.7978V11.0439C275.635 11.0439 275.446 11.1005 275.276 11.2136C275.105 11.3266 275.011 11.4963 274.935 11.6659L275.617 11.9674ZM272.435 19.5436L275.635 11.9486L274.935 11.6659L271.734 19.2609L272.435 19.5436ZM272.435 19.7886C272.397 19.7132 272.378 19.6378 272.435 19.5436L271.734 19.2609C271.602 19.5813 271.602 19.9016 271.791 20.1843L272.435 19.7886ZM272.605 19.8828C272.53 19.8828 272.492 19.8639 272.435 19.7886L271.791 20.1843C271.981 20.467 272.265 20.6366 272.605 20.6366V19.8828ZM278.571 18.2997V18.6766H279.158L278.912 18.1489L278.571 18.2997ZM278.116 17.3386L278.457 17.1878L278.363 16.9616H278.116V17.3386ZM273.666 17.3386V16.9616H273.42L273.325 17.1878L273.666 17.3386ZM273.212 18.2997L272.871 18.1489L272.624 18.6766H273.212V18.2997ZM272.908 20.1655L272.719 19.8451H272.7L272.908 20.1655ZM276.014 12.9286L276.374 13.0793L276.582 12.5516H276.014V12.9286ZM275.692 12.9286V12.5516H275.124L275.332 13.0605L275.692 12.9286ZM278.722 20.1655L278.514 20.467L278.552 20.5047L278.722 20.1655Z" fill="#F0500B"/>
<path d="M273.212 18.2995L273.666 17.3195H278.116L278.571 18.2995H273.212ZM272.606 20.2595C272.397 20.2595 272.227 20.1653 272.113 19.9957C272 19.826 271.981 19.6187 272.075 19.4114L275.276 11.8164C275.389 11.5526 275.579 11.4207 275.825 11.4207C276.09 11.4207 276.279 11.5526 276.374 11.8164L279.575 19.4303C279.65 19.6376 279.65 19.826 279.537 20.0145C279.423 20.1841 279.272 20.2595 279.044 20.2595C278.931 20.2595 278.817 20.2218 278.722 20.1653C278.628 20.0899 278.552 20.0145 278.514 19.9014L275.692 12.9283H276.014L273.155 19.9014C273.098 20.0145 273.022 20.1087 272.909 20.1653C272.814 20.2218 272.7 20.2595 272.606 20.2595Z" fill="#F0500B"/>
<path d="M269.784 16.2641V17.0745H270.541V16.2641H269.784ZM269.727 16.1134C269.746 16.1322 269.784 16.1699 269.784 16.2641H270.541C270.541 16.0003 270.465 15.793 270.276 15.6045L269.727 16.1134ZM269.575 16.0568C269.651 16.0568 269.689 16.0757 269.727 16.1134L270.276 15.6045C270.087 15.3972 269.84 15.3218 269.575 15.3218V16.0568ZM267.454 16.0568H269.575V15.3218L267.454 15.303V16.0568ZM267.284 16.1134C267.322 16.0757 267.379 16.0568 267.454 16.0568V15.303C267.208 15.303 266.981 15.3784 266.792 15.548L267.284 16.1134ZM267.246 16.1887C267.246 16.151 267.265 16.1322 267.284 16.0945L266.792 15.548C266.602 15.7176 266.489 15.9249 266.489 16.1887H267.246ZM267.284 16.283C267.246 16.2641 267.246 16.2453 267.246 16.1887H266.489C266.489 16.4526 266.583 16.6787 266.792 16.8484L267.284 16.283ZM267.454 16.3395C267.36 16.3395 267.322 16.3207 267.284 16.283L266.792 16.8484C266.981 17.018 267.208 17.0934 267.454 17.0934V16.3395ZM269.026 16.3395H267.454V17.0934H269.026V16.3395ZM269.405 18.733V16.7164H268.647V18.733H269.405ZM269.84 16.8672L268.704 18.5257L269.329 18.9591L270.465 17.3007L269.84 16.8672ZM268.553 19.7695C268.117 19.9203 267.682 19.9957 267.189 19.9957V20.7495C267.738 20.7495 268.269 20.6553 268.78 20.4857L268.553 19.7695ZM269.727 19.091C269.367 19.3926 268.988 19.6187 268.553 19.7695L268.78 20.4857C269.291 20.2972 269.765 20.0334 270.2 19.6753L269.727 19.091ZM269.746 19.0722C269.746 19.0534 269.75 19.1853 269.712 19.223L270.2 19.6753C270.314 19.581 270.409 19.468 270.465 19.3172L269.746 19.0722ZM269.784 17.0745C269.784 17.1122 269.784 17.621 269.765 18.1299C269.765 18.3749 269.765 18.6387 269.746 18.8272C269.746 18.9214 269.746 18.9968 269.746 19.0534C269.746 19.091 269.746 19.1099 269.746 19.1099C269.746 19.1099 269.746 19.1099 269.746 19.091C269.746 19.091 269.727 19.091 269.746 19.0534L270.09 19.223L270.465 19.3172C270.484 19.2795 270.503 19.1853 270.503 19.1853C270.503 19.1176 270.503 19.223 270.503 19.1853C270.503 19.1287 270.503 18.9784 270.503 18.846C270.503 18.6387 270.522 18.3937 270.522 18.1299C270.522 17.621 270.541 17.1122 270.541 17.0745H269.784ZM269.746 18.846C269.803 18.9026 269.935 18.9968 270.106 18.9403C270.238 18.9026 270.314 18.8084 270.333 18.7707C270.371 18.6953 270.39 18.6387 270.409 18.6199C270.428 18.5634 270.428 18.4691 270.446 18.3937C270.465 18.2241 270.484 18.0168 270.484 17.8095C270.503 17.6022 270.503 17.3949 270.503 17.263C270.503 17.1876 270.503 17.131 270.503 17.1122C270.503 17.1122 270.503 17.131 270.503 17.1499C270.503 17.1499 270.503 17.1687 270.484 17.1876C270.484 17.2064 270.446 17.2441 270.428 17.2818C270.371 17.3384 270.181 17.4326 270.049 17.4326C269.935 17.3949 269.803 17.2818 269.784 17.2253C269.765 17.2064 269.765 17.1687 269.746 17.1499C269.746 17.1499 269.746 17.131 269.746 17.1122C269.746 17.0934 269.746 17.0745 269.746 17.0745C269.746 17.0557 269.746 17.0557 269.746 17.0557H270.503C270.503 17.0557 270.503 17.0368 270.503 17.018C270.503 17.018 270.503 16.9991 270.503 16.9803C270.503 16.9803 270.503 16.9614 270.503 16.9426C270.503 16.9237 270.484 16.886 270.465 16.8672C270.446 16.8295 270.314 16.7164 270.2 16.6599C270.068 16.6599 269.878 16.7541 269.822 16.8107C269.803 16.8484 269.784 16.886 269.765 16.9049C269.765 16.9237 269.765 16.9426 269.746 16.9426C269.746 16.9614 269.746 16.9614 269.746 16.9803C269.746 16.9991 269.746 16.9991 269.746 16.9991C269.746 17.018 269.746 17.0368 269.746 17.0557C269.746 17.0934 269.746 17.1499 269.746 17.2064C269.746 17.3384 269.727 17.5457 269.727 17.753C269.708 17.9603 269.708 18.1487 269.689 18.2995C269.689 18.3749 269.67 18.4126 269.67 18.4314C269.67 18.4503 269.67 18.4126 269.708 18.356C269.727 18.3372 269.784 18.243 269.916 18.2053C270.087 18.1676 270.219 18.243 270.257 18.2995L269.746 18.846ZM269.651 18.7895C269.689 18.7895 269.708 18.8084 269.727 18.8272L270.276 18.3184C270.125 18.1487 269.916 18.0545 269.67 18.0357L269.651 18.7895ZM269.5 18.846C269.575 18.7895 269.613 18.7895 269.632 18.7895L269.727 18.0357C269.481 17.998 269.253 18.0922 269.064 18.2241L269.5 18.846ZM268.42 19.4491C268.799 19.2984 269.159 19.091 269.5 18.846L269.045 18.243C268.761 18.4503 268.458 18.6387 268.155 18.7707L268.42 19.4491ZM267.189 19.6753C267.625 19.6753 268.022 19.581 268.42 19.4491L268.155 18.7707C267.852 18.8837 267.549 18.9403 267.189 18.9403V19.6753ZM265.769 19.3737C266.204 19.5622 266.678 19.6753 267.189 19.6753V18.9403C266.792 18.9403 266.432 18.846 266.072 18.6953L265.769 19.3737ZM264.614 18.5445C264.955 18.9026 265.333 19.1664 265.769 19.3737L266.072 18.6953C265.731 18.5257 265.428 18.3184 265.163 18.0357L264.614 18.5445ZM263.837 17.3195C264.027 17.7718 264.273 18.2053 264.614 18.5445L265.163 18.0357C264.898 17.753 264.689 17.4137 264.538 17.0368L263.837 17.3195ZM263.553 15.8307C263.553 16.3584 263.648 16.8484 263.837 17.3195L264.538 17.0368C264.386 16.6599 264.311 16.2641 264.311 15.8118H263.553V15.8307ZM263.837 14.3607C263.648 14.8318 263.553 15.3218 263.553 15.8307H264.311C264.311 15.3972 264.368 15.0014 264.519 14.6434L263.837 14.3607ZM264.614 13.1168C264.292 13.4749 264.027 13.8895 263.837 14.3607L264.519 14.6434C264.671 14.2664 264.879 13.9272 265.144 13.6445L264.614 13.1168ZM265.769 12.2876C265.333 12.4949 264.936 12.7776 264.614 13.1357L265.144 13.6445C265.409 13.3618 265.75 13.1168 266.091 12.966L265.769 12.2876ZM267.189 11.986C266.697 11.986 266.223 12.0803 265.769 12.2876L266.091 12.966C266.432 12.8153 266.792 12.721 267.189 12.721V11.986ZM268.515 12.2122C268.155 12.0614 267.701 11.986 267.189 11.986V12.721C267.663 12.721 268.004 12.7964 268.231 12.9095L268.526 12.5703L268.515 12.2122ZM269.5 12.8341C269.197 12.5703 268.875 12.363 268.534 12.2122L268.231 12.9095C268.496 13.0226 268.761 13.1922 269.007 13.3995L269.5 12.8341ZM269.632 12.8907C269.594 12.8907 269.556 12.8907 269.481 12.8341L269.007 13.3995C269.197 13.5503 269.424 13.6634 269.67 13.6445L269.632 12.8907ZM269.765 12.8341C269.746 12.853 269.708 12.8718 269.632 12.8907L269.67 13.6445C269.897 13.6257 270.106 13.5503 270.276 13.3807L269.765 12.8341ZM269.803 12.7399C269.803 12.7776 269.803 12.7964 269.765 12.8341L270.276 13.3807C270.465 13.211 270.581 13.0037 270.581 12.7587L269.803 12.7399ZM269.803 12.7022C269.803 12.6834 269.803 12.6834 269.803 12.7022C269.803 12.721 269.803 12.7399 269.803 12.7587H270.581C270.581 12.6645 270.579 12.5988 270.56 12.5046L269.803 12.7022ZM269.803 12.6645C269.784 12.6457 269.784 12.6268 269.784 12.6268L270.09 12.6268L270.56 12.5046C270.537 12.3913 270.496 12.3371 270.428 12.2499L269.803 12.6645ZM269.727 12.5891C269.765 12.608 269.765 12.6268 269.765 12.6268L270.09 12.4738L270.428 12.2499C270.279 12.0614 270.276 12.0614 270.181 11.986L269.727 12.5891ZM268.553 11.8918C268.931 12.0237 269.329 12.2687 269.727 12.5891L270.181 11.986C269.727 11.6091 269.272 11.3453 268.799 11.1757L268.553 11.8918ZM267.189 11.6845C267.738 11.6845 268.193 11.7599 268.553 11.8918L268.799 11.1757C268.325 11.006 267.795 10.9307 267.189 10.9307V11.6845ZM265.598 12.0049C266.072 11.7976 266.621 11.6845 267.189 11.6845V10.9307C266.526 10.9307 265.883 11.0626 265.314 11.3076L265.598 12.0049ZM264.33 12.8907C264.689 12.5137 265.125 12.2122 265.598 12.0049L265.314 11.3076C264.746 11.5526 264.235 11.9107 263.799 12.363L264.33 12.8907ZM263.477 14.2099C263.686 13.701 263.97 13.2676 264.33 12.8907L263.799 12.363C263.364 12.8153 263.023 13.343 262.777 13.9272L263.477 14.2099ZM263.174 15.8307C263.174 15.2464 263.269 14.6999 263.477 14.2099L262.777 13.9272C262.531 14.5114 262.417 15.1522 262.417 15.8307H263.174ZM263.477 17.4703C263.269 16.9614 263.174 16.4149 263.174 15.8307H262.417C262.417 16.5091 262.531 17.1499 262.777 17.753L263.477 17.4703ZM264.33 18.8084C263.97 18.4314 263.686 17.9791 263.477 17.4703L262.777 17.753C263.023 18.3372 263.364 18.8649 263.78 19.3172L264.33 18.8084ZM265.617 19.6941C265.125 19.4868 264.708 19.1664 264.33 18.7895L263.78 19.3172C264.216 19.7507 264.727 20.1087 265.295 20.3537L265.617 19.6941ZM267.189 19.9957C266.621 19.9957 266.091 19.8826 265.617 19.6941L265.295 20.3537C265.883 20.5987 266.526 20.7495 267.189 20.7495V19.9957ZM269.026 16.7164H269.405V16.3395H269.026V16.7164ZM269.026 18.733H268.647V19.958L269.348 18.9403L269.026 18.733ZM270.106 19.1853L269.746 19.0534V19.0722L270.106 19.1853ZM270.011 18.5822L269.727 18.846L269.746 18.8649L270.011 18.5822ZM269.67 18.4126L269.632 18.7895H269.651L269.67 18.4126ZM270.03 13.098L269.765 12.8153L269.746 12.8341L270.03 13.098ZM270.162 12.5703L269.784 12.6268V12.6645L269.803 12.7022L270.162 12.5703Z" fill="#F0500B"/>
<path d="M270.162 17.0746L269.026 18.733V16.7165H267.454C267.284 16.7165 267.151 16.66 267.038 16.5657C266.924 16.4715 266.867 16.3396 266.867 16.1888C266.867 16.0381 266.924 15.9061 267.038 15.8119C267.151 15.7177 267.284 15.6611 267.454 15.6611H269.575C269.746 15.6611 269.897 15.7177 269.992 15.8307C270.105 15.9438 270.143 16.0757 270.143 16.2454V17.0746H270.162ZM267.189 20.3727C266.583 20.3727 265.996 20.2596 265.466 20.0334C264.935 19.8073 264.462 19.4869 264.064 19.0723C263.667 18.6577 263.364 18.1677 263.136 17.6211C262.909 17.0746 262.814 16.4715 262.814 15.8307C262.814 15.19 262.928 14.6057 263.136 14.0592C263.364 13.5127 263.667 13.0227 264.064 12.6269C264.462 12.2123 264.935 11.8919 265.466 11.6469C265.996 11.4207 266.564 11.2888 267.189 11.2888C267.776 11.2888 268.268 11.3642 268.685 11.515C269.102 11.6657 269.537 11.9107 269.954 12.2688C270.011 12.3065 270.068 12.363 270.086 12.4196C270.124 12.4573 270.143 12.5138 270.162 12.5704C270.181 12.608 270.181 12.6646 270.181 12.74C270.181 12.8907 270.124 13.0038 270.03 13.098C269.935 13.1923 269.802 13.2488 269.651 13.2488C269.499 13.2488 269.367 13.2111 269.234 13.098C268.95 12.853 268.666 12.6646 268.363 12.5515C268.06 12.4196 267.681 12.363 267.189 12.363C266.735 12.363 266.318 12.4573 265.92 12.6269C265.523 12.8154 265.182 13.0604 264.879 13.3807C264.576 13.7011 264.348 14.0592 264.178 14.4927C264.008 14.9073 263.932 15.3596 263.932 15.8307C263.932 16.3207 264.008 16.773 264.178 17.1877C264.348 17.6023 264.576 17.9604 264.879 18.2807C265.182 18.6011 265.523 18.8461 265.92 19.0346C266.318 19.2042 266.735 19.2984 267.189 19.2984C267.568 19.2984 267.947 19.2419 268.287 19.11C268.628 18.9781 268.969 18.7896 269.291 18.5634C269.424 18.4692 269.556 18.4315 269.689 18.4315C269.821 18.4315 269.935 18.488 270.03 18.5823C270.124 18.6765 270.162 16.9238 270.162 17.0746C270.162 17.15 270.143 19.11 270.124 19.1854C270.105 19.2607 270.049 19.3173 269.992 19.3738C269.594 19.713 269.159 19.9581 268.685 20.1277C268.193 20.2784 267.7 20.3727 267.189 20.3727Z" fill="#F0500B"/>
<path d="M258.137 19.6943C257.645 19.9205 257.077 20.0524 256.433 20.0524V20.8063C257.19 20.8063 257.872 20.6743 258.478 20.3728L258.137 19.6943ZM259.254 18.7143C258.989 19.1289 258.629 19.4493 258.137 19.6943L258.478 20.3728C259.084 20.0713 259.557 19.6566 259.898 19.1101L259.498 19.0348L259.254 18.7143ZM259.652 17.282C259.652 17.8286 259.519 18.3186 259.254 18.7143L259.498 19.0348L259.898 19.1101C260.258 18.5636 260.41 17.9605 260.41 17.282H259.652ZM259.652 12.0051V17.282H260.41V12.0051H259.652ZM259.614 11.8543C259.633 11.8732 259.652 11.9109 259.652 12.0051H260.41C260.41 11.7413 260.353 11.5339 260.163 11.3455L259.614 11.8543ZM259.463 11.7978C259.538 11.7978 259.576 11.8166 259.614 11.8543L260.163 11.3455C259.974 11.1382 259.709 11.0439 259.444 11.0439L259.463 11.7978ZM259.292 11.8543C259.33 11.8166 259.387 11.7978 259.463 11.7978L259.444 11.0439C259.179 11.0439 258.97 11.1193 258.781 11.3078L259.292 11.8543ZM259.235 12.0051C259.235 11.9297 259.254 11.892 259.292 11.8543L258.781 11.3078C258.573 11.4963 258.478 11.7413 258.478 12.0051H259.235ZM259.235 17.282V12.0051H258.478L258.478 17.282H259.235ZM258.857 18.5824C259.122 18.2055 259.235 17.772 259.235 17.282H258.478C258.478 17.6213 258.402 17.9039 258.251 18.1678L258.857 18.5824ZM257.853 19.4493C258.27 19.242 258.61 18.9593 258.857 18.5824L258.251 18.1678C258.08 18.4128 257.853 18.6201 257.531 18.7709L257.853 19.4493ZM256.433 19.7509C256.963 19.7509 257.436 19.6566 257.853 19.4493L257.531 18.7709C257.228 18.9216 256.868 18.997 256.433 18.997V19.7509ZM254.956 19.4493C255.391 19.6566 255.883 19.7509 256.433 19.7509V18.997C255.978 18.997 255.58 18.9216 255.259 18.7709L254.956 19.4493ZM253.876 18.5824C254.141 18.9405 254.52 19.2609 254.956 19.4493L255.259 18.7709C254.937 18.6201 254.69 18.4128 254.501 18.1489L253.876 18.5824ZM253.516 17.282C253.516 17.7532 253.649 18.1866 253.895 18.5824L254.501 18.1489C254.331 17.9039 254.274 17.6213 254.274 17.282H253.516ZM253.516 12.0051V17.282H254.274V12.0051H253.516ZM253.441 11.8543C253.459 11.8732 253.516 11.9297 253.516 12.0239H254.274C254.274 11.7601 254.179 11.5151 253.99 11.3266L253.441 11.8543ZM253.289 11.7978C253.365 11.7978 253.403 11.8166 253.441 11.8543L253.99 11.3266C253.8 11.1193 253.554 11.0628 253.289 11.0628V11.7978ZM253.138 11.8543C253.175 11.8166 253.213 11.7978 253.289 11.7978V11.0628C253.024 11.0628 252.797 11.1193 252.607 11.3078L253.138 11.8543ZM253.081 12.0051C253.081 11.9297 253.1 11.892 253.138 11.8543L252.607 11.3078C252.399 11.4963 252.323 11.7413 252.323 12.0051H253.081ZM253.081 17.282V12.0051H252.323V17.282H253.081ZM253.497 18.7143C253.232 18.2997 253.081 17.8097 253.081 17.282H252.323C252.323 17.9605 252.513 18.6013 252.872 19.1289L253.497 18.7143ZM254.653 19.6943C254.141 19.4493 253.762 19.1101 253.478 18.6955L252.853 19.1101C253.213 19.6378 253.725 20.0713 254.331 20.3728L254.653 19.6943ZM256.414 20.0524C255.732 20.0524 255.145 19.9205 254.653 19.6943L254.331 20.3728C254.956 20.6555 255.656 20.8063 256.433 20.8063V20.0524H256.414Z" fill="#F0500B"/>
<path d="M256.414 20.4293C255.694 20.4293 255.05 20.2974 254.482 20.0335C253.914 19.7697 253.478 19.3928 253.157 18.9216C252.854 18.4505 252.683 17.9039 252.683 17.3009V12.0239C252.683 11.8543 252.74 11.7035 252.854 11.6093C252.967 11.4962 253.1 11.4397 253.27 11.4397C253.441 11.4397 253.592 11.4962 253.687 11.6093C253.8 11.7224 253.857 11.8543 253.857 12.0239V17.3009C253.857 17.7155 253.971 18.0735 254.179 18.3939C254.406 18.6955 254.69 18.9405 255.069 19.1289C255.448 19.2985 255.902 19.3928 256.395 19.3928C256.868 19.3928 257.285 19.2985 257.664 19.1289C258.042 18.9405 258.327 18.6955 258.535 18.3939C258.743 18.0735 258.857 17.7155 258.857 17.3009V12.0239C258.857 11.8543 258.914 11.7035 259.027 11.6093C259.141 11.4962 259.273 11.4397 259.444 11.4397C259.614 11.4397 259.766 11.4962 259.86 11.6093C259.974 11.7224 260.012 11.8543 260.012 12.0239V17.3009C260.012 17.9039 259.86 18.4505 259.538 18.9216C259.235 19.3928 258.819 19.7697 258.27 20.0335C257.758 20.2974 257.133 20.4293 256.414 20.4293Z" fill="#F0500B"/>
<path d="M249.937 12.137H243.858V12.8909H249.937V12.137ZM250.051 12.0993C250.032 12.1182 250.013 12.137 249.937 12.137V12.8909C250.183 12.8909 250.392 12.8155 250.581 12.627L250.051 12.0993ZM250.108 11.9674C250.108 12.0239 250.089 12.0616 250.051 12.0993L250.581 12.627C250.77 12.4386 250.846 12.2124 250.846 11.9674H250.108ZM250.23 11.4963C250.211 11.4775 250.108 11.892 250.108 11.9674H250.846C250.846 11.7224 250.77 11.4774 250.581 11.3078L250.23 11.4963ZM249.937 11.7978C249.994 11.7978 250.032 11.8166 250.051 11.8355L250.581 11.3078C250.411 11.1193 250.183 11.0439 249.937 11.0439V11.7978ZM243.858 11.7978H249.937V11.0439H243.858V11.7978ZM243.726 11.8543C243.763 11.8166 243.782 11.7789 243.858 11.7789V11.0439C243.612 11.0439 243.366 11.1382 243.195 11.3078L243.421 11.6847L243.726 11.8543ZM243.688 11.9674C243.688 11.892 243.707 11.8732 243.726 11.8543L243.195 11.3078C243.025 11.4774 242.949 11.7224 242.949 11.9674H243.688ZM243.745 12.0993C243.726 12.0616 243.707 12.0428 243.707 11.9674H242.949C242.949 12.2124 243.025 12.4386 243.195 12.627L243.745 12.0993ZM243.858 12.137C243.782 12.137 243.745 12.1182 243.726 12.0993L243.195 12.627C243.385 12.7966 243.631 12.8909 243.877 12.8909V12.137H243.858ZM247.059 19.8074C247.021 19.8451 246.983 19.8639 246.907 19.8639V20.6178C247.172 20.6178 247.399 20.5236 247.589 20.3351L247.059 19.8074ZM247.115 19.6566C247.115 19.732 247.096 19.7697 247.059 19.8074L247.589 20.3351C247.778 20.1466 247.873 19.9205 247.873 19.6566H247.115ZM247.115 11.4209V19.6566H247.873V11.4209H247.115ZM246.32 11.7978H247.494V11.0439H246.32V11.7978ZM246.699 19.6566V11.4209H245.941V19.6566H246.699ZM246.756 19.8074C246.718 19.7697 246.699 19.732 246.699 19.6566H245.941C245.941 19.9205 246.036 20.1466 246.225 20.3351L246.756 19.8074ZM246.907 19.8828C246.831 19.8828 246.793 19.8639 246.756 19.8263L246.448 19.9771L246.225 20.3351C246.415 20.5236 246.642 20.6178 246.907 20.6178V19.8828ZM247.494 11.4209H247.873V11.0439H247.494V11.4209ZM246.32 11.4209V11.0439H245.941V11.4209H246.32Z" fill="#F0500B"/>
<path d="M243.858 12.5137C243.707 12.5137 243.574 12.4572 243.461 12.363C243.366 12.2499 243.309 12.118 243.309 11.9672C243.309 11.8164 243.366 11.6845 243.461 11.5903C243.574 11.4772 243.707 11.4395 243.858 11.4395H249.937C250.089 11.4395 250.221 11.496 250.316 11.5903C250.43 11.6845 250.467 11.8164 250.467 11.9672C250.467 12.118 250.411 12.2499 250.316 12.363C250.221 12.4572 250.089 12.5137 249.937 12.5137H243.858ZM246.907 20.2595C246.737 20.2595 246.604 20.203 246.491 20.0899C246.377 19.9768 246.32 19.8449 246.32 19.6753V11.4207H247.494V19.6564C247.494 19.826 247.437 19.958 247.324 20.071C247.21 20.203 247.078 20.2595 246.907 20.2595Z" fill="#F0500B"/>
<path d="M237.003 12.5139V15.7743H237.76V12.5139H237.003ZM238.84 12.137H237.381V12.8909H238.84V12.137ZM239.938 12.382C239.616 12.2124 239.237 12.1182 238.84 12.1182V12.8909C239.143 12.8909 239.351 12.9474 239.559 13.0605L239.938 12.382ZM240.696 13.1359C240.506 12.8155 240.241 12.5705 239.919 12.4009L239.559 13.0605C239.768 13.1736 239.938 13.3243 240.052 13.5128L240.696 13.1359ZM240.98 14.2101C240.98 13.8143 240.885 13.4563 240.696 13.1359L240.052 13.5128C240.165 13.7013 240.222 13.9274 240.222 14.2101H240.98ZM240.696 15.2089C240.885 14.9074 240.98 14.5682 240.98 14.1913H240.222C240.222 14.4174 240.165 14.6247 240.052 14.8132L240.696 15.2089ZM239.919 15.9063C240.241 15.7366 240.506 15.5105 240.696 15.2278L240.374 14.9416L240.052 14.8132C239.938 14.9828 239.805 15.1336 239.597 15.2278L239.919 15.9063ZM238.84 16.1324C239.237 16.1324 239.597 16.057 239.919 15.9063L239.597 15.2278C239.389 15.322 239.143 15.3786 238.84 15.3786V16.1324ZM237.381 16.1324H238.84V15.3786H237.381V16.1324ZM241.68 19.7886C241.661 19.8263 241.642 19.8451 241.623 19.8451C241.605 19.8451 241.567 19.8639 241.491 19.8639V20.6178C241.661 20.6178 241.832 20.5801 241.983 20.5047C242.135 20.4105 242.248 20.2974 242.343 20.1278L241.68 19.7886ZM241.642 19.5436C241.718 19.6755 241.718 19.732 241.68 19.8074L242.343 20.1278C242.514 19.7886 242.457 19.4493 242.267 19.1478L241.642 19.5436ZM239.768 16.5659L241.642 19.5436L242.267 19.1478L240.411 16.1701L239.768 16.5659ZM239.048 17.0559L240.203 16.7355L239.995 16.0193L238.84 16.3397L239.048 17.0559ZM241.32 19.7886L239.275 16.4905L238.631 16.8863L240.677 20.1655L241.32 19.7886ZM241.377 19.8639C241.358 19.8639 241.358 19.8451 241.32 19.7886L240.677 20.1655C240.771 20.3163 240.885 20.4293 241.036 20.5047L241.377 19.8639ZM241.51 19.8828C241.453 19.8828 241.415 19.8639 241.377 19.8639L241.036 20.5047C241.188 20.5801 241.32 20.6178 241.491 20.6178L241.51 19.8828ZM236.946 19.8074C236.927 19.8263 236.87 19.8828 236.775 19.8828V20.6366C237.041 20.6366 237.287 20.5236 237.476 20.3351L236.946 19.8074ZM237.003 19.6566C237.003 19.732 236.984 19.7697 236.946 19.8074L237.476 20.3351C237.666 20.1466 237.76 19.9205 237.76 19.6566H237.003ZM237.003 16.8486V19.6566H237.76V16.8486H237.003ZM238.84 16.4716H237.381V17.2255H238.84V16.4716ZM240.165 16.1701C239.787 16.3586 239.351 16.4716 238.821 16.4716V17.2255C239.446 17.2255 240.014 17.0936 240.506 16.8486L240.165 16.1701ZM241.036 15.3786C240.828 15.7178 240.544 15.9816 240.165 16.1701L240.506 16.8486C240.999 16.5847 241.396 16.2266 241.68 15.7743L241.036 15.3786ZM241.358 14.2101C241.358 14.6624 241.245 15.0393 241.036 15.3786L241.68 15.7743C241.964 15.3032 242.116 14.7755 242.116 14.2101H241.358ZM241.036 12.9474C241.245 13.2866 241.358 13.7013 241.358 14.2101H242.116C242.116 13.607 241.983 13.0416 241.68 12.5705L241.036 12.9474ZM240.165 12.1182C240.544 12.3255 240.828 12.5893 241.036 12.9474L241.68 12.5705C241.396 12.0993 241.017 11.7224 240.525 11.4586L240.165 12.1182ZM238.84 11.7978C239.351 11.7978 239.787 11.9109 240.165 12.1182L240.525 11.4586C240.014 11.1759 239.446 11.0439 238.84 11.0439V11.7978ZM236.794 11.7978H238.84V11.0439H236.794V11.7978ZM236.643 11.8543C236.681 11.8166 236.719 11.7978 236.794 11.7978V11.0439C236.529 11.0439 236.302 11.1382 236.113 11.3266L236.643 11.8543ZM236.567 12.0051C236.567 11.9297 236.586 11.892 236.624 11.8543L236.423 11.4963L236.113 11.3266C235.904 11.5151 235.829 11.7413 235.829 12.0051H236.567ZM236.567 19.6566V12.0051H235.829L235.829 19.6566H236.567ZM236.643 19.8263C236.605 19.7886 236.586 19.732 236.586 19.6566H235.829C235.829 19.9205 235.923 20.1655 236.113 20.3539L236.643 19.8263ZM236.794 19.8828C236.719 19.8828 236.681 19.8639 236.643 19.8263L236.113 20.3539C236.302 20.5424 236.51 20.6366 236.775 20.6366L236.794 19.8828ZM237.381 12.5139V12.137H237.003V12.5139H237.381ZM237.381 15.7555H237.003V16.1324H237.381V15.7555ZM240.09 16.3586L240.411 16.1513L240.26 15.9063L239.976 15.9816L240.09 16.3586ZM238.953 16.6978L238.84 16.3397L238.366 16.4716L238.631 16.8863L238.953 16.6978ZM237.381 16.8486V16.4716H237.003V16.8486H237.381Z" fill="#F0500B"/>
<path d="M237.382 15.7553H238.84C239.181 15.7553 239.503 15.6987 239.768 15.5668C240.033 15.4349 240.241 15.2464 240.393 15.0203C240.544 14.7753 240.62 14.5114 240.62 14.2099C240.62 13.8707 240.544 13.588 240.393 13.3241C240.241 13.0603 240.033 12.8718 239.768 12.721C239.503 12.5703 239.2 12.5137 238.84 12.5137H237.382V15.7553ZM241.51 20.2595C241.396 20.2595 241.302 20.2407 241.207 20.1841C241.131 20.1464 241.056 20.071 240.999 19.9768L238.953 16.6976L240.109 16.3772L241.965 19.3549C242.097 19.581 242.116 19.7883 242.021 19.9768C241.908 20.1653 241.737 20.2595 241.51 20.2595ZM236.795 20.2595C236.624 20.2595 236.492 20.203 236.378 20.0899C236.264 19.9768 236.208 19.8449 236.208 19.6753V12.0049C236.208 11.8353 236.264 11.6845 236.378 11.5903C236.492 11.4772 236.624 11.4207 236.795 11.4207H238.84C239.408 11.4207 239.919 11.5337 240.355 11.7787C240.79 12.0049 241.131 12.3441 241.377 12.7587C241.624 13.1733 241.756 13.6633 241.756 14.2099C241.756 14.7187 241.624 15.171 241.377 15.5857C241.131 15.9814 240.79 16.3018 240.355 16.528C239.919 16.7541 239.408 16.8672 238.84 16.8672H237.382V19.6753C237.382 19.8449 237.325 19.9768 237.211 20.0899C237.098 20.203 236.965 20.2595 236.795 20.2595Z" fill="#F0500B"/>
<path d="M227.421 19.3903C227.894 19.5788 228.386 19.6919 228.936 19.6919V18.938C228.481 18.938 228.083 18.8626 227.724 18.7119L227.421 19.3903ZM226.228 18.5799C226.568 18.9192 226.966 19.2019 227.421 19.3903L227.724 18.7119C227.364 18.5422 227.042 18.3538 226.777 18.0711L226.228 18.5799ZM225.451 17.3549C225.64 17.8261 225.887 18.2219 226.228 18.5799L226.777 18.0711C226.512 17.7884 226.303 17.468 226.152 17.0722L225.451 17.3549ZM225.167 15.8472C225.167 16.3749 225.262 16.8838 225.451 17.3549L226.152 17.0722C226 16.6953 225.925 16.2807 225.925 15.8472H225.167ZM225.451 14.3396C225.262 14.8107 225.167 15.3196 225.167 15.8472H225.925C225.925 15.3949 226 14.9992 226.152 14.6222L225.451 14.3396ZM226.228 13.1146C225.906 13.4538 225.64 13.8684 225.451 14.3396L226.152 14.6222C226.303 14.2453 226.512 13.9249 226.758 13.6422L226.228 13.1146ZM227.421 12.3042C226.966 12.4926 226.568 12.7753 226.228 13.1334L226.758 13.6422C227.023 13.3596 227.326 13.1334 227.686 12.9826L227.421 12.3042ZM228.917 12.0026C228.386 12.0026 227.875 12.0969 227.402 12.2853L227.686 12.9826C228.046 12.8319 228.462 12.7565 228.898 12.7565V12.0026H228.917ZM230.432 12.3042C229.977 12.1157 229.428 12.0026 228.898 12.0026V12.7565C229.352 12.7565 229.769 12.8319 230.129 12.9826L230.432 12.3042ZM231.625 13.1146C231.284 12.7565 230.886 12.4926 230.413 12.2853L230.129 12.9826C230.507 13.1334 230.81 13.3596 231.075 13.6234L231.625 13.1146ZM232.401 14.3396C232.231 13.8684 231.966 13.4538 231.625 13.1146L231.075 13.6234C231.341 13.8872 231.568 14.2453 231.7 14.6222L232.401 14.3396ZM232.685 15.8472C232.685 15.3196 232.591 14.8107 232.401 14.3396L231.7 14.6222C231.852 14.9992 231.928 15.4138 231.928 15.8472H232.685ZM232.401 17.3549C232.591 16.8838 232.685 16.3749 232.685 15.8472H231.928C231.928 16.2996 231.852 16.6953 231.7 17.0722L232.401 17.3549ZM231.625 18.5799C231.966 18.2219 232.231 17.8072 232.401 17.3361L231.7 17.0722C231.568 17.4492 231.36 17.7696 231.094 18.0522L231.625 18.5799ZM230.413 19.4092C230.867 19.2019 231.284 18.9192 231.625 18.5799L231.094 18.0522C230.829 18.3161 230.488 18.5422 230.11 18.7119L230.413 19.4092ZM228.917 19.6919C229.447 19.6919 229.958 19.5976 230.413 19.4092L230.11 18.7119C229.75 18.8626 229.352 18.938 228.898 18.938V19.6919H228.917ZM230.602 19.7107C230.11 19.918 229.542 20.0122 228.917 20.0122V20.7661C229.617 20.7661 230.299 20.6342 230.886 20.3892L230.602 19.7107ZM231.909 18.8438C231.549 19.2019 231.113 19.5034 230.602 19.7107L230.886 20.3892C231.492 20.1442 232.003 19.8049 232.439 19.3715L231.909 18.8438ZM232.761 17.5434C232.553 18.0522 232.269 18.4857 231.909 18.8626L232.439 19.3715C232.875 18.9192 233.215 18.4292 233.462 17.8261L232.761 17.5434ZM233.064 15.8661C233.064 16.488 232.969 17.0346 232.761 17.5434L233.462 17.8261C233.708 17.223 233.821 16.5634 233.821 15.8661H233.064ZM232.761 14.1699C232.969 14.6788 233.064 15.2442 233.064 15.8661H233.821C233.821 15.1688 233.708 14.4903 233.462 13.8872L232.761 14.1699ZM231.909 12.8696C232.269 13.2276 232.553 13.6611 232.761 14.1699L233.462 13.8872C233.215 13.2842 232.894 12.7753 232.439 12.3419L231.909 12.8696ZM230.583 12.0026C231.094 12.2099 231.549 12.5115 231.909 12.8696L232.439 12.3419C232.003 11.8896 231.492 11.5503 230.905 11.3242L230.583 12.0026ZM228.917 11.7011C229.542 11.7011 230.091 11.8142 230.583 12.0026L230.744 11.6634L230.905 11.3242C230.299 11.0792 229.636 10.9472 228.917 10.9472V11.7011ZM227.231 12.0026C227.743 11.7953 228.292 11.7011 228.917 11.7011V10.9472C228.197 10.9472 227.553 11.0603 226.947 11.3242L227.156 11.7011L227.231 12.0026ZM225.925 12.8696C226.284 12.4926 226.72 12.2099 227.231 12.0215L227.156 11.7011L226.947 11.3242C226.341 11.5692 225.83 11.9084 225.394 12.3419L225.925 12.8696ZM225.091 14.1699C225.3 13.6611 225.565 13.2276 225.925 12.8696L225.394 12.3419C224.959 12.7753 224.637 13.303 224.391 13.8872L225.091 14.1699ZM224.788 15.8472C224.788 15.2253 224.883 14.6599 225.091 14.1699L224.391 13.8872C224.144 14.4903 224.031 15.1499 224.031 15.8472H224.788ZM225.091 17.5434C224.883 17.0346 224.788 16.4692 224.788 15.8472H224.031C224.031 16.5446 224.144 17.2042 224.391 17.8072L225.091 17.5434ZM225.925 18.8626C225.565 18.4857 225.281 18.0522 225.091 17.5434L224.391 17.8072C224.637 18.3915 224.978 18.938 225.413 19.3903L225.925 18.8626ZM227.231 19.7107C226.72 19.5034 226.284 19.2207 225.925 18.8626L225.413 19.3903C225.849 19.8238 226.36 20.163 226.947 20.408L227.231 19.7107ZM228.917 20.0122C228.292 20.0122 227.724 19.918 227.231 19.7107L226.947 20.408C227.553 20.653 228.216 20.7661 228.917 20.7661V20.0122Z" fill="#F0500B"/>
<path d="M228.917 19.2984C229.409 19.2984 229.864 19.2042 230.261 19.0345C230.678 18.8461 231.038 18.6011 231.341 18.2995C231.644 17.9792 231.871 17.6211 232.041 17.1876C232.212 16.773 232.288 16.3018 232.288 15.8118C232.288 15.3218 232.212 14.8695 232.041 14.4361C231.89 14.0215 231.644 13.6445 231.341 13.343C231.038 13.0226 230.678 12.7776 230.261 12.608C229.845 12.4384 229.409 12.3442 228.917 12.3442C228.424 12.3442 227.97 12.4384 227.553 12.608C227.137 12.7776 226.796 13.0226 226.493 13.343C226.19 13.6445 225.962 14.0215 225.792 14.4361C225.622 14.8507 225.546 15.3218 225.546 15.8118C225.546 16.3018 225.622 16.7542 225.792 17.1876C225.962 17.6022 226.19 17.9792 226.493 18.2995C226.796 18.6011 227.156 18.8461 227.553 19.0345C227.97 19.223 228.424 19.2984 228.917 19.2984ZM228.917 20.3726C228.254 20.3726 227.648 20.2595 227.08 20.0522C226.531 19.8261 226.057 19.5057 225.641 19.1099C225.243 18.6953 224.94 18.2242 224.713 17.6776C224.485 17.1122 224.391 16.5092 224.391 15.8495C224.391 15.1899 224.504 14.5868 224.713 14.0215C224.94 13.4749 225.243 13.0038 225.641 12.5892C226.038 12.1745 226.512 11.873 227.08 11.6468C227.629 11.4207 228.235 11.3076 228.917 11.3076C229.579 11.3076 230.185 11.4207 230.735 11.6468C231.284 11.873 231.757 12.1745 232.174 12.5892C232.572 12.9849 232.894 13.4561 233.102 14.0215C233.329 14.568 233.424 15.1711 233.424 15.8495C233.424 16.5092 233.31 17.1311 233.102 17.6776C232.875 18.2242 232.572 18.7142 232.174 19.1099C231.776 19.5057 231.303 19.8261 230.735 20.0522C230.204 20.2595 229.598 20.3726 228.917 20.3726Z" fill="#F0500B"/>
<path d="M217.63 12.5139V16.1136H218.387V12.5139H217.63ZM219.694 12.137H218.008V12.8909H219.694V12.137ZM220.811 12.4197C220.489 12.2313 220.111 12.137 219.694 12.137V12.8909C219.978 12.8909 220.224 12.9286 220.413 13.0605L220.811 12.4197ZM221.569 13.2113C221.379 12.872 221.133 12.6082 220.811 12.4197L220.413 13.0605C220.622 13.1736 220.773 13.3432 220.906 13.5693L221.569 13.2113ZM221.853 14.342C221.853 13.9274 221.758 13.5505 221.569 13.2113L220.906 13.5693C221.02 13.7766 221.095 14.0216 221.095 14.342H221.853ZM221.569 15.4351C221.758 15.1147 221.853 14.7378 221.853 14.342H221.095C221.095 14.6247 221.038 14.8509 220.925 15.0582L221.103 15.454L221.569 15.4351ZM220.811 16.1889C221.133 16.0005 221.398 15.7743 221.569 15.4539L220.925 15.0582C220.811 15.2655 220.641 15.4163 220.432 15.5482L220.811 16.1889ZM219.694 16.4716C220.092 16.4716 220.47 16.3774 220.811 16.1889L220.432 15.5482C220.224 15.6613 219.997 15.7178 219.694 15.7178V16.4716ZM218.008 16.4716H219.694V15.7178H218.008V16.4716ZM217.573 19.8263C217.554 19.8451 217.516 19.8828 217.421 19.8828V20.6366C217.686 20.6366 217.914 20.5236 218.103 20.3351L217.887 19.9771L217.573 19.8263ZM217.63 19.6566C217.63 19.732 217.611 19.7886 217.573 19.8263L218.103 20.3351C218.292 20.1466 218.387 19.9205 218.387 19.6566H217.63ZM217.63 17.1878V19.6566H218.387V17.1878H217.63ZM219.694 16.8109H218.008V17.5647H219.694V16.8109ZM221.038 16.5093C220.66 16.7166 220.205 16.8109 219.694 16.8109V17.5647C220.319 17.5647 220.887 17.4328 221.379 17.1501L221.038 16.5093ZM221.91 15.6424C221.701 16.0193 221.417 16.302 221.038 16.5093L221.103 16.9617L221.379 17.1501C221.872 16.8674 222.288 16.4905 222.572 16.0005L221.91 15.6424ZM222.231 14.342C222.231 14.832 222.118 15.2655 221.91 15.6236L222.238 15.8309L222.572 16.0005C222.856 15.5105 222.989 14.9451 222.989 14.342H222.231ZM221.891 13.0039C222.099 13.3809 222.231 13.8332 222.231 14.3609H222.989C222.989 13.7389 222.837 13.1359 222.553 12.6459L221.891 13.0039ZM221.019 12.1182C221.398 12.3255 221.682 12.627 221.891 13.0039L222.553 12.6459C222.269 12.137 221.891 11.7413 221.379 11.4586L221.019 12.1182ZM219.694 11.7978C220.205 11.7978 220.641 11.9109 221.019 12.1182L221.379 11.4586C220.868 11.1759 220.319 11.0439 219.694 11.0439V11.7978ZM217.421 11.7978H219.694V11.0439H217.421V11.7978ZM217.27 11.8543C217.308 11.8166 217.346 11.7978 217.421 11.7978V11.0439C217.156 11.0439 216.929 11.1382 216.74 11.3266L217.27 11.8543ZM217.213 12.0051C217.213 11.9297 217.232 11.892 217.27 11.8543L216.74 11.3078C216.531 11.4963 216.456 11.7413 216.456 12.0051H217.213ZM217.213 19.6566V12.0051H216.456V19.6566H217.213ZM217.27 19.8263C217.232 19.7886 217.213 19.732 217.213 19.6566H216.456C216.456 19.9205 216.55 20.1466 216.74 20.3351L217.131 20.1656L217.27 19.8263ZM217.421 19.8828C217.346 19.8828 217.308 19.8639 217.27 19.8263L217.005 20.0807L216.74 20.3351C216.929 20.5236 217.156 20.6366 217.421 20.6366V19.8828ZM218.008 12.5139V12.137H217.63V12.5139H218.008ZM218.008 16.0947H217.63V16.4716H218.008V16.0947ZM217.838 20.0901L217.573 19.8263V19.8451L217.838 20.0901ZM218.008 17.1878V16.8109H217.63V17.1878H218.008Z" fill="#F0500B"/>
<path d="M218.009 16.0945H219.694C220.035 16.0945 220.357 16.0191 220.622 15.8683C220.887 15.7176 221.095 15.5103 221.247 15.2464C221.398 14.9826 221.474 14.681 221.474 14.3418C221.474 13.9837 221.398 13.6633 221.247 13.3995C221.095 13.1168 220.887 12.9095 220.622 12.7399C220.357 12.5703 220.054 12.4949 219.694 12.4949H218.009V16.0945ZM217.422 20.2595C217.251 20.2595 217.119 20.203 217.005 20.0899C216.891 19.9768 216.834 19.8449 216.834 19.6753V12.0049C216.834 11.8353 216.891 11.6845 217.005 11.5903C217.119 11.4772 217.251 11.4207 217.422 11.4207H219.694C220.262 11.4207 220.773 11.5526 221.209 11.7976C221.645 12.0426 221.985 12.4007 222.232 12.8341C222.478 13.2676 222.61 13.7764 222.61 14.3418C222.61 14.8883 222.478 15.3783 222.232 15.8118C221.985 16.2453 221.645 16.5845 221.209 16.8107C220.773 17.0557 220.262 17.1687 219.694 17.1687H218.009V19.6376C218.009 19.8072 217.952 19.9391 217.838 20.0522C217.743 20.203 217.592 20.2595 217.422 20.2595Z" fill="#F0500B"/>
</g>
<defs>
<clipPath id="clip0_419_6239">
<rect width="303" height="98" fill="white"/>
</clipPath>
</defs>
</svg>
